<svg width="20" height="19" fill="none" xmlns="http://www.w3.org/2000/svg"><path d="M19.49 8.8c.317.36.51.835.51 1.354 0 1.12-.897 2.031-2 2.031h-3.882c.385 1.185.549 2.757.549 3.43v.677C14.667 17.785 13.47 19 12 19h-.667a.668.668 0 01-.646-.513l-.363-1.475c-.51-2.066-2.125-4.346-3.797-4.76a2.004 2.004 0 01-1.86 1.287h-4A.672.672 0 010 12.862V.677C0 .303.299 0 .667 0h4a2 2 0 011.805 1.158l2.29-.776A7.216 7.216 0 0111.083 0h5.585c1.102 0 2 .911 2 2.03 0 .265-.05.518-.14.75A2.03 2.03 0 0120 4.738c0 .52-.193.994-.51 1.354.317.36.51.834.51 1.354 0 .519-.193.994-.51 1.353zM5.332 2.03a.672.672 0 00-.666-.676H1.333v10.831h3.334a.673.673 0 00.666-.677V2.031zm11.334 6.094H18a.673.673 0 00.667-.677c0-.374-.3-.677-.667-.677h-1.333A.672.672 0 0116 6.093c0-.374.299-.677.667-.677H18a.673.673 0 00.667-.677c0-.374-.3-.677-.667-.677h-1.333A.672.672 0 0116 3.385c0-.374.299-.677.667-.677a.673.673 0 00.666-.677.673.673 0 00-.666-.677h-5.585c-.646 0-1.285.105-1.898.313l-2.517.852v8.376c1.045.202 2.069.875 2.993 1.975.902 1.075 1.634 2.5 1.957 3.813l.237.963H12c.735 0 1.333-.607 1.333-1.354v-.676c0-.91-.28-2.653-.638-3.43h-1.362a.672.672 0 01-.666-.678c0-.373.298-.677.666-.677H18a.673.673 0 00.667-.677c0-.373-.3-.677-.667-.677h-1.333A.672.672 0 0116 8.8c0-.373.299-.676.667-.676z" fill="#AE9D9D"/></svg>