<svg width="16" height="16" fill="none" xmlns="http://www.w3.org/2000/svg"><path d="M14.767 9.99a.398.398 0 00-.398.399v3.538a1.196 1.196 0 01-1.196 1.195H1.993c-.66 0-1.195-.535-1.196-1.195V3.543c0-.66.535-1.195 1.195-1.196H5.53a.398.398 0 100-.796H1.992A1.995 1.995 0 000 3.543v10.384a1.995 1.995 0 001.992 1.992h11.181a1.995 1.995 0 001.993-1.992v-3.538a.398.398 0 00-.399-.399z" fill="#000"/><path d="M15.007.525c-.7-.7-1.835-.7-2.536 0l-7.109 7.11a.398.398 0 00-.102.175l-.935 3.375a.398.398 0 00.49.49l3.375-.935a.398.398 0 00.176-.102l7.109-7.11c.699-.7.699-1.834 0-2.535l-.468-.468zM6.23 7.893l5.819-5.818 1.876 1.876L8.107 9.77 6.23 7.893zm-.374.752l1.499 1.5-2.074.574.575-2.074zm9.055-5.68l-.422.423-1.877-1.877.423-.422a.996.996 0 011.409 0l.467.467a.998.998 0 010 1.41z" fill="#000"/></svg>