<svg width="20" height="20" fill="none" xmlns="http://www.w3.org/2000/svg"><path d="M19.286 9.286H7.756a2.844 2.844 0 00-5.512 0H.714a.714.714 0 100 1.428h1.53a2.844 2.844 0 005.512 0h11.53a.714.714 0 000-1.428zM5 11.429A1.429 1.429 0 115 8.57a1.429 1.429 0 010 2.858zm14.286-9.286H17.04a2.844 2.844 0 00-5.511 0H.714a.714.714 0 100 1.428H11.53a2.844 2.844 0 005.511 0h2.245a.714.714 0 100-1.428zm-5 2.143a1.429 1.429 0 110-2.857 1.429 1.429 0 010 2.857zm5 12.143h-3.673a2.843 2.843 0 00-5.512 0H.714a.714.714 0 100 1.428h9.387a2.844 2.844 0 005.512 0h3.673a.714.714 0 100-1.428zm-6.429 2.143a1.429 1.429 0 110-2.858 1.429 1.429 0 010 2.857z" fill="#0C0C0C"/></svg>