<svg width="14" height="14" fill="none" xmlns="http://www.w3.org/2000/svg"><path d="M3.133 14a.722.722 0 01-.435-.148.794.794 0 01-.29-.802l.901-4.14L.255 6.115a.798.798 0 01-.218-.825.751.751 0 01.64-.533l4.04-.383 1.6-3.902A.744.744 0 017 0c.298 0 .566.185.684.471l1.598 3.903 4.04.383a.75.75 0 01.641.533.798.798 0 01-.217.825L10.69 8.91l.901 4.14a.793.793 0 01-.29.801.717.717 0 01-.817.037L7 11.716 3.515 13.89a.722.722 0 01-.382.11zM7 10.78a.71.71 0 01.381.11l3.29 2.052-.85-3.907a.797.797 0 01.235-.757l2.884-2.64-3.816-.36a.747.747 0 01-.618-.472L7 1.124 5.492 4.807a.745.745 0 01-.617.469l-3.816.361 2.884 2.64a.795.795 0 01.236.757l-.85 3.907 3.29-2.052A.722.722 0 017 10.78zM4.687 4.45zm4.625-.003z" fill="#C0AFAF"/></svg>