<svg width="15" height="15" fill="none" xmlns="http://www.w3.org/2000/svg"><path d="M1.925 0h11.15C14.134 0 15 .784 15 1.925v11.15C15 14.216 14.134 15 13.075 15H1.925C.866 15 0 14.216 0 13.075V1.925C0 .784.866 0 1.925 0zm9.002 1.667a.677.677 0 00-.675.675v1.616c0 .372.303.676.675.676h1.695a.677.677 0 00.676-.676V2.342a.677.677 0 00-.676-.675h-1.695zm2.378 4.676h-1.32c.125.408.192.84.192 1.287 0 2.495-2.088 4.518-4.663 4.518-2.574 0-4.662-2.023-4.662-4.518 0-.447.067-.879.193-1.287H1.667v6.337c0 .328.268.596.596.596H12.71a.598.598 0 00.596-.596V6.343zm-5.79-1.795c-1.664 0-3.013 1.307-3.013 2.92 0 1.612 1.349 2.918 3.012 2.918 1.664 0 3.013-1.306 3.013-2.919 0-1.612-1.349-2.919-3.013-2.919z" fill="#0E0E0E"/></svg>