<svg width="20" height="19" fill="none" xmlns="http://www.w3.org/2000/svg"><path d="M19.49 10.2c.317-.36.51-.835.51-1.354 0-1.12-.897-2.031-2-2.031h-3.882c.385-1.185.549-2.757.549-3.43v-.677C14.667 1.215 13.47 0 12 0h-.667a.668.668 0 00-.646.513l-.363 1.475c-.51 2.066-2.125 4.346-3.797 4.76a2.004 2.004 0 00-1.86-1.287h-4A.672.672 0 000 6.138v12.185c0 .374.299.677.667.677h4a2 2 0 001.805-1.158l2.29.776c.75.253 1.53.382 2.32.382h5.585c1.102 0 2-.911 2-2.03 0-.265-.05-.518-.14-.75A2.03 2.03 0 0020 14.262c0-.52-.193-.994-.51-1.354.317-.36.51-.834.51-1.354 0-.519-.193-.994-.51-1.354zM5.332 16.97a.672.672 0 01-.666.676H1.333V6.815h3.334c.367 0 .666.303.666.677v9.477zm11.334-6.093H18c.368 0 .667.303.667.676 0 .374-.3.677-.667.677h-1.333a.672.672 0 00-.667.677c0 .374.299.677.667.677H18c.368 0 .667.304.667.677 0 .373-.3.677-.667.677h-1.333a.672.672 0 00-.667.677c0 .374.299.677.667.677.367 0 .666.304.666.677a.673.673 0 01-.666.677h-5.585a5.905 5.905 0 01-1.898-.313l-2.517-.852V8.105C7.712 7.903 8.736 7.23 9.66 6.13c.902-1.075 1.634-2.5 1.957-3.813l.237-.963H12c.735 0 1.333.607 1.333 1.354v.676c0 .91-.28 2.653-.638 3.43h-1.362a.672.672 0 00-.666.678c0 .373.298.677.666.677H18c.368 0 .667.303.667.677 0 .373-.3.677-.667.677h-1.333A.672.672 0 0016 10.2c0 .373.299.677.667.677z" fill="#D03D29"/></svg>