<svg width="24" height="14" fill="none" xmlns="http://www.w3.org/2000/svg"><path d="M23.873 12.643a1.682 1.682 0 00-.082-.16c-.416-.766-1.212-1.707-2.386-2.823l-.025-.025-.012-.013-.013-.013h-.013c-.533-.52-.87-.869-1.012-1.048-.258-.34-.316-.685-.175-1.035.1-.264.475-.821 1.125-1.673a93.7 93.7 0 00.812-1.086c1.441-1.959 2.066-3.21 1.874-3.756l-.074-.127c-.05-.077-.18-.147-.387-.211-.209-.064-.475-.075-.8-.032l-3.599.025a.457.457 0 00-.25.007l-.163.038-.062.032-.05.039a.561.561 0 00-.137.134.879.879 0 00-.125.223 21.066 21.066 0 01-1.337 2.875c-.308.528-.592.986-.85 1.373-.258.388-.475.673-.65.856-.175.183-.333.33-.475.44-.141.112-.25.158-.324.141a9.008 9.008 0 01-.213-.05.843.843 0 01-.281-.314 1.425 1.425 0 01-.144-.498 5.6 5.6 0 01-.044-.518c-.003-.144-.002-.349.007-.613.008-.264.012-.443.012-.536 0-.324.007-.675.019-1.054l.031-.901c.009-.222.013-.456.013-.703 0-.247-.015-.44-.044-.581a2.018 2.018 0 00-.131-.409.684.684 0 00-.256-.307 1.428 1.428 0 00-.419-.172C12.792.066 12.23.01 11.546.002 9.996-.015 9.001.087 8.56.309a1.69 1.69 0 00-.475.383c-.15.187-.171.29-.063.306.5.077.854.26 1.062.55l.075.153c.059.11.117.307.175.588.059.28.096.592.113.932a10.31 10.31 0 010 1.597c-.042.443-.081.788-.119 1.035a2.107 2.107 0 01-.169.6 2.549 2.549 0 01-.15.281.218.218 0 01-.062.064.918.918 0 01-.337.064c-.117 0-.259-.06-.425-.179a3.024 3.024 0 01-.519-.492c-.179-.208-.38-.5-.606-.875a15.383 15.383 0 01-.7-1.328l-.2-.37a32.182 32.182 0 01-.512-1.042 20.306 20.306 0 01-.575-1.323.84.84 0 00-.3-.408L4.712.806a.85.85 0 00-.2-.108 1.304 1.304 0 00-.287-.083L.8.64C.45.64.213.721.088.883L.038.96A.421.421 0 000 1.164c0 .094.025.209.075.345.5 1.201 1.043 2.36 1.63 3.475C2.294 6.1 2.804 7 3.237 7.68c.433.681.875 1.324 1.325 1.929.45.604.748.992.893 1.162.146.17.26.298.344.384l.312.306c.2.205.494.45.881.735.388.285.817.566 1.287.843a6.904 6.904 0 001.644.677 5.563 5.563 0 001.824.211h1.437c.292-.026.512-.12.662-.281l.05-.064a.859.859 0 00.094-.236c.029-.107.044-.224.044-.351a4.3 4.3 0 01.08-.99c.063-.294.134-.516.213-.665a1.633 1.633 0 01.482-.562.792.792 0 01.1-.045c.2-.068.434-.002.706.199.27.2.524.447.762.74.237.295.522.624.856.99.333.367.625.64.874.818l.25.154c.167.102.384.196.65.28.266.086.5.107.7.065l3.199-.051c.316 0 .562-.054.737-.16.175-.107.279-.224.312-.351.034-.128.035-.273.007-.435a1.629 1.629 0 00-.088-.338z" fill="#fff"/></svg>