<svg width="18" height="14" fill="none" xmlns="http://www.w3.org/2000/svg"><path d="M17.196 2.181a1.913 1.913 0 00-1.404-.592h-2.806v-.033c0-.423-.17-.829-.457-1.1a1.547 1.547 0 00-1.1-.456H6.358a1.557 1.557 0 00-1.572 1.556v.033h-2.79c-.558 0-1.048.22-1.403.592A2.01 2.01 0 000 3.585v8.42c0 .558.22 1.048.592 1.403A2.01 2.01 0 001.995 14h13.797c.558 0 1.049-.22 1.404-.592a2.01 2.01 0 00.591-1.403v-8.42c0-.558-.22-1.049-.591-1.404zm-.288 9.824h-.017c0 .304-.118.575-.321.778a1.085 1.085 0 01-.778.32H1.995c-.304 0-.575-.117-.778-.32a1.085 1.085 0 01-.32-.778v-8.42c0-.305.117-.575.32-.778.203-.203.474-.321.778-.321h3.263a.455.455 0 00.457-.457v-.49c0-.186.068-.355.186-.474A.664.664 0 016.374.88h5.056c.186 0 .355.068.473.186a.664.664 0 01.186.474v.49c0 .254.203.457.457.457h3.263c.304 0 .575.118.778.32.203.204.321.474.321.779v8.42z" fill="#C0AFAF"/><path d="M8.894 3.635c-1.15 0-2.198.474-2.942 1.218a4.167 4.167 0 000 5.884 4.166 4.166 0 005.884 0 4.167 4.167 0 000-5.884 4.167 4.167 0 00-2.942-1.218zm2.3 6.476a3.304 3.304 0 01-2.3.947 3.304 3.304 0 01-2.3-.947 3.232 3.232 0 01-.947-2.3c0-.896.372-1.707.947-2.299a3.232 3.232 0 012.3-.947c.896 0 1.707.372 2.3.947.591.592.946 1.403.946 2.3a3.164 3.164 0 01-.947 2.3zm3.718-4.836a.828.828 0 100-1.657.828.828 0 000 1.657z" fill="#C0AFAF"/></svg>