<svg width="15" height="23" fill="none" xmlns="http://www.w3.org/2000/svg"><path d="M7.5 0C3.364 0 0 3.364 0 7.5 0 11.635 3.364 15 7.5 15c4.135 0 7.5-3.365 7.5-7.5C15 3.364 11.635 0 7.5 0zm0 13.525A6.032 6.032 0 011.475 7.5 6.032 6.032 0 017.5 1.475 6.031 6.031 0 0113.525 7.5 6.031 6.031 0 017.5 13.525z" fill="#000"/><path d="M12.736 21.436l-.369-8.754-1.474.062.322 7.63-3.047-2.625a.97.97 0 00-1.337 0l-3.047 2.625.321-7.63-1.474-.062-.369 8.754v.031a1 1 0 00.578.91.98.98 0 001.059-.154l3.6-3.102 3.602 3.103a.98.98 0 001.058.152 1 1 0 00.577-.94zM10.775 5.257a.737.737 0 00-1.043 0L6.52 8.47 5.024 6.957a.738.738 0 10-1.05 1.037l2.017 2.04c.138.14.326.22.523.22h.002a.738.738 0 00.522-.216L10.775 6.3a.737.737 0 000-1.043z" fill="#000"/></svg>