<svg width="15" height="18" fill="none" xmlns="http://www.w3.org/2000/svg"><path d="M3.516 11.11H.703a.703.703 0 00-.703.703v5.484c0 .388.315.703.703.703h2.813a.703.703 0 00.703-.703v-5.485a.703.703 0 00-.703-.703zm-.704 5.484H1.407v-4.078h1.407v4.078zm11.391-11.11h-2.812a.703.703 0 00-.704.704v11.109c0 .388.315.703.704.703h2.812a.703.703 0 00.703-.703V6.187a.703.703 0 00-.703-.703zm-.703 11.11h-1.406V6.89H13.5v9.703zM8.86 8.297H6.046A.703.703 0 005.344 9v8.297c0 .388.315.703.703.703h2.812a.703.703 0 00.704-.703V9a.703.703 0 00-.704-.703zm-.704 8.297H6.75v-6.89h1.406v6.89zM9.772 0H7.1a.703.703 0 100 1.406h.975L2.112 7.37a.703.703 0 00.995.994l5.962-5.962v.974a.703.703 0 101.406 0V.703A.705.705 0 009.772 0z" fill="#000"/></svg>