<svg width="23" height="14" fill="none" xmlns="http://www.w3.org/2000/svg"><path d="M22.878 11.851a1.56 1.56 0 00-.078-.15c-.399-.718-1.162-1.6-2.287-2.646l-.024-.024-.012-.012-.012-.012h-.012c-.51-.487-.834-.815-.97-.982-.248-.32-.303-.643-.168-.97.096-.248.455-.77 1.078-1.569.328-.423.587-.762.778-1.018 1.381-1.836 1.98-3.01 1.797-3.52l-.072-.12c-.048-.072-.171-.137-.37-.197-.2-.06-.456-.07-.767-.03l-3.45.024a.448.448 0 00-.239.006l-.155.036-.06.03-.048.036a.534.534 0 00-.132.125.819.819 0 00-.12.21 19.559 19.559 0 01-1.28 2.694c-.296.495-.567.924-.815 1.288-.248.363-.455.63-.623.802a4.453 4.453 0 01-.455.413c-.136.104-.24.148-.311.132a8.869 8.869 0 01-.204-.048.797.797 0 01-.27-.294 1.311 1.311 0 01-.137-.467 5.184 5.184 0 01-.042-.485 9.967 9.967 0 01.006-.575c.008-.247.012-.415.012-.503 0-.303.006-.632.018-.988l.03-.844c.008-.207.012-.427.012-.658 0-.232-.014-.414-.042-.545a1.86 1.86 0 00-.126-.384.645.645 0 00-.245-.287 1.383 1.383 0 00-.401-.162C12.259.062 11.72.01 11.065.002 9.58-.014 8.626.082 8.203.289a1.6 1.6 0 00-.455.36c-.144.175-.164.27-.06.287.48.071.818.243 1.018.515l.072.143c.056.104.112.288.168.551.055.264.091.555.107.874a9.32 9.32 0 010 1.497c-.04.415-.077.739-.114.97a1.959 1.959 0 01-.305.826.206.206 0 01-.06.06.897.897 0 01-.323.06c-.112 0-.248-.056-.407-.168a2.873 2.873 0 01-.497-.46 6.164 6.164 0 01-.581-.82 14.314 14.314 0 01-.67-1.246l-.192-.348c-.12-.223-.284-.548-.491-.976a18.65 18.65 0 01-.551-1.24.79.79 0 00-.287-.382l-.06-.036a.82.82 0 00-.192-.102 1.271 1.271 0 00-.275-.078L.767.6C.43.6.204.676.084.828L.036.899A.387.387 0 000 1.091c0 .088.024.196.072.323.479 1.126 1 2.212 1.563 3.258A36.602 36.602 0 003.1 7.198c.416.639.839 1.242 1.27 1.808.431.567.716.93.856 1.09.14.16.25.28.33.36l.299.287a7.1 7.1 0 00.844.688c.371.268.782.531 1.233.791.452.26.976.47 1.575.634.599.164 1.182.23 1.749.198h1.377c.28-.024.49-.112.635-.263l.047-.06a.797.797 0 00.09-.222c.028-.1.042-.21.042-.329a3.946 3.946 0 01.077-.928c.06-.275.128-.483.204-.623a1.535 1.535 0 01.462-.526.79.79 0 01.095-.042c.192-.064.417-.002.677.185.26.188.503.42.73.695.228.276.501.585.82.928.32.343.6.599.839.767l.24.143c.16.096.367.184.622.264.255.08.479.1.67.06l3.066-.048c.303 0 .54-.05.707-.15.167-.1.267-.21.3-.33a.928.928 0 00.005-.407 1.499 1.499 0 00-.084-.317z" fill="#FC4128"/></svg>