<svg width="27" height="26" fill="none" xmlns="http://www.w3.org/2000/svg"><path d="M13.732 0c-7.168 0-13 5.832-13 13s5.832 13 13 13c7.169 0 13-5.832 13-13s-5.831-13-13-13zm0 23.636C7.867 23.636 3.096 18.865 3.096 13c0-5.865 4.771-10.636 10.636-10.636C19.597 2.364 24.37 7.135 24.37 13c0 5.865-4.772 10.636-10.637 10.636z" fill="#42AAFF"/><path d="M13.732 5.515a1.577 1.577 0 0 0 0 3.152c.869 0 1.576-.707 1.576-1.575 0-.87-.707-1.577-1.576-1.577zm0 5.515c-.652 0-1.181.53-1.181 1.182v7.091a1.182 1.182 0 1 0 2.363 0v-7.09c0-.654-.529-1.183-1.182-1.183z" fill="#42AAFF"/></svg>