<svg width="80" height="62" fill="none" xmlns="http://www.w3.org/2000/svg"><path d="M47.376 58.716c0 .42-.336.756-.756.756H2.436a.753.753 0 01-.756-.756V2.436c0-.42.336-.756.756-.756h44.268c.42 0 .756.336.756.756v56.28h-.084z" fill="#151515"/><path d="M46.704 61.152H2.436A2.438 2.438 0 010 58.716V2.436A2.438 2.438 0 012.436 0h44.268a2.438 2.438 0 012.436 2.436v56.28c-.084 1.344-1.176 2.436-2.436 2.436zM3.36 57.792h42.336V3.36H3.36v54.432z" fill="#F8F1F1"/><path d="M41.16 35.868H24.276v16.884H41.16V35.868z" fill="#D03D29"/><path d="M36.96 44.94h-8.568v3.36h8.568v-3.36zm0-4.704h-8.568v3.36h8.568v-3.36z" fill="#151515"/><path d="M42.756 54.432H6.3V17.976h36.456v36.456zM9.66 51.072h29.736V21.336H9.66v29.736z" fill="#282D33"/><path d="M42.42 7.224H6.636v7.98H42.42v-7.98z" fill="#D03D29"/><path d="M42.756 54.432H6.3V17.976h36.456v36.456zM9.66 51.072h29.736V21.336H9.66v29.736z" fill="#F8F1F1"/><path d="M26.292 19.656h-3.36v32.928h3.36V19.656z" fill="#F8F1F1"/><path d="M41.076 34.44H8.148v3.36h32.928v-3.36zm-20.748-8.148H11.76v3.36h8.568v-3.36z" fill="#F8F1F1"/><path d="M17.724 23.688h-3.36v8.568h3.36v-8.568z" fill="#F8F1F1"/><path d="M37.212 26.292h-8.568v3.36h8.568v-3.36z" fill="#151515"/><path d="M14.216 40.48l-2.375 2.377 6.06 6.058 2.375-2.377-6.06-6.057z" fill="#F8F1F1"/><path d="M17.899 40.484l-6.059 6.058 2.376 2.376 6.059-6.059-2.376-2.375zM76.44 59.472l-9.996-34.608-9.996 34.608-3.192-.924 13.188-45.696 13.272 45.696-3.276.924z" fill="#F8F1F1"/><path d="M66.444 21.168c-3.78 0-6.888-3.108-6.888-6.888s3.108-6.888 6.888-6.888 6.888 3.108 6.888 6.888-3.108 6.888-6.888 6.888zm0-10.332c-1.932 0-3.528 1.596-3.528 3.528s1.596 3.528 3.528 3.528 3.528-1.596 3.528-3.528c0-2.016-1.596-3.528-3.528-3.528z" fill="#F8F1F1"/><path d="M68.124.588h-3.36v7.896h3.36V.588zm-1.68 41.832c-4.368 0-8.736-.924-12.768-2.856l1.428-3.024c7.224 3.444 15.456 3.444 22.68 0l1.428 3.024c-4.032 1.932-8.4 2.856-12.768 2.856zM36.636 29.36V26H30v3.36h6.636z" fill="#F8F1F1"/></svg>