<svg width="70" height="84" fill="none" xmlns="http://www.w3.org/2000/svg"><path d="M61.281 83.291l-26.24-45.513L8.72 83.291l-2.77-1.628 29.09-50.398 29.092 50.398-2.852 1.628z" fill="#F8F1F1"/><path d="M36.67 0h-3.259v82.477h3.26V0z" fill="#F8F1F1"/><path d="M70 11.519H0v54.632h70V11.519z" fill="#FC4128"/><path d="M26.403 16.772h38.708v44.862H4.89V16.772h21.513z" fill="#151515"/><path d="M66.74 63.262H3.26V15.144h63.48v48.118zM6.52 60.005h56.96V18.401H6.519v41.605z" fill="#F8F1F1"/><path d="M44.493 10.747H25.506v5.7h18.987v-5.7z" fill="#151515"/><path d="M46.123 18.075H23.876V9.119h22.247v8.956zm-18.987-3.257h15.727v-2.442H27.136v2.442z" fill="#F8F1F1"/><path d="M21.595 22.879H11v10.584h10.594V22.879zm37.078 0h-4.97v4.966h4.97V22.88zM43.19 33.382H21.595v21.576H43.19V33.382z" fill="#FC4128"/><path d="M21.35 41.116c-4.4 0-7.986-3.582-7.986-7.979 0-4.396 3.586-7.979 7.986-7.979s7.986 3.583 7.986 7.98c0 4.477-3.585 7.978-7.986 7.978zm0-12.62a4.728 4.728 0 00-4.726 4.723 4.728 4.728 0 009.453 0 4.728 4.728 0 00-4.727-4.723zm38.383 23.368H37.975l10.92-18.808 10.837 18.808zm-16.054-3.257h10.43l-5.215-9.038-5.215 9.038z" fill="#F8F1F1"/></svg>