<svg width="66" height="83" fill="none" xmlns="http://www.w3.org/2000/svg"><path d="M53.543 24.086c-.336-.336-.755-.755-1.175-1.091l2.266-2.518 1.259 1.26-2.35 2.349zM32.73 77.545c-.84 0-1.678 0-2.518-.084l.252-3.357c1.091.084 2.182.084 3.273.084l.084 3.357H32.73zm4.7-.336l-.504-3.357c1.091-.167 2.098-.335 3.19-.67l.839 3.272c-1.091.336-2.35.588-3.525.755zm-10.742-.251c-1.175-.252-2.35-.504-3.525-.84l1.007-3.189c1.007.336 2.098.588 3.189.756l-.671 3.273zm17.707-1.595l-1.175-3.105c1.008-.42 2.015-.84 2.938-1.343l1.51 3.021c-1.007.504-2.098 1.007-3.273 1.427zm-24.673-.504c-1.091-.503-2.182-1.007-3.273-1.594l1.678-2.937a31.69 31.69 0 002.938 1.426l-1.343 3.105zm31.135-2.769l-1.846-2.77c.923-.587 1.762-1.258 2.602-1.93l2.182 2.602c-1.007.671-1.93 1.427-2.938 2.098zm-37.43-.755c-1.006-.672-1.93-1.51-2.769-2.266l2.266-2.518a26.55 26.55 0 002.518 2.014l-2.014 2.77zm42.97-3.86l-2.434-2.35c.755-.756 1.426-1.595 2.098-2.434l2.685 2.014c-.755.923-1.51 1.846-2.35 2.77zM8.14 66.466a83.44 83.44 0 01-2.266-2.853l2.77-1.93a14.735 14.735 0 002.013 2.517L8.14 66.466zm52.62-4.783l-2.854-1.679c.588-.923 1.091-1.93 1.51-2.853l3.022 1.426c-.504 1.008-1.007 2.098-1.679 3.106zM4.027 60.509c-.587-1.091-1.09-2.182-1.594-3.273l3.105-1.26c.42 1.008.84 2.015 1.427 2.938L4.028 60.51zm59.754-5.371l-3.19-1.091c.336-1.008.588-2.098.84-3.106l3.273.672c-.252 1.259-.504 2.434-.923 3.525zM1.259 53.795C.923 52.62.67 51.445.419 50.27l3.274-.587c.251 1.09.503 2.182.755 3.189l-3.19.923zm64.033-5.707l-3.357-.336c.084-1.007.168-1.93.168-2.937v-.336h3.357v.336c0 1.091-.084 2.182-.168 3.273zM.084 46.745C0 46.074 0 45.486 0 44.815c0-.587 0-1.175.084-1.762l3.357.168v1.594c0 .588 0 1.175.084 1.678l-3.441.252zM61.85 41.29c-.167-1.09-.335-2.182-.587-3.189l3.273-.755c.252 1.175.503 2.35.671 3.525l-3.357.42zM3.777 40.031l-3.273-.503a26.4 26.4 0 01.755-3.525l3.273.923a18.644 18.644 0 00-.755 3.105zm56.648-5.035a23.064 23.064 0 00-1.26-3.021l3.022-1.51c.504 1.09 1.007 2.181 1.427 3.356l-3.19 1.175zm-54.97-1.175L2.35 32.562c.42-1.09 1.007-2.182 1.51-3.273l2.938 1.595c-.42.923-.923 1.93-1.343 2.937zm52.116-4.7a29.007 29.007 0 00-1.846-2.601l2.602-2.098c.755.923 1.426 1.93 2.098 2.937l-2.854 1.762zm-49.01-1.007l-2.77-1.93c.671-1.007 1.426-1.93 2.182-2.853l2.517 2.182c-.587.839-1.258 1.678-1.93 2.601zm4.363-4.951l-2.266-2.434c.42-.42.84-.755 1.343-1.175l2.098 2.602c-.42.335-.84.671-1.175 1.007z" fill="#F8F1F1"/><path d="M32.73 62.439c0-6.043-4.532-10.91-10.322-11.582V71.42c0 6.042 4.531 10.91 10.322 11.581m0-20.562c0-6.043 4.532-10.91 10.323-11.582V71.42c0 6.042-4.532 10.91-10.323 11.581" fill="#FC4128"/><path d="M18.883 1.93v24.422c0 7.133 5.37 13.008 12.337 13.847V15.694c0-7.134-5.455-13.009-12.337-13.764z" fill="#151515"/><path d="M32.73 42.045l-1.762-.167c-7.89-.923-13.848-7.553-13.848-15.526V1.846l.084-1.762 1.763.168c7.888.923 13.847 7.553 13.847 15.525v24.507l-.084 1.761zm-12.253-38.1v22.407c0 5.623 3.777 10.406 8.98 11.833V15.694c.084-5.54-3.693-10.323-8.98-11.75z" fill="#F8F1F1"/><path d="M25.345 21.233v16.952a14.013 14.013 0 007.386 2.098c7.72 0 13.93-6.21 13.93-13.931V1.93c-.587-.084-1.258-.084-1.846-.084-10.742 0-19.47 8.644-19.47 19.387z" fill="#151515"/><path d="M32.73 41.962c-2.937 0-5.79-.84-8.308-2.35l-.755-.504V21.233C23.667 9.567 33.15.168 44.73.168c.672 0 1.343 0 2.015.084l1.426.168.084 1.426v24.506c.084 8.644-6.965 15.61-15.526 15.61zm-5.706-4.784c1.762.923 3.692 1.427 5.706 1.427 6.714 0 12.253-5.455 12.253-12.253V3.525c-9.903-.168-17.96 7.889-17.96 17.708v15.945z" fill="#F8F1F1"/><path d="M32.73 35.248c-.839 0-1.594-.084-2.35-.336v-13.68A14.315 14.315 0 0141.626 7.218v19.135c0 4.951-4.028 8.896-8.896 8.896z" fill="#FC4128"/><path d="M29.54 9.148c1.511-1.847 3.357-3.525 5.456-4.7-1.343-1.007-2.938-1.846-4.784-2.686a25.483 25.483 0 00-4.784 2.602c1.679 1.343 3.105 2.937 4.113 4.784z" fill="#151515"/><path d="M29.289 12.253l-1.175-2.266c-.84-1.679-2.182-3.105-3.693-4.196l-1.93-1.343 1.93-1.343c1.427-1.007 3.19-1.93 5.036-2.77L30.128 0l.671.252c1.93.839 3.693 1.762 5.12 2.853l2.098 1.51L35.75 5.96c-1.93 1.09-3.609 2.601-4.952 4.28l-1.51 2.014zm-1.091-7.637a14.105 14.105 0 011.51 1.762c.672-.671 1.343-1.343 2.098-1.846a11.374 11.374 0 00-1.762-.84c-.587.252-1.259.588-1.846.924zm6.21 35.331h-3.357v42.885h3.357V39.947z" fill="#F8F1F1"/></svg>