<svg width="80" height="76" fill="none" xmlns="http://www.w3.org/2000/svg"><path d="M78.12 68.628h-3.36v6.636h3.36v-6.636zm-30.576-9.912c0 .42-.336.756-.756.756H2.604a.753.753 0 01-.756-.756V2.436c0-.42.336-.756.756-.756h44.268c.42 0 .756.336.756.756v56.28h-.084z" fill="#F8F1F1"/><path d="M46.872 61.152H2.604a2.438 2.438 0 01-2.436-2.436V2.436A2.438 2.438 0 012.604 0h44.268a2.438 2.438 0 012.436 2.436v56.28c-.084 1.344-1.176 2.436-2.436 2.436zm-43.344-3.36h42.336V3.36H3.528v54.432z" fill="#151515"/><path d="M41.328 35.868H24.444v16.884h16.884V35.868z" fill="#D03D29"/><path d="M37.128 44.94H28.56v3.36h8.568v-3.36zm0-4.704H28.56v3.36h8.568v-3.36z" fill="#F8F1F1"/><path d="M42.924 54.432H6.468V17.976h36.456v36.456zm-33.096-3.36h29.736V21.336H9.828v29.736z" fill="#282D33"/><path d="M42.588 7.224H6.804v7.98h35.784v-7.98z" fill="#D03D29"/><path d="M42.924 54.432H6.468V17.976h36.456v36.456zm-33.096-3.36h29.736V21.336H9.828v29.736z" fill="#151515"/><path d="M26.46 19.656H23.1v32.928h3.36V19.656z" fill="#151515"/><path d="M41.244 34.44H8.316v3.36h32.928v-3.36zm-20.748-8.148h-8.568v3.36h8.568v-3.36z" fill="#151515"/><path d="M17.892 23.688h-3.36v8.568h3.36v-8.568zm19.488 2.604h-8.57v3.36h8.569v-3.36zM14.384 40.48l-2.375 2.377 6.06 6.058 2.375-2.377-6.06-6.057z" fill="#151515"/><path d="M18.067 40.484l-6.059 6.058 2.376 2.376 6.059-6.059-2.376-2.375zm58.541 18.988l-9.996-34.608-9.996 34.608-3.192-.924 13.188-45.696 13.272 45.696-3.276.924z" fill="#151515"/><path d="M66.612 21.168c-3.78 0-6.888-3.108-6.888-6.888s3.108-6.888 6.888-6.888S73.5 10.5 73.5 14.28s-3.108 6.888-6.888 6.888zm0-10.332c-1.932 0-3.528 1.596-3.528 3.528s1.596 3.528 3.528 3.528 3.528-1.596 3.528-3.528c0-2.016-1.596-3.528-3.528-3.528z" fill="#151515"/><path d="M68.292.588h-3.36v7.896h3.36V.588zm-1.68 41.832c-4.368 0-8.736-.924-12.768-2.856l1.428-3.024c7.224 3.444 15.456 3.444 22.68 0l1.428 3.024c-4.032 1.932-8.4 2.856-12.768 2.856z" fill="#151515"/></svg>