<svg width="76" height="76" fill="none" xmlns="http://www.w3.org/2000/svg"><path d="M38 76c-7.457 0-14.676-2.142-20.944-6.347l-13.09 6.109L8.49 61.879C3.015 55.136 0 46.647 0 38 0 17.056 17.056 0 38 0v3.173C18.802 3.173 3.173 18.802 3.173 38a34.89 34.89 0 008.25 22.53l.556.714-2.776 8.568 8.091-3.808.714.555c5.87 4.126 12.773 6.268 19.913 6.268 19.198 0 34.826-15.629 34.826-34.827h3.174c0 20.944-16.977 38-37.921 38z" fill="#151515"/><path d="M75.92 38h-3.173v-1.507l3.173-.159V38zm-3.411-4.601a40.176 40.176 0 00-.555-3.015l3.094-.714c.238 1.031.396 2.142.555 3.253l-3.094.476zm-1.349-5.87c-.317-.953-.634-1.905-1.031-2.857l2.935-1.19c.397 1.032.794 2.063 1.11 3.094l-3.014.952zm-2.3-5.633c-.476-.873-.952-1.746-1.508-2.618l2.698-1.746 1.666 2.856-2.856 1.508zm-3.253-5.078c-.635-.793-1.27-1.586-1.983-2.3l2.38-2.142c.714.793 1.428 1.666 2.142 2.538l-2.539 1.904zm-4.125-4.522c-.714-.713-1.508-1.348-2.3-1.983l1.903-2.46a21.362 21.362 0 012.539 2.143l-2.142 2.3zm-4.76-3.649c-.873-.555-1.745-1.031-2.618-1.507l1.428-2.856a26.605 26.605 0 012.856 1.666l-1.666 2.697zm-5.395-2.856c-.952-.396-1.904-.714-2.856-1.031l.952-3.015c1.032.318 2.063.714 3.094 1.111l-1.19 2.935zm-5.79-1.824c-.953-.238-1.984-.397-3.015-.556l.396-3.173c1.11.159 2.221.317 3.253.555l-.635 3.174zm-6.03-.794H38V0h1.666l-.159 3.173z" fill="#151515"/><path d="M66.163 37.603c0 15.946-12.931 28.877-28.877 28.877S8.409 53.55 8.409 37.603c0-15.945 12.931-28.877 28.877-28.877s28.877 12.932 28.877 28.877z" fill="#FC4128"/><path d="M34.478 29.9v6.647h-8.326V29.9h-2.99V46h2.99v-6.9h8.326V46h2.99V29.9h-2.99zm8.477 1.794c1.081 0 1.84-.782 1.84-1.794 0-.943-.782-1.656-1.84-1.656s-1.84.759-1.84 1.725c0 .966.782 1.725 1.84 1.725zM41.506 46h2.875V33.718h-2.875V46zm6.833-5.336h2.277L51.19 29.9h-3.404l.552 10.764zm1.15 5.497c1.058 0 1.817-.805 1.817-1.794s-.76-1.771-1.817-1.771c-1.081 0-1.863.782-1.863 1.771 0 .989.782 1.794 1.863 1.794z" fill="#F8F1F1"/></svg>