<svg width="57" height="74" fill="none" xmlns="http://www.w3.org/2000/svg"><path d="M54.34 51.532l-2.164-2.09c1.791-1.866 1.269-6.195-1.418-11.57-2.986-6.046-8.211-12.764-14.705-18.96-6.494-6.195-13.436-11.121-19.631-13.808-5.524-2.389-9.853-2.762-11.645-.896-2.314 2.389-.746 8.659 3.956 16.048L6.195 21.9C.522 12.94-.82 5.7 2.612 2.118c2.762-2.836 8.137-2.762 15.004.224 6.494 2.836 13.734 7.987 20.527 14.406 6.718 6.42 12.167 13.436 15.302 19.78 3.359 6.793 3.657 12.093.896 15.004z" fill="#F8F1F1"/><path d="M7.539 54.593c-2.463 0-4.404-.672-5.748-2.09l2.165-2.09c1.791 1.866 6.046 1.493 11.57-.896 6.12-2.687 12.988-7.54 19.482-13.66 6.42-6.12 11.644-12.839 14.63-18.81 2.687-5.375 3.21-9.63 1.418-11.495-2.164-2.24-7.837-1.27-14.78 2.463l-1.418-2.613c8.36-4.628 15.079-5.3 18.288-1.94 2.762 2.91 2.389 8.136-.895 14.854-3.136 6.27-8.51 13.212-15.228 19.631-6.718 6.42-13.884 11.495-20.303 14.332-3.508 1.493-6.643 2.314-9.181 2.314z" fill="#F8F1F1"/><path d="M51.579 6.373a3.315 3.315 0 00-.597-.821l2.164-2.09c.448.447.821 1.045 1.12 1.642l-2.687 1.269zm-44.04 48.22a9.442 9.442 0 01-2.09-.224l.597-2.911c.747.149 1.568.149 2.538.074l.299 2.986c-.448 0-.97.075-1.344.075zm4.553-.672l-.746-2.911c.82-.224 1.791-.523 2.687-.896l1.045 2.762c-1.045.448-2.09.746-2.986 1.045zM2.015 52.727a1.005 1.005 0 00-.298-.224c-.821-.822-1.344-1.867-1.642-3.06l2.91-.673c.15.672.449 1.27.896 1.717l.15.15-2.016 2.09zm15.9-1.045l-1.27-2.688a29.12 29.12 0 002.613-1.343l1.418 2.612c-.895.523-1.866.97-2.761 1.419zm5.448-2.986l-1.567-2.538 2.463-1.568 1.717 2.464c-.896.597-1.791 1.12-2.613 1.642zM2.986 46.233L0 45.933c.075-.97.299-2.09.672-3.209l2.836.821a13.04 13.04 0 00-.522 2.688zm25.379-.97l-1.792-2.39c.747-.597 1.568-1.194 2.314-1.79l1.866 2.313c-.746.672-1.567 1.269-2.388 1.866zm4.777-3.808l-1.94-2.239c.746-.597 1.492-1.269 2.238-1.94l2.016 2.239c-.747.597-1.493 1.268-2.314 1.94zm-28.663-.597l-2.762-1.12a31.71 31.71 0 011.343-2.836l2.688 1.344c-.523.895-.896 1.791-1.27 2.612zm33.216-3.508l-2.09-2.165c.747-.672 1.418-1.418 2.09-2.09l2.165 2.09-2.165 2.165zm4.255-4.404l-2.24-2.015c.672-.747 1.344-1.493 1.941-2.24l2.314 1.941a64.056 64.056 0 01-2.015 2.314zm3.881-4.703l-2.388-1.866c.597-.82 1.194-1.567 1.791-2.388l2.463 1.716a31.71 31.71 0 01-1.866 2.538zm3.583-5l-2.538-1.568c.523-.821 1.045-1.717 1.493-2.463l2.613 1.492c-.448.821-.97 1.717-1.568 2.538zm3.06-5.375l-2.687-1.27c.448-.895.822-1.79 1.12-2.612l2.762 1.045c-.299.896-.746 1.867-1.194 2.837zm2.165-5.972l-2.91-.671c.223-.97.298-1.792.298-2.538l2.986-.075v.075c0 .97-.15 2.09-.374 3.21zM7.166 35.708L4.628 34.14a7.4 7.4 0 01.821-1.269l2.538 1.642c-.373.374-.597.822-.821 1.195z" fill="#F8F1F1"/><path d="M51.579 6.373a3.315 3.315 0 00-.597-.821l2.164-2.09c.448.447.821 1.045 1.12 1.642l-2.687 1.269zm-44.04 48.22a9.442 9.442 0 01-2.09-.224l.597-2.911c.747.149 1.568.149 2.538.074l.299 2.986c-.448 0-.97.075-1.344.075zm4.553-.672l-.746-2.911c.82-.224 1.791-.523 2.687-.896l1.045 2.762c-1.045.448-2.09.746-2.986 1.045zM2.015 52.727a1.005 1.005 0 00-.298-.224c-.821-.822-1.344-1.867-1.642-3.06l2.91-.673c.15.672.449 1.27.896 1.717l.15.15-2.016 2.09zm15.9-1.045l-1.27-2.688a29.143 29.143 0 002.613-1.343l1.418 2.612c-.895.523-1.866.97-2.761 1.419zm5.448-2.986l-1.567-2.538 2.463-1.568 1.717 2.464c-.896.597-1.791 1.12-2.613 1.642zM2.986 46.233L0 45.933c.075-.97.299-2.09.672-3.209l2.836.821a13.04 13.04 0 00-.522 2.688zm25.379-.97l-1.792-2.39c.747-.597 1.568-1.194 2.314-1.79l1.866 2.313c-.746.672-1.567 1.269-2.388 1.866zm4.777-3.808l-1.94-2.239c.746-.597 1.492-1.269 2.238-1.94l2.016 2.239c-.747.597-1.493 1.268-2.314 1.94zm-28.663-.597l-2.762-1.12a31.71 31.71 0 011.343-2.836l2.688 1.344c-.523.895-.896 1.791-1.27 2.612zm33.216-3.508l-2.09-2.165c.747-.672 1.418-1.418 2.09-2.09l2.165 2.09-2.165 2.165zm4.255-4.404l-2.24-2.015c.672-.747 1.344-1.493 1.941-2.24l2.314 1.941a64.056 64.056 0 01-2.015 2.314zm3.881-4.703l-2.388-1.866c.597-.82 1.194-1.567 1.791-2.388l2.463 1.716a31.71 31.71 0 01-1.866 2.538zm3.583-5l-2.538-1.568c.523-.821 1.045-1.717 1.493-2.463l2.613 1.492c-.448.821-.97 1.717-1.568 2.538zm3.06-5.375l-2.687-1.27c.448-.895.822-1.79 1.12-2.612l2.762 1.045c-.299.896-.746 1.867-1.194 2.837zm2.165-5.972l-2.91-.671c.223-.97.298-1.792.298-2.538l2.986-.075v.075c0 .97-.15 2.09-.374 3.21zM7.166 35.708L4.628 34.14a7.4 7.4 0 01.821-1.269l2.538 1.642c-.373.374-.597.822-.821 1.195zm28.141 13.585c-.448-.224-.896-.523-1.344-.747l1.493-2.538c.448.224.821.523 1.269.747l-1.418 2.538zM4.777 4.208l-2.164-2.09c.448-.448.97-.896 1.567-1.194L5.6 3.536c-.299.224-.598.448-.822.672z" fill="#F8F1F1"/><path d="M35.307 49.293c-.448-.224-.896-.523-1.344-.747l1.493-2.538c.448.224.821.523 1.269.747l-1.418 2.538zm11.943 4.255c-.97-.075-2.09-.299-3.21-.598l.746-2.91c.97.298 1.941.447 2.762.522l-.299 2.986zm3.508-.15l-.597-2.91c.82-.15 1.492-.523 1.94-.971l2.09 2.164c-.895.896-2.09 1.493-3.433 1.717zm-9.779-1.418c-.97-.373-1.94-.746-2.91-1.269l1.268-2.687c.896.448 1.792.821 2.688 1.194l-1.046 2.762zm15.004-3.657l-2.911-.672c.074-.448.149-.896.149-1.419 0-.373 0-.746-.075-1.12l2.986-.298c.075.523.075.97.075 1.419 0 .746-.075 1.418-.224 2.09zm-3.36-5.897c-.223-.821-.596-1.792-.97-2.688l2.762-1.194c.448 1.045.821 2.09 1.12 2.986l-2.911.896zm-2.238-5.375c-.448-.82-.896-1.717-1.419-2.538l2.538-1.567c.523.896 1.045 1.866 1.568 2.762l-2.687 1.343zm-3.06-5.076c-.523-.82-1.12-1.642-1.718-2.463l2.389-1.791c.597.82 1.269 1.717 1.791 2.538l-2.463 1.716zm-3.584-4.777a53.195 53.195 0 00-1.94-2.314l2.239-1.94c.672.746 1.343 1.567 2.015 2.388l-2.314 1.866zm-3.956-4.478c-.672-.747-1.343-1.418-2.09-2.165l2.09-2.09c.747.747 1.418 1.493 2.165 2.24l-2.165 2.015zm-4.18-4.255l-2.24-2.015 1.941-2.24c.747.672 1.493 1.344 2.315 2.09l-2.016 2.165zm-4.553-3.956c-.747-.672-1.568-1.27-2.314-1.866l1.791-2.389a30.065 30.065 0 012.389 1.94l-1.866 2.315zm-4.703-3.658c-.82-.597-1.642-1.12-2.463-1.642l1.642-2.538c.821.523 1.717 1.12 2.538 1.717l-1.717 2.463zm-5-3.21a44.905 44.905 0 00-2.613-1.418l1.343-2.687c.896.448 1.792.97 2.762 1.493l-1.493 2.613zm-5.3-2.687c-.971-.373-1.867-.746-2.688-1.045l.896-2.836c.97.299 1.94.672 2.986 1.12l-1.195 2.761zm-5.45-1.716c-.97-.15-1.866-.224-2.687-.224L7.762.028c1.046-.075 2.166 0 3.36.224l-.523 2.986z" fill="#F8F1F1"/><path d="M4.777 4.208l-2.164-2.09c.448-.448.97-.896 1.567-1.194L5.6 3.536c-.299.224-.598.448-.822.672z" fill="#282D33"/><path d="M15.302 59.892h24.856c.15-2.388.672-5.449 2.165-7.39C51.504 40.71 52.1 29.439 52.1 28.617c0-13.435-10.898-24.408-24.408-24.408-13.436 0-24.409 10.898-24.409 24.408 0 .822.597 12.018 9.779 23.887 1.567 1.94 2.09 5 2.239 7.39z" fill="#FC4128"/><path d="M11.346 28.542H8.36c0-10.674 8.733-19.333 19.407-19.333v2.986c-9.106 0-16.421 7.315-16.421 16.347zm32.246 30.156H11.868v2.986h31.724v-2.986zm0 6.121H11.868v2.986h31.724v-2.986zm-6.494 6.195h-18.66V74h18.66v-2.986z" fill="#F8F1F1"/><path d="M17.093 60.49h-2.985v6.494h2.985V60.49zm-9.554-5.897c-2.463 0-4.404-.672-5.748-2.09l2.165-2.09c1.791 1.866 6.046 1.492 11.57-.896 6.12-2.687 12.988-7.54 19.482-13.66 6.42-6.12 11.644-12.839 14.63-18.81 2.687-5.375 3.21-9.63 1.418-11.495l2.165-2.09c2.762 2.91 2.389 8.136-.896 14.854-3.135 6.27-8.51 13.212-15.227 19.631-6.793 6.42-13.959 11.495-20.378 14.332-3.508 1.492-6.643 2.314-9.181 2.314z" fill="#F8F1F1"/><path d="M54.341 51.532l-2.165-2.09c1.792-1.866 1.27-6.195-1.418-11.57-2.986-6.046-8.21-12.764-14.705-18.96-6.493-6.194-13.436-11.12-19.631-13.807-5.524-2.389-9.853-2.762-11.645-.896l-2.164-2.09c2.762-2.836 8.136-2.762 15.003.224 6.494 2.836 13.735 7.987 20.527 14.406 6.718 6.42 12.167 13.436 15.302 19.78 3.36 6.793 3.658 12.093.896 15.004z" fill="#F8F1F1"/></svg>