<svg width="66" height="85" fill="none" xmlns="http://www.w3.org/2000/svg"><path d="M34.427 0H31.01v4.698h3.417V0zm-8.531.67l-3.3.884 1.216 4.538 3.3-.884L25.898.67zm-8.063 2.908l-2.96 1.708 2.35 4.07 2.96-1.71-2.35-4.068zM10.801 8.36l-2.416 2.415 3.321 3.323 2.417-2.416L10.8 8.359zm-5.559 6.557l-1.709 2.96 4.069 2.35 1.709-2.96-4.07-2.35zm-3.649 7.687l-.885 3.3 4.539 1.216.884-3.3-4.538-1.216zm3.105 8.406H0v3.417h4.698V31.01zm.494 7.314L.654 39.539l.884 3.301 4.538-1.216-.884-3.3zm2.427 6.936l-4.07 2.35 1.71 2.96 4.068-2.35-1.708-2.96zm50.273.069l-1.709 2.96 4.069 2.349 1.709-2.96-4.069-2.349zm2.39-6.979l-.884 3.301 4.538 1.217.884-3.3-4.538-1.217zm5.156-7.34h-4.699v3.417h4.699V31.01zm-1.555-8.4l-4.539 1.216.885 3.301 4.538-1.216-.884-3.3zm-3.653-7.749l-4.068 2.35 1.708 2.958 4.07-2.349-1.71-2.959zm-5.554-6.437l-3.322 3.322 2.416 2.416 3.322-3.322-2.416-2.416zm-7.049-4.918l-2.348 4.07 2.96 1.707 2.348-4.07-2.96-1.707zM39.592.681L38.376 5.22l3.3.884 1.217-4.538-3.3-.885zm14.215 50.552L51.39 53.65l3.322 3.323 2.416-2.416-3.321-3.322zm-42.124-.007L8.36 54.548l2.417 2.417 3.322-3.323-2.416-2.416z" fill="#151515"/><path d="M21.955 30.583V29.13l11.532-16.232 10.08 16.232v1.452" fill="#fff"/><path d="M45.277 30.583H41.86v-.94l-8.458-13.668-9.738 13.754v.854h-3.417v-1.965L33.573 9.824l11.704 18.794v1.965z" fill="#151515"/><path d="M43.654 30.668h-21.87V73.04h21.87V30.668z" fill="#F8F1F1"/><path d="M42.03 32.377v38.955H23.579V32.377h18.453zm3.418-3.417H20.16v45.789h25.287v-45.79z" fill="#151515"/><path d="M30.754 31.779h-3.417v41.774h3.417V31.779zm7.09 0h-3.417v41.774h3.417V31.779zm-.854-15.804h-6.408v3.417h6.408v-3.417z" fill="#151515"/><path d="M20.075 78.251v5.04c0 .94.77 1.709 1.709 1.709h21.955c.94 0 1.708-.769 1.708-1.709v-5.04H20.075z" fill="#D03D29"/></svg>