<svg width="78" height="80" fill="none" xmlns="http://www.w3.org/2000/svg"><path d="M28.074 6.875C18.042 2.442 6.299 7.03 1.866 17.062c-4.432 10.032.156 21.775 10.188 26.207 10.032 4.433 21.774-.155 26.207-10.187s-.156-21.775-10.187-26.207z" fill="#FC4128"/><path d="M40.594 67.144c-4.277 0-8.398-.856-12.365-2.644-15.553-6.844-22.552-25.041-15.708-40.517A30.782 30.782 0 0140.672 5.63c4.277 0 8.399.856 12.365 2.644 7.466 3.344 13.298 9.332 16.253 17.031 2.955 7.7 2.8 16.02-.544 23.486-4.9 11.198-15.942 18.353-28.152 18.353z" fill="#151515"/><path d="M40.672 7.186c3.889 0 7.932.777 11.743 2.488C67.113 16.206 73.8 33.471 67.346 48.17c-4.822 10.887-15.553 17.42-26.752 17.42-3.888 0-7.932-.778-11.742-2.49C14.154 56.646 7.388 39.382 13.92 24.606c4.822-10.887 15.554-17.42 26.752-17.42zm0-3.111c-12.831 0-24.419 7.621-29.629 19.286-7.154 16.331.233 35.462 16.564 42.616 4.122 1.789 8.477 2.722 12.987 2.722a32.385 32.385 0 0029.63-19.286c3.499-7.855 3.654-16.642.544-24.73-3.11-8.088-9.177-14.387-17.109-17.886-4.121-1.789-8.476-2.722-12.987-2.722zm33.284 1.866c-.233-.31-.466-.7-.7-.933l2.256-2.177a7.396 7.396 0 011.166 1.555l-2.722 1.555z" fill="#F8F1F1"/><path d="M11.51 75.31l-.234-3.112c.933-.077 1.867-.233 2.877-.388l.623 3.032a23.587 23.587 0 01-3.267.467zm-3.422-.079a9.73 9.73 0 01-3.5-1.088l1.478-2.722c.7.389 1.555.622 2.488.777l-.466 3.033zm9.954-1.166l-.933-3.033c.933-.311 1.866-.622 2.877-1.011l1.166 2.877a31.1 31.1 0 01-3.11 1.167zm6.066-2.333l-1.322-2.8a29.41 29.41 0 002.721-1.322l1.4 2.8c-.933.389-1.866.855-2.8 1.322zM1.71 71.576C1.01 70.566.544 69.4.233 68.155l3.033-.623c.156.856.545 1.634.933 2.334l-2.488 1.71zm28.074-2.8l-1.556-2.721a46.88 46.88 0 002.644-1.555l1.634 2.644a83.823 83.823 0 01-2.722 1.633zm5.443-3.343l-1.71-2.567c.855-.544 1.71-1.166 2.566-1.71l1.788 2.566c-.855.544-1.788 1.089-2.644 1.71zm-32.117-.7L0 64.577c.078-1.088.233-2.177.467-3.344l3.032.623c-.233 1.01-.388 2.021-.388 2.877zm37.328-2.955l-1.867-2.489c.856-.622 1.633-1.244 2.489-1.866l1.944 2.41c-.855.623-1.71 1.323-2.566 1.945zM4.277 59.056l-2.955-.933a24.27 24.27 0 011.167-3.033l2.877 1.166c-.467.934-.778 1.867-1.089 2.8zm41.139-1.244L43.394 55.4c.777-.622 1.555-1.322 2.333-2.022l2.022 2.333c-.7.7-1.478 1.4-2.333 2.1zm4.821-4.2l-2.1-2.333c.7-.622 1.4-1.244 2.023-1.944l.233-.233 2.177 2.255-.233.233c-.7.778-1.4 1.4-2.1 2.022zm-43.705-.155l-2.8-1.4c.467-.933.934-1.867 1.478-2.878l2.722 1.478-1.4 2.8zm48.293-4.2l-2.177-2.177c.7-.778 1.478-1.478 2.177-2.255l2.256 2.177c-.778.7-1.556 1.478-2.256 2.255zm4.355-4.666l-2.333-2.1c.7-.777 1.4-1.555 2.022-2.332l2.333 2.022c-.622.855-1.322 1.633-2.022 2.41zm4.122-4.821l-2.41-1.944c.7-.778 1.321-1.633 1.943-2.411l2.489 1.866a31.358 31.358 0 01-2.022 2.489zm3.888-5.055l-2.488-1.789c.622-.855 1.244-1.71 1.788-2.566l2.567 1.71c-.622.934-1.245 1.79-1.867 2.645zm3.578-5.288l-2.644-1.633a46.809 46.809 0 001.555-2.644l2.722 1.555a35.933 35.933 0 01-1.633 2.722zm3.188-5.6l-2.8-1.4c.467-.932.934-1.866 1.322-2.799l2.878 1.244c-.467 1.011-.933 2.022-1.4 2.956zm2.489-5.91l-2.955-1.01c.31-1.012.622-1.945.855-2.878l3.033.7a28.877 28.877 0 01-.933 3.188zm1.477-6.532l-3.11-.233c0-.39.077-.778.077-1.167 0-.544-.078-1.089-.155-1.633l3.11-.467c.078.7.156 1.4.156 2.1 0 .467 0 .933-.078 1.4zM9.565 48.013L6.921 46.38c.311-.467.544-.855.855-1.322l2.644 1.71a11.86 11.86 0 00-.855 1.245z" fill="#F8F1F1"/><path d="M10.265 75.387c-3.344 0-5.988-.933-7.776-2.877l2.255-2.178c2.722 2.877 9.02 2.489 17.264-1.166 8.866-3.889 18.82-10.888 28.152-19.83 9.332-8.866 16.797-18.587 21.075-27.22C75.2 14.03 75.977 7.809 73.178 4.93c-3.189-3.344-11.665-2.022-21.93 3.578l-1.478-2.8C61.747-.747 71.079-1.758 75.51 2.831c3.733 3.966 3.267 11.276-1.4 20.763-4.432 8.944-12.13 18.898-21.774 28.074-9.565 9.099-19.908 16.409-29.085 20.375-4.977 2.177-9.41 3.344-12.987 3.344z" fill="#F8F1F1"/><path d="M22.397 71.732a6.439 6.439 0 01-6.455 6.454 6.439 6.439 0 01-6.454-6.454 6.439 6.439 0 016.454-6.455 6.439 6.439 0 016.455 6.455z" fill="#151515"/><path d="M15.864 79.742a7.999 7.999 0 01-8.01-8.01 7.999 7.999 0 018.01-8.01 7.999 7.999 0 018.01 8.01c.078 4.433-3.577 8.01-8.01 8.01zm0-12.91a4.879 4.879 0 00-4.899 4.9 4.88 4.88 0 004.9 4.9 4.88 4.88 0 004.899-4.9c.078-2.722-2.178-4.9-4.9-4.9z" fill="#F8F1F1"/></svg>