<svg width="72" height="75" fill="none" xmlns="http://www.w3.org/2000/svg"><path d="M51.033 6.31h-38.77v44.094h38.77V6.31z" fill="#FC4128"/><path d="M3.244 64.05H0V6.784h.158C1.028 2.919 4.431 0 8.545 0h48.817v56.714H8.545a5.377 5.377 0 00-5.38 5.364v.158l.079 1.814zm-.08-55.294V55.53c1.504-1.183 3.324-1.893 5.381-1.893h45.653V3.155H8.545c-2.927 0-5.301 2.367-5.38 5.206v.395z" fill="#F8F1F1"/><path d="M55.78 55.137H8.545c-3.798 0-6.962 3.076-6.962 6.941 0 3.786 3.085 6.941 6.962 6.941H55.86V55.137h-.079z" fill="#151515"/><path d="M57.362 70.597H8.545C3.798 70.597 0 66.811 0 62.078c0-4.654 3.798-8.519 8.545-8.519h48.817v17.038zM8.545 56.714a5.377 5.377 0 00-5.38 5.364 5.378 5.378 0 005.38 5.364h45.653V56.714H8.545z" fill="#F8F1F1"/><path d="M70.418 4.89V2.21c0-.395-.317-.631-.792-.631h-5.934c-.474 0-.87.236-.87.63v2.683" fill="#151515"/><path d="M72 4.89h-3.165V3.156h-4.43v1.736h-3.166V2.209C61.24 1.025 62.27 0 63.693 0h5.934C70.971 0 72 .947 72 2.209V4.89z" fill="#F8F1F1"/><path d="M22.075 74.541l-5.064-3.155-5.064 3.155V62.709h10.128v11.832z" fill="#FC4128"/><path d="M55.78 60.895H7.991v3.155h47.79v-3.155zM9.574 2.209H6.409v52.455h3.165V2.209z" fill="#F8F1F1"/><path d="M70.497 8.756H62.9v36.758h7.596V8.755z" fill="#FC4128"/><path d="M72 47.091H61.319V7.178h10.68v39.913zm-7.517-3.155h4.352V10.333h-4.43v33.603h.078z" fill="#FC4128"/><path d="M66.62 60.737l-5.301-13.252v-1.498h3.164v.867l2.137 5.443 2.215-5.443v-.867H72v1.498l-5.38 13.252z" fill="#F8F1F1"/><path d="M42.567 25.084H21.205v3.155h21.362v-3.155zm-2.453-6.705H23.736v3.155h16.378V18.38z" fill="#151515"/></svg>