<svg width="76" height="74" fill="none" xmlns="http://www.w3.org/2000/svg"><path d="M76 4.708H0v34.75h76V4.707z" fill="#FC4128"/><path d="M72.936 4.708H3.586v34.75h69.35V4.707z" fill="#fff"/><path d="M38.112 58.364V6.875c0-2.99-2.391-5.38-5.455-5.38H5.007v37.962" fill="#151515"/><path d="M39.607 58.364h-2.99V6.875c0-2.092-1.718-3.886-3.885-3.886H6.502v36.468h-2.99V0h29.22a6.857 6.857 0 016.875 6.875v51.489z" fill="#F8F1F1"/><path d="M38.261 58.364V6.875c0-2.99 2.392-5.38 5.456-5.38H71.44v37.962" fill="#151515"/><path d="M39.756 58.364h-2.989V6.875c0-3.811 3.064-6.875 6.95-6.875h29.22v39.457h-2.99V2.99h-26.23c-2.167 0-3.96 1.794-3.96 3.886v51.489zM23.39 7.996H10.537v2.99H23.39v-2.99zm8.893 7.024H10.537v2.99h21.746v-2.99zm0 6.95H10.537v2.99h21.746v-2.99zm0 6.876H10.537v2.989h21.746v-2.99zm0 6.874H10.537v2.99h21.746v-2.99z" fill="#F8F1F1"/><path d="M65.09 35.72H43.343v2.99H65.09v-2.99z" fill="#F8F1F1"/><path d="M65.09 14.946H43.418V31.76H65.09V14.946z" fill="#FC4128"/><path d="M71.442 71.143c0 .597-.449 1.046-1.047 1.046H6.203a1.022 1.022 0 01-1.047-1.046v-26.38c0-.598.449-1.046 1.047-1.046h64.192c.598 0 1.047.448 1.047 1.046v26.38z" fill="#151515"/><path d="M70.395 73.758H6.202a2.52 2.52 0 01-2.54-2.54V44.762a2.52 2.52 0 012.54-2.54h64.193a2.52 2.52 0 012.54 2.54v26.38c0 1.42-1.195 2.615-2.54 2.615zm-63.82-2.99h63.371V45.212H6.577V70.77z" fill="#F8F1F1"/><path d="M15.469 49.471h-5.007v2.99h5.007v-2.99zm8.444 0h-5.007v2.99h5.007v-2.99zm8.445 0H27.35v2.99h5.007v-2.99zm8.369 0h-5.006v2.99h5.006v-2.99zm8.445 0h-5.006v2.99h5.006v-2.99zm8.445 0H52.61v2.99h5.007v-2.99zm8.369 0H60.98v2.99h5.007v-2.99zm-50.517 7.025h-5.007v2.989h5.007v-2.99zm8.444 0h-5.007v2.989h5.007v-2.99zm8.445 0H27.35v2.989h5.007v-2.99zm8.369 0h-5.006v2.989h5.006v-2.99zm8.445 0h-5.006v2.989h5.006v-2.99zm8.445 0H52.61v2.989h5.007v-2.99zm8.369 0H60.98v2.989h5.007v-2.99zm-50.517 6.949h-5.007v2.99h5.007v-2.99zm8.444 0h-5.007v2.99h5.007v-2.99zm33.778 0h-30.34v2.99h30.34v-2.99zm8.295 0H60.98v2.99h5.007v-2.99z" fill="#F8F1F1"/><path d="M57.243 23.69l-2.466 1.42-2.467 1.419v-5.68l2.467 1.42 2.466 1.42z" fill="#fff"/></svg>