<svg width="74" height="84" fill="none" xmlns="http://www.w3.org/2000/svg"><path d="M36.96 83.304c-4.39 0-8.128-4.47-10.891-12.84-2.52-7.722-3.983-17.962-3.983-28.852 0-10.891 1.382-21.131 3.983-28.852C28.913 4.47 32.652 0 36.959 0c4.308 0 8.128 4.47 10.89 12.841 2.52 7.721 3.983 17.961 3.983 28.852 0 10.89-1.381 21.13-3.982 28.852-2.763 8.29-6.502 12.76-10.89 12.76zm0-80.053c-5.446 0-11.623 15.767-11.623 38.442s6.096 38.442 11.622 38.442c5.446 0 11.541-15.767 11.541-38.442S42.486 3.25 36.96 3.25z" fill="#F8F1F1"/><path d="M63.86 66.318c-8.533 0-21.618-4.55-34.296-11.784-9.428-5.445-17.555-11.785-23-17.88C.712 30.07-1.32 24.544.874 20.806c.976-1.788 3.414-3.82 9.266-3.82 8.452 0 21.618 4.551 34.297 11.866 9.427 5.445 17.555 11.784 23 17.799 5.851 6.583 7.883 12.11 5.689 15.848-1.057 1.706-3.495 3.82-9.265 3.82zM10.14 20.237c-3.333 0-5.608.813-6.421 2.194-1.3 2.357.65 6.827 5.283 12.11 5.201 5.852 13.085 11.947 22.187 17.148C43.38 58.76 55.896 63.068 63.861 63.068c3.332 0 5.608-.813 6.42-2.195 1.3-2.357-.65-6.827-5.282-12.11-5.202-5.851-13.085-11.947-22.188-17.148-12.19-6.99-24.707-11.378-32.671-11.378z" fill="#F8F1F1"/><path d="M10.14 66.318c-5.771 0-8.21-2.113-9.266-3.82-2.194-3.738-.243-9.264 5.69-15.847 5.445-6.096 13.572-12.435 23-17.8 12.678-7.314 25.763-11.865 34.297-11.865 5.77 0 8.208 2.113 9.265 3.82 2.194 3.738.243 9.265-5.69 15.848-5.445 6.095-13.572 12.435-23 17.799-12.678 7.314-25.763 11.865-34.297 11.865zm53.72-46.081c-7.964 0-20.48 4.389-32.671 11.378-9.102 5.283-16.986 11.378-22.187 17.149-4.633 5.201-6.665 9.752-5.283 12.028.813 1.463 3.088 2.194 6.42 2.194 7.965 0 20.481-4.389 32.672-11.378 9.102-5.283 16.986-11.378 22.187-17.148 4.633-5.202 6.665-9.753 5.283-12.029-.894-1.381-3.17-2.194-6.42-2.194z" fill="#F8F1F1"/><path d="M72.896 50.757a4.876 4.876 0 10-9.626-1.562 4.876 4.876 0 009.626 1.562zM28.67 16.255a4.876 4.876 0 100-9.753 4.876 4.876 0 000 9.753zM12.821 69.488a4.876 4.876 0 100-9.753 4.876 4.876 0 000 9.753z" fill="#D03D29"/><path d="M37.366 49.17a7.544 7.544 0 01-7.559-7.558 7.544 7.544 0 017.559-7.559c4.145 0 7.477 3.332 7.477 7.559 0 4.226-3.332 7.558-7.477 7.558zm0-11.785c-2.357 0-4.308 1.95-4.308 4.308 0 2.357 1.95 4.307 4.308 4.307 2.357 0 4.226-1.95 4.226-4.307s-1.95-4.308-4.226-4.308z" fill="#F8F1F1"/></svg>