<svg width="261" height="257" fill="none" xmlns="http://www.w3.org/2000/svg"><path d="M10.583 255.638S6.657 82.771 33.8 38.661c28.165-45.814 69.304-41.727 94.397-13.285 24.922 28.442 41.821 47.688 72.547 59.95 30.726 12.263 44.382 57.906 40.968 94.693-3.414 36.787-6.828 75.619-6.828 75.619h-224.3z" fill="#D7E4FF"/><path d="M214.911 144.083v11.582m4.78-5.791h-9.56m-99.005-49.05v11.582m4.779-5.791h-9.559M24.069 92.99v11.752m4.779-5.962H19.29" stroke="#fff" stroke-width=".906" stroke-miterlimit="10" stroke-linecap="round" stroke-linejoin="round"/><path d="M131.61 208.632v-47.688H83.814v-47.687H35.847v143.232h143.558v-47.857H131.61z" fill="#729EFF"/><path opacity=".2" d="M131.61 160.774H83.814v5.62h47.796v-5.62z" fill="url(#paint0_linear)"/><path d="M238.126 256.489s14.168-19.245 14.168-35.595c0-16.35 5.121-17.712 4.609-36.106-.512-18.394-3.755-29.634-2.902-39.683.854-9.878-.512-20.607-10.583-21.629-9.901-.852-15.704 5.45-15.022 24.354.512 19.075-11.095 25.206-13.314 41.897-2.219 16.861-3.073 25.036-7.34 32.359-4.268 7.324-9.901 17.202-3.585 34.062h33.969v.341z" fill="#FFC800"/><path d="M241.711 123.646s-4.609 82.09-22.02 132.673" stroke="#BB9300" stroke-width=".662" stroke-miterlimit="10"/><path d="M247.003 76.13h-6.487c-.512-2.215-1.536-4.429-2.731-6.302l4.779-4.769c.683-.681.683-1.873 0-2.555l-4.267-4.258c-.683-.68-1.878-.68-2.561 0l-4.779 4.77c-1.878-1.193-3.926-2.044-6.316-2.555v-6.983a1.893 1.893 0 0 0-1.878-1.874h-5.974a1.893 1.893 0 0 0-1.878 1.874v6.983c-2.219.51-4.267 1.362-6.316 2.554l-4.779-4.769c-.683-.68-1.878-.68-2.561 0l-4.267 4.258c-.683.682-.683 1.874 0 2.555l4.779 4.769c-1.195 1.873-2.219 4.087-2.731 6.301h-6.487a1.892 1.892 0 0 0-1.877 1.874v5.96c0 1.022.853 1.874 1.877 1.874h6.316a21.153 21.153 0 0 0 2.731 6.812l-4.267 4.258c-.683.681-.683 1.874 0 2.555l4.267 4.258c.683.681 1.878.681 2.561 0l4.267-4.258c2.049 1.362 4.439 2.384 6.828 2.895v5.961c0 1.022.854 1.874 1.878 1.874h5.975a1.892 1.892 0 0 0 1.877-1.874v-6.131c2.561-.511 4.78-1.533 6.828-2.895l4.268 4.257c.683.682 1.877.682 2.56 0l4.268-4.257c.683-.682.683-1.874 0-2.555l-4.268-4.258c1.195-2.044 2.219-4.258 2.731-6.812h6.316a1.892 1.892 0 0 0 1.878-1.874v-5.96c-.683-.852-1.536-1.704-2.56-1.704zm-27.312 11.24c-3.585 0-6.487-2.895-6.487-6.472 0-3.577 2.902-6.472 6.487-6.472 3.584 0 6.486 2.895 6.486 6.472 0 3.577-2.902 6.472-6.486 6.472z" fill="#414AFA"/><path d="M234.541 80.898c0-8.175-6.657-14.817-14.85-14.817-8.194 0-14.851 6.642-14.851 14.817s6.657 14.817 14.851 14.817c8.193 0 14.85-6.642 14.85-14.817zm-21.337 0c0-3.577 2.902-6.472 6.487-6.472 3.584 0 6.486 2.895 6.486 6.472 0 3.577-2.902 6.472-6.486 6.472-3.585 0-6.487-2.895-6.487-6.472z" fill="#729EFF"/><path d="M0 256.489h261" stroke="#000" stroke-width=".676" stroke-miterlimit="10"/><path d="M121.538 46.154v14.647" stroke="#414AFA" stroke-width=".662" stroke-miterlimit="10"/><path d="M122.733 47.176v2.725h-2.219v-2.725c-3.414-.17-6.145-2.043-7.169-4.939l4.267-2.384c.683 1.533 1.536 2.384 2.902 2.555V38.15c-.171 0-.341-.17-.341-.17-2.732-1.022-5.975-2.555-5.975-6.643 0-4.087 3.073-6.13 6.316-6.301V22.14h2.219v2.726c2.731.34 4.95 1.703 6.145 4.428l-4.267 2.554c-.342-1.022-1.024-1.703-1.878-2.043v4.087c2.731 1.192 6.316 2.214 6.316 6.642 0 3.917-2.731 6.131-6.316 6.642zm-2.219-14.306v-3.236c-.854.17-1.366.852-1.366 1.533 0 .681.342 1.192 1.366 1.703zm3.585 7.835c0-.852-.512-1.193-1.366-1.704v3.236c1.024-.17 1.366-.851 1.366-1.532z" fill="#414AFA"/><path d="M131.951 80.898h-21.508l-1.878-23.162h25.264l-1.878 23.162z" fill="#fff"/><path d="M108.394 52.286a9.973 9.973 0 0 0 7.682 2.895c.341-2.725-.683-5.62-2.902-7.664a9.974 9.974 0 0 0-7.682-2.895c-.17 2.725.854 5.45 2.902 7.664z" fill="#FFC800"/><path d="M105.663 44.622l10.584 10.559" stroke="#D0A300" stroke-width=".531" stroke-miterlimit="10"/><path d="M133.999 52.286a9.972 9.972 0 0 1-7.681 2.895c-.342-2.725.683-5.62 2.902-7.664a9.973 9.973 0 0 1 7.681-2.895c.171 2.725-.683 5.45-2.902 7.664z" fill="#FFC800"/><path d="M136.9 44.621l-10.584 10.56" stroke="#D0A300" stroke-width=".531" stroke-miterlimit="10"/><path d="M48.483 77.982c2.4-2.394.076-8.594-5.19-13.849-5.266-5.254-11.48-7.573-13.88-5.178-2.4 2.394-.077 8.595 5.19 13.849 5.266 5.254 11.48 7.573 13.88 5.178z" fill="#FFC800"/><path d="M29.36 58.928l19.12 19.075" stroke="#D0A300" stroke-width=".662" stroke-miterlimit="10"/><path d="M85.35 72.893c-3.926 3.918-9.047 5.62-13.997 5.11-.513-4.77 1.194-10.049 5.12-13.966 3.927-3.917 9.048-5.62 13.998-5.11.512 4.77-1.195 10.05-5.121 13.966z" fill="#FFC800"/><path d="M90.47 58.927L71.352 78.002" stroke="#D0A300" stroke-width=".662" stroke-miterlimit="10"/><path d="M60.599 60.801v30.145" stroke="#414AFA" stroke-width=".662" stroke-miterlimit="10"/><path d="M63.33 61.312v6.642h-5.292v-6.642c-8.535-.681-14.851-4.939-17.582-12.262l10.412-5.961c1.537 3.576 3.756 5.79 7.17 6.301V39.001c-.341-.17-.683-.17-1.024-.34-6.658-2.725-14.51-6.302-14.51-16.52 0-9.879 7.34-14.818 15.363-15.67V0h5.292v6.642c6.486.852 11.949 4.258 14.85 10.9l-10.241 5.961c-1.024-2.725-2.56-4.087-4.61-4.94v10.22c6.658 2.725 15.535 5.28 15.535 16.35.17 9.537-6.316 15.157-15.363 16.18zm-5.292-34.914v-8.004c-2.22.51-3.414 2.043-3.414 3.747 0 1.532.683 2.725 3.414 4.257zm8.706 19.075c0-1.873-1.195-3.065-3.414-4.087v8.004c2.56-.68 3.414-2.384 3.414-3.917z" fill="#414AFA"/><path d="M73.4 113.257H46.602l-2.56-28.782h31.75l-2.39 28.782z" fill="#fff"/><path d="M218.837 242.864l2.049 4.939-6.828 5.11s-5.975 1.703-5.804 3.576l21.679-3.747c.853-.17 1.365-1.192.683-2.044l-3.756-4.428-1.707-4.768-6.316 1.362zm-59.062 1.874l-.683 5.279-7.511 3.917s-6.145.682-6.315 2.555h22.02c1.024 0 1.536-1.022 1.024-1.873l-2.902-4.939 1.195-4.939h-6.828z" fill="#000"/><path d="M161.994 110.021l-3.755 137.952h8.193s9.047-37.979 6.146-59.779l7.169-52.456 9.73 48.709c.683 3.407 1.707 6.642 3.243 9.538l25.434 50.071h9.56s-13.656-45.643-25.264-57.735l-3.926-61.994-2.902-14.306h-33.628z" fill="#2930B0"/><path d="M168.822 34.573l-2.048 11.07h1.365v4.77c0 1.362 1.024 2.384 2.39 2.384h2.39c.683 0 1.195.51 1.195 1.192v7.664h11.949V49.9s2.56-12.433-1.707-15.328c-4.438-2.725-12.291-5.45-15.534 0z" fill="#FF9C91"/><path d="M171.041 52.797c7.852-.511 8.706-7.154 8.706-7.154l6.487 1.874a33.917 33.917 0 0 1-.342 2.214v11.751h-11.949v-7.664c0-.68-.512-1.192-1.195-1.192h-1.707v.17z" fill="url(#paint1_linear)"/><path d="M166.603 29.123h16.558c5.974 0 5.633 7.153 4.95 11.922-.683 4.94-2.219 8.856-2.219 8.856-2.56-.51-4.438-2.044-5.974-4.087.853-.34 1.536-1.363 1.536-2.725 0-1.533-1.024-2.725-2.048-2.725-.854 0-1.537.51-1.878 1.362-1.366-3.406-1.878-6.301-1.878-6.301s-5.462.851-10.071 1.022c-4.609.17-5.121-7.324 1.024-7.324z" fill="#000"/><path d="M195.451 60.801h-27.995c-3.414 0-6.145 2.725-6.145 6.302l.683 42.918h33.628l4.95-43.259c.512-3.236-1.877-5.96-5.121-5.96z" fill="#fff"/><path d="M186.233 59.78l-4.267 50.582 9.388 22.651h12.462l-6.658-24.865 5.633-45.473a2.426 2.426 0 0 0-2.389-2.725h-14.169v-.17zm-12.29 0h-8.023c-3.243 0-5.804 2.554-5.804 5.79l.342 43.089-4.097 24.354h6.657l8.365-22.651 2.56-50.583z" fill="#3841EE"/><path d="M185.892 59.78s5.633 1.702 6.657 6.13c.854 3.747-3.926 11.582-3.926 11.582s3.585 7.153-5.121 18.734m-9.9-36.446s-5.633 1.191-7.17 5.45c-1.195 3.576 2.561 11.921 2.561 11.921s-4.438 6.642 2.731 19.245" stroke="#182F66" stroke-width=".5" stroke-miterlimit="10"/><path d="M182.307 65.23l-2.56-2.385-2.561 2.044 1.025 2.725h2.901l1.195-2.385z" fill="#FFC800"/><path d="M179.918 94.523l-4.268 9.197-.853-9.367 3.414-26.74h2.902l-1.195 26.91z" fill="#FFC800"/><path d="M113.515 80.898s2.219 3.066 8.365 2.555l3.414 2.554 3.584-3.236-2.219-2.043h-13.144v.17z" fill="#FF9C91"/><path d="M161.482 61.653l-14.168 32.53-18.265-12.093-5.633 4.769 22.191 16.009c2.902 2.044 6.999 1.022 8.535-2.214l11.437-23.673-4.097-15.328z" fill="#3841EE"/><path d="M214.911 104.401h-35.505v24.695h35.505v-24.695z" fill="#EEF3FF"/><path d="M197.329 119.899l-3.755 7.835h1.365l-.683 2.554h4.097c2.219 0 3.926-1.703 3.926-3.747l.342-6.642h-5.292z" fill="#FF9C91"/><path d="M202.621 60.971l9.73 30.486c1.024 3.236.853 6.642-.513 9.708l-8.705 20.437h-7.682l9.218-25.206-7.681-22.992c-1.025-2.895-.854-5.96.512-8.686l1.877-3.917c.683-1.362 2.732-1.192 3.244.17z" fill="#3841EE"/><path d="M159.946 72.212l.512 15.498m41.309-20.096L200.06 82.77m-24.751-16.349l4.438-3.576 4.267 4.087" stroke="#182F66" stroke-width=".5" stroke-miterlimit="10"/><path d="M100.884 220.894c24.228 0 43.869-19.597 43.869-43.77 0-24.174-19.641-43.77-43.869-43.77-24.229 0-43.87 19.596-43.87 43.77 0 24.173 19.641 43.77 43.87 43.77z" fill="#fff"/><path d="M103.615 126.201l-2.731 50.923 50.185 9.026c.512-2.895.854-5.96.854-9.026 0-27.25-21.508-49.39-48.308-50.923z" fill="#414AFA"/><path d="M100.713 176.954l-22.362 37.638c6.658 3.918 14.34 6.302 22.533 6.302 21.508 0 39.431-15.498 43.187-36.106l-43.358-7.834z" fill="#2930B0"/><path d="M57.014 177.124c0 15.839 8.535 29.804 21.337 37.468l22.362-37.638-43.7.17zm-47.967-16.35c17.582-1.703 18.436 19.416 26.63 26.569 8.193 7.153 21.337 12.773 21.337 28.442 0 15.668 10.925 26.398 9.73 39.853H24.069s-2.902-16.35-8.365-25.888C7.17 214.592-.34 215.444 1.707 196.88c2.731-21.459-3.073-35.084 7.34-36.106z" fill="#FFC800"/><path d="M10.583 160.774s34.823 56.543 36.7 94.863" stroke="#B18B00" stroke-width=".662" stroke-miterlimit="10"/><defs><linearGradient id="paint0_linear" x1="107.654" y1="170.439" x2="107.654" y2="152.688" gradientUnits="userSpaceOnUse"><stop offset=".129"/><stop offset="1" stop-color="#fff"/></linearGradient><linearGradient id="paint1_linear" x1="180.836" y1="59.373" x2="178.428" y2="49.152" gradientUnits="userSpaceOnUse"><stop offset=".194" stop-color="#FF9C91"/><stop offset="1" stop-color="#F27C6F"/></linearGradient></defs></svg>