<svg width="244" height="258" fill="none" xmlns="http://www.w3.org/2000/svg"><path d="M70.64 20.577h-7.27V38.62h7.27V20.577z" fill="#D7E4FF"/><path d="M82.334 14.404h-7.27V38.62h7.27V14.404z" fill="#B5CCFF"/><path d="M94.028 7.44H86.76v31.18h7.27V7.44z" fill="#729EFF"/><path d="M98.453 0v38.62H58.946" stroke="#729EFF" stroke-width=".489" stroke-miterlimit="10"/><path d="M221.244 257.525S269.285 20.577 199.909 7.598c-47.093-9.023-50.728 31.023-83.914 68.06-24.811 27.7-110.622 83.099-92.764 181.709h198.013v.158z" fill="#D7E4FF"/><path d="M115.837 257.525h-8.06l16.277-98.61h8.06l-16.277 98.61zm84.704 0h8.06l-16.119-98.61h-8.06l16.119 98.61zm-38.401-98.768h-8.06v98.61h8.06v-98.61z" fill="#252EED"/><path d="M196.907 200.385h-77.436v7.598h77.436v-7.598z" fill="#242EED"/><g opacity=".3"><path opacity=".3" d="M120.736 177.909h8.217l3.161-19.152h-8.218l-3.16 19.152z" fill="url(#paint0_linear)"/><path opacity=".3" d="M192.324 158.757h-8.06l3.161 19.152h8.059l-3.16-19.152z" fill="url(#paint1_linear)"/><path opacity=".3" d="M162.14 158.757h-8.06v19.152h8.06v-19.152z" fill="url(#paint2_linear)"/></g><path d="M204.65 30.232h-92.922v133.432h92.922V30.232z" fill="#729EFF"/><path d="M158.189 133.432c-17.541 0-31.764-14.245-31.764-31.815s14.223-31.815 31.764-31.815c17.542 0 31.764 14.246 31.764 31.815 0 17.57-14.38 31.815-31.764 31.815zm0-51.6c-10.904 0-19.754 8.864-19.754 19.785 0 10.922 8.85 19.944 19.754 19.944 10.904 0 19.912-8.864 19.912-19.944-.158-10.921-9.008-19.785-19.912-19.785z" fill="#fff"/><path d="M176.837 94.811l11.062-4.115c-4.425-12.188-16.119-20.894-29.71-20.894v11.872a20.287 20.287 0 0 1 18.648 13.137z" fill="#414AFA"/><path d="M189.795 101.617c0-3.799-.79-7.597-2.054-10.921l-11.062 4.115c.79 2.216 1.264 4.432 1.264 6.806 0 10.922-8.85 19.944-19.912 19.944-1.422 0-2.844-.159-4.109-.475l-2.528 11.555c2.054.474 4.267.633 6.479.633 17.7.158 31.922-14.087 31.922-31.657z" fill="#1B24DC"/><path d="M154.08 121.086c-9.007-1.899-15.645-9.814-15.645-19.469 0-6.173 2.845-11.554 7.112-15.195l-7.586-9.18c-6.953 5.856-11.378 14.562-11.378 24.375 0 15.195 10.746 28.016 25.127 31.024l2.37-11.555z" fill="#FFC800"/><path d="M208.285 24.85H108.093v6.965h100.192V24.85zm0 137.231H108.093v6.964h100.192v-6.964z" fill="#414AFA"/><path d="M189.163 51.23h-63.054c-2.371 0-4.109-1.899-4.109-4.115 0-2.374 1.896-4.115 4.109-4.115h63.054c2.371 0 4.109 1.9 4.109 4.115.158 2.216-1.738 4.116-4.109 4.116zm-37.611 46.747c0-1.741 1.422-3.166 3.318-3.166 1.897 0 3.319 1.425 3.319 3.166 0 1.74-1.422 3.165-3.319 3.165-1.896.159-3.318-1.424-3.318-3.165zm10.114-1.267l1.264.792-8.534 9.497-1.264-.792 8.534-9.496zm-5.847 1.267c0-.633-.474-1.108-.949-1.108-.632 0-.948.475-.948 1.108 0 .633.474 1.108.948 1.108.475 0 .949-.475.949-1.108zm2.37 7.439c0-1.741 1.422-3.166 3.319-3.166 1.896 0 3.318 1.425 3.318 3.166 0 1.741-1.422 3.166-3.318 3.166-1.897 0-3.319-1.425-3.319-3.166zm4.425 0c0-.633-.474-1.108-.948-1.108-.632 0-.948.475-.948 1.108 0 .633.474 1.108.948 1.108.474-.158.948-.633.948-1.108z" fill="#fff"/><path d="M67.321 257.525s.158-20.577-3.318-29.441c-3.477-8.863-14.223-15.511-16.436-21.051-4.583-11.08-7.585-35.455-17.541-37.988-7.744-1.899-11.694 6.015-11.22 23.268.474 17.252-2.529 24.533-2.687 38.146-.316 17.569 18.49 27.066 18.49 27.066H67.32z" fill="#FFC800"/><path d="M27.971 168.729s6.164 59.039 25.443 88.638" stroke="#CB9F00" stroke-width=".662" stroke-miterlimit="10"/><path d="M189.321 257.525c-2.212-18.994 13.907-25.484 13.117-37.355-.79-11.871 5.373-22.318 10.114-28.649 4.741-6.331 4.425-15.67 4.583-22.318.316-16.778 10.746-21.685 16.751-21.526 6.005.158 11.378 13.929 9.64 28.649-1.738 14.72-6.005 23.584-5.531 29.757.474 6.173 3.16 13.296 0 27.541-3.161 14.245-9.482 23.901-9.482 23.901h-39.192z" fill="#FFC800"/><path d="M234.044 147.519s-3.319 56.665-25.443 109.848" stroke="#CB9F00" stroke-width=".662" stroke-miterlimit="10"/><path d="M0 257.525h241.63" stroke="#414AFA" stroke-width=".676" stroke-miterlimit="10"/><path d="M61.316 77.4l-18.964 34.031c-1.58 3.007-.158 6.647 3.003 8.072l20.544 8.389 1.264-6.331-14.38-9.814 12.8-20.418L61.316 77.4z" fill="#3841EE"/><path d="M84.705 50.017l4.74 9.339-1.264.316 1.265 4.274c.316 1.108-.317 2.374-1.423 2.69l-1.738.476c-.79.316-1.422.95-1.422 1.899v6.331l-11.379 1.583v-8.864s-5.53-10.446-2.528-14.087c3.002-3.482 9.324-7.914 13.749-3.957z" fill="#FF9C91"/><path d="M84.863 76.292V69.17c0-.791.632-1.582 1.422-1.899l.632-.158c-4.425 1.108-6.321-4.274-6.321-4.274s-4.267 3.166-7.27 5.382v8.864l11.537-.792z" fill="url(#paint3_linear)"/><path d="M85.179 44.477c-3.319.95-9.482 2.85-14.697 4.432-5.215 1.583-3.16 7.914-1.264 12.03 1.896 4.115 4.424 7.28 4.424 7.28 5.058.159 6.322-3.323 7.112-5.381-.948 0-1.739-.791-2.213-2.058-.474-1.424.159-2.69 1.107-3.007.632-.158 1.422.158 2.054.791.316-3.324 0-6.173 0-6.173s2.213-.633 6.321-1.582c4.11-1.108 2.529-7.914-2.844-6.332zM56.417 246.604l-1.106 4.906 6.953 3.641s5.69.633 5.847 2.374H47.725c-.948 0-1.422-.95-.948-1.741l2.687-4.59.79-4.59h6.163zm50.886 0l.632 4.906 6.954 3.641s5.689.633 5.847 2.374h-20.228c-.948 0-1.422-.95-.948-1.741l2.686-4.59-1.106-4.59h6.163z" fill="#000"/><path d="M98.453 121.402l10.272 128.209h-7.585s-14.065-41.153-8.218-55.557l-10.746-48.751-6.795 42.103c-.79 5.382-2.213 10.763-3.95 15.987l-15.488 46.06h-6.48s2.371-45.269 11.537-57.14l3.635-57.615 2.686-13.296h31.132z" fill="#2A30B0"/><path d="M78.383 145.778l2.213-11.08v11.08h21.808l-2.844-24.376v-45.11H63.212A2.252 2.252 0 0 0 61 78.824l5.373 42.578-6.005 24.376h18.015z" fill="#3941EE"/><path d="M143.334 52.866l-19.438 23.268H94.344v12.03l29.868-2.692c3.635-.158 6.954-2.057 9.008-5.065l16.119-24.375-6.005-3.166z" fill="#3841EE"/><path d="M143.808 53.974l1.897-2.849 3.002-8.072c.632-1.583 1.897-2.691 3.477-3.008l6.795-1.266c.632-.158 1.265.475 1.107 1.108l-.159 1.108c-.158.475-.474.95-.948 1.108l-2.054 1.108c-.474.317-.79.633-.948 1.108l-.79 3.166-5.057 5.856-1.581 2.85-4.741-2.217z" fill="#FF9C91"/><path d="M78.7 81.199l2.844 41.628-.948 11.871" stroke="#182F66" stroke-width=".5" stroke-miterlimit="10"/><path d="M73.484 122.352h15.803" stroke="#608FFF" stroke-width=".5" stroke-miterlimit="10"/><path d="M61.316 81.199l1.896 15.195M99.56 78.35v9.338" stroke="#182F66" stroke-width=".5" stroke-miterlimit="10"/><path d="M79.964 227.293v10.922m4.425-5.54h-8.85" stroke="#fff" stroke-width=".906" stroke-miterlimit="10" stroke-linecap="round" stroke-linejoin="round"/><path d="M216.661 57.456V68.22m5.373-5.382h-10.746" stroke="#fff" stroke-miterlimit="10" stroke-linecap="round" stroke-linejoin="round"/><defs><linearGradient id="paint0_linear" x1="126.425" y1="152.055" x2="126.425" y2="210.365" gradientUnits="userSpaceOnUse"><stop offset=".129"/><stop offset="1" stop-color="#fff"/></linearGradient><linearGradient id="paint1_linear" x1="189.909" y1="152.055" x2="189.909" y2="210.365" gradientUnits="userSpaceOnUse"><stop offset=".129"/><stop offset="1" stop-color="#fff"/></linearGradient><linearGradient id="paint2_linear" x1="158.167" y1="152.055" x2="158.167" y2="210.365" gradientUnits="userSpaceOnUse"><stop offset=".129"/><stop offset="1" stop-color="#fff"/></linearGradient><linearGradient id="paint3_linear" x1="79.04" y1="73.176" x2="80.889" y2="64.868" gradientUnits="userSpaceOnUse"><stop offset=".194" stop-color="#FF9C91"/><stop offset="1" stop-color="#F27C6F"/></linearGradient></defs></svg>