<svg width="38" height="53" fill="none" xmlns="http://www.w3.org/2000/svg"><g clip-path="url(#clip0)"><path d="M18.85 52.404l-15.057-4.21L.438 10.3h36.869l-3.359 37.89-15.098 4.215z" fill="#7B8AAB"/><path d="M31.073 45.776l2.87-32.379h-15.07v35.785l12.2-3.406z" fill="#B5C2DF"/><path d="M8.13 27.452l.414 4.648h10.329v-4.648H8.13zm-.831-9.407l.42 4.648h11.153v-4.648H7.3zm11.574 21.478l-.02.005-5.141-1.397-.329-3.707H8.75l.647 7.297 9.454 2.644.022-.006v-4.836z" fill="#F5F8FF"/><path d="M9.115 0h5.59v2.354h-3.252v2.354h3.252v2.354h-5.59V0zm6.708 0h5.59v2.047h-3.252v.41h3.252v4.708h-5.59v-2.15h3.253v-.41h-3.253V0zm6.709 0h5.59v2.047h-3.253v.41h3.253v4.708h-5.59v-2.15h3.252v-.41h-3.252V0z" fill="#3D4963"/><path d="M29.585 27.452l.834-9.407H18.857v4.648h6.503l-.42 4.76h-6.083V32.1h5.683l-.536 6.028-5.147 1.399v4.835l9.462-2.64.07-.786L29.472 28.7l.112-1.248z" fill="#F5F8FF"/></g><defs><clipPath id="clip0"><path fill="#fff" d="M.374 0h36.997v52.536H.374z"/></clipPath></defs></svg>