<svg width="92" height="49" fill="none" xmlns="http://www.w3.org/2000/svg"><path d="M2.257 3.38l1.204-1.203C5.306.35 8.317.467 10.006 2.429L26.67 21.851a4.46 4.46 0 0 1-.039 5.865l-16.605 18.82a4.47 4.47 0 0 1-6.507.194l-1.204-1.204a4.475 4.475 0 0 1-.272-6.02l9.944-11.926a4.475 4.475 0 0 0 .059-5.651L1.946 9.304C.51 7.557.645 4.993 2.257 3.381z" fill="#B5C2DF"/><path d="M11.968 27.62L2.024 39.543a4.476 4.476 0 0 0 .272 6.02L3.5 46.77a4.469 4.469 0 0 0 6.506-.194l3.593-4.079a19.647 19.647 0 0 0 2.117-8.914c0-3.962-1.165-7.633-3.146-10.721a4.414 4.414 0 0 1-.602 4.758zm23.248 11.322H31.35V16.47h3.865v2.35c.543-1.573 2.505-2.7 5.185-2.7 2.292 0 4.215.816 5.768 2.448 1.574 1.612 2.35 3.612 2.35 6.02 0 2.409-.776 4.409-2.35 6.06-1.553 1.612-3.476 2.408-5.768 2.408-2.68 0-4.642-1.126-5.185-2.7v8.585zm1.126-17.887c-.932.932-1.418 2.136-1.418 3.554 0 1.417.486 2.602 1.418 3.554.971.932 2.156 1.418 3.554 1.418 1.399 0 2.506-.486 3.419-1.418.932-.932 1.378-2.137 1.378-3.554 0-1.418-.446-2.603-1.378-3.554-.894-.933-2.04-1.418-3.419-1.418s-2.583.485-3.554 1.418zM49.86 10.256h3.864v17.15c0 1.573.525 2.252 1.943 2.252.446 0 .835-.039 1.165-.136v3.458c-.447.135-1.068.194-1.845.194-3.418 0-5.127-1.748-5.127-5.264V10.256zm20.062 8.565v-2.35h3.865v11.342c0 1.38.33 1.904 1.185 1.904.233 0 .524-.04.816-.059v3.127c-.428.156-1.069.253-1.904.253-.932 0-1.67-.156-2.253-.525-.718-.485-1.165-1.126-1.32-1.961-1.127 1.709-2.991 2.544-5.574 2.544-2.292 0-4.215-.796-5.807-2.447-1.554-1.651-2.331-3.651-2.331-6.06 0-2.408.777-4.408 2.33-6.02 1.574-1.651 3.516-2.447 5.808-2.447 2.602 0 4.564 1.165 5.185 2.7zm-1.165 9.322c.97-.932 1.456-2.136 1.456-3.554 0-1.417-.485-2.602-1.456-3.554-.932-.932-2.136-1.418-3.516-1.418-1.378 0-2.505.486-3.456 1.418-.894.932-1.36 2.137-1.36 3.554 0 1.418.447 2.603 1.36 3.555.932.932 2.058 1.417 3.457 1.417 1.398 0 2.583-.485 3.515-1.418zm8.37 7.827c.486.156 1.088.253 1.807.253.621 0 1.068-.136 1.418-.35.35-.213.68-.718.932-1.379l.427-1.165-6.797-16.858h3.884l4.778 12.255 4.486-12.255h3.904l-7.283 18.897c-.486 1.263-1.069 2.234-1.748 2.894-.971.894-2.253 1.36-3.904 1.36a6.95 6.95 0 0 1-1.903-.253V35.97z" fill="#3D4963"/></svg>