<svg width="51" height="51" fill="none" xmlns="http://www.w3.org/2000/svg"><g clip-path="url(#clip0)"><path d="M11.868.44H39.74c1.356 0 2.673.216 3.95.668a11.102 11.102 0 0 1 4.777 3.38 11.02 11.02 0 0 1 2.417 5.386c.118.727.138 1.454.138 2.182v27.182c0 .865-.04 1.75-.216 2.595a11.125 11.125 0 0 1-2.654 5.248 11.126 11.126 0 0 1-4.914 3.164c-1.14.354-2.319.511-3.518.511-.53 0-27.93 0-28.342-.02a11.214 11.214 0 0 1-5.66-1.867 11.358 11.358 0 0 1-3.833-4.402 11.091 11.091 0 0 1-1.12-4.894v-27.95c-.04-1.67.314-3.321 1.041-4.815a11.16 11.16 0 0 1 3.793-4.422A11.01 11.01 0 0 1 11.24.479c.197-.04.413-.04.63-.04z" fill="url(#paint0_linear)"/><path d="M43.138 41.597a7.684 7.684 0 0 0-.59-.806 8.349 8.349 0 0 0-1.69-1.533c-.786-.53-1.71-.865-2.653-.904a4.803 4.803 0 0 0-1.966.315c-.629.216-1.238.53-1.828.845-.688.353-1.376.707-2.103 1.002-.865.354-1.769.629-2.692.826a17.58 17.58 0 0 1-3.5.275 23.64 23.64 0 0 1-6.21-.944 23.495 23.495 0 0 1-5.051-2.181 26.05 26.05 0 0 1-3.912-2.772 28.587 28.587 0 0 1-2.79-2.771 30.338 30.338 0 0 1-1.691-2.162 9.172 9.172 0 0 1-.59-.924L.683 24.261V11.584C.683 5.432 5.656.44 11.808.44h9.926l7.35 7.469c16.59 11.282 11.224 23.723 11.224 23.723s4.717 5.307 2.83 9.965z" fill="url(#paint1_linear)"/><path d="M29.124 7.908C45.713 19.19 40.347 31.632 40.347 31.632s4.717 5.326 2.81 9.985c0 0-1.945-3.263-5.208-3.263-3.145 0-4.992 3.263-11.321 3.263-14.093 0-20.756-11.774-20.756-11.774 12.697 8.354 21.365 2.438 21.365 2.438-5.72-3.322-17.886-19.203-17.886-19.203 10.594 9.021 15.174 11.4 15.174 11.4-2.732-2.26-10.398-13.307-10.398-13.307C20.26 17.382 32.446 26.05 32.446 26.05c3.459-9.592-3.322-18.142-3.322-18.142z" fill="#fff"/></g><defs><linearGradient id="paint0_linear" x1="30.617" y1="-1.356" x2="21.111" y2="52.558" gradientUnits="userSpaceOnUse"><stop stop-color="#D4DAE8"/><stop offset="1" stop-color="#8996B5"/></linearGradient><linearGradient id="paint1_linear" x1="26.355" y1="1.253" x2="19.398" y2="40.711" gradientUnits="userSpaceOnUse"><stop stop-color="#ADB7CE"/><stop offset="1" stop-color="#697798"/></linearGradient><clipPath id="clip0"><path fill="#fff" d="M.683.44h50.316v50.316H.683z"/></clipPath></defs></svg>