<svg width="47" height="47" fill="none" xmlns="http://www.w3.org/2000/svg"><g clip-path="url(#clip0)"><path d="M46.683.66H.806v45.876h45.877V.66z" fill="#B5C2DF"/><path d="M22.198 26.599l-7.874-14.752h3.599l4.632 9.336c.07.166.154.338.249.516s.178.363.25.553c.047.07.083.136.106.196.024.059.048.113.072.16.118.238.225.47.32.695.095.225.178.433.25.623.19-.403.398-.837.623-1.3.226-.463.457-.944.695-1.443l4.703-9.336h3.35l-7.946 14.93v9.513h-3.029V26.6z" fill="#F5F8FF"/></g><defs><clipPath id="clip0"><path fill="#fff" d="M.806.659h45.877v45.877H.806z"/></clipPath></defs></svg>