<svg width="53" height="53" fill="none" xmlns="http://www.w3.org/2000/svg"><g clip-path="url(#clip0)"><path d="M26.32 50.507a10.581 10.581 0 0 1-7.534-3.121L5.274 33.873a10.58 10.58 0 0 1-3.125-7.535c0-2.847 1.11-5.524 3.125-7.537L18.786 5.29a10.58 10.58 0 0 1 7.533-3.12c2.846 0 5.521 1.107 7.534 3.119l13.512 13.513a10.578 10.578 0 0 1 3.125 7.536 10.58 10.58 0 0 1-3.126 7.537l-13.511 13.51a10.58 10.58 0 0 1-7.534 3.122z" fill="#B5C2DF"/><path d="M17.061 12.237a9.259 9.259 0 1 1 9.259 9.259 9.258 9.258 0 0 1-9.259-9.259z" fill="#F5F8FF"/><path d="M50.339 32.616a11.328 11.328 0 0 0 1.879-6.276c0-3.052-1.19-5.92-3.348-8.075L34.392 3.785l-.006.006A11.368 11.368 0 0 0 26.32.44c-3.148 0-6 1.282-8.066 3.352l-.005-.006L3.77 18.264A11.34 11.34 0 0 0 .422 26.34c0 3.05 1.188 5.918 3.347 8.074l13.055 13.055a18.47 18.47 0 0 0 1.653 1.642 11.331 11.331 0 0 0 7.842 3.125c3.049 0 5.916-1.187 8.072-3.344l14.085-14.085.107-.107.285-.285a11.525 11.525 0 0 0 1.444-1.757l.03-.04-.003-.002zm-2.345-6.276c0 1.42-.412 2.775-1.175 3.936-.458.624-.935 1.17-1.427 1.642l-.035.035c-2.315 2.203-4.932 2.827-7.152 2.827a13.15 13.15 0 0 1-3.192-.409c-5.074-1.282-10.59-5.649-13.115-12.017 1.36.574 2.854.892 4.421.892 5.888 0 10.747-4.485 11.342-10.218l8.222 8.223a7.149 7.149 0 0 1 2.11 5.089zM26.32 4.664c3.959 0 7.179 3.22 7.179 7.179s-3.22 7.18-7.18 7.18c-3.958 0-7.178-3.221-7.178-7.18 0-3.958 3.22-7.18 7.179-7.18zM6.755 31.428a7.145 7.145 0 0 1-2.11-5.088c0-1.921.75-3.728 2.11-5.087l5.563-5.564c-1.452 4.943-2.076 10.145-1.741 15.13.12 1.793.367 3.512.723 5.153l-4.545-4.544zm9.51-14.212c1.222 9.56 8.789 18.996 17.714 21.251 1.454.367 2.88.548 4.258.548l.06-.002-6.892 6.893a7.15 7.15 0 0 1-5.086 2.107 7.14 7.14 0 0 1-3.728-1.049l.002-.004c-.438-.29-.856-.618-1.262-.966-.031-.03-.065-.057-.097-.088l-1.392-1.392c-2.864-3.288-4.665-8.18-5.052-13.977-.293-4.386.234-8.96 1.475-13.32z" fill="#3D4963"/></g><defs><clipPath id="clip0"><path fill="#fff" d="M.422.44h51.796v51.796H.422z"/></clipPath></defs></svg>