<svg width="39" height="52" fill="none" xmlns="http://www.w3.org/2000/svg"><path d="M.838 11.706v14.938h3.495V13.751l15.373-9.12 15.376 9.12v16.352c0 2.516-.909 4.56-2.481 6.762-3.802 5.189-10.693 8.962-12.894 10.063-2.166-1.1-8.49-4.56-12.58-9.434h20.266c1.468-1.416 1.906-1.887 3.164-3.617H1.324c2.84 10.063 18.383 17.14 18.383 17.14-.004 0 15.567-6.92 18.397-17.14.296-1.1.472-2.516.472-3.774V11.706L19.706.7.838 11.706z" fill="#7B8AAB"/><path d="M10.58 16.738h17.976v2.988H10.58v-2.988zm-1.502 5.346h20.971v2.988H9.078v-2.988zM8.7 27.273h20.972v2.988H8.7v-2.988zm6.744-15.723h8.24v2.987h-8.24v-2.988z" fill="#7B8AAB"/></svg>