<svg width="64" height="57" fill="none" xmlns="http://www.w3.org/2000/svg"><g clip-path="url(#clip0)"><path d="M.917 28.797c0 4.698 4.61 9.084 11.877 11.556-1.45 7.271-.26 13.132 3.719 15.415 4.09 2.347 10.182.722 15.965-4.308 5.636 4.827 11.333 6.727 15.308 4.437 4.086-2.354 5.329-8.611 3.837-16.11 7.57-2.49 11.804-6.23 11.804-10.99 0-4.589-4.618-8.559-11.788-11.015 1.606-7.808.245-13.526-3.898-15.904-3.995-2.292-9.758-.294-15.477 4.66-5.95-5.259-11.657-6.864-15.796-4.48-3.99 2.3-5.13 8.267-3.674 15.672C5.772 20.167.917 24.227.917 28.797z" fill="#fff"/><path d="M50.12 20.22a37.355 37.355 0 0 0-1.787-.56c.101-.41.194-.815.276-1.213 1.353-6.535.469-11.8-2.552-13.533-2.896-1.662-7.632.071-12.415 4.214-.46.398-.922.82-1.383 1.262a33.561 33.561 0 0 0-.92-.845c-5.013-4.43-10.038-6.297-13.055-4.558-2.893 1.666-3.75 6.616-2.532 12.809.117.598.255 1.209.41 1.83a36.89 36.89 0 0 0-2.055.643c-5.877 2.04-9.63 5.235-9.63 8.55 0 3.424 4.029 6.859 10.15 8.941.484.164.985.32 1.502.467a35.37 35.37 0 0 0-.436 1.972c-1.161 6.086-.255 10.918 2.631 12.575 2.98 1.71 7.983-.048 12.854-4.285.385-.335.77-.69 1.158-1.063.502.481 1.003.936 1.5 1.363 4.719 4.04 9.379 5.672 12.261 4.011 2.978-1.715 3.946-6.906 2.69-13.222a31.26 31.26 0 0 0-.334-1.477c.352-.103.697-.21 1.033-.32 6.364-2.1 10.505-5.492 10.505-8.961 0-3.328-3.875-6.545-9.87-8.6z" fill="#9DA5B7"/><path d="M48.74 35.54c-.303.1-.615.196-.932.29-.703-2.213-1.651-4.567-2.812-6.999 1.108-2.374 2.02-4.698 2.702-6.897.568.164 1.12.336 1.65.518 5.138 1.76 8.271 4.362 8.271 6.367 0 2.136-3.384 4.909-8.879 6.72zm-2.28 4.496c.556 2.793.635 5.318.267 7.292-.33 1.773-.996 2.956-1.818 3.43-1.75 1.007-5.49-.303-9.526-3.758a34.42 34.42 0 0 1-1.395-1.267c1.564-1.702 3.127-3.682 4.653-5.88 2.684-.237 5.22-.624 7.519-1.153.113.454.213.9.3 1.336zM23.402 50.583c-1.709.601-3.07.618-3.893.146-1.751-1.005-2.48-4.885-1.486-10.09a34.04 34.04 0 0 1 .405-1.834c2.274.5 4.791.86 7.481 1.078 1.536 2.15 3.145 4.128 4.766 5.86-.354.34-.707.663-1.058.969-2.154 1.873-4.312 3.203-6.215 3.871zm-8.007-15.056c-2.707-.921-4.943-2.118-6.475-3.424-1.377-1.173-2.072-2.338-2.072-3.284 0-2.011 3.014-4.577 8.04-6.321.61-.212 1.248-.411 1.91-.599.696 2.25 1.607 4.6 2.707 6.978-1.114 2.413-2.039 4.802-2.74 7.077-.472-.135-.93-.278-1.37-.427zm2.684-18.184c-1.043-5.306-.35-9.31 1.393-10.314 1.857-1.07 5.964.456 10.293 4.28.276.245.554.501.833.766-1.613 1.723-3.207 3.686-4.73 5.824-2.61.24-5.11.628-7.407 1.146a34.571 34.571 0 0 1-.382-1.702zm23.946 5.884a74.978 74.978 0 0 0-1.688-2.763c1.771.223 3.468.519 5.062.88a50.232 50.232 0 0 1-1.777 4.758 82.102 82.102 0 0 0-1.597-2.875zm-9.765-9.466a50.507 50.507 0 0 1 3.267 3.925 70.089 70.089 0 0 0-6.561-.001 52.137 52.137 0 0 1 3.294-3.923zm-9.828 9.483a69.625 69.625 0 0 0-1.567 2.856 51.943 51.943 0 0 1-1.764-4.78 53.7 53.7 0 0 1 5.033-.86 69.298 69.298 0 0 0-1.702 2.783zm1.753 14.103a50.681 50.681 0 0 1-5.117-.818 52.834 52.834 0 0 1 1.8-4.878 69.525 69.525 0 0 0 3.317 5.696zm8.14 6.697a53.014 53.014 0 0 1-3.34-3.978 83.29 83.29 0 0 0 3.249.063c1.131 0 2.25-.026 3.35-.075a50.223 50.223 0 0 1-3.258 3.99zm11.32-12.478a49.908 49.908 0 0 1 1.864 4.86 50.54 50.54 0 0 1-5.178.879 82.5 82.5 0 0 0 1.704-2.811 74.957 74.957 0 0 0 1.61-2.928zm-3.664 1.749a77.355 77.355 0 0 1-2.663 4.276 71.79 71.79 0 0 1-5.084.177c-1.728 0-3.408-.053-5.027-.157a66.867 66.867 0 0 1-2.713-4.283 66.234 66.234 0 0 1-2.369-4.452 66.827 66.827 0 0 1 2.362-4.454 66.237 66.237 0 0 1 2.692-4.264 67.52 67.52 0 0 1 5.055-.19c1.718 0 3.413.066 5.064.192a71.062 71.062 0 0 1 2.675 4.25 77.207 77.207 0 0 1 2.393 4.433 70.983 70.983 0 0 1-2.385 4.472zm4.892-26.356c1.859 1.067 2.582 5.37 1.414 11.012-.075.36-.159.727-.25 1.098-2.303-.529-4.804-.922-7.422-1.167-1.526-2.162-3.107-4.127-4.693-5.828.426-.409.852-.798 1.277-1.166 4.098-3.55 7.929-4.95 9.674-3.949z" fill="#fff"/><path d="M32.234 23.886c2.737 0 4.957 2.209 4.957 4.934 0 2.724-2.22 4.933-4.957 4.933-2.738 0-4.958-2.209-4.958-4.933 0-2.725 2.22-4.934 4.958-4.934z" fill="#9DA5B7"/></g><defs><clipPath id="clip0"><path fill="#fff" d="M.731.74h62.896v56.236H.731z"/></clipPath></defs></svg>