<svg width="83" height="48" fill="none" xmlns="http://www.w3.org/2000/svg"><path d="M13.239.239c4.25-.728 10.718.43 12.653.546 4.384.264 8.75.628 13.117 1.091a281.8 281.8 0 0 1 6.368.761c1.638.215 3.838.1 5.243 1.075 1.82 1.257 1.39 3.92.86 5.69-.744 2.779-1.174 5.657-1.736 8.486-.546 2.795-.513 5.706-1.456 8.419-.678 1.951-2.15 3.027-4.102 3.54-1.488.38-2.233-.1-1.885 1.405.33 1.456.959 3.556 1.29 6.004-2.796-2.25-4.946-5.59-8.403-6.847-3.225-1.175-6.798-.877-10.14-.447-4.052.513-9.196-.132-10.354-4.797l-3.97-15.928C9.799 5.58 8.079 1.132 13.24.239z" fill="#000"/><path d="M32.41 6.54L7.383 8.146c-4.582.281-7.41 4.168-6.302 8.601l3.754 15.102c.728 2.91 3.672 5.376 6.418 6.65v6.152l6.93-5.425 7.03-.43c4.566-.281 9.114-4.168 10.107-8.634l3.556-16.012c1.025-4.482-1.902-7.906-6.468-7.608z" fill="#fff"/><path d="M32.36 5.68l.232.773L19.21 7.748 13 8.5l-3.5.373-1.637.099-.43.033-.364.05-.364.033c-.115.016-.231.05-.364.082a6.42 6.42 0 0 0-2.58 1.225c-.1.066-.182.148-.264.231l-.265.248c-.083.083-.149.182-.232.265-.066.099-.149.182-.231.281l-.199.298a2.966 2.966 0 0 0-.182.297l-.165.315c-.033.05-.05.099-.083.165l-.066.166a6.09 6.09 0 0 0-.364 2.828c.017.116.017.248.033.364l.066.364c.033.116.05.231.067.364l.099.397.397 1.604 3.242 12.77c.066.28.132.496.198.727.033.116.083.215.133.33.016.05.05.117.066.166l.082.166c.199.446.48.86.778 1.257.298.397.645.777.992 1.141.364.347.745.695 1.158 1.01.199.164.414.297.629.462.215.133.43.281.661.414l.331.198.347.182.182.1.348.165.347.165.182.083c.033.017.066.033.083.05v4.912l1.588-1.24 2.596-2.035 1.44-1.125c.05-.033.099-.099.165-.115l.198-.017.364-.017.414-.033.827-.05 3.291-.198 1.638-.099c.264-.017.562-.033.794-.066l.364-.033c.066 0 .116-.017.182-.017l.182-.033a10.63 10.63 0 0 0 2.845-.992 11.963 11.963 0 0 0 2.48-1.787c1.49-1.39 2.63-3.175 3.06-5.127l1.423-6.418 1.472-6.6.364-1.654.182-.827.1-.413.082-.38a6.027 6.027 0 0 0-.165-2.928l-.017-.05c0-.016 0-.016-.017-.033v-.017l-.016-.033-.017-.05-.033-.098c-.016-.067-.066-.133-.082-.216-.066-.148-.133-.264-.215-.413a4.653 4.653 0 0 0-.761-1.29 4.822 4.822 0 0 0-1.191-1.042c-.926-.58-2.051-.91-3.225-.993 1.19-.198 2.464-.165 3.688.265 1.208.43 2.349 1.274 3.093 2.431.083.15.149.298.215.447.033.066.066.149.1.232l.049.115.017.05.016.033v.017c.017.033.017.082.033.115.397 1.224.447 2.531.232 3.755l-.083.447-.1.413-.181.827-.364 1.654-1.472 6.6-1.423 6.418a11.21 11.21 0 0 1-1.34 3.291 13.567 13.567 0 0 1-2.216 2.73 13.988 13.988 0 0 1-2.845 2.05 11.81 11.81 0 0 1-3.341 1.175l-.215.05c-.066.016-.149.016-.232.033l-.446.05c-.314.032-.563.049-.844.065l-1.637.1-3.292.198-1.274.083-1.157.91-2.597 2.034-3.606 2.812-.645.513-.083.066c-.016 0-.033.033-.033.016v-7.393l-.033-.017-.016-.016-.182-.1-.38-.215-.381-.215c-.248-.148-.497-.314-.728-.463-.232-.165-.48-.33-.711-.513-.464-.347-.894-.744-1.324-1.14-.198-.216-.413-.414-.612-.646-.099-.116-.198-.215-.28-.33l-.282-.348c-.347-.48-.695-.992-.943-1.538l-.1-.199a1.146 1.146 0 0 1-.082-.215c-.05-.149-.116-.281-.165-.43-.083-.298-.182-.612-.248-.86L.75 18.996.354 17.39l-.1-.397a3.574 3.574 0 0 1-.082-.446L.089 16.1c-.033-.149-.033-.298-.05-.447-.115-1.207.017-2.464.48-3.622l.083-.215a1.01 1.01 0 0 1 .083-.199l.215-.413c.066-.149.165-.265.231-.397l.248-.397c.1-.132.199-.248.298-.364.1-.116.199-.248.298-.347l.33-.331c.116-.116.216-.215.348-.314A7.658 7.658 0 0 1 5.96 7.483l.447-.099.446-.05.447-.05.413-.032 1.638-.1 3.291-.215 6.567-.413 13.15-.844zM58 2h25v46H58z" fill="#000"/><path d="M75 42.972v-1.39h-9.16v1.403l1.714 2.412h1.397l-1.701-2.393v-.032H75zm.171-7.636c0-2.057-1.066-3.472-2.881-3.866v1.428c1.021.324 1.618 1.206 1.618 2.432 0 1.682-1.352 2.748-3.491 2.748-2.12 0-3.485-1.079-3.485-2.742 0-1.187.705-2.14 1.79-2.438V31.47c-1.828.305-3.053 1.847-3.053 3.866 0 2.558 1.847 4.196 4.748 4.196 2.92 0 4.754-1.625 4.754-4.196zm-.101-6.087a.826.826 0 0 0-.832-.832.826.826 0 0 0-.831.831c0 .464.368.832.831.832a.826.826 0 0 0 .832-.831zm-4.628 0a.822.822 0 0 0-.831-.832.826.826 0 0 0-.832.831c0 .464.368.832.832.832.47 0 .831-.368.831-.831zM75 19.613h-9.16v1.422h3.796c.4.4.781 1.13.781 2.126 0 1.428-.819 2.203-2.158 2.203H65.84v1.422h2.47c1.904 0 3.376-1.206 3.376-3.498 0-.984-.342-1.74-.672-2.165v-.088H75v-1.422zm-.971-3.986c0 .736-.381 1.218-.965 1.218-.571 0-.933-.463-.99-1.282l-.102-1.644h.527c.87 0 1.53.749 1.53 1.707zm1.085.38c0-.876-.47-1.72-1.212-2.107v-.032H75v-1.314h-4.602c-1.34 0-2.196 1.035-2.196 2.653 0 1.65.888 2.68 2.094 2.755v-1.294c-.596-.121-.977-.616-.977-1.41 0-.838.444-1.34 1.187-1.34h.514l.108 1.83c.089 1.586.806 2.481 1.974 2.481 1.2 0 2.012-.914 2.012-2.222zm-6.792-9.87v5.554h1.086V9.596H75V8.231h-5.592V6.137h-1.086z" fill="#fff"/><path d="M36 12a4 4 0 1 0 0-8 4 4 0 0 0 0 8z" fill="#FFCF1E"/><path d="M11.1 19.532c5.173-.409 10.362-.833 15.535-1.242.739-.063 1.478-.11 2.217-.173-.33.031-.755-1.148-1.101-1.116-5.189.408-10.361.833-15.534 1.242-.74.063-1.478.11-2.217.173.33-.032.755 1.147 1.1 1.116zm.63 3.475c5.172-.409 10.36-.834 15.534-1.242.739-.063 1.477-.11 2.216-.173-.33.031-.754-1.148-1.1-1.116-5.189.408-10.361.817-15.55 1.226-.739.063-1.478.11-2.217.173.346-.016.77 1.148 1.117 1.132zm.628 3.868c5.173-.41 10.362-.834 15.534-1.243.74-.063 1.478-.11 2.217-.173-.33.032-.754-1.147-1.1-1.116l-15.55 1.227c-.739.062-1.478.11-2.217.172.346-.015.77 1.148 1.116 1.133z" fill="#000"/></svg>