<svg width="78" height="78" fill="none" xmlns="http://www.w3.org/2000/svg"><path d="M68.25 14.625v24.07c0 8.166-6.673 14.808-14.869 14.808H31.337L20.643 62.63a9.828 9.828 0 0 0 3.732.746h23.476l16.377 14.046c.457.381 1.02.579 1.585.579.35 0 .7-.076 1.02-.228a2.428 2.428 0 0 0 1.417-2.21V63.376c5.378 0 9.75-4.372 9.75-9.75v-29.25c0-5.378-4.372-9.75-9.75-9.75z" fill="#E4E5FF"/><path d="M13.25 48.75v-3.5h-3.5A6.26 6.26 0 0 1 3.5 39V9.75A6.259 6.259 0 0 1 9.75 3.5h43.875a6.26 6.26 0 0 1 6.25 6.25V39a6.26 6.26 0 0 1-6.25 6.25H28.853l-.983.843-14.62 12.54V48.75z" stroke="#6369FD" stroke-width="7"/><circle cx="19.5" cy="24.5" r="3.5" fill="#6369FD"/><circle cx="31.5" cy="24.5" r="3.5" fill="#6369FD"/><circle cx="43.5" cy="24.5" r="3.5" fill="#6369FD"/></svg>