<svg width="73" height="73" fill="none" xmlns="http://www.w3.org/2000/svg"><circle cx="36.5" cy="36.5" r="36.5" fill="#E4E5FF"/><path d="M37.193 62.268c14.466 0 26.193-11.727 26.193-26.193a26.07 26.07 0 0 0-3.063-12.308c-.214.03-.434.043-.648.043-.123 0-.251-.006-.38-.012l-3.332-.257-2.396 2.396a19.17 19.17 0 0 1 2.886 10.138c0 10.632-8.621 19.253-19.254 19.253-10.632 0-19.26-8.62-19.26-19.253 0-10.633 8.622-19.254 19.254-19.254 3.724 0 7.196 1.058 10.137 2.886l2.17-2.17-.293-3.822a5.034 5.034 0 0 1 .012-.91 26.09 26.09 0 0 0-12.032-2.923C22.727 9.882 11 21.609 11 36.075c0 14.466 11.727 26.193 26.193 26.193z" fill="#6369FD"/><path d="M37.193 29.306c.171 0 .342.006.514.019l4.836-4.837.104-.104a12.812 12.812 0 0 0-5.454-1.21c-7.123 0-12.895 5.772-12.895 12.895 0 7.122 5.772 12.9 12.895 12.9 7.123 0 12.895-5.771 12.895-12.894 0-1.95-.435-3.797-1.211-5.454l-.104.104-4.836 4.836a6.767 6.767 0 0 1-6.75 7.282 6.762 6.762 0 0 1-6.762-6.768 6.771 6.771 0 0 1 6.768-6.769z" fill="#6369FD"/><path d="M64.187 12.719l1.553-1.553c.71-.71.71-1.853 0-2.562l-1.076-1.082a1.806 1.806 0 0 0-1.278-.532c-.459 0-.93.177-1.278.532L60.328 9.3l-.366-4.739A.602.602 0 0 0 59.351 4a.597.597 0 0 0-.428.177l-7.001 7.001a3.061 3.061 0 0 0-.887 2.397l.019.275.336 4.384-2.531 2.53-4.555 4.556-.104.104-4.409 4.408-1.956 1.957a1.502 1.502 0 0 0-.44.96l-.123 1.534a1.528 1.528 0 0 0 1.523 1.651h.08l1.62-.08a1.5 1.5 0 0 0 1.002-.446l1.938-1.938 4.409-4.408.104-.104 4.555-4.555 2.751-2.752 3.999.306.177.012c.08.006.159.006.232.006.807 0 1.584-.317 2.165-.892l6.994-6.995a.61.61 0 0 0-.385-1.04l-4.25-.33z" fill="#6369FD"/></svg>