<svg width="111" height="73" fill="none" xmlns="http://www.w3.org/2000/svg"><path d="M9.048 36.216c0-14.98 12.175-27.162 27.146-27.162 14.97 0 27.145 12.182 27.145 27.162h9.048C72.387 16.247 56.15 0 36.194 0 16.237 0 0 16.247 0 36.216s16.237 36.216 36.194 36.216h58.814v-9.054H36.194c-14.97 0-27.146-12.182-27.146-27.162z" fill="#E4E5FF"/><path d="M18.814 38.881h6.145v33.802h6.146V32.735H18.814v6.146z" fill="#6369FD"/><path d="M24.96 29.663h9.218v43.02h6.146V23.517H24.959v6.146zM52.614 48.1c0-10.168 8.27-18.437 18.438-18.437S89.49 37.932 89.49 48.1h6.146c0-13.555-11.029-24.583-24.583-24.583-13.555 0-24.584 11.028-24.584 24.583 0 13.554 11.03 24.583 24.584 24.583H111v-6.146H71.053c-10.169 0-18.438-8.269-18.438-18.437z" fill="#6369FD"/><path d="M71.053 54.246a6.152 6.152 0 0 1-6.146-6.146 6.152 6.152 0 0 1 6.146-6.146 6.152 6.152 0 0 1 6.145 6.146h6.146c0-6.779-5.513-12.292-12.291-12.292-6.78 0-12.292 5.513-12.292 12.292s5.513 12.29 12.292 12.29H111v-6.145H71.053z" fill="#6369FD"/></svg>