<svg width="85" height="62" fill="none" xmlns="http://www.w3.org/2000/svg"><rect width="62" height="57" rx="7" fill="#E4E5FF"/><path d="M68.208 60H54.934c-1.085 0-2.08-.6-2.6-1.566a3.023 3.023 0 0 1 .11-3.048c.588-.927.973-1.629.973-2.886 0-2.481-2.654-4.5-5.917-4.5s-5.917 2.019-5.917 4.5c0 1.257.385 1.959.977 2.889.582.915.62 2.082.106 3.045a2.954 2.954 0 0 1-2.6 1.566H26.792a1.47 1.47 0 0 1-1.089-.486 1.518 1.518 0 0 1-.384-1.14l1.123-13.67a1.483 1.483 0 0 0-.715-1.414 1.432 1.432 0 0 0-1.562.027c-1.249.825-2.547 1.683-4.77 1.683C15.32 45 12 40.962 12 36s3.32-9 7.396-9c2.222 0 3.52.858 4.665 1.61.583.385 1.166.397 1.666.097.494-.3.763-.828.715-1.413l-1.123-13.67a1.517 1.517 0 0 1 .384-1.141A1.48 1.48 0 0 1 26.792 12h13.274c1.085 0 2.08.6 2.6 1.566.515.96.476 2.127-.11 3.048-.588.927-.973 1.629-.973 2.886 0 2.481 2.654 4.5 5.917 4.5s5.917-2.019 5.917-4.5c0-1.257-.385-1.959-.977-2.889a3.024 3.024 0 0 1-.106-3.045 2.954 2.954 0 0 1 2.6-1.566h13.274c.415 0 .808.177 1.089.486.278.309.42.723.385 1.14l-1.124 13.67a1.485 1.485 0 0 0 .715 1.414 1.44 1.44 0 0 0 1.562-.027c1.249-.825 2.547-1.683 4.77-1.683C79.68 27 83 31.038 83 36s-3.32 9-7.396 9c-2.222 0-3.52-.858-4.665-1.61-.589-.388-1.172-.4-1.666-.097a1.48 1.48 0 0 0-.715 1.413l1.123 13.671c.036.417-.106.831-.384 1.14a1.48 1.48 0 0 1-1.089.483zM47.5 45c4.893 0 8.875 3.366 8.875 7.5 0 2.061-.713 3.357-1.444 4.509L66.602 57l-.988-12.048a4.488 4.488 0 0 1 2.145-4.236 4.342 4.342 0 0 1 4.688.087c1.098.726 1.811 1.197 3.157 1.197 2.447 0 4.438-2.69 4.438-6 0-3.309-1.991-6-4.438-6-1.346 0-2.059.47-3.05 1.125-1.541 1.008-3.337 1.044-4.798.159a4.488 4.488 0 0 1-2.145-4.236L66.602 15H54.937c.725 1.143 1.438 2.439 1.438 4.5 0 4.134-3.982 7.5-8.875 7.5s-8.875-3.366-8.875-7.5c0-2.061.713-3.357 1.444-4.509L28.398 15l.988 12.048a4.488 4.488 0 0 1-2.145 4.236 4.353 4.353 0 0 1-4.688-.087C21.455 30.471 20.742 30 19.396 30c-2.447 0-4.438 2.691-4.438 6 0 3.31 1.991 6 4.438 6 1.346 0 2.059-.47 3.05-1.125 1.538-1.014 3.33-1.05 4.798-.159a4.488 4.488 0 0 1 2.145 4.236L28.398 57h11.665c-.725-1.143-1.438-2.439-1.438-4.5 0-4.134 3.982-7.5 8.875-7.5z" fill="#6369FD" stroke="#6369FD" stroke-width="3"/></svg>