<svg width="52" height="85" fill="none" xmlns="http://www.w3.org/2000/svg"><path opacity=".4" d="M47.214 80.97c0 1.85-9.479 3.349-21.172 3.349-11.694 0-21.173-1.5-21.173-3.349 0-1.85 9.48-3.349 21.173-3.349 11.693 0 21.172 1.5 21.172 3.35z" fill="#C4C4C4"/><path d="M23.891 61.86c2.044 3.149 9.2 2.122 15.986-2.296 6.785-4.416 10.63-10.55 8.585-13.7-2.043-3.15-9.2-2.122-15.985 2.295s-10.63 10.55-8.586 13.7z" fill="#E6F0FF"/><path fill-rule="evenodd" clip-rule="evenodd" d="M29.852 61.778c-2.745.394-4.047-.254-4.462-.894-.416-.64-.478-2.096.997-4.449 1.387-2.213 3.838-4.676 7.064-6.776 3.225-2.1 6.468-3.343 9.05-3.713 2.745-.395 4.048.253 4.463.893.415.64.478 2.096-.997 4.448-1.387 2.214-3.838 4.677-7.064 6.777-3.225 2.1-6.468 3.343-9.05 3.714zm10.025-2.214c-6.785 4.418-13.942 5.445-15.986 2.295-2.043-3.15 1.8-9.283 8.586-13.7 6.785-4.417 13.942-5.445 15.985-2.295 2.044 3.15-1.8 9.284-8.585 13.7z" fill="#000"/><path d="M21.314 68.58c.581 2.505 5.43 3.518 10.828 2.261 5.398-1.256 9.303-4.306 8.722-6.812-.581-2.506-5.43-3.519-10.828-2.263-5.398 1.257-9.303 4.307-8.722 6.813z" fill="#E6F0FF"/><path fill-rule="evenodd" clip-rule="evenodd" d="M25.286 69.369c-1.813-.378-2.193-1.028-2.231-1.195-.039-.167.016-.917 1.477-2.058 1.33-1.04 3.404-2.023 5.909-2.606 2.505-.583 4.798-.616 6.45-.271 1.814.379 2.194 1.028 2.232 1.195.039.166-.016.917-1.477 2.058-1.33 1.04-3.404 2.023-5.909 2.606-2.505.583-4.798.617-6.45.271zm6.856 1.472c-5.399 1.257-10.247.244-10.828-2.262-.581-2.506 3.324-5.556 8.722-6.813 5.399-1.256 10.246-.243 10.828 2.263.581 2.506-3.324 5.556-8.722 6.812z" fill="#000"/><path d="M27.02 62.218c-1.385 3.149-6.238 2.121-10.84-2.295-4.6-4.417-7.207-10.552-5.822-13.701 1.386-3.15 6.24-2.122 10.84 2.295 4.602 4.417 7.208 10.55 5.822 13.7z" fill="#E6F0FF"/><path fill-rule="evenodd" clip-rule="evenodd" d="M22.828 61.878c1.74.369 2.601-.215 2.902-.899.302-.685.313-2.083-.622-4.283-.898-2.113-2.5-4.497-4.63-6.542-2.13-2.044-4.255-3.239-5.928-3.593-1.74-.368-2.6.215-2.902.9-.301.684-.312 2.083.623 4.282.898 2.113 2.5 4.497 4.63 6.541 2.13 2.045 4.255 3.24 5.927 3.594zm-6.648-1.955c4.602 4.416 9.455 5.444 10.84 2.295 1.386-3.15-1.22-9.284-5.822-13.701-4.6-4.417-9.454-5.445-10.84-2.295-1.385 3.15 1.221 9.284 5.822 13.7z" fill="#000"/><path fill-rule="evenodd" clip-rule="evenodd" d="M4.659 49.84a.657.657 0 0 0 .125.92l5.234 3.981 4.754 3.73a.655.655 0 1 0 .808-1.034l-4.758-3.732a.517.517 0 0 0-.008-.006l-5.237-3.984a.654.654 0 0 0-.918.126z" fill="#000"/><path fill-rule="evenodd" clip-rule="evenodd" d="M4.881 40.912c-.156.092-.237.18-.23.253.006.06-.028.13-.075.153-.073.036-.067.242.036 1.341.068.715.11 1.315.093 1.335-.016.02-.159.008-.317-.026a.95.95 0 0 0-.92.282c-.154.172-.216.2-.275.12-.102-.134-.876-.034-.974.126-.018.03-.113.14-.21.248-.149.163-.189.182-.241.113-.108-.142-.711-.048-.925.145-.295.264-.32.472-.188 1.61.064.554.14 1.072.168 1.152.029.08.09.317.137.526.103.461.288 1.027.353 1.082.026.021.052.085.057.14a.266.266 0 0 0 .106.168.28.28 0 0 1 .106.179c.006.062.053.125.103.139.05.014.095.05.098.081.003.031.169.188.369.35.343.277.789.49.988.472.048-.005.107.016.13.047.026.034.451.017 1.075-.042.99-.093 1.046-.105 1.345-.283.718-.428 1.206-1.26 1.489-2.54.125-.564-.014-1.09-.392-1.488-.09-.096-.149-.268-.205-.605-.043-.26-.13-.736-.194-1.06-.063-.324-.18-1.268-.26-2.098-.166-1.715-.208-1.851-.614-2-.28-.103-.335-.096-.633.08z" fill="#000"/><path d="M28.765 68.938c-.395 2.506-3.682 3.518-7.343 2.262-3.66-1.257-6.309-4.307-5.914-6.813.394-2.506 3.681-3.52 7.342-2.262 3.66 1.257 6.309 4.307 5.915 6.813z" fill="#E6F0FF"/><path fill-rule="evenodd" clip-rule="evenodd" d="M25.625 69.682c1-.307 1.377-.862 1.45-1.325.072-.462-.1-1.206-.905-2.133-.792-.911-2.049-1.8-3.598-2.331-1.55-.532-2.943-.554-3.925-.25-1 .307-1.376.861-1.45 1.324-.072.462.101 1.206.906 2.133.791.912 2.048 1.8 3.597 2.332 1.55.531 2.943.553 3.925.25zM21.422 71.2c3.661 1.256 6.948.244 7.343-2.262.394-2.506-2.254-5.556-5.915-6.813-3.66-1.257-6.948-.244-7.342 2.262-.395 2.506 2.254 5.556 5.914 6.813z" fill="#000"/><path fill-rule="evenodd" clip-rule="evenodd" d="M38.023 38.796c-2.757 1.459-5.302 8.218-6.094 16.88-.747 8.176.29 15.611 2.389 18.875a8.306 8.306 0 0 1-2.984.56c-6.922 0-12.534-8.808-12.534-19.673 0-10.866 5.611-19.674 12.534-19.674 2.46 0 4.753 1.112 6.689 3.032z" fill="#FE9E23"/><path fill-rule="evenodd" clip-rule="evenodd" d="M38.023 38.796c-.3-.297-.607-.574-.923-.831-1.726-1.407-3.687-2.201-5.766-2.201-6.922 0-12.534 8.808-12.534 19.674 0 10.865 5.611 19.674 12.534 19.674.613 0 1.215-.07 1.805-.203.4-.09.793-.21 1.179-.358a9.057 9.057 0 0 1-.574-1.051c-1.708-3.646-2.49-10.432-1.814-17.823.699-7.647 2.764-13.81 5.134-16.154.315-.312.636-.556.959-.727zm-1.858-.057c-1.504-1.174-3.145-1.791-4.831-1.791-2.906 0-5.712 1.851-7.852 5.21-2.13 3.343-3.487 8.035-3.487 13.28 0 5.244 1.357 9.936 3.487 13.28 2.14 3.359 4.946 5.21 7.852 5.21.419 0 .833-.038 1.242-.112-.798-1.776-1.366-4.1-1.706-6.71-.44-3.382-.512-7.372-.131-11.536.403-4.41 1.254-8.368 2.376-11.438.56-1.534 1.2-2.874 1.901-3.946a9.324 9.324 0 0 1 1.15-1.447z" fill="#000"/><path d="M29.665 50.492c0 7.356-3.214 17.085-5.572 17.085s-2.368-2.093-4.457-9.976c0-7.356.426-9.004 2.784-9.004 2.358 0 7.245-5.46 7.245 1.895z" fill="#FED41E"/><path d="M19.218 60.461c5.073.64 7.84.211 12.119-.419v3.543c-3.85 1.455-7.132 1.715-10.866 1.48l-1.253-4.604z" fill="url(#paint0_linear)"/><path d="M22.144 67.847c5.497.568 5.796.283 9.308-1.107l.721 3.373c-4.084.896-6.126 1.001-7.82.563l-2.21-2.83z" fill="url(#paint1_linear)"/><path d="M18.8 53.345c5.354.958 8.054 1.532 12.537.958v3.229c-5.093 0-8.228 0-12.537-.505v-3.682z" fill="url(#paint2_linear)"/><path fill-rule="evenodd" clip-rule="evenodd" d="M24.184 70.931a.528.528 0 0 1 .46.594l-1.205 8.16a.537.537 0 0 1-.538.45h-3.558a.534.534 0 0 1-.543-.525c0-.29.243-.524.543-.524h3.087l1.14-7.71a.54.54 0 0 1 .614-.445zm5.573.008c-.317-.064-.628.123-.697.417l-1.888 8.119c-.038.16.005.33.116.457a.603.603 0 0 0 .456.203h3.843c.323 0 .586-.244.586-.545 0-.301-.263-.546-.586-.546H28.47l1.735-7.457c.068-.294-.133-.585-.449-.648z" fill="#000"/><path d="M46.381 30.74c0 11.56-9.168 20.93-20.477 20.93-11.309 0-20.476-9.37-20.476-20.93 0-11.559 9.167-20.93 20.476-20.93 11.31 0 20.477 9.371 20.477 20.93z" fill="#FE9E23"/><path fill-rule="evenodd" clip-rule="evenodd" d="M25.904 49.991c10.402 0 18.834-8.619 18.834-19.25 0-10.632-8.432-19.251-18.834-19.251-10.401 0-18.833 8.619-18.833 19.25 0 10.632 8.432 19.251 18.833 19.251zm0 1.68c11.31 0 20.477-9.371 20.477-20.93 0-11.56-9.168-20.93-20.477-20.93-11.309 0-20.476 9.37-20.476 20.93 0 11.559 9.167 20.93 20.476 20.93z" fill="#000"/><path d="M42.202 27.96c0 10.321-8.384 18.688-18.726 18.688-10.342 0-16.377-6.153-16.377-16.474 0-10.32 8.383-18.688 18.725-18.688 10.342 0 16.378 6.153 16.378 16.474z" fill="#FED41E"/><path fill-rule="evenodd" clip-rule="evenodd" d="M23.2 59.898a.655.655 0 0 0 .666.644l5.711-.1a.655.655 0 0 0 .622-.485l1.231-4.59a.656.656 0 0 0-1.265-.342L29.06 59.14l-5.218.091a.656.656 0 0 0-.644.668z" fill="#000"/><path d="M24.936 54.162c-.08-.384-.387-.665-.752-.69L9.646 52.51c-.664-.044-1.1.736-.753 1.348l3.786 6.677c.14.248.386.406.655.423l12.116.758c.547.034.973-.507.851-1.082l-1.365-6.472z" fill="#151515"/><path d="M25.032 54.745a.808.808 0 0 0-.737-.616l-13.838-.782c-.664-.038-1.084.709-.713 1.267l3.51 5.287a.803.803 0 0 0 .626.358l11.593.62c.54.029.955-.48.824-1.011l-1.265-5.123z" fill="#1D1D1D"/><path d="M25.485 57.27l-15.044-.576 2.391 4.186 12.652.835.001-4.446z" fill="#282828"/><path d="M16.39 57.7c-.302.634.154 1.557.681 1.5.422-.047.85-.02.975 0 .47.066 1.039-.41.592-.538l-.009-.002c-.39-.113-.902-.259-.79-.457.046-.081.198-.172.508-.272.715-.232-.226-.596-.678-.635.151-.096.362-.377 0-.562-.361-.185-.3.312-.226.562-.306-.02-.945.035-1.054.404z" fill="#C4C4C4"/><path d="M25.69 58.382c1.386-.16 1.512 1.09 1.402 1.735v1.602c0 .133.147.628 0 1-.46 1.167-2.601.578-3.877 0-1.677-.76-.99-2.135-.577-3.536.33-1.121 1.897.156 2.64.934-.44-.512-.974-1.575.412-1.735z" fill="#000"/><path fill-rule="evenodd" clip-rule="evenodd" d="M26.855 59.013c.18.351.185.802.132 1.11v1.579c0 .036.009.092.019.155l.002.01c.01.07.024.152.033.242.017.18.017.382-.05.553a.906.906 0 0 1-.576.53c-.269.094-.604.112-.968.076-.728-.07-1.558-.354-2.18-.636-.403-.182-.66-.4-.814-.642a1.388 1.388 0 0 1-.203-.803c.006-.294.076-.608.17-.938a17.251 17.251 0 0 1 .165-.54c.05-.157.1-.315.147-.474a.616.616 0 0 1 .16-.283.406.406 0 0 1 .233-.106c.184-.023.417.047.671.181.507.267 1.068.765 1.43 1.144l.078-.072a2.38 2.38 0 0 1-.302-.444 1.245 1.245 0 0 1-.153-.501.515.515 0 0 1 .16-.418c.123-.116.332-.208.665-.247.33-.038.582.008.771.105.19.096.321.245.41.42zm-.361-.515c-.212-.108-.485-.156-.832-.116-.345.04-.58.137-.727.275a.623.623 0 0 0-.192.5c.007.182.074.372.164.546l.008.015c-.323-.295-.708-.597-1.07-.786-.26-.137-.516-.22-.733-.193a.516.516 0 0 0-.294.134.722.722 0 0 0-.188.33c-.047.158-.097.316-.147.473l-.012.039c-.054.169-.107.337-.154.504-.095.332-.167.657-.174.964a1.5 1.5 0 0 0 .22.864c.169.263.444.492.86.682.628.284 1.47.572 2.214.645.372.036.724.02 1.013-.082.291-.102.52-.29.64-.592.076-.195.075-.417.057-.603a3.892 3.892 0 0 0-.034-.248 1.225 1.225 0 0 1-.02-.148v-1.563c.054-.322.05-.796-.143-1.174a1.042 1.042 0 0 0-.456-.466z" fill="#000"/><path d="M2.92 26.973c0 5.317 4.303 9.628 9.611 9.628 5.309 0 9.612-4.31 9.612-9.628 0-5.317-4.303-9.627-9.612-9.627-5.308 0-9.611 4.31-9.611 9.627z" fill="#fff"/><path fill-rule="evenodd" clip-rule="evenodd" d="M12.531 34.996c-4.423 0-8.01-3.592-8.01-8.023 0-4.431 3.587-8.023 8.01-8.023 4.424 0 8.01 3.592 8.01 8.023 0 4.431-3.586 8.023-8.01 8.023zm0 1.605c-5.308 0-9.611-4.31-9.611-9.628 0-5.317 4.303-9.627 9.611-9.627 5.309 0 9.612 4.31 9.612 9.627 0 5.317-4.303 9.628-9.612 9.628z" fill="#000"/><path d="M15.457 26.137c0 6.241 5.052 11.301 11.283 11.301 6.232 0 11.283-5.06 11.283-11.302 0-6.241-5.052-11.301-11.283-11.301s-11.283 5.06-11.283 11.302z" fill="#fff"/><path fill-rule="evenodd" clip-rule="evenodd" d="M26.74 35.719c-5.283 0-9.566-4.29-9.566-9.582 0-5.293 4.283-9.583 9.566-9.583s9.566 4.29 9.566 9.583c0 5.291-4.283 9.582-9.566 9.582zm0 1.72c-6.231 0-11.283-5.06-11.283-11.302s5.052-11.303 11.283-11.303c6.232 0 11.283 5.06 11.283 11.303 0 6.241-5.052 11.301-11.283 11.301z" fill="#000"/><path d="M9.37 9.8C-.78 8.413-1.277 16.645 1.558 15.103 3.41 14.095 3.64 9.542 9.37 9.801z" fill="#000"/><path fill-rule="evenodd" clip-rule="evenodd" d="M3.445 10.214C4.89 9.655 6.84 9.401 9.39 9.75l-.029.102c-1.42-.064-2.495.17-3.337.57-.842.4-1.459.968-1.958 1.58-.376.46-.683.942-.971 1.394-.096.15-.189.295-.282.436-.37.563-.74 1.05-1.22 1.312-.368.2-.695.248-.96.164-.261-.082-.443-.287-.542-.56-.199-.548-.08-1.403.444-2.257.526-.857 1.463-1.718 2.91-2.277zM.694 15.212c.21.066.488.035.83-.151.445-.242.8-.702 1.172-1.268.091-.138.183-.283.278-.431.289-.453.601-.943.982-1.41.506-.62 1.138-1.204 2.008-1.617.672-.319 1.483-.533 2.481-.584-2.085-.178-3.712.076-4.951.555-1.413.546-2.327 1.386-2.84 2.221-.514.837-.623 1.665-.435 2.183.095.26.26.434.475.502z" fill="#000"/><path d="M29.328 7.559c9.846-2.843 11.524 5.231 8.497 4.116-1.98-.73-2.864-5.2-8.497-4.116z" fill="#000"/><path fill-rule="evenodd" clip-rule="evenodd" d="M35.252 7.111c-1.512-.344-3.478-.313-5.95.4l.044.098c1.397-.27 2.493-.193 3.384.08.891.275 1.583.748 2.165 1.28.439.402.812.834 1.162 1.24.116.134.23.265.342.391.447.503.883.932 1.397 1.121.392.145.723.145.973.024.247-.119.397-.348.456-.633.117-.57-.123-1.4-.765-2.17-.644-.77-1.695-1.487-3.208-1.831zm3.443 4.548c-.2.096-.478.105-.843-.03-.475-.175-.892-.578-1.343-1.085a34.19 34.19 0 0 1-.337-.386c-.351-.407-.73-.846-1.175-1.253-.59-.54-1.3-1.027-2.22-1.31-.71-.218-1.544-.313-2.54-.22 2.038-.477 3.685-.46 4.98-.166 1.477.336 2.502 1.035 3.13 1.787.63.754.857 1.557.745 2.098-.056.27-.194.467-.397.565z" fill="#000"/><path d="M8.77 27.392a2.51 2.51 0 0 0 2.508 2.512 2.51 2.51 0 0 0 2.507-2.512 2.51 2.51 0 0 0-2.507-2.511 2.51 2.51 0 0 0-2.507 2.511z" fill="#000"/><path fill-rule="evenodd" clip-rule="evenodd" d="M11.278 28.46a1.08 1.08 0 0 1-1.093-1.068 1.08 1.08 0 0 1 1.093-1.067 1.08 1.08 0 0 1 1.093 1.067 1.08 1.08 0 0 1-1.093 1.068zm0 1.444a2.51 2.51 0 0 1-2.507-2.512 2.51 2.51 0 0 1 2.507-2.511 2.51 2.51 0 0 1 2.507 2.511 2.51 2.51 0 0 1-2.507 2.512z" fill="#000"/><path d="M11.278 24.462c0 1.157.936 2.094 2.09 2.094s2.09-.938 2.09-2.094a2.091 2.091 0 0 0-2.09-2.093c-1.154 0-2.09.937-2.09 2.093z" fill="#fff"/><path d="M22.98 26.974a3.764 3.764 0 0 0 3.76 3.767 3.764 3.764 0 0 0 3.762-3.767 3.764 3.764 0 0 0-3.761-3.768 3.764 3.764 0 0 0-3.761 3.768z" fill="#000"/><path fill-rule="evenodd" clip-rule="evenodd" d="M26.74 28.922a1.963 1.963 0 0 1-1.976-1.948c0-1.047.856-1.949 1.977-1.949 1.12 0 1.976.902 1.976 1.949a1.963 1.963 0 0 1-1.976 1.948zm0 1.82a3.764 3.764 0 0 1-3.76-3.768 3.764 3.764 0 0 1 3.76-3.768 3.764 3.764 0 0 1 3.762 3.768 3.764 3.764 0 0 1-3.761 3.767z" fill="#000"/><path d="M26.322 23.207c0 1.387 1.31 2.511 2.925 2.511 1.616 0 2.926-1.124 2.926-2.511s-1.31-2.512-2.926-2.512c-1.615 0-2.925 1.125-2.925 2.512z" fill="#fff"/><path d="M20.57 43.915c3.455 5.16 7.521 4.56 8.224-.724.349-1.343-2.05-2.176-2.05-2.176s-3.395-.808-5.092.622c-1.31 1.103-1.276 1.719-1.081 2.278z" fill="#000"/><path fill-rule="evenodd" clip-rule="evenodd" d="M24.834 40.79c-1.05-.023-2.323.129-3.177.845-.648.544-.973.974-1.107 1.344-.136.375-.076.68.023.962l.003.007.004.007c1.708 2.539 3.58 3.68 5.125 3.514 1.553-.166 2.74-1.645 3.088-4.249.09-.35 0-.665-.18-.937-.18-.271-.45-.502-.727-.689a5.37 5.37 0 0 0-1.05-.541l-.075-.03a1.541 1.541 0 0 0-.02-.006l-.005-.002h-.002l-.018.057.012-.06h-.002l-.008-.002-.029-.006a9.29 9.29 0 0 0-.515-.094 10.429 10.429 0 0 0-1.34-.12zm1.882.282l.012-.06.003.001.003.001-.018.058zm-.015.059l.003.001.02.007a4.336 4.336 0 0 1 .333.137c.215.097.497.239.767.421.271.183.528.403.695.656.166.251.242.531.162.839l-.001.004v.004c-.345 2.58-1.51 3.99-2.986 4.148-1.483.159-3.317-.936-5.015-3.457-.092-.265-.142-.535-.021-.868.123-.34.428-.754 1.071-1.293.82-.688 2.058-.841 3.102-.818a10.302 10.302 0 0 1 1.863.217l.007.002z" fill="#000"/><path d="M22.184 44.007c1.718 2.937 4.6 2.052 4.95-.956.173-.764-.67-.566-.67-.566s-2.737 1.012-3.552.814c-.815-.198-.825.39-.728.708z" fill="#BA2229"/><path d="M22.184 44.007c1.718 2.937 4.6 2.052 4.95-.956.173-.764-.67-.566-.67-.566s-2.737 1.012-3.552.814c-.815-.198-.825.39-.728.708z" fill="url(#paint3_linear)"/><path d="M38.37 24.847c.405 4.563 3.562 8.012 7.052 7.701 3.49-.31 5.992-4.26 5.588-8.824-.404-4.564-3.561-8.011-7.051-7.701-3.49.31-5.992 4.26-5.588 8.824z" fill="#626262"/><path d="M40.192 24.316c.377 4.258 3.224 7.484 6.358 7.206 3.135-.279 5.37-3.957 4.993-8.215-.376-4.258-3.224-7.485-6.358-7.206-3.135.279-5.37 3.956-4.993 8.215z" fill="#131313"/><path d="M40.616 24.278c.377 4.258 3.13 7.493 6.147 7.225 3.018-.268 5.158-3.938 4.781-8.196-.377-4.258-3.129-7.493-6.147-7.225-3.017.268-5.158 3.938-4.78 8.196z" fill="#2C2C2C"/><path d="M43.376 24.033c.186 2.107 1.548 3.708 3.04 3.575 1.494-.132 2.553-1.948 2.367-4.055-.187-2.108-1.549-3.709-3.041-3.576-1.494.133-2.553 1.949-2.366 4.056z" fill="#0D0D0D"/><path d="M43.283 23.966c.183 2.073 1.43 3.656 2.783 3.536 1.354-.12 2.303-1.899 2.12-3.971-.184-2.073-1.43-3.656-2.785-3.536-1.353.12-2.302 1.898-2.118 3.971z" fill="#555"/><path d="M46.23 9.958c.198 3.295 1.275 8.914 1.789 11.312.123.464-.061 1.647-1.788 2.668-1.727 1.02-3.433-5.627-3.7-8.933C42 12.23 41.427 7.76 37.166 5.202c-5.95-3.574-15.046.058-17.328 1.16-1.825.882-2.98 3.732-3.33 5.046-.74.987-2.145 2.564-1.85.987.296-1.578 1.604-3.751 2.22-4.64 4.07-3.423 4.933-4.757 14.615-6.787 9.68-2.03 14.491 4.872 14.738 8.99z" fill="#A2A2A2"/><path d="M46.23 9.957c.198 3.294 1.275 8.912 1.789 11.309.123.464-.061 1.647-1.788 2.668-1.727 1.02-2.693-5.336-2.96-8.642-.532-2.774-1.906-8.17-6.167-10.729C31.154.99 22.12 5.26 19.838 6.361c-1.825.882-2.98 3.731-3.33 5.046-.74.986-2.145 2.563-1.85.986.296-1.578 1.604-3.75 2.22-4.64 4.07-3.422 4.933-4.756 14.615-6.785 9.68-2.03 14.491 4.871 14.738 8.989z" fill="#444"/><path d="M46.239 9.957c.196 3.294 1.268 8.912 1.78 11.309.123.464-.062 1.647-1.78 2.668-1.72 1.02-2.681-5.336-2.947-8.642 0-3.17-1.326-9.952-6.63-11.715-6.63-2.204-14.425 1.682-16.697 2.784-1.817.882-2.967 3.731-3.315 5.046-.25 2.553-2.727 3.98-1.841.986.456-1.543 1.596-3.75 2.21-4.64C21.07 4.33 21.929 2.997 31.567.968c9.638-2.03 14.426 4.871 14.672 8.989z" fill="#131313"/><path d="M44.532 20.954c.082.919.634 1.62 1.234 1.567.6-.053 1.02-.841.94-1.76-.082-.919-.635-1.62-1.234-1.567-.6.054-1.02.841-.94 1.76z" fill="#555"/><path d="M44.979 20.914c.048.543.375.959.73.927.354-.031.604-.498.555-1.041-.048-.544-.375-.959-.73-.928-.355.032-.604.498-.555 1.042z" fill="#2C2C2C"/><defs><linearGradient id="paint0_linear" x1="25.352" y1="60.042" x2="25.352" y2="65.799" gradientUnits="userSpaceOnUse"><stop/><stop offset="1"/></linearGradient><linearGradient id="paint1_linear" x1="27.191" y1="67.174" x2="27.191" y2="71.003" gradientUnits="userSpaceOnUse"><stop/><stop offset="1"/></linearGradient><linearGradient id="paint2_linear" x1="25.068" y1="53.345" x2="25.068" y2="57.532" gradientUnits="userSpaceOnUse"><stop/><stop offset="1"/></linearGradient><linearGradient id="paint3_linear" x1="24.268" y1="43.132" x2="25.067" y2="45.733" gradientUnits="userSpaceOnUse"><stop/><stop offset="1" stop-opacity="0"/></linearGradient></defs></svg>