<svg width="16" height="19" fill="none" xmlns="http://www.w3.org/2000/svg"><path fill-rule="evenodd" clip-rule="evenodd" d="M1.46 8.498C.689 8.46.035 9.1 0 9.928c-.033.828.509 1.572 1.28 1.608l5.12.679s-1.067 1.883-1.067 4.674c0 1.86 1.259 2.111 2 2.111.582 0 .739-1.191.739-1.191h.001c.132-.764.304-1.431.9-2.66.669-1.377 1.579-1.247 2.641-2.474.188-.216.44-.572.685-1.01a.353.353 0 0 0 .057-.102c.022-.055.048-.092.071-.143.041-.079.081-.158.12-.24.658-.694 1.682-.623 2.118-.623.875 0 1.334-.537 1.334-1.408V2.716c0-.977-.379-1.306-1.334-1.306h-1.333c-.671 0-1.197-.406-2-.704C10.233.304 8.59.002 5.76.002L3.73 0c-.47 0-.847.227-1.12.5-.103.104-.211.255-.257.55a3.025 3.025 0 0 0-.015.263c-.035.844.448 1.15.721 1.245-.007.003-.002.01-.017.01l-.869-.042C1.402 2.49.641 3.076.641 4.073c0 .827.635 1.41 1.403 1.45l-.46-.023C.813 5.464.16 6.105.125 6.933.091 7.76.69 8.46 1.46 8.498z" fill="#F1BD00"/></svg>