<svg width="21" height="20" fill="none" xmlns="http://www.w3.org/2000/svg"><g clip-path="url(#clip0)" fill="#2F80ED"><path d="M2.016 6.987c.265.178 1.066.709 2.402 1.59 1.336.882 2.36 1.56 3.07 2.037a48 48 0 01.498.34 12.808 12.808 0 001.243.787c.238.134.462.235.673.301.211.067.407.1.586.1h.024c.18 0 .375-.033.586-.1a3.67 3.67 0 00.674-.3c.238-.135.441-.256.609-.364.168-.107.379-.249.633-.424s.42-.288.498-.34l5.484-3.627a5.439 5.439 0 001.43-1.373c.383-.536.574-1.097.574-1.685a1.67 1.67 0 00-.557-1.261 1.857 1.857 0 00-1.318-.525H1.875c-.602 0-1.065.193-1.389.58C.162 3.11 0 3.593 0 4.174c0 .469.215.977.645 1.524.43.547.886.976 1.37 1.289z"/><path d="M19.828 8.18c-2.562 1.653-4.508 2.936-5.836 3.851-.445.313-.806.557-1.084.731a6.829 6.829 0 01-1.107.536c-.461.182-.89.273-1.289.273h-.024c-.398 0-.828-.09-1.289-.273-.46-.182-.83-.36-1.107-.536a27.852 27.852 0 01-1.084-.73c-1.055-.737-2.996-2.02-5.824-3.851A6.133 6.133 0 010 7.21v8.861c0 .492.184.912.55 1.262.368.35.81.524 1.325.524h17.25c.516 0 .957-.175 1.324-.524.368-.35.551-.77.551-1.262V7.21a6.39 6.39 0 01-1.172.97z"/></g><defs><clipPath id="clip0"><path fill="#fff" d="M0 0h21v20H0z"/></clipPath></defs></svg>