<svg width="11" height="13" fill="none" xmlns="http://www.w3.org/2000/svg"><path fill-rule="evenodd" clip-rule="evenodd" d="M9.997 7.186c.53.025.979-.413 1.002-.98.023-.566-.35-1.075-.88-1.1L6.6 4.644s.734-1.29.734-3.199C7.333.171 6.467 0 5.958 0c-.4 0-.508.815-.508.815h-.001c-.09.523-.209.98-.62 1.82-.459.942-1.084.853-1.815 1.693a4.358 4.358 0 0 0-.47.691.24.24 0 0 0-.04.07c-.015.037-.033.063-.048.097a5.57 5.57 0 0 0-.083.165c-.452.475-1.156.426-1.456.426-.602 0-.917.367-.917.963v4.402c0 .668.26.894.917.894h.916c.462 0 .823.277 1.375.48.757.276 1.886.483 3.832.483L8.435 13c.323 0 .583-.155.77-.342a.629.629 0 0 0 .178-.377c.005-.03.01-.162.01-.18.024-.577-.308-.786-.496-.851.005-.002.001-.007.012-.007l.597.028c.53.026 1.053-.376 1.053-1.058 0-.565-.436-.964-.965-.992l.317.016c.53.024.979-.414 1.003-.98.023-.567-.388-1.046-.917-1.071z" fill="#F1BD00"/></svg>