<svg width="21" height="20" fill="none" xmlns="http://www.w3.org/2000/svg"><g clip-path="url(#clip0)" fill="#084386"><path d="M2.016 6.987c.265.178 1.066.708 2.402 1.59 1.336.882 2.36 1.56 3.07 2.037a48 48 0 01.498.34c.254.175.465.316.633.424.168.108.371.23.61.363.238.134.462.234.673.301.211.067.407.1.586.1h.024c.18 0 .375-.033.586-.1.21-.067.435-.167.674-.301.238-.134.441-.255.609-.363.168-.107.379-.249.633-.424s.42-.288.498-.34l5.484-3.628a5.439 5.439 0 001.43-1.372c.383-.536.574-1.098.574-1.685 0-.491-.186-.912-.557-1.262a1.857 1.857 0 00-1.318-.524H1.875c-.602 0-1.065.193-1.389.58C.162 3.11 0 3.593 0 4.174c0 .469.215.977.645 1.524.43.546.886.976 1.37 1.289z"/><path d="M19.828 8.18c-2.562 1.652-4.508 2.936-5.836 3.851-.445.313-.806.556-1.084.731a6.82 6.82 0 01-1.107.536c-.461.182-.89.273-1.289.273h-.024c-.398 0-.828-.09-1.289-.273a6.82 6.82 0 01-1.107-.536 27.83 27.83 0 01-1.084-.73c-1.055-.737-2.996-2.021-5.824-3.851A6.134 6.134 0 010 7.21v8.861c0 .491.184.912.55 1.261.368.35.81.525 1.325.525h17.25a1.85 1.85 0 001.324-.525c.368-.35.551-.77.551-1.26V7.21a6.39 6.39 0 01-1.172.97z"/></g><defs><clipPath id="clip0"><path fill="#fff" d="M0 0h21v20H0z"/></clipPath></defs></svg>