<svg width="20" height="20" fill="none" xmlns="http://www.w3.org/2000/svg"><path d="M.465 20a.425.425 0 01-.41-.538l1.3-4.748a9.924 9.924 0 01-1.236-4.8C.12 4.447 4.569 0 10.036 0a9.857 9.857 0 017.014 2.908 9.855 9.855 0 012.902 7.014c-.002 5.466-4.45 9.914-9.917 9.914h-.004a9.928 9.928 0 01-4.588-1.127l-4.87 1.277A.428.428 0 01.464 20z" fill="#084386"/><path d="M.795 19.243l1.3-4.747A9.143 9.143 0 01.87 9.916C.873 4.867 4.984.758 10.034.758a9.104 9.104 0 016.481 2.687 9.104 9.104 0 012.681 6.48c-.002 5.05-4.112 9.16-9.162 9.16h-.004a9.16 9.16 0 01-4.378-1.114L.795 19.242z" fill="#084386"/><path d="M.465 19.574l1.346-4.916A9.472 9.472 0 01.544 9.914C.546 4.682 4.804.426 10.036.426a9.43 9.43 0 016.713 2.782 9.43 9.43 0 012.778 6.713c-.003 5.232-4.26 9.49-9.492 9.49h-.004a9.483 9.483 0 01-4.535-1.156l-5.031 1.32zm5.264-3.037l.288.171a7.878 7.878 0 004.016 1.1h.003c4.347 0 7.886-3.539 7.888-7.887 0-2.108-.819-4.09-2.308-5.58a7.838 7.838 0 00-5.578-2.313c-4.35 0-7.89 3.538-7.891 7.886 0 1.49.416 2.942 1.206 4.197l.187.299-.797 2.91 2.986-.783z" fill="#fff"/><path d="M.465 19.574l1.346-4.916A9.472 9.472 0 01.544 9.914C.546 4.682 4.804.426 10.036.426a9.43 9.43 0 016.713 2.782 9.43 9.43 0 012.778 6.713c-.003 5.232-4.26 9.49-9.492 9.49h-.004a9.483 9.483 0 01-4.535-1.156l-5.031 1.32zm5.264-3.037l.288.171a7.878 7.878 0 004.016 1.1h.003c4.347 0 7.886-3.539 7.888-7.887 0-2.108-.819-4.09-2.308-5.58a7.838 7.838 0 00-5.578-2.313c-4.35 0-7.89 3.538-7.891 7.886 0 1.49.416 2.942 1.206 4.197l.187.299-.797 2.91 2.986-.783z" fill="#084386"/><path fill-rule="evenodd" clip-rule="evenodd" d="M7.663 5.947c-.177-.395-.364-.403-.533-.41-.139-.006-.297-.005-.455-.005a.872.872 0 00-.632.297c-.218.237-.83.81-.83 1.977s.85 2.295.968 2.453c.119.159 1.64 2.63 4.051 3.58 2.004.79 2.411.633 2.846.593.435-.039 1.403-.573 1.6-1.127.198-.554.198-1.028.139-1.128-.06-.098-.217-.158-.455-.276-.237-.119-1.403-.693-1.62-.772-.218-.079-.376-.118-.534.12-.158.236-.612.77-.75.928-.139.159-.277.179-.514.06s-1.001-.369-1.907-1.177c-.705-.629-1.181-1.405-1.32-1.642-.138-.237-.002-.355.104-.484.192-.233.514-.653.593-.811.08-.158.04-.297-.02-.415-.059-.119-.52-1.292-.73-1.76z" fill="#fff"/></svg>