<svg width="21" height="18" fill="none" xmlns="http://www.w3.org/2000/svg"><path d="M.44 6.884C1.555 2.896 4.307 0 6.98 0c.215 0 .43.019.639.056a.426.426 0 0 1 .336.532l-.55 1.97a.43.43 0 0 1-.428.31l-.044-.001c-.992 0-2.804 1.486-3.729 4.79-.036.132-.07.266-.104.405a4.829 4.829 0 0 1 3.395-.32A4.767 4.767 0 0 1 9.8 13.61a4.775 4.775 0 0 1-4.582 3.479 4.75 4.75 0 0 1-1.285-.178c-1.667-.466-2.92-1.85-3.53-3.896-.549-1.847-.535-4.08.038-6.13zM18.006 0c.215 0 .43.019.639.056a.424.424 0 0 1 .336.532l-.551 1.97a.427.427 0 0 1-.427.31l-.044-.001c-.991 0-2.804 1.486-3.729 4.79-.036.132-.071.266-.104.405a4.83 4.83 0 0 1 3.395-.32 4.766 4.766 0 0 1 3.302 5.867 4.775 4.775 0 0 1-4.581 3.48 4.75 4.75 0 0 1-1.285-.178c-1.667-.466-2.92-1.85-3.53-3.896-.55-1.847-.536-4.081.037-6.131C12.58 2.896 15.331 0 18.006 0z" fill="#308CFF"/></svg>