<svg width="35" height="35" fill="none" xmlns="http://www.w3.org/2000/svg"><path d="M17.5 0C7.85 0 0 7.85 0 17.5S7.85 35 17.5 35 35 27.15 35 17.5 27.15 0 17.5 0zm0 31.818c-7.895 0-14.318-6.423-14.318-14.318S9.605 3.182 17.5 3.182 31.818 9.605 31.818 17.5 25.395 31.818 17.5 31.818z" fill="#A6CAF0"/><path d="M17.5 7.424a2.122 2.122 0 1 0 2.121 2.122c0-1.17-.952-2.122-2.121-2.122zm0 7.424a1.59 1.59 0 0 0-1.59 1.591v9.546a1.59 1.59 0 0 0 3.181 0v-9.546a1.59 1.59 0 0 0-1.59-1.59z" fill="#A6CAF0"/></svg>