<svg width="80" height="80" fill="none" xmlns="http://www.w3.org/2000/svg"><path d="M12.304 20.972c4.677-5.07 11.753-7.64 21.03-7.64h3.333v9.397l-2.68.537c-4.566.913-7.743 2.71-9.443 5.346a9.672 9.672 0 0 0-1.46 4.72h10.25a3.333 3.333 0 0 1 3.333 3.334v23.333a6.673 6.673 0 0 1-6.666 6.667H10a3.333 3.333 0 0 1-3.334-3.334V46.666l.01-9.73c-.03-.37-.663-9.137 5.627-15.964zm54.363 45.694h-20a3.333 3.333 0 0 1-3.333-3.334V46.666l.01-9.73c-.03-.37-.663-9.137 5.627-15.964 4.676-5.07 11.753-7.64 21.03-7.64h3.333v9.397l-2.68.537c-4.567.913-7.743 2.71-9.443 5.346a9.673 9.673 0 0 0-1.46 4.72H70a3.333 3.333 0 0 1 3.333 3.334v23.333a6.673 6.673 0 0 1-6.667 6.667z" fill="#EC5271"/></svg>