<svg width="23" height="23" fill="none" xmlns="http://www.w3.org/2000/svg"><path d="M22.21 12.262c.526-.604.79-1.318.79-2.142 0-.747-.274-1.394-.819-1.94-.546-.547-1.193-.82-1.94-.82h-3.982a3.65 3.65 0 0 1 .115-.345 2.38 2.38 0 0 1 .158-.316 11.851 11.851 0 0 0 .54-1.064c.09-.211.18-.499.272-.863a4.48 4.48 0 0 0 .137-1.092c0-.23-.003-.417-.008-.56a6.197 6.197 0 0 0-.071-.648 3.63 3.63 0 0 0-.173-.718 3.347 3.347 0 0 0-.345-.647 2.016 2.016 0 0 0-.575-.582 3.149 3.149 0 0 0-.863-.374A4.277 4.277 0 0 0 14.26 0a.884.884 0 0 0-.647.273 2.496 2.496 0 0 0-.489.719 4.283 4.283 0 0 0-.28.747c-.053.211-.113.504-.18.877-.086.403-.15.693-.194.87a4.6 4.6 0 0 1-.252.697 2.203 2.203 0 0 1-.445.69c-.316.316-.8.891-1.452 1.725-.47.613-.954 1.193-1.452 1.74-.498.546-.863.828-1.093.847a.943.943 0 0 0-.618.295.867.867 0 0 0-.258.625v9.215c0 .249.09.462.273.64a.95.95 0 0 0 .647.28c.335.01 1.092.22 2.27.633.739.248 1.316.438 1.733.567.417.13 1 .268 1.746.417.748.149 1.438.223 2.07.223h1.854c1.275-.02 2.219-.393 2.832-1.121.556-.661.79-1.529.705-2.602.373-.355.632-.805.776-1.351a2.956 2.956 0 0 0 0-1.682c.44-.584.647-1.24.618-1.97.001-.306-.07-.67-.215-1.092zM5.06 9.2H.92a.884.884 0 0 0-.647.273.884.884 0 0 0-.273.647v9.2c0 .25.091.465.273.647a.886.886 0 0 0 .647.273h4.14a.88.88 0 0 0 .647-.273.885.885 0 0 0 .273-.646v-9.2a.884.884 0 0 0-.273-.648.884.884 0 0 0-.647-.273zm-1.653 8.934a.896.896 0 0 1-.647.266.889.889 0 0 1-.654-.266.889.889 0 0 1-.266-.654c0-.249.089-.465.266-.647a.877.877 0 0 1 .654-.273c.25 0 .465.091.647.273a.884.884 0 0 1 .273.647c0 .259-.09.477-.273.654z" fill="#303032"/></svg>