<svg width="23" height="23" fill="none" xmlns="http://www.w3.org/2000/svg"><path d="M.79 9.818A3.162 3.162 0 0 0 0 11.96c0 .747.274 1.394.819 1.94.546.547 1.193.82 1.94.82h3.982c-.038.134-.077.25-.115.345a2.4 2.4 0 0 1-.158.317 11.922 11.922 0 0 0-.54 1.063 5.876 5.876 0 0 0-.272.863 4.48 4.48 0 0 0-.137 1.092c0 .23.003.417.008.56.004.145.029.36.071.648.044.287.101.527.173.718.072.192.187.408.345.647.158.24.35.434.575.582.226.149.513.274.863.374.35.1.745.151 1.186.151.25 0 .465-.091.647-.273.191-.192.355-.431.489-.719a4.28 4.28 0 0 0 .28-.747c.053-.211.113-.504.18-.877.086-.403.15-.692.194-.87.043-.177.127-.41.252-.697a2.21 2.21 0 0 1 .445-.69c.316-.316.8-.891 1.452-1.725.47-.613.954-1.193 1.452-1.74.498-.546.863-.828 1.092-.847a.943.943 0 0 0 .618-.295.867.867 0 0 0 .26-.625V2.76a.86.86 0 0 0-.274-.64.95.95 0 0 0-.647-.28c-.335-.01-1.092-.22-2.27-.633A79.168 79.168 0 0 0 11.176.64c-.417-.13-1-.268-1.746-.417A10.681 10.681 0 0 0 7.36 0H5.507C4.232.02 3.288.393 2.675 1.121c-.556.662-.79 1.529-.705 2.602a2.796 2.796 0 0 0-.776 1.351 2.956 2.956 0 0 0 0 1.682 2.983 2.983 0 0 0-.618 1.97c-.001.306.07.67.215 1.092zm17.15 3.062h4.14c.25 0 .465-.091.647-.273A.884.884 0 0 0 23 11.96v-9.2a.885.885 0 0 0-.273-.647.885.885 0 0 0-.647-.273h-4.14a.885.885 0 0 0-.647.273.885.885 0 0 0-.273.647v9.2c0 .249.091.465.273.647a.884.884 0 0 0 .647.273zm1.653-8.934a.896.896 0 0 1 .647-.266.89.89 0 0 1 .654.266.889.889 0 0 1 .266.654.898.898 0 0 1-.266.647.877.877 0 0 1-.654.273.884.884 0 0 1-.647-.273.883.883 0 0 1-.273-.647c0-.259.09-.477.273-.654z" fill="#303032"/></svg>