<svg width="25" height="25" fill="none" xmlns="http://www.w3.org/2000/svg"><path d="M19.483 24.555a.379.379 0 0 0 .38-.38V18.78C23.177 17.055 25 14.036 25 10.253 25 4.408 19.627 0 12.5 0S0 4.408 0 10.253s5.373 10.252 12.5 10.252c.234 0 .464-.013.694-.025h.015l6.066 4.012a.378.378 0 0 0 .208.063z" fill="#000"/><path d="M6.819 12.121a1.515 1.515 0 1 1 0-3.03 1.515 1.515 0 0 1 0 3.03zm5.612 0a1.515 1.515 0 1 1 0-3.03 1.515 1.515 0 0 1 0 3.03zm5.613 0a1.515 1.515 0 1 1 0-3.03 1.515 1.515 0 0 1 0 3.03z" fill="#F1BD00"/></svg>