<svg width="19" height="30" fill="none" xmlns="http://www.w3.org/2000/svg"><path d="M7.53 21.13c-2.325-.242-4.422-.815-6.218-2.219-.222-.175-.452-.343-.656-.538-.785-.755-.865-1.619-.243-2.51.532-.762 1.425-.966 2.353-.528.18.085.351.19.515.304 3.346 2.3 7.942 2.363 11.3.104.334-.255.69-.463 1.101-.57.802-.206 1.55.089 1.98.79.49.801.485 1.583-.12 2.205-.93.953-2.047 1.643-3.288 2.124-1.173.455-2.458.684-3.73.836.191.209.282.312.402.432 1.727 1.736 3.462 3.464 5.184 5.205.587.593.71 1.329.386 2.019-.353.754-1.143 1.25-1.919 1.197-.49-.034-.874-.279-1.214-.621-1.304-1.312-2.632-2.6-3.909-3.936-.372-.389-.55-.315-.878.022a261.8 261.8 0 0 1-3.985 4.001c-.602.594-1.319.7-2.017.362-.742-.36-1.214-1.117-1.178-1.879.025-.515.279-.908.632-1.261 1.71-1.707 3.414-3.418 5.12-5.128.113-.114.218-.235.382-.41z" fill="#000"/><path d="M8.947 15.185c-4.149-.014-7.551-3.454-7.527-7.61C1.444 3.376 4.848-.011 9.038 0c4.198.011 7.568 3.446 7.547 7.69-.021 4.148-3.447 7.51-7.638 7.495zm3.77-7.6a3.698 3.698 0 0 0-3.71-3.707A3.703 3.703 0 0 0 5.29 7.63a3.698 3.698 0 0 0 3.738 3.68 3.69 3.69 0 0 0 3.69-3.724z" fill="#000"/></svg>