<svg width="16" height="9" fill="none" xmlns="http://www.w3.org/2000/svg"><path d="M15.915 8.128a1.053 1.053 0 0 0-.054-.103c-.278-.493-.808-1.098-1.591-1.815l-.017-.016-.008-.008-.008-.009h-.009a9.881 9.881 0 0 1-.675-.673c-.172-.22-.21-.44-.116-.666.066-.17.316-.528.75-1.075.227-.29.408-.523.54-.698C15.69 1.805 16.106 1 15.978.65l-.05-.082c-.032-.05-.119-.094-.257-.136a1.33 1.33 0 0 0-.534-.02l-2.399.016a.315.315 0 0 0-.166.004l-.109.025-.041.02-.034.025a.369.369 0 0 0-.091.087.565.565 0 0 0-.083.143 13.328 13.328 0 0 1-.892 1.848c-.205.34-.394.634-.566.883a4.25 4.25 0 0 1-.434.55 3.005 3.005 0 0 1-.316.284c-.095.071-.167.101-.217.09a6.195 6.195 0 0 1-.141-.033.55.55 0 0 1-.188-.201.892.892 0 0 1-.096-.32 3.483 3.483 0 0 1-.024-.727c.005-.17.008-.285.008-.345 0-.208.004-.434.012-.678l.021-.579c.006-.142.008-.293.008-.452 0-.158-.01-.283-.029-.373a1.266 1.266 0 0 0-.087-.263.444.444 0 0 0-.17-.197.97.97 0 0 0-.28-.111A5.62 5.62 0 0 0 7.697 0c-1.032-.01-1.696.055-1.99.197a1.12 1.12 0 0 0-.317.247c-.1.12-.114.186-.042.197.333.049.57.167.708.353l.05.098c.04.072.078.198.117.378.039.181.064.38.075.6.028.4.028.742 0 1.026-.028.285-.054.507-.08.666a1.318 1.318 0 0 1-.212.566.142.142 0 0 1-.041.041.632.632 0 0 1-.225.042c-.078 0-.172-.039-.283-.116a1.988 1.988 0 0 1-.346-.316 4.228 4.228 0 0 1-.404-.562 9.771 9.771 0 0 1-.467-.854l-.133-.239a20.383 20.383 0 0 1-.342-.669 12.814 12.814 0 0 1-.383-.85.542.542 0 0 0-.2-.263L3.141.518a.894.894 0 0 0-.325-.123L.533.412C.3.412.142.464.058.568L.025.617A.263.263 0 0 0 0 .748c0 .06.017.135.05.222.333.772.696 1.517 1.087 2.234.392.717.732 1.295 1.02 1.733.29.438.584.851.884 1.24.3.389.498.638.595.747.097.11.174.192.23.247l.208.197c.133.131.329.289.587.472.258.184.544.364.858.542.314.178.679.323 1.095.435a3.84 3.84 0 0 0 1.217.136h.958c.194-.016.341-.077.441-.18l.033-.042a.54.54 0 0 0 .063-.152.823.823 0 0 0 .029-.225 2.67 2.67 0 0 1 .054-.637 1.67 1.67 0 0 1 .142-.427 1.05 1.05 0 0 1 .32-.361.549.549 0 0 1 .067-.029c.133-.044.29-.001.471.127.18.13.35.288.508.477.159.189.349.4.57.636.223.236.417.41.584.526l.166.099c.112.065.256.126.434.18a.947.947 0 0 0 .466.041l2.133-.032c.21 0 .375-.035.491-.103.117-.069.186-.144.209-.226a.627.627 0 0 0 .004-.28 1.014 1.014 0 0 0-.059-.217z" fill="#fff"/></svg>