<svg width="16" height="13" fill="none" xmlns="http://www.w3.org/2000/svg"><path d="M15.745 1.512a6.439 6.439 0 0 1-1.103.364A3.35 3.35 0 0 0 15.55.463c.05-.154-.12-.288-.264-.205a6.452 6.452 0 0 1-1.686.68.453.453 0 0 1-.4-.097A3.497 3.497 0 0 0 10.916 0a3.75 3.75 0 0 0-1.093.165 3.297 3.297 0 0 0-2.252 2.352c-.102.417-.13.834-.082 1.24a.119.119 0 0 1-.031.095.13.13 0 0 1-.108.041A9.11 9.11 0 0 1 1.135.65a.183.183 0 0 0-.296.023 3.307 3.307 0 0 0-.467 1.694c0 .913.376 1.774 1.028 2.402a3.136 3.136 0 0 1-.786-.298c-.12-.065-.267.019-.268.152-.017 1.357.796 2.564 2.014 3.108a3.17 3.17 0 0 1-.655-.053c-.134-.025-.247.1-.205.226.395 1.206 1.458 2.095 2.73 2.297a6.473 6.473 0 0 1-3.564 1.058h-.4a.263.263 0 0 0-.258.194.265.265 0 0 0 .131.295A9.64 9.64 0 0 0 4.897 13c1.462 0 2.83-.284 4.065-.842a8.964 8.964 0 0 0 2.975-2.178A9.504 9.504 0 0 0 13.758 7a9.22 9.22 0 0 0 .62-3.26v-.052c0-.173.08-.336.219-.446.53-.42.992-.915 1.372-1.47.1-.147-.058-.331-.223-.26z" fill="#fff"/></svg>