<svg width="33" height="19" fill="none" xmlns="http://www.w3.org/2000/svg"><path d="M32.825 17.16a2.307 2.307 0 0 0-.112-.218c-.572-1.04-1.666-2.318-3.282-3.832l-.034-.034-.017-.018-.017-.017h-.017c-.733-.705-1.198-1.18-1.392-1.422-.355-.462-.435-.93-.24-1.405.137-.358.652-1.115 1.546-2.27.47-.613.841-1.104 1.116-1.474 1.982-2.66 2.841-4.358 2.578-5.098l-.103-.173c-.069-.104-.246-.2-.532-.286-.287-.087-.653-.101-1.1-.043L26.27.904c-.08-.028-.195-.026-.344.009l-.224.052-.086.044-.068.052a.765.765 0 0 0-.189.182 1.19 1.19 0 0 0-.171.303 28.44 28.44 0 0 1-1.84 3.901 36.939 36.939 0 0 1-1.168 1.864c-.355.526-.652.913-.893 1.162a6.25 6.25 0 0 1-.653.598c-.195.15-.343.214-.446.19a11.97 11.97 0 0 1-.293-.069 1.149 1.149 0 0 1-.386-.425 1.914 1.914 0 0 1-.198-.676 7.524 7.524 0 0 1-.06-.702 14.77 14.77 0 0 1 .009-.832c.012-.359.017-.602.017-.729 0-.439.009-.916.026-1.43.017-.515.03-.922.043-1.222.011-.3.017-.619.017-.954 0-.335-.02-.598-.06-.789-.04-.19-.1-.376-.18-.555a.933.933 0 0 0-.353-.416 1.975 1.975 0 0 0-.575-.234c-.607-.139-1.38-.214-2.32-.226-2.13-.023-3.5.116-4.106.417-.24.127-.459.3-.653.52-.207.254-.235.393-.086.416.687.104 1.174.352 1.46.745l.103.208c.08.15.16.417.24.798.081.381.133.803.155 1.266.058.843.058 1.566 0 2.167-.057.601-.111 1.07-.163 1.404a2.833 2.833 0 0 1-.232.815 3.468 3.468 0 0 1-.206.382.298.298 0 0 1-.086.086 1.277 1.277 0 0 1-.464.087c-.16 0-.355-.08-.584-.243a4.136 4.136 0 0 1-.713-.667c-.246-.284-.524-.68-.833-1.188-.31-.509-.63-1.11-.962-1.803l-.275-.503a43.417 43.417 0 0 1-.705-1.413 27.371 27.371 0 0 1-.79-1.795 1.142 1.142 0 0 0-.412-.555l-.086-.052a1.173 1.173 0 0 0-.275-.147 1.81 1.81 0 0 0-.395-.113L1.1.87C.619.87.292.98.12 1.2l-.068.103A.565.565 0 0 0 0 1.58c0 .127.034.283.103.468a57.453 57.453 0 0 0 2.242 4.716c.808 1.514 1.51 2.734 2.105 3.658a43.165 43.165 0 0 0 1.82 2.618c.619.821 1.028 1.347 1.229 1.578.2.232.358.405.472.52l.43.416c.275.278.678.61 1.211.997.533.388 1.123.77 1.77 1.145s1.4.682 2.26.919a7.738 7.738 0 0 0 2.508.286h1.976c.4-.035.704-.162.91-.381l.069-.087a1.19 1.19 0 0 0 .129-.32c.04-.145.06-.304.06-.478a5.76 5.76 0 0 1 .111-1.343c.086-.399.184-.7.293-.902a2.18 2.18 0 0 1 .369-.51c.137-.14.235-.224.292-.253a1.23 1.23 0 0 1 .137-.06c.275-.093.599-.003.971.269.373.271.722.607 1.049 1.005.326.4.718.847 1.177 1.344.458.497.859.867 1.202 1.11l.344.208c.23.139.527.266.894.381.366.116.686.145.962.087l4.398-.07c.435 0 .773-.072 1.014-.216.24-.144.383-.304.43-.477.045-.173.047-.37.008-.59a2.148 2.148 0 0 0-.121-.459z" fill="#000"/></svg>