<svg width="38" height="30" fill="none" xmlns="http://www.w3.org/2000/svg"><path d="M37.122 3.552a15.755 15.755 0 0 1-4.357 1.195A7.526 7.526 0 0 0 36.092.563a15.104 15.104 0 0 1-4.796 1.832A7.575 7.575 0 0 0 25.772 0c-4.187 0-7.558 3.402-7.558 7.572 0 .6.051 1.176.176 1.726C12.102 8.99 6.54 5.975 2.802 1.38a7.626 7.626 0 0 0-1.035 3.826 7.582 7.582 0 0 0 3.359 6.29 7.463 7.463 0 0 1-3.417-.931v.083c0 3.678 2.621 6.733 6.059 7.437a7.544 7.544 0 0 1-1.983.25c-.484 0-.973-.028-1.432-.13.98 2.998 3.76 5.202 7.067 5.274a15.187 15.187 0 0 1-9.377 3.228c-.62 0-1.215-.028-1.81-.104C3.583 28.765 7.553 30 11.835 30 25.751 30 33.36 18.462 33.36 8.46c0-.335-.012-.658-.028-.978 1.5-1.067 2.762-2.398 3.79-3.93z" fill="#000"/></svg>