<svg width="35" height="30" fill="none" xmlns="http://www.w3.org/2000/svg"><path d="M.731 14.385l7.946 2.963 3.075 9.883a.936.936 0 0 0 1.486.447l4.429-3.608a1.322 1.322 0 0 1 1.61-.045l7.988 5.795c.55.4 1.33.099 1.468-.565l5.851-28.127A.936.936 0 0 0 33.33.064L.723 12.634c-.805.31-.798 1.449.01 1.75zm10.525 1.386l15.529-9.557c.279-.171.566.206.326.428L14.296 18.546c-.45.419-.741.98-.823 1.588l-.437 3.232c-.058.432-.665.475-.784.057l-1.679-5.895a1.562 1.562 0 0 1 .683-1.757z" fill="#000"/></svg>