<svg width="31" height="34" fill="none" xmlns="http://www.w3.org/2000/svg"><g clip-path="url(#clip0)"><path fill="#fff" d="M-1590-3346H330v7863h-1920z"/><path d="M-362.999 32.5H3.476c4.35 0 7.948-3.499 9.635-8.095.341-.93.766-1.844 1.302-2.595.527-.738 1.265-1.461 2.275-1.751 1.704-.49 7.266-2.335 10.687-4.028.326-.161.623-.316.888-.464a26.35 26.35 0 0 0-2.019-.066c-7.209 0-11.082-2.845-13.071-5.94A12.454 12.454 0 0 1 11.28 4.09a8.522 8.522 0 0 1-.032-.527v-.059c0-.002 0-.002 1.5-.002h-1.5V-106a8.5 8.5 0 0 0-8.5-8.5H-363a8.5 8.5 0 0 0-8.5 8.5V24a8.5 8.5 0 0 0 8.5 8.5z" stroke="#F1BD00" stroke-width="3"/></g><defs><clipPath id="clip0"><path fill="#fff" transform="translate(-1590 -3346)" d="M0 0h1920v7863H0z"/></clipPath></defs></svg>