<svg width="24" height="31" fill="none" xmlns="http://www.w3.org/2000/svg"><g clip-path="url(#clip0)"><path fill="#fff" d="M-1572-2220H348v7863h-1920z"/><path d="M-345 1.5H-2.308c2.135 0 3.992.891 5.685 2.378C5.09 5.38 6.565 7.436 7.884 9.609c.57.94 1.432 1.936 2.706 2.26 1.573.402 6.644 1.896 9.864 3.286-.28.007-.585.011-.916.011-6.718 0-10.378 2.348-12.294 4.996a10.077 10.077 0 0 0-1.628 3.535 9.085 9.085 0 0 0-.207 1.19 6.612 6.612 0 0 0-.032.47v.056c0 .001 0 .002 1.5.002h-1.5V115a8.5 8.5 0 0 1-8.5 8.5H-345a8.5 8.5 0 0 1-8.5-8.5V10a8.5 8.5 0 0 1 8.5-8.5z" stroke="#F1BD00" stroke-width="3"/></g><defs><clipPath id="clip0"><path fill="#fff" transform="translate(-1572 -2220)" d="M0 0h1920v7863H0z"/></clipPath></defs></svg>