<svg width="21" height="21" fill="none" xmlns="http://www.w3.org/2000/svg"><path d="M10.5.75C5.124.75.75 5.124.75 10.5s4.374 9.75 9.75 9.75c5.377 0 9.75-4.374 9.75-9.75S15.877.75 10.5.75zm0 18.174c-4.645 0-8.424-3.779-8.424-8.424S5.855 2.076 10.5 2.076s8.424 3.779 8.424 8.424-3.78 8.424-8.424 8.424z" fill="#fff" stroke="#fff" stroke-width=".5"/><path d="M8.685 8.848a1.49 1.49 0 0 0-1.49-1.49 1.49 1.49 0 0 0-1.488 1.49 1.49 1.49 0 0 0 1.489 1.489 1.49 1.49 0 0 0 1.489-1.49zm-1.652 0a.163.163 0 1 1 .163.163.164.164 0 0 1-.163-.163zm6.772-1.489a1.49 1.49 0 0 0-1.49 1.489 1.49 1.49 0 0 0 2.978 0 1.49 1.49 0 0 0-1.488-1.49zm0 1.652a.163.163 0 0 1-.163-.163.163.163 0 1 1 .163.163zm-7.517 5.177h0a5.653 5.653 0 0 1 4.212-1.873c1.61 0 3.145.683 4.211 1.873h0a.663.663 0 0 1-.051.936m-8.372-.936l8.205.75m-8.205-.75a.663.663 0 0 0 .052.936l-.052-.936zm8.372.936s0 0 0 0l-.167-.186m.167.186s0 0 0 0l-.167-.186m.167.186a.661.661 0 0 1-.937-.052m.77-.134a.41.41 0 0 1-.583-.032m-.187.166s0 0 0 0l.187-.166m-.187.166a4.326 4.326 0 0 0-3.223-1.43c-1.235 0-2.41.522-3.223 1.43h0a.663.663 0 0 1-.937.052l7.57-.218m-.187.166s0 0 0 0l.187-.166m-7.435-.551h0z" fill="#fff" stroke="#fff" stroke-width=".5"/></svg>