<svg width="35" height="35" fill="none" xmlns="http://www.w3.org/2000/svg"><path d="M31.47 9.997c.204-.678 0-1.175-.966-1.175h-3.198c-.814 0-1.186.43-1.39.902 0 0-1.626 3.965-3.93 6.537-.744.748-1.084.984-1.49.984-.202 0-.496-.236-.496-.915V9.998c0-.814-.235-1.175-.913-1.175H14.06c-.507 0-.813.376-.813.735 0 .77 1.152.947 1.27 3.117v4.708c0 1.031-.186 1.22-.594 1.22-1.083 0-3.72-3.98-5.285-8.537-.305-.885-.612-1.242-1.429-1.242H4.013c-.914 0-1.096.43-1.096.903 0 .848 1.083 5.048 5.047 10.603 2.643 3.793 6.363 5.85 9.752 5.85 2.031 0 2.282-.457 2.282-1.244v-2.867c0-.913.194-1.097.837-1.097.473 0 1.287.24 3.184 2.066 2.167 2.167 2.526 3.14 3.743 3.14h3.197c.913 0 1.37-.456 1.107-1.358-.288-.896-1.323-2.202-2.697-3.746-.746-.88-1.862-1.829-2.202-2.303-.474-.61-.337-.88 0-1.423.002.001 3.897-5.485 4.302-7.35z" fill="#fff"/></svg>