<svg width="40" height="40" fill="none" xmlns="http://www.w3.org/2000/svg"><path d="M20 20.8c-3.52 0-6.4-2.88-6.4-6.4 0-3.52 2.88-6.4 6.4-6.4 3.52 0 6.4 2.88 6.4 6.4 0 3.52-2.88 6.4-6.4 6.4zm0-9.76a3.38 3.38 0 0 0-3.36 3.36A3.38 3.38 0 0 0 20 17.76a3.38 3.38 0 0 0 3.36-3.36A3.38 3.38 0 0 0 20 11.04z" fill="#fff"/><path d="M26.88 21.44c-.56-.72-1.52-.8-2.24-.32 0 0-1.76 1.28-4.64 1.28s-4.64-1.28-4.64-1.28c-.72-.56-1.68-.4-2.24.32-.56.72-.4 1.68.32 2.24.08.08 1.76 1.36 4.56 1.76l-4.24 4.32c-.64.64-.64 1.68 0 2.24.32.32.72.48 1.12.48.4 0 .8-.16 1.12-.48l4-4.08L24 32c.32.32.72.48 1.12.48.4 0 .8-.16 1.12-.48.64-.64.64-1.6 0-2.24L22 25.44c2.8-.48 4.48-1.76 4.56-1.76.72-.56.88-1.6.32-2.24z" fill="#fff"/></svg>