<svg width="20" height="20" fill="none" xmlns="http://www.w3.org/2000/svg"><g clip-path="url(#clip0)"><path d="M17.07 2.93C13.161-.977 6.831-.977 2.928 2.93c-3.758 3.758-3.9 9.768-.42 13.696l.104.083c-.378.815-1.027 1.82-2.058 2.328-.34.166-.262.673.113.732 1.126.174 2.743-.021 4.252-1.16l.02.016c3.833 2.253 8.846 1.738 12.138-1.554 3.899-3.903 3.899-10.238-.009-14.14zm-3.775 11.348c-.22.224-.453.432-.66.665-.304.34-.687.449-1.119.424-.632-.034-1.218-.246-1.779-.52a9.67 9.67 0 01-3.213-2.514c-.66-.786-1.205-1.642-1.567-2.61-.174-.47-.3-.949-.262-1.456.025-.311.142-.577.37-.798.25-.237.482-.482.728-.723.32-.316.719-.312 1.039 0 .2.195.39.39.586.586.191.191.382.378.57.57.332.336.332.727 0 1.064-.238.24-.475.482-.72.715-.062.062-.07.112-.037.19.158.383.39.724.648 1.04.52.64 1.11 1.21 1.817 1.65.15.096.316.162.473.25.08.045.138.029.2-.038.237-.245.482-.486.723-.727.32-.316.72-.316 1.035 0 .39.386.777.773 1.164 1.164.333.34.333.74.004 1.068zm-3.687-6.46l.125-.889c.86.12 1.642.511 2.257 1.126a3.926 3.926 0 011.106 2.133l-.886.153a3.052 3.052 0 00-.856-1.65 3.038 3.038 0 00-1.746-.873zm4.934 2.37a5.676 5.676 0 00-1.583-3.06 5.658 5.658 0 00-3.234-1.612l.124-.89c1.426.2 2.723.844 3.741 1.867a6.569 6.569 0 011.838 3.54l-.886.155z" fill="#2F80ED"/></g><defs><clipPath id="clip0"><path fill="#fff" d="M0 0h20v20H0z"/></clipPath></defs></svg>