<svg width="12" height="9" fill="none" xmlns="http://www.w3.org/2000/svg"><g opacity=".8"><path d="M3.143 8.268c.653 0 1.222-.44 1.622-1.107.402-.669.646-1.585.646-2.59s-.244-1.92-.646-2.59c-.4-.666-.97-1.106-1.622-1.106-.653 0-1.223.44-1.623 1.107-.4.669-.645 1.584-.645 2.59 0 1.004.244 1.92.645 2.59.4.665.97 1.106 1.623 1.106z" fill="#fff" stroke="#000" stroke-width=".25"/><circle cx="2.429" cy="5.286" r="1.429" fill="#000"/><circle cx="1.357" cy="4.929" r=".357" fill="#fff"/><path d="M8.857 8.268c.653 0 1.223-.44 1.623-1.107.4-.669.645-1.585.645-2.59s-.244-1.92-.645-2.59c-.4-.666-.97-1.106-1.623-1.106s-1.222.44-1.622 1.107c-.402.669-.646 1.584-.646 2.59 0 1.004.244 1.92.646 2.59.4.665.97 1.106 1.622 1.106z" fill="#fff" stroke="#000" stroke-width=".25"/><circle cx="8.143" cy="5.286" r="1.429" fill="#000"/><circle cx="7.071" cy="4.929" r=".357" fill="#fff"/></g></svg>