<svg width="15" height="8" fill="none" xmlns="http://www.w3.org/2000/svg"><path d="M14.888 3.704C14.754 3.553 11.534 0 7.5 0S.246 3.553.112 3.704a.448.448 0 0 0 0 .592C.246 4.447 3.466 8 7.5 8s7.254-3.553 7.388-3.704a.448.448 0 0 0 0-.592zM7.5 7.11C5.804 7.111 4.424 5.715 4.424 4 4.424 2.285 5.804.889 7.5.889c1.696 0 3.076 1.396 3.076 3.111 0 1.715-1.38 3.111-3.076 3.111z" fill="#001732"/><path d="M7.94 3.111c0-.447.219-.84.553-1.082a2.15 2.15 0 0 0-.993-.251c-1.212 0-2.197.997-2.197 2.222S6.288 6.222 7.5 6.222c1.085 0 1.982-.8 2.16-1.847-.885.288-1.72-.39-1.72-1.264z" fill="#001732"/></svg>