<svg width="16" height="12" fill="none" xmlns="http://www.w3.org/2000/svg"><g opacity=".5"><path d="M4 11.125c.89 0 1.674-.6 2.229-1.525.556-.927.896-2.2.896-3.6s-.34-2.673-.896-3.6C5.674 1.475 4.889.875 4 .875c-.89 0-1.674.6-2.229 1.525C1.215 3.327.875 4.6.875 6s.34 2.673.896 3.6c.555.925 1.34 1.525 2.229 1.525z" fill="#fff" stroke="#EAEAEA" stroke-width=".25"/><circle cx="3" cy="7" r="2" fill="#000"/><circle cx="1.5" cy="6.5" r=".5" fill="#fff"/><path d="M12 11.125c.89 0 1.674-.6 2.229-1.525.556-.927.896-2.2.896-3.6s-.34-2.673-.896-3.6C13.674 1.475 12.889.875 12 .875c-.89 0-1.674.6-2.229 1.525-.556.927-.896 2.2-.896 3.6s.34 2.673.896 3.6c.555.925 1.34 1.525 2.229 1.525z" fill="#fff" stroke="#EAEAEA" stroke-width=".25"/><circle cx="11" cy="7" r="2" fill="#000"/><circle cx="9.5" cy="6.5" r=".5" fill="#fff"/></g></svg>