<svg width="148" height="22" viewBox="0 0 148 22" fill="none" xmlns="http://www.w3.org/2000/svg">
<path d="M74.5174 7.52669C74.6068 5.80799 75.223 4.40324 76.186 3.30728V1.84753H74.9062C72.3189 1.84753 70.129 2.83922 68.8558 5.07926H68.7813V2.09388H62.1457V20.2992H68.7827V12.9498C68.7827 9.83032 69.6954 7.45221 73.3782 7.45221C73.7793 7.45508 74.1545 7.47799 74.5174 7.52669ZM124.766 7.46023C125.318 5.85124 126.212 4.41813 127.374 3.26832V1.8461H126.096C123.508 1.8461 121.32 2.83722 120.041 5.0764H119.969V2.09388H113.329V20.2992H119.969V12.9498C119.969 9.83032 120.884 7.45221 124.567 7.45221L124.766 7.46023ZM87.9955 6.77762C86.9717 6.2454 85.5466 5.89049 84.4131 5.89049C83.6517 5.89049 82.3364 6.2073 82.3364 7.13253C82.3364 8.37573 84.4131 8.55189 85.3312 8.7335C88.4249 9.33505 90.7652 10.7558 90.7652 14.1228C90.7652 18.9122 86.2782 20.9059 81.9345 20.9059C79.2702 20.9059 76.6495 20.1597 74.3845 18.8105L76.7916 14.3004C78.1393 15.2267 80.4011 16.1462 82.0428 16.1462C82.8823 16.1462 84.1218 15.7575 84.1218 14.7636C84.1218 13.3439 82.0428 13.2694 79.9608 12.7384C77.8847 12.2061 75.8082 11.2147 75.8082 7.9492C75.8082 3.47686 79.9608 1.49262 84.0542 1.49262C86.1696 1.49262 88.2868 1.81058 90.2157 2.66277L87.9958 6.77762H87.9955ZM147.277 20.2992H140.64V18.274H140.567C139.4 20.0838 137.097 20.899 134.913 20.899C129.365 20.899 125.465 16.3914 125.465 11.1741C125.465 5.9621 129.296 1.48833 134.838 1.48833C136.989 1.48833 139.254 2.26861 140.639 3.86414V2.09388H147.275L147.278 20.2992H147.277ZM132.323 11.2133C132.323 13.5186 133.894 15.2932 136.59 15.2932C139.288 15.2932 140.852 13.5215 140.852 11.2133C140.852 8.97727 139.288 7.09701 136.59 7.09701C133.894 7.09873 132.323 8.97727 132.323 11.2133ZM112.282 12.2806H98.3085C98.3085 14.9045 99.7348 16.3224 102.469 16.3224C103.891 16.3224 104.911 15.8632 105.643 14.6553H112.028C110.97 18.95 106.774 20.9019 102.507 20.9019C96.3105 20.9019 91.6784 17.4926 91.6784 11.2147C91.6784 5.14686 95.9407 1.49262 102.032 1.49262C108.524 1.49262 112.285 5.39751 112.285 11.6049L112.282 12.2809L112.282 12.2806ZM106.117 8.55189C105.787 6.81285 104.146 5.67765 102.361 5.67765C100.425 5.67765 98.827 6.66791 98.4194 8.55189H106.117ZM41.0352 10.8965C41.028 10.741 41.0181 10.5856 41.0054 10.4304V10.425C40.8564 8.73608 40.2984 7.15545 39.3517 5.72778C38.9347 5.09851 38.4496 4.51713 37.9052 3.99419C37.1154 3.23424 36.2011 2.60577 35.1704 2.10878C33.6196 1.36802 31.906 0.9942 30.0776 0.9942C29.8989 0.9942 29.7118 0.996778 29.5236 1.00365C28.2398 1.0618 26.9977 1.30557 25.8301 1.73496C24.6528 2.16034 23.6276 2.72235 22.7892 3.39694C22.6188 3.53243 22.4331 3.69886 22.2341 3.8819L22.0903 4.02255L21.894 4.23108H21.8966L21.8047 4.32189L21.76 4.37058L21.5257 4.61722C21.3568 4.8071 21.1925 5.00089 21.0327 5.19842L21.0313 5.19556L21.0255 5.19012C20.7047 5.58026 20.4082 5.98387 20.1899 6.3468C20.0415 6.58124 19.8979 6.81876 19.7594 7.0592L17.8456 10.9291L17.8482 10.9317L17.748 11.1282L17.5366 11.5562C17.1169 12.4055 16.6672 13.252 16.1645 13.9509C15.0445 15.1792 13.7783 15.7807 12.1502 15.7807C12.0362 15.7807 11.9199 15.775 11.8007 15.7684C10.8199 15.7292 9.97887 15.4977 9.23267 15.056C9.15396 15.0095 9.07659 14.9608 9.00065 14.9099C8.39137 14.5049 7.92417 13.9847 7.5747 13.3359C7.18055 12.6003 7.00581 11.8486 7.03045 11.0523C7.03159 11.0305 7.03302 11.0116 7.03302 10.9939C7.08573 9.72634 7.56926 8.74009 8.54319 7.88819C8.77506 7.68942 9.02388 7.51133 9.28681 7.35596C9.32319 7.33419 9.35986 7.31386 9.39652 7.29495C10.1198 6.90079 10.9434 6.70458 11.8872 6.70458L12.1811 6.7126C13.6807 6.7696 14.8373 7.23823 15.7597 8.15229L18.6529 2.9581C17.9605 2.49491 17.1791 2.09646 16.3177 1.77277C16.2851 1.76074 16.2513 1.74699 16.2175 1.73639C16.1143 1.69973 16.0129 1.66191 15.9072 1.62783C14.9917 1.3219 14.0313 1.1337 13.0427 1.04834C13.0181 1.04404 12.9912 1.04146 12.9668 1.03889C12.815 1.02915 12.6606 1.01024 12.5091 1.00365C12.3443 0.997343 12.1793 0.993714 12.0144 0.992767H11.9207C10.1018 0.999356 8.41171 1.37203 6.86602 2.10992C5.13501 2.94435 3.73169 4.15947 2.69159 5.72492C1.65436 7.29123 1.08805 9.02912 1.00698 10.8942C1.00001 11.0521 0.996385 11.2102 0.996095 11.3683C0.994663 13.9764 1.94568 16.2709 3.83625 18.1969C5.80988 20.2178 8.37647 21.3069 11.4578 21.4355C11.6555 21.4436 11.8508 21.449 12.0456 21.449C13.7889 21.449 15.4019 21.1388 16.8485 20.5186C17.2103 20.3639 17.5612 20.1826 17.9198 19.981C18.1152 19.8684 18.2994 19.7492 18.4821 19.622L18.6176 19.5312L18.8451 19.3754C19.1166 19.1787 19.3767 18.9666 19.6239 18.7401L19.7107 18.6576C19.8576 18.5192 20.0011 18.3773 20.1413 18.2322L20.66 17.6458L20.8577 17.3977L20.9499 17.2625L21.0421 17.1296C21.8127 15.8349 24.3211 11.1228 24.3211 11.1228V11.1133L24.4701 10.826L24.5947 10.6012C24.9645 9.928 25.2315 9.44991 25.5849 8.94748L25.5944 8.93258C26.4194 7.73666 27.8373 6.88447 29.5087 6.74124C32.3125 6.50005 34.7694 8.34192 34.9957 10.8558C35.2205 13.3697 33.1292 15.6031 30.3254 15.8458C29.7416 15.8959 29.1742 15.8566 28.6391 15.7386L28.6256 15.7444C26.5683 15.3161 25.2584 13.8154 24.6124 13.1448L21.9141 18.1061C21.9141 18.1061 22.7528 18.9515 23.3271 19.374C23.9029 19.795 24.6462 20.2098 25.2395 20.4671C26.6792 21.0821 28.2449 21.4504 29.9745 21.4504C30.175 21.4504 30.1346 21.4504 30.3432 21.4424C33.4216 21.3135 36.1658 20.1339 38.1449 18.113C40.0194 16.1938 41.0366 14.0025 41.0461 11.4084V11.331C41.0444 11.1861 41.0408 11.0413 41.0352 10.8965ZM51.3563 20.9142C49.957 20.9142 48.688 20.7515 47.5488 20.4264C46.4096 20.1013 45.4371 19.5879 44.6313 18.8839C43.8226 18.1792 43.1996 17.2826 42.7608 16.1952C42.3219 15.1076 42.1025 13.7965 42.1025 12.2686V2.08987H48.5049V12.1872C48.5049 13.3319 48.7785 14.1609 49.3242 14.6782C49.8716 15.1967 50.5665 15.4556 51.409 15.4556C52.2703 15.4556 52.9693 15.2144 53.5086 14.7309C54.0449 14.2474 54.3156 13.4456 54.3156 12.3187V2.08958H60.718V12.1345C60.718 13.7166 60.4934 15.0615 60.0449 16.168C59.5966 17.276 58.9641 18.1809 58.15 18.885C57.3319 19.5897 56.3474 20.1013 55.1892 20.4278C54.0311 20.7515 52.7539 20.9139 51.3563 20.9139V20.9142Z" fill="#CABCBC"/>
</svg>
