<svg width="184" height="23" viewBox="0 0 184 23" fill="none" xmlns="http://www.w3.org/2000/svg">
<path d="M8.9 13.8L17.4 22.3H13.6L6.6 15.7L2.9 18.8V22.3H0V0H2.8V15.3L13.2 6.7H17.3L8.9 13.8Z" fill="black"/>
<path d="M39.7002 21.6V22.3H36.6002L35.3002 20.2C33.3002 22.1 32.7002 22.3 29.1002 22.3C25.4002 22.3 24.9002 22.2 22.7002 20C20.3002 17.7 20.2002 17.4 20.2002 13.9V6.69995H23.0002V13.9C23.0002 16.3 23.1002 16.6 24.8002 18.3C26.0002 19.5 26.4002 19.6 29.1002 19.6C31.8002 19.6 32.2002 19.5 33.5002 18.3C34.8002 17.1 35.1002 16.7 35.3002 15.4V6.69995H38.0002V19.4L39.7002 21.6Z" fill="black"/>
<path d="M42.5 6.70005H45.3V8.30005C47.3 6.30005 47.3 6.30005 51.2 6.30005C52.7 6.30005 52.7 6.30005 53.2 6.30005V9.10005C52.8 9.10005 52.8 9.10005 51.2 9.10005C48.5 9.10005 48.5 9.10005 47.1 10.4C45.4 12 45.4 12 45.3 13.4V15.7C45.3 15.9 45.3 15.9 45.3 16.1V22.3H42.5V6.70005Z" fill="black"/>
<path d="M73.2001 11.8H70.4001V11.2C70.4001 10.8 70.3001 10.7 68.6001 9.80002C67.5001 9.20002 67.3001 9.10002 66.1001 9.10002H64.3001C64.1001 9.10002 63.9001 9.10002 62.8001 9.10002C61.6001 9.10002 61.4001 9.20002 59.8001 10.2C58.7001 10.9 58.6001 10.9 58.6001 11.5V11.9C58.6001 12.6 59.1001 12.7 64.2001 13.1C72.2001 13.7 73.0001 14 73.0001 16.3V18.5C73.0001 19.3 72.7001 19.5 70.1001 21.2C67.8001 22.7 67.5001 22.8 66.2001 22.8H62.1001C61.1001 22.8 60.8001 22.7 58.4001 21.3C55.9001 19.8 55.6001 19.5 55.6001 17.6V17.2H58.4001V17.6C58.4001 18.1 58.5001 18.2 60.0001 19.1C61.4001 19.9 61.6001 20 62.5001 20H66.0001C66.9001 20 67.1001 19.9 68.7001 18.9C69.9001 18.1 70.1001 18 70.1001 17.6V17C70.1001 16.3 69.6001 16.2 64.1001 15.8C56.4001 15.3 55.7001 15 55.7001 12.6V11C55.7001 9.70002 55.9001 9.40002 58.3001 8.00002C60.7001 6.50002 61.1001 6.40002 62.1001 6.40002H64.1001C64.5001 6.40002 64.8001 6.40002 66.3001 6.40002C67.4001 6.40002 67.7001 6.50002 69.3001 7.50002C72.6001 9.40002 72.9001 9.70002 72.9001 10.9V11.8H73.2001Z" fill="black"/>
<path d="M87.6 12.4H82.9V22.4H80.1V12.4H76V9.6H80.1V6.7C80.1 4.2 80.1 4.2 82 2.3C84.4 0 84.4 0 87.4 0H87.5V2.8H87.4C85.4 2.8 85.4 2.8 84.1 4C82.8 5.3 82.8 5.3 82.8 6.7V9.6H87.5V12.4H87.6Z" fill="black"/>
<path d="M99.2998 9.49998V19.6H105.4V22.4H90.2998V19.6H96.3998V9.49998H90.2998V6.59998H105.4V9.39998H99.2998V9.49998Z" fill="black"/>
<path d="M127 14.7V22.3H124.2V14.7C124.2 12.3 124.1 12 122.4 10.3C121.2 9.10005 120.8 9.00005 118.3 9.00005C115.9 9.00005 115.5 9.10005 114.2 10.3C112.9 11.5 112.6 11.9 112.4 13.2V22.3H109.6V9.60005L108 7.40005V6.70005H111.1L112.2 8.50005C114.3 6.40005 114.8 6.30005 118.3 6.30005C121.8 6.30005 122.3 6.40005 124.5 8.60005C126.8 10.9 127 11.2 127 14.7Z" fill="black"/>
<path d="M149.4 21.7001V22.3H146.2L145 20.4C142.7 22.6 142.2 22.7001 139.2 22.7001C135.5 22.7001 135 22.6 132.8 20.3C130.5 18 130.3 17.6 130.3 14.6C130.3 11.1 130.4 10.8 132.8 8.50005C135 6.30005 135.5 6.20005 139.2 6.20005C142.3 6.20005 142.9 6.30005 144.8 8.20005V2.80005H147.6V19.5L149.4 21.7001ZM143.1 18.6C144.7 17 144.8 16.8 144.8 14.8C144.8 12.3 144.7 12 143 10.5C141.7 9.30005 141.3 9.20005 139.1 9.20005C136.4 9.20005 136 9.30005 134.8 10.5C133.1 12.2 133 12.4 133 14.9C133 16.9 133.1 17.1 134.8 18.8C136.1 20.1 136.5 20.2001 139.1 20.2001C141.4 20 141.8 19.9 143.1 18.6Z" fill="black"/>
<path d="M156.8 18.6C158.1 19.9 158.5 20 160.9 20C163.3 20 163.7 20.2 165 18.9C165.8 18.1 166.2 17.6 166.5 17.2H169.5C169.3 18.5 168.7 19.1 167.1 20.7C164.8 22.9 164.3 22.8 160.9 22.8C157.5 22.8 157 22.7 154.7 20.4C152.4 18.1 152.2 17.7 152.2 14.7C152.2 11.2 152.3 10.9 154.7 8.60005C156.9 6.40005 157.4 6.30005 160.8 6.30005C164.3 6.30005 164.8 6.40005 166.9 8.60005C169.3 10.9 169.4 11.3 169.4 14.7V15.7H155C155.1 16.9 155.4 17.3 156.8 18.6ZM156.8 10.4C155.7 11.5 155.3 12 155.1 12.9H166.7C166.6 11.9 166.1 11.5 165 10.4C163.7 9.20005 163.4 9.10005 160.9 9.10005C158.4 9.10005 158 9.20005 156.8 10.4Z" fill="black"/>
<path d="M172.9 6.70005H175.7V8.30005C177.7 6.30005 177.7 6.30005 181.6 6.30005C183.1 6.30005 183.1 6.30005 183.6 6.30005V9.10005C183.2 9.10005 183.2 9.10005 181.6 9.10005C178.9 9.10005 178.9 9.10005 177.5 10.4C175.8 12 175.8 12 175.7 13.4V15.7C175.7 15.9 175.7 15.9 175.7 16.1V22.3H172.9V6.70005Z" fill="black"/>
</svg>
