<svg width="124" height="162" viewBox="0 0 124 162" fill="none" xmlns="http://www.w3.org/2000/svg">
<path d="M65.2359 0H58.7607V8.90332H65.2359V0Z" fill="#151515"/>
<path d="M49.0717 1.26912L42.8174 2.94489L45.1216 11.5446L51.3759 9.86883L49.0717 1.26912Z" fill="#151515"/>
<path d="M33.793 6.77964L28.1855 10.0172L32.6372 17.7275L38.2447 14.4899L33.793 6.77964Z" fill="#151515"/>
<path d="M20.4679 15.8401L15.8887 20.418L22.1833 26.7145L26.7625 22.1365L20.4679 15.8401Z" fill="#151515"/>
<path d="M9.93255 28.2672L6.69434 33.8747L14.4046 38.3272L17.6428 32.7198L9.93255 28.2672Z" fill="#151515"/>
<path d="M3.01756 42.8328L1.3418 49.0871L9.94151 51.3913L11.6173 45.1369L3.01756 42.8328Z" fill="#151515"/>
<path d="M8.90332 58.762H0V65.2371H8.90332V58.762Z" fill="#151515"/>
<path d="M9.83799 72.6212L1.23828 74.9245L2.9134 81.1788L11.5131 78.8755L9.83799 72.6212Z" fill="#151515"/>
<path d="M14.4368 85.7662L6.72656 90.2178L9.96413 95.8253L17.6744 91.3736L14.4368 85.7662Z" fill="#151515"/>
<path d="M109.7 85.8952L106.462 91.5027L114.172 95.9552L117.41 90.3478L109.7 85.8952Z" fill="#151515"/>
<path d="M114.23 72.6722L112.554 78.9266L121.153 81.2316L122.83 74.9773L114.23 72.6722Z" fill="#151515"/>
<path d="M124 58.762H115.097V65.2371H124V58.762Z" fill="#151515"/>
<path d="M121.054 42.8454L112.454 45.1496L114.13 51.4039L122.73 49.0998L121.054 42.8454Z" fill="#151515"/>
<path d="M114.132 28.1605L106.422 32.6121L109.659 38.2196L117.37 33.7679L114.132 28.1605Z" fill="#151515"/>
<path d="M103.607 15.9622L97.3115 22.2577L101.89 26.8363L108.186 20.5407L103.607 15.9622Z" fill="#151515"/>
<path d="M90.2488 6.64378L85.7998 14.3558L91.4086 17.5915L95.8576 9.87941L90.2488 6.64378Z" fill="#151515"/>
<path d="M75.0239 1.29103L72.7197 9.89075L78.9741 11.5665L81.2782 2.9668L75.0239 1.29103Z" fill="#151515"/>
<path d="M101.961 97.0839L97.3818 101.662L103.676 107.958L108.256 103.38L101.961 97.0839Z" fill="#151515"/>
<path d="M22.1373 97.0701L15.8418 103.366L20.4204 107.944L26.7159 101.649L22.1373 97.0701Z" fill="#151515"/>
<path d="M41.6035 57.9524V55.2005L63.4571 24.4436L82.5588 55.2005V57.9524" fill="#F8F1F1"/>
<path d="M85.7947 57.9524H79.3195V56.1718L63.2935 30.2712L44.8394 56.3336V57.9524H38.3643V54.2292L63.6173 18.616L85.7947 54.2292V57.9524Z" fill="#151515"/>
<path d="M82.7202 58.1145H41.2793V138.406H82.7202V58.1145Z" fill="#F8F1F1"/>
<path d="M79.644 61.352V135.169H44.6783V61.352H79.644ZM86.1192 54.8769H38.2031V141.644H86.1192V54.8769Z" fill="#151515"/>
<path d="M58.2769 60.2189H51.8018V139.377H58.2769V60.2189Z" fill="#151515"/>
<path d="M71.7115 60.2189H65.2363V139.377H71.7115V60.2189Z" fill="#151515"/>
<path d="M70.094 30.2714H57.9531V36.7465H70.094V30.2714Z" fill="#151515"/>
<path d="M38.041 148.281V157.831C38.041 159.612 39.4979 161.069 41.2786 161.069H82.8814C84.662 161.069 86.1189 159.612 86.1189 157.831V148.281H38.041Z" fill="#D03D29"/>
</svg>
