<svg width="237" height="33" viewBox="0 0 237 33" fill="none" xmlns="http://www.w3.org/2000/svg">
<path d="M61.9 16.8L70.4 25.3H66.6L59.6 18.7L55.9 21.8V25.3H53V3H55.8V18.3L66.2 9.7H70.3L61.9 16.8Z" fill="black"/>
<path d="M92.7 24.6V25.3H89.5999L88.2999 23.2C86.2999 25.1 85.7 25.3 82.1 25.3C78.4 25.3 77.9 25.2 75.7 23C73.3 20.7 73.2 20.4 73.2 16.9V9.70001H76V16.9C76 19.3 76.0999 19.6 77.7999 21.3C78.9999 22.5 79.4 22.6 82.1 22.6C84.8 22.6 85.2 22.5 86.5 21.3C87.8 20.1 88.0999 19.7 88.2999 18.4V9.70001H91V22.4L92.7 24.6Z" fill="black"/>
<path d="M95.5 9.69999H98.3V11.3C100.3 9.29999 100.3 9.29999 104.2 9.29999C105.7 9.29999 105.7 9.29999 106.2 9.29999V12.1C105.8 12.1 105.8 12.1 104.2 12.1C101.5 12.1 101.5 12.1 100.1 13.4C98.4 15 98.4 15 98.3 16.4V18.7C98.3 18.9 98.3 18.9 98.3 19.1V25.3H95.5V9.69999Z" fill="black"/>
<path d="M126.2 14.8H123.4V14.2C123.4 13.8 123.3 13.7 121.6 12.8C120.5 12.2 120.3 12.1 119.1 12.1H117.3C117.1 12.1 116.9 12.1 115.8 12.1C114.6 12.1 114.4 12.2 112.8 13.2C111.7 13.9 111.6 13.9 111.6 14.5V14.9C111.6 15.6 112.1 15.7 117.2 16.1C125.2 16.7 126 17 126 19.3V21.5C126 22.3 125.7 22.5 123.1 24.2C120.8 25.7 120.5 25.8 119.2 25.8H115.1C114.1 25.8 113.8 25.7 111.4 24.3C108.9 22.8 108.6 22.5 108.6 20.6V20.2H111.4V20.6C111.4 21.1 111.5 21.2 113 22.1C114.4 22.9 114.6 23 115.5 23H119C119.9 23 120.1 22.9 121.7 21.9C122.9 21.1 123.1 21 123.1 20.6V20C123.1 19.3 122.6 19.2 117.1 18.8C109.4 18.3 108.7 18 108.7 15.6V14C108.7 12.7 108.9 12.4 111.3 11C113.7 9.50002 114.1 9.40002 115.1 9.40002H117.1C117.5 9.40002 117.8 9.40002 119.3 9.40002C120.4 9.40002 120.7 9.50002 122.3 10.5C125.6 12.4 125.9 12.7 125.9 13.9V14.8H126.2Z" fill="black"/>
<path d="M140.6 15.4H135.9V25.4H133.1V15.4H129V12.6H133.1V9.7C133.1 7.2 133.1 7.2 135 5.3C137.4 3 137.4 3 140.4 3H140.5V5.8H140.4C138.4 5.8 138.4 5.8 137.1 7C135.8 8.3 135.8 8.3 135.8 9.7V12.6H140.5V15.4H140.6Z" fill="black"/>
<path d="M152.3 12.5V22.6H158.4V25.4H143.3V22.6H149.4V12.5H143.3V9.59998H158.4V12.4H152.3V12.5Z" fill="black"/>
<path d="M180 17.7V25.3H177.2V17.7C177.2 15.3 177.1 15 175.4 13.3C174.2 12.1 173.8 12 171.3 12C168.9 12 168.5 12.1 167.2 13.3C165.9 14.5 165.6 14.9 165.4 16.2V25.3H162.6V12.6L161 10.4V9.69999H164.1L165.2 11.5C167.3 9.39999 167.8 9.29999 171.3 9.29999C174.8 9.29999 175.3 9.39999 177.5 11.6C179.8 13.9 180 14.2 180 17.7Z" fill="black"/>
<path d="M202.4 24.7V25.3H199.2L198 23.4C195.7 25.6 195.2 25.7 192.2 25.7C188.5 25.7 188 25.6 185.8 23.3C183.5 21 183.3 20.6 183.3 17.6C183.3 14.1 183.4 13.8 185.8 11.5C188 9.29999 188.5 9.19999 192.2 9.19999C195.3 9.19999 195.9 9.29999 197.8 11.2V5.79999H200.6V22.5L202.4 24.7ZM196.1 21.6C197.7 20 197.8 19.8 197.8 17.8C197.8 15.3 197.7 15 196 13.5C194.7 12.3 194.3 12.2 192.1 12.2C189.4 12.2 189 12.3 187.8 13.5C186.1 15.2 186 15.4 186 17.9C186 19.9 186.1 20.1 187.8 21.8C189.1 23.1 189.5 23.2 192.1 23.2C194.4 23 194.8 22.9 196.1 21.6Z" fill="black"/>
<path d="M209.8 21.6C211.1 22.9 211.5 23 213.9 23C216.3 23 216.7 23.2 218 21.9C218.8 21.1 219.2 20.6 219.5 20.2H222.5C222.3 21.5 221.7 22.1 220.1 23.7C217.8 25.9 217.3 25.8 213.9 25.8C210.5 25.8 210 25.7 207.7 23.4C205.4 21.1 205.2 20.7 205.2 17.7C205.2 14.2 205.3 13.9 207.7 11.6C209.9 9.39999 210.4 9.29999 213.8 9.29999C217.3 9.29999 217.8 9.39999 219.9 11.6C222.3 13.9 222.4 14.3 222.4 17.7V18.7H208C208.1 19.9 208.4 20.3 209.8 21.6ZM209.8 13.4C208.7 14.5 208.3 15 208.1 15.9H219.7C219.6 14.9 219.1 14.5 218 13.4C216.7 12.2 216.4 12.1 213.9 12.1C211.4 12.1 211 12.2 209.8 13.4Z" fill="black"/>
<path d="M225.9 9.69999H228.7V11.3C230.7 9.29999 230.7 9.29999 234.6 9.29999C236.1 9.29999 236.1 9.29999 236.6 9.29999V12.1C236.2 12.1 236.2 12.1 234.6 12.1C231.9 12.1 231.9 12.1 230.5 13.4C228.8 15 228.8 15 228.7 16.4V18.7C228.7 18.9 228.7 18.9 228.7 19.1V25.3H225.9V9.69999Z" fill="black"/>
<rect width="33" height="33" fill="#141414"/>
<path d="M21.6771 19.9095C22.6612 18.5655 23.2499 16.9147 23.2499 15.125C23.2499 10.645 19.6049 7 15.1249 7C10.645 7 7 10.645 7 15.125C7 19.605 10.645 23.2501 15.125 23.2501C16.9146 23.2501 18.5656 22.6613 19.9096 21.6771L25.2324 27L27 25.2324C27 25.2324 21.6771 19.9095 21.6771 19.9095ZM15.125 20.75C12.0232 20.75 9.50001 18.2269 9.50001 15.125C9.50001 12.0232 12.0232 9.50002 15.125 9.50002C18.2268 9.50002 20.75 12.0232 20.75 15.125C20.75 18.2269 18.2267 20.75 15.125 20.75Z" fill="#F8F1F1"/>
</svg>
