<svg width="218" height="27" viewBox="0 0 218 27" fill="none" xmlns="http://www.w3.org/2000/svg">
<path d="M10.5392 16.3416L20.6046 26.4071H16.1048L7.81555 18.5915L3.43411 22.2625V26.4071H0V0H3.31569V18.1179L15.6311 7.93397H20.4862L10.5392 16.3416Z" fill="white"/>
<path d="M47.0113 25.5782V26.4071H43.3404L41.801 23.9203C39.4326 26.1703 38.7221 26.4071 34.4591 26.4071C30.0776 26.4071 29.4855 26.2887 26.8804 23.6835C24.0383 20.9599 23.9199 20.6047 23.9199 16.46V7.93399H27.2356V16.46C27.2356 19.3021 27.354 19.6573 29.3671 21.6704C30.7881 23.0914 31.2618 23.2098 34.4591 23.2098C37.6563 23.2098 38.13 23.0914 39.6694 21.6704C41.2089 20.2494 41.5641 19.7757 41.801 18.2363V7.93399H44.9982V22.973L47.0113 25.5782Z" fill="white"/>
<path d="M50.3281 7.93397H53.6438V9.82865C56.0122 7.4603 56.0122 7.4603 60.6304 7.4603C62.4067 7.4603 62.4067 7.4603 62.9988 7.4603V10.776C62.5251 10.776 62.5251 10.776 60.6304 10.776C57.4332 10.776 57.4332 10.776 55.7753 12.3154C53.7622 14.2101 53.7622 14.2101 53.6438 15.8679V18.5915C53.6438 18.8284 53.6438 18.8284 53.6438 19.0652V26.4071H50.3281V7.93397Z" fill="white"/>
<path d="M86.6813 13.9733H83.3656V13.2628C83.3656 12.7891 83.2472 12.6707 81.2341 11.6049C79.9315 10.8944 79.6947 10.776 78.2737 10.776H76.1422C75.9053 10.776 75.6685 10.776 74.3659 10.776C72.9449 10.776 72.7081 10.8944 70.8134 12.0786C69.5108 12.9075 69.3924 12.9075 69.3924 13.618V14.0917C69.3924 14.9206 69.9845 15.039 76.0237 15.5127C85.4971 16.2232 86.4445 16.5785 86.4445 19.3021V21.9072C86.4445 22.8546 86.0892 23.0914 83.0104 25.1045C80.2868 26.8808 79.9315 26.9992 78.3921 26.9992H73.537C72.3528 26.9992 71.9976 26.8808 69.1555 25.2229C66.1951 23.4467 65.8398 23.0914 65.8398 20.8415V20.3678H69.1555V20.8415C69.1555 21.4336 69.274 21.552 71.0502 22.6178C72.7081 23.5651 72.9449 23.6835 74.0106 23.6835H78.1553C79.221 23.6835 79.4578 23.5651 81.3525 22.3809C82.7735 21.4336 83.0104 21.3152 83.0104 20.8415V20.131C83.0104 19.3021 82.4183 19.1836 75.9053 18.71C66.7872 18.1179 65.9583 17.7626 65.9583 14.9206V13.0259C65.9583 11.4865 66.1951 11.1313 69.0371 9.47341C71.8791 7.69715 72.3528 7.57874 73.537 7.57874H75.9053C76.379 7.57874 76.7343 7.57874 78.5105 7.57874C79.8131 7.57874 80.1684 7.69715 82.063 8.88133C85.9708 11.1313 86.3261 11.4865 86.3261 12.9075V13.9733H86.6813Z" fill="white"/>
<path d="M103.734 14.6838H98.1689V26.5255H94.8532V14.6838H89.998V11.3681H94.8532V7.93397C94.8532 4.97353 94.8532 4.97353 97.1031 2.7236C99.9451 0 99.9451 0 103.498 0H103.616V3.31569H103.498C101.129 3.31569 101.129 3.31569 99.5899 4.7367C98.0504 6.27612 98.0504 6.27612 98.0504 7.93397V11.3681H103.616V14.6838H103.734Z" fill="white"/>
<path d="M117.589 11.2496V23.2098H124.813V26.5255H106.932V23.2098H114.155V11.2496H106.932V7.81552H124.813V11.1312H117.589V11.2496Z" fill="white"/>
<path d="M150.39 17.4074V26.4071H147.074V17.4074C147.074 14.5653 146.956 14.2101 144.943 12.197C143.522 10.776 143.048 10.6576 140.088 10.6576C137.246 10.6576 136.772 10.776 135.233 12.197C133.693 13.618 133.338 14.0917 133.101 15.6311V26.4071H129.785V11.3681L127.891 8.76289V7.93397H131.562L132.864 10.0655C135.351 7.57871 135.943 7.4603 140.088 7.4603C144.232 7.4603 144.824 7.57871 147.43 10.1839C150.153 12.9075 150.39 13.2628 150.39 17.4074Z" fill="white"/>
<path d="M176.915 25.6966V26.4071H173.125L171.704 24.1571C168.981 26.7623 168.389 26.8807 164.836 26.8807C160.455 26.8807 159.862 26.7623 157.257 24.0387C154.534 21.3151 154.297 20.8415 154.297 17.2889C154.297 13.1443 154.415 12.7891 157.257 10.0655C159.862 7.46028 160.455 7.34187 164.836 7.34187C168.507 7.34187 169.217 7.46028 171.467 9.71022V3.31567H174.783V23.0914L176.915 25.6966ZM169.454 22.0256C171.349 20.131 171.467 19.8941 171.467 17.5258C171.467 14.5653 171.349 14.2101 169.336 12.4338C167.796 11.0128 167.323 10.8944 164.718 10.8944C161.52 10.8944 161.047 11.0128 159.626 12.4338C157.613 14.4469 157.494 14.6837 157.494 17.6442C157.494 20.0125 157.613 20.2494 159.626 22.2625C161.165 23.8019 161.639 23.9203 164.718 23.9203C167.441 23.6835 167.915 23.5651 169.454 22.0256Z" fill="white"/>
<path d="M185.68 22.0256C187.219 23.5651 187.693 23.6835 190.535 23.6835C193.377 23.6835 193.85 23.9203 195.39 22.3809C196.337 21.4336 196.811 20.8415 197.166 20.3678H200.719C200.482 21.9072 199.771 22.6177 197.877 24.5124C195.153 27.1176 194.561 26.9992 190.535 26.9992C186.509 26.9992 185.916 26.8808 183.193 24.1572C180.469 21.4336 180.232 20.9599 180.232 17.4074C180.232 13.2628 180.351 12.9075 183.193 10.1839C185.798 7.57871 186.39 7.4603 190.416 7.4603C194.561 7.4603 195.153 7.57871 197.64 10.1839C200.482 12.9075 200.6 13.3812 200.6 17.4074V18.5915H183.548C183.667 20.0125 184.022 20.4862 185.68 22.0256ZM185.68 12.3154C184.377 13.618 183.903 14.2101 183.667 15.2758H197.403C197.285 14.0917 196.692 13.618 195.39 12.3154C193.85 10.8944 193.495 10.776 190.535 10.776C187.574 10.776 187.101 10.8944 185.68 12.3154Z" fill="white"/>
<path d="M204.744 7.93397H208.06V9.82865C210.428 7.4603 210.428 7.4603 215.046 7.4603C216.823 7.4603 216.823 7.4603 217.415 7.4603V10.776C216.941 10.776 216.941 10.776 215.046 10.776C211.849 10.776 211.849 10.776 210.191 12.3154C208.178 14.2101 208.178 14.2101 208.06 15.8679V18.5915C208.06 18.8284 208.06 18.8284 208.06 19.0652V26.4071H204.744V7.93397Z" fill="white"/>
</svg>
