<svg width="160" height="35" viewBox="0 0 160 35" fill="none" xmlns="http://www.w3.org/2000/svg">
<path d="M16.1046 21.7978C15.5913 21.4011 15.1479 21.4478 14.7045 21.9611C14.1678 22.5678 13.5845 23.1279 12.9778 23.6879C12.0444 24.5513 11.2977 25.298 11.671 26.8848C12.0677 28.5415 10.8776 30.0816 9.29086 30.7117C7.72743 31.3417 5.93065 30.875 4.85725 29.6149C3.78385 28.3315 3.64384 26.4881 4.50723 25.0647C5.39395 23.6412 7.12072 22.8712 8.73083 23.3612C9.50087 23.5946 9.94423 23.4079 10.4343 22.8712C11.2977 21.9378 12.231 21.0511 13.1411 20.1643C13.5145 19.791 13.7478 19.4643 13.3278 18.9743C13.3278 18.1809 13.3278 17.3875 13.3278 16.6175C13.4211 16.3608 13.5145 16.0808 13.6311 15.8241C14.0978 15.194 14.6345 14.634 15.2412 14.144C15.5213 14.0273 15.8013 13.9106 16.0813 13.7706C16.8513 13.5839 17.6447 13.5839 18.4381 13.6306C18.7415 13.7473 19.0448 13.864 19.3482 14.004C20.0715 14.3773 20.6316 14.9374 21.1216 15.5674C21.2616 15.9174 21.425 16.2441 21.565 16.5941C21.7516 17.3875 21.7516 18.1809 21.565 18.9743C21.4016 19.3243 21.2383 19.6977 21.0749 20.0477C20.6316 20.6544 20.0482 21.1444 19.4182 21.5644C19.0915 21.6811 18.7881 21.7744 18.4614 21.8911C17.6681 22.0545 16.8747 21.9145 16.1046 21.7978Z" fill="#CABCBC"/>
<path d="M138.146 19.721C140.036 17.2708 141.692 15.1007 143.349 12.9305C143.606 12.6039 143.769 12.2072 144.283 12.1372C145.986 11.8571 146.289 12.0672 146.289 13.7939C146.289 16.1741 146.289 18.5309 146.289 20.911C146.289 21.3777 146.219 21.7978 146.966 21.8211C147.736 21.8444 147.293 22.5445 147.363 22.9178C147.456 23.3845 147.153 23.5012 146.733 23.4779C145.613 23.4545 144.469 23.4545 143.349 23.4779C142.976 23.4779 142.579 23.4545 142.696 22.9412C142.766 22.5445 142.346 21.8444 143.092 21.8211C143.816 21.7744 143.769 21.4011 143.769 20.911C143.769 19.1609 143.769 17.4108 143.769 15.6607C143.326 15.5907 143.279 15.9874 143.116 16.1974C141.412 18.3676 139.709 20.5377 138.076 22.7545C137.609 23.3845 137.119 23.5245 136.395 23.5012C135.765 23.5012 135.625 23.2912 135.625 22.6845C135.649 20.071 135.649 17.4808 135.649 14.8673C135.649 14.354 135.835 13.8173 134.925 13.7939C134.249 13.7706 134.645 13.0472 134.575 12.6505C134.505 12.2305 134.785 12.1372 135.135 12.1372C136.302 12.1372 137.469 12.1605 138.636 12.1372C139.079 12.1372 139.336 12.2772 139.242 12.7439C139.172 13.1406 139.592 13.7706 138.799 13.8406C138.379 13.8639 138.169 13.9339 138.169 14.424C138.169 16.0574 138.146 17.7142 138.146 19.721Z" fill="#CABCBC"/>
<path d="M51.9935 18.5543C51.9468 18.5543 51.9235 18.5543 51.8768 18.5543C49.31 18.5543 49.3333 18.5543 49.4733 21.0977C49.4967 21.5411 49.5433 21.7978 50.1034 21.8211C50.8967 21.8445 50.4767 22.5212 50.5467 22.8945C50.6634 23.4546 50.29 23.5012 49.8467 23.5012C48.7966 23.4779 47.7465 23.5012 46.6965 23.5012C46.3465 23.5012 45.8098 23.6646 45.8798 23.0112C45.9264 22.5678 45.4831 21.7978 46.4631 21.8211C46.8832 21.8211 46.9765 21.6111 46.9765 21.2378C46.9765 18.9743 46.9765 16.7341 46.9765 14.4707C46.9765 14.214 47.0465 13.8406 46.6498 13.864C45.5297 13.934 45.8798 13.0939 45.9031 12.5805C45.9498 11.8105 46.6265 12.1605 46.9998 12.1605C49.4967 12.1138 49.4967 12.1372 49.4967 14.5873C49.4967 16.7575 49.4967 16.7575 51.6901 16.7575C52.0868 16.7575 52.4602 16.7575 52.8569 16.7575C54.7937 16.7575 55.1903 16.2208 54.7703 14.284C54.7236 14.0273 54.6536 13.8406 54.3503 13.8406C53.2769 13.8406 53.7903 13.0239 53.7436 12.5572C53.6969 11.9038 54.2803 12.1605 54.607 12.1372C55.5404 12.1138 56.4738 12.0905 57.4072 12.1372C57.7572 12.1605 58.3872 11.8338 58.3639 12.5805C58.3405 13.0472 58.7839 13.864 57.7105 13.8406C57.2438 13.8406 57.2671 14.1673 57.2671 14.4707C57.2671 16.6875 57.2671 18.9043 57.2671 21.1211C57.2671 21.4478 57.2438 21.7745 57.7105 21.7745C58.7606 21.7511 58.3405 22.5445 58.3639 23.0345C58.3872 23.7812 57.7572 23.4779 57.4072 23.4779C54.7703 23.5479 54.7703 23.5246 54.7703 20.9577C54.7703 18.5309 54.7703 18.5309 52.3668 18.5309C52.2268 18.5543 52.1102 18.5543 51.9935 18.5543Z" fill="#CABCBC"/>
<path d="M71.852 20.421C70.6853 22.5678 68.9585 23.5479 66.7417 23.7579C63.2648 24.1079 60.278 21.5411 60.068 18.0876C59.858 14.6573 62.4715 11.8572 65.9483 11.7405C69.5886 11.6238 72.3654 14.1673 72.3887 17.6209C72.3887 18.3909 72.1554 18.6009 71.4087 18.6009C68.7252 18.5543 66.0417 18.6009 63.3582 18.5776C62.3781 18.5543 62.3314 18.9043 62.7048 19.6743C63.7549 21.8211 66.5784 22.6378 68.4452 21.1211C69.5186 20.2344 70.5453 20.3977 71.852 20.421ZM66.205 16.8041C67.3018 16.8041 68.3752 16.7808 69.4719 16.8041C70.0553 16.8041 70.1019 16.6175 69.9153 16.1041C69.3786 14.704 67.8618 13.6306 66.275 13.6306C64.6883 13.6306 63.1715 14.634 62.6115 16.0341C62.4014 16.5475 62.4014 16.8275 63.0782 16.8041C64.1049 16.7808 65.155 16.8041 66.205 16.8041Z" fill="#CABCBC"/>
<path d="M156.09 21.4945C156.09 21.3311 156.137 21.1678 156.09 21.0278C155.904 20.5144 156.58 19.6277 155.647 19.4877C154.714 19.3477 153.594 19.091 153.173 20.4677C153.01 21.0044 152.66 21.4945 152.403 22.0312C151.913 23.0579 151.26 23.7813 149.977 23.4779C149.58 23.3846 148.95 23.7579 148.997 22.9179C149.02 22.3812 148.763 21.6811 149.767 21.7511C150.047 21.7745 151.517 19.3943 151.47 19.1143C151.423 18.8343 151.167 18.811 150.957 18.7176C149.487 17.9709 148.973 16.7108 149.183 15.1241C149.393 13.584 150.373 12.7206 151.82 12.3939C154.27 11.8572 156.767 12.2305 159.241 12.1372C159.731 12.1139 159.707 12.5106 159.637 12.7906C159.544 13.2106 160.011 13.934 159.194 14.004C158.564 14.0507 158.564 14.4007 158.564 14.844C158.564 16.8975 158.564 18.951 158.564 21.0044C158.564 21.2844 158.424 21.7278 158.891 21.7278C159.987 21.7278 159.637 22.5212 159.614 23.0346C159.567 23.8046 158.891 23.3379 158.517 23.4546C158.377 23.5012 158.214 23.4546 158.05 23.4546C156.067 23.5012 156.067 23.5012 156.09 21.4945ZM156.09 15.8708C156.09 15.4507 156.09 15.0307 156.09 14.5874C156.09 14.284 156.044 14.0273 155.67 14.0273C154.667 14.0507 153.664 13.8873 152.683 14.214C152.007 14.4473 151.563 14.914 151.517 15.6374C151.447 16.4308 151.75 17.0842 152.45 17.4809C152.963 17.7842 153.547 17.7842 154.13 17.7842C156.09 17.8309 156.09 17.8309 156.09 15.8708Z" fill="#CABCBC"/>
<path d="M108.837 17.0142C108.837 18.1343 108.814 19.2777 108.837 20.3977C108.86 21.0044 108.51 21.7978 109.701 21.8678C110.144 21.8912 109.864 22.6145 109.911 23.0112C109.981 23.4779 109.631 23.4779 109.304 23.4779C108.207 23.4779 107.134 23.4779 106.037 23.4779C105.687 23.4779 105.15 23.6179 105.244 22.9646C105.314 22.5212 104.824 21.7745 105.827 21.7745C106.294 21.7745 106.294 21.4711 106.294 21.1444C106.294 18.9976 106.27 16.8742 106.294 14.7274C106.294 14.144 106.06 14.0273 105.547 14.004C103.283 13.8873 103.307 13.8873 103.143 16.1741C103.027 17.8309 102.84 19.511 102.21 21.0744C101.58 22.6379 100.413 23.4779 98.7332 23.5246C98.3598 23.5479 97.8231 23.6413 97.9164 23.0346C98.0098 22.5212 97.4031 21.6811 98.4065 21.5178C99.8066 21.2844 100.343 20.3277 100.6 19.1376C100.927 17.6442 100.927 16.1275 101.043 14.6107C101.067 14.354 101.137 14.004 100.717 14.004C99.5032 14.004 100.04 13.0706 100.04 12.5572C100.017 11.7872 100.717 12.1139 101.113 12.1139C103.33 12.0905 105.547 12.1605 107.764 12.0672C108.744 12.0205 108.93 12.3706 108.884 13.2339C108.79 14.5407 108.837 15.7774 108.837 17.0142Z" fill="#CABCBC"/>
<path d="M91.2433 11.7405C94.7902 11.7171 97.5203 14.3073 97.5437 17.6908C97.567 21.0744 94.8602 23.7345 91.3366 23.7812C87.8364 23.8045 85.0829 21.191 85.0362 17.8075C84.9896 14.424 87.7197 11.7638 91.2433 11.7405ZM95.2569 17.8075C95.2802 15.474 93.5301 13.6539 91.2666 13.6772C89.0498 13.6772 87.3464 15.4507 87.323 17.7375C87.2997 20.0476 88.9798 21.8211 91.1733 21.8678C93.4834 21.8911 95.2335 20.141 95.2569 17.8075Z" fill="#CABCBC"/>
<path d="M123.515 17.7842C123.492 21.191 120.762 23.8045 117.238 23.7812C113.715 23.7579 111.031 21.121 111.054 17.7142C111.078 14.3073 113.761 11.7404 117.331 11.7404C120.878 11.7638 123.538 14.3773 123.515 17.7842ZM121.228 17.8075C121.252 15.4507 119.525 13.6539 117.285 13.6539C115.068 13.6539 113.364 15.4273 113.341 17.7142C113.318 20.0243 114.975 21.7977 117.191 21.8444C119.478 21.8911 121.205 20.1643 121.228 17.8075Z" fill="#CABCBC"/>
<path d="M13.3513 16.5941C13.3513 17.3875 13.3513 18.1809 13.3513 18.9509C12.3479 18.9509 11.3212 18.9976 10.3178 18.9509C8.89438 18.8809 7.72764 18.9509 6.7009 20.3977C5.41749 22.2178 2.57065 22.0311 1.05388 20.351C-0.462878 18.6709 -0.22953 16.0574 1.56725 14.6807C3.36403 13.3039 6.00086 13.6773 7.19094 15.6141C7.68097 16.4075 8.19433 16.6175 9.03438 16.5941C10.4811 16.5241 11.9046 16.5708 13.3513 16.5941Z" fill="#CABCBC"/>
<path d="M18.4616 13.6073C17.6682 13.5606 16.8748 13.5373 16.1048 13.7473C16.0814 12.2305 16.0347 10.7371 16.0347 9.22033C16.0347 8.63696 15.9181 8.24026 15.3347 7.91358C13.6546 6.93352 12.9779 5.16007 13.4913 3.45663C14.0046 1.77653 15.6381 0.563117 17.3182 0.586451C18.9983 0.609786 20.6084 1.8932 21.0517 3.57331C21.4951 5.27675 20.8184 7.00352 19.1616 7.91358C18.5782 8.24026 18.4382 8.59029 18.4616 9.19699C18.4849 10.6671 18.4616 12.1372 18.4616 13.6073Z" fill="#CABCBC"/>
<path d="M21.1216 15.544C20.6316 14.914 20.0715 14.354 19.3481 13.9806C20.0249 13.3039 20.7249 12.6039 21.4016 11.9272C22.335 11.0171 23.2217 10.3171 22.8017 8.56694C22.2883 6.44348 24.4585 4.48335 26.7219 4.53002C28.9621 4.57669 30.7822 6.58348 30.5488 8.77696C30.2922 11.1104 28.0987 12.7672 25.8119 12.1838C24.9718 11.9738 24.5518 12.1605 24.0151 12.7205C23.0817 13.6773 22.1017 14.6107 21.1216 15.544Z" fill="#CABCBC"/>
<path d="M16.1047 21.7978C16.898 21.9144 17.6681 22.0545 18.4615 21.8678C18.4615 23.3845 18.4848 24.9013 18.4615 26.4181C18.4381 27.0014 18.6481 27.3048 19.1615 27.5848C20.8416 28.5415 21.5417 30.2683 21.0516 32.0418C20.5849 33.6752 19.0448 34.8419 17.3181 34.8419C15.5213 34.8419 14.0045 33.6985 13.5145 31.9717C13.0245 30.2683 13.7245 28.5415 15.3579 27.6081C15.988 27.2581 16.0813 26.8381 16.0813 26.2081C16.0346 24.738 16.0813 23.2679 16.1047 21.7978Z" fill="#CABCBC"/>
<path d="M15.2415 14.1207C14.6348 14.6107 14.0981 15.1707 13.6314 15.8008C12.5347 14.704 11.3913 13.654 10.3179 12.5339C9.89787 12.1139 9.54785 11.9505 8.91781 12.1372C7.0977 12.6506 5.32425 11.8805 4.43753 10.2937C3.59748 8.77698 3.85416 6.9102 5.06757 5.67345C6.32765 4.41337 8.21777 4.13336 9.7812 5.02008C11.368 5.9068 12.1147 7.65691 11.578 9.50036C11.3913 10.1071 11.5546 10.4338 11.9513 10.8071C13.0714 11.9038 14.1681 13.0239 15.2415 14.1207Z" fill="#CABCBC"/>
<path d="M21.5654 18.9509C21.7521 18.1575 21.7521 17.3642 21.5654 16.5708C22.9889 16.5708 24.4356 16.5241 25.859 16.5474C26.4657 16.5474 26.8158 16.4074 27.1424 15.8474C28.1225 14.1673 29.8726 13.4906 31.5994 14.0039C33.3262 14.5173 34.4929 16.0574 34.4462 17.8075C34.4229 19.511 33.2095 21.0511 31.5761 21.4944C29.826 21.9844 28.0758 21.2611 27.1191 19.6043C26.8158 19.0909 26.5357 18.9043 25.9524 18.9276C24.5056 18.9743 23.0355 18.9509 21.5654 18.9509Z" fill="#CABCBC"/>
<path d="M19.4185 21.5411C20.0485 21.0978 20.6319 20.6311 21.0752 20.0244C22.2653 20.8411 23.152 21.9845 24.1788 22.9645C24.5988 23.3846 24.9488 23.5479 25.6022 23.3846C27.4456 22.8712 29.1957 23.6179 30.0825 25.2047C30.9692 26.7681 30.6892 28.6349 29.4058 29.895C28.1223 31.1317 26.2089 31.3651 24.6921 30.455C23.1287 29.5216 22.382 27.7482 22.9653 25.9514C23.152 25.368 22.9887 25.1113 22.6387 24.7613C21.5419 23.7113 20.4685 22.6145 19.4185 21.5411Z" fill="#CABCBC"/>
<path d="M78.782 12.1372C80.4154 12.1372 82.0488 12.1605 83.6823 12.1372C84.2656 12.1372 84.5456 12.2772 84.4756 12.9306C84.429 13.2806 84.5223 13.6306 84.4523 13.9806C84.3823 14.3773 84.8023 15.0774 84.0556 15.1007C83.5189 15.1007 82.7255 15.6374 82.4222 14.424C82.2355 13.6306 81.1388 14.1673 80.4621 14.0973C79.832 14.0273 79.972 14.564 79.972 14.914C79.972 16.9441 79.972 18.9509 79.972 20.9811C79.972 21.3311 79.8087 21.8911 80.4387 21.8211C81.4421 21.7044 81.2554 22.3578 81.2554 22.9179C81.2788 23.8279 80.6021 23.5012 80.182 23.5012C79.062 23.5479 77.9186 23.5012 76.7985 23.5246C76.3551 23.5246 76.0051 23.4779 76.0985 22.9179C76.1685 22.4978 75.7951 21.7744 76.6818 21.8445C77.3352 21.8911 77.4519 21.5878 77.4285 21.0277C77.4052 18.9743 77.3819 16.8975 77.4285 14.844C77.4519 14.1906 77.1719 13.9573 76.6352 14.0973C76.0051 14.2606 74.9784 13.4906 74.815 14.914C74.7684 15.3807 73.9283 15.0774 73.4616 15.124C72.9949 15.1707 73.0183 14.8207 72.9949 14.5173C72.7849 12.1605 72.7849 12.1605 75.1184 12.1605C76.3551 12.1372 77.5685 12.1372 78.782 12.1372Z" fill="#CABCBC"/>
<path d="M129.232 12.1372C130.398 12.1372 131.565 12.1838 132.732 12.1138C133.455 12.0672 133.735 12.3239 133.642 13.0239C133.595 13.2806 133.689 13.5839 133.619 13.8406C133.525 14.2606 133.992 15.0074 133.198 15.0307C132.662 15.054 131.682 15.6141 131.682 14.3073C131.682 13.9806 131.355 14.0506 131.145 14.0273C128.462 13.7006 128.368 13.7706 128.368 16.4308C128.368 17.7609 128.345 19.0676 128.392 20.3977C128.415 20.9811 127.995 21.8211 129.232 21.8911C129.652 21.9145 129.395 22.6378 129.442 23.0345C129.488 23.4779 129.185 23.5246 128.835 23.5246C127.831 23.5246 126.805 23.5479 125.801 23.5012C125.428 23.4779 124.751 23.8279 124.775 23.0112C124.775 22.5212 124.448 21.7511 125.498 21.7978C125.988 21.8211 125.871 21.4011 125.871 21.1211C125.871 18.9743 125.871 16.8508 125.871 14.704C125.871 14.4007 125.965 14.0273 125.451 14.0506C124.635 14.1206 124.798 13.5373 124.751 13.0472C124.658 12.3239 124.938 12.0905 125.661 12.1372C126.805 12.1838 128.018 12.1372 129.232 12.1372Z" fill="#CABCBC"/>
</svg>
