<svg width="160" height="30" viewBox="0 0 160 30" fill="none" xmlns="http://www.w3.org/2000/svg">
<path d="M53.0209 17.0254C53.0209 19.362 51.0424 21.3445 48.428 21.3445C45.8136 21.3445 43.8351 19.4328 43.8351 17.0254V8.59947H42.4219V17.0962C42.4219 20.1408 44.7537 22.7606 48.428 22.7606C52.1023 22.7606 54.4341 20.07 54.4341 17.0962V8.59947H53.0209V17.0254ZM68.0715 8.59947H63.6199V22.7606H68.0715C72.1698 22.7606 74.9255 20.07 74.9255 15.6801C74.9255 11.3609 72.1698 8.59947 68.0715 8.59947ZM67.9302 21.3445H65.0331V10.0156H67.9302C71.2512 10.0156 73.5123 12.3522 73.5123 15.6801C73.5123 19.2203 71.3219 21.3445 67.9302 21.3445ZM107.429 21.3445C104.179 21.3445 101.847 18.6539 101.847 15.3968C101.847 12.1398 104.179 9.66156 107.429 9.66156C109.973 9.66156 111.598 11.1485 111.598 11.1485L112.305 10.1572C112.305 10.1572 110.68 8.38705 107.359 8.38705C103.472 8.38705 100.434 11.4317 100.434 15.3968C100.434 19.362 103.331 22.7606 107.429 22.7606C110.821 22.7606 112.658 20.424 112.658 20.424L111.881 19.5036C111.81 19.5036 110.185 21.3445 107.429 21.3445ZM121.561 22.7606H122.974V8.59947H121.561V22.7606ZM130.747 10.0156H135.693V22.7606H137.106V10.0156H142.053V8.59947H130.747V10.0156ZM158.446 8.59947L154.065 14.972L149.613 8.59947H148.059L153.358 16.4589V22.7606H154.772V16.4589L160 8.59947H158.446ZM86.8671 8.59947L81.285 22.7606H82.7688L84.2527 18.7247L90.4708 17.4502L92.4493 22.7606H93.9331L88.351 8.59947H86.8671ZM84.8886 17.167L87.6444 10.5112H87.715L90.0468 16.1757L84.8886 17.167Z" fill="#CABCBC"/>
<path d="M10.1297 0.812744L0.731934 6.26479V18.7266C0.731934 24.4619 5.32484 29.1351 11.0483 29.1351C12.9561 29.1351 14.7226 28.6394 16.2772 27.7898L23.9085 23.3998C26.9468 21.7713 28.996 18.6558 28.996 14.9739V1.94564L27.1588 0.88355L19.1036 5.2027V18.7974C19.1036 19.3639 19.0329 19.9303 18.9622 20.4968C18.8209 21.0632 18.6796 21.5588 18.4676 22.0545L18.2556 22.4793C17.973 22.4793 16.2065 21.8421 15.2879 21.2048C14.864 20.9216 14.5107 20.6384 14.1574 20.2843C13.8041 19.9303 13.5214 19.5763 13.2388 19.1514C12.9561 18.7266 11.9669 16.8857 11.9669 15.0447V1.87483L10.1297 0.812744ZM14.7226 26.4444C14.228 26.6569 13.5214 26.9401 12.9561 27.0817C12.3909 27.2233 11.8962 27.2233 11.331 27.2233C10.7657 27.2233 10.2004 27.1525 9.63511 27.0109C9.06983 26.8693 8.57521 26.7277 8.08059 26.5152C7.58596 26.3028 7.09134 26.0196 6.66738 25.7364C5.46616 24.8867 4.90088 24.1787 4.40626 23.3998C4.12362 22.975 3.84098 22.4793 3.629 21.9837C3.41702 21.488 3.2757 20.9216 3.13438 20.3551C2.85174 19.8595 2.85174 19.2931 2.85174 18.7266V7.32688L9.91775 3.00772V14.9739C9.91775 19.5055 13.2388 23.329 17.4784 24.2495C17.3371 24.4619 17.1957 24.6743 16.9838 24.8159C16.2065 25.5948 15.5706 26.0904 14.7226 26.4444ZM26.7349 16.5316C26.6642 17.0273 26.4522 17.5229 26.3109 17.9477C26.0989 18.3726 25.8869 18.7974 25.6043 19.2223C25.3217 19.6471 24.4737 20.7092 23.3432 21.3464C22.2126 21.9837 21.1527 22.1961 20.5168 22.3377C20.9407 21.2048 21.2234 20.0719 21.2234 18.7974V6.26479L26.8762 3.00772V14.9739C26.8762 15.5404 26.8762 16.036 26.7349 16.5316Z" fill="#CABCBC"/>
</svg>
