<svg width="143" height="41" viewBox="0 0 143 41" fill="none" xmlns="http://www.w3.org/2000/svg">
<path d="M7.31211 20.6937C6.90102 20.9297 6.55082 21.1276 6.20063 21.3332C5.40127 21.7976 4.57147 22.1782 3.63508 22.2848C2.01353 22.4675 0.361527 21.6072 0.0570104 19.7192C0.0493975 19.6583 0.0265588 19.6051 0.0189459 19.5441C-0.0343445 19.1863 0.011333 18.9123 0.331075 18.6382C1.62527 17.5343 2.9423 16.4381 4.15276 15.2429C7.12179 12.2967 9.41328 8.86324 11.2556 5.11768C11.7657 4.08994 12.2377 3.03936 12.7858 2.03446C13.3035 1.06762 14.0952 0.374841 15.1762 0.131228C16.8587 -0.241805 18.4879 0.420519 19.1578 2.24C19.5461 3.2982 19.6222 4.40207 19.5689 5.51355C19.4471 8.01059 18.7086 10.3934 18.1377 12.7991C17.2774 16.4 16.3791 19.9933 15.5341 23.6018C15.1077 25.4289 14.925 27.2941 15.0468 29.1745C15.0925 29.8825 15.26 30.5981 15.4579 31.2909C15.6711 32.0369 16.2877 32.4633 16.9196 32.41C17.3535 32.3719 17.7037 32.1587 18.0235 31.8771C19.0512 30.9711 19.8506 29.8749 20.6575 28.7786C23.2992 25.1929 25.4384 21.3103 27.4406 17.344C28.8338 14.5881 30.2422 11.8399 31.6582 9.09162C31.9323 8.56633 32.2444 8.05627 32.5337 7.53859C33.7594 5.28517 36.9492 5.46026 38.1977 7.50052C38.8752 8.61201 39.233 9.83007 39.3016 11.1243C39.4005 13.0427 39.469 14.9612 39.5528 16.8796C39.6137 18.3032 39.6594 19.7269 39.7279 21.1505C39.7736 22.2087 39.804 23.2669 39.9106 24.3251C39.9639 24.858 40.139 25.3909 40.3521 25.8857C40.7099 26.7079 41.4179 26.9743 42.3239 26.7307C43.0243 26.5404 43.6485 26.2207 44.2119 25.7715C45.369 24.8351 46.5338 23.914 47.6758 22.97C47.9041 22.7796 48.064 22.8025 48.2696 22.9547C48.8177 23.3582 49.0004 23.952 49.107 24.5763C49.3506 25.9999 48.8862 27.2789 48.2543 28.5045C46.9754 30.994 44.8666 32.4176 42.2021 33.0951C40.6947 33.4758 39.1645 33.5291 37.6419 33.255C35.7539 32.9124 34.3912 31.8162 33.4777 30.1565C32.7392 28.8014 32.351 27.3322 32.1378 25.8172C31.8714 23.9749 31.8561 22.1249 31.8942 20.275C31.8942 20.2521 31.9018 20.2369 31.8942 20.2141C31.8561 20.1075 31.8181 19.9933 31.7724 19.8867C31.6963 19.9629 31.5973 20.0314 31.5516 20.1227C30.5619 22.1858 29.6027 24.2642 28.575 26.3044C27.1209 29.1821 25.4613 31.9456 23.4591 34.4807C22.0431 36.2773 20.4368 37.8684 18.4346 39.0104C16.9577 39.8554 15.3742 40.3122 13.6765 40.2893C10.8673 40.2513 8.79663 38.9266 7.39585 36.5209C6.66502 35.2724 6.27676 33.9097 6.07882 32.4861C5.87327 31.0549 5.85805 29.6236 5.97985 28.1924C6.13211 26.3958 6.48231 24.6372 6.88579 22.8786C7.03044 22.2467 7.16747 21.6072 7.31211 20.9678C7.3045 20.8916 7.29689 20.8307 7.31211 20.6937Z" fill="#CABCBC"/>
<path d="M107.064 16.9862C107.97 16.9862 108.853 16.9786 109.729 16.9938C109.805 16.9938 109.904 17.0776 109.965 17.1461C110.209 17.4354 110.437 17.7247 110.673 18.0139C113.429 16.2173 116.093 15.9052 118.636 18.425C118.804 18.2956 119.001 18.151 119.199 17.9987C120.448 16.9938 121.864 16.499 123.47 16.636C124.224 16.6969 124.955 16.8568 125.632 17.2222C126.386 17.6333 126.919 18.2347 127.208 19.0417C127.612 20.1532 127.863 21.2951 127.855 22.4903C127.848 24.8884 127.878 27.2865 127.886 29.6845C127.886 29.8901 127.855 30.0956 127.84 30.324C126.5 30.324 125.176 30.324 123.82 30.324C123.82 30.1946 123.82 30.0804 123.82 29.9586C123.82 27.7813 123.828 25.5964 123.813 23.4191C123.805 22.9319 123.744 22.4294 123.615 21.9574C123.303 20.8155 122.382 20.2598 121.224 20.5034C120.707 20.6099 120.22 20.8383 119.717 21.0058C119.504 21.0743 119.451 21.219 119.451 21.4398C119.458 24.2413 119.458 27.0505 119.451 29.852C119.451 30.324 119.534 30.3088 118.979 30.3088C117.89 30.3088 116.801 30.3012 115.705 30.3164C115.431 30.3164 115.363 30.2327 115.363 29.9586C115.37 27.7585 115.378 25.5583 115.363 23.3582C115.363 22.9852 115.324 22.6045 115.241 22.2391C114.921 20.8003 113.87 20.1608 112.439 20.549C112.051 20.6556 111.685 20.8459 111.312 20.9906C111.076 21.0819 111.008 21.2494 111.008 21.5007C111.016 24.287 111.016 27.0733 111.016 29.8596C111.016 30.3088 111.016 30.3088 110.559 30.3088C109.485 30.3088 108.42 30.3012 107.346 30.3164C107.102 30.3164 107.026 30.2479 107.026 29.9967C107.034 25.7563 107.034 21.5159 107.034 17.2679C107.049 17.1918 107.057 17.1156 107.064 16.9862Z" fill="#CABCBC"/>
<path d="M71.1236 12.4794C71.2531 12.4718 71.352 12.4565 71.4434 12.4565C72.631 12.4565 73.8186 12.4642 75.0138 12.4489C75.2803 12.4413 75.364 12.5479 75.3716 12.7839C75.3716 12.8905 75.3793 13.0047 75.3793 13.1113C75.364 16.6208 75.3564 20.1304 75.3107 23.6323C75.2955 24.9417 75.0138 26.2055 74.4048 27.3778C73.575 28.9766 72.2351 29.9129 70.5146 30.3393C68.3297 30.8798 66.1372 30.9026 63.9599 30.324C61.539 29.6769 60.161 28.0021 59.7195 25.5964C59.5139 24.5002 59.4378 23.3735 59.4226 22.262C59.3769 19.1026 59.3998 15.9356 59.3998 12.7763C59.3998 12.6849 59.3998 12.6012 59.3998 12.4794C59.5139 12.4718 59.6053 12.4565 59.7043 12.4565C60.9071 12.4565 62.1023 12.4642 63.3052 12.4489C63.5792 12.4489 63.6325 12.5479 63.6325 12.7915C63.6249 15.4865 63.6249 18.1814 63.6325 20.8764C63.6401 22.064 63.6401 23.2516 63.9523 24.4164C64.3025 25.7335 64.9724 26.3806 66.3199 26.4795C67.1269 26.5404 67.9414 26.4947 68.7484 26.4415C69.6924 26.3729 70.3547 25.84 70.6516 24.9722C70.8724 24.3327 71.0094 23.6551 71.0551 22.9776C71.1312 21.8509 71.116 20.7165 71.1236 19.5898C71.1312 17.3516 71.1236 15.1134 71.1236 12.8676C71.1236 12.7458 71.1236 12.624 71.1236 12.4794Z" fill="#CABCBC"/>
<path d="M86.5702 16.8263C86.5702 16.6589 86.5702 16.5294 86.5702 16.4C86.5702 14.8318 86.5778 13.2711 86.5626 11.7029C86.5626 11.3983 86.6463 11.3222 86.9432 11.3298C88.1384 11.345 89.3413 11.3374 90.5669 11.3374C90.5669 17.6714 90.5669 23.9825 90.5669 30.324C90.4756 30.3316 90.3919 30.3393 90.3081 30.3393C89.8742 30.3393 89.4326 30.2936 88.9987 30.3469C88.3364 30.4306 87.8568 30.2327 87.537 29.6389C87.4152 29.4105 87.2858 29.4485 87.0878 29.5704C84.8116 30.9483 82.444 31.0473 80.0611 29.9205C78.6147 29.2354 77.7925 27.9793 77.3509 26.4719C76.7115 24.3098 76.7571 22.1706 77.7544 20.138C78.7822 18.0368 80.5179 16.8568 82.8627 16.6893C83.8219 16.6208 84.7964 16.735 85.7708 16.7731C86.0144 16.7883 86.2656 16.8111 86.5702 16.8263ZM86.5397 23.5485C86.5397 22.635 86.5321 21.7291 86.5473 20.8155C86.5473 20.6176 86.4788 20.5186 86.3037 20.4349C85.7327 20.1608 85.1389 20.0162 84.5071 19.9705C83.1291 19.8639 81.8882 20.6404 81.3934 21.927C81.0584 22.8025 81.028 23.7008 81.1726 24.6143C81.3173 25.5431 81.7131 26.3349 82.5886 26.7916C83.8904 27.4768 85.1618 27.3474 86.3951 26.6013C86.4788 26.548 86.5397 26.3958 86.5397 26.2892C86.5473 25.3756 86.5397 24.4621 86.5397 23.5485Z" fill="#CABCBC"/>
<path d="M104.605 26.2816C104.491 26.9667 104.384 27.6138 104.27 28.2533C104.224 28.5197 104.148 28.7786 104.141 29.045C104.125 29.3191 103.973 29.4714 103.775 29.616C102.953 30.2022 102.009 30.4534 101.027 30.5676C99.6795 30.7199 98.3396 30.697 97.0226 30.324C94.7539 29.6845 93.2923 28.2457 92.7213 25.939C92.2341 23.9901 92.2797 22.064 93.0791 20.2065C93.9927 18.0977 95.637 16.9405 97.9133 16.6817C98.8649 16.5751 99.8089 16.5751 100.753 16.7806C102.557 17.1765 103.775 18.2652 104.491 19.9476C105.031 21.219 105.237 22.5436 105.237 23.9139C105.237 24.1956 105.138 24.2641 104.872 24.2565C102.306 24.2489 99.7404 24.2489 97.1672 24.2489C96.779 24.2489 96.7561 24.2717 96.7485 24.6676C96.7333 25.7106 97.4185 26.6622 98.469 27.0352C99.8089 27.5072 101.156 27.4387 102.496 27.0581C103.105 26.883 103.684 26.6241 104.278 26.4034C104.369 26.3729 104.46 26.3348 104.605 26.2816ZM96.7105 22.2543C98.4386 22.2543 100.144 22.2543 101.849 22.2543C101.91 20.9221 100.791 19.7573 99.4207 19.7116C97.9438 19.6583 96.7485 20.7774 96.7105 22.2543Z" fill="#CABCBC"/>
<path d="M128.091 16.9862C128.479 16.9862 128.814 16.9862 129.149 16.9862C130.192 16.9862 131.227 16.9938 132.27 16.9786C132.499 16.9786 132.598 17.0547 132.666 17.2603C133.61 20.0085 134.569 22.7568 135.521 25.4974C135.551 25.5964 135.59 25.6954 135.658 25.8705C135.727 25.6954 135.757 25.6116 135.787 25.5279C136.701 22.7644 137.607 20.0085 138.521 17.245C138.559 17.1384 138.673 16.9862 138.757 16.9786C140.013 16.9633 141.269 16.9633 142.578 16.9633C142.533 17.1004 142.502 17.207 142.464 17.3135C140.211 23.0384 137.95 28.7557 135.696 34.4807C135.59 34.7547 135.46 34.8537 135.156 34.8461C134.067 34.8232 132.978 34.8385 131.882 34.8385C131.775 34.8385 131.669 34.8385 131.509 34.8385C131.555 34.709 131.578 34.6101 131.616 34.5111C132.179 33.0723 132.735 31.6334 133.306 30.2022C133.389 29.9814 133.397 29.8063 133.306 29.5856C131.608 25.505 129.91 21.4169 128.22 17.3364C128.19 17.245 128.152 17.1461 128.091 16.9862Z" fill="#CABCBC"/>
</svg>
