<svg width="271" height="44" viewBox="0 0 271 44" fill="none" xmlns="http://www.w3.org/2000/svg">
<path d="M7.47612 27.2855L3.25246 36.7799H0.169189L4.81522 26.6299C2.61891 25.5092 1.18287 23.5004 1.18287 19.7999C1.18287 14.598 4.4562 11.9971 8.38421 11.9971H12.3756V36.7799H9.69354V27.2855H7.47612ZM9.69354 14.2597H8.27862C6.12455 14.2597 4.05496 15.6764 4.05496 19.7999C4.05496 23.7964 5.9556 25.0652 8.27862 25.0652H9.69354V14.2597Z" fill="#CABCBC"/>
<path d="M25.216 19.3135V36.7799H22.5551V28.956H18.5426V36.8011H15.8184V19.3135H18.5215V26.7357H22.534V19.3135H25.216ZM39.0907 40.2267H36.6621V36.8011H29.1862V40.2267H26.7576V34.5808H27.8347C29.4185 30.8802 29.6086 25.4669 29.6086 20.8149V19.3135H37.718V34.5596H39.1118V40.2267H39.0907ZM35.036 21.4915H32.0161V21.8087C32.0161 25.4881 31.8471 30.8591 30.39 34.5596H35.036V21.4915ZM46.5455 37.0337C42.9342 37.0337 40.7379 34.1578 40.7379 28.7868C40.7379 23.162 42.3007 19.0809 45.9964 19.0809C48.9107 19.0809 50.8114 21.2589 50.8114 27.2009V28.7022H43.5467C43.5467 32.6565 44.6448 34.7288 46.7989 34.7288C48.3194 34.7288 49.5443 34.031 50.2201 33.5446L50.8536 35.6169C49.7132 36.4839 48.2772 37.0337 46.5455 37.0337ZM43.5678 26.4608H48.0449C48.0449 23.4792 47.5591 21.3012 45.9964 21.3012C44.3281 21.2801 43.7367 23.3312 43.5678 26.4608ZM56.2599 28.089V36.8011H53.5567V19.3135H56.2599V27.3912L60.4413 19.3135H63.1867L58.8574 27.5392L63.7991 36.8011H60.8637L56.2599 28.089ZM64.1581 28.0467C64.1581 22.57 66.27 19.0598 70.3669 19.0598C71.9297 19.0598 72.8166 19.4827 73.5769 19.969L73.1968 22.5277C72.4787 21.8933 71.4228 21.3224 70.3247 21.3224C68.3818 21.3224 67.0091 23.5004 67.0091 27.9198C67.0091 32.297 68.0439 34.7922 70.2191 34.7922C71.5284 34.7922 72.5421 34.2636 73.1545 33.7138L73.7881 35.7226C72.8589 36.5262 71.7396 37.0337 70.1557 37.0337C66.4178 37.0337 64.1581 34.0098 64.1581 28.0467Z" fill="#CABCBC"/>
<path d="M90.9288 37V16.9023H104.081V37H102.359V18.4062H92.6515V37H90.9288ZM110.798 29.7812C110.798 31.6771 111.19 33.2083 111.974 34.375C112.776 35.5234 113.851 36.0977 115.2 36.0977C116.495 36.0977 117.57 35.5326 118.427 34.4023C119.284 33.2721 119.712 31.7318 119.712 29.7812C119.712 27.9583 119.311 26.4635 118.509 25.2969C117.707 24.1302 116.604 23.5469 115.2 23.5469C113.924 23.5469 112.867 24.1393 112.028 25.3242C111.208 26.4909 110.798 27.9766 110.798 29.7812ZM109.157 43.4258V22.6445H110.771V25.5703C111.172 24.5312 111.773 23.7018 112.575 23.082C113.396 22.4622 114.334 22.1523 115.392 22.1523C117.16 22.1523 118.6 22.8451 119.712 24.2305C120.824 25.6159 121.38 27.4661 121.38 29.7812C121.38 32.2422 120.797 34.1471 119.63 35.4961C118.463 36.8268 117.051 37.4922 115.392 37.4922C114.28 37.4922 113.332 37.1823 112.548 36.5625C111.764 35.9427 111.181 35.1497 110.798 34.1836V43.4258H109.157ZM125.171 33.4453C125.171 34.1745 125.481 34.8034 126.101 35.332C126.72 35.8424 127.577 36.0977 128.671 36.0977C130.038 36.0977 131.205 35.6602 132.171 34.7852C133.155 33.8919 133.647 32.7617 133.647 31.3945V29.125C132.827 29.3802 131.46 29.6536 129.546 29.9453C128.015 30.2005 126.903 30.6107 126.21 31.1758C125.517 31.7409 125.171 32.4974 125.171 33.4453ZM123.476 33.5547C123.476 32.2422 123.959 31.1849 124.925 30.3828C125.909 29.5625 127.459 28.9883 129.573 28.6602C131.688 28.3138 133.046 28.0221 133.647 27.7852V26.9648C133.647 25.9622 133.292 25.1419 132.581 24.5039C131.888 23.8477 130.904 23.5195 129.628 23.5195C128.753 23.5195 127.905 23.7292 127.085 24.1484C126.283 24.5495 125.608 25.0964 125.061 25.7891L123.968 24.9141C124.624 24.0938 125.444 23.4284 126.429 22.918C127.413 22.4076 128.47 22.1523 129.601 22.1523C131.588 22.1523 133.028 22.6445 133.921 23.6289C134.832 24.6133 135.288 25.9349 135.288 27.5938V37H133.675V34.4023C133.365 35.2227 132.727 35.9427 131.761 36.5625C130.813 37.1823 129.71 37.4922 128.452 37.4922C126.903 37.4922 125.681 37.1276 124.788 36.3984C123.913 35.651 123.476 34.7031 123.476 33.5547ZM139.352 37V22.6445H141.02V29.3438L148.239 22.6445H150.454L143.071 29.5078L150.755 37H148.677L141.977 30.5742L141.02 31.4766V37H139.352ZM150.936 24.0391V22.6445H162.284V24.0391H157.444V37H155.776V24.0391H150.936ZM164.844 37V22.6445H166.512V30.875C166.512 31.6042 166.476 32.8073 166.403 34.4844H166.512L167.962 32.3789L174.634 22.6445H176.548V37H174.88V28.4961C174.88 26.9284 174.907 25.7799 174.962 25.0508H174.907L173.649 26.9648L166.759 37H164.844ZM180.776 37V22.6445H182.444V29.3438L189.663 22.6445H191.878L184.495 29.5078L192.178 37H190.1L183.401 30.5742L182.444 31.4766V37H180.776ZM191.922 22.6445H193.864L197.09 31.6953C197.51 32.8802 197.92 34.0833 198.321 35.3047H198.403C198.549 34.849 198.758 34.2109 199.032 33.3906C199.323 32.5703 199.524 31.9961 199.633 31.668L202.723 22.6445H204.637L198.403 39.5977C197.892 41.0013 197.3 41.9857 196.626 42.5508C195.951 43.1341 195.149 43.4258 194.219 43.4258H193.454V42.0312H193.946C194.602 42.0312 195.176 41.8125 195.669 41.375C196.161 40.9557 196.589 40.2083 196.954 39.1328L197.528 37.3828L191.922 22.6445ZM206.788 37V22.6445H208.647L212.53 30.5195C212.712 30.9206 212.976 31.4948 213.323 32.2422C213.669 32.9896 213.915 33.5091 214.061 33.8008H214.116C214.28 33.4727 214.526 32.944 214.854 32.2148C215.182 31.4674 215.437 30.9023 215.62 30.5195L219.502 22.6445H221.362V37H219.776V28.4961C219.776 27.5299 219.803 26.4818 219.858 25.3516H219.831L218.928 27.2656L214.69 35.8789H213.459L209.249 27.2656L208.346 25.3789H208.319C208.355 26.0169 208.374 27.056 208.374 28.4961V37H206.788Z" fill="#CABCBC"/>
</svg>
