<svg width="121" height="121" fill="none" xmlns="http://www.w3.org/2000/svg"><rect width="121" height="121" rx="16" fill="#260600"/><path fill-rule="evenodd" clip-rule="evenodd" d="M53.369 71.368l3.506 11.61c.182.686.539.854 1.022.847h8.978c.693 0 .742-.203.637-.665l-14.83-49.463c-.027-.091-.097-.161-.237-.154l-12.436-.035c-.49 0-.497.252-.455.727.154 1.722.07 2.688-.294 4.038L26.132 83.181c-.14.427-.105.644.455.65l8.475-.006c.895-.035.944-.273 1.098-.721l2.94-11.736h14.269zm-1.813-9.028H41.262l4.99-20.183 5.304 20.183zm18.553 21.072v-1.477l.063-26.705-.042-.952-.021-.525-.308-1.483c.063-.028.126-.05.189-.077.119-.042.238-.084.357-.133 10.448-3.856 25.998-5.389 25.41 9.986-.007.091 0 .26-.007.35v20.652c-.021.455-.273.79-.896.798h-5.878c-.504.007-.938-.05-.952-.77v-1.281c0-5.612.007-20.869-.007-21.148-.175-4.9-6.417-5.445-10.301-3.856l-.12 25.228v1.057c-.013.469-.062.756-.895.763h-6.067c-.28 0-.54.007-.525-.427z" fill="#FF4A19"/></svg>