<svg width="121" height="121" viewBox="0 0 121 121" fill="none" xmlns="http://www.w3.org/2000/svg">
<rect width="121" height="121" rx="16" fill="#260600"/>
<path fill-rule="evenodd" clip-rule="evenodd" d="M53.3687 71.3678L56.8748 82.9778C57.0567 83.6636 57.4136 83.8316 57.8965 83.8246H66.8752C67.568 83.8246 67.617 83.6216 67.512 83.1597L52.6829 33.6966C52.6549 33.6057 52.5849 33.5357 52.4449 33.5427L40.0092 33.5077C39.5193 33.5077 39.5123 33.7596 39.5543 34.2355C39.7083 35.9571 39.6243 36.9228 39.2604 38.2734L26.1318 83.1807C25.9919 83.6076 26.0268 83.8246 26.5867 83.8316L35.0615 83.8246C35.9572 83.7896 36.0062 83.5516 36.1602 83.1037L39.0994 71.3678H53.3687ZM51.5562 62.3402H41.2619L46.2516 42.1574L51.5562 62.3402Z" fill="#FF4A19"/>
<path fill-rule="evenodd" clip-rule="evenodd" d="M70.1087 83.4117V83.0408V82.9638V81.9351L70.1717 55.23L70.1297 54.2783L70.1087 53.7534L69.8008 52.2698C69.8638 52.2418 69.9267 52.2208 69.9897 52.1928C70.1087 52.1508 70.2277 52.1088 70.3466 52.0599C80.7949 48.2039 96.3448 46.6713 95.757 62.0463C95.75 62.1372 95.757 62.3052 95.75 62.3962V81.4102V82.9078V83.0478C95.729 83.5027 95.4771 83.8386 94.8542 83.8456H94.7143H88.9758C88.4719 83.8526 88.038 83.7966 88.024 83.0758C88.024 83.0688 88.024 83.0688 88.024 83.0618C88.024 82.7259 88.024 82.299 88.024 81.7951C88.024 76.1826 88.031 60.9265 88.017 60.6466C87.8421 55.7479 81.5997 55.202 77.7157 56.7906L77.5967 82.019V83.0758C77.5827 83.5446 77.5338 83.8316 76.701 83.8386H70.6336C70.3536 83.8386 70.0947 83.8456 70.1087 83.4117Z" fill="#FF4A19"/>
</svg>
