<svg width="74" height="84" viewBox="0 0 74 84" fill="none" xmlns="http://www.w3.org/2000/svg">
<path d="M36.9593 83.3044C32.5706 83.3044 28.8321 78.8344 26.0688 70.4633C23.5493 62.7424 22.0864 52.5021 22.0864 41.6116C22.0864 30.721 23.4681 20.4807 26.0688 12.7598C28.9133 4.46999 32.6519 0 36.9593 0C41.2668 0 45.0866 4.46999 47.8498 12.8411C50.3693 20.562 51.8322 30.8023 51.8322 41.6928C51.8322 52.5834 50.4506 62.8237 47.8498 70.5446C45.0866 78.8344 41.348 83.3044 36.9593 83.3044ZM36.9593 3.2509C31.514 3.2509 25.3373 19.0178 25.3373 41.6928C25.3373 64.3679 31.4328 80.1348 36.9593 80.1348C42.4046 80.1348 48.5 64.3679 48.5 41.6928C48.5 19.0178 42.4858 3.2509 36.9593 3.2509Z" fill="#151515"/>
<path d="M63.8607 66.3184C55.3271 66.3184 42.2422 61.7672 29.5637 54.5339C20.1361 49.0887 12.0088 42.7494 6.56356 36.6539C0.711932 30.0709 -1.31988 24.5443 0.874477 20.8058C1.84975 19.0178 4.28793 16.986 10.1396 16.986C18.5919 16.986 31.7581 21.5372 44.4366 28.8518C53.8642 34.297 61.9915 40.6363 67.4367 46.6505C73.2884 53.2336 75.3202 58.7601 73.1258 62.4986C72.0693 64.2054 69.6311 66.3184 63.8607 66.3184ZM10.1396 20.2369C6.80738 20.2369 4.53174 21.0496 3.71902 22.4312C2.41866 24.7881 4.3692 29.2581 9.00174 34.5409C14.2032 40.3925 22.0866 46.4879 31.1892 51.6894C43.38 58.7601 55.896 63.0675 63.8607 63.0675C67.1929 63.0675 69.4686 62.2548 70.2813 60.8732C71.5816 58.5163 69.6311 54.0463 64.9986 48.7636C59.7971 42.9119 51.9137 36.8165 42.8111 31.615C30.6202 24.6256 18.1043 20.2369 10.1396 20.2369Z" fill="#151515"/>
<path d="M10.1394 66.3184C4.36905 66.3184 1.93087 64.2054 0.874329 62.4986C-1.32003 58.7601 0.630511 53.2336 6.56341 46.6505C12.0087 40.555 20.1359 34.2158 29.5636 28.8518C42.2421 21.5372 55.327 16.986 63.8606 16.986C69.631 16.986 72.0691 19.0991 73.1257 20.8058C75.32 24.5443 73.3695 30.0709 67.4366 36.6539C61.9913 42.7494 53.8641 49.0887 44.4364 54.4526C31.7579 61.7672 18.673 66.3184 10.1394 66.3184ZM63.8606 20.2369C55.8959 20.2369 43.3799 24.6256 31.189 31.615C22.0865 36.8978 14.203 42.9932 9.00159 48.7636C4.36905 53.965 2.33724 58.5163 3.71887 60.7919C4.5316 62.2548 6.80723 62.9863 10.1394 62.9863C18.1041 62.9863 30.6201 58.5975 42.811 51.6081C51.9135 46.3254 59.797 40.2299 64.9984 34.4596C69.631 29.2581 71.6628 24.7069 70.2811 22.4312C69.3871 21.0496 67.1115 20.2369 63.8606 20.2369Z" fill="#151515"/>
<path d="M72.8964 50.7572C73.3278 48.0988 71.5225 45.594 68.8641 45.1626C66.2057 44.7311 63.7009 46.5364 63.2695 49.1948C62.838 51.8532 64.6433 54.358 67.3017 54.7895C69.9601 55.2209 72.4649 53.4156 72.8964 50.7572Z" fill="#D03D29"/>
<path d="M28.6696 16.2545C31.3627 16.2545 33.5459 14.0713 33.5459 11.3782C33.5459 8.68503 31.3627 6.50181 28.6696 6.50181C25.9764 6.50181 23.7932 8.68503 23.7932 11.3782C23.7932 14.0713 25.9764 16.2545 28.6696 16.2545Z" fill="#D03D29"/>
<path d="M12.8214 69.4881C15.5146 69.4881 17.6978 67.3049 17.6978 64.6117C17.6978 61.9186 15.5146 59.7354 12.8214 59.7354C10.1283 59.7354 7.94507 61.9186 7.94507 64.6117C7.94507 67.3049 10.1283 69.4881 12.8214 69.4881Z" fill="#D03D29"/>
<path d="M37.3657 49.1699C33.2208 49.1699 29.8074 45.8377 29.8074 41.6116C29.8074 37.3854 33.2208 34.0532 37.3657 34.0532C41.5106 34.0532 44.8428 37.3854 44.8428 41.6116C44.8428 45.8377 41.5106 49.1699 37.3657 49.1699ZM37.3657 37.3854C35.0088 37.3854 33.0583 39.3359 33.0583 41.6928C33.0583 44.0497 35.0088 46.0003 37.3657 46.0003C39.7226 46.0003 41.5919 44.0497 41.5919 41.6928C41.5919 39.3359 39.6414 37.3854 37.3657 37.3854Z" fill="#151515"/>
</svg>
