<svg width="66" height="83" viewBox="0 0 66 83" fill="none" xmlns="http://www.w3.org/2000/svg">
<path d="M53.5431 24.086C53.2074 23.7503 52.7878 23.3307 52.3682 22.995L54.6341 20.4773C55.0537 20.8969 55.4733 21.3165 55.8929 21.7361L53.5431 24.086Z" fill="#282D33"/>
<path d="M32.73 77.5451C31.8908 77.5451 31.0516 77.5451 30.2123 77.4611L30.4641 74.1042C31.5551 74.1881 32.6461 74.1881 33.7371 74.1881L33.821 77.5451C33.4853 77.5451 33.0657 77.5451 32.73 77.5451ZM37.4297 77.2094L36.9262 73.8524C38.0172 73.6846 39.0243 73.5167 40.1153 73.1811L40.9545 76.4541C39.8635 76.7897 38.6047 77.0415 37.4297 77.2094ZM26.6876 76.9576C25.5126 76.7058 24.3377 76.4541 23.1628 76.1184L24.1699 72.9293C25.177 73.265 26.268 73.5168 27.359 73.6846L26.6876 76.9576ZM44.3954 75.3631L43.2204 72.2579C44.2275 71.8383 45.2346 71.4187 46.1577 70.9151L47.6684 73.9364C46.6613 74.4399 45.5703 74.9434 44.3954 75.3631ZM19.7219 74.8595C18.6309 74.356 17.5399 73.8524 16.4489 73.265L18.1274 70.3277C19.0506 70.8312 20.0576 71.3347 21.0647 71.7544L19.7219 74.8595ZM50.8574 72.0901L49.0111 69.3206C49.9343 68.7331 50.7735 68.0617 51.6128 67.3904L53.7948 69.992C52.7877 70.6634 51.8645 71.4187 50.8574 72.0901ZM13.4277 71.3347C12.4206 70.6634 11.4975 69.8241 10.6582 69.0688L12.9242 66.5511C13.7634 67.3064 14.6026 67.9778 15.4419 68.5653L13.4277 71.3347ZM56.3964 67.4743L53.9626 65.1244C54.7179 64.3691 55.3893 63.5299 56.0607 62.6907L58.7462 64.7048C57.9909 65.628 57.2356 66.5511 56.3964 67.4743ZM8.14055 66.4672C7.38524 65.544 6.62993 64.6209 5.87462 63.6138L8.64409 61.6836C9.23155 62.6067 9.90293 63.446 10.6582 64.2013L8.14055 66.4672ZM60.7604 61.6836L57.907 60.0051C58.4945 59.082 58.998 58.0749 59.4176 57.1517L62.4388 58.5784C61.9353 59.5855 61.4318 60.6765 60.7604 61.6836ZM4.02831 60.5087C3.44085 59.4177 2.93731 58.3266 2.43377 57.2356L5.53893 55.9768C5.95855 56.9839 6.37816 57.991 6.96562 58.9141L4.02831 60.5087ZM63.7816 55.1376L60.5925 54.0466C60.9282 53.0395 61.18 51.9485 61.4318 50.9414L64.7048 51.6128C64.453 52.8716 64.2012 54.0466 63.7816 55.1376ZM1.25885 53.7948C0.923155 52.6199 0.671385 51.445 0.419616 50.27L3.69262 49.6826C3.94439 50.7736 4.19616 51.8646 4.44793 52.8716L1.25885 53.7948ZM65.2922 48.088L61.9353 47.7523C62.0192 46.7453 62.1031 45.8221 62.1031 44.815V44.4793H65.4601V44.815C65.4601 45.906 65.3762 46.997 65.2922 48.088ZM0.0839232 46.7453C0 46.0739 0 45.4864 0 44.815C0 44.2276 0 43.6401 0.0839232 43.0526L3.44085 43.2205C3.44085 43.724 3.44085 44.2276 3.44085 44.815C3.44085 45.4025 3.44085 45.9899 3.52477 46.4935L0.0839232 46.7453ZM61.8514 41.2902C61.6835 40.1992 61.5157 39.1082 61.2639 38.1012L64.5369 37.3459C64.7887 38.5208 65.0405 39.6957 65.2083 40.8706L61.8514 41.2902ZM3.77654 40.0314L0.503539 39.5279C0.671385 38.3529 0.923155 37.178 1.25885 36.0031L4.53185 36.9262C4.19616 37.9333 3.94439 38.9404 3.77654 40.0314ZM60.4247 34.996C60.089 33.9889 59.6694 32.9819 59.1658 31.9748L62.1871 30.4642C62.6906 31.5552 63.1942 32.6462 63.6138 33.8211L60.4247 34.996ZM5.45501 33.8211L2.34985 32.5622C2.76946 31.4712 3.35693 30.3802 3.86047 29.2892L6.79778 30.8838C6.37816 31.8069 5.87462 32.814 5.45501 33.8211ZM57.5713 29.1214C56.9838 28.1982 56.3964 27.359 55.725 26.5198L58.3266 24.4217C59.0819 25.3448 59.7533 26.3519 60.4247 27.359L57.5713 29.1214ZM8.56016 28.1143L5.7907 26.1841C6.46208 25.177 7.21739 24.2538 7.9727 23.3307L10.4904 25.5127C9.90293 26.3519 9.23155 27.1912 8.56016 28.1143Z" fill="#151515"/>
<path d="M12.9241 23.1628L10.6582 20.7291C11.0778 20.3094 11.4974 19.9738 12.001 19.5541L14.0991 22.1558C13.6794 22.4914 13.2598 22.8271 12.9241 23.1628Z" fill="#282D33"/>
<path d="M32.73 62.4388C32.73 56.3964 28.1982 51.5288 22.4075 50.8574C22.4075 51.1092 22.4075 51.277 22.4075 51.5288V71.4186C22.4075 77.4611 26.9393 82.3286 32.73 83" fill="#FC4128"/>
<path d="M32.73 62.4388C32.73 56.3964 37.2618 51.5288 43.0525 50.8574C43.0525 51.1092 43.0525 51.277 43.0525 51.5288V71.4186C43.0525 77.4611 38.5207 82.3286 32.73 83" fill="#FC4128"/>
<path d="M18.8828 1.93018C18.8828 2.18195 18.8828 2.43371 18.8828 2.68548V26.3518C18.8828 33.4853 24.2539 39.3599 31.2195 40.1991C31.2195 39.9474 31.2195 39.6956 31.2195 39.4438V15.6936C31.2195 8.56011 25.7645 2.68548 18.8828 1.93018Z" fill="#F8F1F1"/>
<path d="M32.7301 42.0455L30.9677 41.8776C23.0789 40.9545 17.1204 34.3245 17.1204 26.3518V2.68551C17.1204 2.43374 17.1204 2.09805 17.1204 1.84628L17.2043 0.0838928L18.9667 0.251739C26.8554 1.17489 32.814 7.80482 32.814 15.7775V39.4439C32.814 39.6956 32.814 40.0313 32.814 40.2831L32.7301 42.0455ZM20.4773 3.94436V26.3518C20.4773 31.9747 24.2538 36.7583 29.4571 38.185V15.6936C29.541 10.1547 25.7644 5.37105 20.4773 3.94436Z" fill="#151515"/>
<path d="M25.3452 21.2325V38.185C27.5272 39.5278 30.0449 40.2831 32.7305 40.2831C40.4514 40.2831 46.6617 34.0727 46.6617 26.3518V2.68548C46.6617 2.43371 46.6617 2.18195 46.6617 1.93018C46.0742 1.84625 45.4029 1.84625 44.8154 1.84625C34.0732 1.84625 25.3452 10.4903 25.3452 21.2325Z" fill="#F8F1F1"/>
<path d="M32.7304 41.9616C29.7931 41.9616 26.9398 41.1223 24.4221 39.6117L23.6667 39.1082V21.2325C23.6667 9.56721 33.1501 0.167816 44.7315 0.167816C45.4028 0.167816 46.0742 0.167816 46.7456 0.251739L48.1723 0.419586L48.2562 1.84628C48.2562 2.09805 48.2562 2.43374 48.2562 2.68551V26.3518C48.3402 34.9959 41.2906 41.9616 32.7304 41.9616ZM27.0237 37.1779C28.7861 38.1011 30.7163 38.6046 32.7304 38.6046C39.4443 38.6046 44.9832 33.1496 44.9832 26.3518V3.52474C35.0803 3.3569 27.0237 11.4135 27.0237 21.2325V37.1779Z" fill="#151515"/>
<path d="M32.7302 35.2477C31.891 35.2477 31.1357 35.1638 30.3804 34.912V21.2325C30.3804 14.3508 35.164 8.64407 41.6261 7.21738V26.3519C41.6261 31.3033 37.5978 35.2477 32.7302 35.2477Z" fill="#FC4128"/>
<path d="M29.5405 9.1476C31.0511 7.30129 32.8974 5.62283 34.9955 4.4479C33.6527 3.44082 32.0582 2.60159 30.2118 1.76236C28.3655 2.51767 26.771 3.44082 25.4282 4.36398C27.1067 5.70675 28.5334 7.30129 29.5405 9.1476Z" fill="#F8F1F1"/>
<path d="M29.2887 12.2528L28.1138 9.98686C27.2746 8.30839 25.9318 6.8817 24.4212 5.7907L22.491 4.44793L24.4212 3.10516C25.8479 2.09808 27.6103 1.17492 29.4566 0.335693L30.128 0L30.7994 0.25177C32.7296 1.091 34.492 2.01416 35.9187 3.10516L38.0168 4.61577L35.7508 5.95855C33.8206 7.04955 32.1421 8.56016 30.7994 10.2386L29.2887 12.2528ZM28.1977 4.61577C28.7852 5.20324 29.2887 5.7907 29.7084 6.37816C30.3797 5.70678 31.0511 5.03539 31.8064 4.53185C31.219 4.19616 30.7154 3.94439 30.0441 3.69262C29.4566 3.94439 28.7852 4.28008 28.1977 4.61577Z" fill="#151515"/>
<path d="M34.4084 39.9474H31.0515V82.8322H34.4084V39.9474Z" fill="#151515"/>
</svg>
