<svg width="66" height="85" viewBox="0 0 66 85" fill="none" xmlns="http://www.w3.org/2000/svg">
<path d="M34.4269 0H31.0098V4.69849H34.4269V0Z" fill="#F8F1F1"/>
<path d="M25.8965 0.669751L22.5959 1.55409L23.8119 6.09237L27.1125 5.20802L25.8965 0.669751Z" fill="#F8F1F1"/>
<path d="M17.833 3.57778L14.8738 5.28632L17.223 9.35521L20.1822 7.64667L17.833 3.57778Z" fill="#F8F1F1"/>
<path d="M10.8011 8.35919L8.38452 10.7751L11.7064 14.0978L14.1229 11.682L10.8011 8.35919Z" fill="#F8F1F1"/>
<path d="M5.24184 14.9173L3.53296 17.8765L7.60185 20.2262L9.31074 17.267L5.24184 14.9173Z" fill="#F8F1F1"/>
<path d="M1.59259 22.6039L0.708252 25.9044L5.24653 27.1204L6.13087 23.8198L1.59259 22.6039Z" fill="#F8F1F1"/>
<path d="M4.69849 31.01H0V34.4271H4.69849V31.01Z" fill="#F8F1F1"/>
<path d="M5.19184 38.3239L0.653564 39.5394L1.53756 42.84L6.07584 41.6245L5.19184 38.3239Z" fill="#F8F1F1"/>
<path d="M7.6187 45.2609L3.5498 47.6101L5.25835 50.5693L9.32724 48.2201L7.6187 45.2609Z" fill="#F8F1F1"/>
<path d="M57.892 45.329L56.1831 48.2882L60.252 50.6379L61.9609 47.6787L57.892 45.329Z" fill="#F8F1F1"/>
<path d="M60.2821 38.3508L59.3975 41.6514L63.9357 42.8678L64.8204 39.5673L60.2821 38.3508Z" fill="#F8F1F1"/>
<path d="M65.4375 31.01H60.739V34.4271H65.4375V31.01Z" fill="#F8F1F1"/>
<path d="M63.8828 22.6106L59.3445 23.8265L60.2288 27.1271L64.7671 25.9111L63.8828 22.6106Z" fill="#F8F1F1"/>
<path d="M60.2305 14.861L56.1616 17.2102L57.8702 20.1694L61.9391 17.8202L60.2305 14.861Z" fill="#F8F1F1"/>
<path d="M54.6763 8.42363L51.354 11.7459L53.7702 14.1622L57.0925 10.8399L54.6763 8.42363Z" fill="#F8F1F1"/>
<path d="M47.6266 3.50607L45.2788 7.5759L48.2387 9.28342L50.5865 5.21358L47.6266 3.50607Z" fill="#F8F1F1"/>
<path d="M39.5922 0.68135L38.3762 5.21962L41.6768 6.10397L42.8928 1.56569L39.5922 0.68135Z" fill="#F8F1F1"/>
<path d="M53.8067 51.2335L51.3901 53.6494L54.712 56.9722L57.1285 54.5563L53.8067 51.2335Z" fill="#F8F1F1"/>
<path d="M11.6827 51.2262L8.36035 54.5485L10.7766 56.9647L14.0989 53.6424L11.6827 51.2262Z" fill="#F8F1F1"/>
<path d="M21.9548 30.5829V29.1306L33.4875 12.8995L43.5679 29.1306V30.5829" fill="#151515"/>
<path d="M45.2767 30.5829H41.8596V29.6432L33.4024 15.9749L23.6637 29.7286V30.5829H20.2466V28.6181L33.5732 9.82412L45.2767 28.6181V30.5829Z" fill="#F8F1F1"/>
<path d="M43.6535 30.6684H21.7842V73.0402H43.6535V30.6684Z" fill="#151515"/>
<path d="M42.0305 32.3769V71.3317H23.5782V32.3769H42.0305ZM45.4476 28.9598H20.1611V74.7488H45.4476V28.9598Z" fill="#F8F1F1"/>
<path d="M30.7538 31.7789H27.3367V73.5528H30.7538V31.7789Z" fill="#F8F1F1"/>
<path d="M37.8441 31.7789H34.427V73.5528H37.8441V31.7789Z" fill="#F8F1F1"/>
<path d="M36.9896 15.9749H30.5825V19.392H36.9896V15.9749Z" fill="#F8F1F1"/>
<path d="M20.0754 78.2513V83.2915C20.0754 84.2312 20.8443 85 21.784 85H43.7388C44.6785 85 45.4473 84.2312 45.4473 83.2915V78.2513H20.0754Z" fill="#D03D29"/>
</svg>
