<svg width="57" height="74" viewBox="0 0 57 74" fill="none" xmlns="http://www.w3.org/2000/svg">
<path d="M54.3407 51.5322L52.176 49.4422C53.9675 47.5761 53.4449 43.2467 50.7578 37.8724C47.772 31.8262 42.5469 25.1083 36.0529 18.9129C29.5589 12.7174 22.617 7.79093 16.4216 5.10375C10.898 2.71515 6.56862 2.34193 4.77717 4.20802C2.46321 6.59663 4.03073 12.8667 8.73329 20.2564L6.1954 21.8986C0.522471 12.9414 -0.821118 5.7009 2.6125 2.118C5.37432 -0.718467 10.7487 -0.643823 17.6159 2.34193C24.1099 5.1784 31.3504 10.3288 38.143 16.7482C44.8609 23.1676 50.3099 30.1841 53.4449 36.5288C56.8039 43.3214 57.1025 48.6211 54.3407 51.5322Z" fill="#151515"/>
<path d="M7.53883 54.5926C5.07559 54.5926 3.13485 53.9209 1.79126 52.5026L3.95593 50.4126C5.74738 52.2787 10.0021 51.9055 15.5257 49.5169C21.6465 46.8297 28.5138 41.9778 35.0078 35.8571C41.4271 29.7363 46.6522 23.0183 49.638 17.0468C52.3251 11.6725 52.8476 7.41775 51.0562 5.55166C48.8915 3.31234 43.2186 4.28271 36.2767 8.0149L34.8585 5.40237C43.2186 0.774453 49.9365 0.102659 53.1462 3.46163C55.908 6.37274 55.5348 11.5978 52.2505 18.3158C49.1154 24.5858 43.7411 31.5277 37.0231 37.9471C30.3052 44.3664 23.1394 49.4422 16.72 52.2787C13.2118 53.7716 10.0767 54.5926 7.53883 54.5926Z" fill="#151515"/>
<path d="M51.5788 6.37269C51.4295 6.07411 51.2056 5.77554 50.9817 5.55161L53.1464 3.46158C53.5942 3.90944 53.9674 4.50659 54.266 5.10374L51.5788 6.37269Z" fill="#282D33"/>
<path d="M7.53903 54.5926C6.79259 54.5926 6.12079 54.518 5.449 54.3687L6.04615 51.4576C6.79259 51.6069 7.61367 51.6069 8.58404 51.5322L8.88262 54.518C8.43475 54.518 7.91225 54.5926 7.53903 54.5926ZM12.0923 53.9208L11.3459 51.0097C12.1669 50.7858 13.1373 50.4872 14.033 50.114L15.0781 52.8758C14.033 53.3237 12.988 53.6223 12.0923 53.9208ZM2.01538 52.7265C1.94074 52.6519 1.8661 52.5772 1.71681 52.5026C0.895726 51.6815 0.373219 50.6365 0.0746438 49.4422L2.98575 48.7704C3.13504 49.4422 3.43362 50.0394 3.88148 50.4872C3.95612 50.5619 3.95612 50.5619 4.03077 50.6365L2.01538 52.7265ZM17.9145 51.6815L16.6456 48.9943C17.4667 48.6211 18.3624 48.1733 19.2581 47.6507L20.6763 50.2633C19.7806 50.7858 18.8102 51.2337 17.9145 51.6815ZM23.3635 48.6958L21.796 46.1579C22.6171 45.6354 23.4382 45.1129 24.2592 44.5904L25.9761 47.0536C25.0803 47.6508 24.1846 48.1733 23.3635 48.6958ZM2.98575 46.2325L0 45.9339C0.0746438 44.9636 0.298575 43.8439 0.671794 42.7243L3.50826 43.5453C3.20968 44.5157 3.0604 45.4114 2.98575 46.2325ZM28.3647 45.2621L26.5732 42.8735C27.3196 42.2764 28.1407 41.6792 28.8872 41.0821L30.7533 43.3961C30.0068 44.0678 29.1857 44.665 28.3647 45.2621ZM33.1419 41.4553L31.2011 39.216C31.9476 38.6188 32.694 37.9471 33.4404 37.2753L35.4558 39.5146C34.7094 40.1117 33.9629 40.7835 33.1419 41.4553ZM4.47863 40.8582L1.71681 39.7385C2.09003 38.8428 2.53789 37.8724 3.0604 36.902L5.74757 38.2456C5.22507 39.1414 4.85185 40.0371 4.47863 40.8582ZM37.6951 37.3499L35.6051 35.1852C36.3515 34.5134 37.0233 33.767 37.6951 33.0952L39.8598 35.1852C39.1134 35.9317 38.4416 36.6035 37.6951 37.3499ZM41.9498 32.9459L39.7105 30.9305C40.3823 30.1841 41.0541 29.4377 41.6513 28.6912L43.9652 30.632C43.2934 31.453 42.6216 32.1995 41.9498 32.9459ZM45.8313 28.2434L43.4427 26.3773C44.0399 25.5562 44.637 24.8097 45.2342 23.9887L47.6974 25.7055C47.1003 26.6012 46.5031 27.4223 45.8313 28.2434ZM49.4142 23.2422L46.8763 21.6747C47.3988 20.8536 47.9213 19.9579 48.3692 19.2115L50.9817 20.7043C50.5339 21.5254 50.0114 22.4211 49.4142 23.2422ZM52.4746 17.8679L49.7874 16.5989C50.2353 15.7032 50.6085 14.8075 50.9071 13.9864L53.6689 15.0314C53.3703 15.9271 52.9225 16.8975 52.4746 17.8679ZM54.6393 11.8964L51.7282 11.2246C51.9521 10.2542 52.0267 9.43311 52.0267 8.68667L55.0125 8.61203V8.68667C55.0125 9.65704 54.8632 10.7767 54.6393 11.8964Z" fill="#282D33"/>
<path d="M7.16582 35.7077L4.62793 34.1402C4.85186 33.6923 5.15044 33.2445 5.44901 32.8712L7.9869 34.5134C7.61368 34.8866 7.38975 35.3345 7.16582 35.7077Z" fill="#282D33"/>
<path d="M51.5788 6.37269C51.4295 6.07411 51.2056 5.77554 50.9817 5.55161L53.1464 3.46158C53.5942 3.90944 53.9674 4.50659 54.266 5.10374L51.5788 6.37269Z" fill="#282D33"/>
<path d="M7.53903 54.5926C6.79259 54.5926 6.12079 54.518 5.449 54.3687L6.04615 51.4576C6.79259 51.6069 7.61367 51.6069 8.58404 51.5322L8.88262 54.518C8.43475 54.518 7.91225 54.5926 7.53903 54.5926ZM12.0923 53.9208L11.3459 51.0097C12.1669 50.7858 13.1373 50.4872 14.033 50.114L15.0781 52.8758C14.033 53.3237 12.988 53.6223 12.0923 53.9208ZM2.01538 52.7265C1.94074 52.6519 1.8661 52.5772 1.71681 52.5026C0.895726 51.6815 0.373219 50.6365 0.0746438 49.4422L2.98575 48.7704C3.13504 49.4422 3.43362 50.0394 3.88148 50.4872C3.95612 50.5619 3.95612 50.5619 4.03077 50.6365L2.01538 52.7265ZM17.9145 51.6815L16.6456 48.9943C17.4667 48.6211 18.3624 48.1733 19.2581 47.6508L20.6763 50.2633C19.7806 50.7858 18.8102 51.2337 17.9145 51.6815ZM23.3635 48.6958L21.796 46.1579C22.6171 45.6354 23.4382 45.1129 24.2592 44.5904L25.9761 47.0536C25.0803 47.6508 24.1846 48.1733 23.3635 48.6958ZM2.98575 46.2325L0 45.9339C0.0746438 44.9636 0.298575 43.8439 0.671794 42.7243L3.50826 43.5453C3.20968 44.5157 3.0604 45.4114 2.98575 46.2325ZM28.3647 45.2621L26.5732 42.8736C27.3196 42.2764 28.1407 41.6792 28.8872 41.0821L30.7533 43.3961C30.0068 44.0678 29.1857 44.665 28.3647 45.2621ZM33.1419 41.4553L31.2011 39.216C31.9476 38.6188 32.694 37.9471 33.4404 37.2753L35.4558 39.5146C34.7094 40.1117 33.9629 40.7835 33.1419 41.4553ZM4.47863 40.8582L1.71681 39.7385C2.09003 38.8428 2.53789 37.8724 3.0604 36.902L5.74757 38.2456C5.22507 39.1414 4.85185 40.0371 4.47863 40.8582ZM37.6951 37.3499L35.6051 35.1852C36.3515 34.5134 37.0233 33.767 37.6951 33.0952L39.8598 35.1852C39.1134 35.9317 38.4416 36.6035 37.6951 37.3499ZM41.9498 32.9459L39.7105 30.9305C40.3823 30.1841 41.0541 29.4377 41.6513 28.6912L43.9652 30.632C43.2934 31.453 42.6216 32.1995 41.9498 32.9459ZM45.8313 28.2434L43.4427 26.3773C44.0399 25.5562 44.637 24.8097 45.2342 23.9887L47.6974 25.7055C47.1003 26.6012 46.5031 27.4223 45.8313 28.2434ZM49.4142 23.2422L46.8763 21.6747C47.3988 20.8536 47.9213 19.9579 48.3692 19.2115L50.9817 20.7043C50.5339 21.5254 50.0114 22.4211 49.4142 23.2422ZM52.4746 17.8679L49.7874 16.5989C50.2353 15.7032 50.6085 14.8075 50.9071 13.9864L53.6689 15.0314C53.3703 15.9271 52.9225 16.8975 52.4746 17.8679ZM54.6393 11.8964L51.7282 11.2246C51.9521 10.2542 52.0267 9.43311 52.0267 8.68667L55.0125 8.61203V8.68667C55.0125 9.65704 54.8632 10.7767 54.6393 11.8964Z" fill="#151515"/>
<path d="M7.16582 35.7077L4.62793 34.1402C4.85186 33.6923 5.15044 33.2445 5.44901 32.8712L7.9869 34.5134C7.61368 34.8866 7.38975 35.3345 7.16582 35.7077Z" fill="#282D33"/>
<path d="M35.3067 49.2929C34.8589 49.0689 34.411 48.7704 33.9631 48.5464L35.456 46.0085C35.9039 46.2325 36.2771 46.5311 36.725 46.755L35.3067 49.2929Z" fill="#282D33"/>
<path d="M47.2495 53.5476C46.2792 53.473 45.1595 53.249 44.0398 52.9505L44.7863 50.0394C45.7566 50.3379 46.727 50.4872 47.5481 50.5619L47.2495 53.5476ZM50.7578 53.3983L50.1606 50.4872C50.9817 50.3379 51.6535 49.9647 52.1014 49.5168L54.1914 51.6815C53.2957 52.5772 52.1014 53.1744 50.7578 53.3983ZM40.9794 51.9801C40.0091 51.6069 39.0387 51.2337 38.0683 50.7112L39.3373 48.024C40.233 48.4718 41.1287 48.8451 42.0245 49.2183L40.9794 51.9801ZM55.9828 48.3225L53.0717 47.6507C53.1464 47.2029 53.221 46.755 53.221 46.2325C53.221 45.8593 53.221 45.4861 53.1464 45.1129L56.1321 44.8143C56.2068 45.3368 56.2068 45.7847 56.2068 46.2325C56.2068 46.979 56.1321 47.6507 55.9828 48.3225ZM52.6239 42.4257C52.3999 41.6046 52.0267 40.6342 51.6535 39.7385L54.4153 38.5442C54.8632 39.5892 55.2364 40.6342 55.535 41.53L52.6239 42.4257ZM50.3846 37.0513C49.9367 36.2302 49.4888 35.3345 48.9663 34.5134L51.5042 32.9459C52.0267 33.8416 52.5492 34.812 53.0717 35.7077L50.3846 37.0513ZM47.3242 31.9755C46.8017 31.1545 46.2045 30.3334 45.6074 29.5123L47.996 27.7208C48.5931 28.5419 49.2649 29.4377 49.7874 30.2587L47.3242 31.9755ZM43.7413 27.1983C43.1441 26.4519 42.4723 25.6308 41.8005 24.8844L44.0398 22.9436C44.7116 23.6901 45.3834 24.5112 46.0552 25.3322L43.7413 27.1983ZM39.7851 22.7197C39.1133 21.9733 38.4416 21.3015 37.6951 20.555L39.7851 18.465C40.5316 19.2115 41.2034 19.9579 41.9498 20.7043L39.7851 22.7197ZM35.6051 18.465C34.8587 17.7932 34.1122 17.1214 33.3658 16.4496L35.3065 14.2103C36.0529 14.8821 36.7994 15.5539 37.6205 16.3003L35.6051 18.465ZM31.0518 14.5089C30.3054 13.8371 29.4843 13.2399 28.7379 12.6428L30.5293 10.2542C31.3504 10.8513 32.1715 11.5231 32.9179 12.1949L31.0518 14.5089ZM26.3493 10.8513C25.5282 10.2542 24.7071 9.73169 23.886 9.20918L25.5282 6.67129C26.3493 7.1938 27.245 7.79095 28.0661 8.3881L26.3493 10.8513ZM21.3481 7.64166C20.4524 7.11915 19.6313 6.67129 18.7356 6.22343L20.0792 3.53625C20.9749 3.98411 21.8706 4.50662 22.841 5.02913L21.3481 7.64166ZM16.0484 4.95448C15.078 4.58126 14.1823 4.20805 13.3612 3.90947L14.257 1.073C15.2273 1.37158 16.1977 1.7448 17.2427 2.19266L16.0484 4.95448ZM10.5994 3.23768C9.62904 3.08839 8.73331 3.01374 7.91223 3.01374L7.76294 0.0279914C8.80795 -0.0466524 9.92761 0.0279914 11.1219 0.251923L10.5994 3.23768Z" fill="#282D33"/>
<path d="M4.77746 4.2081L2.61279 2.11807C3.06066 1.67021 3.58316 1.22234 4.18031 0.923767L5.59855 3.5363C5.29997 3.76023 5.0014 3.98416 4.77746 4.2081Z" fill="#282D33"/>
<path d="M35.3067 49.2929C34.8589 49.0689 34.411 48.7704 33.9631 48.5464L35.456 46.0085C35.9039 46.2325 36.2771 46.5311 36.725 46.755L35.3067 49.2929Z" fill="#282D33"/>
<path d="M47.2495 53.5476C46.2792 53.473 45.1595 53.249 44.0398 52.9505L44.7863 50.0394C45.7566 50.3379 46.727 50.4872 47.5481 50.5619L47.2495 53.5476ZM50.7578 53.3983L50.1606 50.4872C50.9817 50.3379 51.6535 49.9647 52.1014 49.5168L54.1914 51.6815C53.2957 52.5772 52.1014 53.1744 50.7578 53.3983ZM40.9794 51.9801C40.0091 51.6069 39.0387 51.2337 38.0683 50.7112L39.3373 48.024C40.233 48.4718 41.1287 48.8451 42.0245 49.2183L40.9794 51.9801ZM55.9828 48.3225L53.0717 47.6507C53.1464 47.2029 53.221 46.755 53.221 46.2325C53.221 45.8593 53.221 45.4861 53.1464 45.1129L56.1321 44.8143C56.2068 45.3368 56.2068 45.7847 56.2068 46.2325C56.2068 46.979 56.1321 47.6507 55.9828 48.3225ZM52.6239 42.4257C52.3999 41.6046 52.0267 40.6342 51.6535 39.7385L54.4153 38.5442C54.8632 39.5892 55.2364 40.6342 55.535 41.53L52.6239 42.4257ZM50.3846 37.0513C49.9367 36.2302 49.4888 35.3345 48.9663 34.5134L51.5042 32.9459C52.0267 33.8416 52.5492 34.812 53.0717 35.7077L50.3846 37.0513ZM47.3242 31.9755C46.8017 31.1545 46.2045 30.3334 45.6074 29.5123L47.996 27.7208C48.5931 28.5419 49.2649 29.4377 49.7874 30.2587L47.3242 31.9755ZM43.7413 27.1983C43.1441 26.4519 42.4723 25.6308 41.8005 24.8844L44.0398 22.9436C44.7116 23.6901 45.3834 24.5112 46.0552 25.3322L43.7413 27.1983ZM39.7851 22.7197C39.1133 21.9733 38.4416 21.3015 37.6951 20.555L39.7851 18.465C40.5316 19.2115 41.2034 19.9579 41.9498 20.7043L39.7851 22.7197ZM35.6051 18.465C34.8587 17.7932 34.1122 17.1214 33.3658 16.4496L35.3065 14.2103C36.0529 14.8821 36.7994 15.5539 37.6205 16.3003L35.6051 18.465ZM31.0518 14.5089C30.3054 13.8371 29.4843 13.2399 28.7379 12.6428L30.5293 10.2542C31.3504 10.8513 32.1715 11.5231 32.9179 12.1949L31.0518 14.5089ZM26.3493 10.8513C25.5282 10.2542 24.7071 9.73169 23.886 9.20918L25.5282 6.67129C26.3493 7.1938 27.245 7.79095 28.0661 8.3881L26.3493 10.8513ZM21.3481 7.64166C20.4524 7.11915 19.6313 6.67129 18.7356 6.22343L20.0792 3.53625C20.9749 3.98411 21.8706 4.50662 22.841 5.02913L21.3481 7.64166ZM16.0484 4.95448C15.078 4.58126 14.1823 4.20805 13.3612 3.90947L14.257 1.073C15.2273 1.37158 16.1977 1.7448 17.2427 2.19266L16.0484 4.95448ZM10.5994 3.23768C9.62904 3.08839 8.73331 3.01374 7.91223 3.01374L7.76294 0.0279914C8.80795 -0.0466524 9.92761 0.0279914 11.1219 0.251923L10.5994 3.23768Z" fill="#151515"/>
<path d="M4.77746 4.2081L2.61279 2.11807C3.06066 1.67021 3.58316 1.22234 4.18031 0.923767L5.59855 3.5363C5.29997 3.76023 5.0014 3.98416 4.77746 4.2081Z" fill="#282D33"/>
<path d="M15.3018 59.8923H40.1582C40.3075 57.5037 40.83 54.4433 42.3229 52.5026C51.5041 40.7088 52.1012 29.4376 52.1012 28.6165C52.1012 15.1807 41.2032 4.20801 27.6927 4.20801C14.2568 4.20801 3.28418 15.106 3.28418 28.6165C3.28418 29.4376 3.88133 40.6342 13.0625 52.5026C14.63 54.4433 15.1525 57.5037 15.3018 59.8923Z" fill="#FC4128"/>
<path d="M11.3459 28.5419H8.36011C8.36011 17.8678 17.0934 9.20911 27.7675 9.20911V12.1949C18.661 12.1949 11.3459 19.51 11.3459 28.5419Z" fill="#F8F1F1"/>
<path d="M43.592 58.698H11.8684V61.6838H43.592V58.698Z" fill="#151515"/>
<path d="M43.592 64.8188H11.8684V67.8045H43.592V64.8188Z" fill="#151515"/>
<path d="M37.0982 71.0143H18.4373V74H37.0982V71.0143Z" fill="#151515"/>
<path d="M17.0934 60.4895H14.1077V66.9835H17.0934V60.4895Z" fill="#151515"/>
<path d="M7.53883 54.5926C5.07559 54.5926 3.13485 53.9208 1.79126 52.5026L3.95593 50.4126C5.74738 52.2786 10.0021 51.9054 15.5257 49.5168C21.6465 46.8296 28.5138 41.9778 35.0078 35.857C41.4271 29.7362 46.6522 23.0183 49.638 17.0468C52.3251 11.6724 52.8476 7.4177 51.0562 5.55161L53.2209 3.46158C55.9827 6.37269 55.6095 11.5978 52.3251 18.3157C49.1901 24.5858 43.8157 31.5277 37.0978 37.947C30.3052 44.3664 23.1394 49.4422 16.72 52.2786C13.2118 53.7715 10.0767 54.5926 7.53883 54.5926Z" fill="#151515"/>
<path d="M54.341 51.5322L52.1763 49.4422C53.9677 47.5761 53.4452 43.2467 50.7581 37.8724C47.7723 31.8262 42.5472 25.1083 36.0532 18.9129C29.5592 12.7174 22.6173 7.79093 16.4219 5.10375C10.8983 2.71515 6.56892 2.34193 4.77746 4.20802L2.61279 2.118C5.37461 -0.718467 10.749 -0.643823 17.6162 2.34193C24.1102 5.1784 31.3507 10.3288 38.1433 16.7482C44.8612 23.1676 50.3102 30.1841 53.4452 36.5288C56.8042 43.3214 57.1028 48.6211 54.341 51.5322Z" fill="#151515"/>
</svg>
