<svg width="80" height="62" viewBox="0 0 80 62" fill="none" xmlns="http://www.w3.org/2000/svg">
<path d="M47.3759 58.716C47.3759 59.136 47.0399 59.472 46.6199 59.472H2.43593C2.01593 59.472 1.67993 59.136 1.67993 58.716V2.436C1.67993 2.016 2.01593 1.68 2.43593 1.68H46.7039C47.1239 1.68 47.4599 2.016 47.4599 2.436V58.716H47.3759Z" fill="#151515"/>
<path d="M46.704 61.152H2.436C1.092 61.152 0 60.06 0 58.716V2.436C0 1.092 1.092 0 2.436 0H46.704C48.048 0 49.14 1.092 49.14 2.436V58.716C49.056 60.06 47.964 61.152 46.704 61.152ZM3.36 57.792H45.696V3.36H3.36V57.792Z" fill="#F8F1F1"/>
<path d="M41.1599 35.868H24.2759V52.752H41.1599V35.868Z" fill="#D03D29"/>
<path d="M36.9598 44.94H28.3918V48.3H36.9598V44.94Z" fill="#151515"/>
<path d="M36.9598 40.236H28.3918V43.596H36.9598V40.236Z" fill="#151515"/>
<path d="M42.756 54.432H6.30005V17.976H42.756V54.432ZM9.66005 51.072H39.396V21.336H9.66005V51.072Z" fill="#282D33"/>
<path d="M42.42 7.22398H6.63599V15.204H42.42V7.22398Z" fill="#D03D29"/>
<path d="M42.756 54.432H6.30005V17.976H42.756V54.432ZM9.66005 51.072H39.396V21.336H9.66005V51.072Z" fill="#F8F1F1"/>
<path d="M26.2919 19.656H22.9319V52.584H26.2919V19.656Z" fill="#F8F1F1"/>
<path d="M41.0757 34.44H8.14771V37.8H41.0757V34.44Z" fill="#F8F1F1"/>
<path d="M20.328 26.292H11.76V29.652H20.328V26.292Z" fill="#F8F1F1"/>
<path d="M17.7238 23.688H14.3638V32.256H17.7238V23.688Z" fill="#F8F1F1"/>
<path d="M37.2116 26.292H28.6436V29.652H37.2116V26.292Z" fill="#151515"/>
<path d="M14.2163 40.4808L11.8408 42.857L17.9001 48.9146L20.2756 46.5384L14.2163 40.4808Z" fill="#F8F1F1"/>
<path d="M17.8988 40.4836L11.8403 46.542L14.2162 48.9179L20.2746 42.8594L17.8988 40.4836Z" fill="#F8F1F1"/>
<path d="M76.4399 59.472L66.4439 24.864L56.4479 59.472L53.2559 58.548L66.4439 12.852L79.7159 58.548L76.4399 59.472Z" fill="#F8F1F1"/>
<path d="M66.4439 21.168C62.6639 21.168 59.5559 18.06 59.5559 14.28C59.5559 10.5 62.6639 7.39199 66.4439 7.39199C70.2239 7.39199 73.3319 10.5 73.3319 14.28C73.3319 18.06 70.2239 21.168 66.4439 21.168ZM66.4439 10.836C64.5119 10.836 62.9159 12.432 62.9159 14.364C62.9159 16.296 64.5119 17.892 66.4439 17.892C68.3759 17.892 69.9719 16.296 69.9719 14.364C69.9719 12.348 68.3759 10.836 66.4439 10.836Z" fill="#F8F1F1"/>
<path d="M68.1237 0.588011H64.7637V8.48401H68.1237V0.588011Z" fill="#F8F1F1"/>
<path d="M66.444 42.42C62.076 42.42 57.708 41.496 53.676 39.564L55.104 36.54C62.328 39.984 70.56 39.984 77.784 36.54L79.212 39.564C75.18 41.496 70.812 42.42 66.444 42.42Z" fill="#F8F1F1"/>
<path d="M36.636 29.36L36.636 26L30 26L30 29.36L36.636 29.36Z" fill="#F8F1F1"/>
</svg>
