<svg width="78" height="80" viewBox="0 0 78 80" fill="none" xmlns="http://www.w3.org/2000/svg">
<path d="M28.0736 6.87451C18.0417 2.44182 6.29895 7.03005 1.86625 17.0619C-2.56645 27.0938 2.02179 38.8366 12.0537 43.2693C22.0856 47.702 33.8283 43.1138 38.261 33.0819C42.6937 23.05 38.1055 11.3072 28.0736 6.87451Z" fill="#FC4128"/>
<path d="M40.5943 67.1437C36.3172 67.1437 32.1955 66.2882 28.2294 64.4996C12.6761 57.6561 5.6771 39.4587 12.5206 23.9832C17.4199 12.8625 28.4627 5.63025 40.6721 5.63025C44.9493 5.63025 49.0709 6.48568 53.037 8.27432C60.5026 11.6183 66.3351 17.6063 69.2902 25.3052C72.2453 33.0041 72.0898 41.3251 68.7458 48.7907C63.8465 59.9891 52.8037 67.1437 40.5943 67.1437Z" fill="#151515"/>
<path d="M40.6721 7.18558C44.5605 7.18558 48.6043 7.96325 52.4149 9.67411C67.1128 16.2065 73.8007 33.4707 67.3461 48.1686C62.5245 59.0559 51.7928 65.5883 40.5944 65.5883C36.706 65.5883 32.6622 64.8107 28.8516 63.0998C14.1537 56.6452 7.388 39.381 13.9204 24.6053C18.7419 13.718 29.4737 7.18558 40.6721 7.18558ZM40.6721 4.07492C27.8406 4.07492 16.2534 11.696 11.043 23.361C3.8885 39.692 11.2763 58.8226 27.6073 65.9772C31.729 67.7658 36.0839 68.699 40.5944 68.699C53.4258 68.699 65.0131 61.1556 70.2234 49.4129C73.7229 41.5584 73.8785 32.7708 70.7678 24.6831C67.6571 16.5953 61.5913 10.2962 53.6591 6.79675C49.5375 5.00812 45.1826 4.07492 40.6721 4.07492Z" fill="#F8F1F1"/>
<path d="M73.9562 5.94129C73.7229 5.63022 73.4896 5.24139 73.2563 5.00809L75.5116 2.83062C75.9782 3.29722 76.367 3.84159 76.6781 4.38596L73.9562 5.94129Z" fill="#F8F1F1"/>
<path d="M11.5095 75.3091L11.2762 72.1985C12.2094 72.1207 13.1426 71.9652 14.1535 71.8096L14.7757 74.8425C13.6869 75.0758 12.5982 75.2314 11.5095 75.3091ZM8.08773 75.2314C6.7657 75.0758 5.5992 74.687 4.58823 74.1426L6.0658 71.4208C6.7657 71.8096 7.62113 72.0429 8.55433 72.1985L8.08773 75.2314ZM18.0419 74.0649L17.1087 71.032C18.0419 70.7209 18.9751 70.4098 19.986 70.021L21.1525 72.8984C20.0638 73.365 19.0528 73.7538 18.0419 74.0649ZM24.1077 71.7319L22.7856 68.9323C23.7188 68.5434 24.652 68.0768 25.5075 67.6102L26.9073 70.4098C25.9741 70.7987 25.0409 71.2653 24.1077 71.7319ZM1.71087 71.5763C1.01097 70.5654 0.544366 69.3989 0.2333 68.1546L3.2662 67.5325C3.42173 68.3879 3.81056 69.1656 4.1994 69.8655L1.71087 71.5763ZM29.7846 68.7767L28.2293 66.0549C29.0847 65.5883 30.0179 65.0439 30.8734 64.4996L32.5065 67.1436C31.651 67.688 30.7178 68.2324 29.7846 68.7767ZM35.2283 65.4328L33.5174 62.8665C34.3728 62.3221 35.2283 61.7 36.0837 61.1556L37.8723 63.7219C37.0169 64.2663 36.0837 64.8106 35.2283 65.4328ZM3.11067 64.7329L0 64.5773C0.0777666 63.4886 0.2333 62.3999 0.4666 61.2334L3.4995 61.8555C3.2662 62.8665 3.11067 63.8774 3.11067 64.7329ZM40.4386 61.7777L38.5722 59.2892C39.4277 58.6671 40.2053 58.0449 41.0608 57.4228L43.0049 59.8336C42.1495 60.4557 41.2941 61.1556 40.4386 61.7777ZM4.27716 59.0559L1.32203 58.1227C1.6331 57.1117 2.02193 56.1008 2.48853 55.0898L5.3659 56.2563C4.8993 57.1895 4.58823 58.1227 4.27716 59.0559ZM45.4157 57.8116L43.3938 55.4009C44.1714 54.7787 44.9491 54.0788 45.7268 53.3789L47.7487 55.7119C47.0488 56.4118 46.2711 57.1117 45.4157 57.8116ZM50.2372 53.6122L48.1375 51.2792C48.8374 50.6571 49.5373 50.035 50.1595 49.3351L50.3928 49.1018L52.5702 51.357L52.3369 51.5903C51.637 52.368 50.9371 52.9901 50.2372 53.6122ZM6.5324 53.4567L3.7328 52.0569C4.1994 51.1237 4.666 50.1905 5.21036 49.1795L7.9322 50.6571C7.4656 51.5903 6.999 52.5235 6.5324 53.4567ZM54.8255 49.2573L52.648 47.0798C53.3479 46.3022 54.1256 45.6023 54.8255 44.8246L57.0807 47.0021C56.303 47.702 55.5254 48.4796 54.8255 49.2573ZM59.1804 44.5913L56.8474 42.4916C57.5473 41.7139 58.2472 40.9363 58.8693 40.1586L61.2023 42.1805C60.5802 43.036 59.8803 43.8136 59.1804 44.5913ZM63.302 39.7698L60.8913 37.8256C61.5912 37.0479 62.2133 36.1925 62.8354 35.4148L65.324 37.2812C64.7018 38.1367 64.0019 38.9921 63.302 39.7698ZM67.1904 34.7149L64.7018 32.9263C65.324 32.0709 65.9461 31.2154 66.4905 30.36L69.0568 32.0709C68.4346 33.0041 67.8125 33.8595 67.1904 34.7149ZM70.7676 29.4268L68.1236 27.7937C68.6679 26.9383 69.2123 26.0051 69.6789 25.1496L72.4007 26.705C71.9341 27.5604 71.3898 28.4936 70.7676 29.4268ZM73.9561 23.8276L71.1565 22.4278C71.6231 21.4946 72.0897 20.5614 72.4785 19.6282L75.3559 20.8725C74.8893 21.8834 74.4227 22.8944 73.9561 23.8276ZM76.4446 17.9173L73.4895 16.9064C73.8005 15.8954 74.1116 14.9622 74.3449 14.029L77.3778 14.7289C77.1445 15.7399 76.8334 16.8286 76.4446 17.9173ZM77.9222 11.385L74.8115 11.1517C74.8115 10.7628 74.8893 10.374 74.8893 9.98515C74.8893 9.44079 74.8115 8.89642 74.7337 8.35205L77.8444 7.88545C77.9222 8.58535 77.9999 9.28525 77.9999 9.98515C77.9999 10.4518 77.9999 10.9184 77.9222 11.385Z" fill="#F8F1F1"/>
<path d="M9.56496 48.013L6.9209 46.3799C7.23196 45.9133 7.46527 45.5245 7.77633 45.0579L10.4204 46.7688C10.1093 47.1576 9.79826 47.6242 9.56496 48.013Z" fill="#F8F1F1"/>
<path d="M10.2654 75.3869C6.92147 75.3869 4.2774 74.4537 2.48877 72.5095L4.744 70.3321C7.46583 73.2094 13.7649 72.8206 22.0082 69.1656C30.8736 65.2773 40.8277 58.2783 50.1597 49.3351C59.4917 40.4697 66.9573 30.7489 71.2345 22.1168C75.2006 14.029 75.9782 7.80771 73.1786 4.93034C69.9902 1.58637 61.5136 2.90841 51.2484 8.5076L49.7709 5.70801C61.7469 -0.746625 71.0789 -1.75759 75.5116 2.83064C79.2444 6.79674 78.7778 14.1068 74.1118 23.5943C69.6791 32.5375 61.9802 42.4916 52.3372 51.6681C42.7719 60.7668 32.4289 68.0768 23.2525 72.0429C18.2754 74.2204 13.8427 75.3869 10.2654 75.3869Z" fill="#F8F1F1"/>
<path d="M22.3968 71.7319C22.3968 75.3092 19.5194 78.1865 15.9422 78.1865C12.3649 78.1865 9.48755 75.3092 9.48755 71.7319C9.48755 68.1546 12.3649 65.2773 15.9422 65.2773C19.5194 65.2773 22.3968 68.1546 22.3968 71.7319Z" fill="#151515"/>
<path d="M15.8645 79.7419C11.4318 79.7419 7.85449 76.1646 7.85449 71.7319C7.85449 67.2992 11.4318 63.7219 15.8645 63.7219C20.2972 63.7219 23.8744 67.2992 23.8744 71.7319C23.9522 76.1646 20.2972 79.7419 15.8645 79.7419ZM15.8645 66.8326C13.1426 66.8326 10.9652 69.0101 10.9652 71.7319C10.9652 74.4537 13.1426 76.6312 15.8645 76.6312C18.5863 76.6312 20.7638 74.4537 20.7638 71.7319C20.8415 69.0101 18.5863 66.8326 15.8645 66.8326Z" fill="#F8F1F1"/>
</svg>
