<svg width="72" height="75" viewBox="0 0 72 75" fill="none" xmlns="http://www.w3.org/2000/svg">
<path d="M51.0331 6.31033H12.2639V50.4039H51.0331V6.31033Z" fill="#FC4128"/>
<path d="M3.24395 64.0501H0V6.78363H0.158241C1.02857 2.91854 4.43076 0 8.54504 0H57.3625V56.7143H8.54504C5.53845 56.7143 3.16483 59.1595 3.16483 62.0781C3.16483 62.157 3.16483 62.157 3.16483 62.2359L3.24395 64.0501ZM3.16483 8.75561V55.5311C4.66812 54.3479 6.4879 53.638 8.54504 53.638H54.1977V3.15518H8.54504C5.61757 3.15518 3.24395 5.52156 3.16483 8.36122V8.75561Z" fill="#151515"/>
<path d="M55.7802 55.1367H42.3297H8.54514C4.74735 55.1367 1.58252 58.213 1.58252 62.078C1.58252 65.8643 4.66823 69.0194 8.54514 69.0194H42.4088H55.8593V55.1367H55.7802Z" fill="white"/>
<path d="M57.3625 70.5971H8.54504C3.7978 70.5971 0 66.8109 0 62.0781C0 57.4242 3.7978 53.5591 8.54504 53.5591H57.3625V70.5971ZM8.54504 56.7143C5.53845 56.7143 3.16483 59.1595 3.16483 62.0781C3.16483 64.9966 5.53845 67.4419 8.54504 67.4419H54.1977V56.7143H8.54504Z" fill="#151515"/>
<path d="M70.4176 4.89054V2.20864C70.4176 1.81424 70.1011 1.57761 69.6264 1.57761H63.6923C63.2176 1.57761 62.822 1.81424 62.822 2.20864V4.89054" fill="#F8F1F1"/>
<path d="M71.9999 4.89052H68.8351V3.15518H64.4043V4.89052H61.2395V2.20862C61.2395 1.02543 62.2681 0 63.6922 0H69.6263C70.9713 0 71.9999 0.946553 71.9999 2.20862V4.89052Z" fill="#151515"/>
<path d="M22.0747 74.541L17.011 71.3858L11.9473 74.541V62.7091H17.011H22.0747V74.541Z" fill="#FC4128"/>
<path d="M55.7801 60.8948H7.99121V64.05H55.7801V60.8948Z" fill="#151515"/>
<path d="M9.57352 2.20865H6.40869V54.6635H9.57352V2.20865Z" fill="#151515"/>
<path d="M70.4967 8.75568H62.9011V45.5135H70.4967V8.75568Z" fill="#FC4128"/>
<path d="M71.9999 47.091H61.3186V7.17807H71.9999V47.091ZM64.4834 43.9359H68.8351V10.3332H64.4043V43.9359H64.4834Z" fill="#FC4128"/>
<path d="M66.6197 60.7371L61.3186 47.4854V45.9867H64.4834V46.8543L66.6197 52.297L68.8351 46.8543V45.9867H71.9999V47.4854L66.6197 60.7371Z" fill="#151515"/>
<path d="M42.5674 25.0836H21.2048V28.2388H42.5674V25.0836Z" fill="#151515"/>
<path d="M40.1141 18.3789H23.7361V21.5341H40.1141V18.3789Z" fill="#151515"/>
</svg>
