<svg width="76" height="76" viewBox="0 0 76 76" fill="none" xmlns="http://www.w3.org/2000/svg">
<path d="M38 76C30.5428 76 23.3236 73.858 17.0564 69.6534L3.9666 75.762L8.48852 61.8789C3.01461 55.1357 0 46.6472 0 38C0 17.0564 17.0564 0 38 0V3.17328C18.8017 3.17328 3.17328 18.8017 3.17328 38C3.17328 46.2505 6.10856 54.2631 11.4238 60.5303L11.9791 61.2443L9.20251 69.8121L17.2944 66.0042L18.0084 66.5595C23.8789 70.6848 30.7808 72.8267 37.9207 72.8267C57.119 72.8267 72.7474 57.1983 72.7474 38H75.9207C75.9207 58.9436 58.9436 76 38 76Z" fill="#F8F1F1"/>
<path d="M75.9203 38H72.7471C72.7471 37.524 72.7471 36.9687 72.7471 36.4927L75.9203 36.334C75.9203 36.8894 75.9203 37.4447 75.9203 38Z" fill="#F8F1F1"/>
<path d="M72.509 33.3988C72.3503 32.3675 72.1916 31.4155 71.9536 30.3842L75.0476 29.6702C75.2856 30.7015 75.4442 31.8122 75.6029 32.9228L72.509 33.3988ZM71.1603 27.5282C70.843 26.5762 70.5257 25.6243 70.129 24.6723L73.0643 23.4823C73.4609 24.5136 73.8576 25.5449 74.1749 26.5762L71.1603 27.5282ZM68.8597 21.8957C68.3837 21.023 67.9077 20.1504 67.3524 19.2777L70.0497 17.5324C70.605 18.4844 71.1603 19.4364 71.7156 20.3884L68.8597 21.8957ZM65.6071 16.8184C64.9724 16.0251 64.3378 15.2318 63.6238 14.5178L66.0037 12.3758C66.7177 13.1691 67.4317 14.0418 68.1457 14.9144L65.6071 16.8184ZM61.4818 12.2965C60.7678 11.5825 59.9745 10.9478 59.1812 10.3132L61.0852 7.8539C61.9578 8.48856 62.8305 9.20255 63.6238 9.99587L61.4818 12.2965ZM56.7219 8.64722C55.8493 8.0919 54.9766 7.61591 54.1039 7.13992L55.5319 4.28397C56.4839 4.75996 57.4359 5.31528 58.3879 5.94994L56.7219 8.64722ZM51.3273 5.79127C50.3753 5.39461 49.4234 5.07729 48.4714 4.75996L49.4234 1.74534C50.4547 2.06267 51.486 2.45933 52.5173 2.85599L51.3273 5.79127ZM45.5361 3.96664C44.5841 3.72864 43.5528 3.56998 42.5215 3.41131L42.9181 0.238037C44.0288 0.396701 45.1394 0.555365 46.1708 0.793361L45.5361 3.96664Z" fill="#F8F1F1"/>
<path d="M39.5073 3.17328C39.0313 3.17328 38.476 3.17328 38 3.17328V0C38.5553 0 39.1106 0 39.666 0L39.5073 3.17328Z" fill="#151515"/>
<path d="M66.1628 37.6033C66.1628 53.5491 53.2317 66.4802 37.286 66.4802C21.3403 66.4802 8.40918 53.5491 8.40918 37.6033C8.40918 21.6576 21.3403 8.7265 37.286 8.7265C53.2317 8.7265 66.1628 21.6576 66.1628 37.6033Z" fill="#FC4128"/>
<path d="M34.478 29.9V36.547H26.152V29.9H23.162V46H26.152V39.1H34.478V46H37.468V29.9H34.478ZM42.9551 31.694C44.0361 31.694 44.7951 30.912 44.7951 29.9C44.7951 28.957 44.0131 28.244 42.9551 28.244C41.8971 28.244 41.1151 29.003 41.1151 29.969C41.1151 30.935 41.8971 31.694 42.9551 31.694ZM41.5061 46H44.3811V33.718H41.5061V46ZM48.3386 40.664H50.6156L51.1906 29.9H47.7866L48.3386 40.664ZM49.4886 46.161C50.5466 46.161 51.3056 45.356 51.3056 44.367C51.3056 43.378 50.5466 42.596 49.4886 42.596C48.4076 42.596 47.6256 43.378 47.6256 44.367C47.6256 45.356 48.4076 46.161 49.4886 46.161Z" fill="#151515"/>
</svg>
