<svg width="80" height="76" viewBox="0 0 80 76" fill="none" xmlns="http://www.w3.org/2000/svg">
<path d="M78.1198 68.628H74.7598V75.264H78.1198V68.628Z" fill="#F8F1F1"/>
<path d="M47.5439 58.716C47.5439 59.136 47.2079 59.472 46.7879 59.472H2.6039C2.1839 59.472 1.8479 59.136 1.8479 58.716V2.436C1.8479 2.016 2.1839 1.68 2.6039 1.68H46.8719C47.2919 1.68 47.6279 2.016 47.6279 2.436V58.716H47.5439Z" fill="#F8F1F1"/>
<path d="M46.872 61.152H2.60397C1.25997 61.152 0.167969 60.06 0.167969 58.716V2.436C0.167969 1.092 1.25997 0 2.60397 0H46.872C48.216 0 49.308 1.092 49.308 2.436V58.716C49.224 60.06 48.132 61.152 46.872 61.152ZM3.52797 57.792H45.864V3.36H3.52797V57.792Z" fill="#151515"/>
<path d="M41.3278 35.868H24.4438V52.752H41.3278V35.868Z" fill="#D03D29"/>
<path d="M37.1278 44.94H28.5598V48.3H37.1278V44.94Z" fill="#F8F1F1"/>
<path d="M37.1278 40.236H28.5598V43.596H37.1278V40.236Z" fill="#F8F1F1"/>
<path d="M42.924 54.432H6.46802V17.976H42.924V54.432ZM9.82802 51.072H39.564V21.336H9.82802V51.072Z" fill="#282D33"/>
<path d="M42.588 7.22398H6.80396V15.204H42.588V7.22398Z" fill="#D03D29"/>
<path d="M42.924 54.432H6.46802V17.976H42.924V54.432ZM9.82802 51.072H39.564V21.336H9.82802V51.072Z" fill="#151515"/>
<path d="M26.4599 19.656H23.0999V52.584H26.4599V19.656Z" fill="#151515"/>
<path d="M41.2437 34.44H8.31567V37.8H41.2437V34.44Z" fill="#151515"/>
<path d="M20.496 26.292H11.928V29.652H20.496V26.292Z" fill="#151515"/>
<path d="M17.8917 23.688H14.5317V32.256H17.8917V23.688Z" fill="#151515"/>
<path d="M37.3795 26.292H28.8115V29.652H37.3795V26.292Z" fill="#151515"/>
<path d="M14.3843 40.4808L12.0088 42.857L18.0681 48.9146L20.4436 46.5384L14.3843 40.4808Z" fill="#151515"/>
<path d="M18.0667 40.4836L12.0083 46.542L14.3842 48.9179L20.4426 42.8594L18.0667 40.4836Z" fill="#151515"/>
<path d="M76.6078 59.472L66.6118 24.864L56.6158 59.472L53.4238 58.548L66.6118 12.852L79.8838 58.548L76.6078 59.472Z" fill="#151515"/>
<path d="M66.6119 21.168C62.8319 21.168 59.7239 18.06 59.7239 14.28C59.7239 10.5 62.8319 7.39199 66.6119 7.39199C70.3919 7.39199 73.4999 10.5 73.4999 14.28C73.4999 18.06 70.3919 21.168 66.6119 21.168ZM66.6119 10.836C64.6799 10.836 63.0839 12.432 63.0839 14.364C63.0839 16.296 64.6799 17.892 66.6119 17.892C68.5439 17.892 70.1399 16.296 70.1399 14.364C70.1399 12.348 68.5439 10.836 66.6119 10.836Z" fill="#151515"/>
<path d="M68.2916 0.588011H64.9316V8.48401H68.2916V0.588011Z" fill="#151515"/>
<path d="M66.612 42.42C62.244 42.42 57.876 41.496 53.844 39.564L55.272 36.54C62.496 39.984 70.728 39.984 77.952 36.54L79.38 39.564C75.348 41.496 70.98 42.42 66.612 42.42Z" fill="#151515"/>
</svg>
