<svg width="76" height="74" viewBox="0 0 76 74" fill="none" xmlns="http://www.w3.org/2000/svg">
<path d="M76 4.70796H0V39.4572H76V4.70796Z" fill="#FC4128"/>
<path d="M72.936 4.70796H3.58691V39.4572H72.936V4.70796Z" fill="#151515"/>
<path d="M38.1125 58.3638V6.87512C38.1125 3.88594 35.7212 1.49459 32.6573 1.49459H5.00732V39.4572" fill="white"/>
<path d="M39.6071 58.3638H36.6179V6.87512C36.6179 4.78269 34.8991 2.98918 32.732 2.98918H6.50188V39.4572H3.5127V0H32.732C36.5432 0 39.6071 3.06391 39.6071 6.87512V58.3638Z" fill="#F8F1F1"/>
<path d="M38.2617 58.3638V6.87512C38.2617 3.88594 40.6531 1.49459 43.717 1.49459H71.4417V39.4572" fill="white"/>
<path d="M39.7563 58.3638H36.7671V6.87512C36.7671 3.06391 39.831 0 43.7169 0H72.9362V39.4572H69.947V2.98918H43.7169C41.5498 2.98918 39.7563 4.78269 39.7563 6.87512V58.3638Z" fill="#F8F1F1"/>
<path d="M23.3901 7.99608H10.5366V10.9853H23.3901V7.99608Z" fill="#F8F1F1"/>
<path d="M32.2829 15.0207H10.5366V18.0099H32.2829V15.0207Z" fill="#F8F1F1"/>
<path d="M32.2829 21.9705H10.5366V24.9597H32.2829V21.9705Z" fill="#F8F1F1"/>
<path d="M32.2829 28.8456H10.5366V31.8348H32.2829V28.8456Z" fill="#F8F1F1"/>
<path d="M32.2829 35.7207H10.5366V38.7099H32.2829V35.7207Z" fill="#F8F1F1"/>
<path d="M65.0896 35.7207H43.3433V38.7099H65.0896V35.7207Z" fill="#F8F1F1"/>
<path d="M65.0896 14.9459H43.418V31.7601H65.0896V14.9459Z" fill="#FC4128"/>
<path d="M71.4414 71.1426C71.4414 71.7404 70.993 72.1888 70.3952 72.1888H6.20246C5.60463 72.1888 5.15625 71.7404 5.15625 71.1426V44.763C5.15625 44.1652 5.60463 43.7168 6.20246 43.7168H70.3952C70.993 43.7168 71.4414 44.1652 71.4414 44.763V71.1426Z" fill="white"/>
<path d="M70.3951 73.7581H6.20243C4.78256 73.7581 3.66162 72.6372 3.66162 71.2173V44.763C3.66162 43.3432 4.78256 42.2222 6.20243 42.2222H70.3951C71.815 42.2222 72.936 43.3432 72.936 44.763V71.1426C72.936 72.5624 71.7403 73.7581 70.3951 73.7581ZM6.57608 70.7689H69.9468V45.2114H6.57608V70.7689Z" fill="#F8F1F1"/>
<path d="M15.4693 49.471H10.4624V52.4601H15.4693V49.471Z" fill="#F8F1F1"/>
<path d="M23.9131 49.471H18.9062V52.4601H23.9131V49.471Z" fill="#F8F1F1"/>
<path d="M32.358 49.471H27.3511V52.4601H32.358V49.471Z" fill="#F8F1F1"/>
<path d="M40.7271 49.471H35.7202V52.4601H40.7271V49.471Z" fill="#F8F1F1"/>
<path d="M49.1724 49.471H44.1655V52.4601H49.1724V49.471Z" fill="#F8F1F1"/>
<path d="M57.6163 49.471H52.6094V52.4601H57.6163V49.471Z" fill="#F8F1F1"/>
<path d="M65.9864 49.471H60.9795V52.4601H65.9864V49.471Z" fill="#F8F1F1"/>
<path d="M15.4693 56.4956H10.4624V59.4847H15.4693V56.4956Z" fill="#F8F1F1"/>
<path d="M23.9131 56.4956H18.9062V59.4847H23.9131V56.4956Z" fill="#F8F1F1"/>
<path d="M32.358 56.4956H27.3511V59.4847H32.358V56.4956Z" fill="#F8F1F1"/>
<path d="M40.7271 56.4956H35.7202V59.4847H40.7271V56.4956Z" fill="#F8F1F1"/>
<path d="M49.1724 56.4956H44.1655V59.4847H49.1724V56.4956Z" fill="#F8F1F1"/>
<path d="M57.6163 56.4956H52.6094V59.4847H57.6163V56.4956Z" fill="#F8F1F1"/>
<path d="M65.9864 56.4956H60.9795V59.4847H65.9864V56.4956Z" fill="#F8F1F1"/>
<path d="M15.4693 63.4454H10.4624V66.4345H15.4693V63.4454Z" fill="#F8F1F1"/>
<path d="M23.9131 63.4454H18.9062V66.4345H23.9131V63.4454Z" fill="#F8F1F1"/>
<path d="M57.6913 63.4454H27.3511V66.4345H57.6913V63.4454Z" fill="#F8F1F1"/>
<path d="M65.9864 63.4454H60.9795V66.4345H65.9864V63.4454Z" fill="#F8F1F1"/>
<path d="M57.2427 23.6893L54.7766 25.1092L52.3105 26.529V23.6893V20.8496L54.7766 22.2694L57.2427 23.6893Z" fill="white"/>
</svg>
