<svg width="70" height="84" viewBox="0 0 70 84" fill="none" xmlns="http://www.w3.org/2000/svg">
<path d="M61.281 83.2911L35.0412 37.7782L8.71988 83.2911L5.94922 81.6628L35.0412 31.2647L64.1331 81.6628L61.281 83.2911Z" fill="#151515"/>
<path d="M36.6707 0H33.4111V82.477H36.6707V0Z" fill="#151515"/>
<path d="M70 11.519H0V66.1508H70V11.519Z" fill="#FC4128"/>
<path d="M26.403 16.7722H65.1108V61.6338H4.88965V16.7722H11.9793H26.403Z" fill="#F8F1F1"/>
<path d="M66.7406 63.2622H3.25977V15.1439H66.7406V63.2622ZM6.51937 60.0055H63.481V18.4006H6.51937V60.0055Z" fill="#151515"/>
<path d="M44.4931 10.7473H25.5059V16.4465H44.4931V10.7473Z" fill="#F8F1F1"/>
<path d="M46.1228 18.0749H23.876V9.11887H46.1228V18.0749ZM27.1356 14.8182H42.8632V12.3756H27.1356V14.8182Z" fill="#151515"/>
<path d="M21.5947 22.8786H11.001V33.463H21.5947V22.8786Z" fill="#FC4128"/>
<path d="M58.673 22.8786H53.7021V27.8451H58.673V22.8786Z" fill="#FC4128"/>
<path d="M43.1896 33.3816H21.5947V54.9575H43.1896V33.3816Z" fill="#FC4128"/>
<path d="M21.3503 41.1164C16.9498 41.1164 13.3643 37.5339 13.3643 33.1373C13.3643 28.7407 16.9498 25.1583 21.3503 25.1583C25.7508 25.1583 29.3363 28.7407 29.3363 33.1373C29.3363 37.6154 25.7508 41.1164 21.3503 41.1164ZM21.3503 28.4965C18.7426 28.4965 16.6239 30.6134 16.6239 33.2188C16.6239 35.8242 18.7426 37.941 21.3503 37.941C23.958 37.941 26.0767 35.8242 26.0767 33.2188C26.0767 30.6134 23.958 28.4965 21.3503 28.4965Z" fill="#151515"/>
<path d="M59.7325 51.8636H37.9746L48.8943 33.0559L59.7325 51.8636ZM43.6789 48.6068H54.1097L48.8943 39.5694L43.6789 48.6068Z" fill="#151515"/>
</svg>
