<svg width="16" height="10" fill="none" xmlns="http://www.w3.org/2000/svg"><path d="M8 .231c-3.057 0-5.83 1.673-7.875 4.39a.633.633 0 0 0 0 .755C2.171 8.096 4.943 9.77 8 9.77c3.057 0 5.83-1.673 7.875-4.39a.633.633 0 0 0 0-.755C13.829 1.904 11.057.23 8 .23zm.22 8.127a3.367 3.367 0 0 1-3.578-3.577A3.373 3.373 0 0 1 7.78 1.64a3.367 3.367 0 0 1 3.577 3.578A3.383 3.383 0 0 1 8.22 8.36zm-.102-1.551a1.81 1.81 0 0 1-1.925-1.925A1.82 1.82 0 0 1 7.885 3.19 1.81 1.81 0 0 1 9.81 5.115a1.82 1.82 0 0 1-1.692 1.692z" fill="#fff" fill-opacity=".7"/></svg>