<svg width="19" height="31" fill="none" xmlns="http://www.w3.org/2000/svg"><path d="M13.57 31v-4.3c3.328-.36 5.744-3.451 5.397-6.906a6.354 6.354 0 0 0-2.283-4.294c1.456-1.191 2.308-3.007 2.315-4.932-.01-3.22-2.346-5.918-5.428-6.269V0h-2.714v4.227H8.142V0H5.428v4.227H0v22.546h5.428V31h2.714v-4.227h2.715V31h2.714zM2.715 7.045h10.178c1.874 0 3.393 1.578 3.393 3.523 0 1.946-1.52 3.523-3.393 3.523H2.714V7.045zm0 16.91v-7.046h10.178c1.874 0 3.393 1.577 3.393 3.523 0 1.945-1.52 3.523-3.393 3.523H2.714z" fill="#6475CD"/></svg>