<svg width="34" height="34" fill="none" xmlns="http://www.w3.org/2000/svg"><path d="M29.018 4.982c-6.642-6.642-17.393-6.643-24.036 0-6.642 6.642-6.643 17.393 0 24.036 6.642 6.642 17.393 6.643 24.036 0 6.642-6.642 6.643-17.393 0-24.036zM17 31.204C9.168 31.204 2.796 24.832 2.796 17 2.796 9.168 9.168 2.796 17 2.796c7.832 0 14.204 6.372 14.204 14.204 0 7.832-6.372 14.204-14.204 14.204z" fill="#6475CD"/><path d="M19.002 8.87H14.33c-.726 0-1.314.598-1.314 1.337v5.456H11.66c-.725 0-1.313.598-1.313 1.337s.588 1.337 1.313 1.337h1.356v1.401H11.66c-.725 0-1.313.6-1.313 1.338 0 .738.588 1.337 1.313 1.337h1.356v1.38c0 .739.588 1.337 1.314 1.337.725 0 1.313-.598 1.313-1.337v-1.38h2.69c.726 0 1.314-.599 1.314-1.337 0-.739-.588-1.338-1.314-1.338h-2.69v-1.4h3.358c2.564 0 4.65-2.124 4.65-4.735 0-2.61-2.086-4.733-4.65-4.733zm0 6.793h-3.358v-4.119h3.358c1.115 0 2.023.924 2.023 2.06 0 1.135-.908 2.059-2.023 2.059z" fill="#6475CD"/></svg>