<svg width="27" height="27" fill="none" xmlns="http://www.w3.org/2000/svg"><path d="M10.327 20.904a.792.792 0 0 1-.79-.791.791.791 0 1 0-1.583 0 2.38 2.38 0 0 0 1.59 2.24v.692a.79.79 0 1 0 1.583 0v-.698a2.377 2.377 0 0 0 1.573-2.234 2.376 2.376 0 0 0-2.373-2.373.792.792 0 0 1 0-1.582.79.79 0 0 1 .791.79.791.791 0 1 0 1.582 0 2.377 2.377 0 0 0-1.573-2.234v-1.161a.791.791 0 1 0-1.582 0v1.156a2.377 2.377 0 0 0-1.59 2.24 2.376 2.376 0 0 0 2.372 2.373.792.792 0 0 1 0 1.582z" fill="#6475CD"/><path d="M3.224 25.708C4.87 26.59 7.13 27 10.336 27c2.608 0 4.571-.27 6.097-.845a2.369 2.369 0 0 0 1.813.845h6.381A2.376 2.376 0 0 0 27 24.627c0-.607-.23-1.162-.606-1.582a2.363 2.363 0 0 0 0-3.164 2.363 2.363 0 0 0 0-3.164c.377-.42.606-.975.606-1.582a2.376 2.376 0 0 0-2.373-2.373h-6.38c-.078 0-.154.004-.23.011a10.834 10.834 0 0 0-2.748-2.386c.375-.42.604-.974.604-1.58 0-.946-.556-1.763-1.358-2.145l1.32-4.044a.791.791 0 0 0-.753-1.036h-2.509A2.377 2.377 0 0 0 10.336 0a2.377 2.377 0 0 0-2.238 1.582H5.59a.791.791 0 0 0-.752 1.036l1.319 4.044a2.376 2.376 0 0 0-1.358 2.145c0 .607.23 1.16.605 1.58C2.231 12.304 0 15.942 0 19.882c0 2.721 1.085 4.682 3.224 5.827zm22.194-7.41a.792.792 0 0 1-.791.792h-6.38a.792.792 0 0 1 0-1.582h6.38c.436 0 .791.355.791.79zm0 3.165a.792.792 0 0 1-.791.79h-6.38a.792.792 0 0 1 0-1.581h6.38c.436 0 .791.355.791.79zm-.791 3.955h-6.38a.792.792 0 0 1 0-1.582h6.38a.792.792 0 0 1 0 1.582zm.791-10.283a.792.792 0 0 1-.791.79h-6.38a.792.792 0 0 1 0-1.581h6.38c.436 0 .791.355.791.79zm-11.94-5.537H7.171a.792.792 0 0 1-.003-1.582h6.333a.792.792 0 0 1-.002 1.582h-.022zM8.753 3.164a.79.79 0 0 0 .79-.791.792.792 0 0 1 1.583 0v1.582a.79.79 0 1 0 1.582 0v-.79h1.283l-1.066 3.269h-5.18L6.68 3.164h2.074zM7.326 11.18h6.017a8.938 8.938 0 0 1 3.2 2.305 2.365 2.365 0 0 0-.064 3.232 2.364 2.364 0 0 0 0 3.164 2.363 2.363 0 0 0 0 3.164c-.376.42-.606.975-.606 1.582l.001.048c-1.338.506-3.12.743-5.538.743-2.935 0-4.958-.351-6.365-1.105-1.63-.872-2.389-2.28-2.389-4.432 0-3.731 2.355-7.287 5.744-8.701z" fill="#6475CD"/></svg>