<svg width="26" height="26" fill="none" xmlns="http://www.w3.org/2000/svg"><path d="M24.4 4.803a2.911 2.911 0 0 0 .684-1.878A2.929 2.929 0 0 0 22.16 0a2.929 2.929 0 0 0-2.925 2.925c0 .714.258 1.37.684 1.878a3.519 3.519 0 0 0-1.6 2.94v1.23H16.84V7.744c0-1.187-.61-2.3-1.6-2.941a2.912 2.912 0 0 0 .685-1.878A2.929 2.929 0 0 0 13 0a2.929 2.929 0 0 0-2.925 2.925c0 .714.257 1.37.684 1.878a3.519 3.519 0 0 0-1.6 2.941v1.229H7.682V7.744a3.517 3.517 0 0 0-1.6-2.941 2.912 2.912 0 0 0 .685-1.878A2.929 2.929 0 0 0 3.84 0 2.929 2.929 0 0 0 .915 2.925c0 .714.258 1.37.685 1.878A3.52 3.52 0 0 0 0 7.744v17.491c0 .423.342.765.765.765h24.47a.765.765 0 0 0 .765-.765V7.744a3.52 3.52 0 0 0-1.6-2.941zm-2.24-3.274c.769 0 1.395.627 1.395 1.396a1.396 1.396 0 1 1-1.396-1.396zm-2.312 6.215c0-.698.375-1.352.977-1.705l.521-.304c.516.15 1.077.159 1.627 0l.52.305c.603.353.978 1.006.978 1.704v1.229h-4.623V7.744zM13 1.529c.77 0 1.396.627 1.396 1.396 0 .77-.626 1.396-1.396 1.396-.77 0-1.396-.626-1.396-1.396 0-.77.626-1.396 1.396-1.396zm-2.31 6.215c0-.698.373-1.352.976-1.705l.52-.304c.519.15 1.08.158 1.627 0l.521.305a1.98 1.98 0 0 1 .977 1.704v1.229h-4.622V7.744zM3.84 1.529a1.397 1.397 0 0 1 .001 2.792c-.77 0-1.396-.626-1.396-1.396 0-.77.626-1.396 1.396-1.396zM2.508 6.04l.52-.304a2.91 2.91 0 0 0 1.627 0l.521.305c.603.353.977 1.006.977 1.704v1.229H1.529v-1.23c0-.698.375-1.351.978-1.705zM24.47 24.471H1.529V10.502h22.942v13.969z" fill="#6475CD"/><path d="M22.058 14.026c-.64 0-1.162-.521-1.162-1.162a.765.765 0 0 0-.765-.765H5.87a.765.765 0 0 0-.765.765c0 .64-.52 1.162-1.162 1.162a.765.765 0 0 0-.764.764v5.392c0 .423.342.765.764.765.641 0 1.162.521 1.162 1.162 0 .422.343.764.765.764h14.262a.765.765 0 0 0 .765-.764c0-.64.521-1.162 1.162-1.162a.765.765 0 0 0 .765-.765v-5.391a.765.765 0 0 0-.765-.765zm-.765 5.502a2.703 2.703 0 0 0-1.816 1.816H6.523a2.703 2.703 0 0 0-1.816-1.816v-4.083a2.703 2.703 0 0 0 1.816-1.816h12.954c.258.87.946 1.557 1.816 1.816v4.083z" fill="#6475CD"/><path d="M7.511 16.181a.765.765 0 0 0-.765.765v1.08a.765.765 0 0 0 1.53 0v-1.08a.765.765 0 0 0-.765-.765zm10.979 0a.765.765 0 0 0-.766.765v1.08a.765.765 0 1 0 1.53 0v-1.08a.765.765 0 0 0-.765-.765zM13 15.192a2.297 2.297 0 0 0-2.294 2.294A2.297 2.297 0 0 0 13 19.78a2.297 2.297 0 0 0 2.294-2.294A2.297 2.297 0 0 0 13 15.192zm0 3.059a.766.766 0 1 1 .002-1.531.766.766 0 0 1-.002 1.53z" fill="#6475CD"/></svg>