<svg width="25" height="25" fill="none" xmlns="http://www.w3.org/2000/svg"><path d="M3.71 11.719a2.19 2.19 0 0 0 1.525-.617L7.39 12.18a2.191 2.191 0 0 0 2.18 2.468 2.2 2.2 0 0 0 1.983-3.144l2.93-2.93a2.2 2.2 0 0 0 3.043-2.64l2.546-1.908c.349.233.767.369 1.217.369a2.2 2.2 0 0 0 2.197-2.198A2.2 2.2 0 0 0 21.29 0a2.2 2.2 0 0 0-2.097 2.854l-2.545 1.91a2.184 2.184 0 0 0-1.217-.37 2.2 2.2 0 0 0-1.983 3.145l-2.93 2.93a2.19 2.19 0 0 0-2.47.402L5.89 9.792a2.19 2.19 0 0 0-2.18-2.469A2.2 2.2 0 0 0 1.513 9.52a2.2 2.2 0 0 0 2.197 2.2zM21.29 1.465a.733.733 0 0 1 0 1.465.733.733 0 0 1 0-1.465zm-5.86 4.394a.733.733 0 0 1 0 1.465.733.733 0 0 1 0-1.465zm-5.86 5.86a.733.733 0 0 1 0 1.465.733.733 0 0 1 0-1.465zm-5.86-2.93a.733.733 0 0 1 0 1.465.733.733 0 0 1 0-1.465z" fill="#6475CD"/><path d="M24.268 23.535h-.782V8.057a.732.732 0 0 0-.732-.733h-2.93a.732.732 0 0 0-.732.733v15.478h-1.465V12.451a.732.732 0 0 0-.732-.732h-2.93a.732.732 0 0 0-.733.732v11.084h-1.464v-5.224a.732.732 0 0 0-.733-.733h-2.93a.732.732 0 0 0-.732.733v5.224H5.908v-8.154a.732.732 0 0 0-.732-.733h-2.93a.732.732 0 0 0-.732.733v8.154H.732a.732.732 0 1 0 0 1.465h23.536a.732.732 0 1 0 0-1.465zM20.557 8.79h1.465v14.746h-1.465V8.79zm-5.86 4.395h1.465v10.351h-1.465V13.184zm-5.86 5.859h1.466v4.492H8.838v-4.492zm-5.858-2.93h1.464v7.422H2.98v-7.422z" fill="#6475CD"/></svg>