<svg width="27" height="27" fill="none" xmlns="http://www.w3.org/2000/svg"><path d="M26.249 17.941c.486-1.391.751-2.886.751-4.441a13.442 13.442 0 0 0-.794-4.563C24.33 3.732 19.343 0 13.5 0 7.657 0 2.67 3.732.794 8.937A13.441 13.441 0 0 0 0 13.5a13.441 13.441 0 0 0 .794 4.563C2.67 23.268 7.657 27 13.5 27c5.843 0 10.83-3.732 12.706-8.937a.975.975 0 0 0 .043-.122zM13.5 25.065c-.514 0-1.343-.93-2.036-3.01-.334-1.002-.602-2.155-.797-3.41h5.666c-.195 1.255-.463 2.408-.797 3.41-.693 2.08-1.522 3.01-2.036 3.01zm-3.068-8.355a35.823 35.823 0 0 1-.142-3.21c0-1.102.05-2.178.142-3.21h6.136a35.86 35.86 0 0 1 .142 3.21c0 1.102-.05 2.178-.142 3.21h-6.136zM1.935 13.5c0-1.113.159-2.19.454-3.21H8.49a37.667 37.667 0 0 0 0 6.42h-6.1a11.532 11.532 0 0 1-.454-3.21zM13.5 1.935c.514 0 1.343.93 2.036 3.01.334 1.002.602 2.156.797 3.41h-5.666c.195-1.255.463-2.408.797-3.41.693-2.08 1.522-3.01 2.036-3.01zm5.009 8.355h6.102c.295 1.02.454 2.097.454 3.21 0 1.114-.159 2.19-.454 3.21H18.51a37.68 37.68 0 0 0 0-6.42zm5.346-1.935h-5.568c-.345-2.374-.935-4.503-1.763-6.018a11.615 11.615 0 0 1 7.331 6.018zM10.476 2.337c-.828 1.515-1.419 3.644-1.763 6.018H3.145a11.616 11.616 0 0 1 7.331-6.018zM3.145 18.645h5.568c.344 2.374.935 4.503 1.763 6.018a11.615 11.615 0 0 1-7.331-6.018zm13.379 6.018c.828-1.515 1.418-3.644 1.763-6.018h5.568a11.615 11.615 0 0 1-7.331 6.018z" fill="#6475CD"/></svg>