<svg width="44" height="52" fill="none" xmlns="http://www.w3.org/2000/svg"><path d="M40.982 5.566L22.192.074l-.04-.011a1.903 1.903 0 0 0-.968 0l-.02.005-18.81 5.498A3.194 3.194 0 0 0 0 8.646v26.789a9.265 9.265 0 0 0 5.07 8.289l12.304 7.232.085.046a9.343 9.343 0 0 0 4.21.998 9.343 9.343 0 0 0 4.208-.998l.044-.022 12.345-7.256a9.265 9.265 0 0 0 5.07-8.289V8.645c0-1.44-.966-2.703-2.354-3.08zm-.692 29.869a6.233 6.233 0 0 1-3.441 5.592l-.044.022-12.342 7.254a6.318 6.318 0 0 1-5.59 0l-12.3-7.23-.085-.046a6.233 6.233 0 0 1-3.441-5.592V8.645c0-.065.044-.123.107-.14l18.514-5.41 18.476 5.4.038.01a.144.144 0 0 1 .108.14v26.79z" fill="#F5472E"/><path d="M21.669 11.893c-7.197 0-13.052 5.855-13.052 13.051 0 7.197 5.855 13.052 13.052 13.052 7.197 0 13.052-5.855 13.052-13.052 0-7.196-5.855-13.051-13.052-13.051zm0 23.056c-5.517 0-10.005-4.488-10.005-10.005 0-5.516 4.488-10.004 10.005-10.004s10.005 4.488 10.005 10.004c0 5.517-4.488 10.005-10.005 10.005z" fill="#F5472E"/><path d="M21.71 17.66c-.84 0-1.523.682-1.523 1.523v6.494a1.523 1.523 0 0 0 3.047 0v-6.494c0-.841-.682-1.523-1.523-1.523zm1.517 12.646a1.609 1.609 0 0 0-.174-.568 1.524 1.524 0 0 0-.264-.36 1.707 1.707 0 0 0-.232-.19 1.43 1.43 0 0 0-.263-.14 1.4 1.4 0 0 0-.14-.05 1.413 1.413 0 0 0-.293-.058 1.485 1.485 0 0 0-.593.059 1.434 1.434 0 0 0-.403.19 1.707 1.707 0 0 0-.332.3 1.646 1.646 0 0 0-.165.25 1.628 1.628 0 0 0-.114.274 1.634 1.634 0 0 0-.06.293 1.445 1.445 0 0 0 0 .3 1.83 1.83 0 0 0 .06.292 1.765 1.765 0 0 0 .114.275 1.598 1.598 0 0 0 .265.36 1.721 1.721 0 0 0 .232.189 1.68 1.68 0 0 0 .404.191 1.62 1.62 0 0 0 .293.059 1.867 1.867 0 0 0 .3 0 1.865 1.865 0 0 0 .292-.06 1.835 1.835 0 0 0 .274-.114c.045-.022.087-.049.129-.076a1.686 1.686 0 0 0 .232-.19 1.722 1.722 0 0 0 .188-.23 1.66 1.66 0 0 0 .191-.404 1.734 1.734 0 0 0 .06-.293 1.513 1.513 0 0 0 0-.3z" fill="#F5472E"/></svg>