<svg width="22" height="22" fill="none" xmlns="http://www.w3.org/2000/svg"><path d="M21.388 14.619C21.784 13.485 22 12.267 22 11a10.953 10.953 0 0 0-.647-3.718C19.825 3.04 15.76 0 11 0S2.175 3.04.647 7.282A10.952 10.952 0 0 0 0 11a10.952 10.952 0 0 0 .647 3.718C2.175 18.96 6.24 22 11 22s8.825-3.04 10.353-7.282a.804.804 0 0 0 .035-.1zM11 20.423c-.419 0-1.094-.758-1.659-2.452a17.267 17.267 0 0 1-.65-2.779h4.617a17.285 17.285 0 0 1-.649 2.78c-.565 1.693-1.24 2.451-1.659 2.451zm-2.5-6.807A29.212 29.212 0 0 1 8.384 11c0-.898.04-1.775.116-2.616h5a29.518 29.518 0 0 1 0 5.232h-5zM1.577 11c0-.907.129-1.785.37-2.615h4.972a30.69 30.69 0 0 0 0 5.23H1.946A9.397 9.397 0 0 1 1.576 11zM11 1.577c.419 0 1.094.758 1.659 2.452.272.817.49 1.757.65 2.779H8.69c.16-1.022.378-1.962.65-2.78.565-1.693 1.24-2.451 1.659-2.451zm4.081 6.808h4.973a9.405 9.405 0 0 1 0 5.231H15.08a30.69 30.69 0 0 0 0-5.231zm4.356-1.577H14.9c-.28-1.934-.761-3.67-1.436-4.904a9.464 9.464 0 0 1 5.973 4.904zm-10.9-4.904C7.86 3.14 7.38 4.874 7.1 6.808H2.562a9.465 9.465 0 0 1 5.974-4.904zM2.561 15.192H7.1c.28 1.934.761 3.67 1.436 4.904a9.464 9.464 0 0 1-5.974-4.904zm10.902 4.904c.675-1.235 1.156-2.97 1.436-4.904h4.537a9.464 9.464 0 0 1-5.973 4.904z" fill="#6475CD"/></svg>