<svg width="21" height="21" fill="none" xmlns="http://www.w3.org/2000/svg"><path d="M10.5 0C4.71 0 0 4.71 0 10.5S4.71 21 10.5 21 21 16.29 21 10.5 16.29 0 10.5 0zm0 19.09c-4.737 0-8.59-3.853-8.59-8.59s3.853-8.59 8.59-8.59 8.59 3.853 8.59 8.59-3.853 8.59-8.59 8.59z" fill="#fff"/><path d="M10.5 11.443c-.001 0 0 0 0 0a5.5 5.5 0 0 0-3.916 1.622.954.954 0 1 0 1.35 1.35 3.603 3.603 0 0 1 2.565-1.063c.969 0 1.88.378 2.565 1.063a.955.955 0 0 0 1.35-1.35 5.5 5.5 0 0 0-3.915-1.622zM7.328 9.364a1.28 1.28 0 0 0 .373-.9 1.28 1.28 0 0 0-.373-.9 1.283 1.283 0 0 0-.9-.373c-.335 0-.663.136-.9.373a1.283 1.283 0 0 0-.373.9c0 .334.136.663.373.9.237.236.565.372.9.372.335 0 .663-.136.9-.372zm7.245-2.173c-.335 0-.663.136-.9.373a1.28 1.28 0 0 0-.372.9c0 .334.135.663.373.9.236.236.565.372.9.372.334 0 .663-.136.9-.372a1.28 1.28 0 0 0 .372-.9 1.28 1.28 0 0 0-.373-.9 1.283 1.283 0 0 0-.9-.373z" fill="#fff"/></svg>