<svg width="21" height="24" fill="none" xmlns="http://www.w3.org/2000/svg"><path d="M20.528 9.738l-2.481-2.48a.574.574 0 0 0-.812 0L15.03 9.462l-.001.001-5.66 5.66a.574.574 0 0 0-.16.313l-.487 2.967a.574.574 0 0 0 .66.66l2.967-.487a.575.575 0 0 0 .313-.16l7.867-7.867a.574.574 0 0 0 0-.812zm-8.548 7.736l-1.996.327.327-1.996 5.123-5.123 1.67 1.668-5.124 5.124zm5.935-5.935l-1.669-1.67 1.395-1.394 1.67 1.669-1.396 1.395z" fill="#fff"/><path d="M17.73 15.543a.574.574 0 0 0-.573.574v6.735H1.148V1.929h16.009v3.742a.574.574 0 1 0 1.148 0V1.355a.574.574 0 0 0-.574-.574H.574A.574.574 0 0 0 0 1.355v22.07c0 .318.257.575.574.575h17.157a.574.574 0 0 0 .574-.574v-7.309a.574.574 0 0 0-.574-.574z" fill="#fff"/><path d="M7.515 4.004a.574.574 0 0 0-.812 0L4.515 6.192l-.866-.866a.574.574 0 0 0-.812.812L4.11 7.41a.573.573 0 0 0 .812 0l2.594-2.594a.574.574 0 0 0 0-.812zm0 6.763a.574.574 0 0 0-.812 0l-2.188 2.188-.866-.866a.574.574 0 0 0-.812.812l1.272 1.271a.572.572 0 0 0 .812 0l2.594-2.593a.574.574 0 0 0 0-.812zm-.812 6.763l-2.188 2.188-.866-.866a.574.574 0 0 0-.812.812l1.272 1.271a.574.574 0 0 0 .812 0l2.594-2.593a.574.574 0 1 0-.812-.812z" fill="#fff"/></svg>