<svg width="22" height="23" fill="none" xmlns="http://www.w3.org/2000/svg"><path d="M6.092 15.144h12.673a2.615 2.615 0 0 0 2.609-2.61V7.146c0-.01 0-.02-.005-.029 0-.01-.005-.023-.005-.033 0-.01-.004-.019-.004-.028-.005-.01-.005-.019-.01-.033-.005-.01-.005-.02-.01-.029-.004-.009-.004-.018-.009-.028a.22.22 0 0 1-.014-.033.103.103 0 0 0-.014-.024l-.014-.028c-.005-.01-.01-.014-.014-.024-.005-.01-.014-.019-.02-.028a.082.082 0 0 0-.018-.024c-.005-.01-.014-.014-.02-.023-.004-.01-.013-.014-.018-.024-.005-.01-.014-.014-.019-.019l-.023-.023c-.01-.005-.015-.015-.024-.02-.01-.004-.02-.014-.028-.018-.01-.005-.015-.01-.024-.014a.089.089 0 0 1-.029-.02l-.028-.014-.028-.014-.029-.014c-.01-.005-.018-.005-.028-.01a.087.087 0 0 0-.033-.009c-.01 0-.019-.005-.024-.005-.014-.004-.023-.004-.038-.004-.004 0-.009-.005-.018-.005L4.763 4.352v-2.24c0-.024 0-.048-.004-.067 0-.004 0-.01-.005-.019 0-.014-.005-.028-.005-.042-.005-.014-.005-.024-.01-.038 0-.01-.004-.014-.004-.024a70.65 70.65 0 0 0-.014-.042c0-.005-.005-.014-.005-.019a.141.141 0 0 0-.019-.038c-.005-.005-.005-.014-.01-.019a.098.098 0 0 0-.018-.028c-.005-.01-.01-.014-.014-.024-.005-.01-.01-.014-.015-.023-.004-.01-.014-.02-.018-.029l-.015-.014-.028-.028-.014-.014a.236.236 0 0 0-.033-.029c-.005-.005-.014-.01-.02-.014-.009-.01-.018-.014-.028-.024a.254.254 0 0 0-.037-.023c-.005-.005-.01-.005-.015-.01-.018-.01-.042-.019-.061-.028L.887.05a.637.637 0 0 0-.836.34c-.138.326.014.7.34.837l3.091 1.304v13.983c0 1.324.993 2.42 2.274 2.586a2.578 2.578 0 0 0-.369 1.324A2.58 2.58 0 0 0 7.963 23a2.582 2.582 0 0 0 2.577-2.576c0-.473-.128-.922-.355-1.3h5.739a2.54 2.54 0 0 0-.355 1.3A2.58 2.58 0 0 0 18.145 23a2.582 2.582 0 0 0 2.577-2.576 2.582 2.582 0 0 0-2.577-2.576H6.092c-.738 0-1.333-.6-1.333-1.333v-1.73c.387.226.846.359 1.333.359zm3.176 5.275c0 .719-.586 1.3-1.3 1.3-.714 0-1.3-.586-1.3-1.3 0-.714.586-1.3 1.3-1.3.714 0 1.3.582 1.3 1.3zm10.182 0c0 .719-.586 1.3-1.3 1.3-.714 0-1.3-.586-1.3-1.3 0-.714.586-1.3 1.3-1.3.714 0 1.3.582 1.3 1.3zm-.685-6.552H6.092c-.738 0-1.333-.6-1.333-1.333V5.638L20.098 7.75v4.779c0 .742-.6 1.338-1.333 1.338z" fill="#fff"/></svg>