<svg width="19" height="23" fill="none" xmlns="http://www.w3.org/2000/svg"><path d="M10.245 13.882H8.981a.832.832 0 1 1 0-1.664h2.225a.553.553 0 0 0 .552-.552.553.553 0 0 0-.552-.552h-1.043v-.768a.553.553 0 0 0-.552-.552.553.553 0 0 0-.552.552v.768h-.078a1.94 1.94 0 0 0-1.936 1.936c0 1.067.869 1.936 1.936 1.936h1.264a.832.832 0 1 1 0 1.664H7.978a.553.553 0 0 0-.551.552c0 .304.248.552.551.552h1.086v.786c0 .304.248.552.551.552a.553.553 0 0 0 .552-.552v-.786h.106a1.936 1.936 0 0 0-.028-3.872z" fill="#fff"/><path d="M17.906 12.631a15.818 15.818 0 0 0-2.391-3.835 17.815 17.815 0 0 0-3.063-2.91l2.345-4.35a.544.544 0 0 0-.101-.653C14.089.29 13.446 0 12.728 0c-.658 0-1.26.248-1.784.469-.414.17-.805.336-1.122.336A.698.698 0 0 1 9.56.759C8.465.359 7.624.11 6.81.11c-1.03 0-1.908.414-2.768 1.297a.555.555 0 0 0-.065.69l2.53 3.821a18.144 18.144 0 0 0-3.022 2.878 15.96 15.96 0 0 0-2.39 3.835A13.04 13.04 0 0 0 0 17.837a4.288 4.288 0 0 0 4.281 4.28h10.438A4.288 4.288 0 0 0 19 17.838a13.04 13.04 0 0 0-1.094-5.206zM5.155 1.867c.533-.46 1.043-.662 1.655-.662.653 0 1.389.22 2.368.584.202.073.419.11.64.11.537 0 1.052-.211 1.544-.418.474-.198.925-.387 1.361-.387.212 0 .51.037.888.304L11.404 5.5H7.56L5.155 1.867zm9.564 19.147H4.281a3.181 3.181 0 0 1-3.177-3.177c0-2.948 1.08-5.744 3.205-8.31A16.88 16.88 0 0 1 7.43 6.604h4.129c.418.29 1.78 1.301 3.122 2.925 2.13 2.565 3.205 5.357 3.205 8.309a3.167 3.167 0 0 1-3.168 3.177z" fill="#fff"/></svg>