<svg width="21" height="20" fill="none" xmlns="http://www.w3.org/2000/svg"><path d="M10.5 13.49a1.09 1.09 0 0 0-1.08 1.08c0 .586.493 1.079 1.08 1.079.565 0 1.079-.492 1.053-1.054A1.054 1.054 0 0 0 10.5 13.49z" fill="#fff"/><path d="M20.489 17.315a3.685 3.685 0 0 0 .009-3.73l-6.76-11.707A3.673 3.673 0 0 0 10.503 0 3.686 3.686 0 0 0 7.27 1.874L.5 13.594a3.715 3.715 0 0 0 .014 3.751 3.694 3.694 0 0 0 3.225 1.852h13.503a3.718 3.718 0 0 0 3.246-1.882zm-1.468-.846a2.04 2.04 0 0 1-1.783 1.032H3.735a2.012 2.012 0 0 1-1.761-1.01 2.043 2.043 0 0 1-.004-2.06L8.738 2.715a2.003 2.003 0 0 1 1.766-1.023c.738 0 1.399.384 1.766 1.028l6.764 11.716c.363.63.358 1.39-.013 2.033z" fill="#fff"/><path d="M10.232 5.914c-.514.147-.833.613-.833 1.179.026.34.047.686.073 1.027l.22 3.872a.79.79 0 0 0 .808.76c.44 0 .785-.341.807-.786 0-.267 0-.513.026-.785.047-.833.1-1.667.147-2.5.026-.54.073-1.079.099-1.619 0-.194-.026-.367-.1-.54a1.082 1.082 0 0 0-1.247-.608z" fill="#fff"/></svg>