<svg width="22" height="25" fill="none" xmlns="http://www.w3.org/2000/svg"><path d="M3.882 18.066h6.806v1.954H3.882v-1.954zm0-1.904h6.806V14.21H3.882v1.953zm0-3.857h11.743v-1.953H3.882v1.953zM22 25h-1.917c0-1.965-1.57-3.564-3.5-3.564-1.928 0-3.498 1.599-3.498 3.564h-1.917a5.539 5.539 0 0 1 2.748-4.8 3.636 3.636 0 0 1-.879-2.378c0-1.992 1.591-3.613 3.547-3.613 1.956 0 3.547 1.62 3.547 3.613 0 .91-.333 1.742-.88 2.378A5.54 5.54 0 0 1 22 25zm-5.416-5.518c.898 0 1.63-.744 1.63-1.66 0-.915-.732-1.66-1.63-1.66-.899 0-1.63.745-1.63 1.66 0 .916.731 1.66 1.63 1.66zM2.876 23.047h6.63A7.58 7.58 0 0 0 9.25 25H2.876C1.29 25 0 23.686 0 22.07V2.93C0 1.314 1.29 0 2.876 0h9.766l6.813 6.975v6.114a5.344 5.344 0 0 0-1.912-.748V8.355h-3.409c-1.586 0-2.876-1.314-2.876-2.93V1.953H2.876a.969.969 0 0 0-.959.977v19.14c0 .539.43.977.959.977zM14.134 6.402h2.06l-3.018-3.088v2.111c0 .539.43.977.958.977z" fill="#fff"/></svg>