<svg width="22" height="22" fill="none" xmlns="http://www.w3.org/2000/svg"><path d="M3.656 19.547a.433.433 0 0 0-.607 0 .433.433 0 0 0 0 .608.433.433 0 0 0 .607 0 .433.433 0 0 0 0-.608zM20.176 7.86a.432.432 0 0 0-.608 0 .433.433 0 0 0 0 .608.433.433 0 0 0 .608 0 .431.431 0 0 0 0-.608z" fill="#fff"/><path d="M21.873.126A.43.43 0 0 0 21.57 0H11a.43.43 0 0 0-.43.43v1.23L6.497 2.75a.43.43 0 0 0-.304.527l2.111 7.878-1.826 1.826a1.288 1.288 0 0 0-1.064-.563H1.289A1.29 1.29 0 0 0 0 13.708v7.003C0 21.42.578 22 1.289 22h4.125c.604 0 1.112-.418 1.251-.979l.51.446c.395.344.9.533 1.424.533h12.97a.43.43 0 0 0 .43-.43V.43a.43.43 0 0 0-.125-.304zM5.843 20.71a.43.43 0 0 1-.43.43H1.29a.43.43 0 0 1-.43-.43v-7.004a.43.43 0 0 1 .43-.43h1.633v4.95a.43.43 0 0 0 .86 0v-4.95h1.632a.43.43 0 0 1 .43.43v7.004zM7.135 3.469l3.436-.92V4.14l-.288.077a.43.43 0 0 0-.304.526 1.158 1.158 0 0 1-.818 1.417.43.43 0 0 0-.304.527l1.675 6.202H9.67l-.444-1.738A.43.43 0 0 0 9.153 11l-2.02-7.531zm3.436 2.642v3.626l-.784-2.902c.328-.169.596-.422.784-.724zm6.173 15.03H8.599c-.316 0-.62-.115-.858-.322l-1.038-.905v-5.943l1.876-1.876.34 1.331a.43.43 0 0 0 .416.324h8.448a.602.602 0 0 1 0 1.203h-4.329a.43.43 0 0 0 0 .86h5.674a.602.602 0 0 1 0 1.203h-5.674a.43.43 0 0 0 0 .86h4.755a.602.602 0 0 1 0 1.202h-4.755a.43.43 0 0 0 0 .86h3.289a.602.602 0 0 1 0 1.203zm4.397 0h-3.066a1.452 1.452 0 0 0 0-1.203h.135a1.463 1.463 0 0 0 1.306-2.115 1.463 1.463 0 0 0 .785-2.28v-5.445a.43.43 0 0 0-.859 0v4.89a1.463 1.463 0 0 0-.313-.035h-.014a1.463 1.463 0 0 0-1.33-2.063h-.692A2.06 2.06 0 0 0 18.341 11a2.059 2.059 0 0 0-2.056-2.056A2.059 2.059 0 0 0 14.228 11a2.06 2.06 0 0 0 1.249 1.89h-2.349V4.72a2.023 2.023 0 0 0 1.54-1.54h3.233a2.023 2.023 0 0 0 1.54 1.54v1.337a.43.43 0 0 0 .86 0v-1.72a.43.43 0 0 0-.43-.43 1.158 1.158 0 0 1-1.157-1.157.43.43 0 0 0-.43-.43h-4a.43.43 0 0 0-.429.43c0 .638-.519 1.157-1.157 1.157a.43.43 0 0 0-.43.43v8.554h-.839V.86h9.711v20.28zm-4.855-8.944c-.66 0-1.197-.537-1.197-1.197s.537-1.197 1.197-1.197 1.197.537 1.197 1.197-.537 1.197-1.197 1.197z" fill="#fff"/></svg>