<svg width="21" height="18" fill="none" xmlns="http://www.w3.org/2000/svg"><path d="M11.04 8.087H9.96a1.003 1.003 0 0 1 0-2.004h2.157a.615.615 0 1 0 0-1.23h-1.002V3.85a.615.615 0 1 0-1.23 0v1.004a2.235 2.235 0 0 0-2.157 2.231 2.235 2.235 0 0 0 2.233 2.233h1.078a1.003 1.003 0 0 1 0 2.005H8.882a.615.615 0 1 0 0 1.23h1.003v1.002a.615.615 0 1 0 1.23 0v-1.004a2.235 2.235 0 0 0 2.157-2.23 2.235 2.235 0 0 0-2.233-2.234z" fill="#fff"/><path d="M18.16 11.374a.615.615 0 0 0-.81.317 7.476 7.476 0 0 1-6.85 4.484c-3.671 0-6.782-2.723-7.371-6.254l1.631 1.09a.615.615 0 1 0 .684-1.023l-2.69-1.797a.616.616 0 0 0-.853.17L.104 11.05a.615.615 0 0 0 1.023.683l.849-1.27a8.651 8.651 0 0 0 2.44 4.462 8.655 8.655 0 0 0 6.084 2.48c3.46 0 6.592-2.05 7.977-5.222a.615.615 0 0 0-.317-.81zm2.567-5.873a.615.615 0 0 0-.854.17l-.849 1.27a8.651 8.651 0 0 0-2.44-4.461A8.655 8.655 0 0 0 10.5 0a8.706 8.706 0 0 0-7.978 5.221.615.615 0 0 0 1.128.493A7.476 7.476 0 0 1 10.5 1.23c3.67 0 6.782 2.724 7.371 6.254l-1.631-1.09a.615.615 0 1 0-.684 1.023l2.69 1.797a.612.612 0 0 0 .853-.17l1.797-2.69a.615.615 0 0 0-.17-.853z" fill="#fff"/></svg>