<svg width="18" height="22" fill="none" xmlns="http://www.w3.org/2000/svg"><path d="M17.996 4.835c0-.005-.005-.014-.005-.018 0-.009-.004-.013-.004-.022 0-.004-.005-.013-.005-.017a.034.034 0 0 0-.008-.018c-.005-.004-.005-.013-.01-.018-.003-.004-.003-.013-.008-.017-.004-.005-.004-.013-.009-.018a.093.093 0 0 0-.017-.026c-.005-.004-.005-.009-.009-.013a.096.096 0 0 0-.018-.022L14.29.162c-.008-.013-.022-.022-.03-.035-.005-.004-.005-.004-.01-.004l-.026-.026c-.004-.005-.008-.005-.013-.01-.009-.004-.017-.012-.026-.017-.005-.004-.009-.004-.013-.009a6.427 6.427 0 0 1-.027-.013c-.004-.004-.008-.004-.013-.008-.009-.005-.017-.01-.03-.014-.005 0-.01-.004-.014-.004-.008-.004-.022-.004-.03-.009-.005 0-.01-.004-.014-.004a.097.097 0 0 0-.035-.005h-.013c-.018 0-.03-.004-.048-.004H2.26a.44.44 0 0 0-.44.44v1.804H.44a.44.44 0 0 0-.44.439v18.302c0 .242.198.44.439.44h15.33a.44.44 0 0 0 .44-.44V19.18h1.352a.44.44 0 0 0 .439-.439V4.861c0-.009 0-.018-.004-.026zm-3.61-3.158l2.257 2.802h-2.256V1.677zm-.75 3.522l1.212 1.493h-2.252V3.917l.983 1.212a.443.443 0 0 0 .057.07zM2.7.874h10.809v2.77l-1.01-1.242c-.009-.013-.022-.022-.03-.035l-.01-.009c-.008-.009-.017-.013-.026-.022-.004-.004-.009-.004-.013-.009-.009-.004-.018-.013-.026-.017-.005-.005-.01-.005-.014-.01l-.026-.012c-.004-.005-.009-.005-.013-.005-.009-.004-.022-.008-.03-.013-.005 0-.01-.004-.014-.004-.009-.005-.022-.005-.03-.009-.005 0-.01-.004-.014-.004-.013-.005-.022-.005-.035-.005h-.013c-.018 0-.03-.004-.048-.004H2.7V.874zM.878 20.546V3.118h10.84V7.13c0 .242.197.44.439.44h3.174v12.975H.878zm16.244-2.24h-.913V7.071c0-.01 0-.018-.005-.027l-.004-.017c0-.009-.004-.013-.004-.022s-.005-.013-.005-.018a.033.033 0 0 0-.009-.017c-.004-.005-.004-.013-.008-.018-.005-.004-.005-.013-.01-.017-.004-.005-.004-.014-.008-.018a.096.096 0 0 0-.013-.022c-.005-.004-.005-.009-.009-.009-.009-.009-.013-.022-.022-.03l-1.211-1.493h2.221v12.945z" fill="#fff"/><path d="M12.595 9.366H3.613a.44.44 0 0 0-.44.44c0 .24.198.439.44.439h8.982a.44.44 0 0 0 .44-.44.44.44 0 0 0-.44-.439zm0 2.679H3.613a.44.44 0 0 0-.44.439c0 .242.198.44.44.44h8.982a.44.44 0 0 0 .44-.44.44.44 0 0 0-.44-.44zm0 2.678H3.613a.44.44 0 0 0-.44.44c0 .241.198.439.44.439h8.982a.44.44 0 0 0 .44-.44.44.44 0 0 0-.44-.439zm0 2.679H3.613a.44.44 0 0 0-.44.44c0 .24.198.438.44.438h8.982a.44.44 0 0 0 .44-.439.44.44 0 0 0-.44-.439z" fill="#fff"/></svg>