<svg width="23" height="21" fill="none" xmlns="http://www.w3.org/2000/svg"><path d="M22.33 2.8h-6.114v-.7c0-1.158-.906-2.1-2.02-2.1H8.804C7.69 0 6.783.942 6.783 2.1v.7H.673C.3 2.8 0 3.12 0 3.5v15.4C0 20.058.907 21 2.021 21h18.957C22.093 21 23 20.058 23 18.9V3.512c-.026-.46-.298-.71-.67-.712zm-14.2-.7c0-.386.303-.7.675-.7h5.39c.372 0 .674.314.674.7v.7H8.131v-.7zm13.261 2.1L19.3 10.721a.675.675 0 0 1-.64.479h-3.79v-.7c0-.387-.301-.7-.674-.7h-5.39a.687.687 0 0 0-.674.7v.7H4.34a.675.675 0 0 1-.64-.479L1.61 4.2h19.78zm-7.87 7v1.4H9.48v-1.4h4.043zm8.131 7.7c0 .386-.302.7-.674.7H2.021a.688.688 0 0 1-.673-.7V7.814l1.075 3.35c.275.859 1.046 1.436 1.917 1.436h3.79v.7c0 .387.302.7.675.7h5.39a.687.687 0 0 0 .674-.7v-.7h3.79c.872 0 1.643-.577 1.918-1.436l1.075-3.35V18.9z" fill="#fff"/></svg>