<svg width="22" height="22" fill="none" xmlns="http://www.w3.org/2000/svg"><path d="M21.958 12.457a8.697 8.697 0 0 0-2.5-5.274 8.628 8.628 0 0 0-4.244-2.33V3.76a1.463 1.463 0 0 0 1.108-1.417c0-.806-.655-1.461-1.461-1.461h-3.094a1.461 1.461 0 0 0-.353 2.878v1.095a8.628 8.628 0 0 0-4.96 3.156.427.427 0 0 0-.033-.002H3.359a.43.43 0 0 0 0 .86h2.51a8.614 8.614 0 0 0-.763 1.651H.43a.43.43 0 0 0 0 .86h4.433a8.736 8.736 0 0 0-.213 1.651h-1.9a.43.43 0 0 0 0 .86h1.914c.036.556.126 1.11.268 1.651H2.148a.43.43 0 0 0 0 .86h3.058a8.63 8.63 0 0 0 1.977 3.056A8.696 8.696 0 0 0 13.314 22a8.7 8.7 0 0 0 4.737-1.4.43.43 0 1 0-.469-.72c-3.075 2.002-7.193 1.57-9.791-1.03-3.05-3.049-3.05-8.01 0-11.06 3.049-3.049 8.01-3.049 11.06 0 2.595 2.596 3.03 6.71 1.034 9.784a.43.43 0 1 0 .721.468 8.708 8.708 0 0 0 1.352-5.585zM11.166 2.343c0-.332.27-.602.601-.602h3.094a.602.602 0 0 1 0 1.203h-3.094a.602.602 0 0 1-.601-.601zm1.108 2.365v-.904h2.08v.902a8.754 8.754 0 0 0-2.08.002z" fill="#fff"/><path d="M19.154 18.724a.432.432 0 0 0-.43.43.43.43 0 0 0 .86 0 .432.432 0 0 0-.43-.43zM13.32 6.655a6.673 6.673 0 0 0-6.665 6.665 6.673 6.673 0 0 0 6.666 6.666 6.673 6.673 0 0 0 6.665-6.666 6.673 6.673 0 0 0-6.665-6.665zm0 12.472a5.813 5.813 0 0 1-5.806-5.806 5.813 5.813 0 0 1 5.807-5.807 5.813 5.813 0 0 1 5.806 5.806 5.813 5.813 0 0 1-5.806 5.807z" fill="#fff"/><path d="M16.039 9.995l-2.129 2.128a1.327 1.327 0 0 0-1.18 0l-.952-.953a.43.43 0 0 0-.607.608l.952.953a1.337 1.337 0 0 0 1.197 1.925 1.337 1.337 0 0 0 1.198-1.925l2.066-2.066.062-.063a.43.43 0 0 0-.607-.607zm-2.719 3.801a.476.476 0 1 1 .002-.953.476.476 0 0 1-.002.953zm4.595-.9h-.398a.43.43 0 0 0 0 .86h.398a.43.43 0 0 0 0-.86zm-8.791-.01h-.398a.43.43 0 0 0 0 .859h.398a.43.43 0 0 0 0-.86zm4.202-3.332a.43.43 0 0 0 .43-.43v-.398a.43.43 0 0 0-.86 0v.398c0 .238.193.43.43.43zm-.011 7.533a.43.43 0 0 0-.43.43v.398a.43.43 0 0 0 .86 0v-.398a.43.43 0 0 0-.43-.43zM.43 15.542a.433.433 0 0 0-.43.43.432.432 0 0 0 .43.43.433.433 0 0 0 .43-.43.433.433 0 0 0-.43-.43z" fill="#fff"/></svg>