<svg width="23" height="19" fill="none" xmlns="http://www.w3.org/2000/svg"><path d="M21.08 5.884h-2.34V2.58c0-1.058-.862-1.92-1.92-1.92H1.92C.861.66 0 1.522 0 2.58v8.616c0 1.059.861 1.92 1.92 1.92h2.34v3.304c0 1.058.862 1.92 1.92 1.92h14.9c1.059 0 1.92-.861 1.92-1.92V7.804c0-1.059-.861-1.92-1.92-1.92zM1.097 2.58c0-.453.37-.823.823-.823h14.9c.453 0 .822.37.822.823v.766H1.097V2.58zm3.164 5.224v4.215H1.92a.824.824 0 0 1-.824-.823V6.985h3.348a1.908 1.908 0 0 0-.184.82zM1.097 5.887V4.444h16.545v1.44H6.181c-.037 0-.074.001-.11.003H1.096zM21.08 17.243H6.18a.824.824 0 0 1-.822-.823V7.804c0-.431.333-.785.756-.82H18.19a.55.55 0 0 0 .06-.003h2.829c.454 0 .823.37.823.823v8.616c0 .453-.37.823-.823.823z" fill="#fff"/><path d="M15.283 9.467c-.624 0-1.198.218-1.65.58a2.648 2.648 0 0 0-4.3 2.064 2.648 2.648 0 0 0 4.3 2.065c.452.363 1.026.58 1.65.58a2.648 2.648 0 0 0 2.644-2.644 2.648 2.648 0 0 0-2.644-2.645zm-2.348 3.86a1.55 1.55 0 0 1-2.505-1.216 1.55 1.55 0 0 1 2.505-1.215 2.627 2.627 0 0 0 0 2.431zm2.348.332a1.55 1.55 0 0 1-1.547-1.547 1.55 1.55 0 0 1 1.547-1.547 1.55 1.55 0 0 1 1.547 1.547 1.55 1.55 0 0 1-1.547 1.547z" fill="#fff"/></svg>