<svg width="23" height="23" fill="none" xmlns="http://www.w3.org/2000/svg"><path d="M23 15.565a7.452 7.452 0 0 0-5.444-7.164C17.356 3.735 13.497 0 8.782 0 3.94 0 0 3.94 0 8.782a8.75 8.75 0 0 0 1.218 4.464L.032 17.532l4.286-1.185a8.749 8.749 0 0 0 4.083 1.208A7.452 7.452 0 0 0 15.565 23c1.339 0 2.64-.356 3.783-1.034l3.62 1.002-1.002-3.62A7.407 7.407 0 0 0 23 15.565zM4.531 14.89l-2.566.71.71-2.566-.162-.254a7.41 7.41 0 0 1-1.165-3.998c0-4.1 3.335-7.434 7.434-7.434 4.1 0 7.435 3.335 7.435 7.434 0 4.1-3.335 7.435-7.435 7.435a7.41 7.41 0 0 1-3.998-1.166l-.253-.162zm16.504 6.145l-1.904-.527-.254.166a6.067 6.067 0 0 1-3.312.978 6.102 6.102 0 0 1-5.77-4.146 8.799 8.799 0 0 0 7.71-7.711 6.103 6.103 0 0 1 4.147 5.77c0 1.18-.338 2.326-.979 3.312l-.165.254.527 1.904z" fill="#fff"/><path d="M8.108 12.174h1.348v1.348H8.108v-1.348zm2.022-5.436c0 .383-.156.736-.439.995L8.108 9.182v1.644h1.348v-1.05l1.145-1.049c.557-.51.876-1.234.876-1.989a2.698 2.698 0 0 0-2.695-2.695 2.698 2.698 0 0 0-2.695 2.695h1.348a1.35 1.35 0 0 1 1.347-1.347 1.35 1.35 0 0 1 1.348 1.347z" fill="#fff"/></svg>