<svg width="20" height="20" fill="none" xmlns="http://www.w3.org/2000/svg"><path d="M10 0C4.486 0 0 4.486 0 10s4.486 10 10 10 10-4.486 10-10S15.514 0 10 0zm0 18.286c-4.569 0-8.286-3.717-8.286-8.286 0-4.569 3.717-8.286 8.286-8.286 4.569 0 8.286 3.717 8.286 8.286 0 4.569-3.718 8.286-8.286 8.286z" fill="#fff"/><path d="M13.869 6.131a.857.857 0 0 0-1.212 0L10 8.79 7.342 6.13A.857.857 0 1 0 6.13 7.343l2.658 2.658-2.658 2.657a.857.857 0 1 0 1.212 1.212L10 11.213l2.657 2.657a.855.855 0 0 0 1.212 0 .857.857 0 0 0 0-1.212l-2.658-2.657 2.658-2.658a.857.857 0 0 0 0-1.212z" fill="#fff"/></svg>