<svg width="19" height="24" fill="none" xmlns="http://www.w3.org/2000/svg"><path d="M2.036 12.214h4.071v2.036H4.75a.678.678 0 0 0-.679.679v8.142c0 .376.304.679.679.679h9.5a.678.678 0 0 0 .679-.679V14.93a.678.678 0 0 0-.679-.679h-1.357v-2.036h4.071A2.038 2.038 0 0 0 19 10.18V2.036A2.038 2.038 0 0 0 16.964 0H2.036A2.038 2.038 0 0 0 0 2.036v8.143c0 1.122.913 2.035 2.036 2.035zM13.57 22.393H5.43v-6.786h8.142v6.786zm-2.035-8.143H7.464v-2.036h4.072v2.036zm5.428-3.393H7.59A2.033 2.033 0 0 1 9.5 9.5V8.143a3.4 3.4 0 0 0-3.324 2.714h-4.14a.68.68 0 0 1-.679-.678V6.786h16.286v3.393a.68.68 0 0 1-.679.678zM1.357 5.43V4.07h16.286v1.36H1.357zm.679-4.072h14.928a.68.68 0 0 1 .679.679v.678H1.357v-.678a.68.68 0 0 1 .679-.679z" fill="#fff"/><path d="M8.821 21.036h1.357V18.32h.68v-1.357H8.142v1.357h.678v2.715z" fill="#fff"/></svg>