<svg width="23" height="23" fill="none" xmlns="http://www.w3.org/2000/svg"><path d="M19.63 3.37a11.491 11.491 0 0 0-16.26 0 11.491 11.491 0 0 0 0 16.26 11.491 11.491 0 0 0 16.26 0 11.491 11.491 0 0 0 0-16.26zM11.5 21.11c-5.298 0-9.609-4.31-9.609-9.609 0-5.298 4.31-9.609 9.609-9.609 5.298 0 9.609 4.31 9.609 9.609 0 5.298-4.31 9.609-9.609 9.609z" fill="#6475CD"/><path d="M12.854 6h-3.16a.897.897 0 0 0-.888.905v3.69h-.917A.897.897 0 0 0 7 11.5c0 .5.398.905.889.905h.917v.947h-.917a.897.897 0 0 0-.889.905c0 .5.398.905.889.905h.917v.933c0 .5.398.905.888.905.491 0 .89-.405.89-.905v-.933h1.819c.49 0 .888-.405.888-.905s-.397-.905-.888-.905h-1.82v-.947h2.271c1.735 0 3.146-1.437 3.146-3.203C16 7.437 14.589 6 12.854 6zm0 4.595h-2.27V7.81h2.27c.755 0 1.369.625 1.369 1.393s-.614 1.393-1.369 1.393z" fill="#6475CD"/></svg>