<svg width="22" height="22" fill="none" xmlns="http://www.w3.org/2000/svg"><path d="M12.278 20.157a9.384 9.384 0 0 1-1.257.085l-.084-.001c-1.095-.023-2.206-.935-3.054-2.512-.855-1.588-1.368-3.655-1.473-5.893h4.569a.858.858 0 0 0 .857-.857V1.891c1.84.755 3.38 3.865 3.678 7.696a.857.857 0 1 0 1.71-.133c-.196-2.518-.883-4.845-1.935-6.552a9.568 9.568 0 0 0-.135-.212c3.04 1.522 5.13 4.665 5.13 8.289 0 .366-.021.735-.065 1.098a.858.858 0 0 0 1.703.205c.052-.43.078-.869.078-1.303 0-2.933-1.142-5.69-3.215-7.763A10.907 10.907 0 0 0 11.02 0h-.04l-.058.001a10.905 10.905 0 0 0-7.663 3.215 10.902 10.902 0 0 0-3.212 7.486.855.855 0 0 0 0 .553 10.903 10.903 0 0 0 3.212 7.487 10.904 10.904 0 0 0 7.663 3.214l.058.001h.042c.498 0 .998-.034 1.488-.1a.858.858 0 0 0-.23-1.7zM10.121 1.895v8.226H6.41c.104-2.238.617-4.305 1.472-5.893.637-1.184 1.423-1.993 2.238-2.333zm-3.36.86c-.135.21-.264.43-.389.66-.984 1.829-1.57 4.184-1.679 6.706H1.798A9.28 9.28 0 0 1 6.76 2.756zm-4.963 9.081h2.895c.109 2.522.695 4.877 1.68 6.705.124.232.253.451.387.66a9.28 9.28 0 0 1-4.962-7.365zm19.95 8.657l-2.545-2.545a3.995 3.995 0 0 0-.54-4.968 3.993 3.993 0 0 0-5.64 0 3.993 3.993 0 0 0 0 5.64 3.976 3.976 0 0 0 2.82 1.167c.748 0 1.495-.21 2.147-.627l2.546 2.546a.855.855 0 0 0 1.213 0 .858.858 0 0 0 0-1.213zm-7.512-3.086a2.276 2.276 0 0 1 0-3.214 2.275 2.275 0 0 1 3.214 0 2.276 2.276 0 0 1 0 3.214 2.276 2.276 0 0 1-3.214 0z" fill="#6475CD"/></svg>