<svg width="29" height="23" fill="none" xmlns="http://www.w3.org/2000/svg"><path d="M28.697 7.624L21.447.306a1.029 1.029 0 0 0-1.465 0 1.05 1.05 0 0 0-.303.74v3.136h-7.25a1.04 1.04 0 0 0-1.036 1.045 1.04 1.04 0 0 0 1.035 1.046h8.286a1.04 1.04 0 0 0 1.036-1.046V3.57l4.75 4.794-4.75 4.795V11.5a1.04 1.04 0 0 0-1.036-1.046H9.321V7.318a1.04 1.04 0 0 0-1.036-1.045c-.274 0-.537.11-.732.306l-7.25 7.318a1.052 1.052 0 0 0 0 1.478l7.25 7.319a1.031 1.031 0 0 0 1.13.227c.386-.162.638-.544.638-.966v-3.137h7.25a1.04 1.04 0 0 0 1.036-1.045 1.04 1.04 0 0 0-1.035-1.046H8.286a1.04 1.04 0 0 0-1.036 1.046v1.658L2.5 14.636l4.75-4.794V11.5a1.04 1.04 0 0 0 1.036 1.045h11.393v3.137a1.04 1.04 0 0 0 1.036 1.045c.274 0 .537-.11.732-.306l7.25-7.318a1.052 1.052 0 0 0 0-1.479z" fill="#6475CD"/></svg>