<svg width="27" height="19" fill="none" xmlns="http://www.w3.org/2000/svg"><path d="M21.375 3.353H2.25A2.25 2.25 0 0 0 0 5.588v11.177A2.25 2.25 0 0 0 2.25 19h19.125a2.25 2.25 0 0 0 2.25-2.235V5.588a2.25 2.25 0 0 0-2.25-2.235zm0 13.412H2.25V5.588h19.125v11.177zm-11.25-1.118H13.5c2.475 0 4.5-2.012 4.5-4.47 0-2.46-2.025-4.471-4.5-4.471h-3.375c-2.475 0-4.5 2.012-4.5 4.47 0 2.46 2.025 4.471 4.5 4.471zm0-6.706H13.5a2.25 2.25 0 0 1 2.25 2.236 2.25 2.25 0 0 1-2.25 2.235h-3.375a2.25 2.25 0 0 1-2.25-2.236 2.25 2.25 0 0 1 2.25-2.235zM24.75 0H5.625a2.25 2.25 0 0 0-2.25 2.235H24.75v13.412A2.25 2.25 0 0 0 27 13.412V2.235A2.25 2.25 0 0 0 24.75 0z" fill="#6475CD"/></svg>