<svg width="22" height="22" fill="none" xmlns="http://www.w3.org/2000/svg"><path d="M21.083 11.917h.184c.458-.092.733-.459.733-.917 0-6.05-4.95-11-11-11-3.758 0-7.15 1.833-9.258 5.042C.642 6.875 0 8.892 0 11c0 1.558.275 3.025.917 4.492.183.366.458.55.825.55.091 0 .275 0 .366-.092.459-.183.642-.733.459-1.192-1.192-2.841-.917-6.141.733-8.708a9.133 9.133 0 0 1 6.783-4.125v8.708l-6.875 6.875c-.366.275-.366.825-.091 1.192 0 0 0 .092.091.092v.091A11.182 11.182 0 0 0 11 22c4.583 0 8.617-2.75 10.267-6.967.183-.458-.092-1.008-.55-1.191-.459-.184-1.009.091-1.192.55-1.375 3.483-4.675 5.775-8.525 5.775a8.967 8.967 0 0 1-5.775-2.109l6.142-6.141h9.716zm-9.166-9.992c1.191.092 2.291.458 3.3 1.008l-3.3 3.3V1.925zm3.85 8.158l3.3-3.3c.55 1.009.916 2.109 1.008 3.3h-4.308zm2.291-4.858L13.2 10.083h-1.283V8.8l4.858-4.858c.458.366.917.825 1.283 1.283z" fill="#6475CD"/></svg>