<svg width="15" height="24" fill="none" xmlns="http://www.w3.org/2000/svg"><path d="M10.714 24v-3.328c2.626-.279 4.534-2.673 4.26-5.347A4.892 4.892 0 0 0 13.17 12 4.916 4.916 0 0 0 15 8.182c-.008-2.493-1.852-4.582-4.285-4.854V0H8.57v3.273H6.428V0H4.285v3.273H0v17.454h4.285V24h2.143v-3.273h2.143V24h2.143zM2.143 5.455h8.035c1.48 0 2.678 1.22 2.678 2.727 0 1.506-1.199 2.727-2.678 2.727H2.143V5.455zm0 13.09v-5.454h8.035c1.48 0 2.678 1.221 2.678 2.727 0 1.506-1.199 2.728-2.678 2.728H2.143z" fill="#6475CD"/></svg>