<svg width="23" height="25" fill="none" xmlns="http://www.w3.org/2000/svg"><path d="M3.136 14.583C1.36 14.583 0 15.937 0 17.708v4.167C0 23.645 1.36 25 3.136 25c1.778 0 3.137-1.354 3.137-3.125v-4.167c0-1.77-1.36-3.125-3.137-3.125zm1.046 7.292c0 .625-.418 1.042-1.046 1.042-.627 0-1.045-.417-1.045-1.042v-4.167c0-.625.418-1.041 1.045-1.041.628 0 1.046.416 1.046 1.041v4.167zM11.5 8.333c-1.777 0-3.136 1.354-3.136 3.125v10.417C8.364 23.645 9.723 25 11.5 25c1.777 0 3.136-1.354 3.136-3.125V11.458c0-1.77-1.359-3.125-3.136-3.125zm1.046 13.542c0 .625-.419 1.042-1.046 1.042s-1.046-.417-1.046-1.042V11.458c0-.625.419-1.041 1.046-1.041s1.046.416 1.046 1.041v10.417zM19.864 0c-1.778 0-3.137 1.354-3.137 3.125v18.75c0 1.77 1.36 3.125 3.137 3.125S23 23.646 23 21.875V3.125C23 1.355 21.64 0 19.864 0zm1.045 21.875c0 .625-.418 1.042-1.045 1.042-.628 0-1.046-.417-1.046-1.042V3.125c0-.625.418-1.042 1.046-1.042.627 0 1.045.417 1.045 1.042v18.75z" fill="#6475CD"/></svg>