<svg width="31" height="31" fill="none" xmlns="http://www.w3.org/2000/svg"><path d="M29.632 6.838h-6.838V1.823c0-.755-.612-1.367-1.367-1.367H1.367C.613.456 0 1.068 0 1.823v16.078c0 .755.612 1.367 1.368 1.367h1.914v3.526a1.368 1.368 0 0 0 2.152 1.12l2.772-1.94v2.31c0 .755.612 1.367 1.368 1.367h9.355l6.637 4.646a1.367 1.367 0 0 0 2.152-1.12V25.65h1.914c.756 0 1.368-.613 1.368-1.368V8.206c0-.756-.612-1.368-1.368-1.368zM6.018 20.168V17.9c0-.756-.613-1.368-1.368-1.368H2.735V3.191H20.06v13.342h-8.42c-.28 0-.554.086-.784.247l-4.838 3.387zm22.247 2.748H26.35c-.755 0-1.368.612-1.368 1.367v2.267l-4.838-3.387a1.367 1.367 0 0 0-.784-.247h-8.42V20.06l1.13-.791h9.355c.756 0 1.368-.613 1.368-1.368V9.573h5.47v13.343z" fill="#6475CD"/><path d="M15.956 5.926H6.838a1.368 1.368 0 0 0 0 2.736h9.118a1.368 1.368 0 1 0 0-2.736zm0 5.471H6.838a1.368 1.368 0 1 0 0 2.735h9.118a1.368 1.368 0 1 0 0-2.735z" fill="#6475CD"/></svg>