<svg width="14" height="15" fill="none" xmlns="http://www.w3.org/2000/svg"><path d="M6.682 15l-.191-.063C2.545 13.438 0 10.314 0 6.938V5.625C0 5.25.255 5 .636 5c.382 0 .637.25.637.625v1.313c0 2.75 2.163 5.375 5.472 6.75 3.628-1.25 5.982-4.063 5.982-6.938V2.812A11.4 11.4 0 0 0 7 1.25c-1.845 0-3.69.5-5.282 1.313L9.291 9c.254.25.318.625.064.875-.255.25-.637.313-.891.063L.382 3C.19 2.875.127 2.625.127 2.375s.191-.5.382-.625C2.42.687 4.645 0 7 0c2.61 0 4.836.813 7 2.125v4.688c0 3.5-2.864 6.812-7.064 8.187h-.254z" fill="#99B1D9"/></svg>