<svg width="14" height="14" fill="none" xmlns="http://www.w3.org/2000/svg"><path d="M12.36 1.094h-.657V0H10.61v1.094H3.391V0H2.297v1.094H1.64C.736 1.094 0 1.83 0 2.734v9.625C0 13.264.736 14 1.64 14h10.72c.904 0 1.64-.736 1.64-1.64V2.733c0-.904-.736-1.64-1.64-1.64zm.546 11.265a.547.547 0 0 1-.547.547H1.641a.547.547 0 0 1-.547-.547V5.141h11.812v7.218zm0-8.312H1.094V2.734c0-.301.245-.546.547-.546h.656V3.28H3.39V2.187h7.218v1.094h1.094V2.187h.656c.302 0 .547.246.547.547v1.313z" fill="#99B1D9"/><path d="M3.172 6.29H2.078v1.093h1.094V6.289zm2.188 0H4.265v1.093h1.093V6.289zm2.187 0H6.453v1.093h1.094V6.289zm2.187 0H8.641v1.093h1.093V6.289zm2.188 0h-1.094v1.093h1.094V6.289zm-8.75 2.187H2.078V9.57h1.094V8.477zm2.188 0H4.265V9.57h1.093V8.477zm2.187 0H6.453V9.57h1.094V8.477zm2.187 0H8.641V9.57h1.093V8.477zm-6.562 2.187H2.078v1.094h1.094v-1.094zm2.188 0H4.265v1.094h1.093v-1.094zm2.187 0H6.453v1.094h1.094v-1.094zm2.187 0H8.641v1.094h1.093v-1.094zm2.188-2.187h-1.094V9.57h1.094V8.477z" fill="#99B1D9"/></svg>