<svg width="18" height="18" fill="none" xmlns="http://www.w3.org/2000/svg"><path d="M15.767 10.99a.398.398 0 0 0-.398.399v3.538c0 .66-.536 1.195-1.196 1.195H2.993c-.66 0-1.195-.535-1.196-1.195V4.543c0-.66.535-1.195 1.195-1.196h3.539a.398.398 0 1 0 0-.796H2.992A1.995 1.995 0 0 0 1 4.543v10.384a1.995 1.995 0 0 0 1.992 1.993h11.181a1.995 1.995 0 0 0 1.993-1.993V11.39a.398.398 0 0 0-.399-.399z" fill="#99B1D9" stroke="#99B1D9" stroke-width=".5"/><path d="M16.008 1.525c-.7-.7-1.836-.7-2.536 0l-7.11 7.11a.398.398 0 0 0-.101.175l-.935 3.375a.398.398 0 0 0 .49.49l3.375-.935a.398.398 0 0 0 .176-.102l7.108-7.11c.7-.7.7-1.834 0-2.535l-.467-.468zM7.23 8.893l5.818-5.818 1.877 1.876-5.819 5.819L7.23 8.893zm-.375.753l1.5 1.499-2.074.574.574-2.073zm9.056-5.68l-.423.422-1.876-1.877.423-.422a.996.996 0 0 1 1.408 0l.468.467a.998.998 0 0 1 0 1.41z" fill="#99B1D9" stroke="#99B1D9" stroke-width=".5"/></svg>