<svg width="18" height="18" fill="none" xmlns="http://www.w3.org/2000/svg"><path d="M15.364 2.636A8.941 8.941 0 0 0 9 0a8.941 8.941 0 0 0-6.364 2.636A8.941 8.941 0 0 0 0 9a8.94 8.94 0 0 0 2.636 6.364A8.941 8.941 0 0 0 9 18a8.942 8.942 0 0 0 6.364-2.636A8.942 8.942 0 0 0 18 9a8.941 8.941 0 0 0-2.636-6.364zM9 16.594c-4.187 0-7.594-3.407-7.594-7.594S4.813 1.406 9 1.406 16.594 4.813 16.594 9 13.187 16.594 9 16.594zm.703-8.298h3.164v1.406H9.703v3.165H8.297V9.701H5.133V8.296h3.164V5.132h1.406v3.164z" fill="#99B1D9"/></svg>