<svg width="15" height="15" fill="none" xmlns="http://www.w3.org/2000/svg"><path d="M12.803 2.197A7.45 7.45 0 0 0 7.5 0a7.45 7.45 0 0 0-5.303 2.197A7.451 7.451 0 0 0 0 7.5a7.45 7.45 0 0 0 2.197 5.303A7.45 7.45 0 0 0 7.5 15a7.45 7.45 0 0 0 5.303-2.197A7.45 7.45 0 0 0 15 7.5a7.45 7.45 0 0 0-2.197-5.303zm.49 8.506h-2.195a9.867 9.867 0 0 0 .513-2.764h2.495a6.571 6.571 0 0 1-.813 2.764zM7.5 14.056c-.935-.556-1.711-1.42-2.27-2.474h4.54c-.559 1.055-1.335 1.917-2.27 2.474zm-2.666-3.353a8.935 8.935 0 0 1-.565-2.764h6.462a8.936 8.936 0 0 1-.565 2.764H4.834zM.894 7.939h2.495a9.87 9.87 0 0 0 .513 2.764H1.707a6.572 6.572 0 0 1-.813-2.764zm.813-3.642h2.195a9.871 9.871 0 0 0-.513 2.764H.894a6.572 6.572 0 0 1 .813-2.764zM7.5.944c.935.557 1.711 1.42 2.27 2.474H5.23C5.79 2.363 6.566 1.501 7.5.944zm2.666 3.353c.324.848.52 1.785.565 2.764H4.269a8.935 8.935 0 0 1 .565-2.764h5.332zm3.94 2.764h-2.495a9.867 9.867 0 0 0-.513-2.764h2.195c.46.83.748 1.767.813 2.764zm-3.36-3.643a7.78 7.78 0 0 0-1.64-2.342 6.636 6.636 0 0 1 3.604 2.342h-1.964zM5.894 1.076a7.78 7.78 0 0 0-1.64 2.342H2.29a6.636 6.636 0 0 1 3.604-2.342zm-1.64 10.505a7.78 7.78 0 0 0 1.64 2.343 6.636 6.636 0 0 1-3.604-2.342h1.964zm4.852 2.343a7.781 7.781 0 0 0 1.64-2.342h1.964a6.636 6.636 0 0 1-3.604 2.342z" fill="#99B1D9"/></svg>