<svg width="23" height="23" fill="none" xmlns="http://www.w3.org/2000/svg"><path d="M18.925 4.075A10.431 10.431 0 0 0 11.5 1a10.431 10.431 0 0 0-7.425 3.075A10.432 10.432 0 0 0 1 11.5c0 2.805 1.092 5.442 3.075 7.425A10.431 10.431 0 0 0 11.5 22c2.805 0 5.442-1.092 7.425-3.075A10.431 10.431 0 0 0 22 11.5c0-2.805-1.092-5.441-3.075-7.425zM11.5 20.77c-5.111 0-9.27-4.159-9.27-9.27s4.16-9.27 9.27-9.27 9.27 4.159 9.27 9.27-4.159 9.27-9.27 9.27z" fill="#99B1D9" stroke="#99B1D9" stroke-width=".5"/><path d="M12.21 10.89h-1.42c-.808 0-1.465-.607-1.465-1.353s.657-1.352 1.466-1.352h2.837c.366 0 .663-.274.663-.611 0-.337-.297-.611-.663-.611h-1.466V5.611c0-.337-.296-.611-.662-.611-.366 0-.662.274-.662.61v1.353h-.047C9.25 6.963 8 8.118 8 9.537c0 1.42 1.252 2.574 2.79 2.574h1.42c.808 0 1.465.606 1.465 1.352 0 .746-.657 1.352-1.466 1.352H9.373c-.366 0-.663.274-.663.611 0 .337.297.61.663.61h1.466v1.353c0 .338.296.611.662.611.366 0 .662-.273.662-.61v-1.353h.047c1.54 0 2.791-1.155 2.791-2.574 0-1.42-1.252-2.574-2.79-2.574z" fill="#99B1D9" stroke="#99B1D9" stroke-width=".5"/></svg>