<svg width="23" height="21" fill="none" xmlns="http://www.w3.org/2000/svg"><path d="M17.582 8.658l-.001-.013a.506.506 0 0 0-.033-.12l-.007-.017a.534.534 0 0 0-.02-.04l-.01-.017-.004-.01a.543.543 0 0 0-.025-.035l-.005-.006a.508.508 0 0 0-.041-.048l-.009-.008a.534.534 0 0 0-.04-.034l-.01-.009a.53.53 0 0 0-.058-.037L9.653 3.906l4.414-2.78 7.4 4.207-3.117 1.962a.52.52 0 1 0 .554.88l3.852-2.425a.52.52 0 0 0-.02-.892L14.31.068a.52.52 0 0 0-.534.012l-5.41 3.406-.003.002L5.66 5.191l-.004.002L.243 8.6a.52.52 0 0 0 .02.893l8.427 4.79a.52.52 0 0 0 .534-.012l3.852-2.426a.52.52 0 1 0-.555-.88l-3.588 2.26-7.4-4.207 4.414-2.78 7.892 4.487v5.941a.52.52 0 0 0 .798.44l2.706-1.704a.52.52 0 0 0 .244-.44V8.719l-.001-.01a.533.533 0 0 0-.003-.051zm-2.702 7.067v-5.302a.52.52 0 0 0-.263-.452l-7.67-4.36 1.707-1.076 7.4 4.206-.648.408a.52.52 0 1 0 .554.881l.586-.369v5.015l-1.666 1.049z" fill="#99B1D9"/><path d="M22.203 6.951L18.35 9.377a.52.52 0 1 0 .554.88l3.852-2.425a.52.52 0 1 0-.554-.88zm-9.682 6.096l-3.588 2.26L.778 10.67a.52.52 0 0 0-.515.905l8.427 4.79a.52.52 0 0 0 .534-.013l3.852-2.425a.52.52 0 1 0-.555-.881zm9.682-4.015l-3.852 2.426a.52.52 0 1 0 .554.88l3.852-2.425a.52.52 0 1 0-.554-.88z" fill="#99B1D9"/><path d="M12.521 15.128l-3.588 2.26-8.155-4.636a.52.52 0 1 0-.515.905l8.427 4.79a.52.52 0 0 0 .534-.012l3.852-2.426a.52.52 0 1 0-.555-.88zm9.682-4.014l-3.852 2.425a.52.52 0 0 0 .554.881l3.852-2.425a.52.52 0 1 0-.554-.881z" fill="#99B1D9"/><path d="M12.521 17.21l-3.588 2.26-8.155-4.636a.52.52 0 1 0-.515.904l8.427 4.79a.52.52 0 0 0 .534-.012l3.852-2.425a.52.52 0 1 0-.555-.881z" fill="#99B1D9"/></svg>