<svg width="19" height="19" fill="none" xmlns="http://www.w3.org/2000/svg"><path d="M18.208 10.292h.159c.395-.08.633-.396.633-.792C19 4.275 14.725 0 9.5 0 6.254 0 3.325 1.583 1.504 4.354.554 5.937 0 7.68 0 9.5c0 1.346.237 2.613.792 3.88.158.316.395.474.712.474.08 0 .238 0 .317-.079.396-.158.554-.633.396-1.03-1.03-2.453-.792-5.303.633-7.52a7.888 7.888 0 0 1 5.858-3.562v7.52l-5.937 5.938c-.317.237-.317.712-.08 1.029 0 0 0 .08.08.08v.078A9.657 9.657 0 0 0 9.5 19c3.958 0 7.442-2.375 8.867-6.017.158-.396-.08-.87-.475-1.029-.396-.158-.871.08-1.03.475-1.187 3.008-4.037 4.988-7.362 4.988a7.745 7.745 0 0 1-4.987-1.821l5.304-5.304h8.391zm-7.916-8.63c1.029.08 1.979.396 2.85.871l-2.85 2.85v-3.72zm3.325 7.046l2.85-2.85c.475.871.791 1.821.87 2.85h-3.72zm1.979-4.196L11.4 8.709h-1.108V7.6l4.196-4.196a7.4 7.4 0 0 1 1.108 1.109z" fill="#fff"/></svg>