<svg width="20" height="18" fill="none" xmlns="http://www.w3.org/2000/svg"><path d="M18.88 7.883h-.476v-2.86a2.119 2.119 0 0 0-2.116-2.116h-.439l.004-1.062c0-.788-.64-1.428-1.427-1.428H1.735C.788.417.012 1.18 0 2.127v14.029c0 .787.64 1.427 1.427 1.427h14.865a2.119 2.119 0 0 0 2.116-2.116v-2.863h.476c.616 0 1.116-.5 1.116-1.116v-2.49a1.123 1.123 0 0 0-1.12-1.115zM1.735 1.402h12.69c.243 0 .444.197.444.439l-.004 1.066H1.735a.751.751 0 0 1-.75-.75c0-.415.336-.755.75-.755zm15.685 14.06c0 .624-.509 1.133-1.132 1.133H1.423a.444.444 0 0 1-.443-.443V3.719c.23.111.484.173.755.173h14.553c.623 0 1.132.508 1.132 1.132v2.859h-3.36c-.615 0-1.115.5-1.115 1.115v2.49c0 .615.5 1.116 1.116 1.116h3.359v2.859zm1.591-3.974a.13.13 0 0 1-.13.131h-4.816a.13.13 0 0 1-.131-.131v-2.49c0-.07.057-.131.13-.131h4.816c.07 0 .132.057.132.131v2.49z" fill="#fff"/></svg>