<svg width="23" height="23" fill="none" xmlns="http://www.w3.org/2000/svg"><path d="M18.925 4.075A10.431 10.431 0 0 0 11.5 1a10.431 10.431 0 0 0-7.425 3.075A10.432 10.432 0 0 0 1 11.5c0 2.805 1.092 5.442 3.075 7.425A10.431 10.431 0 0 0 11.5 22c2.805 0 5.442-1.092 7.425-3.075A10.431 10.431 0 0 0 22 11.5c0-2.805-1.092-5.441-3.075-7.425zM11.5 20.77c-5.111 0-9.27-4.159-9.27-9.27s4.16-9.27 9.27-9.27 9.27 4.159 9.27 9.27-4.159 9.27-9.27 9.27z" fill="#99B1D9" stroke="#99B1D9" stroke-width=".4"/><path d="M11.5 11.143A2.574 2.574 0 0 1 8.927 8.57 2.574 2.574 0 0 1 11.499 6a2.574 2.574 0 0 1 2.572 2.571 2.574 2.574 0 0 1-2.572 2.572zm0-4.5A1.93 1.93 0 0 0 9.57 8.57a1.93 1.93 0 0 0 1.93 1.93 1.93 1.93 0 0 0 1.928-1.929 1.93 1.93 0 0 0-1.929-1.928zm4.179 9.643H7.32a.321.321 0 0 1-.32-.322v-2.212c0-.333.17-.645.443-.815 2.414-1.506 5.702-1.506 8.114 0a.964.964 0 0 1 .443.815v2.212a.321.321 0 0 1-.321.322zm-8.036-.643h7.714v-1.891a.317.317 0 0 0-.14-.27c-2.208-1.378-5.225-1.379-7.433 0a.317.317 0 0 0-.141.27v1.89z" fill="#99B1D9" stroke="#99B1D9" stroke-width=".7"/></svg>