<svg width="20" height="20" fill="none" xmlns="http://www.w3.org/2000/svg"><path d="M15.847 7.151a3.579 3.579 0 0 1-2.832-1.395L7.52 8.825a3.587 3.587 0 0 1-.004 2.363l5.49 3.064a3.57 3.57 0 0 1 2.836-1.403 3.581 3.581 0 0 1 3.576 3.575A3.578 3.578 0 0 1 15.843 20a3.578 3.578 0 0 1-3.576-3.576c0-.415.07-.813.204-1.183l-5.486-3.065a3.558 3.558 0 0 1-2.836 1.404 3.581 3.581 0 0 1-3.576-3.576 3.576 3.576 0 1 1 6.42-2.168l5.49-3.069a3.56 3.56 0 0 1-.207-1.191A3.58 3.58 0 0 1 15.85 0a3.578 3.578 0 0 1 3.576 3.576 3.582 3.582 0 0 1-3.58 3.575zm0 11.724a2.456 2.456 0 0 0 0-4.909 2.456 2.456 0 0 0-2.454 2.454 2.46 2.46 0 0 0 2.454 2.455zM4.153 7.55a2.456 2.456 0 0 0-2.455 2.454c0 1.354 1.1 2.455 2.455 2.455a2.457 2.457 0 0 0 2.454-2.455A2.46 2.46 0 0 0 4.153 7.55zm11.694-6.425a2.456 2.456 0 0 0-2.454 2.455c0 1.354 1.1 2.454 2.454 2.454a2.456 2.456 0 0 0 0-4.909z" fill="#fff"/></svg>