<svg width="19" height="19" fill="none" xmlns="http://www.w3.org/2000/svg"><path d="M18.027 7.505l-1.333-.226a7.537 7.537 0 0 0-.536-1.294l.786-1.1a1.17 1.17 0 0 0-.127-1.511L15.634 2.19a1.165 1.165 0 0 0-1.508-.127l-1.103.786a7.453 7.453 0 0 0-1.342-.552L11.459.98a1.173 1.173 0 0 0-1.16-.98H8.63c-.576 0-1.064.413-1.16.98l-.23 1.35a7.344 7.344 0 0 0-1.29.544l-1.09-.786a1.165 1.165 0 0 0-.684-.219c-.313 0-.61.123-.83.346L2.16 3.398a1.175 1.175 0 0 0-.127 1.512l.794 1.115c-.218.417-.393.85-.528 1.298L.98 7.545C.413 7.64 0 8.13 0 8.705v1.67c0 .576.413 1.064.98 1.16l1.35.23c.139.444.321.877.544 1.29l-.782 1.087a1.17 1.17 0 0 0 .127 1.512L3.4 16.837a1.165 1.165 0 0 0 1.509.127l1.115-.794c.4.21.822.381 1.254.516l.223 1.334c.095.567.583.98 1.158.98h1.675c.576 0 1.064-.413 1.16-.98l.226-1.334a7.526 7.526 0 0 0 1.293-.536l1.1.786a1.17 1.17 0 0 0 1.513-.127l1.182-1.183c.405-.405.46-1.044.127-1.512l-.786-1.103c.218-.417.401-.85.536-1.294l1.334-.223c.567-.095.98-.583.98-1.159v-1.67a1.158 1.158 0 0 0-.973-1.16zm-.09 2.83a.103.103 0 0 1-.088.104l-1.667.277a.533.533 0 0 0-.429.393 6.352 6.352 0 0 1-.69 1.663.537.537 0 0 0 .023.584l.98 1.381c.029.04.025.1-.011.135l-1.183 1.183a.1.1 0 0 1-.075.032.098.098 0 0 1-.06-.02l-1.377-.98a.536.536 0 0 0-.584-.024c-.52.31-1.08.54-1.663.69a.527.527 0 0 0-.393.429l-.281 1.667a.103.103 0 0 1-.104.087h-1.67a.103.103 0 0 1-.104-.087l-.278-1.667a.533.533 0 0 0-.393-.429 6.6 6.6 0 0 1-1.627-.667.55.55 0 0 0-.27-.071.523.523 0 0 0-.31.1l-1.388.987a.118.118 0 0 1-.06.02.107.107 0 0 1-.075-.031l-1.183-1.183a.108.108 0 0 1-.012-.135l.976-1.37a.543.543 0 0 0 .024-.587 6.294 6.294 0 0 1-.698-1.659.544.544 0 0 0-.43-.393l-1.678-.286a.103.103 0 0 1-.087-.103v-1.67c0-.052.035-.096.087-.104l1.655-.278a.537.537 0 0 0 .433-.397 6.347 6.347 0 0 1 .678-1.667.53.53 0 0 0-.027-.58l-.989-1.388a.108.108 0 0 1 .012-.135l1.183-1.183a.1.1 0 0 1 .075-.032c.024 0 .044.008.06.02l1.37.976a.543.543 0 0 0 .587.024 6.294 6.294 0 0 1 1.659-.698.544.544 0 0 0 .393-.43l.285-1.678a.103.103 0 0 1 .104-.087h1.67c.052 0 .096.035.104.087l.278 1.655c.035.21.19.381.397.433.599.15 1.17.385 1.702.698.183.107.41.1.584-.024l1.37-.984a.113.113 0 0 1 .059-.02c.015 0 .047.004.075.032l1.183 1.183c.035.036.04.091.012.135l-.98 1.377a.536.536 0 0 0-.024.583c.31.52.54 1.08.69 1.664a.527.527 0 0 0 .429.392l1.667.282a.103.103 0 0 1 .087.103v1.671h-.004z" fill="#fff"/><path d="M9.501 5.397a4.103 4.103 0 0 0-4.1 4.1c0 2.262 1.838 4.1 4.1 4.1 2.263 0 4.1-1.838 4.1-4.1 0-2.262-1.837-4.1-4.1-4.1zm0 7.128a3.03 3.03 0 0 1-3.028-3.028 3.03 3.03 0 0 1 3.028-3.028 3.03 3.03 0 0 1 3.029 3.028 3.03 3.03 0 0 1-3.03 3.028z" fill="#fff"/></svg>