<svg width="20" height="16" fill="none" xmlns="http://www.w3.org/2000/svg"><path d="M19.886 4.52L15.466.114a.391.391 0 0 0-.543-.008l-1.98 1.86-.004.003c-.382.381-.758.55-1.22.55-.943 0-1.666.266-2.266.833-.492-.465-1.05-.705-1.828-.785L5.672.62a.392.392 0 0 0-.552 0L.114 5.61a.388.388 0 0 0-.008.541l.008.01 3.262 3.246-.138.137a1.36 1.36 0 0 0 0 1.928c.253.251.601.401.981.397A1.364 1.364 0 0 0 5.6 13.246a1.364 1.364 0 0 0 1.381 1.376c-.004.375.141.721.4.98.534.53 1.4.53 1.934 0l.138-.138.138.137c.533.532 1.4.532 1.934 0a1.35 1.35 0 0 0 .4-.978 1.36 1.36 0 0 0 1.38-1.376c.38.004.725-.143.982-.399a1.35 1.35 0 0 0 .4-.979c.363.004.716-.134.981-.398a1.359 1.359 0 0 0 0-1.927l-.138-.137c2.724-2.712-.721.725 4.356-4.337a.389.389 0 0 0 0-.55zM.943 5.885l4.453-4.439 1.5 1.496-4.451 4.439L.943 5.885zm2.848 5.036a.583.583 0 0 1 0-.826l1.38-1.377a.588.588 0 0 1 .83 0 .582.582 0 0 1 0 .826L4.62 10.921a.589.589 0 0 1-.83 0zm1.38 1.377a.582.582 0 0 1 0-.827l1.382-1.376c.23-.229.6-.229.829 0a.582.582 0 0 1 0 .826L6 12.298a.588.588 0 0 1-.828 0zm1.382 1.376a.582.582 0 0 1 0-.826l1.381-1.377a.588.588 0 0 1 .829 0 .582.582 0 0 1 0 .826l-1.381 1.377a.589.589 0 0 1-.83 0zm1.381 1.377a.582.582 0 0 1 0-.826l1.38-1.377a.587.587 0 0 1 .83 0c.23.23.227.6 0 .826l-1.381 1.377a.588.588 0 0 1-.829 0zm3.038 0a.588.588 0 0 1-.828 0l-.139-.138.691-.688c.047-.047.089-.097.128-.148l.148.148a.58.58 0 0 1 0 .826zm4.144-4.13a.589.589 0 0 1-.83 0l-1.794-1.79a.392.392 0 0 0-.553 0 .389.389 0 0 0 0 .55l1.795 1.79a.58.58 0 0 1 0 .826.587.587 0 0 1-.828 0l-1.796-1.79a.392.392 0 0 0-.552 0 .389.389 0 0 0 0 .551l1.795 1.79a.583.583 0 0 1-.414.997c-.371 0-.49-.291-.843-.598a1.35 1.35 0 0 0-.4-.95 1.359 1.359 0 0 0-.98-.399 1.365 1.365 0 0 0-1.381-1.376 1.363 1.363 0 0 0-1.382-1.377 1.35 1.35 0 0 0-.4-.978 1.371 1.371 0 0 0-1.934 0l-.69.69-.931-.926 4.597-4.584c.57.065.953.228 1.304.554l-1.103 1.1a1.557 1.557 0 0 0 0 2.203c.609.607 1.6.607 2.21 0l1.104-1.102 4.006 3.993a.583.583 0 0 1 0 .826zm-.138-2.065l-3.315-3.304.276-.276a.389.389 0 0 0 0-.55.392.392 0 0 0-.552 0L9.453 6.653a.784.784 0 0 1-1.105 0 .779.779 0 0 1 0-1.101l1.59-1.586c.464-.461 1.013-.667 1.781-.667.553 0 1.03-.166 1.477-.516l3.89 3.978-2.108 2.095zm2.66-2.646l-3.866-3.954 1.41-1.324 3.875 3.863-1.42 1.415z" fill="#fff"/></svg>