<svg width="25" height="25" fill="none" xmlns="http://www.w3.org/2000/svg"><path d="M15.478 16.112h-.732V9.521a.732.732 0 0 0-.733-.732H9.62a.732.732 0 0 0-.732.732v2.93c0 .404.328.732.732.732h.732v2.93H9.62a.732.732 0 0 0-.732.732v2.929c0 .404.328.732.732.732h5.859a.732.732 0 0 0 .732-.732v-2.93a.732.732 0 0 0-.732-.732zm-.732 2.93H10.35v-1.465h.733a.732.732 0 0 0 .732-.732V12.45a.732.732 0 0 0-.732-.732h-.732v-1.465h2.929v6.592c0 .404.328.732.732.732h.733v1.465zM12.549 2.93a2.2 2.2 0 0 0-2.197 2.197 2.2 2.2 0 0 0 2.197 2.197 2.2 2.2 0 0 0 2.197-2.197 2.2 2.2 0 0 0-2.197-2.197zm0 2.93a.733.733 0 1 1 .001-1.467.733.733 0 0 1-.001 1.466z" fill="#F5472E"/><path d="M12.55.001C5.72.001.002 5.519.002 12.451c0 2.41.691 4.805 1.954 6.79L.054 23.995c-.24.6.36 1.188.952.952l4.754-1.902C7.745 24.308 10.14 25 12.55 25 19.49 25 25 19.274 25 12.451 25 5.57 19.432.001 12.55.001zm0 23.543c-2.253 0-4.488-.69-6.293-1.925a.732.732 0 0 0-.685-.076l-3.523 1.41 1.409-3.524a.732.732 0 0 0-.076-.685c-1.235-1.805-1.925-4.04-1.925-6.293 0-6.057 4.981-10.995 11.093-10.995 6.057 0 10.995 4.948 10.995 11.005 0 6.111-4.938 11.083-10.995 11.083z" fill="#F5472E"/></svg>