<svg width="26" height="18" fill="none" xmlns="http://www.w3.org/2000/svg"><path d="M20.583 3.176H2.167C.975 3.176 0 4.13 0 5.294v10.588C0 17.047.975 18 2.167 18h18.416c1.192 0 2.167-.953 2.167-2.118V5.294c0-1.165-.975-2.118-2.167-2.118zm0 12.706H2.167V5.294h18.416v10.588zM9.75 14.823H13c2.383 0 4.333-1.905 4.333-4.235S15.383 6.353 13 6.353H9.75c-2.383 0-4.333 1.906-4.333 4.235 0 2.33 1.95 4.236 4.333 4.236zm0-6.352H13c1.192 0 2.167.953 2.167 2.117 0 1.165-.975 2.118-2.167 2.118H9.75c-1.192 0-2.167-.953-2.167-2.118 0-1.164.975-2.117 2.167-2.117zM23.833 0H5.417C4.225 0 3.25.953 3.25 2.118h20.583v12.706c1.192 0 2.167-.953 2.167-2.118V2.118C26 .953 25.025 0 23.833 0z" fill="#fff"/></svg>