<svg height="512" width="512" xmlns="http://www.w3.org/2000/svg"><path d="M464.526 314.746l-.063.031L245.193 22.29l-.031.031C233.037 7.353 213.757.008 191.508.008c-27.03 0-58.372 10.844-86.402 32.093-51.154 38.749-72.278 97.59-47.966 132.62l-.031.031L276.381 457.21l.063-.031 188.491 54.813-.409-197.246zm-63.247 112.309c-7.25 5.5-12.063 13.031-14.281 21.221l-80.496-23.406c19.344-29.623 25.719-66.061 17.844-100.371 30.654 17.063 67.246 20.969 100.935 10.404l.219 84.217c-8.44-.128-16.972 2.435-24.221 7.935zM233.068 71.693l20.624 27.53c-24.093 2.625-50.591 13.187-74.652 31.405-24.124 18.28-41.561 40.999-50.716 63.591l-20.593-27.499c.75-3.5 1.718-6.625 2.593-9.218 3.531-10.125 9.094-20.187 16.5-29.999 7.875-10.437 17.53-19.968 28.592-28.374 11.062-8.375 22.843-15.031 34.998-19.781 11.406-4.468 22.593-7.062 33.249-7.656a79.04 79.04 0 0 1 9.405.001zm68.686 204.118L201.476 142.035c8.344-5.406 17.031-9.906 25.936-13.375 11.375-4.469 22.593-7.031 33.25-7.688a94.355 94.355 0 0 1 9.374.031l145.212 193.679c-13.874 3.814-28.499 4.814-43.153 2.75-28.219-3.998-53.187-18.78-70.341-41.621zm-157.056-59.779c.75-3.468 1.719-6.593 2.594-9.188 3.562-10.125 9.093-20.218 16.53-29.999 5.75-7.656 12.468-14.812 19.937-21.374l100.245 133.746-.031.031c17.156 22.842 24.438 51.061 20.47 79.402a107.893 107.893 0 0 1-14.563 41L144.698 216.032zM128.73 63.601c10.593-8 21.811-14.218 33.342-18.437 10.25-3.719 20.437-5.687 29.436-5.687 10.75 0 19.218 2.812 23.187 7.75l2.031 2.656c-24.093 2.656-50.591 13.218-74.653 31.436-24.124 18.25-41.561 40.999-50.685 63.592l-2.063-2.75c-9.031-13 1.812-50.094 39.405-78.56z" fill="#fff"/></svg>