<svg width="15" height="13" fill="none" xmlns="http://www.w3.org/2000/svg"><path d="M1.44 4.24c.19.134.761.532 1.716 1.193.954.661 1.685 1.17 2.193 1.527.056.04.174.124.355.256a9.533 9.533 0 0 0 .888.59c.17.1.33.176.481.226.15.05.29.075.419.075h.016c.129 0 .268-.025.419-.075.15-.05.311-.126.481-.226.17-.1.316-.191.436-.272.12-.081.27-.187.452-.318.18-.132.3-.217.355-.256a6996.6 6996.6 0 0 1 3.918-2.72 3.975 3.975 0 0 0 1.02-1.03A2.21 2.21 0 0 0 15 1.946c0-.368-.133-.683-.398-.945a1.294 1.294 0 0 0-.941-.394H1.339c-.43 0-.76.145-.992.435C.116 1.332 0 1.695 0 2.131c0 .351.154.732.46 1.142.307.41.634.733.98.967z" fill="#fff"/><path d="M14.163 5.136a174.114 174.114 0 0 0-4.169 2.887 19.75 19.75 0 0 1-.774.549 4.778 4.778 0 0 1-.79.401c-.33.137-.637.205-.921.205h-.017a2.41 2.41 0 0 1-.921-.205 4.78 4.78 0 0 1-.791-.401 19.815 19.815 0 0 1-.774-.549c-.754-.552-2.14-1.515-4.16-2.887A4.434 4.434 0 0 1 0 4.407v6.646c0 .369.131.684.393.946.263.263.578.394.946.394h12.322c.368 0 .683-.131.946-.394a1.29 1.29 0 0 0 .393-.946V4.407c-.24.268-.519.511-.837.729z" fill="#fff"/></svg>