<svg width="14" height="14" fill="none" xmlns="http://www.w3.org/2000/svg"><path d="M2.333 14h9.334v-1.167H2.333V14zm11.609-6.65l-1.75-4.667a.508.508 0 0 0-.467-.35H2.217c-.175.059-.35.175-.409.35L.058 7.35C0 7.467 0 7.525 0 7.583a2.34 2.34 0 0 0 2.333 2.334 2.34 2.34 0 0 0 2.334-2.334c0-.058 0-.116-.059-.233L3.15 3.5h3.267v7.583h-1.75v1.167h4.666v-1.167h-1.75V3.5h3.267L9.392 7.35c0 .058-.059.117-.059.233a2.34 2.34 0 0 0 2.334 2.334A2.34 2.34 0 0 0 14 7.583c0-.058 0-.116-.058-.233zM3.5 7.7a1.194 1.194 0 0 1-1.167 1.05A1.194 1.194 0 0 1 1.167 7.7l1.166-3.092L3.5 7.7zm8.167 1.05A1.194 1.194 0 0 1 10.5 7.7l1.167-3.092L12.833 7.7a1.193 1.193 0 0 1-1.166 1.05zM7 1.167c.35 0 .583-.234.583-.584S7.35 0 7 0s-.583.233-.583.583.233.584.583.584z" fill="#99B1D9"/></svg>