<svg width="18" height="18" fill="none" xmlns="http://www.w3.org/2000/svg"><path d="M16.181 7.32l-1.123-.19a6.345 6.345 0 0 0-.451-1.09l.662-.926a.985.985 0 0 0-.107-1.273l-.996-.996a.981.981 0 0 0-1.27-.107l-.93.662a6.277 6.277 0 0 0-1.13-.465l-.187-1.11A.987.987 0 0 0 9.673 1H8.266a.987.987 0 0 0-.976.826l-.194 1.136c-.374.117-.738.27-1.086.458l-.919-.662a.981.981 0 0 0-.575-.184.975.975 0 0 0-.698.291l-1 .996a.99.99 0 0 0-.107 1.274l.669.939c-.184.35-.331.715-.445 1.093l-1.11.187A.987.987 0 0 0 1 8.33v1.407c0 .485.348.896.826.976l1.136.194c.117.374.27.738.458 1.086l-.659.916a.985.985 0 0 0 .107 1.273l.996.996a.981.981 0 0 0 1.27.107l.94-.668c.337.177.692.32 1.056.434l.187 1.123c.08.478.491.826.976.826h1.41a.987.987 0 0 0 .977-.826l.19-1.123a6.344 6.344 0 0 0 1.09-.45l.925.66a.981.981 0 0 0 1.273-.107l.997-.995a.99.99 0 0 0 .107-1.274l-.662-.929c.184-.35.338-.715.451-1.09l1.123-.186A.987.987 0 0 0 17 9.704V8.296a.975.975 0 0 0-.819-.976zm-.077 2.384c0 .043-.03.08-.073.086l-1.404.234a.449.449 0 0 0-.361.331 5.317 5.317 0 0 1-.582 1.4.452.452 0 0 0 .02.492l.826 1.163a.09.09 0 0 1-.01.114l-.996.996a.085.085 0 0 1-.064.027.082.082 0 0 1-.05-.017l-1.16-.826a.452.452 0 0 0-.49-.02 5.35 5.35 0 0 1-1.401.582.444.444 0 0 0-.331.36l-.238 1.405a.086.086 0 0 1-.086.073H8.296a.086.086 0 0 1-.087-.073l-.233-1.404a.449.449 0 0 0-.331-.361 5.55 5.55 0 0 1-1.37-.562.463.463 0 0 0-.228-.06.44.44 0 0 0-.26.084l-1.17.832a.1.1 0 0 1-.05.017.09.09 0 0 1-.064-.027l-.996-.996a.09.09 0 0 1-.01-.114l.822-1.153a.458.458 0 0 0 .02-.495 5.3 5.3 0 0 1-.588-1.397.458.458 0 0 0-.361-.33l-1.414-.241a.087.087 0 0 1-.074-.087V8.33c0-.044.03-.08.074-.087l1.394-.234c.177-.03.32-.16.364-.334a5.33 5.33 0 0 1 .572-1.404.446.446 0 0 0-.024-.488l-.832-1.17a.091.091 0 0 1 .01-.114l.996-.996a.085.085 0 0 1 .064-.026c.02 0 .036.006.05.016l1.153.823c.147.103.34.11.494.02a5.3 5.3 0 0 1 1.398-.589c.17-.046.3-.187.33-.36l.241-1.414a.087.087 0 0 1 .087-.074H9.68c.044 0 .08.03.087.074l.234 1.393c.03.178.16.321.334.365.505.127.986.324 1.434.588.154.09.344.084.491-.02l1.154-.829a.1.1 0 0 1 .05-.017.09.09 0 0 1 .063.027l.996.996a.09.09 0 0 1 .01.114l-.825 1.16a.452.452 0 0 0-.02.49c.26.439.454.91.581 1.401a.444.444 0 0 0 .361.331l1.404.237a.087.087 0 0 1 .074.087v1.408h-.004z" fill="#99B1D9" stroke="#99B1D9" stroke-width=".5"/><path d="M9.001 5.545A3.455 3.455 0 0 0 5.55 8.997 3.455 3.455 0 0 0 9 12.45a3.455 3.455 0 0 0 3.453-3.453A3.455 3.455 0 0 0 9 5.545zm0 6.003a2.552 2.552 0 0 1-2.55-2.55 2.552 2.552 0 0 1 2.55-2.55 2.552 2.552 0 0 1 2.55 2.55 2.552 2.552 0 0 1-2.55 2.55z" fill="#99B1D9" stroke="#99B1D9" stroke-width=".5"/></svg>