<svg width="17" height="11" fill="none" xmlns="http://www.w3.org/2000/svg"><path d="M16.305 8.172a.325.325 0 0 0-.455-.09l-2.456 1.61H10.16v-1.35h3.332c.07 0 .139-.026.191-.065l2.536-1.83a.324.324 0 0 0 .072-.459.324.324 0 0 0-.457-.072l-2.447 1.768H10.16V6.301h3.332a.326.326 0 0 0 .205-.062l2.535-1.999a.33.33 0 0 0 .05-.464.329.329 0 0 0-.458-.056l-2.447 1.923H10.16V4.326h3.332a.35.35 0 0 0 .224-.093l2.536-2.35a.342.342 0 0 0 .082-.37.339.339 0 0 0-.306-.217h-3.141c-.004 0-.01-.059-.02-.085A.332.332 0 0 0 12.56 1H7.523a.331.331 0 0 0-.224.089l-.22.207H3.864a.338.338 0 0 0-.224.096L1.105 3.74a.342.342 0 0 0-.082.368.34.34 0 0 0 .306.218h3.135v1.317H1.329A.33.33 0 0 0 1 5.972c0 .181.148.33.33.33h3.134v1.382H1.329a.33.33 0 0 0-.329.33c0 .18.148.329.33.329h3.134v1.35H1.329a.33.33 0 0 0-.329.329c0 .181.148.33.33.33h12.162a.325.325 0 0 0 .182-.063l2.535-1.66a.333.333 0 0 0 .096-.457zM12.39 1.955h2.798l-1.824 1.712h-2.802l1.814-1.699c.004 0 .007-.013.014-.013zM4.556 3.667H2.17l1.824-1.712H6.37L4.573 3.64c-.007.003-.01-.007-.017.026zm4.946.214v5.812h-4.38V4.026l2.256-2.104.273-.263h4.073L9.607 3.63a.34.34 0 0 0-.105.25z" fill="#99B1D9" stroke="#99B1D9" stroke-width=".3"/><path d="M7.292 5.294H7.3c.3 0 .543.243.543.543a.33.33 0 0 0 .326.333.33.33 0 0 0 .333-.326v-.007a1.216 1.216 0 0 0-.876-1.156v-.214a.33.33 0 0 0-.33-.329.33.33 0 0 0-.329.33v.213a1.203 1.203 0 0 0 .33 2.358.544.544 0 1 1-.544.543.33.33 0 0 0-.329-.33.33.33 0 0 0-.33.33c.004.537.36 1.004.873 1.156v.214a.33.33 0 0 0 .659 0v-.214A1.22 1.22 0 0 0 8.5 7.582 1.2 1.2 0 0 0 7.299 6.38a.542.542 0 0 1-.547-.54.542.542 0 0 1 .54-.546z" fill="#99B1D9" stroke="#99B1D9" stroke-width=".3"/></svg>