<svg width="16" height="21" fill="none" xmlns="http://www.w3.org/2000/svg"><path d="M13.656 7.344a7.994 7.994 0 0 0-11.312 0 7.994 7.994 0 0 0 0 11.312 7.994 7.994 0 0 0 11.312 0 7.994 7.994 0 0 0 0-11.312zM8 19.684A6.692 6.692 0 0 1 1.316 13 6.692 6.692 0 0 1 8 6.316 6.692 6.692 0 0 1 14.684 13 6.692 6.692 0 0 1 8 19.684z" fill="#99B1D9"/><path d="M10.563 13.952c0-1.2-.953-1.986-2.346-1.986H7.136v-1.01h2.87V9.658H5.522V16h2.76c1.358 0 2.28-.804 2.28-2.048zm-3.427.804v-1.621h.742c.655 0 1.042.281 1.042.813 0 .531-.387.808-1.033.808h-.751z" fill="#99B1D9"/></svg>