<svg width="17" height="17" fill="none" xmlns="http://www.w3.org/2000/svg"><path d="M14.51 2.49A8.444 8.444 0 0 0 8.5 0C6.23 0 4.095.884 2.49 2.49A8.444 8.444 0 0 0 0 8.5c0 2.27.884 4.405 2.49 6.01A8.445 8.445 0 0 0 8.5 17c2.27 0 4.405-.884 6.01-2.49A8.444 8.444 0 0 0 17 8.5c0-2.27-.884-4.405-2.49-6.01zM8.5 15.672c-3.955 0-7.172-3.218-7.172-7.172A7.18 7.18 0 0 1 8.5 1.328c3.954 0 7.172 3.217 7.172 7.172 0 3.954-3.218 7.172-7.172 7.172zm.664-7.837h2.988v1.328H9.164v2.989H7.836V9.163H4.848V7.835h2.988V4.847h1.328v2.988z" fill="#99B1D9"/></svg>