<svg width="16" height="21" fill="none" xmlns="http://www.w3.org/2000/svg"><path d="M13.656 7.344a7.994 7.994 0 0 0-11.312 0 7.994 7.994 0 0 0 0 11.312 7.994 7.994 0 0 0 11.312 0 7.994 7.994 0 0 0 0-11.312zM8 19.684A6.692 6.692 0 0 1 1.316 13 6.692 6.692 0 0 1 8 6.316 6.692 6.692 0 0 1 14.684 13 6.692 6.692 0 0 1 8 19.684z" fill="#99B1D9"/><path d="M7.296 11.206c0-1.06-.593-1.71-1.56-1.71-.967 0-1.56.65-1.56 1.71 0 1.059.593 1.709 1.56 1.709.967 0 1.56-.65 1.56-1.71zm-1.56.69c-.185 0-.295-.26-.295-.704 0-.444.11-.703.295-.703.184 0 .294.26.294.703 0 .444-.11.704-.294.704zM6.417 16l2.215-3.041 2.404-3.3H9.673L7.53 12.603 5.055 16h1.362zm5.498-1.595c0-1.06-.594-1.71-1.56-1.71-.967 0-1.56.65-1.56 1.71 0 1.059.593 1.71 1.56 1.71.966 0 1.56-.651 1.56-1.71zm-1.56.69c-.185 0-.295-.26-.295-.703 0-.444.11-.704.294-.704.185 0 .295.26.295.704 0 .443-.11.703-.294.703z" fill="#99B1D9"/></svg>