<svg width="17" height="16" fill="none" xmlns="http://www.w3.org/2000/svg"><path d="M15.54 4.858h-3.067c.22-.15.41-.3.541-.433a2.028 2.028 0 0 0 0-2.852c-.759-.764-2.083-.765-2.843 0-.42.422-1.535 2.139-1.381 3.285h-.07c.153-1.146-.962-2.863-1.381-3.285-.76-.765-2.084-.764-2.843 0a2.029 2.029 0 0 0-.001 2.852c.132.134.321.283.541.433H1.97a.971.971 0 0 0-.969.97V8.25c0 .268.217.485.485.485h.484v5.816c0 .534.436.97.97.97h11.63c.534 0 .97-.436.97-.97V8.736h.484a.485.485 0 0 0 .485-.485V5.828a.971.971 0 0 0-.97-.97zM5.183 2.257a1.03 1.03 0 0 1 1.468 0c.654.657 1.303 2.336 1.077 2.57 0 0-.04.031-.179.031-.67 0-1.948-.696-2.366-1.116a1.057 1.057 0 0 1 0-1.485zM8.27 14.552H2.94V8.736h5.33v5.816zm0-6.785h-6.3v-1.94h6.3v1.94zm2.588-5.51a1.06 1.06 0 0 1 1.469 0 1.058 1.058 0 0 1 0 1.485c-.418.42-1.696 1.116-2.366 1.116-.139 0-.18-.03-.18-.032-.225-.233.424-1.912 1.077-2.57zm3.713 12.295H9.24V8.736h5.331v5.816zm.97-6.785H9.24v-1.94h6.3v1.94z" fill="#99B1D9" stroke="#99B1D9" stroke-width=".4"/></svg>