<svg width="16" height="14" fill="none" xmlns="http://www.w3.org/2000/svg"><path d="M8.41 6.531h-.822a.764.764 0 0 1 0-1.527H9.23a.469.469 0 0 0 0-.937h-.764v-.764a.469.469 0 0 0-.937 0v.765a1.703 1.703 0 0 0-1.643 1.7c0 .938.763 1.7 1.7 1.7h.822a.765.765 0 0 1 0 1.528H6.766a.469.469 0 0 0 0 .938h.764v.763a.469.469 0 0 0 .937 0v-.765a1.703 1.703 0 0 0 1.644-1.7c0-.938-.764-1.7-1.702-1.7z" fill="#A5BADE"/><path d="M13.836 9.035a.469.469 0 0 0-.617.242A5.696 5.696 0 0 1 8 12.693c-2.796 0-5.166-2.075-5.615-4.765l1.243.831a.469.469 0 1 0 .52-.78L2.099 6.61a.47.47 0 0 0-.65.13L.08 8.789a.469.469 0 0 0 .78.52l.646-.967a6.591 6.591 0 0 0 1.86 3.4A6.594 6.594 0 0 0 8 13.63a6.633 6.633 0 0 0 6.078-3.979.469.469 0 0 0-.242-.617zm1.956-4.474a.469.469 0 0 0-.65.13l-.647.967a6.592 6.592 0 0 0-1.86-3.4A6.594 6.594 0 0 0 8 .37a6.633 6.633 0 0 0-6.078 3.979.469.469 0 1 0 .86.375A5.696 5.696 0 0 1 8 1.307c2.797 0 5.168 2.075 5.617 4.765l-1.244-.831a.469.469 0 1 0-.52.78l2.049 1.369a.466.466 0 0 0 .65-.13l1.37-2.049a.469.469 0 0 0-.13-.65z" fill="#A5BADE"/></svg>