<svg width="17" height="14" fill="none" xmlns="http://www.w3.org/2000/svg"><path d="M7.164 11.525c-.709 0-1.362-.28-1.866-.765a2.64 2.64 0 0 1-.765-1.866c0-.709.28-1.362.765-1.865a2.624 2.624 0 0 1 3.713 0l-.783.783a1.48 1.48 0 0 0-1.064-.429c-.41 0-.784.15-1.063.43-.28.28-.43.652-.43 1.063 0 .41.15.783.43 1.063a1.544 1.544 0 0 0 2.145 0c.205-.205.317-.41.392-.69 0-.019.019-.075.019-.093h1.12c0 .149-.038.26-.057.354a2.62 2.62 0 0 1-.69 1.213 2.516 2.516 0 0 1-1.866.802z" fill="#99B1D9"/><path d="M16.68 4.379L14.853.33a.542.542 0 0 0-.616-.317L8.845 1.039a.495.495 0 0 0-.336.205l-2.63 3.359H.56a.55.55 0 0 0-.56.56v7.482c0 .317.243.56.56.56h13.023a.55.55 0 0 0 .56-.56V6.823l2.37-1.772a.552.552 0 0 0 .168-.672zM8.285 9.212c.206.242.448.429.728.503.168.056.355.094.523.094.354 0 .709-.112 1.007-.336l2.463-1.829v2.724h-.112c-.877 0-1.605.728-1.605 1.605v.112H2.855v-.112c0-.877-.728-1.605-1.605-1.605h-.13V7.44h.13c.877 0 1.605-.728 1.605-1.605v-.112h6.66L8.36 6.954a.99.99 0 0 0-.168.205 1.635 1.635 0 0 0 .093 2.053zm-6.549-3.49v.112a.494.494 0 0 1-.485.485h-.13v-.597h.615zm-.615 5.766h.13c.261 0 .485.224.485.485v.112H1.12v-.597zm11.307.597v-.112c0-.261.223-.485.485-.485h.112v.597h-.597zm.82-5.99L9.89 8.578a.524.524 0 0 1-.522.075.391.391 0 0 1-.206-.15c0-.018-.018-.018-.018-.037a.493.493 0 0 1-.13-.354c0-.112.036-.243.111-.336 0 0 .019-.019.019-.038L9.18 7.7l2.687-2.855a.558.558 0 0 0-.019-.783.557.557 0 0 0-.783.018l-.467.504H7.314l1.96-2.519 4.739-.877 1.455 3.247-2.22 1.66z" fill="#99B1D9"/></svg>