<svg width="22" height="12" fill="none" xmlns="http://www.w3.org/2000/svg"><path d="M2.378 7.719l-.002.008V4.38l1.015 1.052a.259.259 0 0 0 .374 0l.158-.164A.277.277 0 0 0 4 5.076a.277.277 0 0 0-.077-.193L2.187 3.08A.256.256 0 0 0 2 3a.256.256 0 0 0-.187.08L.077 4.883A.277.277 0 0 0 0 5.076c0 .073.027.142.077.193l.157.164a.26.26 0 0 0 .187.08.25.25 0 0 0 .182-.08l1.021-1.064v3.354c0 .15.125.277.27.277h.223c.145 0 .26-.13.26-.281z" fill="#99B1D9"/><path d="M20.222 4v6.222H7.778v-.778H7v.778c0 .43.348.778.778.778h12.444c.43 0 .778-.348.778-.778V4.778A.778.778 0 0 0 20.222 4z" fill="#99B1D9" stroke="#99B1D9" stroke-width=".3"/><path d="M19.222 1H6.778C6.348 1 6 1.398 6 1.889V8.11c0 .491.348.889.778.889h12.444c.43 0 .778-.398.778-.889V1.89c0-.491-.348-.889-.778-.889zm0 7.111H6.778V1.89h12.444v6.22z" fill="#99B1D9" stroke="#99B1D9" stroke-width=".3"/><path d="M12.5 3c-.829 0-1.5.84-1.5 1.875 0 1.035.671 1.875 1.5 1.875S14 5.91 14 4.875C14 3.84 13.329 3 12.5 3zm0 3c-.4 0-.75-.526-.75-1.125 0-.6.35-1.125.75-1.125s.75.526.75 1.125c0 .6-.35 1.125-.75 1.125z" fill="#99B1D9"/></svg>