<svg width="35" height="33" fill="none" xmlns="http://www.w3.org/2000/svg"><path d="M34.62 27.816L19.931 2.376c-1.081-1.872-3.782-1.872-4.864 0L.381 27.817C-.7 29.69.65 32.028 2.812 32.028h29.375c2.163 0 3.514-2.339 2.432-4.212zm-2.432 1.639H2.811a.233.233 0 0 1-.203-.352l14.688-25.44a.234.234 0 0 1 .406 0l14.688 25.44a.233.233 0 0 1-.203.352z" fill="#364DBF"/><path d="M17.5 11.646c-.71 0-1.287.576-1.287 1.287v7.375a1.287 1.287 0 0 0 2.574 0v-7.375c0-.71-.576-1.287-1.287-1.287zm0 11.62c-.71 0-1.287.576-1.287 1.287v.768a1.287 1.287 0 0 0 2.574 0v-.768c0-.711-.576-1.287-1.287-1.287z" fill="#364DBF"/></svg>