<svg width="12" height="18" fill="none" xmlns="http://www.w3.org/2000/svg"><path d="M5.62 9.74A4.87 4.87 0 1 0 .75 4.87a4.876 4.876 0 0 0 4.87 4.87zm0-7.492a2.623 2.623 0 1 1 0 5.245 2.623 2.623 0 0 1 0-5.245z" fill="#fff"/><path d="M10.39 12.049c.53-.349.849-.94.85-1.574a1.36 1.36 0 0 0-.762-1.24 1.424 1.424 0 0 0-1.5.14 5.702 5.702 0 0 1-6.717 0 1.431 1.431 0 0 0-1.498-.14A1.36 1.36 0 0 0 0 10.475c.001.633.32 1.224.85 1.573a8.65 8.65 0 0 0 2.195 1.049c.131.04.268.079.408.114l-2.264 2.214a1.499 1.499 0 1 0 2.123 2.114l2.308-2.388 2.312 2.393a1.498 1.498 0 1 0 2.116-2.122l-2.26-2.212a8.618 8.618 0 0 0 2.603-1.161z" fill="#fff"/></svg>