<svg width="11" height="15" fill="none" xmlns="http://www.w3.org/2000/svg"><path d="M5.298 0c2.594 0 5.149 1.195 5.149 4.053 0 2.636-3.02 3.65-3.67 4.602-.486.708-.324 1.704-1.662 1.704-.871 0-1.297-.709-1.297-1.358 0-2.413 3.547-2.96 3.547-4.947 0-1.094-.728-1.743-1.945-1.743-2.595 0-1.582 2.675-3.547 2.675-.71 0-1.318-.426-1.318-1.236C.555 1.762 2.824 0 5.298 0zm-.101 11.675c.91 0 1.662.749 1.662 1.663A1.67 1.67 0 0 1 5.197 15a1.67 1.67 0 0 1-1.663-1.663c0-.913.75-1.663 1.663-1.663z" fill="#fff"/></svg>