<svg width="65" height="65" fill="none" xmlns="http://www.w3.org/2000/svg"><circle cx="32.5" cy="32.5" r="31" stroke="#263592" stroke-width="3"/><path d="M31.3 41.763l.008.035V27.076l-4.569 4.628a1.175 1.175 0 0 1-.842.351c-.317 0-.617-.124-.84-.35l-.71-.72a1.203 1.203 0 0 1-.347-.85c0-.323.122-.625.346-.851l7.813-7.933c.224-.228.523-.352.84-.351.319 0 .617.123.841.35l7.814 7.934c.223.226.346.528.346.85 0 .322-.123.624-.346.85l-.71.72c-.222.227-.52.351-.836.351a1.13 1.13 0 0 1-.822-.35l-4.594-4.68V41.78c0 .663-.563 1.22-1.216 1.22h-1.004c-.653 0-1.171-.574-1.171-1.237z" fill="#263492"/></svg>