<svg width="18" height="18" fill="none" xmlns="http://www.w3.org/2000/svg"><path d="M17.079 7.111l-1.264-.214a7.134 7.134 0 0 0-.507-1.226l.744-1.041a1.109 1.109 0 0 0-.12-1.433l-1.12-1.12a1.104 1.104 0 0 0-1.43-.12l-1.045.744a7.06 7.06 0 0 0-1.27-.523L10.855.93A1.11 1.11 0 0 0 9.758 0H8.175a1.11 1.11 0 0 0-1.098.93l-.218 1.278a6.958 6.958 0 0 0-1.223.515L4.602 1.98a1.104 1.104 0 0 0-.646-.207c-.297 0-.58.117-.786.327L2.046 3.22a1.113 1.113 0 0 0-.12 1.433l.751 1.057a6.97 6.97 0 0 0-.5 1.23l-1.248.21A1.11 1.11 0 0 0 0 8.247V9.83c0 .545.391 1.008.929 1.098l1.278.218c.132.421.305.831.515 1.222l-.74 1.03a1.109 1.109 0 0 0 .12 1.433l1.12 1.12a1.104 1.104 0 0 0 1.43.12l1.056-.751c.38.2.778.36 1.188.489l.21 1.263c.091.538.553.929 1.099.929H9.79a1.11 1.11 0 0 0 1.098-.929l.215-1.263a7.148 7.148 0 0 0 1.226-.508l1.041.745c.188.135.414.206.647.206.297 0 .575-.116.786-.327l1.12-1.12c.384-.384.436-.99.12-1.433l-.744-1.045a7.08 7.08 0 0 0 .508-1.226l1.263-.21a1.11 1.11 0 0 0 .93-1.1V8.21a1.097 1.097 0 0 0-.921-1.098zm-.087 2.681c0 .05-.034.09-.083.098l-1.579.263a.505.505 0 0 0-.406.373 6.02 6.02 0 0 1-.654 1.575.508.508 0 0 0 .022.553l.93 1.309a.102.102 0 0 1-.012.127l-1.12 1.12a.096.096 0 0 1-.072.03.092.092 0 0 1-.057-.018l-1.304-.929a.508.508 0 0 0-.553-.022 6.02 6.02 0 0 1-1.576.654.499.499 0 0 0-.372.406l-.267 1.58a.097.097 0 0 1-.098.082H8.208a.097.097 0 0 1-.097-.083l-.264-1.579a.505.505 0 0 0-.372-.406 6.252 6.252 0 0 1-1.541-.632.52.52 0 0 0-.256-.067.495.495 0 0 0-.293.094l-1.317.936a.112.112 0 0 1-.056.019.1.1 0 0 1-.071-.03l-1.12-1.12a.102.102 0 0 1-.012-.129l.925-1.297a.515.515 0 0 0 .022-.556 5.963 5.963 0 0 1-.661-1.572.515.515 0 0 0-.406-.373l-1.591-.27a.097.097 0 0 1-.083-.098V8.247c0-.049.034-.09.083-.098l1.568-.263c.2-.034.36-.18.41-.376a6 6 0 0 1 .643-1.58.502.502 0 0 0-.027-.548l-.936-1.316a.102.102 0 0 1 .011-.128l1.121-1.12a.095.095 0 0 1 .071-.03c.023 0 .042.007.057.018l1.297.925a.515.515 0 0 0 .557.023 5.962 5.962 0 0 1 1.571-.662.515.515 0 0 0 .373-.406l.27-1.59a.097.097 0 0 1 .098-.084h1.583c.049 0 .09.034.098.083l.263 1.568c.034.2.18.361.376.41.568.143 1.11.365 1.613.662a.508.508 0 0 0 .553-.023l1.297-.932a.112.112 0 0 1 .057-.02.1.1 0 0 1 .071.031l1.12 1.12a.102.102 0 0 1 .012.128l-.929 1.305a.508.508 0 0 0-.022.553 6.02 6.02 0 0 1 .654 1.575.5.5 0 0 0 .406.373l1.58.267a.097.097 0 0 1 .082.097v1.583h-.004z" fill="#fff"/><path d="M9.001 5.114a3.887 3.887 0 0 0-3.884 3.884 3.887 3.887 0 0 0 3.884 3.884 3.887 3.887 0 0 0 3.885-3.884A3.887 3.887 0 0 0 9 5.114zm0 6.753a2.87 2.87 0 0 1-2.869-2.869 2.87 2.87 0 0 1 2.87-2.869A2.87 2.87 0 0 1 11.87 9a2.87 2.87 0 0 1-2.869 2.868z" fill="#fff"/></svg>