<svg width="18" height="10" fill="none" xmlns="http://www.w3.org/2000/svg"><path d="M17.515 0H3.485C3.217 0 3 .14 3 .31v1.38c0 .17.217.31.485.31h14.03c.267 0 .485-.14.485-.31V.31c0-.17-.217-.31-.485-.31zm0 4H3.485C3.217 4 3 4.14 3 4.31v1.38c0 .17.217.31.485.31h14.03c.267 0 .485-.14.485-.31V4.31c0-.17-.217-.31-.485-.31zm0 4H3.485C3.217 8 3 8.14 3 8.31v1.38c0 .17.217.31.485.31h14.03c.267 0 .485-.14.485-.31V8.31c0-.17-.217-.31-.485-.31zM1.935 8H.065C.029 8 0 8.14 0 8.31v1.38c0 .17.029.31.065.31h1.87C1.971 10 2 9.86 2 9.69V8.31C2 8.14 1.971 8 1.935 8zm0-4H.065C.029 4 0 4.14 0 4.31v1.38c0 .17.029.31.065.31h1.87C1.971 6 2 5.86 2 5.69V4.31C2 4.14 1.971 4 1.935 4zm0-4H.065C.029 0 0 .14 0 .31v1.38c0 .17.029.31.065.31h1.87C1.971 2 2 1.86 2 1.69V.31C2 .14 1.971 0 1.935 0z" fill="#364DBF"/></svg>