<svg width="21" height="18" fill="none" xmlns="http://www.w3.org/2000/svg"><path d="M19.551 16.787H1.45a.449.449 0 1 0 0 .897h18.1a.449.449 0 0 0 0-.897zM18.38 3.12h-3.152a.449.449 0 0 0-.448.448V6.62h-2.255V1.449A.449.449 0 0 0 12.076 1H8.924a.449.449 0 0 0-.45.449v8.494H6.22V6.127a.449.449 0 0 0-.449-.449H2.62a.45.45 0 0 0-.45.449v8.593a.45.45 0 0 0 .45.449h15.76a.449.449 0 0 0 .449-.449V3.568a.45.45 0 0 0-.45-.449zM5.323 14.27H3.068V6.576h2.254v7.695zm3.153 0H6.22v-3.43h2.255v3.43zm3.152-7.202v7.202H9.372V1.898h2.255v5.17zm3.153 7.202h-2.255V7.518h2.255v6.753zm3.152 0h-2.255V4.017h2.255V14.27h0z" fill="#fff" stroke="#fff" stroke-width=".6"/></svg>