<svg width="13" height="11" fill="none" xmlns="http://www.w3.org/2000/svg"><path d="M6.992.18l1.457 3.448 3.73.32a.294.294 0 0 1 .167.516l-2.829 2.45.848 3.647a.294.294 0 0 1-.438.318L6.72 8.946l-3.205 1.933a.294.294 0 0 1-.438-.318l.848-3.646-2.83-2.452a.294.294 0 0 1 .168-.515l3.73-.32L6.45.18c.101-.24.44-.24.542 0z" fill="#DBDBDB"/><path fill-rule="evenodd" clip-rule="evenodd" d="M4.3 3.688l-3.03.26a.294.294 0 0 0-.168.515l2.83 2.452-.848 3.646a.294.294 0 0 0 .438.318l3.205-1.933.088.053L4.3 3.688z" fill="#F5472E"/></svg>