<svg width="32" height="32" fill="none" xmlns="http://www.w3.org/2000/svg"><path d="M30.667 17.333h.266C31.6 17.2 32 16.667 32 16c0-8.8-7.2-16-16-16C10.533 0 5.6 2.667 2.533 7.333.933 10 0 12.933 0 16c0 2.267.4 4.4 1.333 6.533.267.534.667.8 1.2.8.134 0 .4 0 .534-.133.666-.267.933-1.067.666-1.733C2 17.333 2.4 12.533 4.8 8.8a13.285 13.285 0 0 1 9.867-6v12.667l-10 10c-.534.4-.534 1.2-.134 1.733 0 0 0 .133.134.133v.134C7.733 30.4 11.733 32 16 32c6.667 0 12.533-4 14.933-10.133.267-.667-.133-1.467-.8-1.734-.666-.266-1.466.134-1.733.8-2 5.067-6.8 8.4-12.4 8.4-3.067 0-6-1.066-8.4-3.066l8.933-8.934h14.134zM17.333 2.8c1.734.133 3.334.667 4.8 1.467l-4.8 4.8V2.8zm5.6 11.867l4.8-4.8c.8 1.466 1.334 3.066 1.467 4.8h-6.267zM26.267 7.6L19.2 14.667h-1.867V12.8L24.4 5.733A12.39 12.39 0 0 1 26.267 7.6z" fill="#233183"/></svg>