<svg width="40" height="40" fill="none" xmlns="http://www.w3.org/2000/svg"><circle cx="20" cy="20" r="19.123" stroke="#99B1D9" stroke-width="1.754"/><path d="M19.262 25.701l.005.021v-9.059l-2.812 2.848a.724.724 0 0 1-.518.216.723.723 0 0 1-.518-.216l-.436-.443a.74.74 0 0 1-.213-.523.74.74 0 0 1 .212-.523l4.809-4.882a.718.718 0 0 1 .516-.216.72.72 0 0 1 .518.216l4.809 4.882a.74.74 0 0 1 .212.523.741.741 0 0 1-.212.523l-.437.443a.717.717 0 0 1-.515.216.695.695 0 0 1-.506-.216l-2.827-2.88v9.08a.761.761 0 0 1-.748.751h-.618c-.402 0-.72-.353-.72-.76z" fill="#99B1D9"/></svg>