<svg width="22" height="25" fill="none" xmlns="http://www.w3.org/2000/svg"><path d="M3 14.583c-1.7 0-3 1.354-3 3.125v4.167C0 23.645 1.3 25 3 25s3-1.354 3-3.125v-4.167c0-1.77-1.3-3.125-3-3.125zm1 7.292c0 .625-.4 1.042-1 1.042s-1-.417-1-1.042v-4.167c0-.625.4-1.041 1-1.041s1 .416 1 1.041v4.167zm7-13.542c-1.7 0-3 1.354-3 3.125v10.417C8 23.645 9.3 25 11 25s3-1.354 3-3.125V11.458c0-1.77-1.3-3.125-3-3.125zm1 13.542c0 .625-.4 1.042-1 1.042s-1-.417-1-1.042V11.458c0-.625.4-1.041 1-1.041s1 .416 1 1.041v10.417zM19 0c-1.7 0-3 1.354-3 3.125v18.75C16 23.645 17.3 25 19 25s3-1.354 3-3.125V3.125C22 1.355 20.7 0 19 0zm1 21.875c0 .625-.4 1.042-1 1.042s-1-.417-1-1.042V3.125c0-.625.4-1.042 1-1.042s1 .417 1 1.042v18.75z" fill="#101951"/></svg>