<svg width="20" height="12" fill="none" xmlns="http://www.w3.org/2000/svg"><path d="M19.894 10.305a1.385 1.385 0 0 0-.068-.13c-.347-.625-1.01-1.392-1.989-2.301l-.02-.021-.01-.01-.011-.01h-.01c-.445-.424-.726-.71-.844-.855-.216-.278-.264-.559-.146-.843.083-.216.396-.67.937-1.364.285-.368.51-.663.677-.886 1.2-1.596 1.722-2.617 1.562-3.061L19.91.72c-.042-.062-.15-.12-.323-.172-.174-.052-.396-.06-.666-.026l-3 .021a.389.389 0 0 0-.208.005l-.135.032-.052.026-.042.031a.462.462 0 0 0-.114.11.713.713 0 0 0-.104.182c-.327.84-.698 1.62-1.114 2.342-.257.43-.493.804-.709 1.12a5.38 5.38 0 0 1-.541.697c-.146.15-.278.27-.396.36-.118.09-.208.128-.27.114a7.733 7.733 0 0 1-.178-.041.693.693 0 0 1-.234-.256 1.145 1.145 0 0 1-.12-.406 4.48 4.48 0 0 1-.036-.421 8.705 8.705 0 0 1 .005-.5c.007-.216.01-.361.01-.438 0-.264.006-.55.016-.859l.026-.734c.007-.18.01-.371.01-.573 0-.2-.012-.359-.036-.473a1.62 1.62 0 0 0-.109-.334.561.561 0 0 0-.213-.25 1.203 1.203 0 0 0-.35-.14C10.66.054 10.192.008 9.623 0 8.33-.012 7.5.071 7.133.251a1.414 1.414 0 0 0-.396.313c-.125.153-.142.236-.052.25.417.062.712.211.885.447l.063.125c.049.09.097.25.146.48.048.228.08.482.093.76.035.506.035.94 0 1.301a15.5 15.5 0 0 1-.099.844 1.689 1.689 0 0 1-.265.718.18.18 0 0 1-.052.052.78.78 0 0 1-.281.052c-.098 0-.216-.048-.354-.146a2.498 2.498 0 0 1-.432-.4 5.36 5.36 0 0 1-.506-.714A12.448 12.448 0 0 1 5.3 3.25l-.166-.302a25.97 25.97 0 0 1-.427-.848c-.18-.372-.34-.731-.48-1.078a.686.686 0 0 0-.249-.333L3.926.657A.713.713 0 0 0 3.759.57 1.105 1.105 0 0 0 3.52.5L.668.521C.375.522.177.589.073.72L.031.782A.337.337 0 0 0 0 .95c0 .076.02.17.063.28.416.98.869 1.924 1.358 2.833.49.91.915 1.642 1.276 2.197a25.4 25.4 0 0 0 1.104 1.573c.375.493.623.809.744.947.122.14.217.243.287.313l.26.25c.167.166.411.366.734.598.323.233.68.462 1.073.688.392.225.848.41 1.37.552.52.142 1.026.2 1.52.171h1.197c.243-.02.427-.097.552-.229l.041-.052a.687.687 0 0 0 .078-.192c.025-.087.037-.183.037-.287a3.434 3.434 0 0 1 .067-.807c.052-.239.111-.42.178-.541a1.329 1.329 0 0 1 .4-.458.682.682 0 0 1 .084-.037c.166-.055.362-.001.588.162.226.163.438.365.636.604.197.24.435.508.713.807.277.298.52.52.729.666l.208.125c.139.084.32.16.541.23.222.069.417.086.584.051l2.665-.041c.264 0 .469-.044.614-.13.146-.087.233-.183.26-.287a.808.808 0 0 0 .006-.354 1.306 1.306 0 0 0-.073-.276z" fill="#fff"/></svg>