<svg width="16" height="19" fill="none" xmlns="http://www.w3.org/2000/svg"><path fill-rule="evenodd" clip-rule="evenodd" d="M14.54 10.502c.771.037 1.425-.603 1.459-1.43.033-.828-.509-1.572-1.28-1.608L9.6 6.785s1.067-1.883 1.067-4.674C10.666.25 9.407 0 8.666 0c-.582 0-.739 1.191-.739 1.191h-.001c-.132.764-.304 1.431-.9 2.66-.669 1.377-1.579 1.247-2.641 2.474-.188.216-.44.572-.685 1.01a.352.352 0 0 0-.057.102c-.022.055-.048.092-.071.143a6.708 6.708 0 0 0-.12.24c-.658.694-1.682.623-2.118.623C.459 8.443 0 8.98 0 9.851v6.433c0 .977.379 1.306 1.334 1.306h1.333c.671 0 1.197.407 2 .704 1.1.402 2.743.704 5.572.704l2.03.002c.47 0 .848-.227 1.12-.5.104-.104.212-.255.259-.55.007-.046.015-.237.014-.263.035-.844-.448-1.15-.721-1.245.007-.003.002-.01.017-.01l.869.042c.771.037 1.532-.55 1.532-1.547 0-.827-.635-1.41-1.403-1.45l.46.023c.771.036 1.423-.605 1.459-1.433.034-.827-.564-1.527-1.335-1.565z" fill="#fff"/></svg>