<svg width="12" height="7" fill="none" xmlns="http://www.w3.org/2000/svg"><path d="M11.91 2.963C11.803 2.842 9.227 0 6 0 2.773 0 .197 2.842.09 2.963a.359.359 0 0 0 0 .474C.197 3.558 2.773 6.4 6 6.4c3.227 0 5.803-2.842 5.91-2.963a.359.359 0 0 0 0-.474zM6 5.689c-1.357 0-2.46-1.117-2.46-2.489C3.54 1.828 4.642.711 6 .711S8.461 1.828 8.461 3.2C8.46 4.572 7.357 5.689 6 5.689z" fill="#001732"/><path d="M6.352 2.489c0-.358.175-.672.442-.866a1.72 1.72 0 0 0-.794-.2A1.77 1.77 0 0 0 4.242 3.2c0 .98.789 1.778 1.758 1.778.868 0 1.586-.641 1.728-1.478-.708.23-1.376-.311-1.376-1.011z" fill="#001732"/></svg>