<svg width="17" height="17" fill="none" xmlns="http://www.w3.org/2000/svg"><path d="M16.095 15.344h0l-4.194-4.2a6.056 6.056 0 0 0 1.702-4.197c0-3.426-2.892-6.197-6.426-6.197C3.642.75.75 3.52.75 6.947s2.892 6.197 6.427 6.197c1.471 0 2.83-.48 3.914-1.286l4.226 4.231s0 0 0 0a.55.55 0 0 0 .762.015h0a.526.526 0 0 0 .016-.76zm-8.918-3.266c-2.953 0-5.339-2.31-5.339-5.13 0-2.821 2.386-5.132 5.339-5.132 2.952 0 5.338 2.311 5.338 5.131 0 2.82-2.386 5.131-5.338 5.131z" fill="#42AAFF" stroke="#42AAFF" stroke-width=".5"/></svg>