<svg width="21" height="21" fill="none" xmlns="http://www.w3.org/2000/svg"><path d="M10.5.75C5.124.75.75 5.124.75 10.5s4.374 9.75 9.75 9.75 9.75-4.374 9.75-9.75S15.876.75 10.5.75zm0 18.174c-4.645 0-8.424-3.779-8.424-8.424S5.855 2.076 10.5 2.076s8.424 3.779 8.424 8.424-3.779 8.424-8.424 8.424z" fill="#fff" stroke="#fff" stroke-width=".5"/><path d="M8.685 8.848a1.49 1.49 0 0 0-1.49-1.49 1.49 1.49 0 0 0-1.488 1.49 1.49 1.49 0 0 0 1.489 1.489 1.49 1.49 0 0 0 1.489-1.49zm-1.652 0a.163.163 0 1 1 .163.163.164.164 0 0 1-.163-.163zm6.772-1.489a1.49 1.49 0 0 0-1.49 1.489 1.49 1.49 0 0 0 2.978 0 1.49 1.49 0 0 0-1.488-1.49zm0 1.652a.164.164 0 0 1-.163-.163.163.163 0 1 1 .163.163zm-6.529 3.525h0a4.326 4.326 0 0 0 3.224 1.431c1.236 0 2.41-.522 3.223-1.431a.663.663 0 0 1 .937-.052l-7.384.052zm0 0a.663.663 0 0 0-.936-.052l.167.187-.166-.187a.663.663 0 0 0-.052.936h0m.987-.884l-.987.885m0 0a5.654 5.654 0 0 0 4.211 1.873c1.61 0 3.146-.683 4.211-1.873h0m-8.422 0h8.423m0 0a.663.663 0 0 0-.052-.937l.052.936zm-4.212.796a4.575 4.575 0 0 0 3.41-1.514l-3.41 1.514zm0 0a4.576 4.576 0 0 1-3.41-1.514m3.41 1.514l-3.41-1.514m0 0a.413.413 0 0 0-.583-.032m.583.032l-.583-.032m0 0a.413.413 0 0 0-.032.583l.032-.583z" fill="#fff" stroke="#fff" stroke-width=".5"/></svg>