<svg width="65" height="65" fill="none" xmlns="http://www.w3.org/2000/svg"><path d="M64.042 61.44c0 .8-.267 1.468-.8 2.001-.535.4-1.068.667-1.869.667H2.668c-.667 0-1.334-.267-1.868-.667-.533-.533-.8-1.2-.8-2V22.347h64.042V61.44z" fill="#60C8F5"/><path d="M63.241 63.441c-.534.4-1.067.667-1.868.667H2.668c-.667 0-1.334-.267-1.867-.667l31.22-26.817 31.22 26.817z" fill="#42AAFF"/><path d="M64.042 22.348l-9.073 6.537-21.214 15.21c-1.067.8-2.535.8-3.602 0l-21.08-15.21L0 22.348l9.073-6.538L28.819 1.668 30.286.6c1.068-.8 2.535-.8 3.603 0l1.467 1.068 9.473 6.804 4.67 3.336 5.47 4.002 9.073 6.538z" fill="#042436"/><path d="M54.97 9.94v18.945l-21.215 15.21c-1.067.8-2.535.8-3.602 0l-21.08-15.21V4.336c0-1.468 1.2-2.668 2.668-2.668h34.823l8.405 8.272z" fill="#F2F2F2"/><path d="M46.697 7.805c0 1.2.934 2.135 2.135 2.135h6.137l-8.272-8.272v6.137z" fill="#CDD6E0"/><path d="M39.892 28.485h2.135c-.667 1.468-1.734 2.535-3.202 3.336-1.601.934-3.602 1.334-6.004 1.334-2.268 0-4.27-.4-5.87-1.2-1.602-.801-2.936-1.869-3.736-3.47-.8-1.467-1.2-3.202-1.2-4.936 0-2.001.4-3.736 1.333-5.47.934-1.735 2.135-2.936 3.736-3.736 1.601-.8 3.469-1.2 5.47-1.2 1.735 0 3.336.4 4.67 1.066 1.334.668 2.402 1.601 3.069 2.936a8.666 8.666 0 0 1 1.067 4.136c0 1.734-.534 3.335-1.601 4.803-1.334 1.868-3.069 2.668-5.203 2.668-.534 0-1.068-.133-1.335-.267-.266-.267-.533-.533-.533-.934-.8.8-1.735 1.201-2.802 1.201-1.201 0-2.135-.4-2.802-1.2-.8-.801-1.2-1.869-1.2-3.203 0-1.6.4-3.068 1.333-4.536 1.068-1.601 2.535-2.402 4.27-2.402 1.2 0 2.134.534 2.802 1.468l.267-1.2h2.801l-1.6 7.47c-.134.534-.134.801-.134.935 0 .133 0 .267.133.4.134.133.134.133.267.133.267 0 .8-.267 1.334-.667.667-.533 1.335-1.2 1.735-2.134.4-.934.667-1.868.667-2.802 0-1.735-.667-3.202-1.868-4.27-1.2-1.2-2.935-1.734-5.203-1.734-1.868 0-3.47.4-4.804 1.2-1.334.801-2.268 1.869-2.935 3.203-.667 1.334-.934 2.802-.934 4.403 0 1.467.4 2.802 1.068 4.002.8 1.201 1.734 2.135 3.068 2.669 1.335.533 2.802.8 4.537.8 1.6 0 3.068-.267 4.27-.667 1.2-.534 2.134-1.2 2.934-2.135zm-11.34-4.27c0 .935.133 1.468.533 2.002.4.4.8.667 1.335.667.4 0 .8-.133 1.067-.267.267-.133.534-.4.8-.667.4-.4.668-1.067.934-1.868.267-.8.4-1.6.4-2.268 0-.8-.133-1.334-.533-1.868-.4-.4-.8-.667-1.334-.667s-1.201.267-1.601.667c-.534.4-.934 1.068-1.201 2.002-.267.8-.4 1.6-.4 2.268z" fill="#42AAFF"/></svg>