<svg width="67" height="67" fill="none" xmlns="http://www.w3.org/2000/svg"><path d="M33.693 66.972c18.377 0 33.275-14.898 33.275-33.276C66.968 15.318 52.07.42 33.692.42 15.316.42.418 15.318.418 33.696c0 18.378 14.898 33.276 33.276 33.276z" fill="#E83F3F"/><path d="M42.658 41.76h5.055a2.093 2.093 0 0 0 2.106-2.107V21.361a2.093 2.093 0 0 0-2.106-2.107h-5.055a2.093 2.093 0 0 0-2.106 2.107v18.292c-.06 1.144.903 2.106 2.106 2.106zm-4.452-1.024a.925.925 0 0 1-.903.903c-.842.06-2.287.481-4.152 2.407-3.069 3.19-3.972 8.244-4.333 10.53-.3 2.287-9.507-.36-3.189-12.456 0 0-6.077-.06-9.748-.06-3.67 0-3.37-5.957-1.203-6.559 0 0-1.083-4.573 1.083-5.656 0 0-.782-4.573 1.685-5.175 0 0-1.324-3.85 3.49-4.393 7.28-.842 14.02-.601 16.367-.48.481 0 .842.42.842.902v20.037h.06z" fill="#fff"/></svg>