<svg width="32" height="33" fill="none" xmlns="http://www.w3.org/2000/svg"><path d="M22.032.805H9.35C4.194.805 0 4.998 0 10.153v12.684c0 5.155 4.194 9.348 9.349 9.348h12.683c5.155 0 9.349-4.193 9.349-9.348V10.153c0-5.155-4.194-9.348-9.349-9.348zm6.192 22.032a6.192 6.192 0 0 1-6.192 6.192H9.35a6.192 6.192 0 0 1-6.192-6.192V10.153A6.192 6.192 0 0 1 9.35 3.962h12.683a6.192 6.192 0 0 1 6.192 6.191v12.684z" fill="url(#paint0_linear)"/><path d="M15.69 8.379c-4.475 0-8.116 3.64-8.116 8.116 0 4.475 3.641 8.116 8.116 8.116 4.476 0 8.117-3.64 8.117-8.116 0-4.475-3.641-8.116-8.117-8.116zm0 13.075a4.96 4.96 0 1 1 0-9.918 4.96 4.96 0 0 1 0 9.918z" fill="url(#paint1_linear)"/><path d="M23.822 10.385a1.945 1.945 0 1 0 0-3.89 1.945 1.945 0 0 0 0 3.89z" fill="url(#paint2_linear)"/><defs><linearGradient id="paint0_linear" x1="15.69" y1="32.094" x2="15.69" y2="1.048" gradientUnits="userSpaceOnUse"><stop stop-color="#E09B3D"/><stop offset=".3" stop-color="#C74C4D"/><stop offset=".6" stop-color="#C21975"/><stop offset="1" stop-color="#7024C4"/></linearGradient><linearGradient id="paint1_linear" x1="15.69" y1="32.094" x2="15.69" y2="1.048" gradientUnits="userSpaceOnUse"><stop stop-color="#E09B3D"/><stop offset=".3" stop-color="#C74C4D"/><stop offset=".6" stop-color="#C21975"/><stop offset="1" stop-color="#7024C4"/></linearGradient><linearGradient id="paint2_linear" x1="23.822" y1="32.094" x2="23.822" y2="1.049" gradientUnits="userSpaceOnUse"><stop stop-color="#E09B3D"/><stop offset=".3" stop-color="#C74C4D"/><stop offset=".6" stop-color="#C21975"/><stop offset="1" stop-color="#7024C4"/></linearGradient></defs></svg>