<svg width="13" height="13" fill="none" xmlns="http://www.w3.org/2000/svg"><path d="M12.709 10.282L10.7 8.27c-.4-.4-1.062-.387-1.476.028L8.214 9.31a29.75 29.75 0 0 1-.2-.111C7.375 8.845 6.5 8.36 5.58 7.436c-.923-.924-1.408-1.802-1.763-2.442-.038-.068-.073-.134-.109-.196l.679-.68.334-.334c.414-.415.426-1.079.027-1.48L2.74.293c-.399-.4-1.061-.388-1.476.028L.7.89l.016.016a3.26 3.26 0 0 0-.467.824 3.424 3.424 0 0 0-.207.836c-.265 2.203.74 4.216 3.465 6.947 3.767 3.776 6.803 3.491 6.934 3.477a3.384 3.384 0 0 0 1.656-.676l.013.011.573-.563c.413-.415.425-1.079.027-1.48z" fill="#fff"/></svg>