<svg width="37" height="25" fill="none" xmlns="http://www.w3.org/2000/svg"><path d="M21.583 4.625h-5.78c-.64 0-1.157.518-1.157 1.156v9.636h-2.698a1.157 1.157 0 0 0 0 2.312h2.698v1.156a1.157 1.157 0 0 0 2.312 0V17.73h3.47a1.157 1.157 0 0 0 0-2.312h-3.47v-1.542h4.625a4.63 4.63 0 0 0 4.625-4.625 4.63 4.63 0 0 0-4.625-4.625zm0 6.938h-4.625V6.936h4.625a2.315 2.315 0 0 1 2.313 2.313 2.315 2.315 0 0 1-2.313 2.313z" fill="#131313"/><path d="M32.76 0H4.24C1.9 0 0 1.9 0 4.24v16.187c0 2.339 1.9 4.24 4.24 4.24h28.52c2.34 0 4.24-1.901 4.24-4.24V4.24C37 1.9 35.1 0 32.76 0zm1.928 20.427a1.93 1.93 0 0 1-1.928 1.927H4.24a1.93 1.93 0 0 1-1.928-1.927V4.24A1.93 1.93 0 0 1 4.24 2.312h28.52a1.93 1.93 0 0 1 1.928 1.928v16.187z" fill="#131313"/></svg>