<svg width="27" height="28" fill="none" xmlns="http://www.w3.org/2000/svg"><path d="M13.37 27.43c7.383 0 13.368-5.985 13.368-13.368 0-7.384-5.985-13.37-13.369-13.37C5.986.692 0 6.678 0 14.062 0 21.445 5.986 27.43 13.37 27.43z" fill="#FFDA00"/><path d="M8.558 13.989c.895 0 1.62-.888 1.62-1.982 0-1.095-.725-1.983-1.62-1.983-.894 0-1.62.888-1.62 1.983 0 1.094.726 1.982 1.62 1.982z" fill="#000"/><path d="M8.389 11.257c0 .29-.242.532-.532.532a.537.537 0 0 1-.532-.532c0-.29.242-.532.532-.532.29 0 .532.242.532.532z" fill="#fff"/><path d="M9.332 8.017c-.556-.483-1.354-.459-2.007-.193-.556.218-1.378.774-1.184 1.475.048.217.266.314.483.266.411-.073.677-.508 1.088-.653.435-.17.846-.073 1.306-.073a.465.465 0 0 0 .41-.241c.025-.049.025-.073.049-.121.024-.145-.024-.363-.145-.46zm9.308 5.972c.894 0 1.62-.888 1.62-1.982 0-1.095-.726-1.983-1.62-1.983-.895 0-1.62.888-1.62 1.983 0 1.094.725 1.982 1.62 1.982z" fill="#000"/><path d="M18.494 11.257c0 .29-.241.532-.531.532a.537.537 0 0 1-.532-.532c0-.29.241-.532.532-.532.29 0 .531.242.531.532z" fill="#fff"/><path d="M18.035 8.017c.556-.483 1.354-.459 2.007-.193.556.218 1.378.774 1.184 1.475-.048.217-.265.314-.483.266-.411-.073-.677-.508-1.088-.653-.435-.17-.846-.073-1.306-.073a.468.468 0 0 1-.41-.241c-.025-.049-.025-.073-.049-.121-.024-.145.024-.363.145-.46zm-.193 10.396c-1.74-1.233-5.464-1.547-6.673.629-.12.217.073.532.339.46.943-.315 1.716-.799 2.732-.847 1.16-.048 2.127.387 3.167.773.628.218.894-.676.435-1.015z" fill="#000"/></svg>