<svg width="33" height="33" fill="none" xmlns="http://www.w3.org/2000/svg"><path d="M0 32.185l2.768-8.303a15.731 15.731 0 0 1-2.213-8.067C.555 7.081 7.635 0 16.37 0s15.815 7.08 15.815 15.815-7.08 15.816-15.815 15.816c-2.657 0-5.16-.66-7.358-1.817L0 32.185z" fill="#2CB742"/><path d="M26.46 21.079c-.73-1.38-3.423-2.959-3.423-2.959-.61-.347-1.345-.386-1.692.233 0 0-.875 1.05-1.098 1.2-1.016.69-1.958.663-2.909-.288l-2.209-2.209-2.209-2.21c-.95-.95-.977-1.891-.288-2.908.15-.223 1.2-1.098 1.2-1.098.62-.348.58-1.082.233-1.692 0 0-1.578-2.693-2.958-3.423a1.513 1.513 0 0 0-1.778.268l-.975.975c-3.095 3.095-1.571 6.589 1.524 9.683l2.828 2.829 2.828 2.828c3.095 3.095 6.589 4.619 9.684 1.524l.975-.975c.47-.471.578-1.192.267-1.778z" fill="#fff"/></svg>