<svg width="65" height="65" fill="none" xmlns="http://www.w3.org/2000/svg"><rect width="65" height="65" rx="16" fill="#260600"/><path fill-rule="evenodd" clip-rule="evenodd" d="M28.669 38.338l1.883 6.237c.098.368.29.458.549.455h4.823c.372 0 .399-.11.342-.357L28.3 18.1c-.015-.048-.052-.086-.128-.082L21.492 18c-.263 0-.267.135-.244.391.082.925.037 1.444-.158 2.17l-7.053 24.123c-.075.23-.056.346.245.35l4.552-.004c.481-.02.508-.147.59-.388l1.58-6.304h7.665zm-.974-4.85h-5.53l2.68-10.841 2.85 10.842zm9.966 11.32v-.793l.034-14.346-.022-.511-.012-.282-.165-.797c.034-.015.068-.027.102-.041.063-.023.127-.046.191-.072 5.613-2.071 13.966-2.895 13.65 5.365-.003.048 0 .139-.003.188v11.093c-.011.245-.147.425-.481.429h-3.158c-.271.004-.504-.026-.512-.413v-.688c0-3.015.004-11.21-.003-11.361-.094-2.632-3.448-2.925-5.534-2.072l-.064 13.553v.567c-.008.252-.034.406-.481.41h-3.26c-.15 0-.289.004-.282-.23z" fill="#FF4A19"/></svg>