<svg width="65" height="65" fill="none" xmlns="http://www.w3.org/2000/svg"><rect width="65" height="65" rx="16" fill="#fff"/><path d="M46.957 22.878H23.945c-2.132 0-3.875-1.746-3.875-3.898 0-2.145 1.735-3.898 3.875-3.898h23.02c.576 0 1.035-.47 1.035-1.041 0-.58-.467-1.041-1.035-1.041h-23.02C20.67 13 18 15.685 18 18.98v26.04c0 3.295 2.67 5.98 5.945 5.98h23.02c.576 0 1.035-.47 1.035-1.041v-26.04a1.05 1.05 0 00-1.043-1.041zm-1.035 26.04H23.946c-2.133 0-3.876-1.745-3.876-3.898v-21.5a5.915 5.915 0 003.875 1.448h21.977v23.95z" fill="#000"/><path d="M24.059 18c-.59 0-1.059.451-1.059 1 0 .549.478 1 1.059 1H43.94c.59 0 1.059-.451 1.059-1 0-.549-.478-1-1.059-1H24.06z" fill="#000"/><path d="M27.724 43.939c.122.038.244.061.365.061.446 0 .859-.26 1.013-.671l1.312-3.455h5.055c.04 0 .089 0 .13-.007l1.312 3.462c.153.412.575.671 1.012.671.122 0 .243-.023.365-.061.559-.19.85-.77.648-1.296l-4.91-12.957a.452.452 0 00-.04-.091l-.024-.046-.024-.046c-.009-.015-.025-.03-.033-.053-.008-.008-.016-.023-.024-.03a.205.205 0 00-.04-.046c-.009-.008-.017-.023-.033-.03-.008-.016-.024-.024-.04-.039a14.15 14.15 0 01-.041-.038c-.008-.008-.024-.015-.032-.03-.017-.016-.033-.023-.049-.039-.008-.007-.024-.015-.032-.023-.017-.007-.033-.023-.049-.03l-.049-.023-.048-.023c-.033-.015-.065-.03-.097-.038h-.009l-.097-.023c-.016 0-.024-.008-.04-.008-.025-.007-.04-.007-.065-.015-.016 0-.032 0-.049-.007-.016 0-.04-.008-.056-.008h-.106c-.016 0-.04 0-.056.008-.017 0-.033 0-.049.007-.024 0-.04.008-.065.015-.016 0-.024.008-.04.008-.033.008-.065.015-.09.023h-.008c-.032.008-.064.023-.097.038l-.048.023-.049.023c-.016.008-.032.023-.057.03-.008.008-.024.016-.032.023-.016.015-.032.023-.049.038-.008.008-.024.016-.032.03l-.04.039-.041.038c-.008.008-.016.023-.032.03-.017.016-.025.031-.04.046-.009.008-.017.023-.025.03-.008.016-.024.031-.033.047l-.024.045-.024.046c-.016.03-.033.061-.04.092l-4.926 12.956c-.178.534.114 1.113.672 1.304zm5.29-10.897l1.823 4.804h-3.654l1.831-4.804z" fill="#D03D29"/></svg>