<svg width="65" height="65" fill="none" xmlns="http://www.w3.org/2000/svg"><rect width="65" height="65" rx="16" fill="#fff"/><path d="M23.5 30.5h-6v4.253l1 .747 1.5 1V39c0 .4-1 .833-1.5 1L17 41.5l-.5 3.5 1.5.5c.833.167 2.6.5 3 .5.5 0 5.5 1 6 1 .4 0 3.833 1.477 5.5 2.216V35L31 34l-2-1.5-5.5-2z" fill="#D03D29"/><path d="M48.832 33.77v-3.438c0-.598-.485-1.084-1.084-1.084-2.24 0-4.327.19-6.3.575a9.787 9.787 0 00-4.07-2.356 7.575 7.575 0 002.71-5.807c0-4.224-3.404-7.66-7.588-7.66s-7.588 3.436-7.588 7.66a7.574 7.574 0 002.709 5.807 9.79 9.79 0 00-4.07 2.356c-1.972-.386-4.06-.575-6.3-.575-.598 0-1.083.486-1.083 1.084v3.439A3.257 3.257 0 0014 36.836v2.168c0 1.413.906 2.618 2.168 3.066v3.438c0 .599.485 1.084 1.084 1.084 5.668 0 10.322 1.343 14.647 4.227.362.241.84.242 1.202 0 4.325-2.884 8.98-4.227 14.647-4.227.599 0 1.084-.485 1.084-1.084V42.07A3.257 3.257 0 0051 39.004v-2.168a3.257 3.257 0 00-2.168-3.065zM27.08 21.66c0-3.028 2.431-5.492 5.42-5.492 2.988 0 5.42 2.464 5.42 5.492a5.426 5.426 0 01-5.42 5.42 5.426 5.426 0 01-5.42-5.42zm-9.828 18.428a1.085 1.085 0 01-1.084-1.084v-2.168c0-.597.486-1.084 1.084-1.084.598 0 1.084.487 1.084 1.084v2.168c0 .598-.486 1.084-1.084 1.084zm14.164 7.884c-3.935-2.25-8.158-3.388-13.08-3.532v-2.37a3.257 3.257 0 002.168-3.066v-2.168a3.257 3.257 0 00-2.168-3.065v-2.34c5.093.147 9.187 1.346 13.08 3.825v12.716zM32.5 33.378a25.762 25.762 0 00-6.307-2.9 7.604 7.604 0 014.139-1.23h4.336c1.479 0 2.917.437 4.138 1.23a25.762 25.762 0 00-6.306 2.9zM46.664 44.44c-4.922.144-9.145 1.282-13.08 3.532V35.257c3.893-2.479 7.986-3.68 13.08-3.825v2.339a3.257 3.257 0 00-2.168 3.065v2.168c0 1.414.906 2.619 2.168 3.066v2.37zm2.168-5.436c0 .598-.486 1.084-1.084 1.084a1.085 1.085 0 01-1.084-1.084v-2.168c0-.597.486-1.084 1.084-1.084.598 0 1.084.487 1.084 1.084v2.168zM33.678 9H32.32v1.867h1.358V9zm-3.389.266l-1.312.351.484 1.804 1.311-.352-.483-1.803zm-3.203 1.155l-1.176.68.934 1.616 1.175-.679-.933-1.617zm-2.795 1.9l-.96.96 1.32 1.32.96-.96-1.32-1.32zm-2.209 2.606l-.679 1.176 1.617.933.679-1.175-1.617-.934zm-1.449 3.054l-.352 1.311 1.803.484.352-1.312-1.803-.483z" fill="#000"/><path d="M21.867 21.321H20v1.358h1.867V21.32zm.196 2.906l-1.803.483.351 1.311 1.803-.483-.351-1.311zm.964 2.756l-1.617.934.679 1.175 1.617-.933-.68-1.176zm19.974.027l-.679 1.176 1.617.934.679-1.176L43 27.01zm.95-2.772l-.351 1.311 1.803.483.351-1.311-1.803-.483zM46 21.321h-1.867v1.358H46V21.32zm-.618-3.337l-1.803.483.352 1.311 1.803-.483-.352-1.311zm-1.451-3.079l-1.616.933.678 1.176 1.617-.934-.679-1.175zm-2.207-2.558l-1.32 1.32.96.96 1.32-1.32-.96-.96zm-2.801-1.954l-.933 1.617 1.176.679.933-1.617-1.176-.679zM35.731 9.27l-.483 1.804 1.311.351.484-1.803-1.312-.351zm5.649 20.086l-.961.96 1.32 1.32.96-.96-1.32-1.32zm-16.739-.003l-1.32 1.32.96.96 1.32-1.32-.96-.96z" fill="#000"/></svg>