<svg width="65" height="65" fill="none" xmlns="http://www.w3.org/2000/svg"><rect width="65" height="65" rx="16" fill="#252653"/><path fill-rule="evenodd" clip-rule="evenodd" d="M50.869 25.213C46.14 22.703 38 23.919 38 30.467c0 4.877 3.206 6.797 7.126 8.408 5.57 2.288.156 6.614-6.643 2.14 0 0-.244-.125-.363 0-.12.127-.12.253-.12.383v4.699c2.377 1.281 4.15 1.932 6.894 1.902 8.85-.096 10.125-9.016 5.418-12.446-.854-.626-3.14-1.872-3.862-2.163-3.742-1.503-3.425-3.64-2.236-4.716 1.312-1.194 4.95.612 6.482 1.62.928.603 1.08-.148 1.076-.808l-.012-3.123c0-.742-.243-.803-.891-1.15zM21.993 32.22V20.849c0-.056.205-.25.258-.25 4.969-.246 7.796.695 8.05 5.841.29 5.907-4.817 6.032-8.308 6.032v-.25zM16 16.428V47h5.993v-9.853C29.357 37.657 36 35.097 36 26.841c0-3.329-1.069-6.68-3.602-8.704-3.54-2.833-11.812-2.202-16.398-1.71z" fill="#87BCF6"/></svg>