<svg width="65" height="65" fill="none" xmlns="http://www.w3.org/2000/svg"><rect width="65" height="65" rx="16" fill="#fff"/><path d="M41 20h2v2h-2v-2z" fill="#D03D29"/><path d="M24.55 42.768h5.208v2.144h-15.75V47H50v-2.088h-3.36l1.946-1.926-1.491-1.477-3.437 3.403h-7.215v-2.446c6.585-1.36 11.547-7.151 11.547-14.07V22.87H50v-2.088h-2.01v-1.23c0-1.858-.737-3.556-2.076-4.78A6.86 6.86 0 0041.333 13c-1.998 0-3.806.869-5.09 2.447L14 42.767h10.55zm13.334-26.01c.876-1.077 2.101-1.67 3.449-1.67 2.235 0 4.548 1.67 4.548 4.463v6.71h-9.956v-7.097l1.96-2.407zM18.41 40.68l15.407-18.926v9.75c0 5.06-4.157 9.176-9.267 9.176h-6.14zm17.516-9.176v-3.155h9.956v.048c0 6.773-5.565 12.283-12.405 12.283H31.14c2.894-2.044 4.784-5.395 4.784-9.176zm-4.058 11.264h1.609c.288 0 .574-.01.858-.026v2.17h-2.467v-2.144z" fill="#000"/></svg>