<svg width="65" height="65" fill="none" xmlns="http://www.w3.org/2000/svg"><rect width="65" height="65" rx="16" fill="#2E001E"/><path fill-rule="evenodd" clip-rule="evenodd" d="M13.473 18.675c.215.463.534 1.03.652 1.267.328.65.647 1.254.97 1.896l5.276 10.407c.155.305.445.646.298.975l-7.402 14.008c-.176.346-.567.75.143.75h4.388c.622 0 .63-.325 1.026-1.158l5.023-10.433c.344.3 4.447 9.129 5.439 11.145.172.35.214.446.718.446.71 0 4.616.083 4.99-.075.08-.408-.63-1.533-.84-1.929l-1.951-3.708c-1.543-2.942-3.308-6.512-4.872-9.308-.32-.57-.197-.542.521-1.862.35-.642.64-1.23.988-1.871.32-.596.643-1.209.963-1.83l2.934-5.595c.273-.512 1.572-2.8 1.79-3.562.072-.254-.353-.238-.656-.238l-3.875.004h-.063c-.424 0-.488.084-.639.388l-3.808 8.054c-.185.408-1.198 2.762-1.383 2.908-.4-.98-.887-1.925-1.32-2.9l-2.782-5.808c-.252-.475-.446-.958-.685-1.43-.13-.258-.244-.474-.358-.728-.16-.354-.138-.484-.613-.484l-4.443.005c-.66.004-.727.025-.429.666z" fill="#FF3BC1"/><path fill-rule="evenodd" clip-rule="evenodd" d="M40.839 37.016c0-1.796.18-3.501 1.158-5.009.205-.32.55-.794.782-1.013 1.194-1.108 3.195-1.94 5.327-1.227l.008 13.64c-4.173 1.237-7.274-1.407-7.274-6.39zm7.276-11.59l-1.7-.033c-3.26 0-5.985 1.614-7.465 3.212C37.427 30.253 36 33.21 36 36.476c0 3.575.641 6.178 2.522 8.443 1.33 1.61 3.92 3.081 7.043 3.081 1.632 0 2.818-.09 4.414-.531.777-.219 2.541-.808 3.006-1.215.056-.305-.064-1.186-.08-1.578-.056-1.623-.02-3.789-.016-5.445l.004-20.696c.004-.411.024-.535-.397-.535h-3.989c-.553 0-.392.35-.392 1.549v5.877z" fill="#FE31C0"/></svg>