<svg width="65" height="65" fill="none" xmlns="http://www.w3.org/2000/svg"><rect width="65" height="65" rx="16" fill="#fff"/><path d="M42.578 53H22.36c-.753 0-1.333-.58-1.333-1.332v-9.733a6.873 6.873 0 016.894-6.894h9.153a6.873 6.873 0 016.894 6.894v9.733c-.058.753-.637 1.332-1.39 1.332zM25.372 41.703V52.71m13.035.29V41.703m5.213-9.269H21.027a1.434 1.434 0 01-1.448-1.448v-4.634c0-.811.637-1.449 1.448-1.449H43.62c.812 0 1.449.638 1.449 1.449v4.634c0 .811-.638 1.448-1.449 1.448z" stroke="#000" stroke-width="2" stroke-miterlimit="10"/><path d="M45.996 24.904h-22.71a1.41 1.41 0 01-1.39-1.39v-4.172c0-.753.638-1.39 1.39-1.39h22.71c.753 0 1.39.637 1.39 1.39v4.171a1.41 1.41 0 01-1.39 1.39z" stroke="#000" stroke-width="2" stroke-miterlimit="10"/><path d="M43.1 17.952H20.39a1.41 1.41 0 01-1.39-1.39V12.39c0-.753.637-1.39 1.39-1.39H43.1c.752 0 1.39.637 1.39 1.39v4.171a1.41 1.41 0 01-1.39 1.39z" stroke="#D03D29" stroke-width="2" stroke-miterlimit="10"/><path d="M26.531 13.607v1.448m2.897-1.448v1.448m2.896-1.448v1.448" stroke="#000" stroke-width="2" stroke-miterlimit="10" stroke-linecap="round" stroke-linejoin="round"/><path d="M37.538 20.559v1.448m2.897-1.448v1.448m2.896-1.448v1.448" stroke="#D03D29" stroke-width="2" stroke-miterlimit="10" stroke-linecap="round" stroke-linejoin="round"/><path d="M25.372 28.09v1.448m2.897-1.448v1.448m2.896-1.448v1.448m9.849-15.931v1.448m0 13.035v1.448" stroke="#000" stroke-width="2" stroke-miterlimit="10" stroke-linecap="round" stroke-linejoin="round"/><path d="M28.849 20.559v1.448" stroke="#D03D29" stroke-width="2" stroke-miterlimit="10" stroke-linecap="round" stroke-linejoin="round"/></svg>