<svg width="65" height="65" fill="none" xmlns="http://www.w3.org/2000/svg"><rect width="65" height="65" rx="16" fill="#252653"/><path fill-rule="evenodd" clip-rule="evenodd" d="M27.412 37.57l2.254 7.426H36l-8.994-29.884c-.017-.054-.059-.091-.147-.091L19.417 15c-.289 0-.297.15-.272.433.092 1.03.042 1.605-.171 2.409L11 45l6.007-.008 1.87-7.425 8.535.004zm-1.08-5.383h-6.166l2.991-12.029 3.175 12.03zm16.365 2.655l11.467.016c.723-.923.855-2.658.834-3.796-.078-4.615-3.14-9.033-8.67-9.062-9.285-.053-11.043 11.671-7.882 18.434.995 2.126 2.992 3.478 5.336 4.12a12.89 12.89 0 003.35.446c2.27.008 4.577-.54 6.43-1.595.029-.016.078-.016.083-.05v-.131l-.005-3.82c0-.174-.132-.273-.33-.21-2.344.704-10.283 2.954-10.65-4.138-.004-.054-.017-.214.037-.214zm5.748-3.829h-5.839c.029-3.1 1.453-4.859 3.652-4.867 1.997-.008 3.268 1.376 3.33 4.793v.074h-1.143z" fill="#BC85F3"/></svg>