<svg width="65" height="65" fill="none" xmlns="http://www.w3.org/2000/svg"><rect width="65" height="65" rx="16" fill="#673AB7"/><path d="M43.724 34.133c-.856-1.2-2.092-2.026-3.684-2.466 0 0 1.342-.494 2.552-2.334.724-1.173 1.092-2.586 1.092-4.24 0-2.866-1.026-5.066-3.079-6.573-2.052-1.507-4.368-2.52-8.302-2.52H20v32h13.724c3.723-.027 6.526-.84 8.434-2.4C44.053 44.013 45 41.667 45 38.533c0-1.733-.421-3.2-1.276-4.4zm-15.83-12.8h5.593c2 0 3.618 1.64 3.618 3.667s-1.618 3.667-3.618 3.667h-5.592v-7.334zm6.58 21.334h-6.58v-8h6.58c2.184 0 3.947 1.786 3.947 4 0 2.213-1.763 4-3.947 4z" fill="#fff"/></svg>