<svg width="65" height="65" fill="none" xmlns="http://www.w3.org/2000/svg"><rect width="65" height="65" rx="16" fill="#072600"/><path fill-rule="evenodd" clip-rule="evenodd" d="M19.185 40.587l-3.067.003.004-19.188c.341-.008 1.293-.039 2.161-.008 5.425.203 6.181 6.23 5.935 11.05-.169 3.35-1.194 7.912-5.033 8.143zM18.775 17l-7.356.004c-.254 0-.4.082-.411.453l.077 19.251L11 44.774c.008.245.169.206.36.226l4.412-.008 1.517-.02c1.796-.027 3.363.075 5.11-.527 11.249-3.87 9.99-27.558-3.625-27.445z" fill="#AFFC00"/><path fill-rule="evenodd" clip-rule="evenodd" d="M36.555 24H31l4.215 21 5.044-.012 2.714-14.457h.194l2.163 14.461h5.013L55 24h-4.517l-2.168 14.641c-.074.344-.318.438-.391.02L45.88 24h-4.893l-2.253 14.653c-.058.367-.306.406-.356-.02L36.555 24z" fill="#AFFC00"/></svg>