<svg width="65" height="65" fill="none" xmlns="http://www.w3.org/2000/svg"><rect width="65" height="65" rx="16" fill="#fff"/><path d="M48.939 23.001c-.503-1.677-1.654-5.37-2.3-6.292C44.373 13.478 39.137 10 32.997 10c-4.482 0-8.724 1.817-11.945 5.115a17.647 17.647 0 00-5.05 12.103 17.4 17.4 0 001.794 8.025 17.65 17.65 0 004.511 5.73V54H41.03v-7.29h3.01c3.71 0 6.729-3.039 6.729-6.773v-3.62L55 34.53l-6.061-11.529zm-.732 11.603v5.333c0 2.313-1.87 4.194-4.167 4.194h-5.572v7.29h-13.6V39.719l-.5-.387A15.047 15.047 0 0120.09 34.1a14.833 14.833 0 01-1.528-6.841 15.072 15.072 0 014.316-10.335c2.736-2.802 6.329-4.345 10.118-4.345 2.374 0 4.797.623 7.007 1.8 1.892 1.008 3.548 2.4 4.54 3.814.322.491 1.278 3.327 1.978 5.672l.036.12 4.868 9.26-3.219 1.36z" fill="#000"/><path d="M36.961 22.524l1.585-1.585-1.494-1.494-1.587 1.587a5.334 5.334 0 00-1.915-.793V18h-2.113v2.242a5.336 5.336 0 00-1.913.797l-1.585-1.585-1.494 1.494 1.587 1.587a5.334 5.334 0 00-.793 1.915H25v2.113h2.242c.14.695.415 1.342.797 1.913l-1.585 1.585 1.494 1.494 1.587-1.587c.571.38 1.219.654 1.915.793V33h2.113v-2.242a5.339 5.339 0 001.913-.797l1.585 1.585 1.494-1.494-1.587-1.587c.38-.571.654-1.219.793-1.915H40v-2.113h-2.242a5.334 5.334 0 00-.797-1.913zM32.5 28.751a3.255 3.255 0 01-3.251-3.251 3.255 3.255 0 013.251-3.251 3.255 3.255 0 013.251 3.251 3.255 3.255 0 01-3.251 3.251z" fill="#D03D29"/></svg>