<svg width="85" height="85" fill="none" xmlns="http://www.w3.org/2000/svg"><rect x="10" y="6" width="65" height="65" rx="16" fill="#003ECB"/><g filter="url(#filter0_d)"><rect x="10" y="6" width="65" height="65" rx="16" fill="#003ECB"/></g><path d="M43.272 27.704c.793 1.079 1.189 2.366 1.189 3.871 0 1.547-.396 2.795-1.2 3.737-.451.522-1.11 1.006-1.982 1.44 1.323.473 2.32 1.22 3 2.239.673 1.019 1.011 2.259 1.011 3.715 0 1.503-.385 2.852-1.157 4.043a7.057 7.057 0 01-1.838 1.994c-.827.619-1.803 1.043-2.932 1.274-1.13.229-2.35.34-3.668.34H24V25h12.543c3.166.047 5.406.946 6.729 2.704zm-14.098 1.7V35h6.311c1.124 0 2.04-.211 2.746-.63.701-.418 1.056-1.162 1.056-2.225 0-1.186-.465-1.963-1.394-2.345-.804-.263-1.828-.396-3.07-.396h-5.649zm0 9.792v6.763h6.303c1.127 0 2.006-.149 2.63-.448 1.14-.556 1.707-1.606 1.707-3.166 0-1.324-.548-2.229-1.651-2.723-.62-.273-1.486-.418-2.599-.426h-6.39zm31.807-7.207c1.342.585 2.444 1.51 3.313 2.774.793 1.115 1.303 2.408 1.534 3.877.136.858.188 2.103.168 3.723H52.01c.084 1.88.746 3.2 2.01 3.954.767.471 1.686.708 2.77.708 1.14 0 2.07-.286 2.783-.858.394-.312.738-.741 1.035-1.29h5.124c-.136 1.11-.759 2.241-1.859 3.39-1.72 1.82-4.127 2.733-7.222 2.733-2.557 0-4.809-.767-6.76-2.306-1.958-1.537-2.932-4.04-2.932-7.506 0-3.25.882-5.744 2.644-7.478 1.767-1.729 4.05-2.6 6.862-2.6 1.675-.003 3.18.291 4.515.879zm-7.505 4.235c-.709.715-1.155 1.682-1.339 2.902h8.65c-.092-1.303-.54-2.288-1.336-2.967-.806-.673-1.796-1.009-2.98-1.009-1.283.003-2.286.362-2.995 1.074zM50.84 29.34h11.123v-3.156H50.84v3.156z" fill="#fff"/><defs><filter id="filter0_d" x="0" y="0" width="85" height="85" filterUnits="userSpaceOnUse" color-interpolation-filters="sRGB"><feFlood flood-opacity="0" result="BackgroundImageFix"/><feColorMatrix in="SourceAlpha" values="0 0 0 0 0 0 0 0 0 0 0 0 0 0 0 0 0 0 127 0"/><feOffset dy="4"/><feGaussianBlur stdDeviation="5"/><feColorMatrix values="0 0 0 0 0 0 0 0 0 0.243137 0 0 0 0 0.796078 0 0 0 0.4 0"/><feBlend in2="BackgroundImageFix" result="effect1_dropShadow"/><feBlend in="SourceGraphic" in2="effect1_dropShadow" result="shape"/></filter></defs></svg>