<svg width="65" height="65" fill="none" xmlns="http://www.w3.org/2000/svg"><rect width="65" height="65" rx="16" fill="#fff"/><path d="M51.063 50H16.937C14.764 50 13 48.14 13 45.846V18.154C13 15.86 14.763 14 16.938 14h11.287a2.536 2.536 0 011.816.773l4.484 4.534c.067.07.126.148.177.232h16.36c2.175 0 3.938 1.86 3.938 4.153v22.154C55 48.14 53.237 50 51.062 50zM16.937 16.77c-.724 0-1.312.62-1.312 1.384v27.692c0 .765.588 1.385 1.313 1.385h34.124c.725 0 1.313-.62 1.313-1.385V23.692c0-.764-.588-1.384-1.313-1.384h-16.36a2.58 2.58 0 01-2.087-1.09l-4.39-4.449H16.937z" fill="#000"/><path d="M33.952 27L24 31l8.595 4L43 31.5 33.952 27z" fill="#D03D29"/><path d="M44.864 37.437v-5.646c0-.356-.2-.672-.495-.781L33.65 27.04a.626.626 0 00-.438 0l-10.718 3.97c-.295.109-.495.424-.495.78 0 .357.2.673.495.782l5.366 1.988v3.119c.022.799.679 1.555 1.856 2.135 1.075.53 2.394.821 3.715.821 1.321 0 2.64-.291 3.716-.82 1.196-.59 1.855-1.363 1.855-2.176v-3.08l4.432-1.641v4.52c-.666.32-1.136 1.079-1.136 1.96v2.781c0 .453.32.821.715.821h2.272c.394 0 .714-.368.714-.82v-2.782c0-.881-.47-1.64-1.136-1.96zm-8.503.972c-.861.377-1.902.585-2.929.585s-2.067-.208-2.929-.585c-.755-.33-1.127-.688-1.214-.838V35.09l3.924 1.453a.632.632 0 00.438 0l3.924-1.453v2.483c-.087.15-.46.507-1.214.837zm-2.929-3.51l-8.39-3.108 8.39-3.108 8.39 3.108-8.39 3.107zm11.14 6.46h-.844v-1.96c0-.268.19-.485.422-.485.232 0 .421.217.421.484v1.96z" fill="#000" stroke="#000" stroke-width=".6"/></svg>