<svg width="65" height="65" fill="none" xmlns="http://www.w3.org/2000/svg"><rect width="65" height="65" rx="16" fill="#fff"/><path d="M41.932 30.478C40.77 29.56 39.206 29.001 37.5 29c-1.706.001-3.27.56-4.433 1.478-1.184.935-1.969 2.252-2.059 3.747-.09 1.536.57 2.965 1.732 4.023C33.925 39.324 35.613 40 37.501 40c1.887 0 3.574-.676 4.757-1.753 1.162-1.057 1.824-2.486 1.734-4.023-.09-1.493-.876-2.81-2.06-3.746z" fill="#01579B"/><path d="M52.871 33.932a13.08 13.08 0 00-1.861-5.095 14.28 14.28 0 00-3.397-3.745l.002-.002-.037-.012c-.028-.025-.05-.054-.079-.078L33.25 14.438a2 2 0 10-2.498 3.124L36.739 22H17.5a2.507 2.507 0 00-2.5 2.5c0 1.375 1.125 2.5 2.5 2.5h7.154L9.873 39.602a2.5 2.5 0 103.254 3.796l8.954-7.675a67.416 67.416 0 00-.035 1.761C22.046 41 26 50 37.682 50c8.318 0 15.28-5 15.28-13.26.072-.935.041-1.873-.091-2.808zm-6.346 3.221a8.32 8.32 0 01-1.935 2.992c-1.81 1.82-4.343 2.85-7.088 2.854-2.745.005-5.28-1.017-7.091-2.832a8.307 8.307 0 01-1.937-2.986 7.661 7.661 0 01-.444-3.335 7.804 7.804 0 01.971-3.14 8.733 8.733 0 012.154-2.525c1.76-1.414 3.999-2.179 6.345-2.182 2.346-.003 4.584.756 6.345 2.164a8.65 8.65 0 012.152 2.515 7.81 7.81 0 01.973 3.138 7.67 7.67 0 01-.445 3.337z" fill="#FF6D00"/></svg>