<svg width="65" height="65" fill="none" xmlns="http://www.w3.org/2000/svg"><rect width="65" height="65" rx="16" fill="#fff"/><path d="M46 29.076c0-7.444-6.056-13.5-13.5-13.5S19 21.632 19 29.076c0 4.565 2.33 8.832 6.13 11.313v4.253c0 4.063 3.306 7.369 7.37 7.369 4.063 0 7.369-3.306 7.369-7.369v-4.253A13.547 13.547 0 0046 29.076zm-8.733 15.566a4.772 4.772 0 01-4.767 4.766 4.772 4.772 0 01-4.767-4.766v-1.088h9.534v1.088zm.652-6.11a1.301 1.301 0 00-.652 1.13v1.29H33.8v-6.729a4.223 4.223 0 002.915-4.01 1.301 1.301 0 00-2.603 0c0 .89-.724 1.614-1.613 1.614-.89 0-1.613-.724-1.613-1.613a1.301 1.301 0 00-2.603 0c0 1.87 1.225 3.46 2.915 4.01v6.728h-3.465V39.66c0-.466-.25-.896-.653-1.128a10.935 10.935 0 01-5.478-9.457c0-6.009 4.888-10.898 10.897-10.898 6.01 0 10.898 4.89 10.898 10.898 0 3.892-2.1 7.516-5.479 9.457z" fill="#000"/><path d="M32.5 8a1.3 1.3 0 00-1.3 1.301v2.285a1.301 1.301 0 002.602 0V9.3c0-.717-.583-1.3-1.302-1.3zm-3.66 3.92l-.808-2.138a1.301 1.301 0 00-2.434.92l.808 2.137a1.302 1.302 0 102.434-.92zm9.805-2.895a1.301 1.301 0 00-1.677.758l-.808 2.136a1.301 1.301 0 002.435.92l.808-2.136a1.301 1.301 0 00-.758-1.678z" fill="#D03D29"/></svg>