<svg width="65" height="65" fill="none" xmlns="http://www.w3.org/2000/svg"><rect width="65" height="65" rx="16" fill="#141201"/><path fill-rule="evenodd" clip-rule="evenodd" d="M35.318 22.014c.976 0 2.395-.014 3.487.004.83.015.792.312 1.004.86.034.1.077.213.126.335 1.057 2.73 4.312 11.119 4.312 11.119l3.92-10.996c.305-.85.411-1.322 1.343-1.327 1.116-.01 2.463-.014 3.617 0 1.26.019.835 1.02.666 1.507l-9.252 26.69c-.217.747-.318.794-1.777.794l-3.515-.005c-.937 0-1.434-.094-1.053-1.105l2.67-8.204-6.002-16.253c-.299-.694-.695-1.516-.825-2.238-.208-1.172.449-1.186 1.28-1.181zM20.772 32.16c2.81 1.064 6.771 2.755 5.097 6.433-1.683 3.691-9.385.898-12.719-1.388-.622-.428-1.173-.354-1.145.867L12 41.62c0 .756.075 1.171.706 1.577 1.426.907 4.625 2.612 9.54 2.792 5.433.194 9.328-2.226 10.516-7.76.295-1.387.327-2.904.033-4.484-1.272-6.835-14.758-7.097-14.169-12.664.51-4.84 7.477-2.71 11.06-1.35 1.603.612 1.533.764 1.523-.798l-.018-3.47c-.005-.908.06-.807-1.267-1.24C11.33 8.144 5.589 26.403 20.772 32.16z" fill="#FCE510"/></svg>