<svg width="65" height="65" viewBox="0 0 65 65" fill="none" xmlns="http://www.w3.org/2000/svg">
<rect width="65" height="65" rx="16" fill="white"/>
<path d="M41 20H43V22H41V20Z" fill="#D03D29"/>
<path d="M24.5495 42.7682H29.7582V44.9118H14.0077V47H50V44.9118H46.6407L48.5858 42.9857L47.0946 41.5091L43.6583 44.9118H36.4427V42.4658C43.0276 41.106 47.9896 35.3146 47.9896 28.3967V22.8699H50V20.7817H47.9896V19.5512C47.9896 17.6935 47.2526 15.9961 45.9144 14.7715C44.6843 13.6457 43.0143 13 41.3326 13C39.3345 13 37.5266 13.8688 36.2423 15.4465L14 42.7682H24.5495ZM37.8842 16.7572C38.7604 15.6811 39.985 15.0884 41.3327 15.0884C43.5683 15.0884 45.8807 16.7577 45.8807 19.5512V26.2611H35.9253V19.1636L37.8842 16.7572ZM18.4088 40.6799L33.8163 21.754V31.504C33.8163 36.5637 29.6592 40.6799 24.5495 40.6799H18.4088ZM35.9253 31.504V28.3494H45.8807V28.3967C45.8807 35.1697 40.3159 40.6799 33.4758 40.6799H31.1405C34.0346 38.6358 35.9253 35.2845 35.9253 31.504ZM31.8671 42.7682H33.4758C33.7639 42.7682 34.0498 42.7589 34.3338 42.7424V44.9118H31.8671V42.7682Z" fill="black"/>
</svg>
