<svg width="65" height="65" viewBox="0 0 65 65" fill="none" xmlns="http://www.w3.org/2000/svg">
<rect width="65" height="65" rx="16" fill="#673AB7"/>
<path d="M43.7237 34.1333C42.8684 32.9333 41.6316 32.1067 40.0395 31.6667C40.0395 31.6667 41.3816 31.1733 42.5921 29.3333C43.3158 28.16 43.6842 26.7467 43.6842 25.0933C43.6842 22.2267 42.6579 20.0267 40.6053 18.52C38.5526 17.0133 36.2368 16 32.3026 16H20V48H33.7237C37.4474 47.9733 40.25 47.16 42.1579 45.6C44.0526 44.0133 45 41.6667 45 38.5333C45 36.8 44.5789 35.3333 43.7237 34.1333ZM27.8947 21.3333C27.8947 21.3333 33.3816 21.3333 33.4868 21.3333C35.4868 21.3333 37.1053 22.9733 37.1053 25C37.1053 27.0267 35.4868 28.6667 33.4868 28.6667C33.3816 28.6667 27.8947 28.6667 27.8947 28.6667V21.3333ZM34.4737 42.6667H27.8947V34.6667H34.4737C36.6579 34.6667 38.4211 36.4533 38.4211 38.6667C38.4211 40.88 36.6579 42.6667 34.4737 42.6667Z" fill="white"/>
</svg>
