<svg width="65" height="65" viewBox="0 0 65 65" fill="none" xmlns="http://www.w3.org/2000/svg">
<rect width="65" height="65" rx="16" fill="#252653"/>
<path fill-rule="evenodd" clip-rule="evenodd" d="M50.8688 25.2127C46.1404 22.7026 38 23.9185 38 30.4674C38 35.3443 41.2058 37.2638 45.1255 38.8749C50.6955 41.1635 45.2823 45.4889 38.4827 41.0159C38.4827 41.0159 38.2393 40.8899 38.1197 41.0159C38 41.1418 38 41.2677 38 41.398C38 41.524 38 46.0969 38 46.0969C40.3765 47.378 42.1507 48.0294 44.8944 47.999C53.7445 47.9034 55.0194 38.9835 50.3118 35.5527C49.4577 34.9274 47.1719 33.681 46.4499 33.39C42.7077 31.8874 43.0254 29.7508 44.2136 28.6738C45.5257 27.4796 49.1647 29.2862 50.6955 30.2937C51.6238 30.8973 51.7765 30.146 51.7723 29.4859L51.7599 26.3635C51.7599 25.6209 51.5165 25.5601 50.8688 25.2127Z" fill="#87BCF6"/>
<path fill-rule="evenodd" clip-rule="evenodd" d="M21.9929 32.2208V20.8482C21.9929 20.792 22.1977 20.5977 22.2511 20.5977C27.2199 20.3516 30.0472 21.2929 30.301 26.4395C30.5904 32.346 25.4835 32.4712 21.9929 32.4712V32.2208ZM16 16.4269V47H21.9929V37.1472C29.3571 37.6567 36 35.0963 36 26.841C36 23.5121 34.9314 20.1617 32.398 18.1367C28.8584 15.3043 20.5859 15.9347 16 16.4269Z" fill="#87BCF6"/>
</svg>
