<svg width="65" height="65" viewBox="0 0 65 65" fill="none" xmlns="http://www.w3.org/2000/svg">
<rect width="65" height="65" rx="16" fill="white"/>
<path d="M23.5 30.5H17.5V34.7526L18.5 35.5L20 36.5V39C20 39.4 19 39.8333 18.5 40L17 41.5L16.5 45L18 45.5C18.8333 45.6667 20.6 46 21 46C21.5 46 26.5 47 27 47C27.4 47 30.8333 48.4773 32.5 49.2159V35L31 34L29 32.5L23.5 30.5Z" fill="#D03D29"/>
<path d="M48.8319 33.7708V30.3324C48.8319 29.7337 48.3466 29.2484 47.7479 29.2484C45.5085 29.2484 43.4208 29.4373 41.4483 29.8232C40.2985 28.7129 38.8968 27.9072 37.3788 27.4669C39.034 26.0738 40.0878 23.988 40.0878 21.6603C40.0878 17.4364 36.6838 14 32.4999 14C28.3159 14 24.912 17.4364 24.912 21.6603C24.912 23.988 25.9658 26.0738 27.621 27.4668C26.1031 27.9072 24.7014 28.7129 23.5515 29.8232C21.5791 29.4373 19.4913 29.2483 17.2519 29.2483C16.6533 29.2483 16.168 29.7336 16.168 30.3323V33.7708C14.9063 34.2182 14 35.4231 14 36.8363V39.0043C14 40.4175 14.9063 41.6224 16.168 42.0699V45.5084C16.168 46.107 16.6533 46.5924 17.2519 46.5924C22.9197 46.5924 27.5738 47.9353 31.8987 50.8186C32.2611 51.0602 32.7385 51.0607 33.1013 50.8186C37.4262 47.9353 42.0803 46.5924 47.7481 46.5924C48.3467 46.5924 48.832 46.107 48.832 45.5084V42.0699C50.0937 41.6224 51 40.4175 51 39.0043V36.8363C50.9999 35.4232 50.0936 34.2183 48.8319 33.7708ZM27.08 21.6603C27.08 18.6318 29.5114 16.168 32.4999 16.168C35.4884 16.168 37.9198 18.6318 37.9198 21.6603C37.9198 24.6489 35.4884 27.0803 32.4999 27.0803C29.5114 27.0803 27.08 24.6489 27.08 21.6603ZM17.2519 40.0884C16.6542 40.0884 16.1679 39.6021 16.1679 39.0044V36.8364C16.1679 36.2387 16.6542 35.7524 17.2519 35.7524C17.8496 35.7524 18.3359 36.2387 18.3359 36.8364V39.0044C18.3359 39.6021 17.8496 40.0884 17.2519 40.0884ZM31.4159 47.9717C27.4808 45.7212 23.2581 44.5838 18.3359 44.4401V42.07C19.5975 41.6225 20.5038 40.4176 20.5038 39.0044V36.8364C20.5038 35.4232 19.5975 34.2183 18.3359 33.7708V31.4317C23.4292 31.5779 27.5233 32.7773 31.4159 35.2558V47.9717ZM32.4999 33.3776C30.4992 32.1152 28.4166 31.154 26.1934 30.4785C27.415 29.6846 28.853 29.2484 30.3319 29.2484H34.6679C36.1468 29.2484 37.5848 29.6846 38.8064 30.4785C36.5832 31.154 34.5006 32.1152 32.4999 33.3776ZM46.6639 44.4401C41.7417 44.5838 37.5189 45.7215 33.5839 47.9718V35.2566C37.4766 32.778 41.5704 31.5778 46.6639 31.4317V33.7708C45.4022 34.2183 44.496 35.4232 44.496 36.8364V39.0044C44.496 40.4176 45.4022 41.6225 46.6639 42.07V44.4401ZM48.8319 39.0044C48.8319 39.6021 48.3456 40.0884 47.7479 40.0884C47.1502 40.0884 46.6639 39.6021 46.6639 39.0044V36.8364C46.6639 36.2387 47.1502 35.7524 47.7479 35.7524C48.3456 35.7524 48.8319 36.2387 48.8319 36.8364V39.0044Z" fill="black"/>
<path d="M33.678 9H32.3203V10.8668H33.678V9Z" fill="black"/>
<path d="M30.2889 9.26606L28.9775 9.61743L29.4607 11.4206L30.7721 11.0692L30.2889 9.26606Z" fill="black"/>
<path d="M27.0859 10.4215L25.9102 11.1003L26.8436 12.717L28.0193 12.0382L27.0859 10.4215Z" fill="black"/>
<path d="M24.2912 12.3212L23.3311 13.2811L24.6509 14.6013L25.6111 13.6415L24.2912 12.3212Z" fill="black"/>
<path d="M22.0823 14.927L21.4033 16.1028L23.02 17.0364L23.699 15.8606L22.0823 14.927Z" fill="black"/>
<path d="M20.6326 17.9811L20.2812 19.2925L22.0844 19.7756L22.4358 18.4642L20.6326 17.9811Z" fill="black"/>
<path d="M21.8668 21.321H20V22.6787H21.8668V21.321Z" fill="black"/>
<path d="M22.0629 24.227L20.2598 24.71L20.611 26.0214L22.4142 25.5384L22.0629 24.227Z" fill="black"/>
<path d="M23.0268 26.9832L21.4102 27.9166L22.089 29.0924L23.7057 28.159L23.0268 26.9832Z" fill="black"/>
<path d="M43.0012 27.0103L42.3223 28.186L43.9389 29.1196L44.6179 27.9439L43.0012 27.0103Z" fill="black"/>
<path d="M43.9511 24.2377L43.5996 25.5491L45.4028 26.0324L45.7543 24.721L43.9511 24.2377Z" fill="black"/>
<path d="M45.9996 21.321H44.1328V22.6787H45.9996V21.321Z" fill="black"/>
<path d="M45.3823 17.9838L43.5791 18.4669L43.9305 19.7783L45.7336 19.2952L45.3823 17.9838Z" fill="black"/>
<path d="M43.9311 14.9046L42.3145 15.838L42.9933 17.0138L44.61 16.0804L43.9311 14.9046Z" fill="black"/>
<path d="M41.7243 12.347L40.4043 13.667L41.3643 14.627L42.6844 13.307L41.7243 12.347Z" fill="black"/>
<path d="M38.9231 10.3931L37.9902 12.0101L39.1663 12.6886L40.0991 11.0715L38.9231 10.3931Z" fill="black"/>
<path d="M35.7312 9.27069L35.248 11.0739L36.5594 11.4252L37.0426 9.62206L35.7312 9.27069Z" fill="black"/>
<path d="M41.3791 29.3563L40.4189 30.3162L41.7388 31.6364L42.6989 30.6765L41.3791 29.3563Z" fill="black"/>
<path d="M24.6413 29.3534L23.3213 30.6735L24.2813 31.6335L25.6013 30.3135L24.6413 29.3534Z" fill="black"/>
</svg>
