<svg width="65" height="65" viewBox="0 0 65 65" fill="none" xmlns="http://www.w3.org/2000/svg">
<rect width="65" height="65" rx="16" fill="#072600"/>
<path fill-rule="evenodd" clip-rule="evenodd" d="M19.1852 40.5866L16.1177 40.5905L16.1215 21.4021C16.4632 21.3943 17.4153 21.363 18.283 21.3943C23.7078 21.5974 24.4642 27.6238 24.2184 32.4433C24.0495 35.7944 23.0244 40.3562 19.1852 40.5866ZM18.7744 17.0004L11.4185 17.0043C11.1651 17.0043 11.0192 17.0863 11.0077 17.4574L11.0845 36.7083L11 44.7735C11.0077 45.0195 11.1689 44.9805 11.3609 45L15.7722 44.9922L17.2886 44.9727C19.0854 44.9453 20.6518 45.0469 22.3987 44.4454C33.6476 40.5749 32.3883 16.8871 18.7744 17.0004Z" fill="#AFFC00"/>
<path fill-rule="evenodd" clip-rule="evenodd" d="M36.5548 24H31L35.2155 45L40.2594 44.9883L42.9729 30.531H43.1665L45.3303 44.9922H50.3432L55 24H50.4826L48.3148 38.641C48.2413 38.9849 47.9974 39.0787 47.9239 38.6605L45.88 24H40.9871L38.7342 38.6527C38.6761 39.0201 38.4284 39.0592 38.3781 38.6332L36.5548 24Z" fill="#AFFC00"/>
</svg>
