<svg width="65" height="65" viewBox="0 0 65 65" fill="none" xmlns="http://www.w3.org/2000/svg">
<rect width="65" height="65" rx="16" fill="white"/>
<path d="M46 29.0761C46 21.6322 39.9439 15.5761 32.5 15.5761C25.056 15.5761 19 21.6322 19 29.0761C19 33.6411 21.3307 37.9077 25.1308 40.3889V44.642C25.1308 48.7053 28.4365 52.011 32.4998 52.011C36.5631 52.011 39.8688 48.7052 39.8688 44.642V42.2532C39.8688 42.2526 39.8687 40.3891 39.8687 40.3891C43.6692 37.9078 46 33.6412 46 29.0761ZM37.2665 44.6421C37.2665 47.2704 35.1282 49.4085 32.5 49.4085C29.8717 49.4085 27.7334 47.2703 27.7334 44.6421V43.5544H37.2665V44.6421ZM37.9195 38.5327C37.5155 38.7648 37.2665 39.1951 37.2665 39.6611V40.952H33.8011V34.2232C35.4907 33.6735 36.7158 32.0844 36.7158 30.2137C36.7158 29.4951 36.1332 28.9125 35.4146 28.9125C34.696 28.9125 34.1133 29.4951 34.1133 30.2137C34.1133 31.1033 33.3895 31.8272 32.5 31.8272C31.6104 31.8272 30.8865 31.1034 30.8865 30.2137C30.8865 29.4951 30.3039 28.9125 29.5853 28.9125C28.8666 28.9125 28.284 29.4951 28.284 30.2137C28.284 32.0843 29.509 33.6735 31.1987 34.2232V40.952H27.7336V39.661C27.7336 39.1951 27.4846 38.7648 27.0806 38.5327C23.7016 36.5915 21.6027 32.968 21.6027 29.0761C21.6027 23.0672 26.4912 18.1786 32.5002 18.1786C38.5092 18.1786 43.3978 23.0672 43.3978 29.0761C43.3976 32.9681 41.2985 36.5917 37.9195 38.5327Z" fill="black"/>
<path d="M32.5005 8C31.7818 8 31.1992 8.58263 31.1992 9.30125V11.5856C31.1992 12.3042 31.7818 12.8869 32.5005 12.8869C33.2191 12.8869 33.8017 12.3042 33.8017 11.5856V9.30125C33.8017 8.58263 33.2192 8 32.5005 8Z" fill="#D03D29"/>
<path d="M28.8401 11.9194L28.0324 9.78245C27.7783 9.11025 27.0271 8.77132 26.3552 9.02532C25.683 9.27942 25.344 10.0304 25.5981 10.7026L26.4057 12.8395C26.6025 13.3602 27.0975 13.681 27.6231 13.681C27.7759 13.681 27.9315 13.6539 28.083 13.5966C28.7552 13.3425 29.0942 12.5916 28.8401 11.9194Z" fill="#D03D29"/>
<path d="M38.6454 9.02532C37.9731 8.77114 37.2223 9.11034 36.9682 9.78254L36.1605 11.9195C35.9065 12.5916 36.2455 13.3425 36.9177 13.5966C37.0692 13.6539 37.2247 13.681 37.3775 13.681C37.9033 13.681 38.3982 13.3602 38.595 12.8395L39.4026 10.7026C39.6567 10.0303 39.3177 9.27942 38.6454 9.02532Z" fill="#D03D29"/>
</svg>
