<svg width="65" height="65" viewBox="0 0 65 65" fill="none" xmlns="http://www.w3.org/2000/svg">
<rect width="65" height="65" rx="16" fill="white"/>
<path d="M42.5777 53H25.3722H22.3598C21.6067 53 21.0273 52.4207 21.0273 51.6676V41.9352C21.0273 38.1117 24.0977 35.0414 27.9211 35.0414H37.0742C40.8977 35.0414 43.968 38.1117 43.968 41.9352V51.6676C43.9101 52.4207 43.3308 53 42.5777 53Z" stroke="black" stroke-width="2" stroke-miterlimit="10"/>
<path d="M25.3721 41.7035V52.7104" stroke="black" stroke-width="2" stroke-miterlimit="10"/>
<path d="M38.4072 53V41.7035" stroke="black" stroke-width="2" stroke-miterlimit="10"/>
<path d="M43.6205 32.4345H21.0274C20.2163 32.4345 19.5791 31.7972 19.5791 30.9862V26.3517C19.5791 25.5407 20.2163 24.9034 21.0274 24.9034H43.6205C44.4315 24.9034 45.0688 25.5407 45.0688 26.3517V30.9862C45.0688 31.7972 44.4315 32.4345 43.6205 32.4345Z" stroke="black" stroke-width="2" stroke-miterlimit="10"/>
<path d="M45.9958 24.9035H23.2868C22.5337 24.9035 21.8965 24.2663 21.8965 23.5132V19.3421C21.8965 18.589 22.5337 17.9518 23.2868 17.9518H45.9958C46.7489 17.9518 47.3861 18.589 47.3861 19.3421V23.5132C47.3861 24.2663 46.7489 24.9035 45.9958 24.9035Z" stroke="black" stroke-width="2" stroke-miterlimit="10"/>
<path d="M43.0993 17.9517H20.3903C19.6372 17.9517 19 17.3145 19 16.5614V12.3903C19 11.6372 19.6372 11 20.3903 11H43.0993C43.8524 11 44.4897 11.6372 44.4897 12.3903V16.5614C44.4897 17.3145 43.8524 17.9517 43.0993 17.9517Z" stroke="#D03D29" stroke-width="2" stroke-miterlimit="10"/>
<path d="M26.5312 13.6069V15.0552" stroke="black" stroke-width="2" stroke-miterlimit="10" stroke-linecap="round" stroke-linejoin="round"/>
<path d="M29.4277 13.6069V15.0552" stroke="black" stroke-width="2" stroke-miterlimit="10" stroke-linecap="round" stroke-linejoin="round"/>
<path d="M32.3242 13.6069V15.0552" stroke="black" stroke-width="2" stroke-miterlimit="10" stroke-linecap="round" stroke-linejoin="round"/>
<path d="M37.5381 20.5586V22.0069" stroke="#D03D29" stroke-width="2" stroke-miterlimit="10" stroke-linecap="round" stroke-linejoin="round"/>
<path d="M40.4346 20.5586V22.0069" stroke="#D03D29" stroke-width="2" stroke-miterlimit="10" stroke-linecap="round" stroke-linejoin="round"/>
<path d="M43.3311 20.5586V22.0069" stroke="#D03D29" stroke-width="2" stroke-miterlimit="10" stroke-linecap="round" stroke-linejoin="round"/>
<path d="M25.3721 28.0896V29.5379" stroke="black" stroke-width="2" stroke-miterlimit="10" stroke-linecap="round" stroke-linejoin="round"/>
<path d="M28.2686 28.0896V29.5379" stroke="black" stroke-width="2" stroke-miterlimit="10" stroke-linecap="round" stroke-linejoin="round"/>
<path d="M31.165 28.0896V29.5379" stroke="black" stroke-width="2" stroke-miterlimit="10" stroke-linecap="round" stroke-linejoin="round"/>
<path d="M41.0137 13.6069V15.0552" stroke="black" stroke-width="2" stroke-miterlimit="10" stroke-linecap="round" stroke-linejoin="round"/>
<path d="M41.0137 28.0896V29.5379" stroke="black" stroke-width="2" stroke-miterlimit="10" stroke-linecap="round" stroke-linejoin="round"/>
<path d="M28.8486 20.5586V22.0069" stroke="#D03D29" stroke-width="2" stroke-miterlimit="10" stroke-linecap="round" stroke-linejoin="round"/>
</svg>
