<svg width="65" height="65" viewBox="0 0 65 65" fill="none" xmlns="http://www.w3.org/2000/svg">
<rect width="65" height="65" rx="16" fill="white"/>
<path d="M48.9387 23.0014C48.4359 21.3238 47.2854 17.6302 46.6391 16.709C44.3728 13.4777 39.137 10 32.9969 10C28.5154 10 24.2734 11.8167 21.0522 15.1154C17.865 18.3793 16.0716 22.6773 16.0022 27.2178C15.959 30.0362 16.5625 32.7361 17.796 35.2428C18.8754 37.4362 20.4276 39.406 22.307 40.9738V54H41.03V46.7092H44.04C47.7504 46.7092 50.769 43.671 50.769 39.9365V36.3177L55 34.5301L48.9387 23.0014ZM48.2074 34.6038V39.9366C48.2074 42.2495 46.3379 44.1312 44.0399 44.1312H38.4685V51.4219H24.8684V39.7181L24.3677 39.3311C22.5713 37.9427 21.0926 36.1333 20.0914 34.0986C19.0406 31.9632 18.5266 29.6616 18.5634 27.2576C18.6226 23.3824 20.1553 19.712 22.8791 16.9226C25.6147 14.121 29.2079 12.5781 32.9969 12.5781C35.3713 12.5781 37.7943 13.2005 40.0041 14.378C41.8964 15.3863 43.5521 16.7779 44.5439 18.192C44.8663 18.683 45.8216 21.5186 46.5218 23.8642L46.5578 23.9848L51.4258 33.244L48.2074 34.6038Z" fill="black"/>
<path d="M36.961 22.5243L38.546 20.9394L37.0517 19.4451L35.4647 21.032C34.8936 20.6518 34.2461 20.3781 33.5503 20.2394V18H31.437V20.2416C30.7416 20.382 30.0946 20.6574 29.5244 21.039L27.9394 19.454L26.4451 20.9483L28.032 22.5353C27.6518 23.1064 27.3781 23.7539 27.2394 24.4497H25V26.563H27.2416C27.382 27.2584 27.6574 27.9054 28.039 28.4756L26.454 30.0606L27.9484 31.5549L29.5354 29.968C30.1064 30.3482 30.754 30.6219 31.4497 30.7606V33H33.563V30.7583C34.2584 30.6179 34.9054 30.3425 35.4757 29.961L37.0607 31.5459L38.555 30.0516L36.968 28.4647C37.3482 27.8936 37.622 27.2461 37.7607 26.5503H40V24.437H37.7584C37.618 23.7415 37.3427 23.0946 36.961 22.5243ZM32.5 28.7512C30.7073 28.7512 29.2488 27.2927 29.2488 25.5C29.2488 23.7073 30.7073 22.2488 32.5 22.2488C34.2928 22.2488 35.7513 23.7073 35.7513 25.5C35.7513 27.2927 34.2927 28.7512 32.5 28.7512Z" fill="#D03D29"/>
</svg>
