<svg width="65" height="65" viewBox="0 0 65 65" fill="none" xmlns="http://www.w3.org/2000/svg">
<rect width="65" height="65" rx="16" fill="white"/>
<path d="M46.9572 22.8777H23.9455C21.8132 22.8777 20.07 21.1322 20.07 18.9798C20.07 16.8352 21.8054 15.082 23.9455 15.082H46.965C47.5409 15.082 48 14.6124 48 14.041C48 13.4618 47.5331 13 46.965 13H23.9455C20.6693 13 18 15.6847 18 18.9798V45.0202C18 48.3153 20.6693 51 23.9455 51H46.965C47.5409 51 48 50.5304 48 49.959V23.9186C47.9922 23.3473 47.5331 22.8777 46.9572 22.8777ZM45.9222 48.918H23.9455C21.8132 48.918 20.07 47.1726 20.07 45.0202V23.5195C21.1128 24.4196 22.4669 24.9675 23.9455 24.9675H45.9222V48.918Z" fill="black"/>
<path d="M24.0586 18C23.4696 18 23 18.4511 23 19C23 19.5489 23.4776 20 24.0586 20H43.9414C44.5304 20 45 19.5489 45 19C45 18.4511 44.5224 18 43.9414 18H24.0586Z" fill="black"/>
<path d="M27.7245 43.939C27.846 43.9771 27.9675 44 28.089 44C28.5346 44 28.9477 43.7407 29.1016 43.3289L30.4139 39.8744H35.4686C35.5091 39.8744 35.5577 39.8744 35.5982 39.8668L36.9105 43.3289C37.0644 43.7407 37.4857 44 37.9231 44C38.0446 44 38.1661 43.9771 38.2876 43.939C38.8465 43.7483 39.1382 43.1688 38.9356 42.6426L34.0267 29.6863C34.0186 29.6558 34.0024 29.6253 33.9862 29.5948C33.9781 29.5796 33.97 29.5643 33.9619 29.5491C33.9538 29.5338 33.9457 29.5186 33.9376 29.5033C33.9295 29.4881 33.9133 29.4728 33.9052 29.4499C33.8971 29.4423 33.889 29.427 33.8809 29.4194C33.8728 29.4042 33.8566 29.3889 33.8404 29.3737C33.8323 29.366 33.8242 29.3508 33.808 29.3432C33.7999 29.3279 33.7837 29.3203 33.7675 29.305C33.7513 29.2898 33.7432 29.2822 33.727 29.2669C33.7189 29.2593 33.7027 29.2517 33.6946 29.2364C33.6784 29.2211 33.6622 29.2135 33.646 29.1983C33.6379 29.1906 33.6217 29.183 33.6136 29.1754C33.5974 29.1678 33.5812 29.1525 33.565 29.1449C33.5488 29.1373 33.5326 29.1296 33.5164 29.122C33.5002 29.1144 33.484 29.1068 33.4678 29.0991C33.4354 29.0839 33.403 29.0686 33.3706 29.061H33.3625C33.3301 29.0534 33.2977 29.0458 33.2653 29.0381C33.2491 29.0381 33.241 29.0305 33.2248 29.0305C33.2005 29.0229 33.1843 29.0229 33.16 29.0153C33.1438 29.0153 33.1276 29.0153 33.1114 29.0076C33.0952 29.0076 33.0709 29 33.0547 29C33.0385 29 33.0223 29 33.0061 29C32.9899 29 32.9737 29 32.9494 29C32.9332 29 32.9089 29 32.8927 29.0076C32.8765 29.0076 32.8603 29.0076 32.8441 29.0153C32.8197 29.0153 32.8035 29.0229 32.7792 29.0305C32.763 29.0305 32.7549 29.0381 32.7387 29.0381C32.7063 29.0458 32.6739 29.0534 32.6496 29.061H32.6415C32.6091 29.0686 32.5767 29.0839 32.5443 29.0991C32.5281 29.1068 32.5119 29.1144 32.4957 29.122C32.4795 29.1296 32.4633 29.1373 32.4471 29.1449C32.4309 29.1525 32.4147 29.1678 32.3904 29.1754C32.3823 29.183 32.3661 29.1906 32.358 29.1983C32.3418 29.2135 32.3256 29.2211 32.3094 29.2364C32.3013 29.244 32.2851 29.2517 32.277 29.2669C32.2608 29.2822 32.2527 29.2898 32.2365 29.305C32.2203 29.3203 32.2122 29.3279 32.196 29.3432C32.1879 29.3508 32.1798 29.366 32.1636 29.3737C32.1474 29.3889 32.1393 29.4042 32.1231 29.4194C32.115 29.427 32.1069 29.4423 32.0988 29.4499C32.0907 29.4652 32.0745 29.4804 32.0664 29.4957C32.0583 29.5109 32.0502 29.5262 32.0421 29.5414C32.034 29.5567 32.0259 29.5719 32.0178 29.5872C32.0016 29.6177 31.9854 29.6482 31.9773 29.6787L27.0522 42.635C26.874 43.1688 27.1656 43.7483 27.7245 43.939ZM33.0142 33.0417L34.8368 37.846H31.1834L33.0142 33.0417Z" fill="#D03D29"/>
</svg>
