<svg width="65" height="65" viewBox="0 0 65 65" fill="none" xmlns="http://www.w3.org/2000/svg">
<rect width="65" height="65" rx="16" fill="white"/>
<path d="M41.9323 30.4784C40.7693 29.5604 39.2063 29.0014 37.5003 29.0004C35.7943 29.0014 34.2303 29.5604 33.0673 30.4784C31.8833 31.4134 31.0983 32.7304 31.0083 34.2254C30.9173 35.7614 31.5783 37.1904 32.7403 38.2484C33.9253 39.3244 35.6133 40.0004 37.5013 40.0004C39.3883 40.0004 41.0753 39.3244 42.2583 38.2474C43.4203 37.1904 44.0823 35.7614 43.9923 34.2244C43.9023 32.7314 43.1163 31.4134 41.9323 30.4784Z" fill="#01579B"/>
<path d="M52.871 33.9324C52.612 32.1094 51.98 30.3974 51.01 28.8374C50.119 27.4044 48.975 26.1494 47.613 25.0924L47.6151 25.0904L47.578 25.0784C47.55 25.0534 47.528 25.0244 47.4991 25.0004L33.2491 14.4384C32.389 13.7494 31.129 13.8864 30.438 14.7514C29.748 15.6134 29.887 16.8724 30.751 17.5624L36.739 22.0004H17.5C16.125 22.0004 15 23.1254 15 24.5004C15 25.8754 16.125 27.0004 17.5 27.0004H24.654L9.87305 39.6024C8.82505 40.5004 8.70305 42.0804 9.60205 43.1274C10.097 43.7044 10.797 44.0004 11.501 44.0004C12.077 44.0004 12.655 43.8024 13.127 43.3984L22.081 35.7234C22.059 36.5304 22.042 37.2614 22.046 37.4844C22.046 41.0004 26 50.0004 37.682 50.0004C46 50.0004 52.9621 45.0004 52.9621 36.7394C53.034 35.8054 53.003 34.8674 52.871 33.9324ZM46.5251 37.1534C46.1241 38.2404 45.475 39.2574 44.59 40.1454C42.78 41.9654 40.2471 42.9954 37.5021 42.9994C34.757 43.0044 32.222 41.9824 30.411 40.1674C29.526 39.2824 28.8761 38.2664 28.4741 37.1814C28.0821 36.1164 27.9291 34.9864 28.0301 33.8464C28.128 32.7304 28.462 31.6674 29.001 30.7054C29.53 29.7594 30.2581 28.9054 31.1551 28.1814C32.9151 26.7674 35.154 26.0024 37.5 25.9994C39.8461 25.9964 42.084 26.7554 43.8451 28.1634C44.7421 28.8834 45.4691 29.7344 45.9971 30.6784C46.5361 31.6394 46.8711 32.7014 46.9701 33.8164C47.07 34.9584 46.9181 36.0874 46.5251 37.1534Z" fill="#FF6D00"/>
</svg>
