<svg width="65" height="65" viewBox="0 0 65 65" fill="none" xmlns="http://www.w3.org/2000/svg">
<rect width="65" height="65" rx="16" fill="#2E001E"/>
<path fill-rule="evenodd" clip-rule="evenodd" d="M13.4732 18.6752C13.6876 19.1377 14.007 19.7043 14.1247 19.9418C14.4525 20.5918 14.772 21.1959 15.0956 21.8376L20.3707 32.2454C20.5262 32.5496 20.8162 32.8912 20.6691 33.2204L13.2672 47.2281C13.0907 47.5739 12.6998 47.9781 13.4101 47.9781H17.7983C18.4204 47.9781 18.4288 47.6531 18.8239 46.8198L23.8468 36.3869C24.1914 36.6869 28.2938 45.5157 29.2858 47.5323C29.4581 47.8823 29.5001 47.9781 30.0045 47.9781C30.7149 47.9781 34.6197 48.0614 34.9938 47.9031C35.0736 47.4948 34.3633 46.3698 34.1531 45.974L32.2028 42.2658C30.6602 39.3243 28.8949 35.7536 27.3313 32.9579C27.0118 32.3871 27.1337 32.4163 27.8525 31.0955C28.2013 30.4538 28.4914 29.8664 28.8402 29.2247C29.1597 28.6289 29.4833 28.0165 29.8028 27.3956L32.7366 21.8001C33.0098 21.2876 34.3086 19.0002 34.5272 18.2377C34.5987 17.9836 34.1741 18.0002 33.8715 18.0002L29.9961 18.0044C29.9751 18.0044 29.9541 18.0044 29.9331 18.0044C29.5085 18.0044 29.4455 18.0877 29.2942 18.3919L25.486 26.4457C25.3011 26.854 24.2881 29.2081 24.1032 29.3539C23.7039 28.3748 23.2163 27.429 22.7834 26.454L20.0008 20.6459C19.7486 20.171 19.5553 19.6877 19.3157 19.2168C19.1854 18.9585 19.0719 18.7419 18.9584 18.4877C18.7987 18.1336 18.8197 18.0044 18.3447 18.0044L13.9019 18.0086C13.242 18.0127 13.1748 18.0336 13.4732 18.6752Z" fill="#FF3BC1"/>
<path fill-rule="evenodd" clip-rule="evenodd" d="M40.8386 37.0157C40.8386 35.2199 41.019 33.5148 41.9971 32.0074C42.2016 31.6862 42.5463 31.2125 42.7788 30.9942C43.9735 29.8863 45.9738 29.0544 48.1065 29.7669L48.1145 43.4077C43.9414 44.6433 40.8386 41.9992 40.8386 37.0157ZM48.1145 25.4259L46.4148 25.3929C43.1557 25.3929 40.4297 27.0074 38.9505 28.6054C37.4271 30.2529 36 33.21 36 36.4761C36 40.0511 36.6414 42.654 38.5215 44.9193C39.8524 46.5297 42.4421 48 45.5649 48C47.1965 48 48.3831 47.9094 49.9786 47.4687C50.7563 47.2504 52.5202 46.6614 52.9852 46.2537C53.0413 45.9489 52.921 45.0675 52.905 44.6763C52.8489 43.0535 52.885 40.8871 52.889 39.2315L52.893 18.5354C52.897 18.1236 52.917 18 52.4961 18H48.5074C47.9542 18 48.1145 18.3501 48.1145 19.5486V25.4259Z" fill="#FE31C0"/>
</svg>
