<svg width="65" height="65" viewBox="0 0 65 65" fill="none" xmlns="http://www.w3.org/2000/svg">
<rect width="65" height="65" rx="16" fill="white"/>
<path d="M51.0625 50H16.9375C14.7627 50 13 48.1401 13 45.8462V18.1539C13 15.8596 14.7627 14 16.9375 14H28.2251C28.9025 13.9987 29.5543 14.2758 30.0414 14.7728L34.5249 19.3072C34.5915 19.3776 34.6511 19.455 34.7021 19.5385H51.0625C53.2373 19.5385 55 21.3984 55 23.6923V45.8462C55 48.1401 53.237 50 51.0625 50ZM16.9375 16.7692C16.2127 16.7692 15.625 17.3892 15.625 18.1539V45.8462C15.625 46.6108 16.2127 47.2308 16.9375 47.2308H51.0625C51.7873 47.2308 52.375 46.6108 52.375 45.8462V23.6923C52.375 22.9277 51.7873 22.3077 51.0625 22.3077H34.7021C33.8837 22.3077 33.1118 21.9048 32.6154 21.2179L28.2251 16.7692H16.9375Z" fill="black"/>
<path d="M33.9524 27L24 31L32.5952 35L43 31.5L33.9524 27Z" fill="#D03D29"/>
<path d="M44.864 37.4372V31.7909C44.864 31.4347 44.6641 31.1189 44.3689 31.0097L33.6512 27.0396C33.5087 26.9868 33.3553 26.9868 33.2128 27.0396L22.4951 31.0097C22.2001 31.1189 22 31.4345 22 31.7909C22 32.1471 22.2001 32.4627 22.4951 32.5719L27.8608 34.5596V37.639C27.8608 37.6524 27.8612 37.6657 27.8618 37.679C27.883 38.4776 28.5398 39.2345 29.7166 39.8141C30.7916 40.3437 32.1113 40.6353 33.4322 40.6353C34.7531 40.6353 36.0728 40.3437 37.1478 39.8141C38.3442 39.2248 39.0032 38.4524 39.0032 37.639V34.5596L43.4354 32.9178V37.4372C42.7689 37.7589 42.2994 38.5168 42.2994 39.3984V42.1792C42.2994 42.6324 42.6193 43 43.0137 43H45.2857C45.6801 43 46 42.6324 46 42.1792V39.3984C46 38.5168 45.5307 37.7589 44.864 37.4372ZM36.3613 38.4093C35.4995 38.7861 34.4592 38.9938 33.4322 38.9938C32.405 38.9938 31.3647 38.7861 30.5031 38.4093C29.7477 38.0787 29.3757 37.7212 29.2894 37.5712V35.0887L33.2128 36.542C33.2841 36.5683 33.358 36.5815 33.432 36.5815C33.506 36.5815 33.58 36.5685 33.6512 36.542L37.5746 35.0887V37.5719C37.4876 37.7221 37.1157 38.0791 36.3613 38.4093ZM33.432 34.8985L25.0423 31.7909L33.432 28.6833L41.8217 31.7909L33.432 34.8985ZM44.5714 41.3585H43.728V39.3984C43.728 39.1311 43.9174 38.9138 44.1497 38.9138C44.3823 38.9138 44.5714 39.1311 44.5714 39.3984V41.3585Z" fill="black" stroke="black" stroke-width="0.6"/>
</svg>
