<svg width="85" height="85" viewBox="0 0 85 85" fill="none" xmlns="http://www.w3.org/2000/svg">
<rect x="10" y="6" width="65" height="65" rx="16" fill="#003ECB"/>
<g filter="url(#filter0_d)">
<rect x="10" y="6" width="65" height="65" rx="16" fill="#003ECB"/>
</g>
<path d="M43.2717 27.704C44.0645 28.783 44.4609 30.07 44.4609 31.5754C44.4609 33.1224 44.0645 34.3704 43.2612 35.3116C42.8097 35.8342 42.1507 36.3178 41.2792 36.752C42.6023 37.2252 43.5998 37.9714 44.2798 38.9906C44.9518 40.0098 45.2905 41.25 45.2905 42.706C45.2905 44.2088 44.9046 45.5582 44.1328 46.749C43.6445 47.5368 43.0302 48.205 42.2951 48.7432C41.4682 49.362 40.4916 49.7858 39.3627 50.0172C38.2339 50.246 37.0132 50.3578 35.6953 50.3578H24V25H36.5433C39.7093 25.0468 41.9486 25.9464 43.2717 27.704ZM29.1743 29.4044V34.9996H35.4853C36.6089 34.9996 37.5251 34.789 38.2313 34.3704C38.9322 33.9518 39.2866 33.2082 39.2866 32.1448C39.2866 30.9592 38.822 30.1818 37.8926 29.7996C37.0893 29.537 36.0655 29.4044 34.8238 29.4044H29.1743ZM29.1743 39.196V45.9586H35.4774C36.6036 45.9586 37.4831 45.8104 38.1079 45.5114C39.2472 44.955 39.8143 43.9046 39.8143 42.3446C39.8143 41.0212 39.2656 40.1164 38.163 39.6224C37.5435 39.3494 36.6772 39.2038 35.5641 39.196H29.1743ZM60.9814 31.9888C62.3229 32.5738 63.4254 33.4994 64.2944 34.763C65.0872 35.8784 65.5965 37.1706 65.8275 38.6396C65.964 39.4976 66.0165 40.743 65.9955 42.3628H52.011C52.095 44.2426 52.7566 45.5634 54.0219 46.3174C54.7885 46.788 55.7073 47.0246 56.7915 47.0246C57.9309 47.0246 58.8602 46.7386 59.5743 46.1666C59.968 45.8546 60.3119 45.4256 60.6086 44.877H65.733C65.5965 45.9872 64.9743 47.1182 63.8744 48.2674C62.1548 50.0874 59.7475 51 56.6524 51C54.0954 51 51.843 50.233 49.8925 48.6938C47.9341 47.1572 46.9601 44.6534 46.9601 41.1876C46.9601 37.9376 47.8422 35.4442 49.6037 33.71C51.3705 31.981 53.6544 31.11 56.466 31.11C58.1409 31.1074 59.6451 31.4012 60.9814 31.9888ZM53.4759 36.2242C52.7671 36.9392 52.3208 37.9064 52.137 39.1258H60.7871C60.6952 37.8232 60.2463 36.8378 59.4509 36.1592C58.6449 35.4858 57.6552 35.1504 56.4713 35.1504C55.1875 35.153 54.1847 35.5118 53.4759 36.2242ZM50.8402 29.3394H61.9632V26.183H50.8402V29.3394Z" fill="white"/>
<defs>
<filter id="filter0_d" x="0" y="0" width="85" height="85" filterUnits="userSpaceOnUse" color-interpolation-filters="sRGB">
<feFlood flood-opacity="0" result="BackgroundImageFix"/>
<feColorMatrix in="SourceAlpha" type="matrix" values="0 0 0 0 0 0 0 0 0 0 0 0 0 0 0 0 0 0 127 0"/>
<feOffset dy="4"/>
<feGaussianBlur stdDeviation="5"/>
<feColorMatrix type="matrix" values="0 0 0 0 0 0 0 0 0 0.243137 0 0 0 0 0.796078 0 0 0 0.4 0"/>
<feBlend mode="normal" in2="BackgroundImageFix" result="effect1_dropShadow"/>
<feBlend mode="normal" in="SourceGraphic" in2="effect1_dropShadow" result="shape"/>
</filter>
</defs>
</svg>
