<svg width="65" height="65" viewBox="0 0 65 65" fill="none" xmlns="http://www.w3.org/2000/svg">
<rect width="65" height="65" rx="16" fill="#141201"/>
<path fill-rule="evenodd" clip-rule="evenodd" d="M35.3183 22.0137C36.2937 22.0137 37.7134 21.9995 38.8047 22.0184C39.6352 22.0326 39.5966 22.3301 39.8091 22.878C39.8429 22.9772 39.8863 23.0906 39.9346 23.2134C40.9921 25.9434 44.2467 34.3318 44.2467 34.3318L48.1677 23.3362C48.4719 22.486 48.5781 22.0137 49.5101 22.0089C50.6255 21.9995 51.9728 21.9948 53.1268 22.0089C54.3871 22.0278 53.9622 23.0292 53.7932 23.5156L44.5413 50.2065C44.324 50.9528 44.2226 51 42.7643 51L39.2489 50.9953C38.3122 50.9953 37.8148 50.9008 38.1963 49.89L40.8666 41.6858L34.8644 25.4333C34.565 24.739 34.1691 23.9171 34.0387 23.1945C33.8311 22.0231 34.4878 22.0089 35.3183 22.0137Z" fill="#FCE510"/>
<path fill-rule="evenodd" clip-rule="evenodd" d="M20.7724 32.1592C23.5828 33.2238 27.5434 34.9151 25.8694 38.5927C24.186 42.2841 16.4844 39.4913 13.1503 37.2055C12.5284 36.7769 11.9766 36.8507 12.0047 38.0719L12 41.6204C12 42.3762 12.0748 42.791 12.7061 43.1965C14.1323 44.1044 17.3308 45.8095 22.2454 45.9893C27.6791 46.1828 31.5743 43.7634 32.762 38.2286C33.0566 36.8415 33.0893 35.3253 32.7947 33.7446C31.5228 26.9102 18.0369 26.6475 18.6261 21.0805C19.1358 16.2416 26.1032 18.3707 29.6851 19.7302C31.289 20.3431 31.2189 20.4952 31.2095 18.9329L31.1908 15.4627C31.1861 14.5549 31.2516 14.6563 29.9236 14.2231C11.3313 8.14449 5.58903 26.4033 20.7724 32.1592Z" fill="#FCE510"/>
</svg>
