<svg width="65" height="65" viewBox="0 0 65 65" fill="none" xmlns="http://www.w3.org/2000/svg">
<rect width="65" height="65" rx="16" fill="#260600"/>
<path fill-rule="evenodd" clip-rule="evenodd" d="M28.6686 38.3381L30.5521 44.5748C30.6498 44.9433 30.8415 45.0335 31.1009 45.0297H35.9242C36.2963 45.0297 36.3227 44.9207 36.2663 44.6726L28.3002 18.1015C28.2852 18.0526 28.2476 18.015 28.1724 18.0188L21.492 18C21.2289 18 21.2251 18.1353 21.2477 18.391C21.3304 19.3158 21.2853 19.8346 21.0898 20.5601L14.0372 44.6839C13.962 44.9132 13.9808 45.0297 14.2816 45.0335L18.8342 45.0297C19.3154 45.0109 19.3417 44.8831 19.4244 44.6425L21.0033 38.3381H28.6686ZM27.6949 33.4885H22.1649L24.8454 22.6466L27.6949 33.4885Z" fill="#FF4A19"/>
<path fill-rule="evenodd" clip-rule="evenodd" d="M37.6615 44.8079V44.6087V44.5673V44.0147L37.6953 29.669L37.6728 29.1577L37.6615 28.8758L37.4961 28.0788C37.5299 28.0638 37.5638 28.0525 37.5976 28.0375C37.6615 28.0149 37.7254 27.9923 37.7893 27.966C43.402 25.8946 51.7553 25.0713 51.4395 33.3306C51.4358 33.3795 51.4395 33.4697 51.4358 33.5186V43.7327V44.5372V44.6124C51.4245 44.8568 51.2891 45.0372 50.9546 45.041H50.8794H47.7967C47.526 45.0448 47.293 45.0147 47.2854 44.6275C47.2854 44.6237 47.2854 44.6237 47.2854 44.6199C47.2854 44.4395 47.2854 44.2102 47.2854 43.9395C47.2854 40.9245 47.2892 32.7291 47.2817 32.5788C47.1877 29.9472 43.8344 29.654 41.7479 30.5074L41.684 44.0598V44.6275C41.6765 44.8793 41.6502 45.0335 41.2028 45.0372H37.9435C37.7931 45.0372 37.654 45.041 37.6615 44.8079Z" fill="#FF4A19"/>
</svg>
