<svg width="65" height="65" viewBox="0 0 65 65" fill="none" xmlns="http://www.w3.org/2000/svg">
<rect width="65" height="65" rx="16" fill="#252653"/>
<path fill-rule="evenodd" clip-rule="evenodd" d="M27.4115 37.5708L29.6663 44.9958H36L27.0057 15.1125C26.989 15.0583 26.9471 15.0208 26.8593 15.0208L19.417 15C19.1283 15 19.12 15.15 19.1451 15.4333C19.2371 16.4625 19.1869 17.0375 18.9736 17.8417L11 45L17.0074 44.9917L18.8773 37.5667L27.4115 37.5708ZM26.3322 32.1875H20.1658L23.157 20.1583L26.3322 32.1875Z" fill="#BC85F3"/>
<path fill-rule="evenodd" clip-rule="evenodd" d="M42.6968 34.8415L54.1645 34.8579C54.8866 33.9348 55.0187 32.1998 54.998 31.0624C54.9196 26.4468 51.8577 22.029 46.3281 22.0002C37.0434 21.9466 35.2855 33.6711 38.4464 40.4338C39.4409 42.5602 41.4382 43.9119 43.7821 44.5548C44.8508 44.8474 45.9856 44.9958 47.1328 44.9999C49.4024 45.0082 51.7092 44.46 53.562 43.4051C53.5909 43.3886 53.6404 43.3886 53.6445 43.3556V43.2237L53.6404 39.4035C53.6404 39.2304 53.5083 39.1315 53.3103 39.1933C50.9664 39.898 43.0269 42.1481 42.6596 35.0558C42.6555 35.0022 42.6431 34.8415 42.6968 34.8415ZM48.4451 31.013H42.606C42.6349 27.9139 44.0585 26.1542 46.258 26.146C48.2552 26.1377 49.5262 27.5224 49.5881 30.9388C49.5881 31.0954 49.5881 31.013 49.5881 31.013H48.4451Z" fill="#BC85F3"/>
</svg>
