<svg width="11" height="13" fill="none" xmlns="http://www.w3.org/2000/svg"><path fill-rule="evenodd" clip-rule="evenodd" d="M.999 5.814c-.527-.025-.975.413-.998.98-.023.566.348 1.075.876 1.1l3.503.463s-.73 1.29-.73 3.199c0 1.273.86 1.444 1.368 1.444.399 0 .506-.815.506-.815.091-.523.209-.98.617-1.82.457-.942 1.08-.853 1.807-1.693.128-.147.3-.391.468-.691a.241.241 0 0 0 .04-.07c.014-.037.032-.063.048-.097a5.57 5.57 0 0 0 .082-.165c.45-.475 1.15-.426 1.45-.426.598 0 .912-.367.912-.963V1.858c0-.668-.26-.893-.913-.893h-.912c-.46 0-.819-.278-1.368-.482C7.002.208 5.878.001 3.942.001L2.552 0c-.32 0-.579.155-.765.342A.63.63 0 0 0 1.61.72C1.605.75 1.6.882 1.6.9c-.024.577.306.786.494.851-.005.002-.002.007-.012.007l-.595-.028C.96 1.703.44 2.104.44 2.787c0 .565.434.964.96.992l-.315-.016c-.528-.024-.974.414-.998.98C.064 5.31.473 5.789 1 5.814z" fill="#BBB"/></svg>