<svg width="11" height="13" fill="none" xmlns="http://www.w3.org/2000/svg"><path fill-rule="evenodd" clip-rule="evenodd" d="M9.997 7.186c.53.025.98-.413 1.002-.98.024-.566-.349-1.075-.88-1.1L6.6 4.644s.734-1.29.734-3.199C7.334.171 6.468 0 5.959 0c-.4 0-.509.815-.509.815-.091.523-.21.98-.62 1.82-.459.942-1.085.853-1.815 1.693a4.358 4.358 0 0 0-.47.691.24.24 0 0 0-.04.07c-.015.037-.033.063-.049.097a5.594 5.594 0 0 0-.082.165c-.453.475-1.157.426-1.457.426-.601 0-.916.367-.916.963v4.402c0 .668.26.894.916.894h.917c.461 0 .823.277 1.375.48.756.276 1.886.483 3.831.483L8.436 13c.323 0 .582-.155.77-.342a.629.629 0 0 0 .177-.377 2.06 2.06 0 0 0 .01-.18c.024-.577-.308-.786-.496-.851.005-.002.002-.007.012-.007l.597.028c.53.026 1.054-.376 1.054-1.058 0-.565-.437-.964-.965-.992l.317.016c.53.024.978-.414 1.002-.98.024-.567-.387-1.046-.917-1.071z" fill="#42AAFF"/></svg>