<svg width="16" height="16" fill="none" xmlns="http://www.w3.org/2000/svg"><path d="M13.657 2.343A7.948 7.948 0 0 0 8 0a7.948 7.948 0 0 0-5.657 2.343A7.948 7.948 0 0 0 0 8c0 2.137.832 4.146 2.343 5.657A7.948 7.948 0 0 0 8 16a7.948 7.948 0 0 0 5.657-2.343A7.948 7.948 0 0 0 16 8a7.948 7.948 0 0 0-2.343-5.657zM8 14.75A6.758 6.758 0 0 1 1.25 8 6.758 6.758 0 0 1 8 1.25 6.758 6.758 0 0 1 14.75 8 6.758 6.758 0 0 1 8 14.75zm.625-7.376h2.813v1.25H8.624v2.813h-1.25V8.624H4.562v-1.25h2.813V4.562h1.25v2.812z" fill="#99B1D9"/></svg>