<svg width="21" height="21" fill="none" xmlns="http://www.w3.org/2000/svg"><path d="M19.77 11.222V9.27a.615.615 0 0 0-.616-.615 18.56 18.56 0 0 0-3.575.326 5.555 5.555 0 0 0-2.31-1.337 4.3 4.3 0 0 0 1.538-3.295C14.807 1.95 12.875 0 10.5 0 8.125 0 6.193 1.95 6.193 4.349c0 1.32.598 2.504 1.538 3.295a5.556 5.556 0 0 0-2.31 1.337 18.563 18.563 0 0 0-3.575-.326.615.615 0 0 0-.616.615v1.952A1.849 1.849 0 0 0 0 12.962v1.23c0 .802.514 1.486 1.23 1.74v1.952c0 .34.276.615.616.615 3.217 0 5.858.762 8.313 2.399a.617.617 0 0 0 .682 0c2.455-1.637 5.097-2.4 8.313-2.4.34 0 .616-.275.616-.614v-1.952a1.849 1.849 0 0 0 1.23-1.74v-1.23a1.85 1.85 0 0 0-1.23-1.74zM7.424 4.349c0-1.72 1.38-3.118 3.076-3.118 1.696 0 3.076 1.399 3.076 3.118A3.08 3.08 0 0 1 10.5 7.425a3.08 3.08 0 0 1-3.076-3.076zM1.846 14.807a.616.616 0 0 1-.616-.615v-1.23a.616.616 0 0 1 1.23 0v1.23c0 .34-.275.615-.614.615zm8.039 4.475c-2.234-1.278-4.63-1.923-7.424-2.005v-1.345a1.849 1.849 0 0 0 1.23-1.74v-1.23c0-.802-.514-1.486-1.23-1.74V9.894c2.89.083 5.214.764 7.424 2.17v7.218zm.615-8.283a14.62 14.62 0 0 0-3.58-1.646 4.316 4.316 0 0 1 2.35-.698h2.46c.84 0 1.656.248 2.35.698A14.623 14.623 0 0 0 10.5 11zm8.039 6.278c-2.794.082-5.19.728-7.424 2.005v-7.217c2.21-1.407 4.533-2.088 7.424-2.17v1.327a1.849 1.849 0 0 0-1.23 1.74v1.23c0 .802.514 1.486 1.23 1.74v1.345zm1.23-3.085a.616.616 0 0 1-1.23 0v-1.23a.616.616 0 0 1 1.23 0v1.23z" fill="#99B1D9"/></svg>