<svg width="19" height="19" fill="none" xmlns="http://www.w3.org/2000/svg"><path d="M7.42 13.356h2.523v1.483H7.42v-1.483zm-2.783-.186a.927.927 0 1 0 0 1.855.927.927 0 0 0 0-1.855zm10.277-4.526H7.42v1.484h7.494V8.644zM4.637 8.459a.927.927 0 1 0 0 1.854.927.927 0 0 0 0-1.854zm10.277-4.267H7.42v1.484h7.494V4.192zM4.637 4.007a.927.927 0 1 0 0 1.855.927.927 0 0 0 0-1.855zM1.484 16.769V2.226c0-.41.333-.742.742-.742h14.543c.409 0 .742.333.742.742v8.384h1.484V2.226A2.228 2.228 0 0 0 16.769 0H2.226A2.229 2.229 0 0 0 0 2.226v14.543a2.23 2.23 0 0 0 2.226 2.226h8.57V17.51h-8.57a.743.743 0 0 1-.742-.742zM17.95 19l-1.478-1.478c-.5.3-1.084.471-1.707.471a3.343 3.343 0 0 1-3.34-3.339 3.343 3.343 0 0 1 3.34-3.339 3.343 3.343 0 0 1 3.338 3.34 3.32 3.32 0 0 1-.556 1.843L19 17.951 17.95 19zm-3.186-2.491a1.857 1.857 0 0 0 1.855-1.855 1.857 1.857 0 0 0-1.855-1.855 1.857 1.857 0 0 0-1.855 1.855c0 1.023.833 1.855 1.855 1.855z" fill="#99B1D9"/></svg>