<svg width="22" height="16" fill="none" xmlns="http://www.w3.org/2000/svg"><path d="M22 .309H0v7.734h1.539a1.936 1.936 0 0 0 .172 2.537c.35.35.802.537 1.26.562a1.926 1.926 0 0 0 1.823 1.823 1.934 1.934 0 0 0 2.89 1.573 1.935 1.935 0 0 0 3.142.6l.174-.175.008.008a1.922 1.922 0 0 0 2.712 0l.018-.02c.16-.158.288-.34.38-.537a1.936 1.936 0 0 0 3.08-1.449 1.926 1.926 0 0 0 1.822-1.822 1.932 1.932 0 0 0 1.433-3.1H22V.309zM2.622 9.669a.645.645 0 0 1 0-.912l.714-.714h.739l.544.54-1.085 1.085a.644.644 0 0 1-.912 0zm1.823 1.822a.645.645 0 0 1 0-.911l1.086-1.086.912.912-1.086 1.085a.646.646 0 0 1-.912 0zm2.735 1.823a.644.644 0 1 1-.911-.911l1.085-1.086.912.912-1.086 1.085zm2.735.912a.645.645 0 0 1-.914-.91l.176-.176.912.912-.174.174zm9.454-4.558a.644.644 0 0 1-.911 0l-3.536-3.535-.911.911 3.535 3.536a.645.645 0 0 1-.911.911l-3.536-3.535-.911.911 3.535 3.536a.644.644 0 1 1-.911.912l-3.536-3.536-.911.912 2.461 2.461a.625.625 0 0 1 .003.886l-.02.02a.631.631 0 0 1-.89.001c-3.372-3.369-3.97-3.977-7.313-7.305H1.289V1.598h5.602l-2.901 2.9 1.367 1.368a1.933 1.933 0 0 0 2.735 0l1.57-1.57a5.53 5.53 0 0 0 5.69.444l4.017 4.017a.644.644 0 0 1 0 .911zm1.342-2.914h-1.522L15.556 3.12l-.435.272a4.257 4.257 0 0 1-5.076-.441l-.455-.408-2.41 2.41a.644.644 0 0 1-.911 0L5.813 4.5l2.9-2.901h11.998v5.156z" fill="#364DBF"/></svg>