<svg width="23" height="19" fill="none" xmlns="http://www.w3.org/2000/svg"><path d="M21.428 6.625h-3.819V2.268c0-.867-.705-1.573-1.572-1.573H1.572C.705.695 0 1.401 0 2.268v12.667a3.373 3.373 0 0 0 3.37 3.37h16.26a3.373 3.373 0 0 0 3.37-3.37V8.197c0-.867-.705-1.572-1.572-1.572zM19.63 16.957a2.024 2.024 0 0 1-2.022-2.022V7.973h3.819c.124 0 .224.1.224.224v6.739a2.024 2.024 0 0 1-2.021 2.021zM1.348 14.935V2.268c0-.124.1-.225.224-.225h14.465c.124 0 .225.1.225.225v12.667c0 .758.251 1.458.675 2.022H3.37a2.024 2.024 0 0 1-2.021-2.022z" fill="#99B1D9"/><path d="M14.285 4.783H3.863a.674.674 0 0 0 0 1.348h10.422a.674.674 0 0 0 0-1.348zm0 2.696H4a.674.674 0 0 0 0 1.347h10.285a.674.674 0 0 0 0-1.347zm.041 2.695H3.795a.674.674 0 0 0 0 1.348h10.531a.674.674 0 0 0 0-1.348zm-.041 2.696H3.863a.674.674 0 0 0 0 1.347h10.422a.674.674 0 0 0 0-1.348z" fill="#99B1D9"/></svg>