<svg width="25" height="24" fill="none" xmlns="http://www.w3.org/2000/svg"><path d="M21.979 1H3.02C1.907 1 1 1.925 1 3.063v13.75c0 1.137.907 2.062 2.021 2.062h2.067v3.438c0 .278.164.528.416.635a.662.662 0 0 0 .734-.15l3.846-3.923h11.895c1.114 0 2.021-.925 2.021-2.063V3.063C24 1.925 23.093 1 21.979 1zm.673 15.813a.681.681 0 0 1-.674.687H9.806a.667.667 0 0 0-.477.201l-2.892 2.952v-2.465a.68.68 0 0 0-.674-.688h-2.74a.682.682 0 0 1-.674-.688V3.063a.68.68 0 0 1 .673-.687h18.957c.372 0 .674.308.674.688v13.75z" fill="#99B1D9" stroke="#99B1D9" stroke-width=".3"/><path d="M17.284 9.44a2.412 2.412 0 0 0-1.675-.8 2.628 2.628 0 0 1-.005-.182c0-.329.233-1.333.38-1.89l.15-.568H14.31l-.122.211C14.139 6.295 13 8.298 13 11.318 13 12.797 14.121 14 15.5 14c1.378 0 2.5-1.203 2.5-2.682a2.77 2.77 0 0 0-.716-1.878zM15.5 13.106c-.919 0-1.667-.802-1.667-1.788 0-2.219.684-3.862.955-4.424h.252c-.12.505-.27 1.207-.27 1.564 0 .283.02.51.116.7.085.17.263.37.629.373h.018c.9.019 1.634.82 1.634 1.787 0 .986-.748 1.788-1.667 1.788zM11.14 9.44a3.154 3.154 0 0 0-2.009-.8 2.193 2.193 0 0 1-.006-.182c0-.329.28-1.333.456-1.89L9.761 6h-2.19l-.146.211C7.367 6.295 6 8.298 6 11.318 6 12.797 7.346 14 9 14s3-1.203 3-2.682c0-.707-.305-1.374-.86-1.878zM9 13.106c-1.103 0-2-.802-2-1.788 0-2.219.82-3.862 1.145-4.424h.304c-.144.505-.324 1.207-.324 1.564 0 .283.024.51.138.7.103.17.316.37.755.373h.022c1.08.019 1.96.82 1.96 1.787 0 .986-.897 1.788-2 1.788z" fill="#99B1D9" stroke="#99B1D9" stroke-width=".5"/></svg>