<svg width="21" height="21" fill="none" xmlns="http://www.w3.org/2000/svg"><path d="M21 1.313h-9.885V0h-1.23v1.313H0v1.23h1.271v12.305h5.681L4 19.769H2.502V21h2.194l1.477-2.46h3.712V21h1.23v-2.46h3.712L16.304 21h2.194v-1.23h-1.497l-2.953-4.922h5.68V2.543H21v-1.23zM6.91 17.309l1.477-2.461h1.498v2.46H6.91zm7.18 0h-2.975v-2.461h1.498l1.476 2.46zm4.408-3.692H2.502V2.543h15.996v11.074z" fill="#99B1D9"/><path d="M4.783 12.207L8.039 8.95l2.461 2.461 4.307-4.307v1.591h1.23V5.004h-3.691v1.23h1.59L10.5 9.671 8.039 7.21l-4.126 4.126.87.87z" fill="#99B1D9"/></svg>