<svg width="20" height="20" fill="none" xmlns="http://www.w3.org/2000/svg"><path d="M19.167 10.833h.166c.417-.083.667-.416.667-.833 0-5.5-4.5-10-10-10-3.417 0-6.5 1.667-8.417 4.583C.583 6.25 0 8.083 0 10c0 1.417.25 2.75.833 4.083.167.334.417.5.75.5.084 0 .25 0 .334-.083.416-.167.583-.667.416-1.083C1.25 10.833 1.5 7.833 3 5.5a8.303 8.303 0 0 1 6.167-3.75v7.917l-6.25 6.25c-.334.25-.334.75-.084 1.083 0 0 0 .083.084.083v.084A10.166 10.166 0 0 0 10 20c4.167 0 7.833-2.5 9.333-6.333.167-.417-.083-.917-.5-1.084-.416-.166-.916.084-1.083.5-1.25 3.167-4.25 5.25-7.75 5.25a8.152 8.152 0 0 1-5.25-1.916l5.583-5.584h8.834zM10.833 1.75c1.084.083 2.084.417 3 .917l-3 3V1.75zm3.5 7.417l3-3c.5.916.834 1.916.917 3h-3.917zm2.084-4.417L12 9.167h-1.167V8l4.417-4.417c.417.334.833.75 1.167 1.167z" fill="#99B1D9"/></svg>