<svg width="18" height="15" fill="none" xmlns="http://www.w3.org/2000/svg"><path d="M17.812 4.688l-4.5-4.5a.643.643 0 0 0-1.098.455V2.57h-4.5a.643.643 0 1 0 0 1.286h5.143a.643.643 0 0 0 .643-.643v-1.02l2.948 2.949L13.5 8.09V7.07a.643.643 0 0 0-.643-.642H5.786v-1.93a.643.643 0 0 0-1.098-.454l-4.5 4.5a.643.643 0 0 0 0 .91l4.5 4.5a.643.643 0 0 0 1.098-.455v-1.928h4.5a.643.643 0 0 0 0-1.286H5.143a.643.643 0 0 0-.643.643v1.02L1.552 9 4.5 6.052v1.02c0 .354.288.642.643.642h7.071v1.929a.643.643 0 0 0 1.098.454l4.5-4.5a.643.643 0 0 0 0-.909z" fill="#99B1D9"/></svg>