<svg width="15" height="15" fill="none" xmlns="http://www.w3.org/2000/svg"><path d="M14.84 6.096L7.73.89a.39.39 0 0 0-.46 0L.16 6.096a.39.39 0 1 0 .46.629L7.5 1.687l6.88 5.038a.388.388 0 0 0 .545-.085.39.39 0 0 0-.085-.544z" fill="#7186A8"/><path d="M12.956 6.813a.39.39 0 0 0-.39.39v6.203H9.45V10.02A1.951 1.951 0 0 0 7.5 8.07a1.951 1.951 0 0 0-1.949 1.95v3.386H2.433V7.203a.39.39 0 0 0-.78 0v6.593c0 .215.175.39.39.39h3.898a.39.39 0 0 0 .39-.39V10.02a1.17 1.17 0 0 1 2.339 0v3.806a.39.39 0 0 0 .39.36h3.896a.39.39 0 0 0 .39-.39V7.203a.39.39 0 0 0-.39-.39z" fill="#7186A8"/></svg>