<svg width="16" height="16" fill="none" xmlns="http://www.w3.org/2000/svg"><path d="M15.333 8.667h.134C15.8 8.6 16 8.333 16 8c0-4.4-3.6-8-8-8-2.733 0-5.2 1.333-6.733 3.667C.467 5 0 6.467 0 8c0 1.133.2 2.2.667 3.267.133.266.333.4.6.4.066 0 .2 0 .266-.067.334-.133.467-.533.334-.867C1 8.667 1.2 6.267 2.4 4.4a6.642 6.642 0 0 1 4.933-3v6.333l-5 5c-.266.2-.266.6-.066.867 0 0 0 .067.066.067v.066A8.133 8.133 0 0 0 8 16c3.333 0 6.267-2 7.467-5.067.133-.333-.067-.733-.4-.866-.334-.134-.734.066-.867.4-1 2.533-3.4 4.2-6.2 4.2-1.533 0-3-.534-4.2-1.534l4.467-4.466h7.066zM8.667 1.4a5.935 5.935 0 0 1 2.4.733l-2.4 2.4V1.4zm2.8 5.933l2.4-2.4c.4.734.666 1.534.733 2.4h-3.133zM13.133 3.8L9.6 7.333h-.933V6.4L12.2 2.867c.333.266.667.6.933.933z" fill="#C1C1C1"/></svg>