<svg width="12" height="12" fill="none" xmlns="http://www.w3.org/2000/svg"><path d="M8.924 4.94s.485-.369.116-.738c-.37-.369-.729.108-.729.108L4.598 8.024s-.87 1.122-1.531.444c-.661-.68.443-1.532.443-1.532l4.87-4.869s1.135-1.251 2.204-.184c1.066 1.068-.189 2.207-.189 2.207L4.924 9.56s-1.75 2.023-3.371.402c-1.62-1.62.421-3.351.421-3.351l4.154-4.155s.465-.389.117-.738c-.35-.35-.738.116-.738.116L.741 6.601s-1.8 1.973.21 3.982c2.01 2.01 3.984.21 3.984.21l6.55-6.551s1.311-1.446-.251-3.01C9.67-.33 8.224.98 8.224.98L2.589 6.616S1.144 7.791 2.454 9.1c1.31 1.31 2.463-.155 2.463-.155L8.924 4.94z" fill="#697FA3"/></svg>