<svg width="15" height="14" fill="none" xmlns="http://www.w3.org/2000/svg"><path d="M14.563 1.765h-3.987v-.441C10.576.594 9.985 0 9.258 0H5.742c-.727 0-1.318.594-1.318 1.324v.44H.439A.441.441 0 0 0 0 2.207v9.706c0 .73.591 1.323 1.318 1.323h12.364c.727 0 1.318-.593 1.318-1.323v-9.7c-.017-.29-.194-.447-.437-.448zm-9.26-.441a.44.44 0 0 1 .44-.442h3.515a.44.44 0 0 1 .44.442v.44H5.302v-.44zm8.648 1.323l-1.365 4.11a.439.439 0 0 1-.417.302H9.697v-.441a.44.44 0 0 0-.44-.442H5.743a.44.44 0 0 0-.44.442v.44H2.832a.439.439 0 0 1-.417-.3L1.05 2.648h12.902zM8.818 7.06v.882H6.182V7.06h2.636zm5.303 4.853a.44.44 0 0 1-.44.44H1.319a.44.44 0 0 1-.44-.44V4.925l.702 2.111c.18.542.682.905 1.25.905h2.473v.441a.44.44 0 0 0 .44.442h3.515a.44.44 0 0 0 .44-.442v-.44h2.471c.569 0 1.071-.364 1.25-.906l.702-2.111v6.987z" fill="#99B1D9"/></svg>