<svg width="17" height="15" fill="none" xmlns="http://www.w3.org/2000/svg"><path d="M15.19.507H1.81a.813.813 0 0 0-.81.81v11.15c0 .445.365.81.81.81h.609v.405c0 .446.365.811.81.811h1.217c.446 0 .81-.365.81-.81v-.406h6.487v.405c0 .446.365.811.811.811h1.216a.813.813 0 0 0 .811-.81v-.406h.608a.813.813 0 0 0 .811-.81V1.316a.813.813 0 0 0-.81-.81zM4.445 13.885H3.23a.205.205 0 0 1-.203-.203v-.405h1.622v.405c0 .11-.093.203-.203.203zm9.527-.203h0c0 .11-.093.203-.203.203h-1.216a.205.205 0 0 1-.203-.203v-.405h1.622v.405zm1.216-1.013H1.811a.205.205 0 0 1-.203-.203V1.318c0-.11.093-.203.203-.203h13.378c.11 0 .203.093.203.203v11.148c0 .11-.093.203-.203.203z" fill="#99B1D9" stroke="#99B1D9" stroke-width=".4"/><path d="M14.582 8.919h-.407V5.068h.407a.304.304 0 0 0 0-.609h-.407V2.736a.407.407 0 0 0-.405-.405H3.23a.407.407 0 0 0-.406.405v8.311c0 .223.183.406.406.406h10.54a.407.407 0 0 0 .405-.406v-1.52h.407a.304.304 0 1 0 0-.608zm-1.014 1.926h0H3.431V2.939h10.136v7.906z" fill="#99B1D9" stroke="#99B1D9" stroke-width=".4"/><path d="M5.864 4.763a1.42 1.42 0 0 0-.304 2.805v.844a.304.304 0 1 0 .608 0v-.844a1.419 1.419 0 0 0-.304-2.805zm0 2.23a.812.812 0 1 1 .002-1.623.812.812 0 0 1-.002 1.623z" fill="#99B1D9" stroke="#99B1D9" stroke-width=".4"/></svg>