<svg width="18" height="17" fill="none" xmlns="http://www.w3.org/2000/svg"><path d="M16.978 6.669a.444.444 0 0 0-.358-.297l-4.992-.697-2.246-4.433a.446.446 0 0 0-.794.003L6.37 5.692l-4.992.728a.444.444 0 0 0-.358.297.425.425 0 0 0 .115.445l3.623 3.447-.838 4.882c-.03.164.04.328.178.425a.444.444 0 0 0 .466.032L9.02 13.63l4.47 2.293a.442.442 0 0 0 .647-.387.333.333 0 0 0-.014-.1l-.863-4.853 3.599-3.466a.421.421 0 0 0 .118-.448zm-4.499 3.453a.425.425 0 0 0-.125.387l.752 4.233-3.881-1.989a.456.456 0 0 0-.414 0l-3.869 2.012.726-4.24a.43.43 0 0 0-.128-.384L2.4 7.15l4.332-.632a.44.44 0 0 0 .332-.239l1.924-3.86 1.95 3.85a.45.45 0 0 0 .336.24l4.335.606-3.13 3.008z" fill="#99B1D9" stroke="#99B1D9" stroke-width=".6"/></svg>