<svg width="15" height="15" fill="none" xmlns="http://www.w3.org/2000/svg"><path d="M12.802 2.198a7.494 7.494 0 0 0-10.604 0 7.494 7.494 0 0 0 0 10.604 7.494 7.494 0 0 0 10.604 0 7.494 7.494 0 0 0 0-10.604zM7.5 13.767A6.274 6.274 0 0 1 1.233 7.5 6.274 6.274 0 0 1 7.5 1.233 6.274 6.274 0 0 1 13.767 7.5 6.274 6.274 0 0 1 7.5 13.767z" fill="#99B1D9"/><path d="M8.384 3.913h-2.06c-.32 0-.58.264-.58.59V6.91h-.598c-.32 0-.58.264-.58.59 0 .326.26.59.58.59h.598v.618h-.598c-.32 0-.58.264-.58.59 0 .326.26.59.58.59h.598v.609c0 .326.26.59.58.59.32 0 .58-.264.58-.59v-.609H8.09c.32 0 .58-.264.58-.59 0-.326-.26-.59-.58-.59H6.903V8.09h1.481c1.132 0 2.052-.937 2.052-2.088 0-1.152-.92-2.089-2.052-2.089zm0 2.997h-1.48V5.093h1.48c.492 0 .893.408.893.908 0 .501-.4.909-.893.909z" fill="#99B1D9"/></svg>