<svg width="13" height="11" fill="none" xmlns="http://www.w3.org/2000/svg"><path d="M11.607.857H1.393C.623.857 0 1.481 0 2.25v6.5c0 .77.624 1.393 1.393 1.393h10.214c.77 0 1.393-.623 1.393-1.393v-6.5c0-.769-.624-1.393-1.393-1.393zm.464 7.893a.464.464 0 0 1-.464.465H1.393a.464.464 0 0 1-.464-.465v-.272l1.857-1.857L4.315 8.15a.464.464 0 0 0 .656 0l3.85-3.85 3.25 3.25v1.2zm0-2.513L9.15 3.315a.464.464 0 0 0-.657 0l-3.85 3.85-1.529-1.529a.464.464 0 0 0-.657 0L.93 7.166V2.25c0-.256.207-.464.464-.464h10.214c.257 0 .464.208.464.464v3.987z" fill="#697FA3"/><path d="M4.182 2.714a1.393 1.393 0 1 0 0 2.786 1.393 1.393 0 0 0 0-2.786zm0 1.857a.464.464 0 1 1 0-.929.464.464 0 0 1 0 .929z" fill="#697FA3"/></svg>