<svg width="20" height="14" fill="none" xmlns="http://www.w3.org/2000/svg"><path d="M15.866 2.685H4.134a.387.387 0 0 0-.387.387v5.851a.387.387 0 0 0 .775 0V3.46h10.956v5.463a.387.387 0 0 0 .775 0v-5.85a.387.387 0 0 0-.387-.388z" fill="#99B1D9" stroke="#99B1D9" stroke-width=".3"/><path d="M18.651 10.306h-.713V2.171c0-.646-.525-1.171-1.171-1.171H3.233c-.646 0-1.17.525-1.17 1.171v8.135h-.714a.349.349 0 0 0-.349.349v.684c0 .949.772 1.72 1.72 1.72h14.56c.948 0 1.72-.771 1.72-1.72v-.684a.349.349 0 0 0-.349-.349zM2.837 2.171c0-.218.178-.396.396-.396h13.534c.218 0 .396.177.396.396v8.135h-5.245a.349.349 0 0 0-.358.348c0 .295-.24.534-.534.534H8.974a.534.534 0 0 1-.533-.533.35.35 0 0 0-.357-.349H2.837V2.171zm15.466 9.168c0 .564-.46 1.023-1.023 1.023H2.72a1.024 1.024 0 0 1-1.023-1.023v-.335h6.096c.151.51.623.882 1.181.882h2.052c.558 0 1.03-.373 1.18-.882h6.097v.335h0z" fill="#99B1D9" stroke="#99B1D9" stroke-width=".3"/><path d="M10.574 4.936a.387.387 0 0 0-.548 0L7.59 7.373a.387.387 0 0 0 .548.548l2.436-2.437a.387.387 0 0 0 0-.548zm1.444 1.412a.387.387 0 0 0-.548 0l-.97.97a.387.387 0 0 0 .547.549l.971-.97a.387.387 0 0 0 0-.549z" fill="#99B1D9" stroke="#99B1D9" stroke-width=".3"/></svg>