<svg width="14" height="15" fill="none" xmlns="http://www.w3.org/2000/svg"><path d="M1.91 8.75C.826 8.75 0 9.563 0 10.625v2.5C0 14.188.827 15 1.91 15c1.08 0 1.908-.813 1.908-1.875v-2.5c0-1.063-.827-1.875-1.909-1.875zm.635 4.375c0 .375-.254.625-.636.625s-.636-.25-.636-.625v-2.5c0-.375.254-.625.636-.625s.636.25.636.625v2.5zM7 5c-1.082 0-1.91.813-1.91 1.875v6.25C5.09 14.188 5.919 15 7 15c1.082 0 1.91-.813 1.91-1.875v-6.25C8.91 5.812 8.081 5 7 5zm.636 8.125c0 .375-.254.625-.636.625s-.636-.25-.636-.625v-6.25c0-.375.254-.625.636-.625s.636.25.636.625v6.25zM12.091 0c-1.082 0-1.91.813-1.91 1.875v11.25c0 1.063.828 1.875 1.91 1.875C13.173 15 14 14.187 14 13.125V1.875C14 .812 13.173 0 12.09 0zm.636 13.125c0 .375-.254.625-.636.625s-.636-.25-.636-.625V1.875c0-.375.254-.625.636-.625s.636.25.636.625v11.25z" fill="#99B1D9"/></svg>