<svg width="18" height="17" fill="none" xmlns="http://www.w3.org/2000/svg"><g clip-path="url(#clip0)" fill="#A8B8D2"><path d="M17.224 7.7a10.523 10.523 0 0 0-3.574-2.926 10.31 10.31 0 0 0-4.78-1.091 10.33 10.33 0 0 0-4.52 1.09A10.522 10.522 0 0 0 .777 7.7a1.3 1.3 0 0 0 0 1.6 10.523 10.523 0 0 0 3.574 2.926 10.311 10.311 0 0 0 4.781 1.091 10.311 10.311 0 0 0 4.52-1.09A10.524 10.524 0 0 0 17.223 9.3a1.3 1.3 0 0 0 0-1.6zM4.658 11.608a9.827 9.827 0 0 1-3.337-2.733.609.609 0 0 1 0-.75 9.754 9.754 0 0 1 4.461-3.209 4.808 4.808 0 0 0 0 7.168 9.772 9.772 0 0 1-1.124-.476zM9 12.628A4.132 4.132 0 0 1 4.873 8.5 4.132 4.132 0 0 1 9 4.373 4.132 4.132 0 0 1 13.127 8.5 4.132 4.132 0 0 1 9 12.627zm7.68-3.753a9.826 9.826 0 0 1-3.338 2.733 9.8 9.8 0 0 1-1.123.474 4.808 4.808 0 0 0-.001-7.166 9.75 9.75 0 0 1 4.461 3.209.61.61 0 0 1 0 .75z"/><path d="M9 6.734c-.974 0-1.766.792-1.766 1.766S8.026 10.266 9 10.266s1.766-.792 1.766-1.766S9.974 6.734 9 6.734zm0 2.84a1.076 1.076 0 0 1 0-2.149 1.076 1.076 0 0 1 0 2.15z"/></g><defs><clipPath id="clip0"/></defs></svg>