<svg width="148" height="22" fill="none" xmlns="http://www.w3.org/2000/svg"><path d="M74.517 7.527c.09-1.719.706-3.124 1.669-4.22v-1.46h-1.28c-2.587 0-4.777.992-6.05 3.232h-.075V2.094h-6.635v18.205h6.637v-7.35c0-3.119.912-5.497 4.595-5.497.401.003.776.026 1.14.075zm50.249-.067a10.825 10.825 0 012.608-4.192V1.846h-1.278c-2.588 0-4.776.991-6.055 3.23h-.072V2.094h-6.64v18.205h6.64v-7.35c0-3.119.915-5.497 4.598-5.497l.199.008zm-36.77-.682c-1.024-.533-2.45-.888-3.583-.888-.761 0-2.077.317-2.077 1.243 0 1.243 2.077 1.419 2.995 1.6 3.094.602 5.434 2.023 5.434 5.39 0 4.79-4.487 6.783-8.83 6.783a14.81 14.81 0 01-7.55-2.095l2.407-4.51c1.347.926 3.61 1.845 5.25 1.845.84 0 2.08-.389 2.08-1.382 0-1.42-2.08-1.495-4.161-2.026-2.076-.532-4.153-1.523-4.153-4.789 0-4.472 4.153-6.456 8.246-6.456 2.116 0 4.233.318 6.162 1.17l-2.22 4.115zm59.281 13.521h-6.637v-2.025h-.073c-1.167 1.81-3.47 2.625-5.654 2.625-5.548 0-9.448-4.508-9.448-9.725 0-5.212 3.831-9.686 9.373-9.686 2.151 0 4.416.78 5.801 2.376v-1.77h6.636l.003 18.205h-.001zm-14.954-9.086c0 2.306 1.571 4.08 4.267 4.08 2.698 0 4.262-1.771 4.262-4.08 0-2.236-1.564-4.116-4.262-4.116-2.696.002-4.267 1.88-4.267 4.116zm-20.041 1.068H98.308c0 2.623 1.427 4.041 4.161 4.041 1.422 0 2.442-.459 3.174-1.667h6.385c-1.058 4.295-5.254 6.247-9.521 6.247-6.197 0-10.829-3.41-10.829-9.687 0-6.068 4.263-9.722 10.354-9.722 6.492 0 10.253 3.905 10.253 10.112l-.003.676zm-6.165-3.73c-.33-1.738-1.971-2.873-3.756-2.873-1.936 0-3.534.99-3.942 2.874h7.698zm-65.082 2.345c-.007-.155-.017-.31-.03-.466v-.005a10.008 10.008 0 00-1.653-4.697 10.271 10.271 0 00-4.182-3.62c-1.55-.74-3.264-1.114-5.092-1.114a12.29 12.29 0 00-4.247.74c-1.178.426-2.203.988-3.042 1.663-.17.135-.356.302-.555.485l-.144.14-.196.21h.003l-.092.09-.045.049-.234.246c-.17.19-.334.384-.493.581l-.002-.002-.005-.006a10.1 10.1 0 00-.836 1.157c-.149.234-.292.472-.43.712l-1.914 3.87.002.003-.1.196-.211.428c-.42.85-.87 1.696-1.372 2.395-1.12 1.228-2.387 1.83-4.015 1.83-.114 0-.23-.006-.35-.013-.98-.039-1.821-.27-2.567-.712A4.82 4.82 0 019 14.91a4.288 4.288 0 01-1.426-1.574 4.437 4.437 0 01-.545-2.284l.003-.058c.053-1.268.536-2.254 1.51-3.106a5.233 5.233 0 01.854-.593c.723-.394 1.546-.59 2.49-.59l.294.008c1.5.057 2.656.525 3.579 1.44l2.893-5.195a11.41 11.41 0 00-2.335-1.185c-.033-.012-.067-.026-.1-.037-.104-.036-.205-.074-.31-.108a12.384 12.384 0 00-2.865-.58l-.076-.01c-.152-.009-.306-.028-.458-.034-.165-.007-.33-.01-.495-.011h-.093c-1.82.006-3.51.379-5.055 1.117-1.731.834-3.134 2.05-4.174 3.615a10.024 10.024 0 00-1.685 5.17c-.007.157-.01.315-.01.473-.002 2.608.949 4.903 2.84 6.829 1.973 2.02 4.54 3.11 7.62 3.239.198.008.394.013.589.013 1.743 0 3.356-.31 4.803-.93.361-.155.712-.336 1.07-.538.196-.113.38-.232.563-.359l.136-.09.227-.157c.272-.196.532-.408.779-.635l.087-.082c.147-.139.29-.28.43-.426l.519-.586.198-.248.092-.136.092-.132c.77-1.295 3.28-6.007 3.28-6.007v-.01l.148-.287.125-.225c.37-.673.637-1.151.99-1.654l.01-.014c.824-1.196 2.242-2.049 3.914-2.192 2.803-.24 5.26 1.6 5.487 4.115.224 2.514-1.867 4.747-4.67 4.99a5.6 5.6 0 01-1.687-.107l-.013.005c-2.058-.428-3.368-1.929-4.014-2.6l-2.698 4.962s.839.845 1.413 1.268c.576.421 1.32.836 1.912 1.093 1.44.615 3.006.983 4.735.983.201 0 .16 0 .37-.008 3.078-.128 5.822-1.308 7.8-3.329 1.875-1.92 2.893-4.11 2.902-6.705v-.077c-.002-.145-.005-.29-.01-.434zm10.321 10.018c-1.399 0-2.668-.163-3.807-.488-1.14-.325-2.112-.838-2.918-1.542-.808-.705-1.431-1.601-1.87-2.689-.44-1.087-.659-2.399-.659-3.926V2.089h6.403v10.098c0 1.145.273 1.974.82 2.491.547.519 1.241.778 2.084.778.861 0 1.56-.242 2.1-.725.536-.484.807-1.285.807-2.412V2.089h6.402v10.045c0 1.583-.225 2.928-.673 4.034-.448 1.108-1.08 2.013-1.895 2.717-.818.705-1.803 1.216-2.96 1.543-1.159.323-2.436.486-3.834.486z" fill="#CABCBC"/></svg>