<svg width="124" height="162" fill="none" xmlns="http://www.w3.org/2000/svg"><path d="M65.236 0H58.76v8.903h6.475V0zM49.072 1.27l-6.255 1.675 2.305 8.6 6.254-1.676-2.304-8.6zM33.793 6.78l-5.607 3.237 4.451 7.71 5.608-3.237-4.452-7.71zm-13.325 9.06l-4.58 4.578 6.295 6.297 4.58-4.578-6.295-6.297zM9.933 28.267l-3.239 5.608 7.71 4.452 3.239-5.607-7.71-4.453zM3.018 42.833l-1.676 6.254 8.6 2.304 1.675-6.254-8.6-2.304zm5.885 15.929H0v6.475h8.903v-6.475zm.935 13.859l-8.6 2.303 1.675 6.255 8.6-2.303-1.675-6.255zm4.599 13.145l-7.71 4.452 3.237 5.607 7.71-4.451-3.237-5.608zm95.263.129l-3.238 5.608 7.71 4.452 3.238-5.607-7.71-4.453zm4.53-13.223l-1.676 6.255 8.599 2.305 1.677-6.255-8.6-2.305zm9.77-13.91h-8.903v6.475H124v-6.475zm-2.946-15.917l-8.6 2.305 1.676 6.254 8.6-2.304-1.676-6.255zm-6.922-14.685l-7.71 4.452 3.237 5.608 7.711-4.452-3.238-5.608zm-10.525-12.198l-6.296 6.296 4.579 4.578 6.296-6.295-4.579-4.579zM90.249 6.644l-4.45 7.712 5.61 3.236 4.449-7.713-5.61-3.235zM75.024 1.291l-2.304 8.6 6.254 1.675 2.304-8.6-6.254-1.675zm26.937 95.793l-4.58 4.578 6.295 6.296 4.58-4.578-6.295-6.296zm-79.824-.014l-6.295 6.296 4.578 4.578 6.296-6.295-4.579-4.579z" fill="#151515"/><path d="M41.603 57.952V55.2l21.854-30.756L82.56 55.2v2.752" fill="#F8F1F1"/><path d="M85.795 57.952H79.32v-1.78l-16.026-25.9-18.455 26.062v1.618h-6.475V54.23l25.253-35.613L85.795 54.23v3.723z" fill="#151515"/><path d="M82.72 58.114H41.28v80.292h41.44V58.114z" fill="#F8F1F1"/><path d="M79.644 61.352v73.817H44.678V61.352h34.966zm6.475-6.475H38.203v86.767H86.12V54.877z" fill="#151515"/><path d="M58.277 60.219h-6.475v79.158h6.475V60.219zm13.435 0h-6.476v79.158h6.475V60.219zm-1.618-29.948h-12.14v6.475h12.14v-6.475z" fill="#151515"/><path d="M38.041 148.281v9.55a3.247 3.247 0 003.238 3.238H82.88a3.247 3.247 0 003.238-3.238v-9.55H38.04z" fill="#D03D29"/></svg>