<svg width="237" height="33" fill="none" xmlns="http://www.w3.org/2000/svg"><path d="M61.9 16.8l8.5 8.5h-3.8l-7-6.6-3.7 3.1v3.5H53V3h2.8v15.3l10.4-8.6h4.1l-8.4 7.1zm30.8 7.8v.7h-3.1l-1.3-2.1c-2 1.9-2.6 2.1-6.2 2.1-3.7 0-4.2-.1-6.4-2.3-2.4-2.3-2.5-2.6-2.5-6.1V9.7H76v7.2c0 2.4.1 2.7 1.8 4.4 1.2 1.2 1.6 1.3 4.3 1.3 2.7 0 3.1-.1 4.4-1.3 1.3-1.2 1.6-1.6 1.8-2.9V9.7H91v12.7l1.7 2.2zm2.8-14.9h2.8v1.6c2-2 2-2 5.9-2h2v2.8h-2c-2.7 0-2.7 0-4.1 1.3-1.7 1.6-1.7 1.6-1.8 3v8.9h-2.8V9.7zm30.7 5.1h-2.8v-.6c0-.4-.1-.5-1.8-1.4-1.1-.6-1.3-.7-2.5-.7h-3.3c-1.2 0-1.4.1-3 1.1-1.1.7-1.2.7-1.2 1.3v.4c0 .7.5.8 5.6 1.2 8 .6 8.8.9 8.8 3.2v2.2c0 .8-.3 1-2.9 2.7-2.3 1.5-2.6 1.6-3.9 1.6h-4.1c-1 0-1.3-.1-3.7-1.5-2.5-1.5-2.8-1.8-2.8-3.7v-.4h2.8v.4c0 .5.1.6 1.6 1.5 1.4.8 1.6.9 2.5.9h3.5c.9 0 1.1-.1 2.7-1.1 1.2-.8 1.4-.9 1.4-1.3V20c0-.7-.5-.8-6-1.2-7.7-.5-8.4-.8-8.4-3.2V14c0-1.3.2-1.6 2.6-3 2.4-1.5 2.8-1.6 3.8-1.6h4.2c1.1 0 1.4.1 3 1.1 3.3 1.9 3.6 2.2 3.6 3.4v.9h.3zm14.4.6h-4.7v10h-2.8v-10H129v-2.8h4.1V9.7c0-2.5 0-2.5 1.9-4.4 2.4-2.3 2.4-2.3 5.4-2.3h.1v2.8h-.1c-2 0-2 0-3.3 1.2-1.3 1.3-1.3 1.3-1.3 2.7v2.9h4.7v2.8h.1zm11.7-2.9v10.1h6.1v2.8h-15.1v-2.8h6.1V12.5h-6.1V9.6h15.1v2.8h-6.1v.1zm27.7 5.2v7.6h-2.8v-7.6c0-2.4-.1-2.7-1.8-4.4-1.2-1.2-1.6-1.3-4.1-1.3-2.4 0-2.8.1-4.1 1.3-1.3 1.2-1.6 1.6-1.8 2.9v9.1h-2.8V12.6l-1.6-2.2v-.7h3.1l1.1 1.8c2.1-2.1 2.6-2.2 6.1-2.2 3.5 0 4 .1 6.2 2.3 2.3 2.3 2.5 2.6 2.5 6.1zm22.4 7v.6h-3.2l-1.2-1.9c-2.3 2.2-2.8 2.3-5.8 2.3-3.7 0-4.2-.1-6.4-2.4-2.3-2.3-2.5-2.7-2.5-5.7 0-3.5.1-3.8 2.5-6.1 2.2-2.2 2.7-2.3 6.4-2.3 3.1 0 3.7.1 5.6 2V5.8h2.8v16.7l1.8 2.2zm-6.3-3.1c1.6-1.6 1.7-1.8 1.7-3.8 0-2.5-.1-2.8-1.8-4.3-1.3-1.2-1.7-1.3-3.9-1.3-2.7 0-3.1.1-4.3 1.3-1.7 1.7-1.8 1.9-1.8 4.4 0 2 .1 2.2 1.8 3.9 1.3 1.3 1.7 1.4 4.3 1.4 2.3-.2 2.7-.3 4-1.6zm13.7 0c1.3 1.3 1.7 1.4 4.1 1.4 2.4 0 2.8.2 4.1-1.1.8-.8 1.2-1.3 1.5-1.7h3c-.2 1.3-.8 1.9-2.4 3.5-2.3 2.2-2.8 2.1-6.2 2.1-3.4 0-3.9-.1-6.2-2.4-2.3-2.3-2.5-2.7-2.5-5.7 0-3.5.1-3.8 2.5-6.1 2.2-2.2 2.7-2.3 6.1-2.3 3.5 0 4 .1 6.1 2.3 2.4 2.3 2.5 2.7 2.5 6.1v1H208c.1 1.2.4 1.6 1.8 2.9zm0-8.2c-1.1 1.1-1.5 1.6-1.7 2.5h11.6c-.1-1-.6-1.4-1.7-2.5-1.3-1.2-1.6-1.3-4.1-1.3-2.5 0-2.9.1-4.1 1.3zm16.1-3.7h2.8v1.6c2-2 2-2 5.9-2h2v2.8h-2c-2.7 0-2.7 0-4.1 1.3-1.7 1.6-1.7 1.6-1.8 3v8.9h-2.8V9.7z" fill="#000"/><path fill="#141414" d="M0 0h33v33H0z"/><path d="M21.677 19.91a8.071 8.071 0 001.573-4.785c0-4.48-3.645-8.125-8.125-8.125S7 10.645 7 15.125s3.645 8.125 8.125 8.125c1.79 0 3.44-.589 4.785-1.573L25.232 27 27 25.232l-5.323-5.322zm-6.552.84A5.631 5.631 0 019.5 15.125 5.631 5.631 0 0115.125 9.5a5.631 5.631 0 015.625 5.625 5.631 5.631 0 01-5.625 5.625z" fill="#F8F1F1"/></svg>