<svg width="218" height="27" fill="none" xmlns="http://www.w3.org/2000/svg"><path d="M10.54 16.342l10.065 10.065h-4.5l-8.29-7.816-4.38 3.671v4.145H0V0h3.316v18.118L15.63 7.934h4.855l-9.947 8.408zm36.471 9.236v.83h-3.67L41.8 23.92c-2.368 2.25-3.079 2.487-7.342 2.487-4.381 0-4.974-.118-7.579-2.724-2.842-2.723-2.96-3.078-2.96-7.223V7.934h3.316v8.526c0 2.842.118 3.197 2.131 5.21 1.421 1.421 1.895 1.54 5.092 1.54 3.197 0 3.671-.119 5.21-1.54 1.54-1.42 1.895-1.894 2.132-3.434V7.934h3.197v15.039l2.013 2.605zm3.317-17.644h3.316v1.895C56.012 7.46 56.012 7.46 60.63 7.46H63v3.316h-2.37c-3.197 0-3.197 0-4.855 1.54-2.013 1.894-2.013 1.894-2.131 3.552v10.539h-3.316V7.934zm36.353 6.039h-3.315v-.71c0-.474-.119-.592-2.132-1.658-1.302-.71-1.54-.829-2.96-.829h-3.908c-1.421 0-1.658.118-3.553 1.303-1.302.829-1.42.829-1.42 1.539v.474c0 .829.591.947 6.63 1.42 9.474.711 10.422 1.066 10.422 3.79v2.605c0 .948-.356 1.184-3.435 3.198-2.723 1.776-3.079 1.894-4.618 1.894h-4.855c-1.184 0-1.54-.118-4.382-1.776-2.96-1.776-3.315-2.132-3.315-4.381v-.474h3.316v.474c0 .592.118.71 1.894 1.776 1.658.947 1.895 1.066 2.96 1.066h4.145c1.066 0 1.303-.119 3.198-1.303 1.42-.947 1.657-1.066 1.657-1.54v-.71c0-.829-.592-.947-7.105-1.421-9.118-.592-9.947-.947-9.947-3.79v-1.894c0-1.54.237-1.895 3.08-3.553 2.841-1.776 3.315-1.894 4.499-1.894h4.973c1.303 0 1.658.118 3.553 1.302 3.908 2.25 4.263 2.605 4.263 4.027v1.065h.355zm17.053.711h-5.565v11.842h-3.316V14.684h-4.855v-3.316h4.855V7.934c0-2.96 0-2.96 2.25-5.21C99.945 0 99.945 0 103.498 0h.118v3.316h-.118c-2.369 0-2.369 0-3.908 1.42-1.54 1.54-1.54 1.54-1.54 3.198v3.434h5.566v3.316h.118zm13.855-3.434v11.96h7.224v3.316h-17.881V23.21h7.223V11.25h-7.223V7.816h17.881v3.315h-7.224v.119zm32.801 6.157v9h-3.316v-9c0-2.842-.118-3.197-2.131-5.21-1.421-1.421-1.895-1.54-4.855-1.54-2.842 0-3.316.119-4.855 1.54-1.54 1.421-1.895 1.895-2.132 3.434v10.776h-3.316V11.368l-1.894-2.605v-.829h3.671l1.302 2.131c2.487-2.486 3.079-2.605 7.224-2.605 4.144 0 4.736.119 7.342 2.724 2.723 2.724 2.96 3.079 2.96 7.223zm26.525 8.29v.71h-3.79l-1.421-2.25c-2.723 2.605-3.315 2.724-6.868 2.724-4.381 0-4.974-.119-7.579-2.842-2.723-2.724-2.96-3.198-2.96-6.75 0-4.145.118-4.5 2.96-7.224 2.605-2.605 3.198-2.723 7.579-2.723 3.671 0 4.381.118 6.631 2.368V3.316h3.316V23.09l2.132 2.606zm-7.461-3.671c1.895-1.895 2.013-2.132 2.013-4.5 0-2.96-.118-3.316-2.131-5.092-1.54-1.421-2.013-1.54-4.618-1.54-3.198 0-3.671.119-5.092 1.54-2.013 2.013-2.132 2.25-2.132 5.21 0 2.369.119 2.605 2.132 4.619 1.539 1.539 2.013 1.657 5.092 1.657 2.723-.237 3.197-.355 4.736-1.894zm16.226 0c1.539 1.54 2.013 1.657 4.855 1.657 2.842 0 3.315.237 4.855-1.302.947-.947 1.421-1.54 1.776-2.013h3.553c-.237 1.54-.948 2.25-2.842 4.144-2.724 2.606-3.316 2.487-7.342 2.487s-4.619-.118-7.342-2.842c-2.724-2.723-2.961-3.197-2.961-6.75 0-4.144.119-4.5 2.961-7.223 2.605-2.605 3.197-2.724 7.223-2.724 4.145 0 4.737.119 7.224 2.724 2.842 2.724 2.96 3.197 2.96 7.223v1.184h-17.052c.119 1.421.474 1.895 2.132 3.435zm0-9.71c-1.303 1.302-1.777 1.894-2.013 2.96h13.736c-.118-1.184-.711-1.658-2.013-2.96-1.54-1.422-1.895-1.54-4.855-1.54-2.961 0-3.434.118-4.855 1.54zm19.064-4.382h3.316v1.895c2.368-2.369 2.368-2.369 6.986-2.369h2.369v3.316h-2.369c-3.197 0-3.197 0-4.855 1.54-2.013 1.894-2.013 1.894-2.131 3.552v10.539h-3.316V7.934z" fill="#fff"/></svg>