<svg width="160" height="35" fill="none" xmlns="http://www.w3.org/2000/svg"><path d="M16.105 21.798c-.514-.397-.957-.35-1.4.163a24.103 24.103 0 01-1.727 1.727c-.934.863-1.68 1.61-1.307 3.197.397 1.656-.793 3.197-2.38 3.827a3.927 3.927 0 01-4.434-1.097 3.94 3.94 0 01-.35-4.55c.887-1.424 2.614-2.194 4.224-1.704.77.234 1.213.047 1.703-.49.864-.933 1.797-1.82 2.707-2.707.373-.373.607-.7.187-1.19v-2.357c.093-.256.187-.536.303-.793a9.153 9.153 0 011.61-1.68c.28-.117.56-.233.84-.373.77-.187 1.564-.187 2.357-.14.303.116.607.233.91.373.724.373 1.284.933 1.774 1.563.14.35.303.677.443 1.027a5.13 5.13 0 010 2.38c-.163.35-.327.724-.49 1.074-.443.606-1.027 1.096-1.657 1.516-.326.117-.63.21-.957.327-.793.164-1.586.024-2.356-.093zm122.041-2.077c1.89-2.45 3.546-4.62 5.203-6.79.257-.327.42-.724.934-.794 1.703-.28 2.006-.07 2.006 1.657v7.117c0 .467-.07.887.677.91.77.023.327.723.397 1.097.093.466-.21.583-.63.56a81.572 81.572 0 00-3.384 0c-.373 0-.77-.024-.653-.537.07-.396-.35-1.097.396-1.12.724-.047.677-.42.677-.91v-5.25c-.443-.07-.49.326-.653.536-1.704 2.17-3.407 4.34-5.04 6.558-.467.63-.957.77-1.681.746-.63 0-.77-.21-.77-.817.024-2.613.024-5.203.024-7.817 0-.513.186-1.05-.724-1.073-.676-.023-.28-.747-.35-1.144-.07-.42.21-.513.56-.513 1.167 0 2.334.024 3.501 0 .443 0 .7.14.606.607-.07.397.35 1.027-.443 1.097-.42.023-.63.093-.63.583 0 1.633-.023 3.29-.023 5.297zm-86.153-1.167h-.116c-2.567 0-2.544 0-2.404 2.544.024.443.07.7.63.723.794.023.374.7.444 1.073.116.56-.257.607-.7.607-1.05-.023-2.1 0-3.15 0-.35 0-.887.164-.817-.49.046-.443-.397-1.213.583-1.19.42 0 .514-.21.514-.583V14.47c0-.257.07-.63-.327-.607-1.12.07-.77-.77-.747-1.284.047-.77.724-.42 1.097-.42 2.497-.046 2.497-.023 2.497 2.427 0 2.17 0 2.17 2.193 2.17h1.167c1.937 0 2.333-.536 1.913-2.473-.046-.257-.116-.443-.42-.443-1.073 0-.56-.817-.606-1.284-.047-.653.536-.396.863-.42.933-.023 1.867-.046 2.8 0 .35.024.98-.303.957.444-.023.466.42 1.283-.653 1.26-.467 0-.444.326-.444.63v6.65c0 .327-.023.654.444.654 1.05-.024.63.77.653 1.26.023.746-.607.443-.957.443-2.637.07-2.637.047-2.637-2.52 0-2.427 0-2.427-2.403-2.427-.14.023-.257.023-.373.023zm19.859 1.867c-1.167 2.147-2.894 3.127-5.11 3.337a6.039 6.039 0 01-6.674-5.67c-.21-3.43 2.404-6.23 5.88-6.348 3.64-.116 6.417 2.427 6.44 5.88 0 .77-.233.98-.98.98-2.683-.046-5.366 0-8.05-.022-.98-.024-1.027.326-.653 1.096 1.05 2.147 3.873 2.964 5.74 1.447 1.074-.887 2.1-.723 3.407-.7zm-5.647-3.617c1.097 0 2.17-.023 3.267 0 .583 0 .63-.186.443-.7-.536-1.4-2.053-2.473-3.64-2.473-1.587 0-3.104 1.003-3.664 2.403-.21.514-.21.794.467.77 1.027-.023 2.077 0 3.127 0zm89.885 4.69c0-.163.047-.326 0-.466-.186-.514.49-1.4-.443-1.54-.933-.14-2.053-.397-2.474.98-.163.536-.513 1.026-.77 1.563-.49 1.027-1.143 1.75-2.426 1.447-.397-.093-1.027.28-.98-.56.023-.537-.234-1.237.77-1.167.28.023 1.75-2.357 1.703-2.637-.047-.28-.303-.303-.513-.396-1.47-.747-1.984-2.007-1.774-3.594.21-1.54 1.19-2.403 2.637-2.73 2.45-.537 4.947-.164 7.421-.257.49-.023.466.374.396.654-.093.42.374 1.143-.443 1.213-.63.047-.63.397-.63.84v6.16c0 .28-.14.724.327.724 1.096 0 .746.793.723 1.307-.047.77-.723.303-1.097.42-.14.046-.303 0-.467 0-1.983.046-1.983.046-1.96-1.96zm0-5.623v-1.284c0-.303-.046-.56-.42-.56-1.003.024-2.006-.14-2.987.187-.676.233-1.12.7-1.166 1.423-.07.794.233 1.447.933 1.844.513.303 1.097.303 1.68.303 1.96.047 1.96.047 1.96-1.913zm-47.253 1.143c0 1.12-.023 2.264 0 3.384.023.606-.327 1.4.864 1.47.443.023.163.747.21 1.143.07.467-.28.467-.607.467h-3.267c-.35 0-.887.14-.793-.513.07-.444-.42-1.19.583-1.19.467 0 .467-.304.467-.63 0-2.147-.024-4.27 0-6.418 0-.583-.234-.7-.747-.723-2.264-.117-2.24-.117-2.404 2.17-.116 1.657-.303 3.337-.933 4.9-.63 1.564-1.797 2.404-3.477 2.45-.373.024-.91.117-.817-.49.094-.513-.513-1.353.49-1.516 1.4-.234 1.937-1.19 2.194-2.38.327-1.494.327-3.01.443-4.527.024-.257.094-.607-.326-.607-1.214 0-.677-.933-.677-1.447-.023-.77.677-.443 1.073-.443 2.217-.024 4.434.046 6.651-.047.98-.046 1.166.304 1.12 1.167-.094 1.307-.047 2.543-.047 3.78zM91.243 11.74c3.547-.023 6.277 2.567 6.3 5.95.024 3.384-2.683 6.044-6.206 6.091-3.5.024-6.254-2.59-6.3-5.973-.047-3.384 2.683-6.044 6.206-6.067zm4.014 6.068c.023-2.334-1.727-4.154-3.99-4.13-2.217 0-3.92 1.773-3.944 4.06-.023 2.31 1.657 4.083 3.85 4.13 2.31.023 4.06-1.727 4.084-4.06zm28.258-.024c-.023 3.407-2.753 6.02-6.277 5.997-3.523-.023-6.207-2.66-6.184-6.067.024-3.407 2.707-5.974 6.277-5.974 3.547.024 6.207 2.637 6.184 6.044zm-2.287.024c.024-2.357-1.703-4.154-3.943-4.154-2.217 0-3.921 1.773-3.944 4.06-.023 2.31 1.634 4.084 3.85 4.13 2.287.047 4.014-1.68 4.037-4.037z" fill="#CABCBC"/><path d="M13.351 16.594v2.357c-1.003 0-2.03.047-3.033 0-1.424-.07-2.59 0-3.617 1.447-1.284 1.82-4.13 1.633-5.647-.047a3.871 3.871 0 01.513-5.67c1.797-1.377 4.434-1.004 5.624.933.49.793 1.003 1.003 1.843.98 1.447-.07 2.87-.023 4.317 0zm5.111-2.987c-.794-.046-1.587-.07-2.357.14-.024-1.517-.07-3.01-.07-4.527 0-.583-.117-.98-.7-1.306-1.68-.98-2.357-2.754-1.844-4.457.514-1.68 2.147-2.894 3.827-2.87 1.68.023 3.29 1.306 3.734 2.986.443 1.704-.234 3.43-1.89 4.34-.584.327-.724.677-.7 1.284.023 1.47 0 2.94 0 4.41zm2.66 1.937c-.49-.63-1.05-1.19-1.774-1.563l2.054-2.054c.933-.91 1.82-1.61 1.4-3.36-.514-2.124 1.657-4.084 3.92-4.037 2.24.047 4.06 2.053 3.827 4.247-.257 2.333-2.45 3.99-4.737 3.407-.84-.21-1.26-.023-1.797.537-.933.956-1.913 1.89-2.893 2.823zm-5.017 6.254c.793.116 1.563.257 2.357.07 0 1.517.023 3.033 0 4.55-.024.583.186.887.7 1.167 1.68.956 2.38 2.683 1.89 4.457-.467 1.633-2.007 2.8-3.734 2.8-1.797 0-3.314-1.143-3.804-2.87-.49-1.704.21-3.43 1.844-4.364.63-.35.723-.77.723-1.4-.046-1.47 0-2.94.024-4.41zm-.863-7.678a9.153 9.153 0 00-1.61 1.68c-1.097-1.096-2.24-2.146-3.314-3.266-.42-.42-.77-.584-1.4-.397-1.82.514-3.594-.257-4.48-1.843a3.886 3.886 0 01.63-4.62c1.26-1.26 3.15-1.54 4.713-.654 1.587.887 2.334 2.637 1.797 4.48-.187.607-.023.934.373 1.307a218.87 218.87 0 013.29 3.314zm6.323 4.83a5.127 5.127 0 000-2.38c1.424 0 2.87-.046 4.294-.023.607 0 .957-.14 1.283-.7.98-1.68 2.73-2.356 4.457-1.843 1.727.513 2.894 2.053 2.847 3.804-.023 1.703-1.236 3.243-2.87 3.686-1.75.49-3.5-.233-4.457-1.89-.303-.513-.583-.7-1.167-.676-1.446.046-2.917.023-4.387.023zm-2.146 2.591c.63-.443 1.213-.91 1.656-1.517 1.19.817 2.077 1.96 3.104 2.94.42.42.77.584 1.423.42 1.844-.513 3.594.234 4.48 1.82.887 1.564.607 3.43-.676 4.691-1.284 1.237-3.197 1.47-4.714.56-1.563-.933-2.31-2.707-1.727-4.504.187-.583.024-.84-.326-1.19a139.277 139.277 0 01-3.22-3.22zm59.363-9.404c1.633 0 3.267.024 4.9 0 .584 0 .864.14.794.794-.047.35.046.7-.024 1.05-.07.396.35 1.096-.396 1.12-.537 0-1.33.536-1.634-.677-.186-.793-1.283-.257-1.96-.327-.63-.07-.49.467-.49.817v6.067c0 .35-.163.91.467.84 1.003-.117.816.537.816 1.097.024.91-.653.583-1.073.583-1.12.047-2.263 0-3.383.024-.444 0-.794-.047-.7-.607.07-.42-.304-1.144.583-1.073.653.046.77-.257.746-.817-.023-2.054-.046-4.13 0-6.184.024-.653-.256-.887-.793-.747-.63.164-1.657-.606-1.82.817-.047.467-.887.163-1.353.21-.467.047-.444-.303-.467-.607-.21-2.356-.21-2.356 2.123-2.356 1.237-.024 2.45-.024 3.664-.024zm50.45 0c1.166 0 2.333.047 3.5-.023.723-.047 1.003.21.91.91-.047.257.047.56-.023.817-.094.42.373 1.166-.421 1.19-.536.023-1.516.583-1.516-.724 0-.326-.327-.256-.537-.28-2.683-.326-2.777-.256-2.777 2.404 0 1.33-.023 2.637.024 3.967.023.583-.397 1.423.84 1.493.42.024.163.747.21 1.144.046.443-.257.49-.607.49-1.004 0-2.03.023-3.034-.024-.373-.023-1.05.327-1.026-.49 0-.49-.327-1.26.723-1.213.49.023.373-.397.373-.677v-6.417c0-.303.094-.677-.42-.653-.816.07-.653-.514-.7-1.004-.093-.723.187-.957.91-.91 1.144.047 2.357 0 3.571 0z" fill="#CABCBC"/></svg>