<svg width="160" height="30" fill="none" xmlns="http://www.w3.org/2000/svg"><path d="M53.02 17.025c0 2.337-1.978 4.32-4.592 4.32s-4.593-1.912-4.593-4.32V8.6h-1.413v8.497c0 3.045 2.332 5.665 6.006 5.665 3.674 0 6.006-2.691 6.006-5.665V8.6h-1.413v8.426zM68.072 8.6H63.62v14.162h4.452c4.098 0 6.853-2.691 6.853-7.08 0-4.32-2.755-7.082-6.853-7.082zm-.14 12.745h-2.898V10.017h2.897c3.321 0 5.582 2.336 5.582 5.664 0 3.54-2.19 5.665-5.582 5.665zm39.498 0c-3.25 0-5.582-2.69-5.582-5.947s2.332-5.735 5.582-5.735c2.544 0 4.169 1.486 4.169 1.486l.707-.99s-1.625-1.77-4.946-1.77c-3.887 0-6.925 3.044-6.925 7.009 0 3.965 2.897 7.364 6.995 7.364 3.392 0 5.229-2.337 5.229-2.337l-.777-.92c-.071 0-1.696 1.84-4.452 1.84zm14.132 1.417h1.413V8.599h-1.413v14.162zm9.186-12.745h4.946V22.76h1.413V10.016h4.947V8.599h-11.306v1.417zM158.447 8.6l-4.381 6.373-4.452-6.373h-1.554l5.299 7.86v6.302h1.414V16.46L160 8.599h-1.554zm-71.579 0l-5.582 14.162h1.484l1.484-4.036 6.218-1.275 1.978 5.31h1.484L88.351 8.6h-1.484zm-1.978 8.568l2.755-6.656h.071l2.332 5.665-5.158.991zM10.13.813L.732 6.265v12.462c0 5.735 4.593 10.408 10.316 10.408 1.908 0 3.675-.496 5.23-1.345l7.63-4.39c3.039-1.629 5.088-4.744 5.088-8.426V1.946L27.159.884l-8.055 4.319v13.594c0 .567-.071 1.133-.142 1.7-.141.566-.282 1.062-.494 1.558l-.212.424c-.283 0-2.05-.637-2.968-1.274a7.135 7.135 0 01-2.05-2.054c-.282-.424-1.271-2.265-1.271-4.106V1.875L10.13.813zm4.593 25.631c-.495.213-1.202.496-1.767.638-.565.141-1.06.141-1.625.141s-1.13-.07-1.696-.212c-.565-.142-1.06-.283-1.554-.496a9.046 9.046 0 01-1.414-.779c-1.2-.85-1.766-1.557-2.26-2.336a9.076 9.076 0 01-.778-1.416c-.212-.496-.353-1.062-.495-1.629-.282-.495-.282-1.062-.282-1.628v-11.4l7.066-4.32v11.967c0 4.532 3.32 8.355 7.56 9.276-.14.212-.282.424-.494.566-.778.779-1.413 1.274-2.261 1.628zm12.012-9.912c-.07.495-.283.99-.424 1.416-.212.425-.424.85-.707 1.274-.282.425-1.13 1.487-2.26 2.124-1.131.638-2.191.85-2.827.992.424-1.133.706-2.266.706-3.54V6.264l5.653-3.257v11.966c0 .566 0 1.062-.141 1.558z" fill="#CABCBC"/></svg>