<svg width="143" height="41" fill="none" xmlns="http://www.w3.org/2000/svg"><path d="M7.312 20.694c-.411.236-.761.434-1.111.64-.8.464-1.63.844-2.566.95-1.621.184-3.273-.677-3.578-2.565-.008-.06-.03-.114-.038-.175-.053-.358-.008-.632.312-.906 1.294-1.104 2.611-2.2 3.822-3.395 2.969-2.946 5.26-6.38 7.103-10.125.51-1.028.982-2.079 1.53-3.084.518-.966 1.31-1.66 2.39-1.903 1.683-.373 3.312.29 3.982 2.109.388 1.058.464 2.162.41 3.274-.12 2.497-.86 4.88-1.43 7.285-.86 3.601-1.759 7.194-2.604 10.803-.426 1.827-.609 3.692-.487 5.572.045.709.213 1.424.41 2.117.214.746.83 1.172 1.463 1.119.433-.038.784-.251 1.103-.533 1.028-.906 1.828-2.002 2.634-3.098 2.642-3.586 4.781-7.469 6.784-11.435 1.393-2.756 2.801-5.504 4.217-8.252.274-.526.586-1.036.876-1.553 1.225-2.254 4.415-2.079 5.664-.038a7.644 7.644 0 011.104 3.623c.099 1.919.167 3.837.25 5.756.062 1.423.107 2.847.176 4.27.046 1.059.076 2.117.183 3.175.053.533.228 1.066.441 1.56.358.823 1.066 1.09 1.972.846a5.16 5.16 0 001.888-.96c1.157-.936 2.322-1.857 3.464-2.801.228-.19.388-.168.594-.015.548.403.73.997.837 1.621.244 1.424-.22 2.703-.853 3.928-1.279 2.49-3.387 3.914-6.052 4.591a10.72 10.72 0 01-4.56.16c-1.888-.343-3.25-1.439-4.164-3.099-.739-1.355-1.127-2.824-1.34-4.339-.267-1.842-.282-3.692-.244-5.542 0-.023.008-.038 0-.06-.038-.107-.076-.222-.122-.328-.076.076-.175.144-.22.236-.99 2.063-1.95 4.141-2.977 6.181-1.454 2.878-3.114 5.642-5.116 8.177-1.416 1.796-3.022 3.387-5.024 4.53-1.477.844-3.06 1.301-4.758 1.278-2.81-.038-4.88-1.362-6.281-3.768-.731-1.249-1.12-2.611-1.317-4.035a18.85 18.85 0 01-.1-4.294c.153-1.796.503-3.555.907-5.313.144-.632.281-1.272.426-1.911-.008-.076-.015-.137 0-.274z" fill="#FF4543"/><path d="M107.064 16.986c.906 0 1.789-.007 2.665.008.076 0 .175.084.236.152.243.29.472.579.708.868 2.756-1.797 5.42-2.109 7.963.411.167-.13.365-.274.563-.426 1.249-1.005 2.665-1.5 4.271-1.363.754.06 1.485.22 2.162.586.754.411 1.287 1.013 1.576 1.82.403 1.111.655 2.253.647 3.448-.008 2.398.023 4.797.03 7.195 0 .205-.03.41-.045.639h-4.02v-.365c0-2.178.008-4.363-.007-6.54a5.97 5.97 0 00-.198-1.462c-.312-1.142-1.234-1.697-2.391-1.454-.517.107-1.005.335-1.507.503-.213.068-.267.213-.267.434.008 2.801.008 5.61 0 8.412 0 .472.084.457-.472.457-1.088 0-2.177-.008-3.273.007-.274 0-.343-.083-.343-.357.008-2.2.015-4.4 0-6.6 0-.374-.038-.755-.122-1.12-.319-1.439-1.37-2.078-2.801-1.69-.388.107-.754.297-1.127.442-.236.09-.304.258-.304.51.007 2.786.007 5.572.007 8.359 0 .449 0 .449-.456.449-1.074 0-2.14-.008-3.213.007-.244 0-.32-.068-.32-.32.008-4.24.008-8.48.008-12.728.015-.076.023-.152.03-.282zM71.123 12.48c.13-.008.229-.024.32-.024 1.188 0 2.375.008 3.57-.007.267-.008.35.099.358.335 0 .106.008.22.008.327-.015 3.51-.023 7.02-.069 10.521-.015 1.31-.296 2.573-.905 3.746-.83 1.599-2.17 2.535-3.89 2.961-2.186.54-4.378.564-6.555-.015-2.421-.647-3.8-2.322-4.24-4.728-.206-1.096-.282-2.223-.298-3.334-.045-3.16-.022-6.326-.022-9.486v-.297c.114-.007.205-.022.304-.022 1.203 0 2.398.007 3.6-.008.275 0 .328.099.328.342-.007 2.695-.007 5.39 0 8.085.008 1.188.008 2.376.32 3.54.35 1.317 1.02 1.965 2.368 2.064.807.06 1.621.015 2.428-.038.944-.07 1.606-.602 1.903-1.47.221-.64.358-1.317.404-1.994.076-1.127.06-2.262.068-3.388.008-2.238 0-4.477 0-6.722v-.389zm15.447 4.346V16.4c0-1.568.008-3.129-.007-4.697 0-.305.083-.38.38-.373 1.195.015 2.398.007 3.624.007v18.987a2.96 2.96 0 01-.259.015c-.434 0-.875-.045-1.31.008-.662.084-1.141-.114-1.461-.708-.122-.229-.251-.19-.45-.069-2.275 1.378-4.643 1.477-7.026.35-1.446-.685-2.269-1.94-2.71-3.448-.64-2.162-.594-4.301.403-6.334 1.028-2.101 2.764-3.281 5.109-3.449.959-.068 1.933.046 2.908.084.243.015.495.038.8.053zm-.03 6.723c0-.914-.008-1.82.007-2.733 0-.198-.068-.297-.243-.381a4.9 4.9 0 00-1.797-.464 3.042 3.042 0 00-3.114 1.956c-.335.875-.365 1.774-.22 2.687.144.93.54 1.72 1.416 2.178 1.301.685 2.573.555 3.806-.19.084-.054.145-.206.145-.313.007-.913 0-1.827 0-2.74zm18.065 2.733c-.114.685-.22 1.332-.335 1.971-.045.267-.121.526-.129.792-.015.274-.168.426-.366.571-.822.586-1.766.837-2.748.952-1.347.152-2.687.129-4.004-.244-2.269-.64-3.73-2.078-4.301-4.385-.488-1.949-.442-3.875.357-5.733.914-2.108 2.558-3.265 4.835-3.524.951-.107 1.895-.107 2.839.099 1.804.396 3.022 1.484 3.738 3.167.541 1.271.746 2.596.746 3.966 0 .282-.099.35-.365.342-2.566-.007-5.131-.007-7.704-.007-.389 0-.412.023-.42.419-.014 1.043.67 1.994 1.721 2.367 1.34.472 2.688.404 4.028.023.609-.175 1.187-.434 1.781-.655.091-.03.183-.068.327-.121zm-7.894-4.028h5.138c.061-1.332-1.058-2.497-2.428-2.542a2.586 2.586 0 00-2.71 2.542zm31.38-5.268h1.058c1.043 0 2.078.008 3.121-.007.229 0 .328.076.396.281.944 2.748 1.903 5.497 2.855 8.237.03.1.069.198.137.373.069-.175.099-.258.129-.342.914-2.764 1.82-5.52 2.734-8.283.038-.107.152-.259.236-.266 1.256-.016 2.512-.016 3.821-.016-.045.137-.076.244-.114.35-2.253 5.725-4.514 11.443-6.768 17.168-.106.274-.236.373-.54.365-1.089-.023-2.178-.007-3.274-.007h-.373c.046-.13.069-.229.107-.328.563-1.439 1.119-2.878 1.69-4.309a.761.761 0 000-.616c-1.698-4.081-3.396-8.17-5.086-12.25-.03-.091-.068-.19-.129-.35z" fill="#161616"/></svg>