<svg width="271" height="44" fill="none" xmlns="http://www.w3.org/2000/svg"><path d="M7.476 27.285L3.252 36.78H.17l4.646-10.15C2.62 25.51 1.183 23.5 1.183 19.8c0-5.202 3.273-7.803 7.201-7.803h3.992V36.78H9.694v-9.495H7.476zM9.694 14.26H8.279c-2.154 0-4.224 1.416-4.224 5.54 0 3.996 1.9 5.265 4.224 5.265h1.415V14.26zm15.522 5.054V36.78h-2.66v-7.824h-4.013v7.845h-2.725V19.313h2.704v7.423h4.012v-7.422h2.682zm13.875 20.913h-2.429V36.8h-7.476v3.426h-2.428V34.58h1.077c1.584-3.7 1.774-9.114 1.774-13.766v-1.502h8.109V34.56h1.394v5.667h-.021zm-4.055-18.735h-3.02v.317c0 3.68-.169 9.05-1.626 12.75h4.646V21.493zm11.51 15.542c-3.612 0-5.808-2.876-5.808-8.247 0-5.625 1.563-9.706 5.258-9.706 2.915 0 4.815 2.178 4.815 8.12v1.501h-7.264c0 3.954 1.098 6.027 3.252 6.027 1.52 0 2.745-.698 3.421-1.184l.634 2.072c-1.14.867-2.577 1.417-4.309 1.417zM43.567 26.46h4.477c0-2.982-.486-5.16-2.049-5.16-1.668-.02-2.26 2.03-2.428 5.16zm12.692 1.628V36.8h-2.703V19.313h2.703v8.078l4.181-8.077h2.746l-4.33 8.225 4.942 9.262h-2.935L56.26 28.09zm7.898-.042c0-5.477 2.112-8.987 6.209-8.987 1.563 0 2.45.423 3.21.909l-.38 2.559c-.718-.635-1.774-1.206-2.872-1.206-1.943 0-3.316 2.178-3.316 6.598 0 4.377 1.035 6.872 3.21 6.872 1.31 0 2.323-.528 2.936-1.078l.633 2.009c-.93.803-2.048 1.31-3.632 1.31-3.738 0-5.998-3.023-5.998-8.986zM90.929 37V16.902h13.152V37h-1.722V18.406h-9.707V37h-1.723zm19.869-7.219c0 1.896.392 3.427 1.176 4.594.802 1.148 1.877 1.723 3.226 1.723 1.295 0 2.37-.565 3.227-1.696.857-1.13 1.285-2.67 1.285-4.62 0-1.824-.401-3.319-1.203-4.485-.802-1.167-1.905-1.75-3.309-1.75-1.276 0-2.333.592-3.172 1.777-.82 1.167-1.23 2.653-1.23 4.457zm-1.641 13.645V22.644h1.614v2.926c.401-1.039 1.002-1.868 1.804-2.488.821-.62 1.759-.93 2.817-.93 1.768 0 3.208.693 4.32 2.078 1.112 1.386 1.668 3.236 1.668 5.551 0 2.461-.583 4.366-1.75 5.715-1.167 1.33-2.579 1.996-4.238 1.996-1.112 0-2.06-.31-2.844-.93a5.602 5.602 0 01-1.75-2.378v9.242h-1.641zm16.014-9.98c0 .729.31 1.357.93 1.886.619.51 1.476.766 2.57.766 1.367 0 2.534-.438 3.5-1.313.984-.893 1.476-2.023 1.476-3.39v-2.27c-.82.255-2.187.529-4.101.82-1.531.256-2.643.666-3.336 1.23-.693.566-1.039 1.322-1.039 2.27zm-1.695.109c0-1.313.483-2.37 1.449-3.172.984-.82 2.534-1.395 4.648-1.723 2.115-.346 3.473-.638 4.074-.875v-.82c0-1.003-.355-1.823-1.066-2.461-.693-.656-1.677-.985-2.953-.985-.875 0-1.723.21-2.543.63a5.918 5.918 0 00-2.024 1.64l-1.093-.875a7.555 7.555 0 012.461-1.996 6.788 6.788 0 013.172-.766c1.987 0 3.427.492 4.32 1.477.911.984 1.367 2.306 1.367 3.965V37h-1.613v-2.598c-.31.82-.948 1.54-1.914 2.16-.948.62-2.051.93-3.309.93-1.549 0-2.771-.364-3.664-1.094-.875-.747-1.312-1.695-1.312-2.843zM139.352 37V22.645h1.668v6.699l7.219-6.7h2.215l-7.383 6.864L150.755 37h-2.078l-6.7-6.426-.957.903V37h-1.668zm11.584-12.96v-1.395h11.348v1.394h-4.84V37h-1.668V24.04h-4.84zM164.844 37V22.645h1.668v8.23c0 .73-.036 1.932-.109 3.61h.109l1.45-2.106 6.672-9.734h1.914V37h-1.668v-8.504c0-1.568.027-2.716.082-3.445h-.055l-1.258 1.914L166.759 37h-1.915zm15.932 0V22.645h1.668v6.699l7.219-6.7h2.215l-7.383 6.864L192.178 37H190.1l-6.699-6.426-.957.903V37h-1.668zm11.146-14.355h1.942l3.226 9.05c.42 1.185.83 2.388 1.231 3.61h.082c.146-.456.355-1.094.629-1.914.291-.82.492-1.395.601-1.723l3.09-9.023h1.914l-6.234 16.953c-.511 1.403-1.103 2.388-1.777 2.953-.675.583-1.477.875-2.407.875h-.765V42.03h.492c.656 0 1.23-.218 1.723-.656.492-.42.92-1.167 1.285-2.242l.574-1.75-5.606-14.739zM206.788 37V22.645h1.859l3.883 7.875c.182.4.446.975.793 1.722.346.748.592 1.267.738 1.559h.055c.164-.328.41-.857.738-1.586a62.53 62.53 0 01.766-1.696l3.882-7.874h1.86V37h-1.586v-8.504c0-.966.027-2.014.082-3.144h-.027l-.903 1.914-4.238 8.613h-1.231l-4.21-8.613-.903-1.887h-.027c.036.638.055 1.677.055 3.117V37h-1.586z" fill="#CABCBC"/></svg>