<svg width="286" height="167" fill="none" xmlns="http://www.w3.org/2000/svg"><path d="M206.484 37.678s9.116-10.42 26.595-3.782c17.479 6.637 34.572 33.92 18.676 66.915" stroke="#274D79" stroke-width="2" stroke-miterlimit="10"/><path d="M208.266 44.946c-.804 1.948-8.742-.983-7.978-2.931l1.11-2.71a4.156 4.156 0 0 1 2.258-2.233 4.484 4.484 0 0 1 3.261-.069 4.3 4.3 0 0 1 1.403.848c.404.367.728.806.953 1.292a3.854 3.854 0 0 1 .071 3.093l-1.078 2.71z" fill="#03AA99"/><path d="M200.322 42.015c-.911 1.89 7.14 4.879 7.978 2.93.572-1.506-7.327-4.305-7.978-2.93z" fill="#3B55CE"/><path d="M203.46 43.477c-.087.246-.472.34-.851.22-.379-.119-.625-.421-.539-.63.086-.208.472-.34.851-.22.379.12.625.384.539.63zm2.819.99c-.086.24-.472.34-.851.214-.379-.126-.625-.416-.539-.63.087-.215.466-.34.851-.22.386.119.625.39.539.636z" fill="#000E5B"/><path d="M250.479 139.611c-2.271-.699-4.255-2.055-5.672-3.877-2.24-2.982-1.043-10.086 2.839-12.129 3.883-2.042 6.868-4.412 6.27-9.966-.598-5.554 1.33-9.91 6.27-10.477 4.94-.567 6.868-.63 11.801-4.848 4.933-4.217 8.955-4.879 10.897-2.49 1.941 2.39.452 5.611-.599 8.454-1.05 2.843 2.693 5.755 3.438 8.623.744 2.869.146 6.563-3.737 8.605-3.882 2.043-6.568 3.682-6.116 7.395.452 3.713-1.796 9.348-10.159 10.716l-15.232-.006z" fill="#C1CCFF"/><path d="M276.613 101.781s-18.19 13.535-21.415 37.823" stroke="#fff" stroke-width="1.57" stroke-miterlimit="10" stroke-linecap="round"/><path d="M233.458 91.689c-2.865 1.708-2.659 4.665-2.539 8.422.119 3.757-.984 5.125-3.258 7.627-2.274 2.503-1.044 6.304 2.899 8.025 3.942 1.721 7.379 4.325 5.285 8.75-2.094 4.425-1.33 12.463 8.962 15.129h13.251s9.308-5.131 10.491-14.499c1.184-9.367-6.721-10.18-8.962-13.332-2.24-3.152-1.569-7.388-1.529-11.7.04-4.312-3.397-6.493-8.025-6.254-4.627.24-6.436 0-8.829-1.55-2.394-1.551-5.359-2.043-7.746-.618z" fill="#D8EFFF"/><path d="M238.065 97.249c0 .126 16.117 10.49 15.325 42.311" stroke="#fff" stroke-width="1.57" stroke-miterlimit="10" stroke-linecap="round"/><path d="M275.258 141.439H1.044c-.138 0-.274-.026-.401-.076a1.056 1.056 0 0 1-.34-.216.949.949 0 0 1-.303-.704c0-.263.11-.514.306-.7.196-.185.461-.29.738-.29h274.214a1.073 1.073 0 0 1 .742.288.966.966 0 0 1 .308.702.97.97 0 0 1-.307.704 1.08 1.08 0 0 1-.743.292z" fill="#2F9EEE"/><path d="M237.421 166.226H67.842a22.02 22.02 0 0 1-8.05-1.519 21.136 21.136 0 0 1-6.823-4.323 19.911 19.911 0 0 1-4.558-6.471 19.047 19.047 0 0 1-1.599-7.633v-4.841h211.645v4.829a19.033 19.033 0 0 1-1.598 7.636 19.885 19.885 0 0 1-4.559 6.475 21.13 21.13 0 0 1-6.826 4.327 22.043 22.043 0 0 1-8.053 1.52z" fill="#E9DCFF"/><path d="M137.627 131.018c2.241 1.709 8.643 8.574 33.063 8.574 6.809 0 14.168.271 20.146-1.261 15.451-3.978 25.57-9.311 25.57-9.311l-29.919-9.638-26.793.145-22.067 11.491z" fill="#487FA7"/><path d="M158.189 126.972l-11.688 2.105.419 6.039 13.104-.309-1.835-7.835z" fill="#FF9A8D"/><path d="M158.19 126.971s28.33-7.596 37.139-9.72c10.086-2.433 25.385-9.027 30.544-2.913 5.159 6.115-1.13 14.26-15.086 17.828-13.955 3.568-52.105 3.221-52.105 3.221l-.492-8.416z" fill="#5996C3"/><path d="M135.505 125.389a14.127 14.127 0 0 0-.386 4.324c.073 2.938 1.642 5.17 1.802 9.456a13.69 13.69 0 0 0 1.669-7.186 8.302 8.302 0 0 0-.786-3.615 8.736 8.736 0 0 0-2.299-2.979z" fill="#8FC9C6"/><path d="M152.452 135.249c-1.828.189-4.893 1.538-6.768 2.483-1.875.946-2.879 1.929-6.23 1.891 0 0 0-8.39-.372-10.987-.373-2.597-.911-3.045-.911-3.045s3.105.189 4.654.971 1.715 1.141 4.435 1.261c2.719.119 3.836.239 5.026.22a6.909 6.909 0 0 1 1.108 3.582 6.876 6.876 0 0 1-.942 3.624z" fill="#03AA99"/><path d="M144.527 136.245s1.043-4.363-.479-7.344m2.4 6.864c.57-2.155.404-4.426-.472-6.487m2.634 5.636s.917-2.219-.299-5.491" stroke="#AAEEED" stroke-width=".92" stroke-miterlimit="10" stroke-linecap="round"/><path d="M139.453 139.636c-1.057 0-2.353-.044-2.533-.467-.179-.422 1.057-2.925.565-7.892-.259-2.667-2.234-5.8-1.994-5.888.239-.088 1.802-.63 2.659.214.858.845 5.239 6.298 1.303 14.033z" fill="#AAEEED"/><path d="M209.67 71.466c3.683-2.47 11.622-8.195 15.797-20.57a23.43 23.43 0 0 0 1.409-8.402c-2.154-1.721-1.928-4.974-3.889-6.991-2.766-2.837-5.239-6.443.166-6.443 3.012 0 5.785.12 7.267 1.475a22.54 22.54 0 0 1 3.803 5.384c.924 2.521-.146 5.673-.259 9.494-.113 3.82-2.766 27.736-22.226 37.772l-2.068-11.719zm-42.171-9.002a34.063 34.063 0 0 1-.372 4.325c-.28 1.26 0 1.929-4.069 2.597 0 0 1.655 5.043 8.703 5.92 7.047.876 9.926-4.413 9.72-4.413a14.931 14.931 0 0 1-2.806-1.154c-.631-.385-.166-7.754-.166-7.754l-11.01.48z" fill="#FFA681"/><path d="M178.415 63.864s-.864 2.59-5.139 2.862c-4.275.271-5.878-2.295-5.878-2.295l.1-1.966 11.01-.46-.093 1.859z" fill="#F97853"/><path d="M160.769 51.357s-2.214-.328-3.185 1.217c-.97 1.544.24 4.413 2.547 4.904 2.207.46 2.925-.712 2.925-.712l-2.287-5.409z" fill="#FA9870"/><path d="M158.856 52.879a2.08 2.08 0 0 1 1.808-.038c.186.107-.066.403-.232.365-.951-.201-2.061-.107-2.367.952 0 .057-.06 0-.06-.031a1.36 1.36 0 0 1 .237-.74 1.46 1.46 0 0 1 .614-.508z" fill="#BA5964"/><path d="M159.289 52.904c.093-.057.359.151.345.214a1.24 1.24 0 0 0-.439.48c-.14.315-.166.665-.073.995.064.392.267.752.575 1.02.308.268.703.429 1.121.456 0 0 .046.044 0 .05-.738.277-1.709-.36-1.995-.99-.286-.63-.352-1.72.466-2.225z" fill="#BA5964"/><path d="M182.158 47.468s1.928-1.084 3.437 0 1.503 4.192-.452 5.453c-1.955 1.26-2.998.365-2.998.365l.013-5.818z" fill="#FA9870"/><path d="M184.558 48.218a2.138 2.138 0 0 0-.922.111 2.05 2.05 0 0 0-.774.488c-.126.164.22.353.359.258.805-.523 1.875-.82 2.573.057.033.044.06 0 .04-.05a1.414 1.414 0 0 0-.507-.606 1.53 1.53 0 0 0-.769-.258z" fill="#BA5964"/><path d="M184.166 48.395c-.106 0-.272.264-.232.321.221.045.425.145.592.29.251.243.412.557.458.895a1.67 1.67 0 0 1-.136 1.149 1.804 1.804 0 0 1-.861.818v.057c.791 0 1.449-.94 1.449-1.614 0-.675-.312-1.74-1.27-1.916z" fill="#BA5964"/><path d="M174.232 37.3a10.924 10.924 0 0 0-5.319-.41 10.795 10.795 0 0 0-4.873 2.18 11.173 11.173 0 0 0-3.336 4.856 10.66 10.66 0 0 0-.334 5.786 27.99 27.99 0 0 0 .877 3.284l.505 1.507a22.901 22.901 0 0 0 2.7 5.49c.998 1.608 2.496 2.883 4.288 3.651 1.793.769 3.792.992 5.724.64a9.702 9.702 0 0 0 5.068-2.603 8.874 8.874 0 0 0 2.559-4.896c.393-1.995.516-4.028.365-6.052l-.126-1.576a27.217 27.217 0 0 0-.466-3.36 10.925 10.925 0 0 0-2.615-5.218 11.81 11.81 0 0 0-5.017-3.28z" fill="#FFA681"/><path d="M171.636 57.601c.264-1.003 2.424-.94 3.471-.783l-.166.313c-.275.522-.826 1.598-.826 2.35 0 .94-1.653.627-1.818.47-.165-.156-.992-1.096-.661-2.35z" fill="#fff"/><path d="M173.841 54.298a4.099 4.099 0 0 1-.881.15v-.397c.429 0 1.06-.155 1.142-.346.027-.067-.033-.18-.169-.314-.919-.913-2.001-3.609-2.044-3.732l.386-.14c0 .031 1.087 2.748 1.957 3.609a.661.661 0 0 1 .256.732.94.94 0 0 1-.647.438z" fill="#DB614D"/><path d="M175.815 48.911a1.034 1.034 0 0 1 .068-.632c.088-.2.237-.37.428-.49a1.196 1.196 0 0 1 1.282.012c.189.123.334.295.419.496a1.043 1.043 0 0 1-.271 1.19c-.164.15-.372.25-.597.288a1.193 1.193 0 0 1-.852-.172 1.08 1.08 0 0 1-.477-.692zm.279-3.921l5.392.965a3.525 3.525 0 0 0-.894-1.317 3.76 3.76 0 0 0-1.407-.82 3.037 3.037 0 0 0-2.353 0 1.3 1.3 0 0 0-.551.483 1.207 1.207 0 0 0-.187.689zm-9.262 1.545l-3.943 3.624a3.355 3.355 0 0 1-.026-1.565 3.457 3.457 0 0 1 .691-1.423c.224-.325.517-.602.86-.812.344-.21.73-.35 1.135-.41.25-.028.504.012.731.116.227.104.419.267.552.47zm1.821 3.838a1.066 1.066 0 0 0-.305-.56 1.16 1.16 0 0 0-.582-.305 1.2 1.2 0 0 0-.662.054 1.14 1.14 0 0 0-.519.394 1.042 1.042 0 0 0-.014 1.206c.124.18.302.321.51.405.209.084.439.107.661.067.296-.055.557-.218.728-.454.17-.236.236-.525.183-.807z" fill="#001C45"/><path d="M162.06 41.473s2.866 4.09 7.573 5.295c4.707 1.204 7.366-3.959 6.888-6.304 0 0 4.607 7.023 5.638 7.004a13.88 13.88 0 0 0 .758-6.002 7.435 7.435 0 0 0-1.081-3.367 7.903 7.903 0 0 0-2.543-2.564 3.444 3.444 0 0 0-1.925-.606 3.455 3.455 0 0 0-1.938.568 7.986 7.986 0 0 0-3.461-3.378 8.59 8.59 0 0 0-4.883-.865c-5.551.593-7.712 4.23-6.901 9.784 0 0-2.088-.561-3.324 1.733-1.237 2.295.139 6.758 1.802 8.87a6.661 6.661 0 0 1 2.147-.31s-.977-3.668-.06-6.89c.705-2.603 1.31-2.968 1.31-2.968z" fill="#001C45"/><path d="M164.805 69.033c.499 1.891 3.325 4.923 7.467 5.106 4.142.183 7.539-2.446 8.104-3.6 3.444.303 7.819 1.186 9.308 1.444 2.088.36 4.103 2.118 3.325 7.672-.718 5.396-5.233 39.5-5.233 39.5s-11.934 4.413-28.063.366c0 0-9.761-37.017-10.638-40.219-.878-3.202-1.928-6.588 1.157-7.596 3.085-1.009 14.573-2.673 14.573-2.673z" fill="#0172D0"/><path d="M178.13 108.413c.219.043.441.075.665.095 2.28.227 1.243-2.207.531-3.152-1.097-1.463-8.643-7.023-8.643-7.023l-5.884.473-6.615 2.585-2.726 2.004c.552 2.081 1.084 4.104 1.582 5.976 2.474-1.469 8.457-4.955 9.787-5.074a4.937 4.937 0 0 1 2.327.51c1.077.435 2.161.839 3.265 1.217.498.176.997.347 1.476.567.864.397 1.655.946 2.526 1.324.546.231 1.12.399 1.709.498z" fill="#015AA3"/><path d="M203.534 96.745l4.282 1.935m-6.097 1.431l4.288 1.942" stroke="#274D79" stroke-width="2.1" stroke-miterlimit="10" stroke-linecap="round"/><path d="M141.914 114.332c5.631.782 15.618.971 24.434-6.6 7.107-6.096 13.589-17.727 30.084-12.608" stroke="#274D79" stroke-width="2" stroke-miterlimit="10"/><path d="M204.191 94.544c1.948.978-2.034 8.12-3.989 7.143l-2.713-1.356a4.22 4.22 0 0 1-1.291-.995 3.956 3.956 0 0 1-.791-1.388 3.836 3.836 0 0 1-.17-1.57 3.88 3.88 0 0 1 .477-1.512 4.217 4.217 0 0 1 2.511-1.972 4.474 4.474 0 0 1 3.247.289l2.719 1.361z" fill="#03AA99"/><path d="M145.891 77.303s-13.344 22.871-15.771 26.729c-2.426 3.858-1.928 8.195-1.429 9.273.499 1.078 7.426 1.828 13.776-.473 6.349-2.301 22.705-10.181 23.935-10.792a30.594 30.594 0 0 0 3.111 1.677c2.181.977 3.95 1.014 5.366 2.029.937.672 1.933 1.747 3.291 2.035.694.148 1.483.089 2.407-.333 1.628-.743-1.995-5.547-3.597-8.195-1.583-1.26-7.221-3.492-10.046-3.114-3.989.543-24.088 7.023-24.088 7.023l7.28-11.908-4.235-13.95z" fill="#FFA681"/><path d="M150.944 71.498c-3.278.977-4.534 2.521-7.746 8.024-3.211 5.504-7.446 12.255-7.446 12.255 2.681 3.42 6.625 5.754 11.043 6.537l5.153-8.258-1.004-18.558zm38.721.485c3.923.63 13.902 3.379 20.006-.51 2.493 3.955 3.652 8.539 3.324 13.137 0 0-8.271 6.99-21.202 4.185l-2.128-16.812z" fill="#0172D0"/><path d="M190.834 128.699l11.476 2.988-.931 5.982-13.031-1.299 2.486-7.671z" fill="#FF9A8D"/><path d="M190.835 128.699s-26.362-8.624-36.142-12.015c-9.78-3.392-24.101-10.187-29.759-4.482-5.658 5.705-.931 14.196 12.679 18.817 13.61 4.62 52.052 6.007 52.052 6.007a15.286 15.286 0 0 0 1.17-8.327z" fill="#94D2FF"/><path d="M213.579 128.831a14.205 14.205 0 0 1 0 4.337c-.319 2.925-2.075 5.043-2.593 9.292a13.62 13.62 0 0 1-1.064-7.287 8.357 8.357 0 0 1 1.1-3.548 8.855 8.855 0 0 1 2.557-2.794z" fill="#8FC9C6"/><path d="M195.855 137.386c1.808.321 4.747 1.891 6.536 2.988 1.788 1.096 2.706 2.137 6.05 2.37 0 0 .718-8.365 1.296-10.925.579-2.559 1.164-2.963 1.164-2.963s-3.105-.05-4.707.631c-1.603.681-1.809 1.008-4.528.901-2.719-.107-3.85-.05-5.026-.157a6.928 6.928 0 0 0-1.412 3.477 6.808 6.808 0 0 0 .627 3.678z" fill="#03AA99"/><path d="M203.666 138.974s-.664-4.413 1.104-7.281m-2.971 6.632a10.005 10.005 0 0 1 1.017-6.43m-3.105 5.446s-.724-2.276.765-5.446" stroke="#AAEEED" stroke-width=".92" stroke-miterlimit="10" stroke-linecap="round"/><path d="M208.441 142.744c1.057.063 2.347.132 2.566-.271.219-.404-.811-3.001.1-7.912.485-2.641 2.719-5.61 2.473-5.717-.246-.107-1.742-.776-2.659 0-.918.775-5.771 5.888-2.48 13.9z" fill="#AAEEED"/><path d="M190.802 133.181h-.592s-17.18-1.053-35.583-3.934c-18.078-2.824-30.298-8.586-31.913-12.828-.805 5.131 4.401 11.025 14.932 14.6 13.59 4.614 52.019 6.007 52.019 6.007a15.531 15.531 0 0 0 1.137-3.845z" fill="#5996C4"/><path d="M187.424 127.23c0 2.257-.512 7.325-1.563 10.439" stroke="#274D79" stroke-width=".78" stroke-miterlimit="10"/><path d="M151.947 90.056s2.055-5.15.665-12.752c0 0 2.566 9.272-.219 14.385l-.446-1.633zm39.858-1.26a35.436 35.436 0 0 0-.592-11.347s1.629 3.151 1.549 11.517l-.957-.17z" fill="#015AA3"/><path d="M109.856 118.846c2.38-.46 6.562-.857 9.534 1.601 1.895 1.576.997 1.847-.665 1.822-2.852-.05-5.126 2.219-5.126 2.219s-3.71.403-4.621-2.389c-1.356-4.054.878-3.253.878-3.253z" fill="#E09B36"/><path d="M100.78 139.453h18.323c4.189.088 7.041-.214 9.095-1.941 2.387-1.999 2.8-5.573 2.421-8.303-.446-1.096-2.979-.283-6.104-.788-2.832-.453-4.468-1.664-6.09-3.712-1.622-2.049-2.473-2.85-5.658-4.319a7.266 7.266 0 0 0-3.165-.731 13.894 13.894 0 0 1 2.826-3.826c2.061-1.803-1.616-2.522-5.798-.738a22.112 22.112 0 0 0-6.92 5.106c-1.19 1.261-4.296 1.091-7.653-1.361-3.358-2.453-15.166-12.608-28.077-10.906-12.912 1.702-21.887 11.738-23.204 18.949-1.316 7.212 1.217 11.303 3.411 12.608l56.593-.038z" fill="#FFC86B"/><path d="M41.88 126.94c-3.597-1.847-12.792-1.967-19.713 3.265-6.755 5.1-9.568 15.76-3.99 23.772 5.579 8.012 16.569 8.283 17.992 7.149 1.423-1.135-5.871-5.239-7.852-10.471 0 0 3.942 2.377 6.19 2.604 2.247.226-3.431-5.277-3.99-11.114-.558-5.838 2.447-12.23 9.92-11.977l1.443-3.228z" fill="#FFC86B"/><path d="M130.42 133.105c-.399.076-.253-2.03-.738-1.828-.486.202.299 1.261.299 1.261-1.39-.328-3.324-2.213-2.56-3.379.765-1.166 3.052-.63 3.577-.448.805.335 1.363 2.875-.578 4.394z" fill="#001C45"/><path d="M61.766 117.131a8.683 8.683 0 0 1 4.25 1.803 8 8 0 0 1 2.598 3.663c1.894 5.081-.213 8.132-1.776 9.771 0 0 7.035-.631 10.16 1.324 3.124 1.954 2.845 5.768 2.845 5.768h1.715s.074-4.665-3.218-6.619a13.488 13.488 0 0 0-7.918-2.081 10.52 10.52 0 0 0 .784-4.332 10.564 10.564 0 0 0-1.063-4.279c-2.22-4.665-6.43-5.295-8.377-5.018zm25.862 14.965s7.313-.775 10.418 1.444c3.105 2.219 2.733 5.913 2.733 5.913h1.735s.459-3.946-2.66-6.36c-3.117-2.415-10.145-1.671-12.226-.997z" fill="#E09B36"/><path d="M108.666 128.888s-.3-1.727 1.854-2.181c2.327-.492 2.952 1.16 2.952 1.16a5.222 5.222 0 0 0-2.732-.069 5.477 5.477 0 0 0-2.074 1.09z" fill="#001C45"/><path d="M117.46 13.988l14.122 13.868-4.727 5.043-15.658-12.235 6.263-6.676zm18.769 17.386c.413.338.742.757.964 1.229.217.45.345.932.379 1.425a3.647 3.647 0 0 1-.997 2.76 3.83 3.83 0 0 1-1.29.921 4.288 4.288 0 0 1-3.032.177 4.04 4.04 0 0 1-1.396-.77 3.81 3.81 0 0 1-1.369-2.653 3.81 3.81 0 0 1 .199-1.463 3.65 3.65 0 0 1 .794-1.32 3.88 3.88 0 0 1 1.287-.905 4.506 4.506 0 0 1 1.509-.36 4.44 4.44 0 0 1 1.556.196c.515.162.99.421 1.396.763zm10.518-12.639l-6.322 1.494a9.698 9.698 0 0 1-.599-3.196 6.612 6.612 0 0 1 .406-2.34 5.59 5.59 0 0 1 1.004-1.688c.385-.444.798-.865 1.236-1.261a16.19 16.19 0 0 0 1.084-1.034 1.85 1.85 0 0 0 .519-1.072 1.416 1.416 0 0 0-.12-.75 1.563 1.563 0 0 0-.585-.7 2.7 2.7 0 0 0-1.144-.397 4.726 4.726 0 0 0-1.742.139c-.531.133-1.052.297-1.562.492a17.69 17.69 0 0 0-1.842.813c-.633.321-1.248.675-1.841 1.059a11.27 11.27 0 0 0-1.556 1.204l-2.66-6.752a32.2 32.2 0 0 1 1.33-1.178c.54-.44 1.113-.84 1.716-1.198a18.676 18.676 0 0 1 2.14-1.084 16.262 16.262 0 0 1 2.6-.839 15.857 15.857 0 0 1 4.508-.428 11.69 11.69 0 0 1 4.049.926 9.272 9.272 0 0 1 3.184 2.307 8.837 8.837 0 0 1 1.935 3.713c.282.917.352 1.88.206 2.825a5.021 5.021 0 0 1-.851 1.979 7.734 7.734 0 0 1-1.469 1.52c-.565.447-1.117.92-1.642 1.411a8.252 8.252 0 0 0-1.363 1.69 4.957 4.957 0 0 0-.619 2.345zm2.168 4.457c.137.5.16 1.022.066 1.531a3.801 3.801 0 0 1-.545 1.38 3.902 3.902 0 0 1-1.03 1.091 3.937 3.937 0 0 1-1.437.63 3.983 3.983 0 0 1-1.609.07 4.266 4.266 0 0 1-1.456-.498 3.93 3.93 0 0 1-1.15-.983 3.527 3.527 0 0 1-.665-1.38 3.604 3.604 0 0 1-.073-1.526c.075-.493.254-.967.526-1.394a4.139 4.139 0 0 1 1.03-1.103 4 4 0 0 1 1.442-.665 4.119 4.119 0 0 1 1.603-.06 4.425 4.425 0 0 1 1.456.517c.453.259.851.597 1.17.996.324.415.553.89.672 1.394z" fill="#F5FBFF"/></svg>