<svg width="727" height="423" fill="none" xmlns="http://www.w3.org/2000/svg"><path d="M524.207 96.187s23.141-26.454 67.515-9.602c44.375 16.851 87.771 86.115 47.413 169.878" stroke="#274D79" stroke-width="2" stroke-miterlimit="10"/><path d="M528.73 114.639c-2.042 4.945-22.195-2.497-20.254-7.442l2.819-6.881c1.044-2.534 3.105-4.572 5.731-5.667a11.383 11.383 0 0 1 8.278-.175 10.9 10.9 0 0 1 3.561 2.151 10.267 10.267 0 0 1 2.422 3.28 9.82 9.82 0 0 1 .913 3.91 9.785 9.785 0 0 1-.735 3.942l-2.735 6.882z" fill="#03AA99"/><path d="M508.56 107.196c-2.312 4.802 18.128 12.387 20.255 7.442 1.451-3.825-18.601-10.93-20.255-7.442z" fill="#3B55CE"/><path d="M516.527 110.91c-.22.624-1.199.864-2.161.56-.962-.304-1.586-1.072-1.367-1.601.219-.528 1.198-.864 2.16-.56.963.304 1.587.977 1.368 1.601zm7.157 2.512c-.22.608-1.199.864-2.161.544-.962-.32-1.587-1.056-1.367-1.6.219-.545 1.181-.865 2.16-.561.979.305 1.587.993 1.368 1.617z" fill="#000E5B"/><path d="M635.894 354.966c-5.765-1.775-10.8-5.217-14.397-9.843-5.689-7.569-2.65-25.606 7.207-30.791 9.857-5.185 17.436-11.202 15.917-25.302-1.519-14.099 3.375-25.157 15.916-26.598 12.541-1.44 17.436-1.6 29.96-12.306 12.525-10.707 22.736-12.387 27.665-6.322 4.929 6.066 1.148 14.243-1.519 21.461-2.667 7.218 6.836 14.611 8.726 21.893 1.891 7.282.372 16.66-9.486 21.845-9.857 5.185-16.676 9.346-15.528 18.772 1.147 9.426-4.558 23.734-25.791 27.206l-38.67-.015z" fill="#C1CCFF"/><path d="M702.245 258.927s-46.18 34.36-54.367 96.022" stroke="#fff" stroke-width="1.57" stroke-miterlimit="10" stroke-linecap="round"/><path d="M592.684 233.305c-7.275 4.337-6.751 11.843-6.448 21.381.304 9.538-2.498 13.011-8.27 19.365-5.773 6.353-2.65 16.003 7.359 20.372s18.736 10.979 13.419 22.213c-5.317 11.235-3.376 31.64 22.752 38.409h33.64s23.63-13.027 26.635-36.808c3.004-23.782-17.065-25.846-22.753-33.848-5.688-8.002-3.983-18.756-3.882-29.703.101-10.946-8.625-16.484-20.373-15.875-11.748.608-16.339 0-22.415-3.937-6.076-3.937-13.604-5.186-19.664-1.569z" fill="#D8EFFF"/><path d="M604.381 247.421c0 .32 40.915 26.63 38.906 107.416" stroke="#fff" stroke-width="1.57" stroke-miterlimit="10" stroke-linecap="round"/><path d="M698.802 359.607H2.65c-.35 0-.695-.066-1.018-.193a2.66 2.66 0 0 1-.862-.549 2.505 2.505 0 0 1-.573-.821 2.396 2.396 0 0 1-.197-.966c0-.666.28-1.305.776-1.777a2.726 2.726 0 0 1 1.874-.736h696.152c.349-.002.696.062 1.019.187.324.125.618.31.865.544.248.233.445.511.579.817.135.306.204.634.204.965 0 .671-.281 1.314-.781 1.788a2.747 2.747 0 0 1-1.886.741z" fill="#2F9EEE"/><path d="M602.744 422.533H172.232a55.927 55.927 0 0 1-20.434-3.855c-6.479-2.544-12.365-6.274-17.323-10.977-4.958-4.702-8.89-10.284-11.572-16.427a48.354 48.354 0 0 1-4.059-19.376v-12.291h537.305v12.259a48.385 48.385 0 0 1-4.055 19.387c-2.682 6.147-6.615 11.733-11.575 16.438-4.959 4.705-10.848 8.438-17.33 10.985a55.962 55.962 0 0 1-20.445 3.857z" fill="#E9DCFF"/><path d="M349.393 333.152c5.688 4.337 21.942 21.765 83.938 21.765 17.284 0 35.969.688 51.143-3.201 39.227-10.098 64.916-23.637 64.916-23.637l-75.955-24.47-68.021.368-56.021 29.175z" fill="#487FA7"/><path d="M401.599 322.878l-29.673 5.345 1.063 15.332 33.268-.784-4.658-19.893z" fill="#FF9A8D"/><path d="M401.599 322.877s71.921-19.284 94.285-24.677c25.606-6.178 64.444-22.917 77.542-7.394 13.098 15.524-2.869 36.2-38.298 45.258-35.429 9.059-132.28 8.178-132.28 8.178l-1.249-21.365z" fill="#5996C3"/><path d="M344.008 318.86a35.91 35.91 0 0 0-.979 10.979c.186 7.457 4.169 13.123 4.574 24.005 3.068-5.626 4.529-11.916 4.237-18.244a21.065 21.065 0 0 0-1.995-9.178 22.141 22.141 0 0 0-5.837-7.562z" fill="#8FC9C6"/><path d="M387.032 343.891c-4.642.48-12.423 3.905-17.183 6.305-4.759 2.401-7.308 4.897-15.815 4.801 0 0 0-21.301-.945-27.894-.945-6.594-2.313-7.73-2.313-7.73s7.883.48 11.816 2.465c3.932 1.984 4.354 2.896 11.258 3.2 6.903.304 9.739.609 12.76.56a17.513 17.513 0 0 1 2.812 9.093 17.447 17.447 0 0 1-2.39 9.2z" fill="#03AA99"/><path d="M366.913 346.419s2.65-11.074-1.216-18.644m6.094 17.427a25.387 25.387 0 0 0-1.199-16.468m6.685 14.308s2.329-5.633-.76-13.939" stroke="#AAEEED" stroke-width=".92" stroke-miterlimit="10" stroke-linecap="round"/><path d="M354.034 355.029c-2.684 0-5.975-.112-6.431-1.185-.455-1.072 2.684-7.425 1.435-20.036-.658-6.77-5.671-14.724-5.064-14.948.608-.224 4.574-1.6 6.752.544 2.177 2.145 13.3 15.988 3.308 35.625z" fill="#AAEEED"/><path d="M532.292 181.966c9.351-6.274 29.504-20.805 40.104-52.22a59.46 59.46 0 0 0 3.578-21.333c-5.468-4.369-4.894-12.627-9.874-17.748-7.021-7.202-13.3-16.356.422-16.356 7.646 0 14.685.304 18.449 3.745a57.257 57.257 0 0 1 9.655 13.667c2.346 6.402-.372 14.403-.659 24.102-.287 9.698-7.021 70.416-56.426 95.894l-5.249-29.751zm-107.063-22.854a85.766 85.766 0 0 1-.945 10.979c-.709 3.201 0 4.897-10.33 6.593 0 0 4.203 12.803 22.095 15.028 17.891 2.224 25.2-11.203 24.676-11.203a37.88 37.88 0 0 1-7.122-2.928c-1.604-.977-.422-19.685-.422-19.685l-27.952 1.216z" fill="#FFA681"/><path d="M452.944 162.666s-2.194 6.578-13.047 7.266c-10.853.688-14.921-5.826-14.921-5.826l.253-4.993 27.952-1.168-.237 4.721z" fill="#F97853"/><path d="M408.148 130.915s-5.621-.832-8.085 3.089c-2.464 3.921.608 11.202 6.464 12.45 5.604 1.169 7.427-1.808 7.427-1.808l-5.806-13.731z" fill="#FA9870"/><path d="M403.29 134.777a5.29 5.29 0 0 1 2.284-.57 5.292 5.292 0 0 1 2.307.474c.473.272-.168 1.024-.59.928-2.414-.512-5.233-.272-6.009 2.416 0 .144-.152 0-.152-.08.012-.666.22-1.317.602-1.877a3.713 3.713 0 0 1 1.558-1.291z" fill="#BA5964"/><path d="M404.388 134.842c.236-.145.911.384.877.544a3.127 3.127 0 0 0-1.114 1.216c-.356.8-.422 1.69-.185 2.529a4.37 4.37 0 0 0 1.459 2.588 4.806 4.806 0 0 0 2.845 1.156s.118.112 0 .128c-1.874.705-4.338-.912-5.064-2.512-.726-1.601-.894-4.369 1.182-5.649z" fill="#BA5964"/><path d="M462.447 121.041s4.895-2.752 8.727 0c3.831 2.753 3.814 10.643-1.148 13.843-4.962 3.201-7.612.929-7.612.929l.033-14.772z" fill="#FA9870"/><path d="M468.54 122.946a5.417 5.417 0 0 0-2.34.281 5.201 5.201 0 0 0-1.964 1.239c-.32.416.557.896.912.656 2.042-1.328 4.76-2.08 6.532.144.084.112.152 0 .101-.128a3.593 3.593 0 0 0-1.288-1.538 3.869 3.869 0 0 0-1.953-.654z" fill="#BA5964"/><path d="M467.545 123.393c-.27 0-.692.672-.591.816a3.303 3.303 0 0 1 1.502.736 3.893 3.893 0 0 1 1.165 2.273 4.25 4.25 0 0 1-.346 2.916 4.578 4.578 0 0 1-2.186 2.077v.144c2.008 0 3.679-2.384 3.679-4.097 0-1.712-.793-4.417-3.223-4.865z" fill="#BA5964"/><path d="M442.327 95.227a27.732 27.732 0 0 0-13.503-1.04c-4.56.797-8.824 2.705-12.372 5.537-3.913 3.334-6.833 7.584-8.468 12.326a27.06 27.06 0 0 0-.849 14.688 71.577 71.577 0 0 0 2.228 8.338l1.283 3.825a58.064 58.064 0 0 0 6.853 13.939c2.533 4.08 6.336 7.318 10.887 9.268a25.414 25.414 0 0 0 14.531 1.627c4.905-.892 9.398-3.201 12.865-6.61 3.466-3.409 5.735-7.751 6.496-12.431a57.36 57.36 0 0 0 .929-15.364l-.321-4.001a69.162 69.162 0 0 0-1.182-8.529c-.949-4.892-3.239-9.461-6.641-13.248-3.401-3.786-7.793-6.658-12.736-8.325z" fill="#FFA681"/><path d="M435.733 146.767c.671-2.546 6.154-2.387 8.811-1.989l-.419.795c-.7 1.326-2.098 4.058-2.098 5.968 0 2.387-4.196 1.591-4.616 1.193-.419-.398-2.517-2.785-1.678-5.967z" fill="#fff"/><path d="M441.331 138.382c-.728.207-1.478.335-2.236.379v-1.008c1.09 0 2.691-.392 2.898-.876.069-.171-.083-.459-.428-.799-2.332-2.316-5.079-9.161-5.19-9.475l.98-.353c0 .078 2.761 6.975 4.97 9.161.292.212.51.503.626.834.115.332.123.688.022 1.024a2.332 2.332 0 0 1-.693.727 2.495 2.495 0 0 1-.949.386z" fill="#DB614D"/><path d="M446.345 124.705a2.629 2.629 0 0 1 .173-1.605 2.8 2.8 0 0 1 1.087-1.241 3.028 3.028 0 0 1 1.632-.456c.58.005 1.145.174 1.623.484a2.8 2.8 0 0 1 1.063 1.26c.215.511.264 1.071.142 1.608a2.746 2.746 0 0 1-.828 1.41 2.988 2.988 0 0 1-1.516.732 3.031 3.031 0 0 1-2.165-.436 2.747 2.747 0 0 1-1.211-1.756zm.709-9.954l13.688 2.448a8.92 8.92 0 0 0-2.269-3.342 9.55 9.55 0 0 0-3.571-2.083 7.719 7.719 0 0 0-2.987-.599 7.727 7.727 0 0 0-2.988.599 3.307 3.307 0 0 0-1.398 1.227 3.068 3.068 0 0 0-.475 1.75zm-23.513 3.921l-10.009 9.202a8.519 8.519 0 0 1-.066-3.975 8.76 8.76 0 0 1 1.754-3.611 7.21 7.21 0 0 1 2.184-2.062 7.65 7.65 0 0 1 2.88-1.042 3.533 3.533 0 0 1 1.856.295 3.326 3.326 0 0 1 1.401 1.193zm4.625 9.745a2.701 2.701 0 0 0-.774-1.422c-.4-.391-.915-.66-1.477-.774a3.06 3.06 0 0 0-1.682.137c-.534.202-.992.55-1.317 1-.325.45-.502.981-.508 1.526-.006.546.159 1.08.473 1.537.315.456.766.813 1.295 1.026a3.042 3.042 0 0 0 1.678.171 2.936 2.936 0 0 0 1.846-1.152c.433-.599.6-1.334.466-2.049z" fill="#001C45"/><path d="M411.422 105.821s7.275 10.386 19.225 13.443c11.951 3.056 18.702-10.051 17.487-16.004 0 0 11.697 17.828 14.313 17.78a35.215 35.215 0 0 0 1.924-15.235 18.882 18.882 0 0 0-2.742-8.55 20.086 20.086 0 0 0-6.457-6.51 8.746 8.746 0 0 0-4.887-1.537 8.762 8.762 0 0 0-4.919 1.441c-1.925-3.65-4.994-6.646-8.788-8.575a21.805 21.805 0 0 0-12.395-2.195c-14.094 1.504-19.58 10.738-17.52 24.837 0 0-5.3-1.424-8.44 4.401-3.139 5.826.355 17.156 4.574 22.518a16.931 16.931 0 0 1 5.452-.785s-2.481-9.314-.152-17.492c1.789-6.609 3.325-7.537 3.325-7.537z" fill="#001C45"/><path d="M418.393 175.789c1.266 4.801 8.44 12.499 18.955 12.963 10.516.464 19.141-6.21 20.576-9.138 8.743.768 19.849 3.008 23.63 3.664 5.3.913 10.414 5.378 8.44 19.477-1.823 13.699-13.284 100.279-13.284 100.279s-30.298 11.202-71.246.928c0 0-24.778-93.974-27.006-102.103-2.228-8.13-4.895-16.724 2.937-19.285 7.832-2.56 36.998-6.785 36.998-6.785z" fill="#0172D0"/><path d="M452.219 275.763c.557.11 1.121.19 1.687.24 5.79.577 3.157-5.601 1.351-8.001-2.785-3.713-21.943-17.829-21.943-17.829l-14.938 1.201-16.794 6.561-6.92 5.089c1.401 5.282 2.751 10.419 4.017 15.172 6.279-3.729 21.47-12.579 24.845-12.883a12.554 12.554 0 0 1 5.908 1.296 163.405 163.405 0 0 0 8.288 3.089c1.266.448 2.531.88 3.747 1.44 2.194 1.009 4.203 2.401 6.414 3.361a19.393 19.393 0 0 0 4.338 1.264z" fill="#015AA3"/><path d="M516.713 246.141l10.87 4.913m-15.478 3.633l10.887 4.929" stroke="#274D79" stroke-width="2.1" stroke-miterlimit="10" stroke-linecap="round"/><path d="M360.279 290.79c14.297 1.984 39.649 2.464 62.03-16.756 18.044-15.476 34.501-45.002 76.377-32.007" stroke="#274D79" stroke-width="2" stroke-miterlimit="10"/><path d="M518.384 240.555c4.945 2.48-5.165 20.612-10.127 18.132l-6.887-3.441a10.714 10.714 0 0 1-3.279-2.527 10.093 10.093 0 0 1-2.008-3.525 9.743 9.743 0 0 1-.431-3.985 9.87 9.87 0 0 1 1.211-3.838c1.342-2.404 3.635-4.204 6.376-5.006a11.355 11.355 0 0 1 8.241.733l6.904 3.457z" fill="#03AA99"/><path d="M370.373 196.785s-33.876 58.061-40.037 67.855c-6.16 9.794-4.895 20.805-3.629 23.541 1.266 2.737 18.854 4.642 34.973-1.2 16.12-5.841 57.642-25.846 60.764-27.398a76.876 76.876 0 0 0 7.9 4.257c5.536 2.48 10.026 2.577 13.621 5.153 2.379 1.705 4.907 4.434 8.355 5.166 1.762.374 3.764.227 6.11-.845 4.135-1.888-5.064-14.083-9.131-20.805-4.018-3.2-18.331-8.866-25.504-7.905-10.128 1.376-61.153 17.828-61.153 17.828l18.483-30.231-10.752-35.416z" fill="#FFA681"/><path d="M383.201 182.046c-8.321 2.48-11.511 6.401-19.664 20.372-8.152 13.972-18.904 31.112-18.904 31.112 6.807 8.682 16.82 14.608 28.036 16.595l13.081-20.964-2.549-47.115zm98.302 1.232c9.959 1.6 35.294 8.578 50.789-1.297 6.329 10.044 9.273 21.679 8.439 33.352 0 0-20.997 17.748-53.826 10.626l-5.402-42.681z" fill="#0172D0"/><path d="M484.474 327.263l29.133 7.586-2.363 15.187-33.082-3.296 6.312-19.477z" fill="#FF9A8D"/><path d="M484.474 327.263s-66.925-21.893-91.753-30.503c-24.829-8.61-61.186-25.862-75.55-11.379-14.364 14.484-2.363 36.041 32.188 47.771 34.551 11.731 132.144 15.252 132.144 15.252 2.954-6.672 3.98-13.969 2.971-21.141z" fill="#94D2FF"/><path d="M542.217 327.6c.566 3.65.566 7.36 0 11.01-.81 7.426-5.266 12.803-6.583 23.59a34.578 34.578 0 0 1-2.7-18.501 21.223 21.223 0 0 1 2.793-9.007 22.459 22.459 0 0 1 6.49-7.092z" fill="#8FC9C6"/><path d="M497.218 349.317c4.591.816 12.051 4.801 16.592 7.586 4.54 2.784 6.87 5.425 15.36 6.017 0 0 1.823-21.237 3.291-27.734 1.468-6.498 2.954-7.522 2.954-7.522s-7.883-.128-11.95 1.6c-4.068 1.729-4.591 2.561-11.495 2.289-6.903-.272-9.773-.128-12.76-.4-1.997 2.59-3.234 5.635-3.584 8.827a17.292 17.292 0 0 0 1.592 9.337z" fill="#03AA99"/><path d="M517.051 353.35s-1.688-11.202 2.802-18.484m-7.545 16.835c-.986-5.563-.081-11.28 2.582-16.324m-7.882 13.827s-1.84-5.777 1.941-13.827" stroke="#AAEEED" stroke-width=".92" stroke-miterlimit="10" stroke-linecap="round"/><path d="M529.17 362.92c2.683.16 5.958.336 6.515-.688.557-1.024-2.059-7.618.253-20.085 1.232-6.705 6.904-14.243 6.279-14.515-.625-.272-4.422-1.968-6.752 0-2.329 1.968-14.65 14.947-6.295 35.288z" fill="#AAEEED"/><path d="M484.39 338.642h-1.503s-43.615-2.673-90.335-9.986c-45.894-7.17-76.917-21.797-81.019-32.568-2.042 13.027 11.174 27.991 37.91 37.065 34.5 11.714 132.06 15.251 132.06 15.251a39.4 39.4 0 0 0 2.887-9.762z" fill="#5996C4"/><path d="M475.815 323.534c0 5.73-1.3 18.597-3.966 26.502" stroke="#274D79" stroke-width=".78" stroke-miterlimit="10"/><path d="M385.75 229.16s5.215-13.075 1.687-32.375c0 0 6.516 23.541-.557 36.52l-1.13-4.145zm101.188-3.2a89.895 89.895 0 0 0-1.502-28.806s4.135 8.001 3.933 29.238l-2.431-.432z" fill="#015AA3"/><path d="M278.89 302.249c6.042-1.168 16.659-2.176 24.204 4.065 4.81 4.001 2.532 4.689-1.688 4.625-7.241-.128-13.013 5.634-13.013 5.634s-9.419 1.024-11.731-6.066c-3.444-10.29 2.228-8.258 2.228-8.258z" fill="#E09B36"/><path d="M255.85 354.565h46.518c10.634.224 17.875-.544 23.09-4.929 6.06-5.073 7.106-14.147 6.144-21.077-1.131-2.784-7.562-.72-15.495-2-7.19-1.152-11.342-4.225-15.461-9.426-4.118-5.202-6.279-7.234-14.364-10.963a18.411 18.411 0 0 0-8.034-1.856 35.237 35.237 0 0 1 7.174-9.714c5.232-4.578-4.102-6.402-14.719-1.873-6.707 3.171-12.68 7.578-17.571 12.963-3.021 3.201-10.903 2.769-19.427-3.457-8.524-6.225-38.501-32.007-71.28-27.686-32.778 4.321-55.565 29.799-58.907 48.107-3.342 18.308 3.089 28.694 8.659 32.007l143.673-.096z" fill="#FFC86B"/><path d="M106.32 322.798c-9.131-4.689-32.475-4.993-50.046 8.29-17.149 12.947-24.289 40.009-10.127 60.35 14.161 20.34 42.062 21.029 45.674 18.148 3.612-2.881-14.904-13.299-19.934-26.582 0 0 10.01 6.033 15.714 6.609 5.705.577-8.71-13.395-10.127-28.214-1.418-14.819 6.211-31.047 25.183-30.407l3.663-8.194z" fill="#FFC86B"/><path d="M331.096 338.45c-1.013.192-.642-5.153-1.874-4.641-1.232.512.76 3.201.76 3.201-3.528-.833-8.44-5.618-6.499-8.579 1.941-2.96 7.748-1.6 9.081-1.136 2.042.848 3.46 7.298-1.468 11.155z" fill="#001C45"/><path d="M156.805 297.897c3.977.537 7.715 2.122 10.789 4.575 3.074 2.453 5.359 5.676 6.596 9.3 4.81 12.899-.54 20.645-4.507 24.805 0 0 17.858-1.6 25.791 3.361s7.224 14.644 7.224 14.644h4.355s.186-11.843-8.169-16.804c-5.92-3.782-12.975-5.635-20.103-5.281a26.703 26.703 0 0 0 1.989-10.999 26.812 26.812 0 0 0-2.698-10.862c-5.638-11.843-16.322-13.444-21.267-12.739zm65.658 37.992s18.567-1.969 26.45 3.665c7.882 5.633 6.937 15.011 6.937 15.011h4.405s1.165-10.018-6.751-16.148c-7.917-6.129-25.758-4.241-31.041-2.528z" fill="#E09B36"/><path d="M275.868 327.744s-.759-4.385 4.71-5.538c5.907-1.248 7.494 2.945 7.494 2.945a13.286 13.286 0 0 0-6.937-.176 13.927 13.927 0 0 0-5.267 2.769z" fill="#001C45"/><path d="M298.199 36.044l35.85 35.208-12 12.803-39.75-31.063 15.9-16.948zm47.649 44.138a8.994 8.994 0 0 1 2.447 3.121 9.88 9.88 0 0 1 .962 3.617 9.271 9.271 0 0 1-.506 3.697 9.254 9.254 0 0 1-2.026 3.313 9.716 9.716 0 0 1-3.274 2.336 10.886 10.886 0 0 1-7.697.448 10.265 10.265 0 0 1-3.544-1.952c-2.05-1.724-3.3-4.145-3.477-6.738a9.691 9.691 0 0 1 .506-3.713 9.278 9.278 0 0 1 2.015-3.35 9.885 9.885 0 0 1 3.268-2.299 11.442 11.442 0 0 1 3.832-.912c1.337-.07 2.677.098 3.949.496a10.283 10.283 0 0 1 3.545 1.936zm26.702-32.087l-16.051 3.793a24.605 24.605 0 0 1-1.52-8.114c-.018-2.02.33-4.029 1.03-5.937a14.226 14.226 0 0 1 2.549-4.29 37.036 37.036 0 0 1 3.139-3.2 41.085 41.085 0 0 0 2.752-2.625 4.697 4.697 0 0 0 1.316-2.72 3.583 3.583 0 0 0-.304-1.905 3.963 3.963 0 0 0-1.485-1.776 6.846 6.846 0 0 0-2.903-1.008 11.997 11.997 0 0 0-4.423.352 35.073 35.073 0 0 0-3.966 1.248c-1.6.601-3.161 1.29-4.675 2.065a51.135 51.135 0 0 0-4.676 2.688 28.638 28.638 0 0 0-3.95 3.057l-6.751-17.14a80.664 80.664 0 0 1 3.376-2.993 36.34 36.34 0 0 1 4.354-3.04 47.647 47.647 0 0 1 5.435-2.753 41.31 41.31 0 0 1 6.6-2.128A40.255 40.255 0 0 1 363.841.58c3.551.167 7.038.965 10.279 2.353a23.527 23.527 0 0 1 8.085 5.857 22.44 22.44 0 0 1 4.912 9.426c.715 2.327.894 4.772.523 7.17a12.728 12.728 0 0 1-2.16 5.025 19.61 19.61 0 0 1-3.731 3.857 67.155 67.155 0 0 0-4.169 3.585 20.97 20.97 0 0 0-3.46 4.289 12.613 12.613 0 0 0-1.57 5.953zm5.503 11.315a8.708 8.708 0 0 1 .169 3.889 9.688 9.688 0 0 1-1.384 3.504 9.913 9.913 0 0 1-2.617 2.77 9.969 9.969 0 0 1-3.645 1.6 10.116 10.116 0 0 1-4.085.175 10.821 10.821 0 0 1-3.697-1.264 9.963 9.963 0 0 1-2.92-2.496 8.914 8.914 0 0 1-1.688-3.505 9.11 9.11 0 0 1-.185-3.873 9.125 9.125 0 0 1 1.333-3.537 10.534 10.534 0 0 1 2.616-2.8 10.168 10.168 0 0 1 3.662-1.689 10.458 10.458 0 0 1 4.069-.152c1.306.22 2.559.665 3.696 1.312a10.399 10.399 0 0 1 2.971 2.529 9.183 9.183 0 0 1 1.705 3.537z" fill="#F5FBFF"/></svg>