<svg width="773" height="474" fill="none" xmlns="http://www.w3.org/2000/svg"><path d="M558.087 107.405s24.636-29.704 71.879-10.782c47.242 18.922 93.443 96.695 50.477 190.749" stroke="#274D79" stroke-width="2" stroke-miterlimit="10"/><path d="M562.903 128.123c-2.174 5.553-23.63-2.803-21.564-8.356l3.001-7.727a11.536 11.536 0 0 1 14.915-6.559c1.41.549 2.699 1.37 3.792 2.416a11.511 11.511 0 0 1 2.767 12.499l-2.911 7.727z" fill="#03AA99"/><path d="M541.429 119.767c-2.462 5.391 19.3 13.909 21.564 8.356 1.545-4.295-19.803-12.273-21.564-8.356z" fill="#3B55CE"/><path d="M549.911 123.936c-.234.701-1.276.971-2.3.629-1.025-.341-1.689-1.204-1.456-1.797.234-.593 1.276-.97 2.3-.629 1.025.342 1.689 1.097 1.456 1.797zm7.619 2.822c-.234.683-1.276.97-2.3.611-1.024-.36-1.689-1.186-1.456-1.797.234-.611 1.258-.971 2.301-.629 1.042.341 1.689 1.114 1.455 1.815z" fill="#000E5B"/><path d="M676.993 397.975a30.884 30.884 0 0 1-15.328-11.051c-6.056-8.5-2.821-28.752 7.673-34.574 10.494-5.822 18.563-12.579 16.945-28.41-1.617-15.831 3.594-28.248 16.946-29.866 13.351-1.617 18.563-1.797 31.896-13.818 13.334-12.022 24.205-13.909 29.453-7.099 5.247 6.811 1.222 15.994-1.618 24.098-2.839 8.104 7.278 16.406 9.291 24.583 2.012 8.176.395 18.706-10.099 24.528-10.495 5.822-17.754 10.495-16.532 21.079 1.221 10.584-4.852 26.649-27.458 30.548l-41.169-.018z" fill="#C1CCFF"/><path d="M747.632 290.139s-49.165 38.581-57.881 107.818" stroke="#fff" stroke-width="1.57" stroke-miterlimit="10" stroke-linecap="round"/><path d="M630.99 261.369c-7.745 4.87-7.188 13.298-6.864 24.007.323 10.71-2.66 14.61-8.805 21.744-6.146 7.134-2.822 17.97 7.834 22.875 10.656 4.906 19.947 12.328 14.286 24.942-5.66 12.615-3.594 35.527 24.224 43.128h35.813s25.158-14.628 28.357-41.331c3.198-26.703-18.168-29.021-24.224-38.006-6.055-8.985-4.241-21.06-4.133-33.352.108-12.291-9.182-18.508-21.689-17.826-12.507.683-17.395 0-23.864-4.42-6.469-4.421-14.484-5.822-20.935-1.761z" fill="#D8EFFF"/><path d="M643.443 277.218c0 .36 43.559 29.902 41.421 120.613" stroke="#fff" stroke-width="1.57" stroke-miterlimit="10" stroke-linecap="round"/><path d="M743.966 403.186H2.821a2.819 2.819 0 0 1-2.82-2.839 2.822 2.822 0 0 1 2.82-2.821h741.145a2.828 2.828 0 0 1 2.623 1.737 2.842 2.842 0 0 1-.615 3.092 2.842 2.842 0 0 1-2.008.831z" fill="#2F9EEE"/><path d="M641.7 473.844H183.363a56.848 56.848 0 0 1-40.197-16.654 56.85 56.85 0 0 1-16.641-40.202v-13.801h572.031v13.765a56.858 56.858 0 0 1-35.09 52.561 56.865 56.865 0 0 1-21.766 4.331z" fill="#E9DCFF"/><path d="M371.974 373.482c6.055 4.87 23.36 24.439 89.363 24.439 18.401 0 38.294.773 54.449-3.594 41.761-11.339 69.111-26.541 69.111-26.541l-80.864-27.476-72.418.414-59.641 32.758z" fill="#487FA7"/><path d="M427.554 361.946l-31.591 6.002 1.132 17.215 35.419-.88-4.96-22.337z" fill="#FF9A8D"/><path d="M427.554 361.946s76.569-21.654 100.379-27.709c27.26-6.937 68.609-25.733 82.553-8.302 13.945 17.43-3.055 40.647-40.773 50.818-37.719 10.171-140.829 9.183-140.829 9.183l-1.33-23.99z" fill="#5996C3"/><path d="M366.242 357.435a42.377 42.377 0 0 0-1.043 12.327c.198 8.374 4.439 14.735 4.87 26.955a40.733 40.733 0 0 0 4.51-20.486 24.738 24.738 0 0 0-8.337-18.796z" fill="#8FC9C6"/><path d="M412.046 385.54c-4.941.54-13.225 4.385-18.293 7.081-5.067 2.695-7.781 5.498-16.838 5.39 0 0 0-23.917-1.006-31.321-1.006-7.403-2.462-8.679-2.462-8.679s8.392.539 12.579 2.767c4.187 2.228 4.636 3.253 11.986 3.594 7.35.341 10.368.683 13.585.629a20.432 20.432 0 0 1 .449 20.539z" fill="#03AA99"/><path d="M390.626 388.38s2.822-12.435-1.293-20.935m6.487 19.568a29.96 29.96 0 0 0-1.276-18.491m7.116 16.065s2.48-6.325-.809-15.651" stroke="#AAEEED" stroke-width=".92" stroke-miterlimit="10" stroke-linecap="round"/><path d="M376.916 398.047c-2.858 0-6.362-.126-6.847-1.33-.485-1.204 2.857-8.338 1.528-22.498-.701-7.601-6.038-16.532-5.391-16.784.647-.251 4.869-1.797 7.188.611 2.318 2.408 14.16 17.952 3.522 40.001z" fill="#AAEEED"/><path d="M566.694 203.723c9.956-7.045 31.411-23.361 42.697-58.636a70.086 70.086 0 0 0 3.809-23.953c-5.822-4.906-5.211-14.179-10.512-19.929-7.476-8.086-14.16-18.365.449-18.365 8.14 0 15.634.341 19.641 4.205a64.391 64.391 0 0 1 10.279 15.346c2.497 7.188-.396 16.173-.701 27.063-.306 10.889-7.476 79.066-60.073 107.674l-5.589-33.405zm-113.982-25.661a101.747 101.747 0 0 1-1.006 12.327c-.755 3.594 0 5.499-10.998 7.403 0 0 4.475 14.376 23.522 16.874 19.048 2.498 26.829-12.579 26.272-12.579a39.246 39.246 0 0 1-7.583-3.288c-1.707-1.096-.449-22.103-.449-22.103l-29.758 1.366z" fill="#FFA681"/><path d="M482.218 182.052s-2.336 7.385-13.89 8.158c-11.555.772-15.886-6.541-15.886-6.541l.27-5.607 29.758-1.312-.252 5.302z" fill="#F97853"/><path d="M434.527 146.4s-5.984-.935-8.608 3.468c-2.624 4.402.647 12.578 6.882 13.98 5.966 1.312 7.907-2.03 7.907-2.03l-6.181-15.418z" fill="#FA9870"/><path d="M429.355 150.736a5.396 5.396 0 0 1 4.888-.108c.503.305-.18 1.15-.629 1.042-2.57-.575-5.57-.305-6.397 2.714 0 .161-.162 0-.162-.09a4.007 4.007 0 0 1 2.3-3.558z" fill="#BA5964"/><path d="M430.523 150.809c.252-.162.971.431.935.61-.51.342-.919.814-1.186 1.366a4.38 4.38 0 0 0-.198 2.839 4.982 4.982 0 0 0 4.582 4.205s.126.126 0 .144c-1.994.791-4.618-1.024-5.391-2.821-.772-1.797-.952-4.906 1.258-6.343z" fill="#BA5964"/><path d="M492.335 135.312s5.211-3.091 9.291 0c4.079 3.091 4.061 11.95-1.222 15.544-5.283 3.594-8.105 1.042-8.105 1.042l.036-16.586z" fill="#FA9870"/><path d="M498.823 137.451a5.506 5.506 0 0 0-4.583 1.707c-.341.467.593 1.006.971.737 2.174-1.492 5.067-2.336 6.954.161.09.126.162 0 .108-.143a3.99 3.99 0 0 0-3.45-2.462z" fill="#BA5964"/><path d="M497.762 137.954c-.288 0-.737.754-.629.916a3.429 3.429 0 0 1 1.599.827 4.446 4.446 0 0 1 1.24 2.551 4.998 4.998 0 0 1-2.695 5.607v.162c2.138 0 3.917-2.678 3.917-4.601 0-1.922-.844-4.959-3.432-5.462z" fill="#BA5964"/><path d="M470.915 106.327a28.062 28.062 0 0 0-14.376-1.168 28.478 28.478 0 0 0-13.172 6.217 31.977 31.977 0 0 0-9.919 30.333 84.184 84.184 0 0 0 2.372 9.362l1.366 4.295a66.745 66.745 0 0 0 7.296 15.652 25.776 25.776 0 0 0 27.061 12.234 25.768 25.768 0 0 0 20.612-21.381 67.87 67.87 0 0 0 .989-17.251l-.342-4.492a81.654 81.654 0 0 0-1.258-9.578 31.818 31.818 0 0 0-20.629-24.223z" fill="#FFA681"/><path d="M463.894 164.199c.715-2.859 6.552-2.681 9.381-2.234l-.447.893c-.744 1.489-2.233 4.557-2.233 6.701 0 2.68-4.467 1.787-4.914 1.34-.447-.447-2.68-3.127-1.787-6.7z" fill="#fff"/><path d="M469.854 154.783c-.774.233-1.573.376-2.38.426v-1.131c1.16 0 2.865-.441 3.085-.985.074-.191-.088-.514-.455-.896-2.484-2.601-5.408-10.287-5.525-10.64l1.043-.396c0 .088 2.939 7.832 5.29 10.286a1.96 1.96 0 0 1 .691 2.087 2.574 2.574 0 0 1-1.749 1.249z" fill="#DB614D"/><path d="M475.192 139.426a3.106 3.106 0 0 1 1.342-3.196 3.114 3.114 0 0 1 3.465.032 3.107 3.107 0 0 1 .401 4.803 3.103 3.103 0 0 1-1.614.823 3.091 3.091 0 0 1-3.594-2.462zm.754-11.177l14.574 2.749a10.055 10.055 0 0 0-6.218-6.091 7.845 7.845 0 0 0-6.361 0 3.591 3.591 0 0 0-1.995 3.342zm-25.031 4.403l-10.656 10.333a10.056 10.056 0 0 1 1.797-8.518 7.893 7.893 0 0 1 5.391-3.486 3.59 3.59 0 0 1 3.468 1.671zm4.923 10.943a3.087 3.087 0 0 0-2.397-2.466 3.093 3.093 0 0 0-3.733 2.991 3.085 3.085 0 0 0 1.882 2.877 3.09 3.09 0 0 0 1.787.192 3.108 3.108 0 0 0 2.461-3.594z" fill="#001C45"/><path d="M438.013 118.222s7.745 11.663 20.467 15.095c12.723 3.432 19.911-11.285 18.617-17.97 0 0 12.453 20.019 15.238 19.965a41.545 41.545 0 0 0 2.049-17.107 22.038 22.038 0 0 0-9.794-16.91 8.985 8.985 0 0 0-10.44-.108 22.178 22.178 0 0 0-22.552-12.093c-15.005 1.689-20.845 12.057-18.653 27.889 0 0-5.642-1.6-8.985 4.941-3.342 6.541.378 19.264 4.87 25.284a17.16 17.16 0 0 1 5.805-.881s-2.642-10.458-.162-19.641c1.905-7.421 3.54-8.464 3.54-8.464z" fill="#001C45"/><path d="M445.434 196.786c1.348 5.391 8.985 14.035 20.18 14.556 11.196.521 20.378-6.972 21.906-10.261 9.308.863 21.132 3.379 25.157 4.115 5.643 1.025 11.088 6.038 8.985 21.87a472368.704 472368.704 0 0 0-14.142 112.598s-32.256 12.579-75.85 1.042c0 0-26.38-105.518-28.752-114.647-2.372-9.128-5.211-18.778 3.127-21.653 8.338-2.875 39.389-7.62 39.389-7.62z" fill="#0172D0"/><path d="M481.446 309.043c.593.123 1.193.213 1.797.27 6.163.647 3.36-6.29 1.437-8.985-2.965-4.169-23.36-20.018-23.36-20.018l-15.904 1.347-17.879 7.368-7.368 5.714c1.491 5.93 2.929 11.699 4.277 17.036 6.685-4.187 22.857-14.125 26.451-14.466 2.187-.06 4.352.441 6.29 1.456a169.18 169.18 0 0 0 8.823 3.468c1.348.503 2.695.988 3.989 1.617 2.336 1.132 4.475 2.696 6.829 3.774a19.845 19.845 0 0 0 4.618 1.419z" fill="#015AA3"/><path d="M550.108 275.781l11.573 5.517m-16.478 4.079l11.59 5.535" stroke="#274D79" stroke-width="2.1" stroke-miterlimit="10" stroke-linecap="round"/><path d="M383.564 325.916c15.221 2.228 42.211 2.768 66.039-18.814 19.21-17.377 36.731-50.531 81.313-35.94" stroke="#274D79" stroke-width="2" stroke-miterlimit="10"/><path d="M551.887 269.509c5.265 2.786-5.499 23.145-10.782 20.36l-7.332-3.863a11.53 11.53 0 0 1-6.088-11.271 11.51 11.51 0 0 1 1.291-4.309 11.52 11.52 0 0 1 15.561-4.798l7.35 3.881z" fill="#03AA99"/><path d="M394.311 220.362s-36.066 65.194-42.625 76.192c-6.559 10.997-5.211 23.36-3.863 26.433 1.348 3.073 20.072 5.211 37.233-1.348 17.161-6.559 61.367-29.021 64.691-30.764a80.417 80.417 0 0 0 8.41 4.78c5.894 2.786 10.674 2.893 14.502 5.786 2.533 1.915 5.224 4.979 8.895 5.801 1.876.42 4.007.254 6.505-.949 4.402-2.12-5.391-15.813-9.722-23.36-4.277-3.594-19.515-9.956-27.152-8.877-10.782 1.545-65.105 20.018-65.105 20.018l19.677-33.945-11.446-39.767z" fill="#FFA681"/><path d="M407.967 203.812c-8.859 2.786-12.255 7.188-20.935 22.876-8.679 15.687-20.126 34.933-20.126 34.933a48.235 48.235 0 0 0 29.848 18.635l13.927-23.541-2.714-52.903zm104.656 1.384c10.602 1.797 37.575 9.632 54.071-1.456a64.512 64.512 0 0 1 8.985 37.449s-22.354 19.929-57.306 11.932l-5.75-47.925z" fill="#0172D0"/><path d="M515.786 366.87l31.016 8.518-2.516 17.053-35.221-3.702 6.721-21.869z" fill="#FF9A8D"/><path d="M515.786 366.87s-71.25-24.583-97.684-34.25c-26.433-9.668-65.14-29.039-80.432-12.777-15.293 16.263-2.516 40.468 34.268 53.64 36.784 13.172 140.685 17.125 140.685 17.125a45.712 45.712 0 0 0 3.163-23.738z" fill="#94D2FF"/><path d="M577.26 367.248a42.472 42.472 0 0 1 0 12.363c-.862 8.338-5.606 14.376-7.008 26.487a40.754 40.754 0 0 1-2.875-20.773 24.776 24.776 0 0 1 9.883-18.077z" fill="#8FC9C6"/><path d="M529.353 391.632c4.888.917 12.83 5.391 17.664 8.518 4.834 3.127 7.314 6.092 16.353 6.757 0 0 1.94-23.846 3.504-31.142 1.563-7.296 3.144-8.446 3.144-8.446s-8.391-.143-12.722 1.797c-4.331 1.941-4.888 2.875-12.238 2.57-7.349-.305-10.404-.144-13.585-.449a20.365 20.365 0 0 0-2.12 20.395z" fill="#03AA99"/><path d="M550.467 396.161s-1.797-12.579 2.983-20.755m-8.032 18.904a29.883 29.883 0 0 1 2.749-18.329m-8.392 15.526s-1.958-6.487 2.067-15.526" stroke="#AAEEED" stroke-width=".92" stroke-miterlimit="10" stroke-linecap="round"/><path d="M563.37 406.907c2.857.18 6.343.377 6.936-.773s-2.192-8.553.27-22.552c1.311-7.529 7.349-15.993 6.684-16.298-.665-.306-4.708-2.211-7.188 0-2.479 2.21-15.597 16.783-6.702 39.623z" fill="#AAEEED"/><path d="M515.696 379.647h-1.599s-46.434-3.001-96.175-11.213c-48.859-8.051-81.888-24.475-86.254-36.569-2.175 14.627 11.896 31.429 40.36 41.618 36.73 13.154 140.595 17.125 140.595 17.125a46.097 46.097 0 0 0 3.073-10.961z" fill="#5996C4"/><path d="M506.568 362.683c0 6.433-1.384 20.881-4.223 29.758" stroke="#274D79" stroke-width=".78" stroke-miterlimit="10"/><path d="M410.681 256.715s5.552-14.682 1.797-36.353c0 0 6.936 26.433-.593 41.007l-1.204-4.654zm107.728-3.593c1.121-10.8.582-21.709-1.599-32.346 0 0 4.403 8.985 4.187 32.831l-2.588-.485z" fill="#015AA3"/><path d="M296.914 338.783c6.434-1.312 17.737-2.444 25.769 4.564 5.121 4.493 2.696 5.265-1.797 5.193-7.709-.143-13.855 6.326-13.855 6.326s-10.027 1.15-12.489-6.811c-3.665-11.554 2.372-9.272 2.372-9.272z" fill="#E09B36"/><path d="M272.386 397.526h49.525c11.321.251 19.03-.611 24.582-5.535 6.451-5.696 7.566-15.885 6.541-23.666-1.204-3.127-8.05-.809-16.496-2.246-7.655-1.294-12.076-4.744-16.46-10.585-4.385-5.84-6.685-8.122-15.293-12.309a18.769 18.769 0 0 0-8.553-2.084 39.538 39.538 0 0 1 7.637-10.908c5.571-5.139-4.367-7.188-15.67-2.102a60.057 60.057 0 0 0-18.706 14.555c-3.217 3.594-11.609 3.109-20.683-3.881-9.075-6.991-40.989-35.94-75.887-31.088-34.897 4.852-59.156 33.46-62.714 54.017-3.558 20.557 3.288 32.22 9.218 35.94l152.959-.108z" fill="#FFC86B"/><path d="M113.192 361.856c-9.722-5.265-34.574-5.606-53.28 9.309-18.258 14.537-25.86 44.924-10.782 67.764 15.076 22.839 44.78 23.612 48.626 20.377 3.845-3.234-15.868-14.933-21.223-29.848 0 0 10.656 6.775 16.73 7.422 6.074.647-9.272-15.041-10.782-31.681-1.51-16.64 6.613-34.861 26.811-34.142l3.9-9.201z" fill="#FFC86B"/><path d="M352.495 379.43c-1.078.216-.683-5.786-1.995-5.211-1.311.575.809 3.594.809 3.594-3.756-.935-8.985-6.308-6.918-9.632 2.066-3.324 8.248-1.797 9.667-1.276 2.175.953 3.684 8.194-1.563 12.525z" fill="#001C45"/><path d="M166.939 333.895a22.847 22.847 0 0 1 18.509 15.58c5.122 14.484-.575 23.181-4.798 27.853 0 0 19.012-1.797 27.458 3.774 8.446 5.57 7.691 16.442 7.691 16.442h4.636s.198-13.298-8.697-18.868a35.02 35.02 0 0 0-21.402-5.93 31.446 31.446 0 0 0-.755-24.547c-6.002-13.297-17.376-15.094-22.642-14.304zm69.903 42.66s19.767-2.21 28.158 4.115c8.392 6.325 7.386 16.856 7.386 16.856h4.69s1.24-11.25-7.188-18.132c-8.428-6.882-27.422-4.762-33.046-2.839z" fill="#E09B36"/><path d="M293.698 367.409s-.809-4.924 5.013-6.217c6.29-1.402 7.979 3.306 7.979 3.306a13.45 13.45 0 0 0-7.386-.198 14.592 14.592 0 0 0-5.606 3.109z" fill="#001C45"/><path d="M317.472 39.874l38.168 39.533-12.777 14.376-42.319-34.88 16.928-19.03zm50.729 49.56a10.042 10.042 0 0 1 2.605 3.505 11.55 11.55 0 0 1 1.024 4.06 10.91 10.91 0 0 1-.539 4.152 10.503 10.503 0 0 1-2.156 3.719 10.378 10.378 0 0 1-3.486 2.624 11.033 11.033 0 0 1-8.194.503 10.79 10.79 0 0 1-3.774-2.192 11.069 11.069 0 0 1-3.702-7.565 11.462 11.462 0 0 1 .539-4.17 10.538 10.538 0 0 1 5.625-6.343 11.662 11.662 0 0 1 4.079-1.024c1.424-.079 2.85.11 4.205.557 1.393.46 2.677 1.2 3.774 2.174zm28.427-36.029l-17.089 4.259a28.948 28.948 0 0 1-1.617-9.11 19.771 19.771 0 0 1 1.096-6.668 16.166 16.166 0 0 1 2.713-4.815 40.629 40.629 0 0 1 3.343-3.594 44.97 44.97 0 0 0 2.929-2.947 5.392 5.392 0 0 0 1.402-3.055 4.226 4.226 0 0 0-.324-2.139 4.4 4.4 0 0 0-1.581-1.994 7.048 7.048 0 0 0-3.091-1.132 12.129 12.129 0 0 0-4.708.395c-1.435.38-2.846.848-4.223 1.402a47 47 0 0 0-4.978 2.318 53.867 53.867 0 0 0-4.977 3.019 30.77 30.77 0 0 0-4.205 3.432L354.13 13.53a87.084 87.084 0 0 1 3.594-3.36 38.68 38.68 0 0 1 4.636-3.414 49.776 49.776 0 0 1 5.786-3.091c2.268-1 4.619-1.8 7.026-2.39A40.723 40.723 0 0 1 387.356.053 30.232 30.232 0 0 1 398.3 2.694a25.157 25.157 0 0 1 8.607 6.577 25.695 25.695 0 0 1 5.229 10.584c.762 2.613.952 5.359.557 8.051a14.705 14.705 0 0 1-2.3 5.642 21.568 21.568 0 0 1-3.971 4.331 72.28 72.28 0 0 0-4.439 4.025 23.339 23.339 0 0 0-3.683 4.816 14.758 14.758 0 0 0-1.672 6.685zm5.859 12.705c.371 1.426.432 2.915.179 4.366a11.231 11.231 0 0 1-1.473 3.936 10.914 10.914 0 0 1-2.786 3.108 10.343 10.343 0 0 1-3.881 1.797 10.227 10.227 0 0 1-4.349.198 11.119 11.119 0 0 1-3.935-1.42 10.773 10.773 0 0 1-3.109-2.803 10.25 10.25 0 0 1-1.797-3.935 10.788 10.788 0 0 1-.198-4.349 10.618 10.618 0 0 1 1.42-3.971 11.59 11.59 0 0 1 2.785-3.145 10.568 10.568 0 0 1 8.231-2.066c1.39.246 2.724.746 3.935 1.473a11.26 11.26 0 0 1 3.163 2.84 10.582 10.582 0 0 1 1.815 3.97z" fill="#F5FBFF"/></svg>