<svg width="447" height="414" fill="none" xmlns="http://www.w3.org/2000/svg"><path d="M278.248 163.103a32.111 32.111 0 0 1 16.058-8.345c42.6-11.465 88.776 1.157 126.502 24.017a36.446 36.446 0 0 1 8.485 6.452 34.226 34.226 0 0 1 6.03 11.254c11.255 30.434 12.587 63.672 9.993 95.999a215.15 215.15 0 0 1-11.395 57.536c-3.506 9.326-8.38 18.828-16.9 23.946a49.884 49.884 0 0 1-20.546 5.47 431.67 431.67 0 0 1-88.776.28c-21.738-2.173-43.651-6.135-63.11-16.093-8.59-4.417-16.97-10.518-21.037-19.143-3.506-7.889-3.191-16.9-2.735-25.525 1.683-31.871 3.506-64.548 16.304-93.825" fill="#FFDC72"/><path d="M188.315 269.829a391.2 391.2 0 0 0-118.963-2.454c-16.585 2.209-33.344 5.575-47.965 13.709-10.518 5.855-20.546 16.549-18.231 28.33A23.593 23.593 0 0 0 14.76 324.35a70.677 70.677 0 0 0 18.232 6.697l23 6.205m87.971-5.294c3.506-2.419 66.616-3.681 70.543-4.733a12.094 12.094 0 0 1 11.781 2.665c2.279 2.489 3.015 6.03 5.014 8.695 4.838 6.416 14.515 5.61 22.369 4.137l34.045-6.311a7.022 7.022 0 0 1 5.96.701c2.63 2.35.386 6.697-2.174 9.116-13.148 12.307-32.432 15.568-50.383 15.568a177.971 177.971 0 0 1-70.123-14.901" fill="#E6906D"/><path d="M213.489 282.662a584.851 584.851 0 0 0-175.833 8.135c-12.762 2.559-26.471 6.17-34.57 16.373A13.255 13.255 0 0 0 0 313.832a15.459 15.459 0 0 0 4.803 10.974 116.967 116.967 0 0 0 37.516 27.173c65.495 32.221 141.754 30.433 213.63 43.231 25.384 4.488 51.715 10.904 76.504 3.856a12.694 12.694 0 0 0-9.186-7.959 50.928 50.928 0 0 0-12.657-1.016c-8.871 0-18.758-2.104-23.737-9.432-2.945-4.277-3.997-10.097-8.38-12.797-6.732-4.173-14.831 1.963-22.369 4.382-11.886 3.822-24.543-2.173-35.798-7.398a365.45 365.45 0 0 0-140.07-33.659c44.668 9.747 89.897 19.565 135.618 18.408a96.825 96.825 0 0 0 33.799-5.645 42.084 42.084 0 0 0 24.192-23.071 54.307 54.307 0 0 0 1.368-26.12 175.573 175.573 0 0 0-10.238-39.55" fill="#FFA681"/><path opacity=".33" d="M177.13 348.017a377.129 377.129 0 0 0-112.477-26.191 61.598 61.598 0 0 1 47.158-12.237c28.996 4.033 61.182 22.72 96.91 4.208 35.727-18.513 17.846 34.22 17.846 34.22s-31.555 5.154-49.437 0z" fill="#EF7B78"/><path d="M251.672 82.846a62.17 62.17 0 0 0-2.244 18.092 20.788 20.788 0 0 0 8.029 15.778c-13.779-.316-27.698 4.207-41.127 1.192 3.506-7.012 6.767-15.077 4.663-22.72a84.354 84.354 0 0 1-2.629-8.134" fill="#FA987E"/><path d="M220.117 21.7c-.736.736-4.943 5.399-5.469 6.276a67.527 67.527 0 0 0-7.784 40.636c1.998 12.166 9.151 18.372 18.618 26.226a9.218 9.218 0 0 0 4.733 2.454c1.607.05 3.2-.312 4.628-1.052a52.592 52.592 0 0 0 30.994-54.73" fill="#FFA681"/><path d="M175.413 260.959c4.207 1.788-29.733 0-30.574 4.453-.842 4.452 16.935 12.096 22.194 18.863 1.858 2.384 23.772 27.242 25.7 29.627 10.518 12.692 10.203 11.5 15.287 27.102a17.947 17.947 0 0 0 3.506 7.398 15.51 15.51 0 0 0 5.529 2.705c2.005.524 4.095.642 6.146.345 13.078-.49 26.577-3.681 36.499-12.201a70.545 70.545 0 0 0 22.405-44.072 97.061 97.061 0 0 0-4.558-47.579" fill="#A29EE9"/><path d="M328.982 198.444c-3.507-14.515-8.555-23.281-15.042-36.815-4.733-9.817-10.518-17.776-15.322-26.506a54.282 54.282 0 0 0-12.341-12.517 22.91 22.91 0 0 0-7.258-3.191l-19.564-6.1a8.697 8.697 0 0 0-3.506-.596c-1.307.242-2.557.73-3.682 1.437a36.223 36.223 0 0 1-32.397.491l.246-.876c-10.098-3.331-21.037-.246-31.205 2.804a37.203 37.203 0 0 0-12.552 5.575 34.114 34.114 0 0 0-8.239 11.22 208.368 208.368 0 0 0-10.94 24.543c-2.699 7.293-5.013 14.761-8.169 21.878-2.805 6.241-6.241 12.167-8.625 18.548a48.635 48.635 0 0 0-1.999 28.926 34.781 34.781 0 0 0 17.531 22.474 28.048 28.048 0 0 0 11.29 2.84 14.029 14.029 0 0 1 0 6.802 6.205 6.205 0 0 0-.456 3.506 4.565 4.565 0 0 0 2.069 2.069 49.358 49.358 0 0 0 18.373 6.039 49.362 49.362 0 0 0 19.283-1.481 162.758 162.758 0 0 1 15.777-4.068c9.923-1.437 20.056 1.263 29.978 0a7.33 7.33 0 0 1 .456-7.012c8.169 2.384 14.235 9.046 21.037 14.2a46.914 46.914 0 0 0 21.457 9.712 30.19 30.19 0 0 0 22.615-5.224 39.44 39.44 0 0 0 12.692-21.879 116.193 116.193 0 0 0-1.507-56.799z" fill="#BAB7F6"/><path d="M272.778 17.282A57.741 57.741 0 0 0 225.585.312a62.655 62.655 0 0 0-30.959 10.729 94.294 94.294 0 0 0-12.552 10.518c-5.259 5.435-8.31 8.73-13.183 14.516a74.766 74.766 0 0 1-15.006 13.674c-14.902 10.168-33.239 14.726-46.807 26.611a58.654 58.654 0 0 0-17.987 55.888 56.085 56.085 0 0 0 6.767 16.479 57.783 57.783 0 0 0 25.56 22.755 35.482 35.482 0 0 0 7.994 1.438c24.227 2.033 39.339-8.45 58.622-18.513a89.981 89.981 0 0 0 18.583-12.201 59.045 59.045 0 0 0 19.564-42.495 7.004 7.004 0 0 0-.631-4.102 16.328 16.328 0 0 0-4.628-4.768 31.559 31.559 0 0 1-12.902-24.543 30.017 30.017 0 0 1 9.782-25.49c5.715-5.364 11.57-5.785 15.462-12.587 8.485 12.727 17.776 20.125 28.049 31.555a5.68 5.68 0 0 0 2.875 2.104c1.262.28 2.595-.28 3.857 0 2.384.561-1.578 3.506-2.91 5.47-1.333 1.963.876 3.821-1.263 5.048a32.605 32.605 0 0 0-16.303 22.93c-2.069 10.098-1.473 18.127 4.383 21.318 1.122.49 2.299.843 3.506 1.052a7.013 7.013 0 0 0 4.067-1.578c14.971-14.515 23.07-23.877 26.647-44.388 3.365-19.178.28-40.671-13.394-54.45z" fill="#293267"/><path d="M259.07 64.51a23.728 23.728 0 0 1 4.418-3.998 4.169 4.169 0 0 1 3.506-1.016c1.753.526 2.7 3.085 2.419 5.294a10.519 10.519 0 0 1-2.91 5.504 33.237 33.237 0 0 1-7.398 6.276c-.806.491-2.033-.28-2.314-.77" fill="#FFA681"/><path d="M229.321 71.635a2.735 2.735 0 0 1-1.333-.615 2.007 2.007 0 0 1-.59-1.717 93.622 93.622 0 0 1 2.431-9.72.648.648 0 0 1 .771-.36.646.646 0 0 1 .454.719c-.017.084-2.15 7.265-2.384 9.496a.736.736 0 0 0 .185.653 3.862 3.862 0 0 0 2.556.287.645.645 0 1 1 .232 1.261 7.006 7.006 0 0 1-2.322-.004z" fill="#F97853"/><path opacity=".81" d="M225.025 82.286c.807 0 2.314-.737 3.121-.772l8.029-.35a5.364 5.364 0 0 1-1.403 1.542 9.534 9.534 0 0 1-3.997 2.455 5.117 5.117 0 0 1-5.75-2.875z" fill="#FF005D"/><path d="M239.681 59.32c3.822 4.033 10.519 1.017 12.973-3.015.526-.806-.771-1.577-1.297-.77-2.034 3.225-7.504 5.995-10.519 2.734-.666-.701-1.718.35-1.052 1.052h-.105zm-17.355-1.752c-3.506 3.506-8.275 1.227-11.22-1.719-.666-.7-1.718.351-1.052 1.052 3.506 3.506 9.186 5.75 13.324 1.718.666-.666-.386-1.718-1.052-1.051zm-12.342-9.993c2.876-2.735 9.502-.175 12.588 1.122.876.385 1.647-.912.771-1.263-3.892-1.647-10.834-4.312-14.41-.911-.702.631.35 1.683 1.051 1.052zm42.495 0c-2.875-2.735-9.502-.175-12.623 1.122-.841.385-1.612-.912-.736-1.263 3.857-1.647 10.799-4.312 14.41-.911.702.631-.35 1.683-1.051 1.052z" fill="#293267"/><path d="M261.945 64.79a14.006 14.006 0 0 1 2.84-2.104c.631-.35 1.332-.631 1.858-.246.526.386.806 2.385.315 3.822a8.232 8.232 0 0 1-2.349 3.26 19.14 19.14 0 0 1-4.663 3.262c-.491.245-.947-.421-1.017-.772" fill="#F97853"/><path d="M260.788 77.061a2.384 2.384 0 1 0 0-4.767 2.384 2.384 0 0 0 0 4.767z" fill="#E83C4C"/><path d="M156.901 147.079a20.67 20.67 0 0 1 5.82 2.946 9.445 9.445 0 0 1 2.898 2.405 9.483 9.483 0 0 1 1.731 3.345 2.706 2.706 0 0 1 0 2.173c0 .246-.737.456-.982.491-1.473.176-4.032-1.928-5.891-1.928a12.065 12.065 0 0 1 5.856 3.822 1.929 1.929 0 0 1 .456 2.84c-.351.596-.667 1.262-1.754 1.227-1.086-.035-2.594-.631-3.26-.701a14.792 14.792 0 0 1 3.751 2.138 3.216 3.216 0 0 1 .596 3.121c-.561 1.157-3.155.386-4.417.245a11.896 11.896 0 0 1 3.05 2.034 1.929 1.929 0 0 1 .351 2.279 2.639 2.639 0 0 1-2.385.736 21.436 21.436 0 0 1-7.503-2.559 7.022 7.022 0 0 1-2.244-1.403 2.49 2.49 0 0 1-.666-2.419 1.508 1.508 0 0 1 2.104-.877 8.905 8.905 0 0 1-3.156-2.875 2.982 2.982 0 0 1 .596-3.856 4.167 4.167 0 0 1 2.7-.421 7.79 7.79 0 0 1-2.665-3.296 2.642 2.642 0 0 1 .041-2.105 2.619 2.619 0 0 1 1.572-1.401c.491 0 1.192 0 1.298-.596-1.999-1.683-3.822-4.769-1.087-6.101a5.016 5.016 0 0 1 3.155.631" fill="#FFA681"/><path d="M155.709 120.924a132.223 132.223 0 0 1 45.054 8.66 409.713 409.713 0 0 1 57.711-3.506l1.753 47.788-63.637-5.469-33.799-16.97" fill="#fff"/><path d="M155.287 120.924l45.686 11.079 4.873 88.916-46.001-19.634-4.558-80.361zm45.686 11.078l58.483-6.205 4.348 83.516-54.24 11.851-8.591-89.162z" fill="#F73179"/><path d="M205.847 220.919l-6.697-89.372 4.102.211 6.311 89.407-3.716-.246z" fill="#D52248"/><path d="M306.123 192.589a12.302 12.302 0 0 0-3.506-5.049l-10.519-11.114a46.42 46.42 0 0 0-14.901-12.027 47.046 47.046 0 0 0-8.415-2.419l-6.766-1.472a29.024 29.024 0 0 0-16.269 0l-14.901 3.225c-.631 0-1.332.351-1.508.947-.175.596 1.298 1.508 2.384 1.437l14.271-1.157-12.412 2.805c-.982.211-2.209.772-2.069 1.753 4.733 1.648 9.993-1.577 14.866-.42a21.944 21.944 0 0 0-10.518 3.891 4.94 4.94 0 0 0 4.453 1.228l15.532-1.017c-3.857 2.524-10.098.701-12.692 4.523a18.407 18.407 0 0 0 10.062.911 66.621 66.621 0 0 1 17.531 1.193 22.38 22.38 0 0 0 6.066.771 23.228 23.228 0 0 1 4.102-.386c3.155.316 5.294 3.296 7.012 6.066a115.051 115.051 0 0 1 8.134 17.531" fill="#FFA681"/><path d="M340.517 405.833l-22.474-1.788a62.59 62.59 0 0 1-12.763-1.858 43.64 43.64 0 0 1-19.213-10.519 47.33 47.33 0 0 1-6.802-9.571c-4.488-7.819-4.067-17.531-3.016-26.402 1.052-8.87 2.56-18.197 0-26.822-1.612-5.294-4.803-10.518-3.506-15.953a11.855 11.855 0 0 1 12.798-8.029 16.934 16.934 0 0 1 12.552 9.677 30.473 30.473 0 0 1 2.384 16.129c-.491 5.469-1.823 10.834-2.805 16.233-1.928 10.519-2.384 21.668 2.56 30.994a32.959 32.959 0 0 0 27.593 16.514" fill="#386FCB"/><path d="M306.473 357.378c-1.122-10.343 5.54-19.74 8.205-29.767 4.733-17.987-3.506-36.64-4.488-55.222l11.57 9.782a80.633 80.633 0 0 1 25.455-10.834 10.514 10.514 0 0 0 4.382-1.753 9.391 9.391 0 0 0 2.244-3.506l4.103-9.642 15.076 23.07c9.677 14.866 19.529 30.048 24.122 47.193a119.484 119.484 0 0 1 3.506 28.259 53.237 53.237 0 0 1-1.122 14.025 45.066 45.066 0 0 1-5.539 12.201 63.809 63.809 0 0 1-27.804 24.964 45.114 45.114 0 0 1-36.78.211 39.28 39.28 0 0 1-20.125-22.44 78.671 78.671 0 0 1-3.085-22.93" fill="#386FCB"/><path d="M329.193 316.566a104.667 104.667 0 0 0 10.519-37.761 133.728 133.728 0 0 1 42.389 31.555 136.91 136.91 0 0 0 15.006 15.567c-4.663-16.864-14.34-31.835-23.912-46.456l-15.041-23.07c-1.368 3.225-2.735 6.451-4.137 9.642a8.924 8.924 0 0 1-2.209 3.506 10.518 10.518 0 0 1-4.383 1.753 80.633 80.633 0 0 0-25.455 10.834l-11.57-9.782c.912 18.582 9.221 37.235 4.453 55.221a101.41 101.41 0 0 1-4.523 12.272 69.351 69.351 0 0 0 18.863-23.281z" fill="#386FCB"/><path opacity=".48" d="M360.924 275.615a3.68 3.68 0 0 1-3.016-2.419 11.183 11.183 0 0 1-.596-4.032c-.278-2.383.06-4.798.982-7.013a109.965 109.965 0 0 1 6.101 8.45 4.704 4.704 0 0 1 1.052 2.77c0 1.718-2.455 2.56-4.523 2.174m-40.742 14.796a3.264 3.264 0 0 1-4.067 1.052 2.247 2.247 0 0 1-.666-1.578l-1.683-10.168c2.665.175 3.506 3.506 5.645 5.364.806.702 1.858 1.157 2.314 2.104.456.947-.211 1.963-1.543 3.226z" fill="#120E5E"/><path d="M344.199 291.287a13.707 13.707 0 0 1-2.385-.526c-.561-.175-1.262-.49-1.297-1.122-.035-.631.596-.981 1.122-1.262l2.595-1.402c.666-.316 1.542-.631 2.033 0 .491.631.281 1.122 0 1.683a5.492 5.492 0 0 1-.701 1.683 2.05 2.05 0 0 1-.618.679 2.042 2.042 0 0 1-.855.337" fill="#120E5E"/><path d="M343.638 299.176c1.122-.877 2.279-1.789 2.349-3.296a26.328 26.328 0 0 0-1.683-5.926l-.701.281 1.683 3.12a5.633 5.633 0 0 0 1.227 1.964c1.017.701 3.05.386 4.242.35.456 0 .456-.771 0-.736-1.542 0-3.506.351-4.312-1.017a31.945 31.945 0 0 1-2.174-4.032.388.388 0 0 0-.659.026.382.382 0 0 0-.042.255 22.16 22.16 0 0 0 .981 3.296c.292.514.505 1.07.631 1.647a4.03 4.03 0 0 1-1.928 3.507c-.351.28 0 .946.386.666v-.105zm10.343-13.639a4.977 4.977 0 0 0 6.1-2.846 4.968 4.968 0 0 0 .352-2.413c0-.491-.737-.491-.737 0a4.302 4.302 0 0 1-1.551 3.76 4.308 4.308 0 0 1-3.988.798c-.456 0-.666.631-.176.701zm-21.844 9.888c-.526 4.558-5.855 3.962-8.59 1.998-.42-.245-.771.386-.385.666 3.33 2.35 9.116 2.42 9.712-2.664 0-.491-.702-.491-.737 0z" fill="#120E5E"/><path d="M333.61 387.601l.737 14.831a2.887 2.887 0 0 1-.596 2.349c-.422.27-.884.471-1.368.596a4.11 4.11 0 0 0-2.524 3.507 4.03 4.03 0 0 0 2.209 3.716 7.634 7.634 0 0 0 3.506.561h3.997a12.953 12.953 0 0 0 4.488-.526 4.1 4.1 0 0 0 2.804-3.226 7.491 7.491 0 0 0-.631-3.015c-2.244-7.012 1.333-14.971 0-22.334m24.123 3.541l-.702 14.831a2.887 2.887 0 0 0 .597 2.349 4.13 4.13 0 0 0 1.332.596 3.932 3.932 0 0 1 2.548 3.507 3.925 3.925 0 0 1-2.233 3.716 7.567 7.567 0 0 1-3.506.561h-3.997a12.61 12.61 0 0 1-4.453-.526 4.107 4.107 0 0 1-2.84-3.226 7.51 7.51 0 0 1 .632-3.015c2.243-7.012-1.333-14.971 0-22.334" fill="#386FCB"/></svg>