<svg width="281" height="138" fill="none" xmlns="http://www.w3.org/2000/svg"><path d="M233.453 134.473c-6.244-6.654-10.704-14.548-8.92-23.985.74-3.889 1.49-7.136-1.106-10.508-1.222-1.596-2.676-3.014-3.568-4.816-2.613-5.236-.651-10.704 1.588-15.699 1.659-3.657 3.425-7.359 4.076-11.355.696-4.219-.437-8.42-.178-12.657.241-4.103 2.363-8.643 6.368-9.562 2.676-.615 5.459.562 7.547 2.32a14.744 14.744 0 0 1 4.807 7.893c.964 4.184.098 8.795 2.016 12.63 1.686 3.381 5.191 5.433 7.564 8.385a14.94 14.94 0 0 1 3.122 11.293c-.473 3.309-2.06 6.404-2.39 9.73-.741 7.493 4.905 14.469 4.352 21.97a16.245 16.245 0 0 1-6.243 11.141c-3.863 3.122-9.562 5.494-14.584 4.852a9.96 9.96 0 0 1-6.815-3.942" fill="#C1CCFF"/><path d="M242.694 131.511a.553.553 0 0 1-.545-.49l-3.799-32.646-4.103-34.966a.561.561 0 0 1 .49-.615.574.574 0 0 1 .607.482l4.103 34.974 3.8 32.646a.557.557 0 0 1-.482.615h-.071z" fill="#fff"/><path d="M238.929 98.865a.56.56 0 0 1-.473-.838l8.769-14.754a.55.55 0 0 1 .785-.244c.066.04.124.093.169.156a.562.562 0 0 1 .087.441.557.557 0 0 1-.096.21l-8.759 14.762a.57.57 0 0 1-.482.267zm-1.561-9.793a.518.518 0 0 1-.223-.09L225.55 83.47a.558.558 0 0 1-.284-.316.558.558 0 0 1 .336-.707.549.549 0 0 1 .42.024l11.596 5.512a.554.554 0 0 1 .283.312.547.547 0 0 1-.024.42.557.557 0 0 1-.509.357zm3.122 23.887a.475.475 0 0 1-.214-.054l-9.74-4.228a.533.533 0 0 1-.332-.513.549.549 0 0 1 .769-.495l9.74 4.228a.553.553 0 0 1-.223 1.062z" fill="#fff"/><path d="M236.174 128.181a9.688 9.688 0 0 1 .209-4.525c1.427-4.084 5.293-6.707 8.075-9.669 3.304-3.523 5.806-8.133 6.047-13.099.185-4.024 1.163-7.377 3.946-10.315 2.782-2.937 6.127-4.957 8.99-7.682a62.74 62.74 0 0 0 8.163-9.398c2.037-2.912 5.823-7.233 8.397-2.13a9.831 9.831 0 0 1 .714 6.672c-1.468 5.823-6.721 9.431-9.103 14.746-1.202 2.69-1.467 5.62-1.876 8.489-.361 2.614-.946 5.518-2.807 7.428-1.083 1.112-2.406 1.91-3.416 3.115-1.372 1.698-1.837 3.888-2.406 5.943a33.37 33.37 0 0 1-2.478 6.307c-2.502 5.17-6.127 11.147-11.46 13.286-1.545.7-3.264.84-4.892.399-3.52-1.112-5.549-5.985-6.103-9.567z" fill="#D8EFFF"/><path d="M245.396 130.905a.51.51 0 0 1-.25-.063.55.55 0 0 1-.24-.74l20.782-40.344a.553.553 0 0 1 .741-.24.556.556 0 0 1 .241.74l-20.783 40.353a.557.557 0 0 1-.491.294z" fill="#fff"/><path d="M257.661 106.492a.552.552 0 0 1-.553-.535l-.197-14.272a.551.551 0 0 1 .545-.562.536.536 0 0 1 .553.544l.205 14.272a.545.545 0 0 1-.544.553h-.009zm-1.972 5.155a.55.55 0 0 1-.54-.42.551.551 0 0 1 .282-.623l11.149-5.87a.567.567 0 0 1 .441-.073.547.547 0 0 1 .351.276.544.544 0 0 1 .033.445.551.551 0 0 1-.307.325l-11.132 5.878a.644.644 0 0 1-.277.062zm-8.563 15.003a.555.555 0 0 1-.544-.437l-1.712-8.491a.555.555 0 1 1 1.088-.223l1.713 8.491a.566.566 0 0 1 0 .217.569.569 0 0 1-.237.352.544.544 0 0 1-.201.082l-.107.009z" fill="#fff"/><path d="M241.489 129.576a6.661 6.661 0 0 0-.526-3.265c-1.427-2.845-4.612-4.459-6.984-6.333a15.111 15.111 0 0 1-5.709-9 10.701 10.701 0 0 0-3.862-7.135c-2.337-1.865-5.111-3.069-7.528-4.808a46.078 46.078 0 0 1-7.038-6.137c-1.784-1.935-5.066-4.754-6.627-.82a6.794 6.794 0 0 0 0 4.905c1.605 4.103 5.931 6.244 8.197 9.928a21.495 21.495 0 0 1 2.123 6.03c.49 1.864 1.177 3.924 2.756 5.155.892.714 2.025 1.178 2.881 1.972a10.69 10.69 0 0 1 2.31 4.138 23.667 23.667 0 0 0 2.409 4.371c2.345 3.568 5.61 7.573 9.883 8.67a5.895 5.895 0 0 0 3.799-.134c2.614-1.177 3.782-4.888 3.916-7.537z" fill="#A1ADE4"/><path d="M235.888 132.502a.537.537 0 0 1-.455-.241l-17.456-26.331a.553.553 0 0 1 .352-.848.547.547 0 0 1 .416.087c.06.041.111.093.151.154l17.456 26.287a.562.562 0 0 1 .079.417.566.566 0 0 1-.24.35.529.529 0 0 1-.303.125z" fill="#fff"/><path d="M225.55 116.58a.55.55 0 0 1-.544-.499l-.963-9.866a.551.551 0 0 1 .712-.577.55.55 0 0 1 .323.266.543.543 0 0 1 .062.204l.963 9.866a.552.552 0 0 1-.5.597l-.053.009zm1.784 3.398a.544.544 0 0 1-.205 0l-8.144-3.202a.551.551 0 0 1 .401-1.026l8.153 3.202a.559.559 0 0 1 .298.295.557.557 0 0 1 .005.419.531.531 0 0 1-.508.312zm7.037 9.723h-.053a.556.556 0 0 1-.5-.598l.536-5.994a.524.524 0 0 1 .191-.378.541.541 0 0 1 .406-.121.552.552 0 0 1 .5.597l-.535 5.994a.564.564 0 0 1-.545.5z" fill="#fff"/><path d="M237.225.936H50.795a2.007 2.007 0 0 0-2.008 2.007v110.962c0 1.108.899 2.007 2.007 2.007h186.431a2.007 2.007 0 0 0 2.007-2.007V2.943a2.007 2.007 0 0 0-2.007-2.007z" fill="#3B467E"/><path d="M231.428 7.653H56.592v101.542h174.836V7.653z" fill="#EAEAFB"/><path d="M134.272 13.825H72.64c-5.523 0-10 4.477-10 10v23.888c0 5.523 4.477 10 10 10h61.632c5.523 0 10-4.477 10-10V23.825c0-5.523-4.477-10-10-10z" fill="#FFF9FF"/><path d="M144.272 15.675v3.416H62.64v-3.416c0-.607.177-1.19.492-1.619.315-.43.742-.67 1.188-.67h78.272c.446 0 .873.24 1.188.67.315.43.492 1.012.492 1.619z" fill="#DADAEF"/><path d="M75.413 16.137c0 .128.055.25.152.34.098.09.231.142.37.143h52.726a.556.556 0 0 0 .371-.143.465.465 0 0 0 .156-.34.473.473 0 0 0-.154-.341.532.532 0 0 0-.171-.105.573.573 0 0 0-.202-.036H75.935a.565.565 0 0 0-.371.141.48.48 0 0 0-.113.157.443.443 0 0 0-.038.184z" fill="#FFF9FF"/><path d="M69.402 16.137v.356a.124.124 0 0 1-.019.068.139.139 0 0 1-.054.05.155.155 0 0 1-.148-.004l-.335-.175-.34-.18a.141.141 0 0 1-.053-.05.127.127 0 0 1 0-.133.141.141 0 0 1 .053-.05l.34-.176.335-.18a.154.154 0 0 1 .148-.003.139.139 0 0 1 .054.05c.013.02.02.044.019.068v.36zm1.759 0v.356c0 .023.007.046.02.066.012.02.03.037.052.048a.154.154 0 0 0 .144 0l.34-.175.336-.18a.142.142 0 0 0 .052-.05.127.127 0 0 0 0-.133.142.142 0 0 0-.052-.05l-.336-.175-.34-.18a.155.155 0 0 0-.144 0 .138.138 0 0 0-.052.048.123.123 0 0 0-.02.066v.36z" fill="#2E3062"/><path d="M135.961 16.8c.432 0 .782-.32.782-.715 0-.395-.35-.716-.782-.716-.431 0-.781.32-.781.716 0 .395.35.715.781.715z" fill="#6B5EFD"/><path d="M133.076 16.8c.431 0 .781-.32.781-.715 0-.395-.35-.716-.781-.716-.432 0-.782.32-.782.716 0 .395.35.715.782.715z" fill="#FDA803"/><path d="M138.847 16.8c.431 0 .781-.32.781-.715 0-.395-.35-.716-.781-.716-.432 0-.782.32-.782.716 0 .395.35.715.782.715z" fill="#FF495A"/><path d="M111.844 54.045c-2.525-4.21 1.781-11.739 6.537-13.048 2.428-.673 3.788.61 5.156-.539 2.399-1.999-.375-7.029 2.264-9.34 1.238-1.081 2.029-.138 3.919-1.195 3.337-1.864 2.614-5.795 5.345-7.761 2.42-1.742 6.347-1.835 7.517-.286 1.574 2.075-.968 8.216-4.958 9.975-1.317.58-2.63.614-3.123 1.684-.678 1.473 1.263 2.559 1.027 4.36-.421 3.174-6.882 3.254-7.93 7.155-.42 1.583.569 1.836.367 3.843-.375 3.7-4.26 7.862-9.062 8.098-.316.009-5.165.177-7.059-2.946z" fill="#6D964B"/><path d="M115.136 52.938l-.354-.101c.985-3.397 2.631-5.947 4.882-7.576a11.08 11.08 0 0 1 3.304-1.612c1.103-.37 2.05-.695 2.947-1.806 1.115-1.376 1.128-2.656 1.14-4.011.013-1.355.03-2.753 1.263-4.209.939-1.12 1.949-1.49 2.925-1.852 1.124-.42 2.18-.804 3.174-2.268a7.852 7.852 0 0 0 .808-1.579 6.93 6.93 0 0 1 1.263-2.163 9.149 9.149 0 0 1 3.708-2.526l.13.346a8.736 8.736 0 0 0-3.565 2.407 6.43 6.43 0 0 0-1.212 2.058 8.41 8.41 0 0 1-.842 1.646c-1.056 1.561-2.222 1.99-3.367 2.407-.972.358-1.894.7-2.774 1.743-1.123 1.343-1.136 2.614-1.153 3.96-.017 1.347-.025 2.762-1.221 4.239-.968 1.195-1.965 1.532-3.118 1.92-1.148.34-2.232.867-3.208 1.56-2.171 1.613-3.771 4.105-4.73 7.417z" fill="#89BD5E"/><path d="M77.74 53.36c-3.57-3.368-1.428-11.786 2.798-14.311 2.16-1.3 3.788-.421 4.824-1.903 1.772-2.572-2.244-6.675-.325-9.605.901-1.376 1.92-.681 3.456-2.2 2.715-2.695.964-6.29 3.068-8.916 1.865-2.323 5.623-3.464 7.156-2.29 2.07 1.58 1.262 8.179-2.105 10.944-1.115.913-2.37 1.296-2.559 2.462-.257 1.6 1.903 2.13 2.163 3.927.455 3.17-5.757 4.98-5.72 9.02 0 1.637 1.036 1.616 1.381 3.603.631 3.666-1.995 8.717-6.558 10.232-.29.076-4.916 1.54-7.58-.964z" fill="#6D964B"/><path d="M80.614 51.41h-.367c.042-3.535.939-6.435 2.669-8.62a11.026 11.026 0 0 1 2.752-2.437c.96-.652 1.79-1.216 2.362-2.525.703-1.629.374-2.862.02-4.171-.353-1.31-.706-2.66.072-4.373a6.162 6.162 0 0 1 2.328-2.555c.968-.699 1.885-1.36 2.45-3.035a8.04 8.04 0 0 0 .353-1.738 6.844 6.844 0 0 1 .652-2.424 9.18 9.18 0 0 1 2.9-3.414l.22.295a8.86 8.86 0 0 0-2.791 3.274 6.439 6.439 0 0 0-.615 2.311 8.46 8.46 0 0 1-.374 1.81c-.602 1.789-1.608 2.525-2.58 3.22-.842.606-1.642 1.183-2.206 2.42-.724 1.595-.396 2.824-.046 4.125.35 1.3.711 2.668-.047 4.415-.61 1.406-1.481 2-2.487 2.685a10.734 10.734 0 0 0-2.673 2.361c-1.68 2.1-2.55 4.925-2.593 8.376zm32.931 3.473c-3.99-2.526-3.477-10.922.075-14.096 1.814-1.62 3.532-1.09 4.209-2.673 1.225-2.757-3.325-5.926-2.028-9.053.606-1.465 1.683-.99 2.879-2.707 2.104-3.043-.215-6.136 1.309-9.007 1.346-2.525 4.709-4.297 6.385-3.46 2.247 1.124 2.672 7.526-.03 10.754-.892 1.065-2.016 1.654-1.982 2.795.042 1.566 2.188 1.684 2.757 3.338 1.001 2.92-4.567 5.753-3.789 9.58.308 1.553 1.263 1.346 1.958 3.169 1.262 3.367-.324 8.628-4.378 10.884-.265.152-4.39 2.37-7.365.476z" fill="#89BD5E"/><path d="M115.923 52.517l-.35.063c-.598-3.367-.269-6.27.981-8.653a10.614 10.614 0 0 1 2.172-2.812c.791-.791 1.477-1.473 1.78-2.82.379-1.683-.16-2.782-.724-3.96-.564-1.179-1.153-2.395-.72-4.159a5.887 5.887 0 0 1 1.739-2.853c.795-.842 1.544-1.634 1.78-3.321a7.548 7.548 0 0 0 0-1.713 6.67 6.67 0 0 1 .181-2.416 8.875 8.875 0 0 1 2.142-3.759l.257.24a8.488 8.488 0 0 0-2.054 3.607 6.271 6.271 0 0 0-.172 2.306 7.97 7.97 0 0 1-.026 1.78c-.248 1.807-1.073 2.674-1.873 3.515-.69.733-1.342 1.419-1.654 2.698-.4 1.642.131 2.749.695 3.919s1.157 2.403.753 4.209c-.324 1.448-1.044 2.168-1.877 2.997a10.515 10.515 0 0 0-2.105 2.719c-1.195 2.298-1.511 5.135-.925 8.413z" fill="#6D964B"/><path d="M119.664 53.026c-1.086-3.434 3.309-8.072 6.937-8.19 1.852-.06 2.592 1.09 3.788.509 2.062-1.014.955-5.084 3.241-6.276 1.069-.56 1.473.253 3.005-.172 2.706-.753 2.875-3.687 5.164-4.63 2.033-.842 4.853-.206 5.421 1.103.762 1.755-2.104 5.699-5.273 6.263-1.044.185-1.987-.021-2.526.66-.741.935.455 2.05-.025 3.296-.842 2.193-5.472 1.128-6.903 3.733-.581 1.053.084 1.41-.421 2.808-.909 2.576-4.406 4.874-7.879 4.209-.227-.034-3.72-.754-4.529-3.313z" fill="#89BD5E"/><path d="M122.206 52.825l-.235-.135c1.296-2.252 2.912-3.788 4.806-4.571a8.088 8.088 0 0 1 2.639-.577c.842-.075 1.587-.139 2.421-.778 1.035-.787 1.262-1.684 1.511-2.665.248-.98.5-1.96 1.616-2.777a4.513 4.513 0 0 1 2.412-.817 4.122 4.122 0 0 0 2.66-1.07c.316-.295.598-.625.841-.984a5.056 5.056 0 0 1 1.288-1.322 6.738 6.738 0 0 1 3.085-1.149l.034.266a6.469 6.469 0 0 0-2.946 1.102c-.484.34-.9.769-1.225 1.263-.258.375-.556.72-.888 1.031a4.382 4.382 0 0 1-2.812 1.137 4.208 4.208 0 0 0-2.281.761c-1.039.762-1.263 1.684-1.515 2.631-.253.947-.497 1.966-1.608 2.812-.896.686-1.684.753-2.563.841a7.95 7.95 0 0 0-2.559.56c-1.848.724-3.418 2.222-4.681 4.44z" fill="#6D964B"/><path d="M86.313 56.297c-2.753-2.323-1.512-8.595 1.49-10.628 1.536-1.04 2.777-.463 3.463-1.582 1.204-1.957-1.906-4.811-.61-7.038.61-1.043 1.38-.576 2.45-1.755 1.89-2.079.463-4.65 1.906-6.658 1.263-1.78 3.99-2.766 5.169-1.962 1.583 1.078 1.263 5.952-1.115 8.111-.783.716-1.684 1.044-1.78 1.907-.131 1.187 1.477 1.49 1.737 2.799.46 2.306-4.032 3.876-3.846 6.843.075 1.2.841 1.145 1.153 2.589.61 2.668-1.124 6.477-4.411 7.765-.206.089-3.574 1.343-5.606-.391z" fill="#89BD5E"/><path d="M88.346 54.756h-.27c-.11-2.597.421-4.76 1.62-6.43a8.062 8.062 0 0 1 1.924-1.9 4.07 4.07 0 0 0 1.633-1.948c.455-1.22.165-2.104-.143-3.064-.307-.96-.627-1.924-.122-3.212a4.529 4.529 0 0 1 1.608-1.974 4.13 4.13 0 0 0 1.684-2.323c.11-.422.173-.856.189-1.292a5.12 5.12 0 0 1 .383-1.806 6.688 6.688 0 0 1 2-2.613l.168.206a6.49 6.49 0 0 0-1.92 2.525 4.795 4.795 0 0 0-.362 1.722 6.113 6.113 0 0 1-.202 1.342 4.394 4.394 0 0 1-1.767 2.463 4.21 4.21 0 0 0-1.524 1.864c-.472 1.195-.181 2.105.126 3.03.307.927.627 1.928.14 3.237-.392 1.061-1.011 1.528-1.722 2.071a7.898 7.898 0 0 0-1.87 1.84c-1.153 1.62-1.683 3.729-1.573 6.262z" fill="#6D964B"/><path d="M127.27 57.454c-.084-2.597-.257-6.928-.509-8.359-.994-5.577-7.282-10.228-16.264-10.228s-14.815 4.731-16.26 10.228c-.378 1.44-.605 5.762-.69 8.36h33.723z" fill="#0172D0"/><path d="M110.135 43.232c-1.772-.059-4.672-.875-4.672-.875l1.722-7.745.774-8.506 7.021 1.41-1.322 6.04c.177 2.946.459 5.206.943 8.645 0 0-2.727 1.09-4.466 1.031z" fill="#FFA681"/><path d="M107.286 33.602l-.463 2.644c1.448 0 3.674-.047 4.705-.729 2.269-1.494 1.263-3.438.261-4.747-.715-.918-2.453 2.344-4.503 2.832z" fill="#F97853"/><path d="M105.463 14.308c-.896.253-3.005 8.932-1.359 15.102 1.717 6.431 8.161 7.782 11.364 2.462 4.036-6.734 2.997-14.02 3.165-15.485.307-2.748-8.199-3.493-13.17-2.079z" fill="#FFA681"/><path d="M120.153 26.615a2.614 2.614 0 1 1-5.127-1.02 2.614 2.614 0 0 1 5.127 1.02zm-14.096-2.033a2.613 2.613 0 1 1-5.126-1.02 2.613 2.613 0 0 1 5.126 1.02z" fill="#FFA681"/><path d="M114.075 23.976a.425.425 0 0 1-.299.36.423.423 0 0 1-.539-.366.424.424 0 0 1 .463-.457.416.416 0 0 1 .284.154.412.412 0 0 1 .091.31zm-6.431-.749a.433.433 0 0 1-.154.283.422.422 0 0 1-.686-.373.424.424 0 0 1 .623-.328.42.42 0 0 1 .217.418z" fill="#18315B"/><path d="M115.283 22.566a.212.212 0 0 0 .15-.119.202.202 0 0 0 .016-.077.19.19 0 0 0-.061-.141c-1.402-1.397-2.344-.66-2.382-.627a.193.193 0 0 0-.03.278.199.199 0 0 0 .278.03c.029-.026.72-.53 1.856.601a.196.196 0 0 0 .173.055zm-7.219-1.149a.21.21 0 0 0 .156-.08.2.2 0 0 0 .014-.22.21.21 0 0 0-.052-.058 1.837 1.837 0 0 0-1.397-.458 1.078 1.078 0 0 0-.682.42.208.208 0 0 0-.028.073.202.202 0 0 0 .091.201.207.207 0 0 0 .278-.038.636.636 0 0 1 .421-.257 1.486 1.486 0 0 1 1.077.384.194.194 0 0 0 .122.033z" fill="#C46A00"/><path d="M114.298 15.634s-1.865 7.669 5.223 8.877c0 0 4.264-13.423-7.891-14.37L100.88 9.3s-1.082 16.807 13.418 6.335z" fill="#C46A00"/><path d="M110.11 22.478s-.29 3.952-1.848 4.697c0 0 1.756.913 2.572.147" stroke="#F97853" stroke-miterlimit="10" stroke-linecap="round"/><path d="M107.692 24.89a1.856 1.856 0 1 0-.98-3.58 1.856 1.856 0 0 0 .98 3.58zM115.5 24c.02-1.024-.827-1.872-1.892-1.892-1.064-.02-1.943.794-1.962 1.82-.02 1.024.827 1.871 1.892 1.892 1.064.02 1.943-.795 1.962-1.82zm-3.727-.638s-.889-2.058-2.711-.303m10.56 1.166s-1.721-.842-4.179.202m-10.022-1.781a2.335 2.335 0 0 0-1.763-1.343" stroke="#fff" stroke-miterlimit="10" stroke-linecap="round"/><path d="M109.226 29.465s2.041 1.166 3.679-.98" stroke="#F97853" stroke-miterlimit="10" stroke-linecap="round"/><path d="M113.932 37.382l-3.856 6.111 1.297 4.588 4.731-6.798-2.172-3.901z" fill="#fff"/><path d="M106.562 37.382l3.855 6.111-1.296 4.588-4.731-6.798 2.172-3.901z" fill="#fff"/><path d="M98.556 57.454c-.084-2.597-.311-6.92-.69-8.359-1.444-5.497-7.281-10.228-16.259-10.228-8.978 0-15.27 4.651-16.263 10.228-.253 1.431-.421 5.762-.51 8.36h33.722z" fill="#FDA803"/><path d="M81.969 51.225c.185 0 4.583-7.934 4.672-8.868l-1.722-7.745-.783-8.506-7.02 1.41 1.342 7.21c-.18 2.946-.522 4.053-.955 7.496-.173 1.343 4.466 9.003 4.466 9.003z" fill="#FFA681"/><path d="M84.667 32.878l.652 3.477c-1.22-.169-3.96-.518-4.996-1.2-2.264-1.494-1.157-3.788-.16-5.11.703-.917 2.458 2.345 4.504 2.833z" fill="#F97853"/><path d="M86.662 14.308c.896.253 3.005 8.932 1.36 15.102-1.718 6.431-8.162 7.782-11.365 2.462-4.036-6.734-2.996-14.02-3.165-15.485-.328-2.748 8.178-3.493 13.17-2.079z" fill="#FFA681"/><path d="M71.952 26.615a2.615 2.615 0 1 0 5.128-1.02 2.615 2.615 0 0 0-5.128 1.02zm14.095-2.033a2.614 2.614 0 1 0 5.128-1.02 2.614 2.614 0 0 0-5.127 1.02z" fill="#FFA681"/><path d="M78.088 24.372a.42.42 0 1 0 .834-.11.42.42 0 0 0-.834.11zm6.402-.96a.421.421 0 1 0 .836-.11.421.421 0 0 0-.836.11zm-7.635-.302a.21.21 0 0 1-.105-.055.193.193 0 0 1 0-.278c1.355-1.448 2.323-.741 2.361-.712a.196.196 0 0 1 .072.209.202.202 0 0 1-.312.112c-.03-.026-.736-.51-1.835.66a.193.193 0 0 1-.18.063zm7.101-1.432a.2.2 0 0 1-.148-.1.202.202 0 0 1 .076-.27 1.821 1.821 0 0 1 1.444-.27c.265.084.487.268.618.514a.196.196 0 0 1-.028.222.197.197 0 0 1-.284.011.197.197 0 0 1-.045-.065.665.665 0 0 0-.388-.307 1.493 1.493 0 0 0-1.12.24.198.198 0 0 1-.125.025z" fill="#18315B"/><path d="M73.808 17.713s1.507 6.638-1.225 6.798c0 0-4.63-14.269 7.526-13.574 9.98.568 8.418 10.409 8.418 10.409s-11.79 1.267-14.72-3.633z" fill="#18315B"/><path d="M81.687 22.41s.484 3.254 2.294 3.91c0 0-.047.775-1.208 1.377" stroke="#F97853" stroke-miterlimit="10" stroke-linecap="round"/><path d="M79.406 29.077s2.622.926 4.684.055c0 0-2.15 3.696-4.684-.055z" fill="#fff"/><path d="M70.958 17.566a3.96 3.96 0 1 0 0-7.921 3.96 3.96 0 0 0 0 7.921z" fill="#18315B"/><path d="M85.96 39.221s4.755.686 3.282 3.952c-1.473 3.267-5.177 4.331-5.177 4.331s2.235-.42 2.105 1.524c-.13 1.945-4.167 2.197-4.167 2.197l3.956-12.004z" fill="#fff"/><path d="M77.941 39.15s-4.748.69-3.275 3.956c1.474 3.266 5.178 4.331 5.178 4.331s-2.235-.42-2.126 1.524c.11 1.944 4.314 2.264 4.314 2.264l-4.09-12.075zm7.74-1.12l-.118-.518c-2.912 2.993-6.734.594-7.4.143-.02.165-.045.329-.07.493a8.27 8.27 0 0 0 4.095 1.263 4.988 4.988 0 0 0 3.493-1.381z" fill="#fff"/><path d="M82.234 41.705a1.242 1.242 0 1 0 0-2.484 1.242 1.242 0 0 0 0 2.484z" fill="#fff"/><path d="M134.272 60.346H72.64c-5.523 0-10 4.477-10 10v23.889c0 5.523 4.477 10 10 10h61.632c5.523 0 10-4.477 10-10V70.346c0-5.523-4.477-10-10-10z" fill="#FFF9FF"/><path d="M144.272 62.635v3.417H62.64v-3.417c0-.607.177-1.189.492-1.618.315-.43.742-.67 1.188-.67h78.272c.446 0 .873.24 1.188.67.315.429.492 1.011.492 1.618z" fill="#DADAEF"/><path d="M75.413 63.098c0 .127.055.25.152.34.098.09.231.142.37.143h52.726a.556.556 0 0 0 .371-.143.466.466 0 0 0 .156-.34.473.473 0 0 0-.154-.341.532.532 0 0 0-.171-.105.573.573 0 0 0-.202-.037H75.935a.565.565 0 0 0-.371.142.48.48 0 0 0-.113.157.444.444 0 0 0-.038.184z" fill="#FFF9FF"/><path d="M69.402 63.098v.356a.124.124 0 0 1-.019.068.139.139 0 0 1-.054.05.154.154 0 0 1-.148-.004l-.335-.176-.34-.18a.141.141 0 0 1-.053-.05.127.127 0 0 1 0-.133.141.141 0 0 1 .053-.05l.34-.175.335-.18a.154.154 0 0 1 .148-.003.139.139 0 0 1 .054.05c.013.02.02.044.019.067v.36zm1.759 0v.356a.134.134 0 0 0 .072.114.154.154 0 0 0 .144 0l.34-.176.336-.18a.143.143 0 0 0 .052-.05.128.128 0 0 0 0-.133.143.143 0 0 0-.052-.05l-.336-.175-.34-.18a.155.155 0 0 0-.144 0 .137.137 0 0 0-.052.049.123.123 0 0 0-.02.065v.36z" fill="#2E3062"/><path d="M135.961 63.761c.432 0 .782-.32.782-.715 0-.395-.35-.716-.782-.716-.431 0-.781.32-.781.716 0 .395.35.715.781.715z" fill="#6B5EFD"/><path d="M133.076 63.761c.431 0 .781-.32.781-.715 0-.395-.35-.716-.781-.716-.432 0-.782.32-.782.716 0 .395.35.715.782.715z" fill="#FDA803"/><path d="M138.847 63.761c.431 0 .781-.32.781-.715 0-.395-.35-.716-.781-.716-.432 0-.782.32-.782.716 0 .395.35.715.782.715z" fill="#FF495A"/><path d="M134.977 104.026a.795.795 0 0 0 .575-.237c.326-.317.525-.744.557-1.198 0-2.985 3.652-2.787 4.828-6.43 1.176-3.643-3.472-3.95-6.145-1.703-1.909 1.62-4.2-.645-6.974 1.247-2.409 1.637-1.066 5.67-5.016 4.411a3.585 3.585 0 0 0-3.349.697 5.646 5.646 0 0 0-2.106 3.235h17.63v-.022z" fill="#F68601"/><path d="M126.151 104.026l9.985-6.412a.299.299 0 0 0 .131-.185.299.299 0 0 0-.452-.316l-10.766 6.913h1.102z" fill="#E65913"/><path d="M95.969 99.769a27.744 27.744 0 0 0 1.988-1.598c-.764-3.7-1.865-10.436-1.317-16.361.878-9.388-3.147-11.082-5.46-9.041-7.509 6.635 4.477 26.991 4.477 26.991l.312.009z" fill="#F68601"/><path d="M96.715 99.198l.338-.268a58.045 58.045 0 0 1-3.331-13.118 63.653 63.653 0 0 1-.646-7.606.22.22 0 1 0-.438 0c.063 2.564.278 5.121.645 7.659a58.269 58.269 0 0 0 3.432 13.333z" fill="#E65913"/><path d="M98.387 103.986c0-.596 0-1.193-.062-1.79-3.397-1.646-9.414-4.872-13.767-8.927-6.904-6.43-10.714-4.253-10.499-1.176.474 6.85 11.622 10.362 18.6 11.893h5.728z" fill="#F68601"/><path d="M98.387 103.811v-.439A57.624 57.624 0 0 1 85.94 98.04a64.927 64.927 0 0 1-6.434-4.108.206.206 0 0 0-.29.04.21.21 0 0 0 .044.289 63.422 63.422 0 0 0 6.465 4.143 58.204 58.204 0 0 0 12.662 5.407z" fill="#E65913"/><path d="M99.52 103.986l.697-.259S91.72 92.615 87.972 80.519c-4.038-13.048-10.38-13.061-12.333-9.04-5.477 11.283 14.229 28.145 19.667 32.507h4.213z" fill="#FDA803"/><path d="M98.014 103.986h.851c-5.503-5.38-9.844-11.85-12.6-16.48a92.557 92.557 0 0 1-5.104-9.813.303.303 0 0 0-.553.237 93.702 93.702 0 0 0 5.135 9.857c2.712 4.578 6.92 10.862 12.27 16.199z" fill="#F68601"/><path d="M126.129 104.026a7.758 7.758 0 0 0-.167-1.4c-.97-4.424 1.663-5.267 5.13-6.658 3.468-1.391 3.88-5.547 1.422-8.997-2.457-3.45 1.958-6.224.334-11.411-1.624-5.188-7.268-1.756-8.501 3.05-.878 3.441-5.398 2.7-7.071 7.163-1.448 3.875 3.415 7.46-2.194 9.216-1.795.566-2.787 1.945-3.305 3.555a8.024 8.024 0 0 0 .202 5.478l14.15.004z" fill="#FDA803"/><path d="M119.26 104.026l9.252-22.822a.436.436 0 0 0-.272-.451.439.439 0 0 0-.509.135l-9.384 23.138h.913z" fill="#F68601"/><mask id="a" maskUnits="userSpaceOnUse" x="91" y="58" width="59" height="47"><path d="M139.539 58.59h-38.372c-5.523 0-10 4.478-10 10.001v25.644c0 5.523 4.477 10 10 10h38.372c5.523 0 10-4.477 10-10V68.591c0-5.523-4.477-10-10-10z" fill="#DADAEF"/></mask><g mask="url(#a)"><path d="M92.998 78.276v.476a.18.18 0 0 1-.268.155l-.409-.24-.415-.236a.179.179 0 0 1-.065-.244.179.179 0 0 1 .065-.065l.415-.24.412-.236a.176.176 0 0 1 .268.151l-.003.48zm2.141 0v.476a.18.18 0 0 0 .268.155l.412-.24.415-.236a.18.18 0 0 0 0-.31l-.39-.239-.413-.236a.176.176 0 0 0-.267.151l-.025.48z" fill="#002B5C"/><path d="M96.98 107.906c1.484-6.587 4.199-13.173 4.58-15.47.377-2.377-.141-7.453-1.589-8.372-1.018.539-1.736 1.923-2.166 2.994-1.166 2.91-3.49 8.425-4.977 14.793-.472 2.033-.877 3.875-1.222 6.045l5.375.01z" fill="#0172D0"/><path d="M122.701 107.906c0-.587-.011-1.174-.032-1.761-.204-10.335-.602-20.827-1.314-21.877-.676-.997-2.705-2.261-4.653-3.406l-.729-.423-.173-.102-.634-.352c-.77-.43-1.518-.9-2.24-1.41v.286s-1.056 1.504-2.25 1.41c-1.089-.103-1.684-1.448-1.825-1.692-.668.46-1.362.881-2.078 1.261l-.652.353-.211.116-.166.091c-2.419 1.328-5.339 2.927-6.121 4.083-.617.908-.93 8.865-1.085 17.664 0 .722-.021 1.451-.032 2.18v1.219c0 .796-.017 1.592-.025 2.381l24.22-.021z" fill="#0172D0"/><path d="M103.082 85.071s-4.16-4.854-1.251-8.284c2.91-3.431 9.785-3.128 12.05-2.78 2.265.35 8.89 4.294 4.153 9.895-4.738 5.6-14.952 1.17-14.952 1.17z" fill="#0172D0"/><path d="M103.923 103.665a16.39 16.39 0 0 0 7.985 3.318.214.214 0 0 0 .094-.007.207.207 0 0 0 .082-.045.223.223 0 0 0 .075-.166.223.223 0 0 0-.058-.139.213.213 0 0 0-.133-.069 16.027 16.027 0 0 1-7.777-3.234.212.212 0 0 0-.23-.028.214.214 0 0 0-.122.197.215.215 0 0 0 .021.097c.015.03.037.056.063.076zm.902-2.79c.001.035.01.069.029.099.112.197.239.402.387.609a8.71 8.71 0 0 0 5.005 3.389.157.157 0 0 0 .053 0 .196.196 0 0 0 .211-.172.196.196 0 0 0-.162-.219 8.239 8.239 0 0 1-5.149-3.825.202.202 0 0 0-.102-.087.202.202 0 0 0-.272.206zm8.679-16.963a14.962 14.962 0 0 1-4.431 3.008.2.2 0 0 0-.087.076.2.2 0 0 0 .059.279.202.202 0 0 0 .19.018c.995-.43 1.94-.969 2.818-1.606.624-.451 1.213-.95 1.761-1.49a.19.19 0 0 0 .06-.14.196.196 0 0 0-.019-.139.2.2 0 0 0-.243-.095.2.2 0 0 0-.108.09z" fill="#0056C5"/><path d="M107.703 102.499a.18.18 0 0 1-.176-.172c-.187-8.454 0-17.01 0-17.097a.176.176 0 0 1 .243-.156.172.172 0 0 1 .093.095.172.172 0 0 1 .013.068c0 .088-.187 8.64 0 17.083a.17.17 0 0 1-.013.067.169.169 0 0 1-.037.058.167.167 0 0 1-.056.039.156.156 0 0 1-.067.015zm6.646 0a.156.156 0 0 1-.067-.015.167.167 0 0 1-.056-.039.169.169 0 0 1-.037-.058.153.153 0 0 1-.012-.067c.186-8.454 0-16.995 0-17.083a.155.155 0 0 1 .012-.068.167.167 0 0 1 .094-.095.174.174 0 0 1 .188.036.172.172 0 0 1 .054.12c0 .087.187 8.647 0 17.097a.18.18 0 0 1-.053.121.182.182 0 0 1-.123.051z" fill="#fff"/><path d="M117.061 68.111c0 3.706-2.278 6.26-5.987 6.26s-6.288-2.748-6.288-6.453c0-3.706 2.195-6.513 5.9-6.513 4.445 0 6.375 3 6.375 6.706z" fill="#18315B"/><path d="M105.269 70.545a2.87 2.87 0 0 1-1.835-1.983c-.469-1.617.62-.796.807-2.201.186-1.406-1.388-2.466 0-3.128 1.387-.662.549-2.141 1.761-2.902 1.211-.761 3.011.64 4.181-.529 1.169-1.17 3.543-.88 4.226 0 .684.88.969.666 2.23.898 1.261.233 1.842 2.286 1.229 3.23s-.186 1.582.402 2.167c.588.584.179 4.607-1.842 4.043-2.022-.563-11.159.405-11.159.405z" fill="#18315B"/><path d="M116.23 69.707s1.029-1.374 1.797-.24c.768 1.135-.317 4.491-2.195 3.67l.398-3.43z" fill="#F97853"/><path d="M116.244 72.102a.161.161 0 0 0 .152-.116 2.44 2.44 0 0 1 1.374-1.459.16.16 0 0 0 .084-.201.156.156 0 0 0-.08-.087.157.157 0 0 0-.117-.007 2.73 2.73 0 0 0-1.568 1.67.165.165 0 0 0 .015.118.161.161 0 0 0 .095.075.11.11 0 0 0 .045.007z" fill="#EA5143"/><path d="M117.329 71.58a.15.15 0 0 0 .085-.024.164.164 0 0 0 .07-.099.162.162 0 0 0-.021-.12 1.404 1.404 0 0 0-.595-.478.158.158 0 0 0-.12-.005.152.152 0 0 0-.088.082.158.158 0 0 0 .077.212c.18.077.338.198.458.352a.159.159 0 0 0 .056.058.16.16 0 0 0 .078.023z" fill="#EA5143"/><path d="M105.618 69.707s-1.029-1.374-1.793-.24c-.764 1.135.317 4.491 2.191 3.67l-.398-3.43z" fill="#F97853"/><path d="M105.607 72.102a.164.164 0 0 1-.155-.116 2.426 2.426 0 0 0-1.373-1.458.158.158 0 0 1-.005-.289.158.158 0 0 1 .117-.007 2.732 2.732 0 0 1 1.568 1.67.159.159 0 0 1-.014.12.157.157 0 0 1-.095.073.092.092 0 0 1-.043.007z" fill="#EA5143"/><path d="M104.522 71.58a.156.156 0 0 1-.13-.243c.15-.21.354-.376.592-.478a.158.158 0 1 1 .13.288 1.21 1.21 0 0 0-.458.353.15.15 0 0 1-.134.08z" fill="#EA5143"/><path d="M108.39 75.984v3.332s.993 1.697 2.338 1.814c1.346.116 2.54-1.462 2.54-1.462v-3.452l-4.878-.232z" fill="#FFA681"/><path d="M108.39 75.984v1.479c.901 1 2.504 1.25 4.878.902v-2.149l-4.878-.232z" fill="#F97853"/><path d="M116.78 69.601c-.05.736-.14 1.469-.271 2.195-.444 2.465-1.452 4.874-3.621 5.635-4.914 1.761-6.672-2.465-7.372-4.93a9.958 9.958 0 0 1-.208-.903 21.494 21.494 0 0 1-.264-1.895c-.081-.8-.134-1.606-.169-2.314a3.47 3.47 0 0 1 2.222-3.406c2.015-.775 5.076-1.387 7.974.257a3.491 3.491 0 0 1 1.762 2.963c.017.7.01 1.518-.053 2.398z" fill="#FFA681"/><path d="M113.032 70.14c0 .352.183.645.409.645.225 0 .408-.286.408-.645 0-.36-.183-.644-.408-.644-.226 0-.409.288-.409.644zm-4.829-.01c0 .352.183.644.408.644.226 0 .409-.289.409-.644 0-.356-.183-.645-.409-.645-.225 0-.408.289-.408.645zm6.861-1.797s-1.567-.62-2.775-.099l.12.673s1.761-.151 2.666.212a1.158 1.158 0 0 0-.011-.786zm-7.805 0s1.571-.62 2.779-.099l-.106.663s-1.761-.152-2.669.21a1.152 1.152 0 0 1-.004-.774z" fill="#18315B"/><path d="M110.869 72.638a1.661 1.661 0 0 1-.574-.124.15.15 0 0 1-.086-.084.157.157 0 0 1-.012-.06.156.156 0 0 1 .014-.06.157.157 0 0 1 .204-.088.953.953 0 0 0 .638.06.169.169 0 0 0 .057-.064.165.165 0 0 0 .02-.084c.056-.553-.095-2.406-.095-2.427a.159.159 0 0 1 .259-.133.15.15 0 0 1 .038.049c.01.018.015.039.016.06.076.826.108 1.656.096 2.486a.479.479 0 0 1-.229.384.654.654 0 0 1-.346.085z" fill="#F97853"/><path d="M113.032 73.796c-.13.652-.56 1.85-2.011 1.85s-1.86-1.096-2.001-1.85h4.012z" fill="#fff"/><path d="M105.043 69.742h.705c-.078-.704-.19-1.99.401-2.173 1.871-.574-.553-1.895.289-2.553.842-.66 2.948-.377 4.407-.427 1.458-.049 3.835-.024 4.409.106.575.13.258 1.088.05 1.828-.208.74.704 1.553.856 2.321.041.298.041.6 0 .898h.599c.07-.93.081-1.8.07-2.5a3.477 3.477 0 0 0-1.761-2.963c-2.899-1.645-5.96-1.032-7.975-.257a3.475 3.475 0 0 0-2.222 3.406c.039.701.091 1.508.172 2.314z" fill="#18315B"/><path d="M121.556 85.07s8.704 7.2 12.011 10.216a20.763 20.763 0 0 0 4.311-3.826c2.181-2.634 2.871-3.339 3.748-4.424l2.867 1.494s-6.34 12.986-10.947 12.187c-4.579-.79-12.11-8.496-12.11-8.496l.12-7.15z" fill="#0172D0"/><path d="M148.086 81.989c-.286 0-.87.82-1.374 1.645l-.092-.05c.561-1.183 1.452-3.247.821-3.208-.412.024-1.229 1.761-1.691 2.818l-.176-.064c.532-1.275 1.49-3.78.779-3.698-.476.053-1.339 2.243-1.761 3.381l-.141-.038c.405-1.1 1.106-3.23.398-3.15-.641.071-1.546 3.417-1.546 3.417l-.494 1.208s-.436-.112-.5-1.085c-.063-.972-.599-1.55-.82-.384-.251 1.318-.064 2.547-.268 3.456a1.94 1.94 0 0 0 .179 1.187c.187.399.476.74.839.99a2.23 2.23 0 0 0 3.018-.434c.846-1.056 1.818-2.465 2.079-3.627.602-1.04 1.25-2.343.75-2.364z" fill="#FFA681"/></g><path d="M217.222 13.825h-56.366c-5.523 0-10 4.477-10 10v70.849c0 5.523 4.477 10 10 10h56.366c5.523 0 10-4.477 10-10v-70.85c0-5.522-4.477-10-10-10z" fill="#FFF9FF"/><path d="M227.222 15.675v3.416h-76.366v-3.417c0-.607.166-1.189.46-1.618.295-.43.695-.67 1.111-.67h73.224c.416 0 .816.24 1.111.67.294.43.46 1.011.46 1.619z" fill="#DADAEF"/><path d="M162.805 16.137c0 .128.051.25.143.34a.5.5 0 0 0 .346.143h49.324a.503.503 0 0 0 .347-.143.478.478 0 0 0 .109-.524.5.5 0 0 0-.267-.262.503.503 0 0 0-.189-.037h-49.324a.494.494 0 0 0-.453.299.467.467 0 0 0-.036.184z" fill="#FFF9FF"/><path d="M157.182 16.137v.356a.132.132 0 0 1-.138.134.133.133 0 0 1-.068-.02l-.314-.176-.319-.18a.143.143 0 0 1-.049-.05.14.14 0 0 1 0-.133.143.143 0 0 1 .049-.05l.319-.175.314-.18a.137.137 0 0 1 .138-.003.132.132 0 0 1 .05.05c.012.02.019.044.018.067v.36zm1.646 0v.356c0 .023.006.046.018.066a.137.137 0 0 0 .183.048l.319-.176.314-.18a.143.143 0 0 0 .049-.05.141.141 0 0 0 .018-.066.141.141 0 0 0-.018-.067.143.143 0 0 0-.049-.05l-.314-.175-.319-.18a.136.136 0 0 0-.183.048.128.128 0 0 0-.018.066v.36z" fill="#2E3062"/><path d="M219.447 16.8c.404 0 .731-.32.731-.715a.723.723 0 0 0-.731-.716.723.723 0 0 0-.731.716c0 .395.327.715.731.715z" fill="#6B5EFD"/><path d="M216.747 16.8c.404 0 .731-.32.731-.715a.723.723 0 0 0-.731-.716c-.403 0-.73.32-.73.716 0 .395.327.715.73.715z" fill="#FDA803"/><path d="M222.146 16.8c.404 0 .731-.32.731-.715a.723.723 0 0 0-.731-.716c-.403 0-.73.32-.73.716 0 .395.327.715.73.715z" fill="#FF495A"/><path d="M174.398 97.089a41.052 41.052 0 0 0 2.255-2.945c-.866-6.82-2.116-19.24-1.493-30.162.995-17.306-3.57-20.43-6.193-16.667-8.517 12.233 5.077 49.758 5.077 49.758l.354.016z" fill="#6B5EFD"/><path d="M175.244 96.037l.384-.494c-1.836-7.794-3.104-15.91-3.779-24.183-.416-4.646-.66-9.328-.731-14.021a.564.564 0 0 0-.073-.286c-.047-.076-.11-.119-.176-.119-.066 0-.13.043-.176.119a.554.554 0 0 0-.073.286c.071 4.725.316 9.44.732 14.118.695 8.415 2.002 16.666 3.892 24.58z" fill="#5731DD"/><path d="M177.141 104.864c0-1.1 0-2.201-.07-3.301-3.853-3.034-10.677-8.98-15.615-16.457-7.83-11.852-12.151-7.84-11.907-2.168.537 12.63 13.181 19.102 21.096 21.926h6.496z" fill="#6B5EFD"/><path d="M177.14 104.54v-.809c-4.927-2.363-9.665-5.663-14.117-9.83a81.284 81.284 0 0 1-7.297-7.573.212.212 0 0 0-.082-.065.147.147 0 0 0-.091-.01.186.186 0 0 0-.087.05.306.306 0 0 0-.068.098.59.59 0 0 0-.042.283c.009.1.042.19.091.25a79.477 79.477 0 0 0 7.333 7.639c4.527 4.234 9.348 7.58 14.36 9.967z" fill="#5731DD"/><path d="M178.425 104.864l.791-.477s-9.637-20.486-13.888-42.784c-4.579-24.054-11.772-24.078-13.987-16.667-6.212 20.801 16.138 51.886 22.305 59.928h4.779z" fill="#6B5EFD"/><path d="M176.718 104.864h.965c-6.242-9.92-11.165-21.845-14.291-30.38a223.932 223.932 0 0 1-5.789-18.092.448.448 0 0 0-.189-.252.223.223 0 0 0-.244.017.5.5 0 0 0-.176.276.881.881 0 0 0-.018.396 226.44 226.44 0 0 0 5.824 18.172c3.076 8.439 7.85 20.024 13.918 29.863z" fill="#5731DD"/><path d="M188.38 9.194s-10.672-1.073-13.547 14.69-4.771 25.631-4.125 34.018c.647 8.387 28.111 6.146 32.405 1.927 4.294-4.218-.389-32.33-1.444-39.806-1.054-7.477-9.039-11.57-13.289-10.829z" fill="#18315B"/><path d="M171.468 84.77c.05.96.094 1.927.125 2.894a83.262 83.262 0 0 1-1.325 17.069h37.038a83.332 83.332 0 0 1-1.324-17.069c.069-2.065.175-4.105.307-6.095.471-7.17 1.256-13.692 1.764-18.632.509-4.94.785-8.406.17-9.178a11.629 11.629 0 0 0-2.499-2.09 60.057 60.057 0 0 0-5.75-3.34l-1.155-.628c-2.373-1.255-4.57-2.348-5.826-3.183a9.935 9.935 0 0 1-4.118 1.042h-.226a9.94 9.94 0 0 1-4.124-1.042c-1.331.886-3.767 2.116-6.372 3.472l-1.393.74a80.383 80.383 0 0 0-3.767 2.116c-.49.301-.96.628-1.394.898a11.94 11.94 0 0 0-2.555 2.172c-1.255 1.563 1.287 13.622 2.248 28.375.088.822.138 1.65.176 2.48z" fill="#FA5F2D"/><path d="M202.203 102.517c-7.816-.031-14.489-3.59-18.707-6.566a42.843 42.843 0 0 1-7.351-6.517.354.354 0 0 1-.072-.127.383.383 0 0 1 .023-.286.375.375 0 0 1 .62-.07 42.28 42.28 0 0 0 7.232 6.397c4.13 2.906 10.672 6.384 18.255 6.416a.377.377 0 0 1 .348.232.377.377 0 0 1-.348.521zm-5.173-4.57c-6.654-1.306-12.555-6.403-12.812-6.635a.375.375 0 0 1 .495-.565c.069.062 7 6.051 14.062 6.698a.377.377 0 0 1 .256.132.373.373 0 0 1 .083.276.376.376 0 0 1-.408.339 15.18 15.18 0 0 1-1.676-.245zm-9.849-34.42a.369.369 0 0 1-.371-.308.381.381 0 0 1 .302-.44c9.523-1.8 12.398-7.934 12.423-7.997a.378.378 0 0 1 .687.032.372.372 0 0 1-.003.282c-.119.264-3.063 6.548-12.969 8.425l-.069.006z" fill="#D33E2F"/><path d="M198.819 47.707c-2.266 3.817-6.189 7.728-11.224 6.855-4.633-.797-7.47-3.766-9.416-6.566 2.592-1.356 5.022-2.586 6.371-3.471a9.947 9.947 0 0 0 4.125 1.042h.226a9.937 9.937 0 0 0 4.118-1.042c1.249.866 3.446 1.946 5.8 3.182z" fill="#FFA681"/><path d="M194.94 44.845a.293.293 0 0 0-.279.18.3.3 0 0 0-.023.115c0 .238-.1 5.945-5.216 6.384-4.746.414-6.711-4.13-7.32-6.014a.27.27 0 0 0-.251-.188h-.057a.265.265 0 0 0-.221.108.265.265 0 0 0-.036.243c.628 1.947 2.718 6.642 7.533 6.473h.383c5.65-.49 5.763-6.906 5.763-6.981a.291.291 0 0 0-.276-.32z" fill="#fff"/><path d="M179.359 27.48s-2.336-2.655-3.616-.797c-1.281 1.859.533 7.603 3.634 6.278l-.018-5.48z" fill="#FFA681"/><path d="M178.624 31.046a.263.263 0 0 1-.251-.194 4.042 4.042 0 0 0-2.241-2.423.262.262 0 0 1-.151-.34.265.265 0 0 1 .339-.144 4.487 4.487 0 0 1 2.555 2.769.26.26 0 0 1-.182.32l-.069.012z" fill="#F97853"/><path d="M176.848 30.168a.29.29 0 0 1-.145-.038.272.272 0 0 1-.075-.364 2.42 2.42 0 0 1 .992-.779.251.251 0 0 1 .339.132.265.265 0 0 1-.132.345 1.828 1.828 0 0 0-.76.59.248.248 0 0 1-.219.113z" fill="#F97853"/><path d="M197.896 27.48s2.336-2.655 3.616-.797c1.281 1.859-.533 7.603-3.635 6.278l.019-5.48z" fill="#FFA681"/><path d="M198.612 31.046a.26.26 0 0 0 .251-.194 4.045 4.045 0 0 1 2.241-2.423.262.262 0 0 0 .151-.34.263.263 0 0 0-.339-.144 4.487 4.487 0 0 0-2.555 2.769.266.266 0 0 0 .182.32l.069.012z" fill="#F97853"/><path d="M200.389 30.168c.05 0 .1-.013.144-.038a.269.269 0 0 0 .075-.364 2.42 2.42 0 0 0-.992-.779.247.247 0 0 0-.197-.006.258.258 0 0 0-.142.139.265.265 0 0 0 .132.345c.302.125.564.328.76.59a.249.249 0 0 0 .22.113z" fill="#F97853"/><path d="M193.05 38.623v5.901s-1.764 3.007-4.143 3.215c-2.379.207-4.488-2.593-4.488-2.593v-6.108l8.631-.415z" fill="#FFA681"/><path d="M193.05 38.623v2.618c-1.6 1.777-4.438 2.404-8.631 1.783v-3.986l8.631-.415z" fill="#F97853"/><path d="M199.271 23.47a57.789 57.789 0 0 1-.765 7.482 20.161 20.161 0 0 1-.371 1.595c-1.255 4.35-4.35 11.808-13.045 8.7-3.842-1.374-5.649-5.65-6.415-10a42.13 42.13 0 0 1-.584-8.079 6.163 6.163 0 0 1 3.139-5.242c5.135-2.912 10.552-1.826 14.118-.452a6.132 6.132 0 0 1 3.923 5.995z" fill="#FFA681"/><path d="M184.004 29.006c.402 0 .728-.511.728-1.142 0-.631-.326-1.143-.728-1.143-.402 0-.728.512-.728 1.143 0 .63.326 1.142.728 1.142zm8.958 0c.403 0 .729-.511.729-1.142 0-.631-.326-1.143-.729-1.143-.402 0-.728.512-.728 1.143 0 .63.326 1.142.728 1.142zm-10.395-4.538a11.994 11.994 0 0 1 3.107-.465.536.536 0 0 1 .534.628.538.538 0 0 1-.553.44 13.48 13.48 0 0 0-4.25.52.805.805 0 0 1 .245-.577c.245-.27.564-.46.917-.546zm11.72.018a12.268 12.268 0 0 0-3.101-.464.548.548 0 0 0-.54.628.535.535 0 0 0 .552.445 13.692 13.692 0 0 1 4.25.515.819.819 0 0 0-.251-.571 1.843 1.843 0 0 0-.91-.553z" fill="#18315B"/><path d="M188.656 33.068c-.219.01-.436-.04-.628-.144a.881.881 0 0 1-.408-.685 41.057 41.057 0 0 1 .169-4.394.282.282 0 0 1 .559.044c0 .038-.27 3.315-.169 4.294a.317.317 0 0 0 .138.264c.375.093.772.056 1.123-.107a.285.285 0 0 1 .325.048.285.285 0 0 1 .086.21.277.277 0 0 1-.027.113.278.278 0 0 1-.17.15 3.074 3.074 0 0 1-.998.207z" fill="#F97853"/><path d="M185.096 34.838c.214 1.067.917 3.026 3.29 3.026s3.051-1.79 3.277-3.026h-6.567z" fill="#fff"/><path d="M188.355 39.502a2.877 2.877 0 0 1-1.319-.383.284.284 0 0 1-.013-.468.27.27 0 0 1 .207-.048.27.27 0 0 1 .101.04c.314.178.664.28 1.024.3a2.275 2.275 0 0 0 1.073-.307.289.289 0 0 1 .389.1.28.28 0 0 1 .031.211.278.278 0 0 1-.125.172 2.967 2.967 0 0 1-1.368.383z" fill="#F97853"/><path d="M200.401 23.011a.942.942 0 0 1-.678.515c.008.694-.025 1.388-.1 2.078-.346 4.049-1.294 5.556-1.746 5.443-.59-.151.377-4.721.528-7.414-.797-.05-1.94-.182-1.94-.182l-.935-3.936-.333 3.886c-1.406.49-4.696-.296-4.696-.296l-1.098-3.88-.685 3.767c-2.115 1.03-4.752.346-4.752.346l-.627-4.024-1.407 4.024a20.018 20.018 0 0 1-3.446.697c-.157 1.77.665 5.448.496 6.873-.232 1.884-1.18.17-1.708-4.155a17.117 17.117 0 0 1 .101-3.535c.044-.458.088-.772.094-.84.207-1.256.709-3.14 1.149-4.671a8.492 8.492 0 0 1 4.093-5.204c5.599-3.001 11.519-1.407 13.547-.195 4.319 2.524 4.143 10.703 4.143 10.703z" fill="#18315B"/><path d="M177.476 22.34c0 .069-.051.383-.095.84.01-.282.041-.563.095-.84z" fill="#18315B"/><path d="M212.724 83.207c-1.883 5.33-10.195 4.94-19.686 2.028h-.126l-1.306-.415-.546-.182a101.93 101.93 0 0 1-3.082-1.105 105.299 105.299 0 0 1-10.044-4.444v-.057l.973-2.51.333-.86s17.577 1.882 26.441.068l.439-.1c-.037-.195-.05-.396-.1-.584-4.69-15.958.439-19.015 2.153-21.243.063-.044 8.067 19.347 4.551 29.404z" fill="#FA5F2D"/><path d="M209.855 78.273a.36.36 0 0 1-.362-.022.389.389 0 0 1-.14-.154c-.665-1.375-2.944-2.19-3.641-2.41l.44-.101c-.038-.195-.069-.39-.101-.584.885.295 3.208 1.193 3.98 2.769a.384.384 0 0 1-.176.502zm-24.639-.672c-3.591 0-6.51-.207-6.761-.226a.377.377 0 1 1 .05-.747c.132 0 13.334.942 18.538-1.168a.376.376 0 0 1 .282.697c-2.9 1.168-7.922 1.444-12.109 1.444zm6.39 7.182c3.013-.835 5.75-1.645 7.326-2.147 2.197-.703 4.012-2.926 4.84-4.809a.388.388 0 0 1 .203-.233.378.378 0 0 1 .517.227.382.382 0 0 1-.036.307c-.891 2.04-2.875 4.445-5.292 5.223-1.148.365-2.9.892-4.927 1.47a4.577 4.577 0 0 1-2.631-.038z" fill="#D33E2F"/><path d="M199.723 82.203c-27.194 9.152-35.562 3.138-35.562 3.138-1.827-16.554 4.915-31.444 4.915-31.444a75.237 75.237 0 0 1 4.25 9.071l.596 12.687-.044.352v.169l-.113.866.176.038c8.224 1.733 23.265-.207 23.265-.207l2.517 5.33z" fill="#FA5F2D"/><path d="M173.916 77.08a26.627 26.627 0 0 0-4.105 4.275.388.388 0 0 1-.696-.164.384.384 0 0 1 .068-.288 27.21 27.21 0 0 1 4.639-4.74l-.113.867.207.05z" fill="#D33E2F"/><path d="M197.181 76.873s3.013-6.836 7.59-6.227l1.381 4.94c-2.511 1.067-2.876 5.361-6.429 6.617l-2.542-5.33zm-17.91-1.255a10.889 10.889 0 0 0-6.905-5.757c-5.023-1.3-8.193 1.06-8.525 1.952-.333.892 1.883.038 1.883.038a4.326 4.326 0 0 0-2.279 1.77c-.829 1.363 2.021-.106 2.021-.106s-2.04.897-2.303 1.726c-.264.829 2.435-.571 2.944-.546 0 0-2.411.954-2.392 1.814.019.86 2.768-.54 4.821-.427 1.758.176 3.499.497 5.204.96 1.564.319 3.148.528 4.74.628l.791-2.052z" fill="#FBAB7F"/><path d="M164.316 115.911h-40.63v15.039h40.63v-15.039zm17.277 15.039h-75.175v5.753h75.175v-5.753z" fill="#3B467E"/><path d="M22.27 97.439h76.156l-18.08-9.678 18.08-10.374H22.269A10.053 10.053 0 0 0 12.226 87.44a10.044 10.044 0 0 0 10.043 9.999z" fill="url(#paint0_linear)"/><path d="M14.901 87.395c.002.328.025.656.072.981 0 .188.053.366.08.553a7.565 7.565 0 0 0 1.115 2.676c.118.19.249.373.393.544a7.697 7.697 0 0 0 6.074 2.952h71.652v-15.44H22.635a7.68 7.68 0 0 0-5.923 2.766 7.734 7.734 0 0 0-1.472 2.676c-.053.178-.098.365-.142.544a7.769 7.769 0 0 0-.197 1.748z" fill="#E8E8E8"/><path d="M16.712 82.427h77.602v-.58H17.212a7.064 7.064 0 0 0-.5.58z" fill="#9CC6EA"/><path d="M15.098 85.673h79.189v-.544H15.24c-.053.179-.098.366-.142.544z" fill="url(#paint1_linear)"/><path d="M14.973 88.376c0 .188.053.366.08.553h79.234v-.553H14.973z" fill="url(#paint2_linear)"/><path d="M16.168 91.66c.118.19.249.371.393.543h77.726v-.544H16.168z" fill="url(#paint3_linear)"/><path d="M22.911 88.126l2.007-1.89 1.793 1.89v-5.913h-3.8v5.913z" fill="url(#paint4_linear)"/><path d="M10.905 117.16h76.157l-18.08-9.678 18.08-10.409H10.905a10.043 10.043 0 1 0 0 20.087z" fill="url(#paint5_linear)"/><path d="M3.538 107.116c.001.332.025.663.071.991 0 .178.045.356.08.544a7.502 7.502 0 0 0 1.115 2.676c.12.192.251.376.393.553a7.694 7.694 0 0 0 6.074 2.943h71.652v-15.44H11.271a7.68 7.68 0 0 0-5.423 2.221 7.21 7.21 0 0 0-.5.553 7.559 7.559 0 0 0-1.471 2.676c-.06.178-.107.36-.143.544a7.894 7.894 0 0 0-.196 1.739z" fill="#E8E8E8"/><path style="mix-blend-mode:multiply" d="M5.349 102.157H82.95v-.553H5.848a7.21 7.21 0 0 0-.5.553z" fill="url(#paint6_linear)"/><path style="mix-blend-mode:multiply" d="M3.734 105.395h79.19v-.544H3.876a4.46 4.46 0 0 0-.143.544z" fill="url(#paint7_linear)"/><path style="mix-blend-mode:multiply" d="M3.609 108.107c0 .178.044.357.08.544h79.234v-.544H3.61z" fill="url(#paint8_linear)"/><path style="mix-blend-mode:multiply" d="M4.804 111.344c.12.192.25.377.393.553h77.726v-.553H4.804z" fill="url(#paint9_linear)"/><path d="M11.539 107.848l2.016-1.891 1.793 1.891v-5.905h-3.81v5.905z" fill="url(#paint10_linear)"/><path d="M29.887 136.704h76.138l-18.08-9.678 18.08-10.392H29.887a10.042 10.042 0 0 0-10.044 10.044 10.044 10.044 0 0 0 10.044 10.026z" fill="url(#paint11_linear)"/><path d="M22.519 126.66c.001.328.025.656.071.981 0 .187.045.366.08.553a7.501 7.501 0 0 0 1.116 2.676c.117.19.248.372.392.544.183.245.386.475.607.687a7.644 7.644 0 0 0 5.467 2.265h71.653v-15.44H30.252a7.683 7.683 0 0 0-5.931 2.774 7.685 7.685 0 0 0-1.463 2.676c-.062.179-.107.366-.152.544a8.495 8.495 0 0 0-.187 1.74z" fill="#E8E8E8"/><path style="mix-blend-mode:multiply" d="M24.32 121.7h77.602v-.553H24.856c-.188.175-.366.36-.535.553z" fill="url(#paint12_linear)"/><path style="mix-blend-mode:multiply" d="M22.706 124.938h79.198v-.544H22.858c-.063.178-.107.366-.152.544z" fill="url(#paint13_linear)"/><path style="mix-blend-mode:multiply" d="M22.59 127.641c0 .187.045.365.08.553h79.235v-.553H22.59z" fill="url(#paint14_linear)"/><path style="mix-blend-mode:multiply" d="M23.786 130.906c.117.19.248.372.392.544h77.727v-.544h-78.12z" fill="url(#paint15_linear)"/><path d="M30.52 127.391l2.016-1.891 1.793 1.891v-5.905H30.52v5.905z" fill="url(#paint16_linear)"/><path d="M37.406 38.016a7.483 7.483 0 0 1 3.336.713c1.936 1.704 5.468 5.887 5.307 9.402-.196 4.299-1.784 5.021-1.784 8.09 0 3.068 1.106 9.196 1.106 9.981 0 .785-12.594.455-12.853.134-.259-.321.143-22.915.892-25.127.75-2.212 1.507-2.72 3.996-3.193z" stroke="#D5BB95" stroke-width=".88" stroke-miterlimit="10"/><path d="M34.115 71.304a3.488 3.488 0 0 0 2.934 4.201 22.64 22.64 0 0 0 6.547-.107c6.949-1.026 15.208-.339 16.475-2.943 1.267-2.605-2.551-5.647-9.348-5.95-6.146-.276-13.754-1.534-15.03.205a14.797 14.797 0 0 0-1.578 4.594z" stroke="#D5BB95" stroke-width=".87" stroke-miterlimit="10"/><path d="M36.452 68.681a3.486 3.486 0 0 0 1.552 4.88 22.603 22.603 0 0 0 6.288 1.837c6.93 1.088 14.61 4.201 16.6 2.096 1.989-2.105-.759-6.154-7.136-8.465-5.78-2.087-12.666-5.557-14.406-4.272a14.734 14.734 0 0 0-2.898 3.924v0z" stroke="#D5BB95" stroke-width=".87" stroke-miterlimit="10"/><path d="M33.838 39.675c-.785-1.918-.776-4.094-.892-6.137a16.25 16.25 0 0 1 .642-6.35c.981-2.855 3.024-5.219 6.182-5.486a5.21 5.21 0 0 1 2.676.383 4.1 4.1 0 0 1 1.89 1.784c.464.892.563 1.962 1.008 2.881.428.792.794 1.615 1.098 2.462.197.78.497 1.53.892 2.23a7.585 7.585 0 0 0 1.784 1.784c.972.731 2.22 1.552 2.069 2.952-.071.687-.473 1.285-.607 1.963a5.351 5.351 0 0 0 .322 2.3 4.122 4.122 0 0 1-1.133 3.765 4.673 4.673 0 0 1-3.336 1.329 10.09 10.09 0 0 1-2.203-.107 2.8 2.8 0 0 1-1.784-1.213l-4.005-4.817-.964-1.15a3.213 3.213 0 0 0-.517-.625c-.339-.232-.116-.214-.49-.053a13.735 13.735 0 0 0-2.632 2.105z" fill="url(#paint17_linear)"/><path d="M41.09 34.983h-3.095v4.567h3.095v-4.567z" fill="#ED8082"/><path d="M41.518 35.598s2.934.259 3.327-.687c.392-.945.589-6.003-1.57-8.286-2.158-2.284-6.003-1.73-7.368.357-1.364 2.087 1.535 8.58 3.23 8.652.793.05 1.59.037 2.38-.036z" fill="#F7CCCF"/><path d="M38.574 29.343a.065.065 0 0 1-.066-.07c-.017-.045 0-.115.033-.16.552-.392 1.187-.116 1.22-.093.05.023.067.092.05.138-.016.046-.066.093-.1.07 0 0-.602-.254-1.087.092-.033 0-.033.023-.05.023zm3.75-.07c-.038-.002-.076-.023-.074-.061-.017-.04.004-.096.044-.133.649-.296 1.367-.032 1.404-.011.057.021.074.08.053.117-.021.038-.08.074-.118.053 0 0-.681-.243-1.25.019-.039-.002-.04.017-.06.016z" fill="#040962"/><path d="M43.425 33.817c-.044.002-.086.028-.084.076-.02.049.005.12.051.166.737.373 1.551.047 1.594.022.059-.016.083-.14.059-.131-.025.009.042-.16 0-.134 0 0-.906.352-1.554.022-.044.002-.045-.022-.066-.02z" fill="#EC5271"/><path d="M42.466 30.81c-.062.36.075.683.307.723.231.04.468-.224.538-.585.07-.36-.078-.686-.306-.724-.23-.037-.493.222-.539.585z" fill="#2E3062"/><path d="M60.151 69.6c-4.46-3.942-9.544 17.233-9.633 22.888-.09 5.655 2.613.285 6.02-8.028 3.408-8.313 5.361-13.317 3.613-14.86z" fill="#F7CCCF"/><path d="M52.186 93.728a10.83 10.83 0 0 0 1.24 2.22c.892 1.321 1.293 1.223 1.213 1.58-.08.356-5.076-1.606-5.076-1.606l1.008-2.819c.551.174 1.09.383 1.615.625z" fill="#1B2733"/><path d="M60.097 73.917c-5.824-1.204.33 19.695 3.069 24.637 2.738 4.941 2.408-1.053 1.204-9.99-1.204-8.938-1.98-14.174-4.273-14.647z" fill="#F7CCCF"/><path d="M65.236 98.795c.67.519 1.401.956 2.176 1.302 1.454.696 1.784.419 1.846.767.063.348-5.155 1.142-5.155 1.142l-.535-2.944c.55-.123 1.107-.213 1.668-.267z" fill="#1D262F"/><path d="M47.022 65.988h14.164l6.048-12.978a.89.89 0 0 0-.437-1.196.891.891 0 0 0-1.187.438l-5.566 11.943H47.022a.892.892 0 0 0 0 1.784v.009z" fill="url(#paint18_linear)"/><path d="M37.816 37.15s-4.415.393-5.352 5.629c0 0-.963 23.334-.66 23.931.304.598 13.915.598 14.21-.098.294-.696-2.016-9.143-1.267-12.05.75-2.908 1.784-5.352 1.784-7.868-.018-2.087-3.416-8.937-8.715-9.544z" fill="#BAB7F6"/><path d="M46.013 66.612s13.193 3.38 15.431 6.511c2.24 3.131 4.55 23.192 4.55 23.192l-3.8.82c-2.462-5.146-5.441-17.143-6.717-17.598-1.275-.455-13.736-3.024-13.736-3.024l-.197-7.26 4.47-2.64z" fill="url(#paint19_linear)"/><path d="M46.085 66.264c5.298-.669 14.503-1.142 15.35 2.105 1.41 5.352-7.965 24.137-7.965 24.137l-3.21-1.124c1.043-8.866 3.567-16.055 3.21-16.617-.356-.562-9.446 3.273-17.099 2.381-7.653-.892-4.219-10.284-4.219-10.284l13.933-.598z" fill="url(#paint20_linear)"/><path d="M39.28 41.77a2.257 2.257 0 0 0-2.106 1.07c-2.06 3.194-8.768 14.005-6.502 15.655 2.675 1.944 8.027-8.028 9.223-11.06 1.016-2.56 1.427-5.415-.616-5.665z" fill="#F7CCCF"/><path d="M31.385 56.176a2.365 2.365 0 0 1 2.177-.58c3.907.776 18.026 3.71 18.437 5.414.481 1.972-20.043-1.329-20.516-2.31-.383-.758-.999-1.623-.098-2.524z" fill="#F7CCCF"/><path d="M50 60.538c.224-1.213 2.284-.598 2.98-.357 1.133.392 2.159 1.695 2.016 2.15-.143.454-2.676-.59-2.792-.509-.116.08 1.061.696.892 1.106-.17.41-1.846-.214-2.417-.722A1.587 1.587 0 0 1 50 60.538z" fill="#F7CCCF"/><path d="M34.061 39.3s-.312-4.46 1.704-5.816c2.016-1.356 6.716-3.506 8.027-6.761 0 0-.258-4.362-3.675-4.085-3.416.276-6.243 5.075-6.35 7.046-.107 1.971.294 9.616.294 9.616z" fill="url(#paint21_linear)"/><path d="M254.093 103.95c-4.514-3.496-3.309 22.237-1.98 28.793 1.329 6.556 2.149-.294 2.8-10.766.651-10.472.91-16.644-.82-18.027zm9.633 0c4.522-3.496 3.309 22.237 1.98 28.793-1.329 6.556-2.149-.294-2.791-10.766-.643-10.472-.964-16.644.811-18.027z" fill="#F7CCCF"/><path d="M251.898 132.52a4.455 4.455 0 0 1-.499 2.265c-.838 1.428-.838 1.142-.642 1.659.196.518 3.568.081 3.568.081l-.304-4.032a14.195 14.195 0 0 0-2.123.027zm14.04 0a4.456 4.456 0 0 0 .5 2.265c.838 1.428.838 1.142.642 1.659-.196.518-3.568.081-3.568.081l.303-4.032a14.193 14.193 0 0 1 2.123.027z" fill="#122B45"/><path d="M257.946 82.49v2.033h2.132v-1.962l9.241-.232-.482 11.239-2.533 37.257h-2.872l-4.273-39.077a.249.249 0 0 0-.426-.177.249.249 0 0 0-.073.177l-4.193 39.158h-2.916l-2.337-37.463-.482-11.24 9.214.286z" fill="url(#paint22_linear)"/><path d="M257.161 84.522h3.996c0-3.086-.071-6.654-.08-10.355h-3.844a895.772 895.772 0 0 1-.072 10.355zm.001-38.354s0 4.933.062 11.596h3.862c0-6.69.054-11.596.054-11.596s-2.73.401-3.943-.071h-.062l.027.071z" fill="#F8FAFB"/><path d="M265.091 69.832c.82-.338 1.667-.606 2.533-.802h.062l-1.106-3.238-1.784-.16v.427h-.178c0 1.356.062 2.676.089 3.898.133-.024.262-.066.384-.125z" fill="#F7CCCF"/><path d="M263.271 65.988c-.214-.232-1.784-.678-1.712 1.784.089 2.158 2.23 2.381 3.193 2.176 0-1.195-.062-2.542-.089-3.898-.375.045-1.222.125-1.392-.062zm-10.07-.402v4.237c.616.348 3.434.41 3.568-2.06.134-2.471-1.498-2.017-1.713-1.785-.214.232-1.569 0-1.569 0l-.214-.437-.072.045z" fill="#F7CCCF"/><path d="M251.694 65.792l-1.08 3.246h.063c.864.195 1.712.46 2.533.794v-4.237l-1.525.17.009.027z" fill="#F7CCCF"/><path d="M253.201 69.823v4.308h11.676s-.054-1.784-.107-4.183c-.964.205-3.104 0-3.194-2.176-.098-2.462 1.499-2.016 1.713-1.784.214.231 1.017.107 1.391.062-.08-4.148-.151-8.331-.044-8.331h-11.364l-.053 7.76.214.437s1.347.205 1.57 0c.223-.205 1.783-.678 1.712 1.784-.071 2.462-2.917 2.409-3.568 2.06l.054.063z" fill="url(#paint23_linear)"/><path d="M256.118 32.012c.349.093.709.14 1.07.143 2.801.072 5.405 1.338 5.735 3.737.322 2.257.188 2.676.17 2.73-.018.053 1.873-1.365 2.167.107.295 1.472-2.203 1.935-2.203 1.935l-.062 2.23c6.342-2.604 5.271-11.345.526-14.218-3.755-2.274-7.064 0-8.26 1.026a1.192 1.192 0 0 0-.33 1.418 1.791 1.791 0 0 0 1.187.892z" fill="#272425"/><path d="M256.251 43.697l4.005-1.65c-1.989.232-3.193.054-3.96-.535l-.045 2.185z" fill="#ED8082"/><path d="M256.189 43.697v.687l.945 1.712h.063c1.213.473 3.818.09 3.942.072l1.847-1.963v-1.284l.062-2.23s2.507-.428 2.203-1.936c-.303-1.507-2.087-.16-2.167-.107-.08.054.152-.472-.17-2.729-.33-2.4-2.934-3.666-5.735-3.737a4.314 4.314 0 0 1-1.07-.143c-.072.232-1.543 5.557-.973 7.555.154.762.559 1.45 1.151 1.953.767.59 1.971.768 3.96.536l-4.005 1.65h-.062l.009-.036z" fill="#F7CCCF"/><path d="M260.325 34.737a.518.518 0 0 1 .475.33.526.526 0 0 1-.124.566.52.52 0 1 1-.351-.896zm-3.695.443a.519.519 0 0 0 .518.571.519.519 0 0 0 .519-.57.521.521 0 1 0-1.037 0zm4.567-.816a.11.11 0 0 1-.082-.038 1.248 1.248 0 0 0-1.259-.285.108.108 0 0 1-.091-.003.112.112 0 0 1-.059-.07.123.123 0 0 1 .073-.154 1.447 1.447 0 0 1 1.505.343.126.126 0 0 1 .037.086.127.127 0 0 1-.037.087.116.116 0 0 1-.087.034zm-4.484-.84a.111.111 0 0 1-.053-.03.111.111 0 0 1-.027-.055.118.118 0 0 1 .011-.091.115.115 0 0 1 .032-.035.11.11 0 0 1 .042-.02 1.685 1.685 0 0 1 1.551.407c.012.01.022.023.029.037.007.014.011.03.011.046a.105.105 0 0 1-.009.046.104.104 0 0 1-.027.039.117.117 0 0 1-.13.033.118.118 0 0 1-.039-.025 1.452 1.452 0 0 0-1.327-.347.148.148 0 0 1-.064-.005z" fill="#293267"/><path d="M258.374 37.714a.329.329 0 0 1-.097 0 .432.432 0 0 1-.289-.26.876.876 0 0 1 0-.55l.333-1.327a.12.12 0 0 1 .187-.067c.013.009.024.02.032.034a.137.137 0 0 1 .016.045.123.123 0 0 1-.004.046l-.333 1.327a.709.709 0 0 0-.024.405c.012.027.03.051.053.07.022.02.049.033.077.041a.074.074 0 0 0 .078 0 .122.122 0 0 1 .171.022c.02.025.029.058.024.09a.12.12 0 0 1-.046.08.318.318 0 0 1-.178.044zm-.335 1.93a2.247 2.247 0 0 1-1.316-.646.13.13 0 0 1-.023-.087.125.125 0 0 1 .043-.08.114.114 0 0 1 .088-.027.118.118 0 0 1 .08.047 2.006 2.006 0 0 0 2.692.117.108.108 0 0 1 .088-.029.108.108 0 0 1 .045.016.11.11 0 0 1 .035.033.123.123 0 0 1 .026.088.117.117 0 0 1-.047.08 2.265 2.265 0 0 1-1.52.52l-.191-.032z" fill="#E16C7A"/><path d="M261.077 74.131c0 3.702 0 7.252.071 10.338a39.158 39.158 0 0 0 7.725-1.213 1.283 1.283 0 0 0 .945-1.454c-.517-3.202-1.043-6.368-1.355-8.286-.17-1.07-.304-2.56-.411-4.237l-.258.045-.107-.321h-.063c-.864.195-1.712.46-2.533.793a.893.893 0 0 1-.339.125c.054 2.4.107 4.184.107 4.184l-3.782.026z" fill="#706CC7"/><path d="M264.618 57.71c-.098 0 0 4.201.045 8.34h.178v-.437l1.784.178 1.088 3.247.107.321.259-.044c1.507-.268 9.045-1.695 9.285-4.103.277-2.676-5.128-17.073-6.538-18.678-1.409-1.606-7.813-2.32-7.813-2.32l-1.838 1.963s0 4.906-.053 11.596l3.496-.063zm3.113-2.605s3.871 6.084 3.666 7.627c-.125.981-2.141 1.855-3.523 2.364-.17-5.004-.143-10.008-.143-10.008v.017zm-26.759 10.08c.25 2.418 7.814 3.845 9.294 4.103l.241.045.107-.321 1.088-3.256 1.535-.178.053-7.76h3.934c0-6.7-.072-11.596-.072-11.596v-.053l-.963-1.784s-7.287.526-8.688 2.122c-1.4 1.597-6.788 16.011-6.529 18.678zm5.932-2.453c-.197-1.543 3.683-7.626 3.683-7.626s0 4.986-.151 9.99c-1.392-.508-3.399-1.382-3.532-2.364z" fill="#706CC7"/><path d="M249.437 83.131a37.21 37.21 0 0 0 7.724 1.33c0-3.078.063-6.646.072-10.321h-4.032v-4.308a16.278 16.278 0 0 0-2.533-.794h-.063l-.08.321-.25-.044c-.107 1.676-.241 3.166-.41 4.236-.303 1.891-.821 4.986-1.338 8.153a1.294 1.294 0 0 0 .91 1.427z" fill="#706CC7"/><path d="M221.09 44.215h-36.196a6.108 6.108 0 0 0-6.11 6.11v80.277a6.111 6.111 0 0 0 6.11 6.11h36.196a6.11 6.11 0 0 0 6.11-6.11V50.324a6.11 6.11 0 0 0-6.11-6.11z" fill="#3B467E"/><path d="M225.345 50.878v79.135a4.783 4.783 0 0 1-1.376 3.388 4.776 4.776 0 0 1-3.37 1.42h-35.188a4.774 4.774 0 0 1-4.745-4.808V50.878a4.774 4.774 0 0 1 2.918-4.44 4.78 4.78 0 0 1 1.827-.377h35.233a4.78 4.78 0 0 1 4.701 4.817z" fill="#EAEAFB"/><path d="M223.272 52.834v35.217c.004.28-.102.556-.31.815-.209.258-.517.494-.907.693a5.557 5.557 0 0 1-1.364.465 7.953 7.953 0 0 1-1.615.166h-31.109a7.95 7.95 0 0 1-1.614-.166 5.58 5.58 0 0 1-1.365-.465c-.389-.2-.697-.434-.906-.693-.209-.259-.314-.536-.31-.815V52.834c-.004-.28.101-.556.31-.815.208-.26.516-.495.906-.694a5.57 5.57 0 0 1 1.364-.466 7.96 7.96 0 0 1 1.615-.168h31.149c1.114.01 2.176.24 2.954.641s1.21.941 1.202 1.502z" fill="#FFF9FF"/><mask id="b" maskUnits="userSpaceOnUse" x="183" y="48" width="41" height="43"><path d="M223.272 50.344v37.565c.004.297-.102.593-.31.869-.209.276-.517.527-.907.739-.389.212-.853.38-1.364.496a7.463 7.463 0 0 1-1.615.178h-31.109a7.461 7.461 0 0 1-1.614-.178 5.345 5.345 0 0 1-1.365-.496c-.389-.212-.697-.463-.906-.74-.209-.275-.314-.57-.31-.868V50.344c-.004-.298.101-.594.31-.87.208-.276.516-.527.906-.74a5.331 5.331 0 0 1 1.364-.497 7.476 7.476 0 0 1 1.615-.18h31.149c1.114.01 2.176.256 2.954.685.778.428 1.21 1.004 1.202 1.602z" fill="#FFF9FF"/></mask><g mask="url(#b)"><path d="M193.326 88.094c-.438 3.318-4.779 14.071-5.85 23.353-.193 1.808-.513 4.003-.794 5.758h-2.735a1.939 1.939 0 0 1-1.364-.566 1.94 1.94 0 0 1-.567-1.365v-10.331c.29-1.782.628-3.441 1.001-5.223 1.633-7.75 4.301-14.483 5.64-18.03.491-1.316 1.316-2.821 2.528-3.51 1.768 1.084 2.536 7.03 2.141 9.914zm32.509 28.234a1.937 1.937 0 0 1-1.633.877h-3.809c-.281-1.781-.659-3.95-.878-5.767-1.071-9.282-5.403-20.035-5.851-23.353-.399-2.883.374-8.83 2.147-9.905 1.22.68 2.036 2.194 2.528 3.51 1.338 3.547 4.007 10.28 5.639 18.03a89.007 89.007 0 0 1 1.672 10.38c.158 1.457.194 3.923.185 6.228z" fill="#D33E2F"/><path d="M218.567 117.205v-1.983c0-1.813-.048-3.691-.079-5.601l-.053-2.857v-1.356c0-.417 0-.829-.022-1.242-.022-.412-.022-.908-.031-1.36v-1.229c0-.439 0-.909-.035-1.361-.276-10.616-.741-20.066-1.492-21.167-.54-.795-1.786-1.734-3.248-2.678l-.544-.342c-.627-.39-5.705-2.12-6.359-2.497l-5.377-.378a475.24 475.24 0 0 1-5.205 1.756l-.667.382c-1.905 1.097-3.783 2.251-4.863 3.252a5.577 5.577 0 0 0-.439.439 2.95 2.95 0 0 0-.25.325 1.626 1.626 0 0 0-.189.47c-.618 2.26-.961 10.853-1.136 20.438l-.027 1.317v6.991c-.03 2.998-.048 5.938-.057 8.673l30.073.008z" fill="#FA5F2D"/><path d="M205.325 84.85a.273.273 0 0 0 .273-.223.283.283 0 0 0-.22-.33c-7.079-1.343-9.216-5.898-9.216-5.942a.288.288 0 0 0-.374-.14.28.28 0 0 0-.144.156.275.275 0 0 0 .008.213c.088.201 2.278 4.867 9.656 6.262l.017.004z" fill="#D33E2F"/><path d="M195.938 56.832s-.527-3.226.254-4.323c.782-1.097 2.059-.768 3.424-2.027 1.365-1.26 5.516-.057 7.333-.387 1.001-.18 2.068-.044 3.046-.245 1.4-.281 2.151 1.11 1.813 2.48-.215.877-.654 2.194-1.914 2.523 0 0-12.078-2.203-13.956 1.98z" fill="#18315B"/><path d="M195.661 59.404c0 4.67 2.875 7.9 7.545 7.9 4.669 0 7.9-3.458 7.9-8.128s-2.761-8.203-7.431-8.203c-5.582-.013-8.014 3.766-8.014 8.431z" fill="#18315B"/><path d="M196.711 61.414s-1.317-1.729-2.261-.298c-.943 1.43.4 5.653 2.761 4.621l-.5-4.323z" fill="#F97853"/><path d="M196.693 64.434a.202.202 0 0 1-.193-.145 3.08 3.08 0 0 0-1.73-1.839.205.205 0 0 1-.11-.106.198.198 0 0 1 .251-.267 3.426 3.426 0 0 1 1.975 2.102c.007.025.01.052.007.078a.194.194 0 0 1-.024.074.194.194 0 0 1-.119.094l-.057.009z" fill="#EA5143"/><path d="M195.332 63.775a.198.198 0 0 1-.11-.03.206.206 0 0 1-.061-.277 1.88 1.88 0 0 1 .75-.601.204.204 0 0 1 .152-.007.203.203 0 0 1 .112.103.206.206 0 0 1-.101.268 1.437 1.437 0 0 0-.575.44.21.21 0 0 1-.07.074.2.2 0 0 1-.097.03z" fill="#EA5143"/><path d="M210.079 61.414s1.294-1.729 2.26-.298c.966 1.43-.399 5.653-2.761 4.621l.501-4.323z" fill="#F97853"/><path d="M210.105 64.434a.202.202 0 0 0 .193-.145 3.08 3.08 0 0 1 1.729-1.839.2.2 0 1 0-.14-.373 3.442 3.442 0 0 0-1.971 2.102.202.202 0 0 0 .067.21.198.198 0 0 0 .07.036l.052.009z" fill="#EA5143"/><path d="M211.457 63.775c.039 0 .077-.01.11-.03a.2.2 0 0 0 .087-.205.208.208 0 0 0-.03-.072 1.818 1.818 0 0 0-.746-.601.204.204 0 0 0-.152-.007.203.203 0 0 0-.112.103.208.208 0 0 0 .097.268c.226.096.426.247.579.44a.184.184 0 0 0 .069.075.185.185 0 0 0 .098.03z" fill="#EA5143"/><path d="M206.594 69.319v4.2s-1.251 2.141-2.945 2.286c-1.694.145-3.195-1.843-3.195-1.843v-4.345l6.14-.299z" fill="#FFA681"/><path d="M206.594 69.319v1.865c-1.137 1.26-3.156 1.575-6.145 1.136v-2.703l6.145-.299z" fill="#F97853"/><path d="M196.021 61.335c0 .246.04.492.062.737.065.628.149 1.269.263 1.91a.363.363 0 0 1 0 .065c.566 3.099 1.834 6.145 4.569 7.12 6.188 2.194 8.4-3.1 9.282-6.194.097-.342.189-.728.263-1.132v-.053c.088-.46.163-.948.224-1.448a53.816 53.816 0 0 0 .312-3.805 4.361 4.361 0 0 0-2.8-4.288c-2.537-.979-6.39-1.755-10.046.32a4.388 4.388 0 0 0-2.225 3.731c.004.856.017 1.91.096 3.037z" fill="#FFA681"/><path d="M196.021 61.335c0 .246.04.492.062.738.066.627.149 1.268.263 1.909a.362.362 0 0 1 0 .066c.566 3.098 1.835 6.144 4.569 7.118 6.188 2.195 8.4-3.098 9.282-6.192.097-.343.189-.729.264-1.133v-.052c.087-.461.162-.948.223-1.449.049-.373.088-.75.123-1.132l-.926.241c-.263 1.4-.662 3.446-1.18 4.39-.812-1.98-5.324-.343-5.324-.343s-4.025-1.43-5.385 0a37.223 37.223 0 0 1-1.225-4.042l-.746-.119zm7.242 4.898c3.248-.439 4.055.386 4.209 1.348a5.623 5.623 0 0 1-2.77 1.663c-1.114.25-3.37.228-5.016-1.07-.167-.747-.356-2.933 3.577-1.94z" fill="#18315B"/><path d="M200.774 61.66c0 .439-.232.812-.518.812-.285 0-.513-.36-.513-.812 0-.452.228-.812.513-.812.286 0 .518.364.518.812zm6.175 0c0 .439-.228.812-.513.812-.285 0-.518-.36-.518-.812 0-.452.233-.812.518-.812.285 0 .513.364.513.812zm1.207-2.673s-1.628-.645-2.879-.105l.123.698s1.844-.154 2.77.219a1.175 1.175 0 0 0-.014-.812zm-9.655 0s1.628-.645 2.883-.105l-.127.698s-1.839-.154-2.765.219a1.198 1.198 0 0 1 .009-.812z" fill="#18315B"/><path d="M203.596 65.18a2.13 2.13 0 0 1-.737-.062.204.204 0 0 1-.117-.24.202.202 0 0 1 .223-.146c.261.088.546.08.803-.022a.214.214 0 0 0 .074-.197 30.416 30.416 0 0 0-.487-3.015.205.205 0 0 1-.002-.078.21.21 0 0 1 .029-.073.191.191 0 0 1 .055-.056.203.203 0 0 1 .309.123c.218 1.022.384 2.055.496 3.094a.593.593 0 0 1-.229.518.825.825 0 0 1-.417.154z" fill="#F97853"/><path d="M200.888 66.378c.163.82.707 2.33 2.533 2.33s2.343-1.378 2.519-2.33h-5.052z" fill="#fff"/><path d="M210.803 61.467h-.904a6.522 6.522 0 0 0-.501-2.734c-.618-1.66.694-2.388-.368-3.222-1.062-.834-3.709-.474-5.552-.535-1.844-.062-4.828-.031-5.552.136-.724.166-.325 1.37-.062 2.3.264.93-.877 1.961-1.079 2.922a4.209 4.209 0 0 0 0 1.133h-.755a35.47 35.47 0 0 1-.088-3.151 4.387 4.387 0 0 1 2.225-3.73c3.656-2.072 7.51-1.318 10.046-.321a4.365 4.365 0 0 1 2.8 4.288 47.29 47.29 0 0 1-.21 2.914z" fill="#18315B"/><path d="M204.4 62.064a2.374 2.374 0 0 1 1.468-2.198 2.378 2.378 0 1 1-1.468 2.198zm.373 0a2 2 0 0 0 1.238 1.853 2.006 2.006 0 1 0 .767-3.859 2.006 2.006 0 0 0-1.871 1.234 1.988 1.988 0 0 0-.156.772h.022zm-6.895 0a2.374 2.374 0 0 1 1.468-2.198 2.38 2.38 0 0 1 3.243 1.734 2.377 2.377 0 0 1-4.015 2.146 2.378 2.378 0 0 1-.696-1.682zm.373 0a2 2 0 0 0 1.238 1.853 2.006 2.006 0 1 0 .767-3.859 2.011 2.011 0 0 0-2.001 2.006h-.004z" fill="#fff"/><path d="M208.731 61.296c.049 0 .096-.02.132-.053a2.924 2.924 0 0 1 2.506-.729.182.182 0 0 0 .14-.021.194.194 0 0 0 .054-.049.196.196 0 0 0 .03-.066.188.188 0 0 0-.141-.224 3.247 3.247 0 0 0-2.852.826.186.186 0 0 0 .06.302c.023.01.047.014.071.014zm-10.476 0a.175.175 0 0 0 .154-.084.18.18 0 0 0 .028-.138.179.179 0 0 0-.081-.116c-.07-.049-1.755-1.133-3.182-.878a.185.185 0 0 0 .057.364c1.291-.21 2.906.83 2.923.843a.204.204 0 0 0 .101.009zm4.249.232a1.49 1.49 0 0 1 1.022-.601 1.364 1.364 0 0 1 .974.601l.312-.202a1.721 1.721 0 0 0-1.286-.768 1.843 1.843 0 0 0-1.317.755l.295.215z" fill="#fff"/></g><path d="M223.272 94.528v35.217c.004.279-.102.556-.31.815-.209.259-.517.494-.907.693a5.528 5.528 0 0 1-1.364.465 7.938 7.938 0 0 1-1.615.167h-31.109a7.936 7.936 0 0 1-1.614-.167 5.55 5.55 0 0 1-1.365-.465c-.389-.199-.697-.434-.906-.693-.209-.259-.314-.536-.31-.815V94.528c-.004-.279.101-.556.31-.815.208-.259.516-.495.906-.694a5.57 5.57 0 0 1 1.364-.466 7.96 7.96 0 0 1 1.615-.168h31.149c1.114.01 2.176.24 2.954.641.778.402 1.21.942 1.202 1.502z" fill="#FFF9FF"/><mask id="c" maskUnits="userSpaceOnUse" x="183" y="90" width="41" height="42"><path d="M223.272 92.868v36.782c.004.292-.102.581-.31.851-.209.27-.517.516-.907.724a5.45 5.45 0 0 1-1.364.486 7.663 7.663 0 0 1-1.615.174h-31.109a7.66 7.66 0 0 1-1.614-.174 5.473 5.473 0 0 1-1.365-.486c-.389-.208-.697-.454-.906-.724-.209-.27-.314-.559-.31-.851V92.868c-.004-.292.101-.581.31-.852.208-.27.516-.516.906-.724a5.404 5.404 0 0 1 1.364-.487 7.63 7.63 0 0 1 1.615-.176h31.149c1.114.01 2.176.25 2.954.67.778.42 1.21.983 1.202 1.57z" fill="#FFF9FF"/></mask><g mask="url(#c)"><path d="M190.133 137.032l2.357-18.288s1.669-.995 3.912.485c0 0-1.017 17.027-1.99 22.911-.443 2.695-1.82 7.458-2.997 10.853h-3.693c.632-4.333.95-9.755 1.605-11.992.142-.641.324-1.273.544-1.892l.262-2.077zm28.141 0l-1.537-17.501a42.332 42.332 0 0 1-4.748-.295s1.017 17.028 1.986 22.912c.447 2.694 1.824 7.458 2.997 10.852h3.693c-.628-4.333-.946-9.755-1.601-11.991a15.902 15.902 0 0 0-.544-1.892l-.246-2.085z" fill="#FFA681"/><path d="M204.78 96.892s.212-4.54-2.543-5.403c-4.294-1.355-5.486.87-6.148 2.342-.852 1.892-.489 5.581 2.073 5.94 3.818.534 6.38-1.611 6.618-2.879z" fill="#18315B"/><path d="M207.546 112.051a4.718 4.718 0 0 0 4.616-3.75c.33-1.571.651-2.963.651-3.746v-.019c.019-.25.031-.496.031-.738.03-3.58-2.176-10.11-9.929-9.081 0 0-6.433.734-7.19 7.023 0 0-.303 2.898-.507 5.002v.11a4.711 4.711 0 0 0 2.779 4.782 4.72 4.72 0 0 0 1.913.405l7.636.012z" fill="#18315B"/><path d="M193.035 123.315c.072.492.151 1.011.234 1.567.216 1.392.485 2.993.822 4.76.094.515.2 1.044.306 1.589.303 1.514.647 3.099 1.041 4.779.125.526.253 1.056.378 1.601.252 1.067.536 2.163.851 3.288-.03.447-.079.924-.155 1.434-.075.511-.143.984-.238 1.514-.14.787-.31 1.619-.5 2.486-.143.651-.295 1.319-.454 2.005-.113.505-.23 1.001-.352 1.487-.246 1.041-.503 2.101-.756 3.16h20.331l-.716-3.141-.333-1.479-.488-2.127-.537-2.357-.337-1.48-.17-.756.863-3.996.344-1.582 1.044-4.805.345-1.597 1.044-4.859.348-1.604.787-3.671-2.051-.718-3.08-1.086-.068-.023-1.718-.606-.276-.094-2.357-.696s-1.321.624-5.956-.349c0 0-1.018.186-2.38.504l-.462.109c-1.037.25-2.213.568-3.277.935-.878.265-1.717.647-2.493 1.135l-.144.102s.091 1.136.348 3.103c.076.447.136.942.212 1.468z" fill="#0172D0"/><path d="M209.835 117.091c-.495 2.898-1.892 5.812-4.817 6.126-3.53.378-5.358-4.041-6.152-6.762 1.362-.318 2.773-.628 2.773-.628 4.636.972 5.529.378 5.529.378l2.38.791.287.095z" fill="#FFA681"/><path d="M204.659 120.784c-3.697 0-4.582-4.567-4.59-4.613a.188.188 0 0 1 .001-.071.19.19 0 0 1 .08-.115.177.177 0 0 1 .138-.024.178.178 0 0 1 .14.146c.035.181.871 4.491 4.447 4.306 3.125-.155 3.311-3.629 3.314-3.784a.19.19 0 0 1 .379 0c0 .042-.205 3.95-3.667 4.128l-.242.027z" fill="#fff"/><path d="M197.125 120.425a.901.901 0 1 0 0-1.802.901.901 0 0 0 0 1.802zm-.908 3.503a.903.903 0 1 1-1.807.008.903.903 0 0 1 1.807-.008zm5.763 2.081a.901.901 0 0 1-.557.839.9.9 0 0 1-.987-.195.909.909 0 0 1-.195-.988.905.905 0 0 1 1.739.344zm-4.018 2.464a.908.908 0 0 1-.674 1.226.906.906 0 0 1-1.07-.902.902.902 0 0 1 .57-.828.904.904 0 0 1 1.174.504zm7.821 1.653a.901.901 0 0 1-.557.839.9.9 0 0 1-.987-.195.909.909 0 0 1-.195-.988.905.905 0 0 1 1.739.344zm5.759 1.892a.902.902 0 0 1-1.081.887.904.904 0 1 1 1.081-.887zm1.158-11.59a.902.902 0 0 1-1.081.887.908.908 0 0 1-.711-.71.904.904 0 1 1 1.792-.177zm-3.867 5.82a.902.902 0 0 1-1.082.886.898.898 0 0 1-.71-.712.909.909 0 0 1 .388-.928.9.9 0 0 1 1.14.116.903.903 0 0 1 .264.638zm4.991-1.139a.897.897 0 0 1-.153.502.902.902 0 0 1-1.638-.326.905.905 0 0 1 1.723-.523c.045.11.068.228.068.347z" fill="#0056C5"/><path d="M210.18 104.967s1.105-1.404 1.93-.242c.824 1.162-.341 4.59-2.358 3.75l.428-3.508z" fill="#F97853"/><path d="M210.191 107.423a.171.171 0 0 0 .167-.118c.31-1.055 1.464-1.487 1.475-1.49a.176.176 0 0 0 .057-.031.182.182 0 0 0 .039-.052.166.166 0 0 0 .015-.062.177.177 0 0 0-.012-.064.174.174 0 0 0-.22-.094 2.867 2.867 0 0 0-1.684 1.706.16.16 0 0 0 .06.173.156.156 0 0 0 .058.028l.045.004z" fill="#EA5143"/><path d="M211.357 106.886a.222.222 0 0 0 .094-.027.167.167 0 0 0 .071-.101.163.163 0 0 0-.022-.122 1.504 1.504 0 0 0-.639-.492.172.172 0 0 0-.13-.004.173.173 0 0 0-.097.087.17.17 0 0 0-.015.062c0 .022.004.043.012.063.008.02.02.038.036.053a.146.146 0 0 0 .054.034c.195.08.364.211.492.378a.18.18 0 0 0 .144.069z" fill="#EA5143"/><path d="M209.68 108.456c-.2.218-.311.503-.31.798a1.203 1.203 0 0 0 2.402 0 1.205 1.205 0 0 0-.938-1.173.21.21 0 0 1-.011-.119.216.216 0 0 1 .053-.108 1.437 1.437 0 0 1 .179 2.763 1.443 1.443 0 0 1-1.654-.528 1.44 1.44 0 0 1 .059-1.735l.22.102z" fill="#fff"/><path d="M201.639 112.138v4.204s1.953 1.513 3.478 1.642c1.525.128 2.051-1.665 2.051-1.665v-3.917l-5.529-.264z" fill="#FFA681"/><path d="M201.639 112.55v1.684c1.022 1.135 2.838 1.54 5.529 1.135v-2.554l-5.529-.265z" fill="#F97853"/><path d="M210.846 106.568c-.05.404-.106.817-.182 1.229-.481 2.732-2.214 5.676-4.397 6.183-4.715 1.071-6.675-2.648-7.428-5.365-.083-.303.072-.651 0-1.011-.155-.851-.499-1.82-.579-2.773a71.847 71.847 0 0 1-.121-1.892 3.868 3.868 0 0 1 2.392-3.784c2.168-.863 5.46-1.548 8.578.284a3.891 3.891 0 0 1 1.377 1.4c.331.577.508 1.23.515 1.895.032 1.28-.02 2.561-.155 3.834z" fill="#FFA681"/><path d="M204.863 108.683a.182.182 0 0 1-.119-.045.183.183 0 0 1 .022-.294.18.18 0 0 1 .067-.024l.628-.106-.866-2.308a.186.186 0 0 1 .005-.141.193.193 0 0 1 .101-.098.188.188 0 0 1 .238.11l1.022 2.724-1.067.178-.031.004z" fill="#F97853"/><path d="M207.118 105.629c0 .401.209.731.466.731s.465-.33.465-.731c0-.401-.208-.734-.465-.734s-.466.329-.466.734zm-5.138 0c0 .401.208.731.465.731.258 0 .466-.33.466-.731 0-.401-.208-.734-.466-.734-.257 0-.465.329-.465.734zm6.97-1.918a8.9 8.9 0 0 0-1.934-.163c-.212 0-.378.167-.352.333.02.071.065.132.128.171a.29.29 0 0 0 .209.041 10.365 10.365 0 0 1 2.649.167.368.368 0 0 0-.04-.16.37.37 0 0 0-.104-.128 1.083 1.083 0 0 0-.556-.261zm-7.469.087a8.99 8.99 0 0 1 1.929-.189c.212 0 .379.162.379.329a.304.304 0 0 1-.337.219c-.888-.05-1.778.018-2.649.201a.33.33 0 0 1 .137-.291c.152-.137.339-.23.541-.269z" fill="#18315B"/><path d="M207.118 109.773c-.136.643-.586 1.823-2.107 1.823-1.521 0-1.949-1.078-2.096-1.823h4.203z" fill="#fff"/><path d="M205.034 112.72c.297-.013.586-.097.844-.246a.177.177 0 0 0 .079-.113.176.176 0 0 0-.023-.136.176.176 0 0 0-.246-.057c-.2.115-.424.181-.654.193a1.553 1.553 0 0 1-.689-.193.187.187 0 0 0-.066-.024.2.2 0 0 0-.069.003.188.188 0 0 0-.064.03.189.189 0 0 0-.071.117.206.206 0 0 0 .003.07.183.183 0 0 0 .082.11c.267.152.567.237.874.246z" fill="#F97853"/><path d="M211.035 106.136c-.045.038-.087.027-.125-.045-.624-1.101-.038-3.292-1.892-4.132a3.9 3.9 0 0 1-1.911-1.953 3.96 3.96 0 0 1-1.158 1.052 33.303 33.303 0 0 1-4.321 2.108c-.509.186-.995.43-1.449.726h.038a3.305 3.305 0 0 0-.163 2.532c.447 1.54-.129 4.083-1.135 4.669 0-.045.757-1.801.34-3.235-.242-.821-.238-2.13-.469-2.914-.253-.174-.84-.469-1.037-.586a60.176 60.176 0 0 1-.128-1.941 3.933 3.933 0 0 1 2.52-3.86c2.27-.878 5.755-1.574 9.043.291a3.952 3.952 0 0 1 2.006 3.356 29.324 29.324 0 0 1-.159 3.932z" fill="#18315B"/><path d="M198.817 104.956s-1.287-1.563-2.047-.436c-.761 1.128.378 4.583 2.225 3.784l-.178-3.348z" fill="#FFA681"/><path d="M198.87 108.346a1.195 1.195 0 0 1-.251 1.425 1.19 1.19 0 0 1-1.439.134 1.189 1.189 0 0 1-.068-1.975c.211-.154.467-.233.728-.227a.258.258 0 0 0 .026-.115c0-.04-.008-.08-.026-.116a1.426 1.426 0 0 0-1.473 1.509c.016.281.114.552.282.778.169.225.401.396.666.491a1.424 1.424 0 0 0 1.894-1.13 1.432 1.432 0 0 0-.116-.819l-.223.045z" fill="#fff"/><path d="M198.541 107.135a.154.154 0 0 1-.152-.117 2.426 2.426 0 0 0-1.366-1.445.149.149 0 0 1-.058-.031.156.156 0 0 1-.012-.235.146.146 0 0 1 .055-.036.146.146 0 0 1 .065-.01.16.16 0 0 1 .064.016 2.723 2.723 0 0 1 1.555 1.658.16.16 0 0 1-.11.193l-.041.007z" fill="#F97853"/><path d="M197.466 106.617a.15.15 0 0 1-.087-.027.16.16 0 0 1-.044-.042.164.164 0 0 1-.024-.056.157.157 0 0 1 0-.061.143.143 0 0 1 .022-.056c.152-.209.355-.373.591-.477a.16.16 0 0 1 .197.199.16.16 0 0 1-.069.088 1.09 1.09 0 0 0-.454.36.165.165 0 0 1-.132.072z" fill="#F97853"/></g><path d="M204.312 47.06h-4.701a.367.367 0 0 0-.366.366.368.368 0 0 0 .366.365h4.701a.363.363 0 0 0 .365-.365.364.364 0 0 0-.365-.366zm1.989 0a.41.41 0 0 0-.41.41.42.42 0 0 0 .41.41.41.41 0 0 0 .41-.41.4.4 0 0 0-.41-.41z" fill="#474246"/><defs><linearGradient id="paint0_linear" x1="12.226" y1="87.395" x2="98.426" y2="87.395" gradientUnits="userSpaceOnUse"><stop stop-color="#314EC6"/><stop offset="1" stop-color="#66A8DE"/></linearGradient><linearGradient id="paint1_linear" x1="28369.6" y1="248.354" x2="35400.1" y2="248.354" gradientUnits="userSpaceOnUse"><stop stop-color="#9CC6EA"/><stop offset="1" stop-color="#fff"/></linearGradient><linearGradient id="paint2_linear" x1="28403.1" y1="256.289" x2="35455.7" y2="256.289" gradientUnits="userSpaceOnUse"><stop stop-color="#9CC6EA"/><stop offset="1" stop-color="#fff"/></linearGradient><linearGradient id="paint3_linear" x1="28081.2" y1="258.842" x2="34922.8" y2="258.842" gradientUnits="userSpaceOnUse"><stop stop-color="#9CC6EA"/><stop offset="1" stop-color="#fff"/></linearGradient><linearGradient id="paint4_linear" x1="1416.75" y1="1854.69" x2="1432.94" y2="1854.69" gradientUnits="userSpaceOnUse"><stop stop-color="#66A8DE"/><stop offset="1" stop-color="#4070B7"/></linearGradient><linearGradient id="paint5_linear" x1=".862" y1="107.117" x2="87.062" y2="107.117" gradientUnits="userSpaceOnUse"><stop stop-color="#C648BD"/><stop offset="1" stop-color="#FF8ADB"/></linearGradient><linearGradient id="paint6_linear" x1="26943.2" y1="277.719" x2="33692.2" y2="277.719" gradientUnits="userSpaceOnUse"><stop stop-color="#BBD8F1"/><stop offset="1" stop-color="#fff"/></linearGradient><linearGradient id="paint7_linear" x1="27349.4" y1="280.103" x2="34379.8" y2="280.103" gradientUnits="userSpaceOnUse"><stop stop-color="#BBD8F1"/><stop offset="1" stop-color="#fff"/></linearGradient><linearGradient id="paint8_linear" x1="27381.3" y1="285.339" x2="34433.9" y2="285.339" gradientUnits="userSpaceOnUse"><stop stop-color="#BBD8F1"/><stop offset="1" stop-color="#fff"/></linearGradient><linearGradient id="paint9_linear" x1="27074.6" y1="293.498" x2="33916.2" y2="293.498" gradientUnits="userSpaceOnUse"><stop stop-color="#BBD8F1"/><stop offset="1" stop-color="#fff"/></linearGradient><linearGradient id="paint10_linear" x1="1360.09" y1="2002.36" x2="1376.35" y2="2002.36" gradientUnits="userSpaceOnUse"><stop stop-color="#985EF1"/><stop offset="1" stop-color="#FF8ADB"/></linearGradient><linearGradient id="paint11_linear" x1="31336.8" y1="7065.46" x2="39665.5" y2="7065.46" gradientUnits="userSpaceOnUse"><stop offset=".05" stop-color="#F7A42D"/><stop offset=".95" stop-color="#F7D641"/></linearGradient><linearGradient id="paint12_linear" x1="28612.8" y1="309.378" x2="35362.5" y2="309.378" gradientUnits="userSpaceOnUse"><stop stop-color="#BBD8F1"/><stop offset="1" stop-color="#fff"/></linearGradient><linearGradient id="paint13_linear" x1="29056" y1="311.566" x2="36088" y2="311.566" gradientUnits="userSpaceOnUse"><stop stop-color="#BBD8F1"/><stop offset="1" stop-color="#fff"/></linearGradient><linearGradient id="paint14_linear" x1="29088.1" y1="319.898" x2="36140.7" y2="319.898" gradientUnits="userSpaceOnUse"><stop stop-color="#BBD8F1"/><stop offset="1" stop-color="#fff"/></linearGradient><linearGradient id="paint15_linear" x1="28755.9" y1="322.039" x2="35597.6" y2="322.039" gradientUnits="userSpaceOnUse"><stop stop-color="#BBD8F1"/><stop offset="1" stop-color="#fff"/></linearGradient><linearGradient id="paint16_linear" x1="1460.12" y1="2151.28" x2="1476.38" y2="2151.28" gradientUnits="userSpaceOnUse"><stop stop-color="#66A8DE"/><stop offset="1" stop-color="#4070B7"/></linearGradient><linearGradient id="paint17_linear" x1="6961.29" y1="5801.05" x2="7336.5" y2="5801.05" gradientUnits="userSpaceOnUse"><stop stop-color="#212F47"/><stop offset="1" stop-color="#252A30"/></linearGradient><linearGradient id="paint18_linear" x1="8370.8" y1="3904.23" x2="8874.07" y2="3904.23" gradientUnits="userSpaceOnUse"><stop stop-color="#66A8DE"/><stop offset="1" stop-color="#4070B7"/></linearGradient><linearGradient id="paint19_linear" x1="10167.6" y1="9326.46" x2="9904.26" y2="9115.55" gradientUnits="userSpaceOnUse"><stop stop-color="#212F47"/><stop offset="1" stop-color="#252A30"/></linearGradient><linearGradient id="paint20_linear" x1="12360.4" y1="7935.31" x2="11471.5" y2="7662.12" gradientUnits="userSpaceOnUse"><stop stop-color="#212F47"/><stop offset="1" stop-color="#252A30"/></linearGradient><linearGradient id="paint21_linear" x1="3840" y1="4007.04" x2="3952.99" y2="4007.04" gradientUnits="userSpaceOnUse"><stop stop-color="#212F47"/><stop offset="1" stop-color="#252A30"/></linearGradient><linearGradient id="paint22_linear" x1="13249.9" y1="16971" x2="13249.9" y2="14605.1" gradientUnits="userSpaceOnUse"><stop stop-color="#212F47"/><stop offset="1" stop-color="#252A30"/></linearGradient><linearGradient id="paint23_linear" x1="7583.82" y1="4622.8" x2="7737.36" y2="4622.8" gradientUnits="userSpaceOnUse"><stop offset=".05" stop-color="#F7A42D"/><stop offset=".95" stop-color="#F7D641"/></linearGradient></defs></svg>