<svg width="769" height="502" fill="none" xmlns="http://www.w3.org/2000/svg"><path d="M227.092 246.608a2589.834 2589.834 0 0 0 6.671 15.601c-11.395-13.519-31.575-27.276-64.779-21.032 25.147 29.375 36.526 42.021 74.211 42.604 2.157 4.896 4.314 9.721 6.471 14.474-14.658-9.788-44.016-22.111-78.277 3.02 34.541 15.299 50.353 21.862 83.012 7.464a2165.562 2165.562 0 0 0 17.198 36.833c-16.573-13.822-49.366-31.392-93.102-7.011 39.594 23.771 57.531 33.975 99.837 21.032 4.39 9.017 8.683 17.688 12.878 26.015-16.297-9.082-56.468-22.995-105.845 19.646 45.003 10.909 65.054 15.213 109.717-12.064 9.67 19.004 15.963 38.629 22.866 53.594h13.94c-6.854-12.404-15.1-28.372-22.93-43.418 49.285-18.152 58.334-36.558 77.694-78.692-65.307 12.544-78.557 54.009-81.221 71.881a1978.92 1978.92 0 0 1-11.589-22.914c38.914-26.009 42.064-46.276 48.055-93.171-53.286 22.175-53.825 67.442-51.544 86.134a2337.178 2337.178 0 0 1-19.884-41.412c32.185-16.852 36.833-33.263 46.325-70.139-41.493 11.465-49.69 42.798-50.925 60.238a2225.613 2225.613 0 0 1-8.272-18.109c23.388-30.313 20.53-47.052 13.018-85.244-23.507 20.444-26.791 42.754-24.381 59.687a2716.857 2716.857 0 0 1-12.754-29.66c1.079-16.071-1.742-52.251-45.558-68.403 6.315 37.065 9.55 53.875 39.168 73.046z" fill="#D8EFFF"/><path d="M572.275 490.897s-19.544-13.536-15.1-34.514c4.443-20.978 28.582-18.762 25.346-35.307-3.236-16.545-19.155-42.328-3.71-61.09 15.445-18.761 41.141-7.512 44.366-36.601 2.594-23.442 13.428-40.041 34.412-35.177 19.414 4.508 33.915 19.549 34.271 55.325.394 38.095 27.218 27.39 27.552 55.454.334 28.258-22.181 28.258-30.971 47.225-4.152 8.952 6.676 40.446-25.346 44.669l-90.82.016z" fill="#C1CCFF"/><path d="M654.272 303.469s.076.637.184 1.888c.339 3.775 1.024 12.888 1.024 25.621 0 37.259-5.867 105.311-42.954 159.627a1.92 1.92 0 0 0-.161.291h3.883c36.746-55.006 42.468-122.681 42.479-159.918 0-17.138-1.219-27.827-1.224-27.881a1.641 1.641 0 0 0-.606-1.089 1.625 1.625 0 0 0-2.578.828 1.613 1.613 0 0 0-.052.633" fill="#fff"/><path fill-rule="evenodd" clip-rule="evenodd" d="M612.365 490.896c-2.443-55.352 55.729-41.977 52.272-72.102-1.946-16.971 2.842-37.005 30.977-37.377 17.392-.227 10.861-18.568 28.533-22.224 10.743-2.222 17.823 8.99 19.193 20.002 1.569 12.538-5.533 24.861 2.61 35.053 10.565 13.234 14.857 37.906-7.852 44.928-22.709 7.021-2.47 28.522-33.392 31.699h-92.341v.021z" fill="#D8EFFF"/><path d="M722.966 371.484c-.594 16.48-7.901 39.939-20.412 62.319-12.511 22.38-30.2 43.746-51.302 56.328a1.62 1.62 0 0 0-.669.766h5.582c20.352-13.17 37.156-33.894 49.225-55.509 12.706-22.773 20.175-46.507 20.827-63.78a1.616 1.616 0 0 0-1.555-1.68 1.615 1.615 0 0 0-1.68 1.556" fill="#fff"/><path fill-rule="evenodd" clip-rule="evenodd" d="M448.11 418.52h73.272l12.021 53.227v.453h-73.17l-12.123-53.68z" fill="#07287A"/><path fill-rule="evenodd" clip-rule="evenodd" d="M324.966 163.099l336.565-5.161h18.648c12.609 0 23.891 10.349 22.925 22.92L686.602 395.6c-.965 12.565-10.316 22.919-22.925 22.919H307.795c-12.603 0-23.885-10.354-22.92-22.919l16.497-214.742c.965-12.571 10.991-17.564 23.594-17.759z" fill="url(#paint0_linear)"/><path d="M720.301 281.618a.709.709 0 0 1-.264.307.769.769 0 0 1-.78.077l-8.793-4.033a.775.775 0 0 1-.461-.649.799.799 0 0 1 .329-.714l7.903-5.605a.79.79 0 0 1 1.242.571l.901 9.639a.84.84 0 0 1-.077.407zm-7.946-4.518l6.319 2.902-.648-6.924-5.671 4.022z" fill="#FF867E"/><path d="M767.049 393.977l-3.022 1.385-1.418-3.023a.776.776 0 0 0-.463-.438.794.794 0 0 0-.636.054.788.788 0 0 0-.385 1.099l1.407 3.022-3.022 1.407a.788.788 0 0 0-.51.761.8.8 0 0 0 .269.573.793.793 0 0 0 .911.095l3.022-1.407 1.407 3.023a.794.794 0 0 0 .442.411.766.766 0 0 0 .602-.027.788.788 0 0 0 .385-1.099l-1.407-3.022 3.023-1.407a.806.806 0 0 0 .283-.168.797.797 0 0 0 .182-.913.788.788 0 0 0-.813-.455.81.81 0 0 0-.312.107l.055.022z" fill="#FFD054"/><path d="M681.665 134.015a.797.797 0 0 1-1.099-.209l-5.43-8.034a.789.789 0 0 1-.055-.787.784.784 0 0 1 .66-.433l9.661-.692a.779.779 0 0 1 .714.351.795.795 0 0 1 .055.781l-4.187 8.737a.793.793 0 0 1-.319.286zm-4.396-7.99l3.901 5.759 3.012-6.232-6.913.473z" fill="#6AE0F6"/><path fill-rule="evenodd" clip-rule="evenodd" d="M310.954 180.168h355.209a1.007 1.007 0 0 1 1.035 1.03l-16.297 213.659c-.012.27-.516 1.12-.516 1.12a1.077 1.077 0 0 1-.719.313H294.458a1.003 1.003 0 0 1-.958-.632c-.051-.126 7.898.769 7.901.632l8.523-215.092a1.083 1.083 0 0 1 1.03-1.03z" fill="#FAF9FD"/><g filter="url(#filter0_d)"><path d="M542.211 236.522H655.66l-3.992 44.907a10 10 0 0 1-10.066 9.114l-93.686-.99c-5.868-.062-10.421-5.139-9.846-10.979l4.141-42.052z" fill="#fff"/><path d="M573.77 269.535a5 5 0 0 1 4.927-4.15h65.447a5 5 0 0 1 4.977 5.478l-.977 10.192a5.001 5.001 0 0 1-4.978 4.523h-66.229c-3.101 0-5.454-2.795-4.927-5.851l1.76-10.192z" fill="#0094FF"/><g clip-path="url(#clip0)" stroke="#fff" stroke-linecap="round" stroke-linejoin="round"><path d="M632.563 275.482h8.815m-1.959-2.524l2.448 2.524-2.448 2.524"/></g><path d="M543.347 267.591c.27-.455.76-.734 1.289-.734h21.713a1.5 1.5 0 1 1 0 3h-21.713a1.5 1.5 0 0 1-1.289-2.266zm0 9c.27-.455.76-.734 1.289-.734h21.713a1.5 1.5 0 1 1 0 3h-21.713a1.5 1.5 0 0 1-1.289-2.266z" fill="#89C3E2"/><path d="M582.463 246.006a5 5 0 0 1 4.927-4.149h20.662a5 5 0 0 1 4.925 5.86l-.457 2.62a4.999 4.999 0 0 1-4.925 4.14h-20.658a5 5 0 0 1-4.927-5.85l.453-2.621z" fill="#FDEFF1"/><path d="M587.977 247.451a1.499 1.499 0 0 1 1.362-.871h16.268a1.5 1.5 0 1 1 0 3h-16.268a1.5 1.5 0 0 1-1.362-2.129z" fill="#89C3E2"/><path d="M584.396 274.326a1.5 1.5 0 0 1 1.089-.469h36.004c1.321 0 1.997 1.583 1.084 2.537a1.498 1.498 0 0 1-1.084.463h-36.004c-1.316 0-1.994-1.575-1.089-2.531z" fill="#fff"/><path d="M545.463 246.006a5 5 0 0 1 4.927-4.149h20.662a5 5 0 0 1 4.925 5.86l-.457 2.62a4.999 4.999 0 0 1-4.925 4.14h-20.658a5 5 0 0 1-4.927-5.85l.453-2.621z" fill="#FDEFF1"/><path d="M550.976 247.451a1.501 1.501 0 0 1 1.362-.871h16.269a1.5 1.5 0 1 1 0 3h-16.269a1.5 1.5 0 0 1-1.362-2.129z" fill="#89C3E2"/><path d="M619.207 246.198a5 5 0 0 1 4.912-4.064h21.088c3.137 0 5.499 2.855 4.912 5.936l-.5 2.621a5 5 0 0 1-4.911 4.064h-21.089c-3.136 0-5.498-2.855-4.911-5.936l.499-2.621z" fill="#E1DFEF"/><path d="M622.347 247.591c.27-.455.76-.734 1.289-.734h21.713a1.5 1.5 0 1 1 0 3h-21.713a1.5 1.5 0 0 1-1.289-2.266z" fill="#89C3E2"/><path d="M544.754 215.656a10 10 0 0 1 9.927-8.798h55.77c5.946 0 10.579 5.158 9.942 11.071l-2.015 18.713h-76.167l2.543-20.986zm77.77-.001a10 10 0 0 1 9.927-8.798h15.341c5.946 0 10.579 5.158 9.942 11.071l-2.015 18.713h-35.737l2.542-20.986z" fill="#E1DFEF"/><path d="M628.347 225.591c.27-.455.76-.734 1.289-.734h21.713a1.5 1.5 0 1 1 0 3h-21.713a1.5 1.5 0 0 1-1.289-2.266zm-51-5c.27-.455.76-.734 1.289-.734h21.713a1.5 1.5 0 1 1 0 3h-21.713a1.5 1.5 0 0 1-1.289-2.266zm-28.97-3.178a5 5 0 0 1 4.98-4.556h15.172a5 5 0 0 1 4.98 5.449l-.901 10a5 5 0 0 1-4.98 4.551h-15.162a5 5 0 0 1-4.981-5.444l.892-10z" fill="#89C3E2"/><path d="M609.207 224.429a3.364 3.364 0 1 0 0-6.729 3.364 3.364 0 0 0 0 6.729zm0 .842a4.207 4.207 0 1 1 0-8.414 4.207 4.207 0 0 1 0 8.414zm-.421-4.628v2.524h.841v-2.524h-.841zm0-1.682h.841v.841h-.841v-.841z" fill="#000" fill-opacity=".2"/></g><g filter="url(#filter1_d)"><path d="M533.211 331.522H646.66l-3.992 44.907a10 10 0 0 1-10.066 9.114l-93.686-.99c-5.868-.062-10.421-5.139-9.846-10.979l4.141-42.052z" fill="#fff"/><path d="M564.77 364.535a5 5 0 0 1 4.927-4.15h65.447a5 5 0 0 1 4.977 5.478l-.977 10.192a5.001 5.001 0 0 1-4.978 4.523h-66.229c-3.101 0-5.454-2.795-4.927-5.851l1.76-10.192z" fill="#EC5271"/><path d="M628.25 368.607l-5.5 5.5m0-5.5l5.5 5.5" stroke="#fff" stroke-linecap="round" stroke-linejoin="round"/><path d="M534.347 362.591c.27-.455.76-.734 1.289-.734h21.713a1.5 1.5 0 1 1 0 3h-21.713a1.5 1.5 0 0 1-1.289-2.266zm-220.854-15.175a5 5 0 0 1 4.98-4.559h45.06a5 5 0 0 1 4.98 5.446l-3.043 34a5 5 0 0 1-4.98 4.554h-45.028a5 5 0 0 1-4.98-5.441l3.011-34zm220.854 24.175c.27-.455.76-.734 1.289-.734h21.713a1.5 1.5 0 1 1 0 3h-21.713a1.5 1.5 0 0 1-1.289-2.266z" fill="#89C3E2"/><path d="M573.463 341.006a5 5 0 0 1 4.927-4.149h20.662a5 5 0 0 1 4.925 5.86l-.457 2.62a4.999 4.999 0 0 1-4.925 4.14h-20.658a5 5 0 0 1-4.927-5.85l.453-2.621z" fill="#FDEFF1"/><path d="M578.977 342.451a1.499 1.499 0 0 1 1.362-.871h16.268a1.5 1.5 0 1 1 0 3h-16.268a1.5 1.5 0 0 1-1.362-2.129z" fill="#89C3E2"/><path d="M575.396 369.326a1.5 1.5 0 0 1 1.089-.469h36.004c1.321 0 1.997 1.583 1.084 2.537a1.498 1.498 0 0 1-1.084.463h-36.004c-1.316 0-1.994-1.575-1.089-2.531z" fill="#fff"/><path d="M536.463 341.006a5 5 0 0 1 4.927-4.149h20.662a5 5 0 0 1 4.925 5.86l-.457 2.62a4.999 4.999 0 0 1-4.925 4.14h-20.658a5 5 0 0 1-4.927-5.85l.453-2.621z" fill="#FDEFF1"/><path d="M541.976 342.451a1.501 1.501 0 0 1 1.362-.871h16.269a1.5 1.5 0 1 1 0 3h-16.269a1.5 1.5 0 0 1-1.362-2.129z" fill="#89C3E2"/><path d="M610.207 341.198a5 5 0 0 1 4.912-4.064h21.088c3.137 0 5.499 2.855 4.912 5.936l-.5 2.621a5 5 0 0 1-4.911 4.064h-21.089c-3.136 0-5.498-2.855-4.911-5.936l.499-2.621z" fill="#E1DFEF"/><path d="M613.347 342.591c.27-.455.76-.734 1.289-.734h21.713a1.5 1.5 0 1 1 0 3h-21.713a1.5 1.5 0 0 1-1.289-2.266z" fill="#89C3E2"/><path d="M535.754 310.656a10 10 0 0 1 9.927-8.798h55.77c5.946 0 10.579 5.158 9.942 11.071l-2.015 18.713h-76.167l2.543-20.986zm77.77-.001a10 10 0 0 1 9.927-8.798h15.341c5.946 0 10.579 5.158 9.942 11.071l-2.015 18.713h-35.737l2.542-20.986z" fill="#E1DFEF"/><path d="M619.347 310.591c.27-.455.76-.734 1.289-.734h21.713a1.5 1.5 0 1 1 0 3h-21.713a1.5 1.5 0 0 1-1.289-2.266zm0 10c.27-.455.76-.734 1.289-.734h21.713a1.5 1.5 0 1 1 0 3h-21.713a1.5 1.5 0 0 1-1.289-2.266zm-51-5c.27-.455.76-.734 1.289-.734h21.713a1.5 1.5 0 1 1 0 3h-21.713a1.5 1.5 0 0 1-1.289-2.266zm-28.97-3.178a5 5 0 0 1 4.98-4.556h15.172a5 5 0 0 1 4.98 5.449l-.901 10a5 5 0 0 1-4.98 4.551h-15.162a5 5 0 0 1-4.981-5.444l.892-10z" fill="#89C3E2"/><path d="M600.207 319.429a3.364 3.364 0 1 0 0-6.729 3.364 3.364 0 0 0 0 6.729zm0 .842a4.207 4.207 0 1 1 0-8.414 4.207 4.207 0 0 1 0 8.414zm-.421-4.628v2.524h.841v-2.524h-.841zm0-1.682h.841v.841h-.841v-.841z" fill="#000" fill-opacity=".2"/></g><path d="M378.329 349.962c.175-.069.362-.105.551-.105h99.163c1.658 0 2.09 2.294.546 2.897-.174.068-.36.103-.546.103H378.88c-1.655 0-2.091-2.287-.551-2.895zm0 8c.175-.069.362-.105.551-.105h99.163c1.658 0 2.09 2.294.546 2.897-.174.068-.36.103-.546.103H378.88c-1.655 0-2.091-2.287-.551-2.895zm-2.528 8.099c.229-.133.49-.204.755-.204h66.837c1.536 0 2.079 2.033.749 2.8-.228.131-.486.2-.749.2h-66.837c-1.532 0-2.079-2.025-.755-2.796zm116.484-15.449a1.5 1.5 0 0 1 1.302-.755H514.4a1.5 1.5 0 0 1 0 3h-20.813a1.5 1.5 0 0 1-1.302-2.245z" fill="#89C3E2"/><path fill-rule="evenodd" clip-rule="evenodd" d="M309.553 180.168h355.208a1.007 1.007 0 0 1 1.036 1.03l-1.424 18.476H307.099l1.424-18.476a1.079 1.079 0 0 1 1.03-1.03z" fill="#9EDDFF"/><path fill-rule="evenodd" clip-rule="evenodd" d="M442.675 418.52h70.095l11.616 53.68h-70.095l-11.616-53.68z" fill="#1945B2"/><path fill-rule="evenodd" clip-rule="evenodd" d="M471.364 400.891a6.701 6.701 0 0 1 6.189 4.136 6.693 6.693 0 0 1-1.455 7.3 6.702 6.702 0 0 1-7.301 1.448 6.7 6.7 0 0 1-2.167-10.924 6.698 6.698 0 0 1 4.734-1.96z" fill="#D8E7FF"/><path fill-rule="evenodd" clip-rule="evenodd" d="M434.693 471.736h98.689v9.583a9.617 9.617 0 0 1-9.584 9.583H425.11v-9.583a9.61 9.61 0 0 1 9.583-9.583z" fill="#07287A"/><path fill-rule="evenodd" clip-rule="evenodd" d="M428.459 471.736h84.494c-4.071 0-8.245 3.386-8.245 9.502v2.157c0 5.269-2.082 7.48-6.908 7.48h-78.142v-9.578c0-5.274 3.947-9.583 8.779-9.583" fill="#3C69D8"/><path fill-rule="evenodd" clip-rule="evenodd" d="M507.302 474.211a9.386 9.386 0 0 0-2.422 5.037h-84.996a9.804 9.804 0 0 1 2.697-5.042h84.71" fill="#6C93F6"/><path fill-rule="evenodd" clip-rule="evenodd" d="M323.784 206.695h213.141a.612.612 0 0 1 .572.382.59.59 0 0 1 .042.238l-9.895 128.446a.643.643 0 0 1-.621.615h-213.14a.607.607 0 0 1-.439-.175.592.592 0 0 1-.175-.44l9.895-128.446a.646.646 0 0 1 .62-.62z" fill="#93D9FF"/><path fill-rule="evenodd" clip-rule="evenodd" d="M367.493 185.561h245.098a4.045 4.045 0 1 1 0 8.089H367.493a4.045 4.045 0 0 1 0-8.089z" fill="#fff"/><path fill-rule="evenodd" clip-rule="evenodd" d="M391.194 200.057c-9.21 18.222-20.395 35.118-44.539 37.658-19.581 2.06-76.168-31.942-77.985-49.56-1.818-17.618 10.235-19.91 10.235-19.91s55.692 32.162 60.939 30.663c3.975-1.127 23.831-18.281 36.013-28.447 2.589-2.157 19.301 21.76 15.337 29.596z" fill="#183E9D"/><path fill-rule="evenodd" clip-rule="evenodd" d="M399.246 162.614l45.483 2.039c11.001.491 26.608 6.719 32.896 14.819 8.402 10.786-5.641 82.327-4.513 140.753H365.73c-1.796-56.112.992-114.042 10.128-149.748 6.546-5.026 14.56-8.245 23.388-7.846" fill="#183E9D"/><path fill-rule="evenodd" clip-rule="evenodd" d="M448.612 205.924c-4.077-9.572.205-27.762 9.934-31.462 2.572-.976 8.175-3.192 12.705-.377 11.821 7.345 39.939 48.692 40.824 78.082.636 21.264-41.573 40.02-63.269 34.514-2.626-3.003-8.822-14.463-3.775-19.91 9.006-9.707 30.351-12.139 29.418-19.484-1.672-13.234-22.51-33.538-25.848-41.363" fill="#183E9D"/><path fill-rule="evenodd" clip-rule="evenodd" d="M403.744 162.814c-4.023 22.45-.41 90.06 5.328 114.063.879-1.909 26.274-95.199 29.121-112.521-6.946-.949-25.589-1.655-34.438-1.542" fill="#fff"/><path fill-rule="evenodd" clip-rule="evenodd" d="M388.466 143.33c-1.079 10.678 11.476 18.174 19.705 17.074l.194 4.066c-3.737 6.946 4.509 12.641 8.295 15.925 1.019-.766 13.26-5.673 14.641-16.605l-.857-18.222a8.244 8.244 0 0 0 1.785-.89c1.769-1.197 2.346-3.942 1.725-6.714-.62-2.772-4.416-.695-4.416-.695 2.971-8.456 6.94-15.817-1.963-20.008-8.904-4.19-26.425-3.003-26.425-3.003l-10.554-.578c3.052 4.379-1.402 22.575-2.125 29.661" fill="#F7CCCF"/><circle cx="643.5" cy="190.357" r="4.5" fill="#fff"/><circle cx="629.5" cy="190.357" r="4.5" fill="#fff"/><circle cx="657.5" cy="190.357" r="4.5" fill="#fff"/><path fill-rule="evenodd" clip-rule="evenodd" d="M411.329 146.345a7.67 7.67 0 0 1-15.329-.184 1.325 1.325 0 0 1 1.335-1.304l12.65.144a1.343 1.343 0 0 1 1.312 1.344h.032z" fill="#2F221F"/><path fill-rule="evenodd" clip-rule="evenodd" d="M408.394 152.286a7.64 7.64 0 0 1-8.852.432 4.802 4.802 0 0 1 4.406-2.767 4.804 4.804 0 0 1 4.446 2.335z" fill="#DC5C4E"/><path fill-rule="evenodd" clip-rule="evenodd" d="M397.192 144.881l11.874.136c.176 1.319-.448 2.639-1.327 2.919-1.08.335-9.676 0-10.284-.672-.287-.328-.311-1.375-.263-2.399v.016z" fill="#fff"/><path d="M398.328 128.207c-.445 1.75-1.706 2.959-2.821 2.675-1.115-.283-1.669-1.922-1.273-3.693.397-1.772 1.706-2.96 2.821-2.676 1.115.284 1.685 1.986 1.273 3.694zm16 1c-.445 1.75-1.706 2.959-2.821 2.675-1.115-.284-1.669-1.922-1.273-3.694.397-1.771 1.706-2.959 2.821-2.675 1.115.284 1.685 1.986 1.273 3.694z" fill="#2E3062"/><path d="M402.435 139.76a8.7 8.7 0 0 0 2.971.254.81.81 0 0 0 .533-.846.807.807 0 0 0-.701-.713c-.785.067-2.587.011-3.19-.643a.885.885 0 0 1-.162-.833c.544-2.783 4.024-11.583 4.053-11.672a.798.798 0 0 0 .039-.651.8.8 0 0 0-.785-.524.812.812 0 0 0-.586.287.794.794 0 0 0-.157.295 114.438 114.438 0 0 0-4.135 11.955 2.413 2.413 0 0 0 .548 2.22c.437.424.98.725 1.572.871z" fill="#ED8082"/><path fill-rule="evenodd" clip-rule="evenodd" d="M423.304 151.559c-3.236 10.069-6.542 13.908-14.814 15.445l-.324-6.73c3.166-.469 10.823-3.543 15.138-8.715z" fill="#ED8082"/><path fill-rule="evenodd" clip-rule="evenodd" d="M434.229 224.848l26.263 1.057-.215 4.265-26.263-1.051.215-4.271z" fill="#93D9FF"/><path fill-rule="evenodd" clip-rule="evenodd" d="M400.427 121.656c8.036.178 16.826-2.125 21.571 1.925 3.339 2.847 3.506 6.709 1.554 14.56-.572 2.319-1.548 4.115 1.839 1.823 1.553-1.046 4.141-2.583 5.209-1.974 2.378 1.359 1.898 5.102.41 6.526-.669.636-1.963 1.618-1.963 1.618 23.567-7.653 22.563-28.512 8.537-42.377-15.586-27.4-58.084-25.4-49.199-7.01-9.367 10.208-2.065 24.542 12.037 24.86" fill="#3A2926"/><path fill-rule="evenodd" clip-rule="evenodd" d="M279.558 171.567c1.882 6.741-4.643 22.412-9.259 17.343-1.359-1.488-2.767-2.944-4.466-4.945-5.026-5.932 3.565-20.493 6.876-17.845l6.849 5.447z" fill="#fff"/><path fill-rule="evenodd" clip-rule="evenodd" d="M270.525 165.667c-.366-2.259-1.936-11.185-3.44-12.743-.772-.798-.976-.458-1.349 0a4.18 4.18 0 0 0-.587 2.324c.049 1.354.175 2.705.377 4.045-4.632-2.831-8.925-9.168-12.22-13.509-1.337-1.764-4.314-.41-3.106 2.696.329.825 5.932 8.391 5.964 9.303.092 4.314-13.654 10.812 11.379 22.65 1.354-.993 5.156-5.075 5.83-10.004l-2.848-4.762z" fill="#F7CCCF"/><path fill-rule="evenodd" clip-rule="evenodd" d="M445.495 270.827c5.511 1.617 10.678 9.61 10.435 13.935-.917.064-4.46 1.342-7.62 1.817-6.795 1.025-12.296-12.732-8.774-13.994l5.959-1.758z" fill="#fff"/><path fill-rule="evenodd" clip-rule="evenodd" d="M440.356 274.375l-3.554.777-10.91-3.047c-1.181-.68-9.071-3.371-7.188-.491 1.321 2.022 5.662 5.565 5.527 5.759-1.758 2.557-17.197 5.124-17.37 5.35-2.427 3.236 9.049 1.559 10.737 1.456.442 0-8.229 2.848-7.954 3.16a3.385 3.385 0 0 0 3.068 1.262c2.276-.194 7.701-1.763 8.116-1.397.416.367-8.051 3.134-7.625 3.457a2.95 2.95 0 0 0 2.41.626c2.357-.27 7.55-1.769 8.09-1.489.28.146-2.562.923-3.689 1.3-4.481 1.499.539 1.758 2.351 1.521 8.742-1.133 9.082-4.994 19.414-6.321 9.707-.814.54-12.354-1.434-11.923" fill="#F7CCCF"/><path d="M529 310.555l-214.5-.698-1 26.5H527l2-25.802z" fill="#89C3E2"/><path fill-rule="evenodd" clip-rule="evenodd" d="M414.5 311.857c2.077 0 4.107.616 5.833 1.77a10.495 10.495 0 0 1 4.465 10.779 10.506 10.506 0 0 1-2.873 5.376 10.505 10.505 0 0 1-11.443 2.276 10.5 10.5 0 0 1 4.018-20.201z" fill="#EC5271"/><path d="M411.548 322.29a9.94 9.94 0 0 1-1.544-4.337 1.005 1.005 0 0 1 1.001-1.096h1.508a1.01 1.01 0 0 1 1.006.865c.063.482.181.956.352 1.412a1.01 1.01 0 0 1-.227 1.06l-.638.638m1.302 1.709c.51.511 1.087.95 1.715 1.307l.638-.638a1.003 1.003 0 0 1 1.061-.227c.456.171.93.289 1.413.352a1.004 1.004 0 0 1 .865 1.005v1.508a1.003 1.003 0 0 1-1.096 1.005 9.942 9.942 0 0 1-4.339-1.543 9.707 9.707 0 0 1-1.675-1.342l1.418-1.427zm5.692-5.684l-10 10" stroke="#fff" stroke-linecap="round" stroke-linejoin="round"/><path d="M517.753 331.555h-1.316a1.874 1.874 0 0 1-1.887-1.887v-1.019h1.208v.711a1.142 1.142 0 0 0 1.138 1.138h1.111v1.079l-.254-.022zm6.234-2.653v.766a1.874 1.874 0 0 1-1.887 1.887h-1.769v-1.078h1.311a1.138 1.138 0 0 0 1.137-1.138v-.712h1.208v.275zm-3.402-5.247h1.536a1.888 1.888 0 0 1 1.888 1.887v.755h-1.208v-.463a1.142 1.142 0 0 0-1.138-1.138h-1.31v-1.079l.232.038zm-4.148 0h1.57v1.078h-1.111a1.139 1.139 0 0 0-1.138 1.138v.448h-1.186v-.755a1.887 1.887 0 0 1 1.887-1.888l-.022-.021z" fill="#fff"/><path fill-rule="evenodd" clip-rule="evenodd" d="M504.287 332.003l-.059-.389a.364.364 0 0 1 .21-.393c.288-.134.56-.3.809-.496a.37.37 0 0 1 .448 0l.318.237a.384.384 0 0 0 .539-.086l.443-.61a.382.382 0 0 0 .077-.287.376.376 0 0 0-.158-.252l-.319-.232a.374.374 0 0 1-.129-.431c.11-.296.184-.604.221-.917a.367.367 0 0 1 .308-.324l.393-.059a.38.38 0 0 0 .308-.432l-.119-.749a.375.375 0 0 0-.426-.307l-.388.059a.363.363 0 0 1-.394-.21 3.956 3.956 0 0 0-.496-.804.37.37 0 0 1 0-.448l.237-.323a.375.375 0 0 0 .075-.289.369.369 0 0 0-.161-.25l-.615-.448a.373.373 0 0 0-.135-.071.378.378 0 0 0-.296.045.356.356 0 0 0-.108.107l-.232.318a.367.367 0 0 1-.193.14.37.37 0 0 1-.239-.005 3.483 3.483 0 0 0-.916-.221.382.382 0 0 1-.324-.313l-.065-.394a.37.37 0 0 0-.426-.307l-.749.118a.375.375 0 0 0-.308.427l.06.393a.369.369 0 0 1-.211.394 3.656 3.656 0 0 0-.803.491.378.378 0 0 1-.453 0l-.318-.232a.37.37 0 0 0-.288-.08.366.366 0 0 0-.252.161l-.447.614a.37.37 0 0 0-.08.288.366.366 0 0 0 .161.252l.318.237a.36.36 0 0 1 .129.426c-.11.295-.182.603-.215.917a.37.37 0 0 1-.313.323l-.394.065a.375.375 0 0 0-.307.426l.118.75a.366.366 0 0 0 .281.303.355.355 0 0 0 .145.004l.389-.059a.369.369 0 0 1 .399.21c.13.289.294.561.49.809a.37.37 0 0 1 0 .448l-.231.318a.369.369 0 0 0 .08.539l.615.442a.37.37 0 0 0 .288.08.372.372 0 0 0 .252-.161l.237-.318a.36.36 0 0 1 .426-.129 4 4 0 0 0 .922.221.363.363 0 0 1 .318.307l.065.394a.376.376 0 0 0 .148.244.354.354 0 0 0 .278.063l.75-.118a.37.37 0 0 0 .303-.281.373.373 0 0 0 .004-.145h.005zm-1.467-2.222a2.062 2.062 0 0 1-1.823-1.137 2.059 2.059 0 0 1 .174-2.143 2.072 2.072 0 0 1 1.984-.827 2.07 2.07 0 0 1 1.729 2.353 2.072 2.072 0 0 1-2.058 1.754h-.006z" fill="#fff"/><path fill-rule="evenodd" clip-rule="evenodd" d="M177.607 274.645c21.22 20.374 35.053 83.367 62.017 91.861 0 0 2.508 6.315 1.208 11.972-1.3 5.657-3.807 7.798-3.807 7.798s-22.688 2.065-41.751-1.925c-10.721-2.244-12.301-16.362-16.368-17.996-11.292-4.546-17.257-50.223-17.257-50.223l15.958-41.487z" fill="#F7AB2B"/><path fill-rule="evenodd" clip-rule="evenodd" d="M241.199 374.838c0 1.197.415.21-.372 3.64-.787 3.43-3.807 7.798-3.807 7.798s-22.693 2.065-41.751-1.925c-10.716-2.244-15.688-10.872-19.754-12.506-4.908-1.974-2.351-40.711-6.008-44.912l-.539-2.389 7.803-24.656s11.616 59.461 34.773 66.628c23.157 7.168 24.268 7.087 29.661 8.322" fill="#ECA01F"/><path fill-rule="evenodd" clip-rule="evenodd" d="M164.168 198.024c-5.474 39.907 21.361 52.251-4.913 89.175 0 0-16.086-17.71-22.978-18.961-6.892-1.251-7.831-22.946-7.831-24.057 0-1.111 6.132-44.308 6.132-44.308l29.59-1.849z" fill="#003398"/><path fill-rule="evenodd" clip-rule="evenodd" d="M148.017 261.4h-40.926c-20.574 0-39.325 14.232-42.733 34.013-6.79 37.863 6.6 97.388 6.924 100.878h107.145l.474-60.572-1.294-61.069c-6.342-7.102-19.414-13.25-29.59-13.25z" fill="#F7AB2B"/><path fill-rule="evenodd" clip-rule="evenodd" d="M119.203 261.4c6.66 18.562 15.386 6.121 23.874 0 1.618 0 4.314-.114 7.011.081 24.143 71.093 11.195 79.031 3.721 120.642l-23.357 11.735c-5.209-3.171-12.355-6.029-17.564-9.2-.798-41.6 16.011-41.924-5.819-123.258h12.134z" fill="#fff"/><path fill-rule="evenodd" clip-rule="evenodd" d="M157.929 217.033a30.992 30.992 0 0 0 1.531 11.325c3.268 9.384-3.893 25.535-16.432 24.462l.049 8.553h-.2c3.107 10.435-3.009 20.331-7.787 20.536-4.244.178-15.305-6.585-15.887-20.536l1.24-13.962c-.62-.189-1.882-2.858-3.144-3.63-1.262-.771-2.642-3.99-2.157-6.913.485-2.923 3.096-9.017 3.096-9.017-3.522-8.666-6.553-8.089 2.523-12.889 9.076-4.799 27.38-4.454 27.38-4.454l9.469 2.842.319 3.683z" fill="#F6C2C3"/><path d="M135 237.857c.104 2.15.868 6.207 5.208 6.906 4.341.699 6.045-2.65 6.792-5.015l-12-1.891z" fill="#FFF9FF"/><path d="M142.272 235.349a6.472 6.472 0 0 1-2.252-.284.64.64 0 0 1-.272-.729.612.612 0 0 1 .239-.327.593.593 0 0 1 .388-.103c.575.177 1.926.424 2.472.023a.686.686 0 0 0 .242-.608c.003-2.205-1.299-9.461-1.308-9.533a.63.63 0 0 1 .067-.502.595.595 0 0 1 .662-.273.624.624 0 0 1 .395.313.659.659 0 0 1 .074.249 91.75 91.75 0 0 1 1.327 9.762c.017.31-.041.619-.169.898-.128.28-.322.521-.565.704a2.538 2.538 0 0 1-1.3.41z" fill="#EA9191"/><path d="M132.215 224.297c-.304 1.783.37 3.381 1.505 3.579 1.136.198 2.298-1.109 2.642-2.892.343-1.783-.383-3.394-1.506-3.579-1.122-.185-2.417 1.096-2.641 2.892z" fill="#2E3062"/><path d="M130.383 218.516c-.175 0-.349-.087-.349-.261-.087-.174 0-.436.174-.61 2.876-1.481 6.187-.436 6.361-.348.262.087.349.348.262.522-.087.175-.349.349-.523.262 0 0-3.137-.959-5.664.348-.174 0-.174.087-.261.087zm16.965-.142c-.175-.008-.345-.103-.336-.277-.079-.178.02-.435.202-.601 2.941-1.347 6.2-.149 6.37-.054.257.099.332.364.237.535-.095.17-.364.332-.534.236 0 0-3.09-1.102-5.674.086-.174-.008-.178.079-.265.075z" fill="#040962"/><path d="M148.073 224.767c-.304 1.783.37 3.381 1.505 3.579 1.136.198 2.298-1.11 2.641-2.892.344-1.783-.383-3.394-1.505-3.579-1.122-.185-2.417 1.096-2.641 2.892z" fill="#2E3062"/><path fill-rule="evenodd" clip-rule="evenodd" d="M143.007 252.863l.048 8.45a32.407 32.407 0 0 1-8.677-2.728 16.017 16.017 0 0 1-8.305-8.888 43.04 43.04 0 0 0 15.192 3.128l1.742.038z" fill="#EA9191"/><path fill-rule="evenodd" clip-rule="evenodd" d="M203.686 348.672s12.943-.119 17.15 1.467c4.206 1.585 5.705 3.775 5.705 3.775l4.282 1.078s.809 3.236 0 3.236-23.556 2.157-23.556 2.157l-4.853-.626s1.585-7.253 1.078-8.666c-.507-1.413-2.944-3.004-2.944-3.004l3.138.583z" fill="#F4B1B1"/><path fill-rule="evenodd" clip-rule="evenodd" d="M100.231 286.66c-4.465-9.902-17.737-15.294-25.422-7.599-5.743 5.749-6.951 6.542-7.091 14.173-.421 23.593 9.227 90.06 35.619 94.029 14.474 2.184 38.095 4.497 53.642 3.958 6.283-.216 11.325.032 13.806-1.817 8.564-6.418-3.667-16.179-3.667-16.179s-46.804-16.798-52.278-18.465c-9.065-2.766-11.487-61.138-14.609-68.084" fill="#FFC86B"/><path d="M74.622 206.569a.783.783 0 0 1-.643.036.788.788 0 0 1-.456-.453l-2.748-6.353-6.353 2.748a.804.804 0 0 1-.606.013.795.795 0 0 1-.438-.42l-2.748-6.364-6.363 2.759a.79.79 0 0 1-1.033-.418l-2.748-6.352-6.364 2.747a.774.774 0 0 1-.859-.153.78.78 0 0 1-.174-.253.795.795 0 0 1 .135-.917.79.79 0 0 1 .272-.182l7.078-3.067a.796.796 0 0 1 .64-.03.8.8 0 0 1 .459.448l2.748 6.353 6.363-2.748a.793.793 0 0 1 1.034.407l2.747 6.363 6.364-2.758a.789.789 0 0 1 1.033.417l3.066 7.078a.795.795 0 0 1-.134.917.79.79 0 0 1-.272.182z" fill="#6AE0F6"/><path fill-rule="evenodd" clip-rule="evenodd" d="M69.724 285.166c-14.377 21 7.927 98.457 33.613 102.097 14.496 2.06 38.095 4.492 53.643 3.958 6.277-.21 11.325.032 13.805-1.812 0 0-46.227-5.932-68.176-12.252-19.802-5.717-33.548-68.845-32.896-91.991" fill="#FFBC4A"/><path fill-rule="evenodd" clip-rule="evenodd" d="M180.492 366.63a20.432 20.432 0 0 0-3.235 8.586c-.604 4.918.539 7.48.539 7.48 12.981 1.046 39.039.064 38.99.053-.879-.129 1.213-2-1.58-3.435-2.012-1.03-8.629-1.364-10.947-2.906-10.322-6.866-17.257-5.517-23.729-9.778" fill="#E89292"/><path fill-rule="evenodd" clip-rule="evenodd" d="M185.707 321.686l90.324 6.181c3.587.242 7.237 3.009 6.531 6.53l-11.104 55.374c-.706 3.521-2.939 6.53-6.531 6.53h-93.133c-3.592 0-7.324-3.025-6.531-6.53l13.913-61.554c.793-3.505 2.95-6.779 6.531-6.531z" fill="#008EF4"/><path d="M285 321.686H163l5.644 74.615h121.694L285 321.686z" fill="url(#paint1_linear)"/><path fill-rule="evenodd" clip-rule="evenodd" d="M231.449 352.878c2.815.906 4.212 4.374 3.128 7.755-1.084 3.381-4.25 5.393-7.06 4.476-2.809-.917-4.217-4.379-3.133-7.755 1.084-3.376 4.25-5.393 7.065-4.476z" fill="#EEF4F8"/><path fill-rule="evenodd" clip-rule="evenodd" d="M121.074 390.202h47.279l3.429 6.099h-53.76v-3.057a3.056 3.056 0 0 1 3.052-3.047" fill="#008EF4"/><path fill-rule="evenodd" clip-rule="evenodd" d="M133.127 213.259s21.792 5.706 34.072-1.737c8.051-5.586 8.963-16.895-2.842-25.238-15.203-10.742-44.372-7.577-55.546 9.545-3.905 5.976-7.809 16.362-12.442 26.964-10.785 24.613-39.626 9.238-47.86 50.547-.384 1.909 6.47-2.4 12.554-3.958-5.825 13.557 1.903 23.626 3.408 25.508 6.552-29.914 33.818-31.079 54.748-33.473 3.106-2.875 3.532-10.964 3.559-15.003 0 0-6.304-4.433-5.991-9.583.312-5.15 1.763-5.015 2.351-4.891.588.124 3.958 2.087 3.958 2.087 1.192-6.687.922-20.013 10.047-20.752" fill="#003398"/><path fill-rule="evenodd" clip-rule="evenodd" d="M121.84 240.788a2.392 2.392 0 0 0-2.212 1.479 2.39 2.39 0 0 0 1.745 3.264 2.39 2.39 0 0 0 2.458-1.018 2.396 2.396 0 0 0-1.991-3.725z" fill="#fff"/><path d="M227.188 399.472h-37.749c-1.785 0-3.236-1.132-3.462-2.577h43.406c.475 1.234-.615 2.577-2.222 2.577" fill="#000446"/><path fill-rule="evenodd" clip-rule="evenodd" d="M33.495 466.046H197.13c9.761 0 17.748 5.592 17.748 12.404 0 6.832-7.987 12.403-17.748 12.403H33.495c-9.766 0-17.753-5.587-17.753-12.403 0-6.828 7.987-12.404 17.753-12.404z" fill="#9D1F39"/><path fill-rule="evenodd" clip-rule="evenodd" d="M197.129 487.116h140.143c-4.034-4.449-5.603-10.785 0-17.257H197.129c-3.236 0-5.932 3.894-5.932 8.629 0 4.735 2.696 8.628 5.932 8.628z" fill="#E8E8E8"/><path fill-rule="evenodd" clip-rule="evenodd" d="M333.637 478.811c-.07-2.826.971-5.873 3.635-8.968H197.129c-3.236 0-5.932 3.894-5.932 8.629v.334l142.44.005z" fill="#CDCDCD"/><path fill-rule="evenodd" clip-rule="evenodd" d="M340.303 490.896H196.805c-4.686 0-9.637-5.662-9.637-12.489 0-6.828 4.951-12.35 9.637-12.35h143.498l-.043 3.721-143.131.043c-3.236 0-5.932 3.894-5.932 8.629 0 4.735 2.696 8.628 5.932 8.628l143.131-.064.043 3.882z" fill="#BB3048"/><path fill-rule="evenodd" clip-rule="evenodd" d="M203.352 478.698h11.12c4.266 1.537 3.036 7.636 5.565 11.627l-6.568-3.295-4.767 3.084c-3.694-3.618-1.58-9.799-5.35-11.416z" fill="#F2DE00"/><path fill-rule="evenodd" clip-rule="evenodd" d="M340.303 426.398H172.921c-11.379 0-20.692 8.926-20.692 19.83 0 10.904 9.313 19.829 20.692 19.829h167.382c11.384 0 20.692-8.925 20.692-19.829 0-10.91-9.313-19.83-20.692-19.83z" fill="#15378B"/><path fill-rule="evenodd" clip-rule="evenodd" d="M180.567 460.018H34.147c6.434-7.103 8.947-17.187 0-27.574h146.42c5.194 0 9.454 6.213 9.454 13.784 0 7.572-4.255 13.79-9.454 13.79z" fill="#E8E8E8"/><path fill-rule="evenodd" clip-rule="evenodd" d="M39.783 443.904c-.54-3.683-2.265-7.55-5.636-11.46h146.42c4.649 0 8.553 4.978 9.319 11.46H39.783z" fill="#CDCDCD"/><path fill-rule="evenodd" clip-rule="evenodd" d="M29.305 466.046h151.786c7.475 0 15.386-9.043 15.386-19.953s-7.911-19.711-15.386-19.711H29.305l.07 5.932 151.193.108c5.193 0 9.454 6.213 9.454 13.784 0 7.572-4.255 13.79-9.454 13.79l-151.193-.103-.07 6.153z" fill="#254FB7"/><path fill-rule="evenodd" clip-rule="evenodd" d="M112.268 466.046h47.812c-7.129 0-12.942 5.587-12.942 12.404 0 6.816 5.829 12.403 12.942 12.403h-47.812c-7.124 0-12.943-5.587-12.943-12.403 0-6.817 5.835-12.404 12.943-12.404z" fill="#BB3048"/><path fill-rule="evenodd" clip-rule="evenodd" d="M319.681 426.398h-18.956c11.379 0 20.692 8.92 20.692 19.83a19.455 19.455 0 0 1-7.221 15.019l-6.239 4.799h11.724c11.378 0 20.692-8.92 20.692-19.829 0-10.91-9.314-19.83-20.692-19.83" fill="#3882C8"/><path fill-rule="evenodd" clip-rule="evenodd" d="M153.895 443.45h13.018l-1.984 12.717-6.197-2.945-6.822 2.945 1.985-12.717z" fill="#BB3048"/><path fill-rule="evenodd" clip-rule="evenodd" d="M299.306 396.129H162.728c-9.286 0-16.885 6.919-16.885 15.374 0 8.456 7.599 15.375 16.885 15.375h136.578c9.287 0 16.885-6.919 16.885-15.375 0-8.455-7.598-15.374-16.885-15.374z" fill="#9D1F39"/><path fill-rule="evenodd" clip-rule="evenodd" d="M168.968 422.192H49.495c5.248-5.506 7.297-13.325 0-21.377h119.473c4.239 0 7.712 4.816 7.712 10.689 0 5.872-3.473 10.688-7.712 10.688z" fill="#E8E8E8"/><path fill-rule="evenodd" clip-rule="evenodd" d="M54.025 409.352c-.485-2.75-1.904-5.63-4.535-8.537h119.477c3.705 0 6.828 3.683 7.55 8.537H54.025z" fill="#CDCDCD"/><path fill-rule="evenodd" clip-rule="evenodd" d="M45.537 426.878h123.856c6.1 0 12.555-7.01 12.555-15.466s-6.472-15.283-12.555-15.283H45.537l.059 4.605 123.371.081c4.239 0 7.712 4.816 7.712 10.688 0 5.873-3.473 10.689-7.712 10.689l-123.371-.081-.06 4.767zm236.944-30.749h-15.44c9.281 0 16.88 6.919 16.88 15.374a14.828 14.828 0 0 1-5.889 11.644l-4.929 3.731h9.405c9.286 0 16.879-6.919 16.879-15.375 0-8.455-7.598-15.374-16.879-15.374m-70.851 0h-15.466c9.286 0 16.879 6.919 16.879 15.374a14.814 14.814 0 0 1-5.889 11.644l-5.932 3.731h10.408c9.287 0 16.885-6.919 16.885-15.375 0-8.455-7.598-15.374-16.885-15.374z" fill="#BB3048"/><path fill-rule="evenodd" clip-rule="evenodd" d="M151.582 409.352h-11.12c-4.266 1.537-3.037 7.636-5.571 11.627l6.574-3.295 4.778 3.063c3.694-3.619 1.585-9.799 5.355-11.417" fill="#F7AB2B"/><path fill-rule="evenodd" clip-rule="evenodd" d="M1.484 490.857h730.032c.393.005.77.588 1.048 1.62s.435 2.43.436 3.89c-.001 1.458-.158 2.854-.436 3.883-.279 1.029-.655 1.607-1.048 1.607H1.484c-.393 0-.77-.578-1.047-1.607-.279-1.029-.436-2.425-.437-3.883.001-1.46.158-2.858.436-3.89s.655-1.615 1.048-1.62z" fill="#2F9EEE"/><path d="M245.176 117.473a56.315 56.315 0 1 1 7.342-112.152 56.32 56.32 0 0 1 48.491 48.475 56.32 56.32 0 0 1-27.67 56.129 56.313 56.313 0 0 1-28.163 7.548z" fill="#FAF9FD"/><path d="M245.636 111.15c27.623-.222 49.835-22.794 49.613-50.417-.221-27.622-22.794-49.835-50.416-49.613-27.622.222-49.835 22.794-49.613 50.416.222 27.623 22.794 49.835 50.416 49.614z" fill="#fff"/><path d="M245.636 111.15c27.623-.222 49.835-22.794 49.613-50.417-.221-27.622-22.794-49.835-50.416-49.613-27.622.222-49.835 22.794-49.613 50.416.222 27.623 22.794 49.835 50.416 49.614z" fill="#fff"/><path d="M246.924 64.103a3.392 3.392 0 0 1-4.914-1.844 3.392 3.392 0 0 1 .975-3.645 3.396 3.396 0 0 1 5.178.856 3.415 3.415 0 0 1-1.239 4.633z" fill="#269AD6"/><path d="M303.383 45.57A60.241 60.241 0 0 0 245.278.856a60.44 60.44 0 0 0-52.212 30.12 60.229 60.229 0 0 0-1.854 56.745A60.222 60.222 0 0 0 303.867 74.75a60.22 60.22 0 0 0-.484-29.261v.081zm-11.747 42.374a53.613 53.613 0 1 1-19.633-73.165 53.593 53.593 0 0 1 19.633 73.165z" fill="#2F9EEE"/><path d="M245.217 21.912a1.343 1.343 0 0 1-1.342-1.342v-8.373a1.344 1.344 0 0 1 1.342-1.341 1.339 1.339 0 0 1 1.341 1.341v8.373a1.34 1.34 0 0 1-1.341 1.342zm-20.284 5.447a1.322 1.322 0 0 1-1.158-.671l-4.187-7.255a1.34 1.34 0 0 1-.174-.495 1.334 1.334 0 0 1 .662-1.335 1.362 1.362 0 0 1 1.829.488l4.187 7.256a1.344 1.344 0 0 1-.488 1.829c-.204.117-.435.18-.671.183zm-14.856 14.856a1.342 1.342 0 0 1-.671-.183l-7.255-4.187a1.36 1.36 0 0 1-.488-1.829 1.322 1.322 0 0 1 1.829-.488l7.256 4.187a1.342 1.342 0 0 1 .487 1.83 1.32 1.32 0 0 1-1.158.67zm-5.426 20.283h-8.394a1.343 1.343 0 0 1-.949-2.29c.252-.252.593-.393.949-.393h8.394a1.342 1.342 0 0 1 0 2.683zm-1.83 24.47a1.322 1.322 0 0 1-1.158-.67 1.36 1.36 0 0 1 .488-1.83l7.255-4.187a1.342 1.342 0 1 1 1.342 2.317l-7.195 4.187a1.34 1.34 0 0 1-.732.183zm17.926 17.925a1.337 1.337 0 0 1-1.174-.677 1.34 1.34 0 0 1 .015-1.355l4.187-7.256a1.341 1.341 0 0 1 2.317 1.341l-4.248 7.276a1.356 1.356 0 0 1-1.097.671zm24.47 6.565a1.37 1.37 0 0 1-.943-.399 1.367 1.367 0 0 1-.399-.943v-8.373c0-.356.142-.697.393-.949a1.344 1.344 0 0 1 1.897 0c.252.252.393.593.393.949v8.434a1.362 1.362 0 0 1-1.341 1.281zm24.469-6.565a1.382 1.382 0 0 1-1.158-.671l-4.187-7.255a1.341 1.341 0 1 1 2.317-1.342l4.187 7.256c.09.151.149.32.174.494a1.336 1.336 0 0 1-.265.993 1.317 1.317 0 0 1-.397.342 1.28 1.28 0 0 1-.671.183zm17.926-17.925a1.343 1.343 0 0 1-.671-.183l-7.256-4.187a1.342 1.342 0 0 1 1.342-2.317l7.255 4.187a1.36 1.36 0 0 1 .488 1.83 1.32 1.32 0 0 1-1.158.67zm6.564-24.47h-8.373a1.343 1.343 0 0 1-.949-2.29c.252-.252.593-.393.949-.393h8.373a1.338 1.338 0 0 1 1.239.828 1.33 1.33 0 0 1 0 1.027 1.34 1.34 0 0 1-1.239.828zm-13.82-20.283a1.324 1.324 0 0 1-1.159-.67 1.34 1.34 0 0 1 .488-1.83l7.256-4.187a1.314 1.314 0 0 1 1.017-.142 1.322 1.322 0 0 1 .812.63 1.36 1.36 0 0 1-.488 1.83l-7.255 4.186a1.342 1.342 0 0 1-.671.183zM265.5 27.359a1.343 1.343 0 0 1-1.159-2.012l4.187-7.256a1.363 1.363 0 0 1 1.829-.488 1.318 1.318 0 0 1 .662 1.335 1.34 1.34 0 0 1-.174.495l-4.187 7.255a1.32 1.32 0 0 1-1.158.67zM245.155 60.06a1.321 1.321 0 0 1-1.341-1.342V30.021a1.34 1.34 0 0 1 1.341-1.341 1.343 1.343 0 0 1 1.342 1.341v28.697a1.344 1.344 0 0 1-1.342 1.342zm18.353 12.64a1.466 1.466 0 0 1-.651-.162l-15.893-8.698a1.38 1.38 0 0 1-.569-1.87 1.385 1.385 0 0 1 1.87-.57l15.913 8.7a1.38 1.38 0 0 1 .529 1.828 1.336 1.336 0 0 1-1.199.773z" fill="#269AD6"/><path fill-rule="evenodd" clip-rule="evenodd" d="M134.948 76.076h79.046a3.017 3.017 0 0 1 2.977 3.006V91.71h-84.935V79.082a3.016 3.016 0 0 1 2.912-3.006z" fill="#2F9EEE"/><path d="M217 91.71h-85v61.701h85v-61.7z" fill="#C2E9FE"/><path fill-rule="evenodd" clip-rule="evenodd" d="M141.047 80.385h5.357a1.389 1.389 0 0 1 1.405 1.405v2.605a1.388 1.388 0 0 1-1.405 1.405h-5.357a1.458 1.458 0 0 1-1.456-1.405V81.79a1.457 1.457 0 0 1 1.456-1.405zm20.519 0h5.357a1.384 1.384 0 0 1 .997.407 1.387 1.387 0 0 1 .407.998v2.605a1.388 1.388 0 0 1-1.404 1.405h-5.357a1.39 1.39 0 0 1-1.405-1.405V81.79a1.387 1.387 0 0 1 1.405-1.405zm20.511 0h5.357a1.394 1.394 0 0 1 1.275.871c.068.17.102.351.101.534v2.605a1.387 1.387 0 0 1-1.405 1.405h-5.328a1.399 1.399 0 0 1-1.405-1.405V81.79a1.401 1.401 0 0 1 .866-1.3c.171-.07.354-.106.539-.105zm20.518 0h5.358a1.397 1.397 0 0 1 1.404 1.405v2.605a1.387 1.387 0 0 1-.866 1.3c-.171.07-.354.106-.538.105h-5.358a1.396 1.396 0 0 1-1.002-.404 1.378 1.378 0 0 1-.41-1V81.79a1.387 1.387 0 0 1 1.405-1.405h.007z" fill="#183E9D"/><path d="M164.244 70.857a1.825 1.825 0 0 0-1.827 1.827v9.724a1.828 1.828 0 0 0 3.64 0v-9.724a1.83 1.83 0 0 0-1.813-1.827zm41.03 0a1.824 1.824 0 0 0-1.834 1.827v9.724a1.834 1.834 0 0 0 3.639 0v-9.724a1.827 1.827 0 0 0-1.805-1.827zm-61.548 0a1.825 1.825 0 0 0-1.827 1.827v9.724a1.825 1.825 0 0 0 3.117 1.288 1.85 1.85 0 0 0 .544-1.288v-9.724a1.85 1.85 0 0 0-1.834-1.827zm41.029 0a1.825 1.825 0 0 0-1.827 1.827v9.724a1.839 1.839 0 0 0 1.82 1.604 1.834 1.834 0 0 0 1.82-1.604v-9.724a1.83 1.83 0 0 0-1.813-1.827z" fill="#40494C"/><path d="M217 91.71h-85v3.363h85V91.71z" fill="#89C3E2"/><path fill-rule="evenodd" clip-rule="evenodd" d="M205.631 114.776h4.738a1.64 1.64 0 0 1 1.631 1.631v4.767a1.64 1.64 0 0 1-1.631 1.631h-4.738a1.663 1.663 0 0 1-1.631-1.631v-4.767a1.663 1.663 0 0 1 1.631-1.631z" fill="#89C3E2"/><path fill-rule="evenodd" clip-rule="evenodd" d="M194.458 114.776h4.767a1.622 1.622 0 0 1 1.602 1.631v4.767a1.622 1.622 0 0 1-1.602 1.631h-4.767a1.663 1.663 0 0 1-1.631-1.631v-4.767a1.663 1.663 0 0 1 1.631-1.631z" fill="#C53944"/><path fill-rule="evenodd" clip-rule="evenodd" d="M183.285 114.776h4.797a1.661 1.661 0 0 1 1.63 1.631v4.767a1.661 1.661 0 0 1-1.63 1.631h-4.797a1.661 1.661 0 0 1-1.63-1.631v-4.767a1.661 1.661 0 0 1 1.63-1.631zm-11.173 0h4.775a1.663 1.663 0 0 1 1.631 1.631v4.767a1.663 1.663 0 0 1-1.631 1.631h-4.775a1.661 1.661 0 0 1-1.63-1.631v-4.767a1.66 1.66 0 0 1 1.63-1.631zm-11.165 0h4.768a1.661 1.661 0 0 1 1.63 1.631v4.767a1.66 1.66 0 0 1-1.63 1.631h-4.768a1.66 1.66 0 0 1-1.638-1.631v-4.767a1.66 1.66 0 0 1 1.638-1.631zm-22.36 0h4.767a1.663 1.663 0 0 1 1.631 1.631v4.767a1.663 1.663 0 0 1-1.631 1.631h-4.767a1.632 1.632 0 0 1-1.601-1.631v-4.767a1.628 1.628 0 0 1 1.601-1.631zm67.044 11.326h4.738a1.635 1.635 0 0 1 1.631 1.63v4.761a1.646 1.646 0 0 1-1.631 1.637h-4.738a1.66 1.66 0 0 1-1.631-1.637v-4.761a1.661 1.661 0 0 1 1.631-1.63zm-11.173 0h4.767a1.624 1.624 0 0 1 1.602 1.63v4.761a1.629 1.629 0 0 1-1.602 1.637h-4.767a1.66 1.66 0 0 1-1.631-1.637v-4.761a1.661 1.661 0 0 1 1.631-1.63zm-11.173 0h4.797a1.661 1.661 0 0 1 1.63 1.63v4.761a1.659 1.659 0 0 1-1.63 1.637h-4.797a1.655 1.655 0 0 1-1.63-1.637v-4.761a1.661 1.661 0 0 1 1.63-1.63z" fill="#89C3E2"/><path fill-rule="evenodd" clip-rule="evenodd" d="M172.112 126.102h4.775a1.663 1.663 0 0 1 1.631 1.63v4.761a1.66 1.66 0 0 1-1.631 1.637h-4.775a1.657 1.657 0 0 1-1.63-1.637v-4.761a1.657 1.657 0 0 1 1.63-1.63z" fill="#C53944"/><path fill-rule="evenodd" clip-rule="evenodd" d="M160.947 126.102h4.768a1.661 1.661 0 0 1 1.63 1.63v4.761a1.657 1.657 0 0 1-1.63 1.637h-4.768a1.664 1.664 0 0 1-1.638-1.637v-4.761a1.662 1.662 0 0 1 1.638-1.63zm-22.36 0h4.767a1.663 1.663 0 0 1 1.631 1.63v4.761a1.658 1.658 0 0 1-1.631 1.637h-4.767a1.638 1.638 0 0 1-1.601-1.637v-4.761a1.628 1.628 0 0 1 1.601-1.63zm67.044 11.326h4.738a1.636 1.636 0 0 1 1.631 1.637v4.761a1.639 1.639 0 0 1-1.631 1.63h-4.738a1.663 1.663 0 0 1-1.631-1.63v-4.761a1.66 1.66 0 0 1 1.631-1.637zm-11.173 0h4.767a1.629 1.629 0 0 1 1.602 1.637v4.761a1.62 1.62 0 0 1-1.602 1.63h-4.767a1.663 1.663 0 0 1-1.631-1.63v-4.761a1.66 1.66 0 0 1 1.631-1.637z" fill="#89C3E2"/><path fill-rule="evenodd" clip-rule="evenodd" d="M183.285 137.428h4.797a1.655 1.655 0 0 1 1.63 1.637v4.761a1.655 1.655 0 0 1-1.63 1.608h-4.797a1.657 1.657 0 0 1-1.63-1.63v-4.761a1.662 1.662 0 0 1 1.63-1.615z" fill="#C53944"/><path fill-rule="evenodd" clip-rule="evenodd" d="M172.112 137.428h4.775a1.66 1.66 0 0 1 1.631 1.637v4.761c-.013.426-.19.831-.494 1.13-.303.3-.71.471-1.137.478h-4.775a1.657 1.657 0 0 1-1.63-1.63v-4.761a1.658 1.658 0 0 1 1.63-1.615zm-11.165 0h4.768a1.657 1.657 0 0 1 1.63 1.637v4.761a1.66 1.66 0 0 1-1.63 1.608h-4.768a1.659 1.659 0 0 1-1.638-1.63v-4.761a1.664 1.664 0 0 1 1.638-1.615zm-22.36 0h4.767a1.658 1.658 0 0 1 1.631 1.637v4.761a1.662 1.662 0 0 1-1.616 1.608h-4.782a1.632 1.632 0 0 1-1.601-1.63v-4.761a1.629 1.629 0 0 1 1.601-1.615z" fill="#89C3E2"/><path fill-rule="evenodd" clip-rule="evenodd" d="M149.774 137.428h4.768a1.655 1.655 0 0 1 1.63 1.637v4.761a1.655 1.655 0 0 1-1.63 1.608h-4.768a1.659 1.659 0 0 1-1.637-1.63v-4.761a1.665 1.665 0 0 1 1.637-1.615z" fill="#C53944"/><path fill-rule="evenodd" clip-rule="evenodd" d="M149.774 126.102h4.768a1.661 1.661 0 0 1 1.63 1.63v4.761a1.659 1.659 0 0 1-1.63 1.637h-4.768a1.66 1.66 0 0 1-1.149-.488 1.66 1.66 0 0 1-.488-1.149v-4.761a1.657 1.657 0 0 1 1.637-1.63zm55.857-22.644h4.738a1.64 1.64 0 0 1 1.631 1.631v4.76a1.641 1.641 0 0 1-1.631 1.63h-4.738a1.658 1.658 0 0 1-1.631-1.63v-4.76a1.663 1.663 0 0 1 1.631-1.631zm-11.173 0h4.767a1.622 1.622 0 0 1 1.602 1.631v4.76a1.624 1.624 0 0 1-1.602 1.63h-4.767a1.658 1.658 0 0 1-1.631-1.63v-4.76a1.663 1.663 0 0 1 1.631-1.631zm-11.173 0h4.797a1.661 1.661 0 0 1 1.63 1.631v4.76a1.657 1.657 0 0 1-1.63 1.63h-4.797a1.656 1.656 0 0 1-1.63-1.63v-4.76a1.661 1.661 0 0 1 1.63-1.631z" fill="#89C3E2"/><path fill-rule="evenodd" clip-rule="evenodd" d="M172.112 103.458h4.775a1.663 1.663 0 0 1 1.631 1.631v4.76a1.658 1.658 0 0 1-1.631 1.63h-4.775a1.656 1.656 0 0 1-1.63-1.63v-4.76a1.66 1.66 0 0 1 1.63-1.631z" fill="#C53944"/><path fill-rule="evenodd" clip-rule="evenodd" d="M160.947 103.458h4.768a1.661 1.661 0 0 1 1.63 1.631v4.76a1.66 1.66 0 0 1-1.63 1.63h-4.768a1.659 1.659 0 0 1-1.638-1.63v-4.76a1.659 1.659 0 0 1 1.638-1.631zm-22.36 0h4.767a1.663 1.663 0 0 1 1.631 1.631v4.76a1.658 1.658 0 0 1-1.631 1.63h-4.767a1.626 1.626 0 0 1-1.601-1.63v-4.76a1.628 1.628 0 0 1 1.601-1.631zm11.187 0h4.768a1.661 1.661 0 0 1 1.63 1.631v4.76a1.657 1.657 0 0 1-1.63 1.63h-4.768a1.659 1.659 0 0 1-1.637-1.63v-4.76a1.66 1.66 0 0 1 1.637-1.631z" fill="#89C3E2"/><path fill-rule="evenodd" clip-rule="evenodd" d="M149.774 114.776h4.768a1.661 1.661 0 0 1 1.63 1.631v4.767a1.661 1.661 0 0 1-1.63 1.631h-4.768a1.66 1.66 0 0 1-1.637-1.631v-4.767a1.66 1.66 0 0 1 1.637-1.631z" fill="#C53944"/><defs><filter id="filter0_d" x="533.021" y="203.857" width="129.772" height="93.686" filterUnits="userSpaceOnUse" color-interpolation-filters="sRGB"><feFlood flood-opacity="0" result="BackgroundImageFix"/><feColorMatrix in="SourceAlpha" values="0 0 0 0 0 0 0 0 0 0 0 0 0 0 0 0 0 0 127 0"/><feOffset dy="2"/><feGaussianBlur stdDeviation="2.5"/><feColorMatrix values="0 0 0 0 0.184314 0 0 0 0 0.619608 0 0 0 0 0.933333 0 0 0 0.1 0"/><feBlend in2="BackgroundImageFix" result="effect1_dropShadow"/><feBlend in="SourceGraphic" in2="effect1_dropShadow" result="shape"/></filter><filter id="filter1_d" x="305.462" y="298.857" width="348.331" height="95" filterUnits="userSpaceOnUse" color-interpolation-filters="sRGB"><feFlood flood-opacity="0" result="BackgroundImageFix"/><feColorMatrix in="SourceAlpha" values="0 0 0 0 0 0 0 0 0 0 0 0 0 0 0 0 0 0 127 0"/><feOffset dy="2"/><feGaussianBlur stdDeviation="2.5"/><feColorMatrix values="0 0 0 0 0.184314 0 0 0 0 0.619608 0 0 0 0 0.933333 0 0 0 0.1 0"/><feBlend in2="BackgroundImageFix" result="effect1_dropShadow"/><feBlend in="SourceGraphic" in2="effect1_dropShadow" result="shape"/></filter><linearGradient id="paint0_linear" x1="530.5" y1="418.857" x2="537" y2="157.857" gradientUnits="userSpaceOnUse"><stop stop-color="#003CD3"/><stop offset=".346" stop-color="#1153DB"/><stop offset=".722" stop-color="#3E8EEF"/><stop offset="1" stop-color="#61BCFF"/></linearGradient><linearGradient id="paint1_linear" x1="216.025" y1="426.016" x2="248.668" y2="263.563" gradientUnits="userSpaceOnUse"><stop stop-color="#2491FF"/><stop offset=".28" stop-color="#69B4FE"/><stop offset=".63" stop-color="#B8DBFE"/><stop offset=".88" stop-color="#EAF3FD"/><stop offset="1" stop-color="#FDFDFD"/></linearGradient><clipPath id="clip0"><path fill="#fff" d="M632.073 269.424h11.753v12.115h-11.753z"/></clipPath></defs></svg>