<svg width="769" height="409" fill="none" xmlns="http://www.w3.org/2000/svg"><path d="M389.842 408.857c209.228 0 378.841-5.615 378.841-12.541 0-6.925-169.613-12.54-378.841-12.54-209.229 0-378.842 5.615-378.842 12.54 0 6.926 169.613 12.541 378.842 12.541z" fill="#2F9EEE"/><path d="M249.39 326.855v-2.901H54.194a6.858 6.858 0 0 0-6.858 6.858v21.465a6.857 6.857 0 0 0 6.858 6.858H249.39v-2.857h-1.868v-29.423h1.868z" fill="#FFD054"/><path d="M262.03 362.036v-2.857H32.531a6.869 6.869 0 0 0-6.87 6.858v21.465a6.856 6.856 0 0 0 6.87 6.858H262.03v-2.857h-1.836v-29.467h1.836z" fill="#6AE0F6"/><path d="M34.015 387.502v-21.465a6.868 6.868 0 0 1 6.858-6.858h-3.385a6.869 6.869 0 0 0-6.87 6.858v21.465a6.858 6.858 0 0 0 6.87 6.858h3.385a6.852 6.852 0 0 1-4.85-2.008 6.86 6.86 0 0 1-2.008-4.85z" fill="#fff"/><path d="M42.807 387.502v-21.465a6.868 6.868 0 0 1 6.859-6.858H46.28a6.868 6.868 0 0 0-6.87 6.858v21.465a6.858 6.858 0 0 0 6.87 6.858h3.385a6.852 6.852 0 0 1-4.85-2.008 6.862 6.862 0 0 1-2.009-4.85z" fill="#fff"/><path d="M85.88 326.855h161.642v29.466H85.88a5.748 5.748 0 0 1-5.748-5.748v-17.97a5.748 5.748 0 0 1 5.748-5.748zm22.861 35.182h151.453v29.466H108.741a5.747 5.747 0 0 1-5.748-5.748v-17.97a5.75 5.75 0 0 1 5.748-5.748z" fill="#E8E8E8"/><path d="M25.662 308.83v-2.858h229.51a6.86 6.86 0 0 1 6.858 6.858v4.309a6.858 6.858 0 0 1-6.858 6.858H25.662v-2.858h1.88V308.83h-1.88z" fill="#FF867E"/><path d="M27.541 321.14H178.95a5.747 5.747 0 0 0 5.749-5.737v-.825a5.744 5.744 0 0 0-1.684-4.064 5.743 5.743 0 0 0-4.065-1.684H27.541v12.31z" fill="#E8E8E8"/><path d="M60.986 330.186h-7.99v22.806h7.99v-22.806zm5.507 0h-2.199v22.806h2.199v-22.806z" fill="#fff"/><path d="M183.116 244.435H82.825v61.538h100.291v-61.538z" fill="url(#paint0_linear)"/><path d="M132.393 213.43l-97.136 31.005 97.136 30.994 97.137-30.994-97.137-31.005z" fill="url(#paint1_linear)"/><path d="M132.393 237.753l-63.867 17.299v25.411" stroke="#FFD054" stroke-width="2" stroke-linecap="round" stroke-linejoin="round"/><path d="M68.68 277.506a3.729 3.729 0 0 1 3.726 3.726v16.486h-7.452v-16.486a3.728 3.728 0 0 1 3.726-3.726z" fill="#FFD054"/><path d="M555.264 28.334l52.833-22.927-49.965 12.497-2.868 10.43z" fill="#DEC3F7"/><path d="M555.264 13.903l52.833-8.496-62.175-4.55 9.342 13.046z" fill="#fff"/><path d="M558.133 17.904l10.309 14.409 39.655-26.906-49.964 12.497z" fill="#E6D1F9"/><path d="M555.264 13.903v14.431l2.868-10.43 49.965-12.497-52.833 8.496z" fill="#E6D1F9"/><path d="M366.673 63.076h-.11a.55.55 0 0 1-.429-.648c.066-.367.143-.733.231-1.1a.543.543 0 0 1 .435-.423.541.541 0 0 1 .56.248.543.543 0 0 1 .071.417c-.077.352-.154.704-.22 1.1a.547.547 0 0 1-.538.406zm1.726-6.396a.496.496 0 0 1-.176 0 .548.548 0 0 1-.341-.693c.242-.703.506-1.407.781-2.1a.543.543 0 0 1 .503-.346.549.549 0 0 1 .519.754 45.984 45.984 0 0 0-.759 2.055.56.56 0 0 1-.527.33zm3.099-7.09a.508.508 0 0 1-.421-.19.535.535 0 0 1-.103-.19c-.022-.07-.029-.142-.022-.215a.539.539 0 0 1 .063-.207 47.92 47.92 0 0 1 1.099-1.956.558.558 0 0 1 .758-.187.549.549 0 0 1 .187.747c-.363.627-.726 1.264-1.099 1.913a.541.541 0 0 1-.462.285zm4.111-6.594a.571.571 0 0 1-.319-.099.527.527 0 0 1-.225-.359.542.542 0 0 1 .104-.41c.44-.605.89-1.187 1.352-1.78a.551.551 0 1 1 .857.692c-.45.571-.89 1.099-1.33 1.736a.532.532 0 0 1-.45.264l.011-.044zm137.89-5.495c-.736 0-1.473-.1-2.198-.176a.548.548 0 0 1-.495-.594.562.562 0 0 1 .605-.495l2.198.166a.552.552 0 0 1 .528.571.556.556 0 0 1-.391.573.563.563 0 0 1-.247.02v-.065zm5.496-.066a.55.55 0 0 1-.42-.904.542.542 0 0 1 .376-.184c.736 0 1.45-.132 2.198-.22a.571.571 0 0 1 .615.472.56.56 0 0 1-.277.55.554.554 0 0 1-.206.066 51.57 51.57 0 0 1-2.198.22h-.088zm-138.484-.385a.499.499 0 0 1-.374-.154.547.547 0 0 1-.162-.385.546.546 0 0 1 .162-.385c.517-.538 1.033-1.098 1.572-1.582a.537.537 0 0 1 .397-.189.546.546 0 0 1 .53.353c.028.07.04.146.036.222a.541.541 0 0 1-.194.395 68.832 68.832 0 0 0-1.55 1.56.558.558 0 0 1-.351.209l-.066-.044zm125.295-.55h-.11l-2.198-.461a.563.563 0 1 1 .252-1.1c.733.17 1.447.323 2.144.462a.562.562 0 0 1 .428.649.547.547 0 0 1-.494.516l-.022-.066zm20.827-.318a.56.56 0 0 1-.409-.11.553.553 0 0 1 .266-.99 45.934 45.934 0 0 0 2.1-.604.568.568 0 0 1 .609.187.573.573 0 0 1-.28.912c-.714.22-1.429.429-2.198.616l-.088-.011zm-28.301-1.506h-.165a78.282 78.282 0 0 1-2.121-.66.548.548 0 0 1-.078-1.011.55.55 0 0 1 .419-.033l2.099.649a.562.562 0 0 1 .362.692.536.536 0 0 1-.516.363zm35.61-1a.561.561 0 0 1-.22-1.1 46.35 46.35 0 0 0 1.979-.933.552.552 0 1 1 .494.989c-.67.33-1.352.648-2.033.945a.498.498 0 0 1-.22.099zm-42.941-1.462a.626.626 0 0 1-.198 0l-2.077-.77a.571.571 0 0 1-.319-.714.557.557 0 0 1 .502-.356.553.553 0 0 1 .213.038l2.066.769a.555.555 0 0 1 .456.643.556.556 0 0 1-.643.456v-.066zm-104.731-.34a.552.552 0 0 1-.516-.37.547.547 0 0 1 .175-.609c.572-.472 1.154-.923 1.748-1.385a.559.559 0 0 1 .769.11.55.55 0 0 1-.11.77c-.582.44-1.154.9-1.714 1.363a.596.596 0 0 1-.363.12h.011zM540.8 30.07a.55.55 0 0 1-.285-1.011c.626-.385 1.242-.77 1.857-1.176a.552.552 0 0 1 .605.923c-.627.407-1.264.802-1.891 1.187a.526.526 0 0 1-.297.077h.011zm-57.042-.67a.638.638 0 0 1-.198 0l-2.055-.814a.543.543 0 0 1-.35-.503.562.562 0 0 1 .336-.514.545.545 0 0 1 .421-.005l2.044.813a.563.563 0 0 1 .447.43.57.57 0 0 1-.076.422.567.567 0 0 1-.351.243.56.56 0 0 1-.218.004V29.4zm-91.223-2.11a.563.563 0 0 1-.473-.254.557.557 0 0 1-.07-.415.565.565 0 0 1 .246-.343 54.779 54.779 0 0 1 1.901-1.165.55.55 0 0 1 .748.187.563.563 0 0 1-.187.758c-.638.374-1.253.759-1.869 1.1a.591.591 0 0 1-.296.175v-.044zm84.024-.737a.626.626 0 0 1-.198 0l-2.066-.791a.551.551 0 0 1-.029-1.015.56.56 0 0 1 .425-.019l2.066.792a.56.56 0 0 1 .22 1.008.56.56 0 0 1-.418.09v-.065zm-7.276-2.649h-.176l-2.088-.681a.578.578 0 0 1-.379-.72.574.574 0 0 1 .72-.38l2.099.704a.537.537 0 0 1 .352.692.548.548 0 0 1-.528.385zm-70-.385a.542.542 0 0 1-.55-.515.55.55 0 0 1 .308-.529 68.433 68.433 0 0 1 2.022-.934.543.543 0 0 1 .603.098c.053.05.094.11.123.177a.564.564 0 0 1-.275.725c-.67.297-1.33.605-1.989.923a.484.484 0 0 1-.242.088v-.033zm62.647-1.901h-.153l-2.122-.593a.568.568 0 0 1 .286-1.1l2.132.605a.549.549 0 0 1 .385.681.573.573 0 0 1-.561.495l.033-.088zm-55.47-1.1a.558.558 0 0 1-.187-1.098l2.121-.704a.541.541 0 0 1 .682.363.55.55 0 0 1-.352.693c-.703.22-1.396.45-2.088.692a.493.493 0 0 1-.209.143l.033-.088zm47.975-.878h-.121a50.924 50.924 0 0 0-2.198-.495.533.533 0 0 1-.346-.236.55.55 0 0 1-.072-.412.551.551 0 0 1 .659-.418l2.199.484a.549.549 0 0 1 .406.659.548.548 0 0 1-.56.473l.033-.055zm-40.578-1.231a.553.553 0 1 1-.121-1.1 64.303 64.303 0 0 1 2.198-.461.559.559 0 0 1 .209 1.099 73.82 73.82 0 0 0-2.198.45l-.088.012zm32.972-.286h-.088l-2.198-.352a.553.553 0 0 1-.467-.632.558.558 0 0 1 .632-.467c.736.11 1.462.23 2.198.363a.553.553 0 0 1 .451.626.563.563 0 0 1-.539.484l.011-.022zm-25.334-1.011a.536.536 0 0 1-.538-.484.545.545 0 0 1 .483-.604 51.57 51.57 0 0 1 2.198-.22.552.552 0 1 1 .088 1.099l-2.198.22-.033-.011zm17.673 0h-.054l-2.199-.187a.552.552 0 1 1 .088-1.1c.733.06 1.466.125 2.198.199a.55.55 0 1 1 0 1.099l-.033-.011zm-9.946-.44a.55.55 0 1 1 0-1.099h2.198a.55.55 0 1 1 0 1.1h-2.198zm118.019 9.036a.525.525 0 0 1-.44-.22.557.557 0 0 1-.104-.408.541.541 0 0 1 .214-.362l.868-.659a.572.572 0 0 1 .78.11.558.558 0 0 1-.109.77l-.88.659a.535.535 0 0 1-.329.11z" fill="#97ABFF"/><path d="M731.545 325.052s21.685-13.189 32.819 2.023c12.288 16.662-16.849 72.715-36.16 51.832-19.311-20.882 0-14.002 0-14.002s8.617 14.288 18.685 1c10.375-13.684 12.738-29.4 4.978-32.478-7.759-3.077-18.145 4.517-18.145 4.517l-2.177-12.892z" fill="#FFDAB6"/><path d="M729.424 396.317h-64.175a2.198 2.198 0 0 1-2.198-2.044l-7.408-89.773a2.203 2.203 0 0 1 2.198-2.407h78.991c.307-.002.611.061.892.185a2.203 2.203 0 0 1 1.306 2.222l-7.331 89.795a2.198 2.198 0 0 1-2.275 2.022z" fill="#FFDAB6"/><path d="M690 201.241a28.077 28.077 0 0 1 9.826 23.421c-.956 11.738-9.221 21.729-11.343 33.313a33.108 33.108 0 0 0 5.792 25.279c-3.648-6.144-3.066-12.859-1.406-19.783 1.659-6.924 4.891-13.409 7.539-20.047 2.649-6.639 4.781-13.739 4.067-20.883a26.95 26.95 0 0 0-4.527-12.492 26.947 26.947 0 0 0-9.948-8.808z" fill="#DEE4FF"/><path d="M691.725 215.277a21.701 21.701 0 0 1-9.702-14.572 21.713 21.713 0 0 1 4.207-16.994 16.795 16.795 0 0 0-8.089 17.234 17.915 17.915 0 0 0 13.584 14.332zm22.07 32.466c-6.034 4.671-11.606 10.364-14.354 17.497-2.748 7.133-2.198 15.915 2.989 21.564a56.054 56.054 0 0 1 11.365-39.061z" fill="#DEE4FF"/><path d="M31.622 274.569a.783.783 0 0 1-.643.036.788.788 0 0 1-.456-.453l-2.748-6.353-6.353 2.748a.804.804 0 0 1-.606.013.795.795 0 0 1-.438-.42l-2.747-6.364-6.364 2.759a.79.79 0 0 1-1.033-.418l-2.748-6.352-6.364 2.747a.774.774 0 0 1-.859-.153.781.781 0 0 1-.174-.253.794.794 0 0 1 .135-.917.789.789 0 0 1 .272-.182l7.078-3.067a.796.796 0 0 1 .64-.03.8.8 0 0 1 .459.448l2.748 6.353 6.363-2.748a.793.793 0 0 1 1.034.407l2.747 6.363 6.364-2.758a.789.789 0 0 1 1.033.417l3.066 7.078a.795.795 0 0 1-.134.917.79.79 0 0 1-.272.182z" fill="#6AE0F6"/><path d="M134.383 191.811l-9.057-1.209a.79.79 0 0 1-.681-.879l1.209-9.057a.805.805 0 0 1 .89-.681l9.056 1.209a.791.791 0 0 1 .671.89l-1.209 9.057a.775.775 0 0 1-.573.655.77.77 0 0 1-.306.015zm-8.068-2.66l7.496.99.989-7.485-7.484-1-1.001 7.495z" fill="#FFD054"/><path d="M287.352 66.769a.8.8 0 0 1-1.099-.209l-5.429-8.034a.784.784 0 0 1 .604-1.22l9.661-.693a.782.782 0 0 1 .715.352.79.79 0 0 1 .055.78l-4.188 8.738a.788.788 0 0 1-.319.286zm-4.396-7.99l3.902 5.759 3.011-6.232-6.913.473z" fill="#6AE0F6"/><path d="M658.16 260.625a.76.76 0 0 1-.407 0 .815.815 0 0 1-.505-.605l-1.616-9.551a.787.787 0 0 1 .281-.775.797.797 0 0 1 .818-.104l9.078 3.374a.789.789 0 0 1 .468 1.018.792.792 0 0 1-.237.334l-7.463 6.177a.782.782 0 0 1-.417.132zm-.737-9.123l1.154 6.859 5.353-4.397-6.507-2.462z" fill="#fff"/><path d="M675.301 278.618a.709.709 0 0 1-.264.307.769.769 0 0 1-.78.077l-8.793-4.033a.775.775 0 0 1-.461-.649.799.799 0 0 1 .329-.714l7.903-5.605a.79.79 0 0 1 1.242.571l.901 9.639a.84.84 0 0 1-.077.407zm-7.946-4.518l6.319 2.902-.648-6.924-5.671 4.022z" fill="#FF867E"/><path d="M441.63 29.96a.79.79 0 0 0-.989-.527l-3.199.945-.945-3.176a.789.789 0 0 0-.978-.516.79.79 0 0 0-.538.966l.956 3.199-3.199.956a.787.787 0 0 0-.533.973.78.78 0 0 0 .376.468.792.792 0 0 0 .597.065l3.198-.946.957 3.199a.79.79 0 0 0 .978.516.79.79 0 0 0 .538-.967l-.956-3.198 3.198-.956a.795.795 0 0 0 .572-.688.789.789 0 0 0-.033-.313z" fill="#fff"/><path d="M544.856 339.572l-2.957-1.55 1.55-2.957a.788.788 0 0 0-.357-1.015.789.789 0 0 0-1.039.279l-1.594 2.957-2.956-1.539a.78.78 0 0 0-1.099.33.79.79 0 0 0 .33 1.099l2.956 1.549-1.429 2.924a.79.79 0 0 0 .33 1.099.815.815 0 0 0 .622.062.81.81 0 0 0 .477-.403l1.55-2.956 2.956 1.549a.797.797 0 0 0 .637.109.791.791 0 0 0 .089-1.504l-.066-.033z" fill="#6AE0F6"/><path d="M665.359 229.147l-3.023 1.385-1.418-3.023a.78.78 0 0 0-1.099-.385.787.787 0 0 0-.433.466.783.783 0 0 0 .049.633l1.406 3.023-3.022 1.407a.796.796 0 0 0-.452.443.786.786 0 0 0 .017.632.8.8 0 0 0 .476.418c.104.033.213.045.321.033a.788.788 0 0 0 .308-.097l3.023-1.407 1.407 3.022a.764.764 0 0 0 .441.411.788.788 0 0 0 .603-.026.784.784 0 0 0 .433-.465.785.785 0 0 0-.049-.634l-1.406-3.023 3.022-1.406a.798.798 0 0 0 .474-.437.791.791 0 0 0-1.133-.992l.055.022z" fill="#FFD054"/><path d="M130.558 375.611h511.258v6.253a12.495 12.495 0 0 1-12.496 12.497H143.065a12.5 12.5 0 0 1-12.496-12.497v-6.253h-.011z" fill="url(#paint2_linear)"/><path d="M166.772 81.86h438.753a12.495 12.495 0 0 1 12.496 12.496V375.61H154.21V94.356a12.498 12.498 0 0 1 7.76-11.564 12.496 12.496 0 0 1 4.802-.933z" fill="url(#paint3_linear)"/><path d="M600.568 358.113V99.357H171.806v258.756h428.762z" fill="#E3E9FF"/><path d="M661.253 45.857H405.747c-2.069 0-3.747 1.116-3.747 2.492v107.017c0 1.376 1.678 2.491 3.747 2.491h255.506c2.069 0 3.747-1.115 3.747-2.491V48.349c0-1.376-1.678-2.492-3.747-2.492z" fill="#FAF9FD"/><path d="M630.594 57.977a3.299 3.299 0 0 1-3.94 3.234 3.295 3.295 0 0 1-2.403-4.496 3.3 3.3 0 0 1 3.046-2.036 3.298 3.298 0 0 1 3.297 3.298zm12.266 0a3.299 3.299 0 0 1-3.94 3.234 3.295 3.295 0 0 1-2.403-4.496 3.294 3.294 0 0 1 3.046-2.036 3.298 3.298 0 0 1 3.297 3.298zm12.255 0a3.299 3.299 0 0 1-3.94 3.234 3.302 3.302 0 0 1-2.591-2.591 3.295 3.295 0 0 1 3.234-3.94 3.296 3.296 0 0 1 3.297 3.297z" fill="#E6D1F9"/><path d="M481.51 70.857h-68.02c-1.375 0-2.49.37-2.49.828V87.03c0 .457 1.115.827 2.49.827h68.02c1.375 0 2.49-.37 2.49-.827V71.685c0-.457-1.115-.828-2.49-.828z" fill="#2F9EEE"/><path d="M495.49 71.357h68.02c.649 0 1.216.088 1.603.217a1.32 1.32 0 0 1 .387.185v15.196l-.005.004c-.063.05-.186.116-.382.181-.387.129-.954.217-1.603.217h-68.02c-.649 0-1.216-.088-1.603-.217a1.32 1.32 0 0 1-.382-.181l-.005-.004V71.759a1.32 1.32 0 0 1 .387-.185c.387-.129.954-.217 1.603-.217zm70.037.428l-.002-.003.002.003zm0 15.144l-.002.004.002-.004zm-72.054 0l.002.004-.002-.004zm0-15.144l.002-.003a.012.012 0 0 1-.002.003zm84.017-.428h68.02c.649 0 1.216.088 1.603.217a1.32 1.32 0 0 1 .387.185v15.196l-.005.004c-.063.05-.186.116-.382.181-.387.129-.954.217-1.603.217h-68.02c-.649 0-1.216-.088-1.603-.217a1.32 1.32 0 0 1-.382-.181l-.005-.004V71.759a1.32 1.32 0 0 1 .387-.185c.387-.129.954-.217 1.603-.217zm70.037.428l-.002-.003.002.003zm0 15.144l-.002.004.002-.004zm-72.054 0l.002.004-.002-.004zm0-15.144l.002-.003a.012.012 0 0 1-.002.003zm2.017 22.572h68.02c.649 0 1.216.088 1.603.217a1.32 1.32 0 0 1 .387.185v15.196l-.005.004a1.34 1.34 0 0 1-.382.181c-.387.129-.954.217-1.603.217h-68.02c-.649 0-1.216-.088-1.603-.217a1.34 1.34 0 0 1-.382-.181l-.005-.004V94.759a1.32 1.32 0 0 1 .387-.185c.387-.129.954-.217 1.603-.217zm70.037.428l-.002-.003.002.003zm0 15.144l-.002.003.002-.003zm-72.054 0l.002.003-.002-.003zm0-15.144l.002-.003a.012.012 0 0 1-.002.003zm-79.983-.428h68.02c.649 0 1.216.088 1.603.217a1.32 1.32 0 0 1 .387.185v15.196l-.005.004a1.34 1.34 0 0 1-.382.181c-.387.129-.954.217-1.603.217h-68.02c-.649 0-1.216-.088-1.603-.217a1.34 1.34 0 0 1-.382-.181l-.005-.004V94.759a1.32 1.32 0 0 1 .387-.185c.387-.129.954-.217 1.603-.217zm70.037.428l-.002-.003.002.003zm0 15.144l-.002.003.002-.003zm-72.054 0l.002.003-.002-.003zm0-15.144l.002-.003a.012.012 0 0 1-.002.003zm-79.983-.428h68.02c.649 0 1.216.088 1.603.217a1.32 1.32 0 0 1 .387.185v15.196l-.005.004a1.34 1.34 0 0 1-.382.181c-.387.129-.954.217-1.603.217h-68.02c-.649 0-1.216-.088-1.603-.217a1.34 1.34 0 0 1-.382-.181l-.005-.004V94.759a1.32 1.32 0 0 1 .387-.185c.387-.129.954-.217 1.603-.217zm70.037.428l-.002-.003.002.003zm0 15.144l-.002.003a.012.012 0 0 1 .002-.003zm-72.054 0l.002.003-.002-.003zm0-15.144l.002-.003a.012.012 0 0 1-.002.003zm2.017 23.572h68.02c.649 0 1.216.088 1.603.217.196.065.319.132.382.182l.005.003v15.196l-.005.004a1.34 1.34 0 0 1-.382.181c-.387.129-.954.217-1.603.217h-68.02c-.649 0-1.216-.088-1.603-.217a1.34 1.34 0 0 1-.382-.181l-.005-.004v-15.196l.005-.003c.063-.05.186-.117.382-.182.387-.129.954-.217 1.603-.217zm70.037.428l-.002-.003.002.003zm0 15.144l-.002.003.002-.003zm-72.054 0l.002.003-.002-.003zm0-15.144l.002-.003a.012.012 0 0 1-.002.003zm84.017-.428h68.02c.649 0 1.216.088 1.603.217.196.065.319.132.382.182l.005.003v15.196l-.005.004a1.34 1.34 0 0 1-.382.181c-.387.129-.954.217-1.603.217h-68.02c-.649 0-1.216-.088-1.603-.217a1.34 1.34 0 0 1-.382-.181l-.005-.004v-15.196l.005-.003c.063-.05.186-.117.382-.182.387-.129.954-.217 1.603-.217zm70.037.428l-.002-.003.002.003zm0 15.144l-.002.003.002-.003zm-72.054 0l.002.003-.002-.003zm0-15.144l.002-.003a.012.012 0 0 1-.002.003zm84.017-.428h68.02c.649 0 1.216.088 1.603.217.196.065.319.132.382.182l.005.003v15.196l-.005.004a1.34 1.34 0 0 1-.382.181c-.387.129-.954.217-1.603.217h-68.02c-.649 0-1.216-.088-1.603-.217a1.34 1.34 0 0 1-.382-.181l-.005-.004v-15.196l.005-.003c.063-.05.186-.117.382-.182.387-.129.954-.217 1.603-.217zm70.037.428l-.002-.003.002.003zm0 15.144l-.002.003.002-.003zm-72.054 0l.002.003-.002-.003zm0-15.144l.002-.003a.012.012 0 0 1-.002.003z" fill="#fff" stroke="#2F9EEE"/><path d="M470.777 82.276h-47.029A2.727 2.727 0 0 1 421 79.572a2.728 2.728 0 0 1 2.715-2.715h47.062a2.727 2.727 0 0 1 2.726 2.715 2.725 2.725 0 0 1-2.726 2.704z" fill="#F1E6F7"/><path d="M411.578 61.857V56.17h1.949c.644 0 1.133.129 1.469.386.336.258.504.642.504 1.153 0 .26-.07.494-.211.703-.141.208-.346.37-.617.484.307.084.544.241.711.473.169.23.254.505.254.828 0 .534-.172.944-.516 1.23-.341.287-.831.43-1.469.43h-2.074zm.988-2.566v1.777h1.098c.31 0 .552-.077.727-.23.174-.154.261-.367.261-.641 0-.591-.302-.893-.906-.906h-1.18zm0-.727h.969c.307 0 .547-.069.719-.207.174-.14.262-.338.262-.594 0-.28-.081-.484-.243-.609-.158-.125-.407-.187-.746-.187h-.961v1.597zm4.989.41h.929c.347 0 .649.06.907.18.257.12.453.288.586.504.135.216.203.467.203.754 0 .435-.154.784-.461 1.047-.308.263-.716.396-1.227.398h-1.887v-4.226h.95v1.343zm4.277 2.883h-.949v-4.226h.949v4.226zm-4.277-2.12v1.362h.925c.232 0 .415-.057.547-.171.136-.118.203-.283.203-.497 0-.213-.066-.381-.199-.503-.13-.125-.307-.19-.531-.192h-.945zm7.406-1.872c.531 0 .957.178 1.277.535.321.354.481.836.481 1.446v.046c0 .61-.175 1.103-.524 1.48-.346.378-.817.567-1.414.567-.58 0-1.049-.193-1.406-.578-.357-.385-.535-.911-.535-1.578v-.273c0-.912.161-1.633.484-2.164.323-.532.805-.864 1.446-.997.359-.073.591-.15.695-.23a.403.403 0 0 0 .16-.336h.766c0 .263-.043.477-.129.64a1.01 1.01 0 0 1-.395.403c-.177.102-.482.198-.914.289-.396.083-.698.232-.906.445-.206.214-.344.51-.414.887.377-.388.82-.582 1.328-.582zm-.188.762c-.307 0-.548.104-.722.312-.175.206-.262.524-.262.953 0 .407.086.723.258.95.172.226.417.34.734.34.315 0 .559-.114.731-.34.174-.23.261-.573.261-1.032 0-.364-.087-.652-.261-.863-.172-.214-.418-.32-.739-.32zm4.551 3.308c-.601 0-1.09-.189-1.465-.566-.372-.38-.558-.886-.558-1.516v-.117c0-.422.081-.798.242-1.129a1.87 1.87 0 0 1 .687-.777c.295-.185.623-.277.985-.277.575 0 1.019.183 1.332.55.315.367.473.887.473 1.559v.383h-2.762c.028.349.144.625.347.828.206.203.464.305.774.305.435 0 .789-.176 1.062-.528l.512.488a1.72 1.72 0 0 1-.68.59 2.123 2.123 0 0 1-.949.207zm-.113-3.62a.807.807 0 0 0-.633.273c-.159.182-.26.436-.305.761h1.809v-.07c-.021-.318-.105-.557-.254-.719-.148-.164-.354-.246-.617-.246zm6.25 1.472c0 .654-.149 1.176-.445 1.566-.297.388-.696.582-1.196.582-.463 0-.834-.152-1.113-.457v2.004h-.949v-5.851h.875l.039.43c.279-.34.657-.508 1.137-.508.515 0 .919.192 1.211.578.294.382.441.915.441 1.597v.059zm-.945-.082c0-.422-.085-.757-.254-1.004a.816.816 0 0 0-.719-.371c-.388 0-.667.16-.836.48v1.875c.172.328.453.492.844.492a.814.814 0 0 0 .707-.363c.172-.245.258-.614.258-1.11zm4.39-2.074h.946v4.226h-.946v-2.82l-1.656 2.82h-.945v-4.226h.945v2.82l1.656-2.82zm5.282.754h-1.372v3.472h-.949v-3.472h-1.355v-.754h3.676v.754zm2.246 3.55c-.602 0-1.09-.189-1.465-.566-.373-.38-.559-.886-.559-1.516v-.117c0-.422.081-.798.242-1.129.164-.333.394-.592.688-.777a1.81 1.81 0 0 1 .984-.277c.576 0 1.02.183 1.332.55.315.367.473.887.473 1.559v.383h-2.762c.029.349.145.625.348.828.206.203.463.305.773.305.435 0 .789-.176 1.063-.528l.511.488c-.169.253-.395.45-.679.59a2.126 2.126 0 0 1-.949.207zm-.114-3.62a.804.804 0 0 0-.632.273c-.159.182-.261.436-.305.761h1.808v-.07c-.02-.318-.105-.557-.253-.719-.149-.164-.355-.246-.618-.246zm8.125 3.542h-.949v-3.46h-1.648v3.46h-.95v-4.226h3.547v4.226zm.832-2.152c0-.414.082-.787.246-1.117.165-.334.395-.589.692-.766.297-.18.638-.27 1.023-.27.571 0 1.033.184 1.387.551.357.367.549.854.578 1.461l.004.223c0 .416-.081.789-.242 1.117a1.759 1.759 0 0 1-.688.762c-.297.18-.64.27-1.031.27-.596 0-1.074-.199-1.434-.594-.356-.399-.535-.929-.535-1.59v-.047zm.95.082c0 .435.089.776.269 1.023.18.245.43.367.75.367s.569-.124.746-.374c.18-.25.27-.616.27-1.098 0-.427-.093-.766-.278-1.016a.874.874 0 0 0-.746-.375.869.869 0 0 0-.738.371c-.182.245-.273.612-.273 1.102zm3.519 1.312c.263-.294.439-.573.527-.836.092-.265.146-.604.165-1.015l.054-1.617h2.934v3.468h.586v2.016h-.946v-1.258h-2.711v1.258h-.96l.003-2.016h.348zm1.113 0h1.621v-2.652h-1.066l-.027.809c-.037.776-.213 1.39-.528 1.843zm5.348-2.078l.805-1.39h1.054l-1.293 2.082 1.336 2.144h-1.047l-.843-1.445-.84 1.445h-1.055l1.336-2.144-1.289-2.082h1.047l.789 1.39zm2.172.684c0-.414.082-.787.246-1.117.164-.334.395-.589.691-.766.297-.18.638-.27 1.024-.27.57 0 1.032.184 1.387.551.356.367.549.854.578 1.461l.004.223c0 .416-.081.789-.243 1.117a1.756 1.756 0 0 1-.687.762 1.95 1.95 0 0 1-1.031.27c-.597 0-1.075-.199-1.434-.594-.357-.399-.535-.929-.535-1.59v-.047zm.949.082c0 .435.09.776.27 1.023.179.245.429.367.75.367.32 0 .569-.124.746-.374.179-.25.269-.616.269-1.098 0-.427-.092-.766-.277-1.016a.874.874 0 0 0-.746-.375.869.869 0 0 0-.738.371c-.183.245-.274.612-.274 1.102zm3.52 1.312c.263-.294.438-.573.527-.836.091-.265.146-.604.164-1.015l.055-1.617h2.933v3.468h.586v2.016h-.945v-1.258h-2.711v1.258h-.961l.004-2.016h.348zm1.113 0h1.621v-2.652h-1.066l-.028.809c-.036.776-.212 1.39-.527 1.843zm7.215-3.468v4.226h-.946v-1.55h-.886l-.903 1.55h-.984l.996-1.707a1.336 1.336 0 0 1-.601-.469 1.215 1.215 0 0 1-.207-.699c0-.393.151-.715.453-.965.304-.252.714-.381 1.23-.386h1.848zm-2.582 1.375c0 .177.065.321.195.433a.77.77 0 0 0 .508.164h.933v-1.218h-.875c-.231 0-.416.058-.554.175a.559.559 0 0 0-.207.446zm4.59-1.375v3.468h1.32v-3.468h.949v3.468h1.324v-3.468h.946v3.468h.722l-.078 2.012h-.863v-1.254h-5.27v-4.226h.95zm8.605 0h.945v4.226h-.945v-2.82l-1.656 2.82h-.945v-4.226h.945v2.82l1.656-2.82zm4.594 0h.945v4.226h-.945v-2.82l-1.656 2.82h-.946v-4.226h.946v2.82l1.656-2.82zm.445-1.621c0 .328-.114.593-.344.796-.229.204-.535.305-.918.305-.382 0-.688-.101-.918-.305a1.014 1.014 0 0 1-.343-.796h.711c0 .171.048.306.144.402.099.094.235.14.406.14a.555.555 0 0 0 .403-.14c.096-.096.144-.23.144-.402h.715zm5.004 4.175h-.48v1.672h-.95v-4.226h.95v1.687h.418l1.168-1.687h1.171l-1.527 2.023 1.656 2.203h-1.234l-1.172-1.672zm4.406.313l.86-2.867h1.011l-1.679 4.867c-.258.71-.696 1.066-1.313 1.066-.138 0-.29-.023-.457-.07v-.734l.18.011c.239 0 .419-.044.539-.133.122-.085.219-.231.289-.437l.137-.363-1.485-4.207h1.024l.894 2.867zm6.121-.711c0 .654-.148 1.176-.445 1.566-.297.388-.695.582-1.195.582-.464 0-.835-.152-1.114-.457v2.004h-.949v-5.851h.875l.039.43c.279-.34.658-.508 1.137-.508.516 0 .919.192 1.211.578.294.382.441.915.441 1.597v.059zm-.945-.082c0-.422-.085-.757-.254-1.004a.815.815 0 0 0-.719-.371c-.388 0-.666.16-.836.48v1.875c.172.328.454.492.844.492a.814.814 0 0 0 .707-.363c.172-.245.258-.614.258-1.11zm3.488 1.473a.858.858 0 0 0 .59-.207.707.707 0 0 0 .25-.512h.895a1.414 1.414 0 0 1-.246.738 1.623 1.623 0 0 1-.625.54 1.873 1.873 0 0 1-.852.198c-.591 0-1.06-.191-1.406-.574-.347-.383-.52-.911-.52-1.586v-.097c0-.644.172-1.158.516-1.543.344-.389.812-.582 1.406-.582.503 0 .912.147 1.227.44.317.293.484.677.5 1.153h-.895a.864.864 0 0 0-.25-.597.79.79 0 0 0-.59-.235c-.307 0-.544.112-.711.336-.166.221-.251.559-.253 1.012v.152c0 .459.082.801.246 1.028.166.224.406.336.718.336z" fill="#000"/><path d="M552.777 82.276h-47.029A2.727 2.727 0 0 1 503 79.572a2.728 2.728 0 0 1 2.715-2.715h47.062a2.727 2.727 0 0 1 2.726 2.715 2.725 2.725 0 0 1-2.726 2.704zm82 0h-47.029A2.727 2.727 0 0 1 585 79.572a2.728 2.728 0 0 1 2.715-2.715h47.062a2.727 2.727 0 0 1 2.726 2.715 2.725 2.725 0 0 1-2.726 2.704zm0 22h-47.029a2.731 2.731 0 0 1-1.934-.783 2.73 2.73 0 0 1-.814-1.921 2.728 2.728 0 0 1 2.715-2.715h47.062a2.727 2.727 0 0 1 2.726 2.715 2.724 2.724 0 0 1-2.726 2.704zm-164 25h-47.029a2.731 2.731 0 0 1-1.934-.783 2.73 2.73 0 0 1-.814-1.921 2.73 2.73 0 0 1 .798-1.917 2.73 2.73 0 0 1 1.917-.798h47.062a2.727 2.727 0 0 1 2.726 2.715 2.724 2.724 0 0 1-2.726 2.704zm-1-25h-47.029a2.731 2.731 0 0 1-1.934-.783 2.73 2.73 0 0 1-.814-1.921 2.728 2.728 0 0 1 2.715-2.715h47.062a2.727 2.727 0 0 1 2.726 2.715 2.724 2.724 0 0 1-2.726 2.704zm83 0h-47.029a2.731 2.731 0 0 1-1.934-.783 2.73 2.73 0 0 1-.814-1.921 2.728 2.728 0 0 1 2.715-2.715h47.062a2.727 2.727 0 0 1 2.726 2.715 2.724 2.724 0 0 1-2.726 2.704zm0 25h-47.029a2.731 2.731 0 0 1-1.934-.783 2.73 2.73 0 0 1-.814-1.921 2.73 2.73 0 0 1 .798-1.917 2.73 2.73 0 0 1 1.917-.798h47.062a2.727 2.727 0 0 1 2.726 2.715 2.724 2.724 0 0 1-2.726 2.704zm82 0h-47.029a2.731 2.731 0 0 1-1.934-.783 2.73 2.73 0 0 1-.814-1.921 2.73 2.73 0 0 1 .798-1.917 2.73 2.73 0 0 1 1.917-.798h47.062a2.727 2.727 0 0 1 2.726 2.715 2.724 2.724 0 0 1-2.726 2.704z" fill="#F1E6F7"/><path d="M485.346 148.858h-98.994a3.285 3.285 0 0 0-3.096 2.022 3.302 3.302 0 0 0-.256 1.275v19.344a3.297 3.297 0 0 0 3.352 3.297h9.221v8.694l8.694-8.694h81.112a3.347 3.347 0 0 0 2.358-.959 3.347 3.347 0 0 0 1.005-2.338v-19.344a3.354 3.354 0 0 0-3.396-3.297z" fill="#2F9EEE"/><path d="M411.211 219.522H524.66v44.335c0 5.523-4.477 10-10 10h-93.449c-5.522 0-10-4.477-10-10v-44.335z" fill="#fff"/><path d="M447 252.857a5 5 0 0 1 5-5h63.223a5 5 0 0 1 5 5v10.193a5 5 0 0 1-5 5H452a5 5 0 0 1-5-5v-10.193z" fill="#0094FF"/><g clip-path="url(#clip0)" stroke="#fff" stroke-linecap="round" stroke-linejoin="round"><path d="M505.076 257.953h8.815m-1.959-2.524l2.449 2.524-2.449 2.525"/></g><path d="M416.347 252.591c.27-.455.76-.734 1.289-.734h21.713a1.5 1.5 0 1 1 0 3h-21.713a1.5 1.5 0 0 1-1.289-2.266zm0 9c.27-.455.76-.734 1.289-.734h21.713a1.5 1.5 0 1 1 0 3h-21.713a1.5 1.5 0 0 1-1.289-2.266z" fill="#89C3E2"/><path d="M450 229.857a5 5 0 0 1 5-5h23a5 5 0 0 1 5 5v2.62a5 5 0 0 1-5 5h-23a5 5 0 0 1-5-5v-2.62z" fill="#FDEFF1"/><path d="M456.977 230.451a1.499 1.499 0 0 1 1.362-.871h16.268a1.5 1.5 0 1 1 0 3h-16.268a1.5 1.5 0 0 1-1.362-2.129z" fill="#89C3E2"/><path d="M456.909 256.798c.283-.3.677-.469 1.089-.469h36.005c1.32 0 1.996 1.583 1.084 2.537a1.5 1.5 0 0 1-1.084.463h-36.005c-1.316 0-1.994-1.575-1.089-2.531z" fill="#fff"/><path d="M415.179 229.857a5 5 0 0 1 5-5h18.619a5 5 0 0 1 5 5v2.62a5 5 0 0 1-5 5h-18.619a5 5 0 0 1-5-5v-2.62z" fill="#FDEFF1"/><path d="M419.976 230.451a1.501 1.501 0 0 1 1.362-.871h16.269a1.5 1.5 0 1 1 0 3h-16.269a1.5 1.5 0 0 1-1.362-2.129z" fill="#89C3E2"/><path d="M486.576 230.134a5 5 0 0 1 5-5h23.674a5 5 0 0 1 5 5v2.621a5 5 0 0 1-5 5h-23.674a5 5 0 0 1-5-5v-2.621z" fill="#E1DFEF"/><path d="M491.347 230.591a1.5 1.5 0 0 1 1.29-.734h21.712a1.5 1.5 0 1 1 0 3h-21.712a1.5 1.5 0 0 1-1.29-2.266z" fill="#89C3E2"/><path d="M411.211 199.858c0-5.523 4.478-10 10-10h56.167c5.523 0 10 4.477 10 10v19.784h-76.167v-19.784zm77.771-.001c0-5.523 4.477-10 10-10h15.737c5.523 0 10 4.477 10 10v19.784h-35.737v-19.784z" fill="#E1DFEF"/><path d="M494.347 207.591c.27-.455.76-.734 1.289-.734h21.713a1.5 1.5 0 1 1 0 3h-21.713a1.5 1.5 0 0 1-1.289-2.266zm-52-4c.27-.455.76-.734 1.289-.734h21.713a1.5 1.5 0 1 1 0 3h-21.713a1.5 1.5 0 0 1-1.289-2.266zM415 199.857a5 5 0 0 1 5-5h13.415a5 5 0 0 1 5 5v11a5 5 0 0 1-5 5H420a5 5 0 0 1-5-5v-11z" fill="#89C3E2"/><path d="M478.207 207.429a3.364 3.364 0 1 0 0-6.729 3.364 3.364 0 0 0 0 6.729zm0 .842a4.207 4.207 0 1 1 0-8.414 4.207 4.207 0 0 1 0 8.414zm-.421-4.628v2.524h.841v-2.524h-.841zm0-1.682h.841v.841h-.841v-.841z" fill="#000" fill-opacity=".2"/><path d="M409.334 159.101h-15.189a1.682 1.682 0 0 1 0-3.352h15.189a1.681 1.681 0 0 1 0 3.352zm16.86 6.287a1.683 1.683 0 0 0-.493-1.185 1.68 1.68 0 0 0-1.189-.486h-30.367a1.685 1.685 0 0 0-1.101 2.816c.287.311.68.502 1.101.536h30.367a1.668 1.668 0 0 0 1.682-1.681zm16.486 0a1.683 1.683 0 0 0-.493-1.185 1.67 1.67 0 0 0-1.189-.486h-8.792a1.685 1.685 0 0 0-1.101 2.816c.287.311.68.502 1.101.536h8.792a1.674 1.674 0 0 0 1.2-.485 1.681 1.681 0 0 0 .493-1.196h-.011zm23.18 0c0-.443-.176-.868-.49-1.181a1.667 1.667 0 0 0-1.181-.49h-15.508a1.682 1.682 0 0 0 0 3.352H464.2a1.665 1.665 0 0 0 1.586-1.028c.087-.207.13-.429.129-.653h-.055zm13.189 0a1.671 1.671 0 0 0-1.671-1.671h-6.518a1.675 1.675 0 0 0-1.276.44 1.694 1.694 0 0 0-.541 1.236 1.684 1.684 0 0 0 1.133 1.59c.22.076.453.105.684.086h6.507a1.668 1.668 0 0 0 1.671-1.681h.011zm-23.829-7.958a1.682 1.682 0 0 0-1.681-1.681h-34.885a1.692 1.692 0 0 0-1.276.44 1.666 1.666 0 0 0-.541 1.236 1.688 1.688 0 0 0 .541 1.236 1.687 1.687 0 0 0 1.276.44h34.929a1.682 1.682 0 0 0 1.626-1.671h.011zm23.829 0a1.683 1.683 0 0 0-.486-1.188 1.681 1.681 0 0 0-1.185-.493h-16.036a1.692 1.692 0 0 0-1.276.44 1.68 1.68 0 0 0 .592 2.826c.22.075.453.105.684.086h16.025a1.67 1.67 0 0 0 1.671-1.671h.011z" fill="#fff"/><path d="M512.499 286.662h-64.846a3.75 3.75 0 0 0-3.463 2.313 3.756 3.756 0 0 0-.285 1.435v34.489a3.755 3.755 0 0 0 1.098 2.65 3.739 3.739 0 0 0 2.65 1.097h9.023v9.705l9.716-9.705h46.063a3.746 3.746 0 0 0 3.747-3.747V290.41a3.74 3.74 0 0 0-1.082-2.635 3.742 3.742 0 0 0-2.621-1.113z" fill="#BAB7F6"/><path d="M503.86 307.313a4.583 4.583 0 1 1-9.166-.021 4.583 4.583 0 0 1 9.166.021zm-22.168-4.594a4.598 4.598 0 0 0-4.518 5.484 4.59 4.59 0 0 0 3.606 3.616 4.599 4.599 0 0 0 4.72-1.952 4.597 4.597 0 0 0-.567-5.798 4.596 4.596 0 0 0-3.241-1.35zm-17.586 0a4.599 4.599 0 0 0-4.252 2.829 4.597 4.597 0 0 0 3.341 6.271 4.599 4.599 0 0 0 4.72-1.952 4.597 4.597 0 0 0-.567-5.798 4.596 4.596 0 0 0-3.242-1.35z" fill="#A39EE9"/><path d="M388.435 90.608a2.868 2.868 0 1 1-5.737-.022 2.868 2.868 0 0 1 5.737.022z" fill="#97ABFF"/><path d="M329.59 112.238H195.898c-5.524 0-10.002 4.478-10.002 10.001v208.089c0 5.524 4.478 10.002 10.002 10.002H329.59c5.524 0 10.002-4.478 10.002-10.002V122.239c0-5.523-4.478-10.001-10.002-10.001z" fill="#fff"/><path d="M302.597 149.991h-36.204a1.1 1.1 0 0 1 0-2.198h36.204a1.1 1.1 0 0 1 0 2.198zm-13.827 6.155a1.098 1.098 0 0 0-1.099-1.099h-21.278a1.1 1.1 0 0 0 0 2.198h21.278a1.098 1.098 0 0 0 1.099-1.099zm16.651 7.243a1.098 1.098 0 0 0-1.099-1.099h-37.929a1.1 1.1 0 0 0 0 2.198h37.962a1.098 1.098 0 0 0 1.099-1.099h-.033zm-33.588 7.254a1.097 1.097 0 0 0-1.099-1.099h-4.396a1.1 1.1 0 0 0 0 2.198h4.396a1.112 1.112 0 0 0 .799-.31 1.106 1.106 0 0 0 .333-.789h-.033zm24.037-14.497a1.098 1.098 0 0 0-1.099-1.099h-2.66a1.1 1.1 0 0 0 0 2.198h2.66a1.112 1.112 0 0 0 .799-.31 1.11 1.11 0 0 0 .333-.789h-.033zm22.037 0a1.098 1.098 0 0 0-1.099-1.099h-17.355a1.1 1.1 0 0 0 0 2.198h17.388a1.1 1.1 0 0 0 1.099-1.099h-.033zm0-7.254a1.1 1.1 0 0 0-1.099-1.099h-9.683a1.098 1.098 0 1 0 0 2.198h9.716a1.1 1.1 0 0 0 1.099-1.099h-.033zm-37.369 21.751a1.098 1.098 0 0 0-1.099-1.099h-4.396a1.098 1.098 0 1 0 0 2.198h4.396a1.1 1.1 0 0 0 1.187-1.099h-.088z" fill="#BAB7F6"/><path d="M262.316 322.953c10.246 0 18.552-8.306 18.552-18.552 0-10.247-8.306-18.553-18.552-18.553-10.247 0-18.553 8.306-18.553 18.553 0 10.246 8.306 18.552 18.553 18.552z" fill="#EC5271"/><path d="M255.689 304.462a18.579 18.579 0 0 1-2.884-8.104 1.87 1.87 0 0 1 .484-1.435 1.878 1.878 0 0 1 1.386-.612h2.818a1.882 1.882 0 0 1 1.879 1.615 12 12 0 0 0 .658 2.639 1.878 1.878 0 0 1-.423 1.981l-1.193 1.193m2.433 3.192a15.046 15.046 0 0 0 3.203 2.442l1.194-1.193a1.878 1.878 0 0 1 1.982-.423c.852.318 1.738.539 2.64.658a1.877 1.877 0 0 1 1.616 1.878v2.817a1.88 1.88 0 0 1-2.048 1.878 18.606 18.606 0 0 1-8.108-2.883 18.202 18.202 0 0 1-3.128-2.507l2.649-2.667zm11.734-11.719l-20.883 20.883" stroke="#fff" stroke-width="2" stroke-linecap="round" stroke-linejoin="round"/><path d="M649 171.857H541a5 5 0 0 0-5 5v149a5 5 0 0 0 5 5h108a5 5 0 0 0 5-5v-149a5 5 0 0 0-5-5z" fill="#FDEFF1"/><circle cx="632.216" cy="198.641" r="14.216" fill="#ECF2FD"/><path d="M647 198.641c0-8.165-6.365-14.784-14.216-14.784" stroke="#0094FF" stroke-width="2"/><path d="M629.12 201.524h-3.26v-.455l1.722-1.914c.255-.289.431-.524.527-.704.098-.182.147-.37.147-.564a.893.893 0 0 0-.236-.639c-.158-.166-.367-.25-.629-.25-.315 0-.56.09-.735.27-.173.178-.26.427-.26.746h-.632c0-.458.147-.829.441-1.111.296-.283.691-.424 1.186-.424.462 0 .828.122 1.097.366.269.241.403.564.403.967 0 .49-.312 1.073-.936 1.75l-1.333 1.446h2.498v.516zm.862.427h-.544l2.078-5.404h.54l-2.074 5.404zm3.612-3.223h.475c.299-.005.534-.083.705-.236.17-.153.256-.359.256-.619 0-.583-.291-.875-.872-.875-.273 0-.492.079-.656.236-.162.155-.243.361-.243.619h-.632c0-.394.144-.721.431-.981.289-.262.656-.393 1.1-.393.47 0 .838.124 1.104.372.267.249.4.594.4 1.036 0 .217-.07.426-.212.629a1.263 1.263 0 0 1-.57.455c.273.086.484.23.632.43.15.201.225.446.225.735 0 .447-.145.801-.437 1.063-.292.262-.671.393-1.138.393-.467 0-.848-.126-1.142-.379-.292-.253-.437-.587-.437-1.002h.635c0 .262.086.472.257.629.171.157.4.236.687.236.305 0 .539-.08.7-.239.162-.16.243-.389.243-.687 0-.29-.089-.512-.266-.667-.178-.155-.435-.234-.77-.239h-.475v-.516zm6.132.673c0 .741-.126 1.291-.379 1.651-.253.36-.648.54-1.186.54-.531 0-.924-.175-1.179-.526-.256-.353-.388-.88-.397-1.579v-.845c0-.731.127-1.274.379-1.63.253-.355.65-.533 1.19-.533.535 0 .93.172 1.183.516.252.342.382.87.389 1.586v.82zm-.632-.864c0-.536-.075-.926-.226-1.169-.15-.246-.388-.37-.714-.37-.324 0-.559.122-.708.366-.148.244-.224.619-.229 1.125v1.011c0 .538.078.936.233 1.193.157.255.394.383.711.383.312 0 .543-.121.694-.362.152-.242.232-.622.239-1.142v-1.035z" fill="#000" fill-opacity=".6"/><path d="M541.578 186.857v-5.687h1.949c.644 0 1.133.129 1.469.386.336.258.504.642.504 1.153 0 .26-.07.495-.211.703-.141.208-.346.37-.617.484.307.084.544.241.711.473.169.229.254.505.254.828 0 .534-.172.944-.516 1.23-.341.287-.831.43-1.469.43h-2.074zm.988-2.566v1.777h1.098c.31 0 .552-.077.727-.23.174-.154.261-.368.261-.641 0-.591-.302-.893-.906-.906h-1.18zm0-.727h.969c.307 0 .547-.069.719-.207.174-.14.262-.338.262-.594 0-.281-.081-.484-.243-.609-.158-.125-.407-.187-.746-.187h-.961v1.597zm6.493 3.293a1.44 1.44 0 0 1-.11-.394 1.477 1.477 0 0 1-1.109.472c-.425 0-.771-.121-1.039-.363a1.164 1.164 0 0 1-.403-.898c0-.451.167-.796.5-1.036.336-.242.816-.363 1.438-.363h.582v-.277c0-.219-.061-.393-.184-.524-.122-.132-.308-.199-.558-.199a.831.831 0 0 0-.531.164.497.497 0 0 0-.207.41h-.95c0-.231.077-.448.231-.648.153-.203.362-.362.625-.477.265-.114.561-.172.886-.172.495 0 .89.125 1.184.375.294.248.445.597.453 1.047v1.907c0 .38.054.683.16.91v.066h-.968zm-1.043-.683c.187 0 .363-.046.527-.137a.91.91 0 0 0 .375-.367v-.797h-.512c-.351 0-.616.061-.793.183a.596.596 0 0 0-.265.52c0 .182.06.328.179.437a.717.717 0 0 0 .489.161zm3.832-3.543v3.468h1.32v-3.468h.949v3.468h1.324v-3.468h.946v4.226h-5.489v-4.226h.95zm9.039 2.867l.859-2.867h1.012l-1.68 4.867c-.258.711-.695 1.066-1.312 1.066a1.69 1.69 0 0 1-.457-.07v-.734l.179.011c.24 0 .42-.044.539-.133.123-.086.219-.231.289-.437l.137-.363-1.484-4.207h1.023l.895 2.867zm5.808 1.359h-.949v-1.41a3.404 3.404 0 0 1-.773.086c-.578 0-1.02-.138-1.325-.414-.304-.279-.457-.677-.457-1.195v-1.297h.95v1.297c0 .307.067.524.203.652.138.128.347.191.629.191.255 0 .513-.03.773-.09v-2.046h.949v4.226zm2.871.078c-.601 0-1.089-.188-1.464-.566-.373-.38-.559-.886-.559-1.516v-.117c0-.422.081-.798.242-1.129.164-.333.393-.592.688-.777a1.81 1.81 0 0 1 .984-.278c.576 0 1.02.184 1.332.551.315.367.473.887.473 1.559v.383H568.5c.029.349.145.625.348.828.205.203.463.304.773.304.435 0 .789-.175 1.063-.527l.511.488c-.169.253-.396.45-.679.59a2.13 2.13 0 0 1-.95.207zm-.113-3.621a.805.805 0 0 0-.633.274c-.159.182-.26.436-.304.761h1.808v-.07c-.021-.318-.105-.557-.254-.719-.148-.164-.354-.246-.617-.246zm4.539-.449c.531 0 .957.178 1.278.535.32.354.48.836.48 1.445v.047c0 .61-.174 1.103-.523 1.481-.347.377-.818.566-1.415.566-.58 0-1.049-.192-1.406-.578-.357-.385-.535-.911-.535-1.578v-.273c0-.912.162-1.633.484-2.165.323-.531.805-.863 1.446-.996.359-.073.591-.149.695-.23a.403.403 0 0 0 .16-.336h.766c0 .263-.043.477-.129.641a1.003 1.003 0 0 1-.395.402c-.177.101-.481.198-.914.289-.395.083-.698.232-.906.445-.206.214-.344.509-.414.887.378-.388.82-.582 1.328-.582zm-.187.762c-.308 0-.548.104-.723.312-.174.206-.262.524-.262.953 0 .407.086.723.258.95.172.226.417.339.734.339.316 0 .559-.113.731-.339.174-.23.262-.573.262-1.032 0-.364-.088-.652-.262-.863-.172-.214-.418-.32-.738-.32zm6.199 3.23h-.949v-1.707h-1.645v1.707h-.949v-4.226h.949v1.761h1.645v-1.761h.949v4.226zm2.035-2.883h.93c.346 0 .648.06.906.18s.453.288.586.504c.135.216.203.467.203.754 0 .435-.154.784-.461 1.047-.307.263-.716.396-1.226.398h-1.887v-4.226h.949v1.343zm4.277 2.883h-.949v-4.226h.949v4.226zm-4.277-2.121v1.363h.926c.232 0 .414-.057.547-.172.135-.117.203-.282.203-.496a.656.656 0 0 0-.199-.504c-.131-.125-.308-.188-.532-.191h-.945zm8.055-2.105h.945v4.226h-.945v-2.82l-1.656 2.82h-.946v-4.226h.946v2.82l1.656-2.82zm.445-1.621c0 .328-.115.593-.344.796-.229.204-.535.305-.918.305-.382 0-.688-.101-.918-.305a1.012 1.012 0 0 1-.343-.796h.711c0 .171.048.306.144.402.099.094.234.14.406.14.172 0 .306-.046.403-.14a.545.545 0 0 0 .144-.402h.715zm7.086 5.847h-.949v-3.461h-1.649v3.461h-.949v-4.226h3.547v4.226zm4.602-4.226v4.226h-.95v-3.461h-1.195l-.078 1.473c-.05.708-.186 1.217-.41 1.527-.222.308-.561.461-1.02.461h-.293l-.004-.789.196-.019c.208-.029.359-.155.453-.379.096-.227.157-.638.183-1.235l.079-1.804h3.039zm3.535 4.226a1.478 1.478 0 0 1-.11-.394 1.477 1.477 0 0 1-1.109.472c-.425 0-.771-.121-1.039-.363a1.163 1.163 0 0 1-.402-.898c0-.451.166-.796.5-1.036.336-.242.815-.363 1.437-.363h.582v-.277c0-.219-.061-.393-.183-.524-.123-.132-.309-.199-.559-.199a.831.831 0 0 0-.531.164.497.497 0 0 0-.207.41h-.95c0-.231.077-.448.231-.648.154-.203.362-.362.625-.477.265-.114.561-.172.887-.172.494 0 .889.125 1.183.375.294.248.445.597.453 1.047v1.907c0 .38.054.683.16.91v.066h-.968zm-1.043-.683c.187 0 .363-.046.527-.137a.91.91 0 0 0 .375-.367v-.797h-.512c-.351 0-.616.061-.793.183a.596.596 0 0 0-.265.52c0 .182.06.328.179.437a.719.719 0 0 0 .489.161zm6.426.683h-.95v-1.707h-1.644v1.707h-.949v-4.226h.949v1.761h1.644v-1.761h.95v4.226z" fill="#000"/><path d="M580.479 197.055h-38.38a1.096 1.096 0 0 1-1.099-1.099 1.1 1.1 0 0 1 1.099-1.099h38.38a1.1 1.1 0 0 1 0 2.198zm18.896 8.802h-56.75c-.431 0-.844-.105-1.149-.293-.305-.187-.476-.442-.476-.707 0-.265.171-.519.476-.707.305-.187.718-.293 1.149-.293h56.75c.431 0 .844.106 1.149.293.305.188.476.442.476.707 0 .265-.171.52-.476.707-.305.188-.718.293-1.149.293z" fill="#69ACFF"/><rect x="541" y="217.857" width="30" height="10" rx="3" fill="#EC5271"/><path d="M565.114 223.857h-18.228a.839.839 0 0 1-.627-.293 1.068 1.068 0 0 1-.259-.707c0-.265.093-.519.259-.707a.842.842 0 0 1 .627-.293h18.228c.235 0 .46.106.627.293.166.188.259.442.259.707 0 .265-.093.52-.259.707a.839.839 0 0 1-.627.293z" fill="#fff"/><path d="M602.114 223.857h-18.228a.839.839 0 0 1-.627-.293 1.068 1.068 0 0 1-.259-.707c0-.265.093-.519.259-.707a.842.842 0 0 1 .627-.293h18.228c.235 0 .46.106.627.293.166.188.259.442.259.707 0 .265-.093.52-.259.707a.839.839 0 0 1-.627.293zm37 0h-18.228a.839.839 0 0 1-.627-.293 1.068 1.068 0 0 1-.259-.707c0-.265.093-.519.259-.707a.842.842 0 0 1 .627-.293h18.228c.235 0 .46.106.627.293.166.188.259.442.259.707 0 .265-.093.52-.259.707a.839.839 0 0 1-.627.293z" fill="#69ACFF"/><path d="M377.598 174.819c3.121 3.045 5.265 7.43 7.122 11.859 1.473 3.506 2.836 7.298 2.737 11.277a17.715 17.715 0 0 1-3.616 10.078 21.866 21.866 0 0 1-7.386 6.045c-5.078 2.693-11.068 3.814-15.937.539-3.934-2.66-6.539-7.837-7.99-13.255a34.965 34.965 0 0 1-1.275-10.54 20.465 20.465 0 0 1 4.836-12.75c5.44-6.078 15.321-9.265 21.509-3.253z" fill="#293267"/><path d="M369.278 208.066a3.086 3.086 0 0 0 2.967-3.176c-.088-1.901.242-3.66 3.353-5.089 6.495-3 6.594-27.158-5.353-26.608-11.947.549-10.507 16.838-10.232 21.322.274 4.484 4.275 5.418 5.341 6.99a7.07 7.07 0 0 1 .638 3.451 3.12 3.12 0 0 0 .983 2.261 3.124 3.124 0 0 0 2.314.849h-.011z" fill="#FFA9A7"/><path d="M378.367 191.163a2.326 2.326 0 0 0 1.739 1.812 2.327 2.327 0 0 0 2.865-2.033 2.327 2.327 0 0 0-1.137-2.24 2.326 2.326 0 0 0-1.269-.32 2.497 2.497 0 0 0-1.675.935 2.508 2.508 0 0 0-.523 1.846zm-21.608-.979a2.328 2.328 0 0 0 1.739 1.813 2.332 2.332 0 0 0 2.625-3.32 2.327 2.327 0 0 0-2.166-1.273c-.327.038-.643.14-.93.301a2.513 2.513 0 0 0-1.268 2.479z" fill="#FFA9A7"/><path d="M371.608 188.239a1.186 1.186 0 1 1-.042 2.374 1.186 1.186 0 0 1 .042-2.374zm-8.419 1.011a1.187 1.187 0 1 0 2.363 0 1.187 1.187 0 1 0-2.363 0zm10.914-2.681a.26.26 0 0 1-.187-.088 2.854 2.854 0 0 0-2.869-.649.247.247 0 0 1-.207-.005.256.256 0 0 1-.133-.159.273.273 0 0 1 .165-.352 3.295 3.295 0 0 1 3.429.78.28.28 0 0 1 .062.306.295.295 0 0 1-.062.09.26.26 0 0 1-.198.077zm-10.332-.396a.245.245 0 0 1-.23-.132.257.257 0 0 1-.037-.206.253.253 0 0 1 .045-.097.248.248 0 0 1 .08-.071 3.832 3.832 0 0 1 3.648-.154.262.262 0 0 1 .089.061.258.258 0 0 1 .066.2.233.233 0 0 1-.034.102.268.268 0 0 1-.152.145.264.264 0 0 1-.21-.013 3.299 3.299 0 0 0-3.122.132.348.348 0 0 1-.143.033z" fill="#293267"/><path d="M368.674 193.646a.737.737 0 0 1-.22 0 .987.987 0 0 1-.66-.593 2.017 2.017 0 0 1 0-1.253l.759-3.023a.273.273 0 0 1 .329-.197.247.247 0 0 1 .098.043.27.27 0 0 1 .1.286l-.758 3.023a1.597 1.597 0 0 0-.055.923.447.447 0 0 0 .297.253.167.167 0 0 0 .175 0 .278.278 0 0 1 .341.439.715.715 0 0 1-.406.099zm-.055 2.199a5.129 5.129 0 0 1-3.155-1.099.285.285 0 0 1 0-.385.268.268 0 0 1 .297-.061.268.268 0 0 1 .088.061 4.574 4.574 0 0 0 6.122-.472.242.242 0 0 1 .192-.089.242.242 0 0 1 .192.089.244.244 0 0 1 .062.087.27.27 0 0 1 .022.105.27.27 0 0 1-.022.105.244.244 0 0 1-.062.087 5.165 5.165 0 0 1-3.297 1.594l-.439-.022zm-8.738-4.551a.272.272 0 0 1-.275-.263l-.099-2.012a.257.257 0 0 1 .017-.106.252.252 0 0 1 .056-.091.266.266 0 0 1 .191-.088.259.259 0 0 1 .201.069.26.26 0 0 1 .084.194l.154 1.968a.274.274 0 0 1-.263.285l-.066.044zm19.64 1.033a.153.153 0 0 1-.099 0 .275.275 0 0 1-.154-.351l.605-1.473a.264.264 0 0 1 .352-.154.286.286 0 0 1 .153.363l-.604 1.473a.273.273 0 0 1-.253.142z" fill="#E16C7A"/><path d="M351.297 212.001c-3.121 1.66-8.639 31.566-8.639 31.566l-10.243-.989s2.341 5.495 11.056 8.726c10.255 3.759 13.563-26.07 13.563-26.07l-5.737-13.233zm7.573-8.859l1.033 5.133s9.968 4.089 16.903-.242l.594-4.891h-18.53z" fill="#BAB7F6"/><path d="M324.238 260.24V127.252H201.141V260.24h123.097z" fill="#E3E9FF"/><mask id="a" maskUnits="userSpaceOnUse" x="201" y="127" width="124" height="134"><path d="M324.238 260.24V127.252H201.141V260.24h123.097z" fill="#E3E9FF"/></mask><g mask="url(#a)"><path d="M208.329 249.678c-4.056 76.836 1.791 172.951 1.791 172.951l-6.155 6.429 24.18 2.88-.198-166.884a1.659 1.659 0 0 1 1.162-1.595c.224-.071.462-.093.696-.065a1.698 1.698 0 0 1 1.429 1.275l40.545 172.556 27.696 3.297-11.529-8.859-38.204-181.238-41.413-.747z" fill="#271055"/><path d="M291.375 198.34s1.967-6.936 3.143-8.309c1.176-1.374 4.309-1.616 4.913-1.539a6.559 6.559 0 0 1 2.089.736s1.813-1.275 2.769-.857c2.198.956 0 2.814 0 2.814s1.858-.198 2.308.857c.451 1.055-1.33 1.912-1.33 1.912a1.54 1.54 0 0 1 1.627.66c.473.901-1.099 2.583-1.099 2.583s1.868.153 1.099 2.099c-.659 1.583-9.518 6.287-9.518 6.287l-2.011.769-3.99-8.012z" fill="#FFA9A7"/><path d="M291.375 198.34l-19.728 15.024-4.858-22.3a11.756 11.756 0 0 0-6.815-8.254 58.318 58.318 0 0 0-11.331-3.165c-4.122-.77-22.861-1.33-27.961-.792-5.099.539-10.034 1.363-11.727 2.539-5.495 3.781-27.345 36.962-27.202 39.369.143 2.407 23.278 35.248 23.278 35.248l5.397-5.88 41.127 8.979 4.748-52.624 3.298 19.069a8.374 8.374 0 0 0 5.143 6.331 8.367 8.367 0 0 0 9.255-2.077l23.377-24.18-6.001-7.287zm-92.806 23.081l13.518-17.41-2.846 34.5-10.672-17.09z" fill="url(#paint4_linear)"/><path d="M237.278 213.232l11.321-33.588a94.276 94.276 0 0 0-14.937-1.484c-4.355-.003-8.706.236-13.035.715l16.651 34.357z" fill="#F3F0F3"/><path d="M247.764 254.799h-.055l-32.126-6.177a.273.273 0 0 1-.22-.318.262.262 0 0 1 .318-.22l32.138 6.177a.285.285 0 0 1 .219.318.283.283 0 0 1-.274.22z" fill="#C34159"/><path d="M216.748 244.039s-6.441-3.77-8.046-2.44c-1.604 1.33-1.406 3.627-1.494 4.397-.088.769-2.77 1.692-3.067 4.154-.296 2.462-2.319 3.858-2.198 5.913s3.484 3.001 4.396 3.22c.913.22 2.287-4.187 2.287-4.187s2.198.264 2.681-.352c.484-.615 2.012-4.275 2.012-4.275 1.11-.354 2.17-.849 3.154-1.473a8.645 8.645 0 0 0 .758-1.956l-1.582-.967 1.099-2.034z" fill="#FFA9A7"/><path d="M231.53 174.787s-2.066-.44-3.011.604c-.945 1.044-1.429 11.409.231 11.695 1.659.285 6.528-5.43 6.528-5.43s5.056 6.276 6.661 5.594c1.604-.681-.429-12.232-3.726-12.243a132.02 132.02 0 0 1-6.683-.22zm20.762-25.895s-.066 5.242-2.122 7.638l-.395-8.704 2.517 1.066z" fill="#293267"/><path d="M235.267 180.842c-1.396-.143-2.583-.318-3.363-1.604-1.429-2.363-.649-5.375-2.132-7.694a35.517 35.517 0 0 0-2.429-3 13.501 13.501 0 0 1-2.199-5.364c-2.121-8.595 1.099-26.653 13.871-24.927 12.771 1.726 11.859 16.091 10.639 22.586a22.947 22.947 0 0 1-2.495 7.452 9.354 9.354 0 0 1-2.638 3c-1.198.847-2.616 1-3.88 1.704-1.692.945-1.373 3.352-1.56 5.001-.286 2.132-1.704 3.077-3.814 2.846z" fill="#FFA9A7"/><path d="M256.084 151.904c-7.694.099-21.388-6.98-21.388-6.98-.33 5.034-6.408 5.902-6.408 5.902l-.44 8.31-1.527-.451-1.66-4.199-.506.418s-4.704-5.429-4.099-7.99c.604-2.561 3.792-5.32 3.792-5.32h-5.924l1.494-3.297 4.836 2.517c1.099-12.024 29.104-3.132 29.104-3.132a21.246 21.246 0 0 1 4.034-2.309 6.737 6.737 0 0 1 4.396-.329 4.071 4.071 0 0 1 2.879 3.132 5.492 5.492 0 0 1-1.384 3.968 15.063 15.063 0 0 1-5.683 4.539c1.099.264 2.374 1.099 2.385 2.198a2.834 2.834 0 0 1-1.692 2.418 3.853 3.853 0 0 1-2.209.605z" fill="#293267"/><path d="M226.43 158.092a3.666 3.666 0 0 1-2.598 3.137 3.673 3.673 0 0 1-4.29-5.248 3.671 3.671 0 0 1 6.888 2.111zm28.115 2.461a3.675 3.675 0 0 1-2.592 3.146 3.664 3.664 0 0 1-3.899-1.188 3.668 3.668 0 1 1 5.674-4.651c.618.754.912 1.723.817 2.693z" fill="#FFA9A7"/><path d="M241.059 162.785a3.66 3.66 0 0 1-1.307-.429c-.275-.121-.572-.253-.814-.33a.277.277 0 0 1 .165-.527c.299.106.593.227.879.363.352.153 1.011.45 1.099.362a.289.289 0 0 0 0-.143 6.3 6.3 0 0 0-.879-2.352 6.727 6.727 0 0 1-.45-.989 3.994 3.994 0 0 1 0-1.571.272.272 0 0 1 .207-.238.276.276 0 0 1 .29.109.283.283 0 0 1 .052.205 3.439 3.439 0 0 0 0 1.341c.114.308.254.606.418.891.489.79.807 1.673.934 2.593a.673.673 0 0 1-.264.616.614.614 0 0 1-.33.099zm-2.066 2.616a5.127 5.127 0 0 1-2.539-.671 5.193 5.193 0 0 1-2.198-2.572.273.273 0 0 1 .154-.351.263.263 0 0 1 .215-.005.264.264 0 0 1 .147.158 4.568 4.568 0 0 0 4.968 2.836.273.273 0 0 1 .26.428.282.282 0 0 1-.183.111 4.942 4.942 0 0 1-.824.066zm10.364-3.012a.275.275 0 0 1-.22-.319l.715-4.121a.26.26 0 0 1 .319-.231.275.275 0 0 1 .219.319l-.714 4.132a.276.276 0 0 1-.319.22z" fill="#E16C7A"/><path d="M249.896 160.015a.282.282 0 0 1-.165-.055.276.276 0 0 1 .088-.484 7.808 7.808 0 0 1 2.077-.297.276.276 0 0 1 0 .55 7.11 7.11 0 0 0-1.923.275l-.077.011zm-25.301-1.088h-.11a.27.27 0 0 1-.145-.153.273.273 0 0 1 .013-.21 1.65 1.65 0 0 0-.571-1.978 1.64 1.64 0 0 0-2.034.263.27.27 0 0 1-.384 0 .244.244 0 0 1-.062-.087.27.27 0 0 1-.022-.105.27.27 0 0 1 .022-.105.244.244 0 0 1 .062-.087 2.114 2.114 0 0 1 1.308-.692 2.116 2.116 0 0 1 2.316 1.525c.139.49.097 1.013-.118 1.475a.265.265 0 0 1-.275.154zm11.936 14.639a11.716 11.716 0 0 1-4.77-1.011.267.267 0 0 1-.099-.058.275.275 0 0 1-.064-.319.285.285 0 0 1 .17-.147.281.281 0 0 1 .224.029 11.21 11.21 0 0 0 5.693.891.278.278 0 0 1 .201.064.287.287 0 0 1 .096.189.267.267 0 0 1-.242.296c-.402.044-.805.066-1.209.066z" fill="#E16C7A"/><path d="M239.048 151.849a.271.271 0 0 1-.209-.099 3.619 3.619 0 0 0-1.185-.912 3.62 3.62 0 0 0-1.453-.352 3.67 3.67 0 0 0-2.693 1.099.255.255 0 0 1-.09.062.268.268 0 0 1-.305-.062.265.265 0 0 1 0-.385 4.097 4.097 0 0 1 3.144-1.318 4.112 4.112 0 0 1 1.693.425c.527.262.991.634 1.362 1.091a.278.278 0 0 1 0 .385.301.301 0 0 1-.264.066zm8.848 1.912a.27.27 0 0 1-.144-.041.268.268 0 0 1-.098-.113 3.304 3.304 0 0 0-3.583-1.794 3.29 3.29 0 0 0-1.308.563.277.277 0 0 1-.192.079.28.28 0 0 1-.193-.079.267.267 0 0 1 .066-.385 3.853 3.853 0 0 1 3.188-.615 3.907 3.907 0 0 1 2.516 2.044.298.298 0 0 1-.131.374l-.121-.033zm-9.519 2.539a1.281 1.281 0 0 1-.943 1.076 1.285 1.285 0 1 1-.156-2.516 1.307 1.307 0 0 1 1.099 1.44zm6.848 1.099a1.294 1.294 0 0 1-.303.685 1.292 1.292 0 0 1-1.993-.056 1.283 1.283 0 0 1-.092-1.431 1.288 1.288 0 0 1 1.289-.627 1.286 1.286 0 0 1 1.099 1.429z" fill="#293267"/><path d="M300.739 196.01c-.692-.077-1.55-2.254-1.989-3.55a.276.276 0 0 1 .165-.352.286.286 0 0 1 .351.176 12.01 12.01 0 0 0 1.462 3.132c.298-1.505.413-3.04.341-4.572a.275.275 0 1 1 .549 0c0 1.352 0 4.561-.56 5.056a.407.407 0 0 1-.319.11z" fill="#E16C7A"/><path d="M301.52 189.228l13.617-19.288 1.473.846-14.365 20.168-.725-1.726z" fill="#fff"/><path d="M239.18 157.608a3.71 3.71 0 0 1-3.653 1.894 3.703 3.703 0 1 1 2.191-6.928 3.69 3.69 0 0 1 1.462 5.034v0zm8.825 1.681a3.703 3.703 0 1 1-1.461-5.022 3.684 3.684 0 0 1 1.773 2.208 3.695 3.695 0 0 1-.312 2.814v0zm-8.254-3.187a1.02 1.02 0 0 1 1.341.242" stroke="#fff" stroke-width=".6" stroke-linecap="round" stroke-linejoin="round"/><path d="M232.717 251.842a.272.272 0 0 1-.178-.106.279.279 0 0 1-.053-.201l4.814-29.522 12.816-38.302a.276.276 0 0 1 .351-.176.276.276 0 0 1 .176.351l-12.804 38.259-4.803 29.478a.286.286 0 0 1-.319.219zm-2.692-3.934a.273.273 0 0 1-.231-.308l4.319-26.048 1.583-5.627a.267.267 0 0 1 .129-.169.267.267 0 0 1 .211-.018.263.263 0 0 1 .187.33l-1.571 5.605-4.353 26.004a.282.282 0 0 1-.274.231zm1.78-39.424a.272.272 0 0 1-.253-.154l-13.189-26.751a.268.268 0 0 1 .044-.302.268.268 0 0 1 .088-.061.277.277 0 0 1 .363.121l13.189 26.752a.275.275 0 0 1-.121.362l-.121.033z" fill="#C34159"/></g><path d="M371.135 270.098a2.063 2.063 0 0 0-1.578-2.231 2.065 2.065 0 0 0-2.411 1.286l-45.535 120.239-9.892-.164 42.007-134.088c14.409-4.759 30.51.352 30.51.352s4.979 15.969 1.539 38.588c-3.44 22.619-18.882 96.093-18.882 96.093l-8.562-.132 12.804-119.943z" fill="#293267"/><path d="M319.72 394.36h-17.057l9.056-5.154 9.892.164-1.891 4.99zm38.138 0l.473-4.396 8.562.132 5.682 4.264h-14.717zm27.543-183.755c2.462 1.957 23.334 27.95 23.081 30.071-.253 2.121-18.53 20.992-18.53 20.992l-3.627-6.759 11.166-13.629-15.024-15.508 2.934-15.167z" fill="#BAB7F6"/><path d="M376.807 208.034s6.528 1.286 8.594 2.571c.792.495-1.747 32.017-1.747 32.017l5.418 21.838s-25.883 4.781-40.918-2.33l7.869-19.355s-4.902-30.246-4.726-30.774c.176-.527 8.606-3.726 8.606-3.726l16.904-.241z" fill="#BAB7F6"/><path d="M352.374 218.903a11.178 11.178 0 0 0-.418 6.65 8.008 8.008 0 0 0 2.594 4.396c.154 1.264.154 2.704.308 3.979m30.631-15.849a7.694 7.694 0 0 1-.604 8.309m-9.991-18.497a19.414 19.414 0 0 1-12.969.78" stroke="#A39EE9" stroke-width=".6" stroke-linecap="round" stroke-linejoin="round"/><path d="M378.389 254.063h-20.223v-2.484h21.355v1.352a1.088 1.088 0 0 1-.693 1.055c-.14.055-.289.081-.439.077z" fill="#293267"/><path d="M322.237 254.052h37.622a.993.993 0 0 0 .958-.684.99.99 0 0 0 .042-.415l-3.176-26.818a2.631 2.631 0 0 0-2.528-2.264h-35.358a1.986 1.986 0 0 0-1.525.668 1.987 1.987 0 0 0-.475 1.596l3.176 26.774a1.32 1.32 0 0 0 1.264 1.143z" fill="#293267"/><path d="M326.216 251.942h31.95a.373.373 0 0 0 .222-.609.368.368 0 0 0-.222-.128h-31.95a.373.373 0 1 0 0 .737zm8.836-14.442a2.263 2.263 0 0 0 2.664 2.294 2.268 2.268 0 0 0 1.815-1.762 2.265 2.265 0 1 0-4.479-.532z" fill="#384172"/><path d="M319.435 241.896s-4.397 2.517-4.166 3.913c.231 1.396 1.66 2.055 2.088 2.363.429.308.055 2.198 1.396 3.209 1.341 1.011 1.495 2.671 2.737 3.298 1.242.626 2.945-1.034 3.363-1.473.418-.44-1.681-2.759-1.681-2.759s.912-1.22.703-1.703c-.209-.484-1.836-2.627-1.836-2.627a9.386 9.386 0 0 0 .198-2.352 5.352 5.352 0 0 0-.89-1.099l-1.099.593-.813-1.363zm63.702 13.2s4.539-1.748 5.441-.715a3.75 3.75 0 0 1 .483 2.99c0 .505 1.605 1.374 1.539 2.989-.066 1.616 1.099 2.726.791 4.045-.308 1.319-2.55 1.55-3.143 1.605-.594.055-1.022-2.935-1.022-2.935s-1.462-.066-1.693-.506c-.231-.439-.835-2.967-.835-2.967a9.313 9.313 0 0 1-1.88-1.286 5.802 5.802 0 0 1-.274-1.33l1.099-.461-.506-1.429z" fill="#FFA9A7"/><path d="M380.829 186.151a2.388 2.388 0 0 1-.473 2.693c-.472.45-1.099.681-1.626 1.099a3.526 3.526 0 0 0-1.099 2.198 7.947 7.947 0 0 0 .143 2.55 4.662 4.662 0 0 1-1.352-4.485 14.184 14.184 0 0 1 2.022-4.528 5.633 5.633 0 0 1-4.847-4.143 35.584 35.584 0 0 1-14.024 3.088 27.356 27.356 0 0 1 2.594-7.54 8.937 8.937 0 0 1 6.023-4.638 10.47 10.47 0 0 1 6.462 1.462 13.701 13.701 0 0 1 5.704 5.1c1.253 2.297 1.836 4.935.473 7.144z" fill="#293267"/><rect x="541" y="236.857" width="51" height="18" rx="5" fill="#D8ECFB"/><path d="M584.804 246.857h-24.608c-.317 0-.622-.105-.846-.293a.925.925 0 0 1-.35-.707c0-.265.126-.519.35-.707.224-.187.529-.293.846-.293h24.608c.317 0 .622.106.846.293.224.188.35.442.35.707 0 .265-.126.52-.35.707a1.322 1.322 0 0 1-.846.293z" fill="#69ACFF"/><rect x="546" y="241.857" width="8" height="8" rx="2" fill="#0094FF"/><path d="M552 245.107l-2.75 2.292-1.25-1.042" stroke="#fff" stroke-linecap="round" stroke-linejoin="round"/><rect x="596" y="282.857" width="51" height="18" rx="5" fill="#D8ECFB"/><path d="M639.804 292.857h-24.608c-.317 0-.622-.105-.846-.293a.925.925 0 0 1-.35-.707c0-.265.126-.519.35-.707.224-.187.529-.293.846-.293h24.608c.317 0 .622.106.846.293.224.188.35.442.35.707 0 .265-.126.52-.35.707a1.322 1.322 0 0 1-.846.293z" fill="#69ACFF"/><rect x="601" y="287.857" width="8" height="8" rx="2" fill="#0094FF"/><path d="M607 291.107l-2.75 2.292-1.25-1.042" stroke="#fff" stroke-linecap="round" stroke-linejoin="round"/><rect x="596" y="304.857" width="51" height="18" rx="5" fill="#D8ECFB"/><path d="M639.804 314.857h-24.608c-.317 0-.622-.105-.846-.293a.925.925 0 0 1-.35-.707c0-.265.126-.519.35-.707.224-.187.529-.293.846-.293h24.608c.317 0 .622.106.846.293.224.188.35.442.35.707 0 .265-.126.52-.35.707a1.322 1.322 0 0 1-.846.293z" fill="#69ACFF"/><rect x="601" y="309.857" width="8" height="8" rx="2" fill="#0094FF"/><path d="M607 313.107l-2.75 2.292-1.25-1.042" stroke="#fff" stroke-linecap="round" stroke-linejoin="round"/><rect x="541" y="282.857" width="51" height="18" rx="5" fill="#D8ECFB"/><path d="M584.804 292.857h-24.608c-.317 0-.622-.105-.846-.293a.925.925 0 0 1-.35-.707c0-.265.126-.519.35-.707.224-.187.529-.293.846-.293h24.608c.317 0 .622.106.846.293.224.188.35.442.35.707 0 .265-.126.52-.35.707a1.322 1.322 0 0 1-.846.293z" fill="#69ACFF"/><rect x="546" y="287.857" width="8" height="8" rx="2" fill="#0094FF"/><path d="M552 291.107l-2.75 2.292-1.25-1.042" stroke="#fff" stroke-linecap="round" stroke-linejoin="round"/><rect x="596" y="235.857" width="51" height="18" rx="5" fill="#fff"/><path d="M639.804 245.857h-24.608c-.317 0-.622-.105-.846-.293a.925.925 0 0 1-.35-.707c0-.265.126-.519.35-.707.224-.187.529-.293.846-.293h24.608c.317 0 .622.106.846.293.224.188.35.442.35.707 0 .265-.126.52-.35.707a1.322 1.322 0 0 1-.846.293z" fill="#69ACFF"/><rect x="601" y="240.857" width="8" height="8" rx="2" stroke="#2F9EEE" stroke-linecap="square" stroke-linejoin="round"/><rect x="541" y="259.857" width="51" height="18" rx="5" fill="#fff"/><path d="M584.804 269.857h-24.608c-.317 0-.622-.105-.846-.293a.925.925 0 0 1-.35-.707c0-.265.126-.519.35-.707.224-.187.529-.293.846-.293h24.608c.317 0 .622.106.846.293.224.188.35.442.35.707 0 .265-.126.52-.35.707a1.322 1.322 0 0 1-.846.293z" fill="#69ACFF"/><rect x="546" y="264.857" width="8" height="8" rx="2" stroke="#2F9EEE" stroke-linecap="square" stroke-linejoin="round"/><rect x="541" y="305.857" width="51" height="18" rx="5" fill="#fff"/><path d="M584.804 315.857h-24.608c-.317 0-.622-.105-.846-.293a.925.925 0 0 1-.35-.707c0-.265.126-.519.35-.707.224-.187.529-.293.846-.293h24.608c.317 0 .622.106.846.293.224.188.35.442.35.707 0 .265-.126.52-.35.707a1.322 1.322 0 0 1-.846.293z" fill="#69ACFF"/><rect x="546" y="310.857" width="8" height="8" rx="2" stroke="#2F9EEE" stroke-linecap="square" stroke-linejoin="round"/><rect x="596" y="258.857" width="51" height="18" rx="5" fill="#fff"/><path d="M639.804 268.857h-24.608c-.317 0-.622-.105-.846-.293a.925.925 0 0 1-.35-.707c0-.265.126-.519.35-.707.224-.187.529-.293.846-.293h24.608c.317 0 .622.106.846.293.224.188.35.442.35.707 0 .265-.126.52-.35.707a1.322 1.322 0 0 1-.846.293z" fill="#69ACFF"/><rect x="601" y="263.857" width="8" height="8" rx="2" stroke="#2F9EEE" stroke-linecap="square" stroke-linejoin="round"/><defs><linearGradient id="paint0_linear" x1="132.965" y1="275.968" x2="132.965" y2="297.862" gradientUnits="userSpaceOnUse"><stop stop-color="#293267"/><stop offset="1" stop-color="#3B467E"/></linearGradient><linearGradient id="paint1_linear" x1="26207.7" y1="16899.2" x2="26207.7" y2="19103.9" gradientUnits="userSpaceOnUse"><stop stop-color="#293267"/><stop offset="1" stop-color="#3B467E"/></linearGradient><linearGradient id="paint2_linear" x1="187067" y1="8409.73" x2="187067" y2="8026.29" gradientUnits="userSpaceOnUse"><stop stop-color="#293267"/><stop offset="1" stop-color="#3B467E"/></linearGradient><linearGradient id="paint3_linear" x1="169742" y1="118284" x2="169742" y2="47434.5" gradientUnits="userSpaceOnUse"><stop stop-color="#1052DB"/><stop offset="1" stop-color="#3B467E"/></linearGradient><linearGradient id="paint4_linear" x1="221.759" y1="260.108" x2="251.621" y2="181.172" gradientUnits="userSpaceOnUse"><stop stop-color="#FF647E"/><stop offset="1" stop-color="#FF8A7E"/></linearGradient><clipPath id="clip0"><path fill="#fff" d="M504.587 251.896h11.753v12.115h-11.753z"/></clipPath></defs></svg>