<svg width="284" height="203" fill="none" xmlns="http://www.w3.org/2000/svg"><path d="M91.804 99.776c.9 2.124 1.797 4.22 2.69 6.29-4.594-5.451-12.73-10.998-26.118-8.48 10.139 11.844 14.727 16.943 29.92 17.178a580.97 580.97 0 0 0 2.61 5.836c-5.91-3.947-17.747-8.915-31.56 1.217 13.926 6.169 20.301 8.815 33.469 3.01a877.876 877.876 0 0 0 6.934 14.85c-6.682-5.572-19.904-12.656-37.538-2.826 15.964 9.584 23.196 13.698 40.254 8.48a868.983 868.983 0 0 0 5.192 10.489c-6.571-3.662-22.767-9.272-42.676 7.921 18.145 4.399 26.23 6.134 44.238-4.864 3.898 7.662 6.436 15.575 9.219 21.609h5.62c-2.763-5.001-6.088-11.44-9.245-17.506 19.871-7.319 23.52-14.74 31.326-31.728-26.331 5.057-31.674 21.776-32.748 28.982a802.47 802.47 0 0 1-4.673-9.239c15.69-10.487 16.96-18.658 19.376-37.566-21.485 8.941-21.702 27.192-20.782 34.728a940.468 940.468 0 0 1-8.017-16.696c12.976-6.795 14.851-13.412 18.677-28.28-16.729 4.623-20.034 17.256-20.532 24.287a864.509 864.509 0 0 1-3.335-7.301c9.43-12.222 8.277-18.971 5.248-34.37-9.477 8.243-10.802 17.238-9.83 24.066-1.696-3.879-3.41-7.866-5.142-11.96.435-6.479-.702-21.066-18.369-27.579 2.546 14.945 3.85 21.722 15.792 29.452z" fill="#D8EFFF"/><path fill-rule="evenodd" clip-rule="evenodd" d="M180.918 169.09h29.543l4.846 21.46v.183h-29.501l-4.888-21.643z" fill="#07287A"/><path fill-rule="evenodd" clip-rule="evenodd" d="M131.267 66.106l135.701-2.08h7.518c5.084 0 9.633 4.172 9.244 9.24l-6.654 86.583c-.389 5.066-4.159 9.241-9.243 9.241h-143.49c-5.081 0-9.63-4.175-9.241-9.241l6.652-86.583c.389-5.068 4.431-7.082 9.513-7.16z" fill="url(#paint0_linear)"/><path fill-rule="evenodd" clip-rule="evenodd" d="M125.617 72.988h143.218a.406.406 0 0 1 .418.415l-6.571 86.146c-.005.109-.208.452-.208.452a.435.435 0 0 1-.29.126H118.966a.416.416 0 0 1-.296-.119.399.399 0 0 1-.09-.136c-.021-.051 3.184.31 3.186.255l3.436-86.724a.436.436 0 0 1 .415-.415z" fill="#FAF9FD"/><g filter="url(#filter0_d)"><path d="M218.859 95.71H264.6l-1.12 12.608a10 10 0 0 1-10.067 9.114l-25.739-.272c-5.868-.062-10.422-5.14-9.846-10.979l1.031-10.471z" fill="#fff"/><path d="M231.289 110.725a4.07 4.07 0 0 1 4.011-3.378h22.396a4.07 4.07 0 1 1 0 8.141H235.3a4.07 4.07 0 0 1-4.011-4.763z" fill="#0094FF"/><g clip-path="url(#clip0)" stroke="#fff" stroke-linecap="round" stroke-linejoin="round"><path d="M255.288 111.418h3.554m-.79-1.018l.988 1.018-.988 1.017"/></g><path d="M219.317 108.236a.605.605 0 0 1 .52-.296h8.754a.606.606 0 0 1 0 1.21h-8.754a.605.605 0 0 1-.52-.914zm0 3.629a.605.605 0 0 1 .52-.296h8.754a.605.605 0 1 1 0 1.21h-8.754a.605.605 0 0 1-.52-.914z" fill="#89C3E2"/><path d="M235.012 99.972a2.544 2.544 0 0 1 2.507-2.111h7.258a2.544 2.544 0 1 1 0 5.088h-7.258a2.545 2.545 0 0 1-2.507-2.977z" fill="#FDEFF1"/><path d="M237.311 100.116a.606.606 0 0 1 .55-.351h6.559a.605.605 0 0 1 0 1.209h-6.559a.605.605 0 0 1-.55-.858z" fill="#89C3E2"/><path d="M235.867 110.952a.605.605 0 0 1 .44-.189h14.516a.605.605 0 1 1 0 1.209h-14.516a.605.605 0 0 1-.44-1.02z" fill="#fff"/><path d="M220.094 99.972a2.544 2.544 0 0 1 2.507-2.111h7.258a2.544 2.544 0 1 1 0 5.088h-7.258a2.545 2.545 0 0 1-2.507-2.977z" fill="#FDEFF1"/><path d="M222.393 100.116a.605.605 0 0 1 .549-.351h6.56a.605.605 0 0 1 0 1.209h-6.56a.605.605 0 0 1-.549-.858z" fill="#89C3E2"/><path d="M249.821 100.04a2.545 2.545 0 0 1 2.499-2.068h7.428a2.544 2.544 0 0 1 0 5.089h-7.428a2.544 2.544 0 0 1-2.499-3.021z" fill="#E1DFEF"/><path d="M251.169 100.172a.606.606 0 0 1 .52-.296h8.754a.605.605 0 1 1 0 1.21h-8.754a.605.605 0 0 1-.52-.914z" fill="#89C3E2"/><path d="M219.248 92.547a10 10 0 0 1 9.927-8.797h10.552c5.947 0 10.579 5.158 9.943 11.07l-.101.938h-30.71l.389-3.21zm31.663-2.53a7.125 7.125 0 0 1 7.073-6.268c4.237 0 7.538 3.675 7.084 7.888l-.443 4.12h-14.409l.695-5.74z" fill="#E1DFEF"/><path d="M253.588 91.302a.605.605 0 0 1 .52-.296h8.755a.605.605 0 0 1 0 1.21h-8.755a.605.605 0 0 1-.52-.914zm-20.562-2.016a.604.604 0 0 1 .519-.296h8.755a.605.605 0 0 1 0 1.21h-8.755a.604.604 0 0 1-.519-.914zm-11.845.556a4.032 4.032 0 0 1 4.016-3.674h2.067a4.032 4.032 0 1 1 0 8.064h-2.067a4.032 4.032 0 0 1-4.016-4.39z" fill="#89C3E2"/><path d="M245.871 90.834a1.355 1.355 0 0 0 1.357-1.357 1.355 1.355 0 0 0-1.357-1.357 1.359 1.359 0 0 0-1.357 1.357 1.359 1.359 0 0 0 1.357 1.357zm0 .339a1.696 1.696 0 1 1 0-3.392 1.696 1.696 0 0 1 0 3.392zm-.17-1.866v1.018h.34v-1.018h-.34zm0-.678h.34v.339h-.34v-.34z" fill="#000" fill-opacity=".2"/></g><g filter="url(#filter1_d)"><path d="M215.23 134.013h45.742l-1.121 12.608a9.999 9.999 0 0 1-10.066 9.114l-25.74-.272c-5.868-.062-10.421-5.139-9.846-10.979l1.031-10.471z" fill="#fff"/><path d="M227.66 149.028a4.07 4.07 0 0 1 4.011-3.378h22.396a4.07 4.07 0 1 1 0 8.142h-22.396a4.07 4.07 0 0 1-4.011-4.764z" fill="#EC5271"/><g clip-path="url(#clip1)" stroke="#fff" stroke-linecap="round" stroke-linejoin="round"><path d="M253.549 148.965l-2.218 2.218m0-2.218l2.218 2.218"/></g><path d="M215.688 146.54a.603.603 0 0 1 .52-.296h8.754a.605.605 0 1 1 0 1.209h-8.754a.604.604 0 0 1-.52-.913zm-89.288-3.398a5 5 0 0 1 4.98-4.559h12.173a5 5 0 0 1 4.981 5.446l-.693 7.74a5 5 0 0 1-4.98 4.555h-12.166a5 5 0 0 1-4.981-5.441l.686-7.741zm89.288 7.026a.605.605 0 0 1 .52-.296h8.754a.606.606 0 0 1 0 1.21h-8.754a.605.605 0 0 1-.52-.914z" fill="#89C3E2"/><path d="M231.383 138.275a2.544 2.544 0 0 1 2.507-2.111h7.258a2.544 2.544 0 1 1 0 5.088h-7.258a2.544 2.544 0 0 1-2.507-2.977z" fill="#FDEFF1"/><path d="M233.682 138.419a.605.605 0 0 1 .549-.351h6.56a.605.605 0 0 1 0 1.21h-6.56a.605.605 0 0 1-.549-.859z" fill="#89C3E2"/><path d="M232.238 149.255a.607.607 0 0 1 .44-.189h14.516a.605.605 0 1 1 0 1.21h-14.516a.605.605 0 0 1-.44-1.021z" fill="#fff"/><path d="M216.465 138.275a2.544 2.544 0 0 1 2.507-2.111h7.258a2.544 2.544 0 1 1 0 5.088h-7.258a2.544 2.544 0 0 1-2.507-2.977z" fill="#FDEFF1"/><path d="M218.764 138.419a.605.605 0 0 1 .549-.351h6.559a.605.605 0 1 1 0 1.21h-6.559a.605.605 0 0 1-.549-.859z" fill="#89C3E2"/><path d="M246.192 138.344a2.545 2.545 0 0 1 2.5-2.068h7.427a2.544 2.544 0 1 1 0 5.088h-7.427a2.545 2.545 0 0 1-2.5-3.02z" fill="#E1DFEF"/><path d="M247.54 138.476a.604.604 0 0 1 .52-.296h8.755a.605.605 0 0 1 0 1.209h-8.755a.604.604 0 0 1-.52-.913z" fill="#89C3E2"/><path d="M215.619 130.851a10 10 0 0 1 9.927-8.798h10.552c5.947 0 10.58 5.158 9.943 11.071l-.101.938h-30.71l.389-3.211zm31.663-2.531a7.124 7.124 0 0 1 7.073-6.268c4.237 0 7.538 3.675 7.084 7.888l-.443 4.121h-14.41l.696-5.741z" fill="#E1DFEF"/><path d="M249.959 125.573a.605.605 0 0 1 .52-.295h8.755a.605.605 0 0 1 0 1.209h-8.755a.605.605 0 0 1-.52-.914zm0 4.032a.605.605 0 0 1 .52-.295h8.755a.605.605 0 0 1 0 1.209h-8.755a.605.605 0 0 1-.52-.914zm-20.563-2.016a.605.605 0 0 1 .52-.295h8.755a.605.605 0 0 1 0 1.209h-8.755a.605.605 0 0 1-.52-.914zm-11.844.556a4.032 4.032 0 0 1 4.016-3.674h2.067a4.032 4.032 0 1 1 0 8.064h-2.067a4.032 4.032 0 0 1-4.016-4.39z" fill="#89C3E2"/><path d="M242.242 129.137a1.356 1.356 0 1 0 0-2.713 1.356 1.356 0 0 0 0 2.713zm0 .339a1.696 1.696 0 1 1 0-3.391 1.696 1.696 0 0 1 0 3.391zm-.17-1.865v1.017h.339v-1.017h-.339zm0-.679h.339v.339h-.339v-.339z" fill="#000" fill-opacity=".2"/></g><path d="M152.782 141.448a.605.605 0 0 1 .222-.043h39.982c.669 0 .843.925.22 1.169a.613.613 0 0 1-.22.041h-39.982c-.667 0-.843-.922-.222-1.167zm0 3.225a.604.604 0 0 1 .222-.042h39.982c.669 0 .843.925.22 1.168a.614.614 0 0 1-.22.042h-39.982c-.667 0-.843-.923-.222-1.168zm-1.019 3.266a.6.6 0 0 1 .304-.082h26.949c.619 0 .838.819.302 1.128a.605.605 0 0 1-.302.081h-26.949c-.617 0-.838-.816-.304-1.127zm46.966-6.229a.605.605 0 0 1 .524-.305h8.392a.605.605 0 0 1 0 1.21h-8.392a.604.604 0 0 1-.524-.905z" fill="#89C3E2"/><path fill-rule="evenodd" clip-rule="evenodd" d="M125.052 72.988H268.27a.406.406 0 0 1 .418.415l-.574 7.45H124.063l.574-7.45a.436.436 0 0 1 .415-.415z" fill="#9EDDFF"/><path fill-rule="evenodd" clip-rule="evenodd" d="M178.726 169.09h28.262l4.684 21.643H183.41l-4.684-21.643z" fill="#1945B2"/><path fill-rule="evenodd" clip-rule="evenodd" d="M190.294 161.982a2.697 2.697 0 0 1 2.495 1.668 2.704 2.704 0 0 1-.587 2.943 2.704 2.704 0 0 1-2.943.584 2.7 2.7 0 0 1 1.035-5.195z" fill="#D8E7FF"/><path fill-rule="evenodd" clip-rule="evenodd" d="M175.508 190.546h39.79v3.864a3.873 3.873 0 0 1-3.863 3.864h-39.791v-3.864a3.875 3.875 0 0 1 3.864-3.864z" fill="#07287A"/><path fill-rule="evenodd" clip-rule="evenodd" d="M172.994 190.546h34.068c-1.642 0-3.325 1.366-3.325 3.831v.87c0 2.124-.839 3.016-2.785 3.016h-31.506v-3.862c0-2.126 1.591-3.864 3.54-3.864" fill="#3C69D8"/><path fill-rule="evenodd" clip-rule="evenodd" d="M204.783 191.544a3.788 3.788 0 0 0-.976 2.031h-34.27a3.953 3.953 0 0 1 1.087-2.033h34.155" fill="#6C93F6"/><path fill-rule="evenodd" clip-rule="evenodd" d="M130.79 83.683h85.937a.244.244 0 0 1 .248.25l-3.99 51.789a.258.258 0 0 1-.25.248h-85.937a.243.243 0 0 1-.231-.152.243.243 0 0 1-.017-.096l3.99-51.789a.256.256 0 0 1 .076-.174.256.256 0 0 1 .174-.076z" fill="#93D9FF"/><path fill-rule="evenodd" clip-rule="evenodd" d="M148.413 75.162h98.822a1.632 1.632 0 0 1 1.154 2.784 1.632 1.632 0 0 1-1.154.478h-98.822a1.631 1.631 0 0 1 0-3.262z" fill="#fff"/><path fill-rule="evenodd" clip-rule="evenodd" d="M157.969 81.007c-3.713 7.347-8.223 14.16-17.958 15.183-7.895.831-30.71-12.878-31.443-19.982-.733-7.103 4.127-8.028 4.127-8.028s22.455 12.968 24.57 12.364c1.603-.455 9.609-7.371 14.521-11.47 1.043-.87 7.781 8.774 6.183 11.933z" fill="#183E9D"/><path fill-rule="evenodd" clip-rule="evenodd" d="M161.216 65.91l18.338.822c4.436.198 10.729 2.71 13.264 5.975 3.387 4.35-2.275 33.194-1.82 56.751h-43.296c-.724-22.624.4-45.981 4.084-60.377 2.639-2.027 5.87-3.325 9.43-3.164" fill="#183E9D"/><path fill-rule="evenodd" clip-rule="evenodd" d="M181.12 83.373c-1.644-3.86.083-11.194 4.005-12.686 1.037-.393 3.297-1.287 5.123-.152 4.766 2.962 16.103 19.632 16.46 31.483.256 8.573-16.762 16.135-25.51 13.915-1.059-1.211-3.557-5.831-1.522-8.027 3.631-3.914 12.238-4.895 11.861-7.856-.674-5.336-9.075-13.522-10.421-16.677" fill="#183E9D"/><path fill-rule="evenodd" clip-rule="evenodd" d="M163.029 65.99c-1.622 9.053-.165 36.312 2.149 45.99.354-.769 10.593-38.383 11.741-45.367-2.8-.383-10.317-.668-13.885-.622" fill="#fff"/><path fill-rule="evenodd" clip-rule="evenodd" d="M156.87 58.135c-.435 4.305 4.627 7.328 7.945 6.884l.078 1.64c-1.507 2.8 1.818 5.096 3.344 6.42.411-.308 5.347-2.287 5.903-6.694l-.345-7.348c.253-.09.495-.21.719-.358.714-.483.946-1.59.696-2.707-.25-1.118-1.781-.28-1.781-.28 1.198-3.41 2.799-6.378-.791-8.068-3.59-1.69-10.654-1.21-10.654-1.21l-4.256-.233c1.231 1.765-.565 9.101-.856 11.958" fill="#F7CCCF"/><circle cx="259.698" cy="77.096" r="1.814" fill="#fff"/><circle cx="254.053" cy="77.096" r="1.814" fill="#fff"/><circle cx="265.342" cy="77.096" r="1.814" fill="#fff"/><path fill-rule="evenodd" clip-rule="evenodd" d="M166.088 59.35a3.092 3.092 0 0 1-6.181-.074.537.537 0 0 1 .539-.525l5.1.058a.544.544 0 0 1 .529.541h.013z" fill="#2F221F"/><path fill-rule="evenodd" clip-rule="evenodd" d="M164.904 61.746a3.077 3.077 0 0 1-3.569.174 1.938 1.938 0 0 1 1.777-1.116 1.934 1.934 0 0 1 1.792.942z" fill="#DC5C4E"/><path fill-rule="evenodd" clip-rule="evenodd" d="M160.387 58.76l4.788.055c.071.532-.18 1.064-.535 1.177-.435.135-3.901 0-4.146-.27-.116-.133-.126-.555-.107-.968v.006z" fill="#fff"/><path d="M160.846 52.037c-.18.706-.688 1.194-1.138 1.08-.449-.115-.673-.776-.513-1.49.16-.715.688-1.193 1.138-1.079.449.115.679.801.513 1.49zm6.451.403c-.18.707-.688 1.194-1.137 1.08-.45-.115-.673-.776-.514-1.49.16-.714.688-1.193 1.138-1.079.449.115.679.801.513 1.49z" fill="#2E3062"/><path d="M162.502 56.696c.39.102.795.137 1.197.102a.325.325 0 0 0-.067-.629c-.317.027-1.043.005-1.287-.259a.353.353 0 0 1-.065-.336c.22-1.122 1.622-4.67 1.634-4.706a.327.327 0 0 0 .016-.262.323.323 0 0 0-.316-.211.326.326 0 0 0-.3.234 46.08 46.08 0 0 0-1.667 4.82.968.968 0 0 0 .22.895c.177.172.396.293.635.352z" fill="#ED8082"/><path fill-rule="evenodd" clip-rule="evenodd" d="M170.916 61.453c-1.305 4.06-2.638 5.608-5.973 6.227l-.131-2.713c1.277-.19 4.364-1.429 6.104-3.514z" fill="#ED8082"/><path fill-rule="evenodd" clip-rule="evenodd" d="M175.321 91.002l10.589.427-.087 1.72-10.589-.424.087-1.723z" fill="#93D9FF"/><path fill-rule="evenodd" clip-rule="evenodd" d="M161.692 49.396c3.24.072 6.784-.857 8.698.776 1.346 1.148 1.413 2.705.626 5.871-.231.935-.624 1.659.741.735.627-.422 1.67-1.042 2.101-.796.959.548.765 2.057.165 2.631-.27.257-.791.652-.791.652 9.501-3.085 9.097-11.495 3.441-17.086-6.283-11.047-23.419-10.24-19.836-2.826-3.777 4.116-.833 9.895 4.853 10.023" fill="#3A2926"/><path fill-rule="evenodd" clip-rule="evenodd" d="M112.959 69.52c.759 2.718-1.872 9.037-3.734 6.993-.548-.6-1.115-1.188-1.8-1.994-2.027-2.392 1.437-8.263 2.772-7.195l2.762 2.196z" fill="#fff"/><path fill-rule="evenodd" clip-rule="evenodd" d="M109.317 67.141c-.148-.91-.781-4.51-1.388-5.138-.311-.322-.393-.185-.543 0a1.677 1.677 0 0 0-.237.937c.02.546.07 1.09.152 1.631-1.868-1.141-3.599-3.696-4.927-5.447-.539-.71-1.74-.165-1.253 1.088.133.332 2.392 3.383 2.405 3.75.037 1.74-5.505 4.36 4.588 9.133.546-.4 2.079-2.046 2.351-4.034l-1.148-1.92z" fill="#F7CCCF"/><path fill-rule="evenodd" clip-rule="evenodd" d="M179.863 109.541c2.222.652 4.305 3.874 4.207 5.618-.369.026-1.798.542-3.072.733-2.74.413-4.957-5.134-3.538-5.642l2.403-.709z" fill="#fff"/><path fill-rule="evenodd" clip-rule="evenodd" d="M177.791 110.971l-1.433.314-4.399-1.229c-.476-.274-3.657-1.359-2.898-.198.533.816 2.283 2.244 2.229 2.322-.709 1.031-6.934 2.066-7.004 2.157-.978 1.305 3.649.629 4.329.587.179 0-3.318 1.148-3.207 1.275a1.361 1.361 0 0 0 1.237.508c.918-.078 3.105-.711 3.273-.563.167.148-3.247 1.264-3.075 1.394a1.19 1.19 0 0 0 .972.252c.95-.108 3.044-.713 3.262-.6.113.059-1.033.372-1.488.524-1.806.605.218.709.948.613 3.525-.456 3.662-2.013 7.828-2.548 3.914-.328.217-4.981-.578-4.808" fill="#F7CCCF"/><path d="M213.532 125.559l-86.485-.281-.403 10.684h86.081l.807-10.403z" fill="#89C3E2"/><path fill-rule="evenodd" clip-rule="evenodd" d="M167.366 126.084a4.233 4.233 0 1 1 .004 8.47 4.233 4.233 0 0 1-.004-8.47z" fill="#EC5271"/><path d="M166.176 130.29a4.002 4.002 0 0 1-.622-1.748.406.406 0 0 1 .403-.442h.608a.407.407 0 0 1 .406.349c.025.194.073.385.142.569a.408.408 0 0 1-.092.428l-.257.257m.525.689c.206.206.438.383.691.527l.258-.258a.41.41 0 0 1 .428-.091c.183.069.375.116.569.142a.403.403 0 0 1 .349.405v.608a.402.402 0 0 1-.131.3.41.41 0 0 1-.311.105 3.998 3.998 0 0 1-1.75-.622 3.946 3.946 0 0 1-.675-.541l.572-.575zm2.295-2.292l-4.032 4.032" stroke="#fff" stroke-width=".5" stroke-linecap="round" stroke-linejoin="round"/><path d="M208.997 134.026h-.53a.748.748 0 0 1-.54-.221.753.753 0 0 1-.221-.54v-.411h.487v.287a.457.457 0 0 0 .458.459h.448v.435l-.102-.009zm2.514-1.07v.309a.767.767 0 0 1-.222.54.751.751 0 0 1-.539.221h-.714v-.435h.529a.459.459 0 0 0 .459-.458v-.287h.487v.11zm-1.372-2.115h.619a.758.758 0 0 1 .761.761v.304h-.487v-.187a.459.459 0 0 0-.458-.459h-.529v-.434l.094.015zm-1.672 0h.632v.435h-.448a.456.456 0 0 0-.458.458v.181h-.479v-.304a.762.762 0 0 1 .761-.761l-.008-.009z" fill="#fff"/><path fill-rule="evenodd" clip-rule="evenodd" d="M203.568 134.207l-.024-.157a.14.14 0 0 1 .015-.094.143.143 0 0 1 .07-.065c.116-.054.225-.121.326-.2a.152.152 0 0 1 .09-.03c.033 0 .064.011.09.03l.129.096a.155.155 0 0 0 .173.008.163.163 0 0 0 .044-.043l.178-.246a.14.14 0 0 0 .031-.115.15.15 0 0 0-.063-.102l-.129-.093a.152.152 0 0 1-.052-.174c.044-.12.074-.244.089-.37a.147.147 0 0 1 .124-.13l.159-.024a.155.155 0 0 0 .098-.062.154.154 0 0 0 .026-.112l-.048-.303a.148.148 0 0 0-.06-.097.153.153 0 0 0-.112-.027l-.156.024a.14.14 0 0 1-.094-.015.145.145 0 0 1-.065-.069 1.562 1.562 0 0 0-.2-.324.148.148 0 0 1-.03-.091c0-.032.01-.064.03-.09l.096-.13a.166.166 0 0 0 .027-.055.147.147 0 0 0-.019-.119.163.163 0 0 0-.043-.044l-.248-.18a.161.161 0 0 0-.055-.029.156.156 0 0 0-.119.018.147.147 0 0 0-.043.043l-.094.129a.15.15 0 0 1-.174.054 1.428 1.428 0 0 0-.37-.089.152.152 0 0 1-.13-.126l-.026-.159a.15.15 0 0 0-.172-.124l-.302.048a.152.152 0 0 0-.098.06.153.153 0 0 0-.026.112l.024.158a.146.146 0 0 1-.016.094.14.14 0 0 1-.069.065 1.473 1.473 0 0 0-.324.198.15.15 0 0 1-.183 0l-.128-.093a.142.142 0 0 0-.116-.033.147.147 0 0 0-.057.022.14.14 0 0 0-.044.043l-.181.248a.144.144 0 0 0-.028.055.14.14 0 0 0-.004.061.147.147 0 0 0 .065.101l.128.096a.15.15 0 0 1 .056.077.147.147 0 0 1-.004.095 1.558 1.558 0 0 0-.087.37.15.15 0 0 1-.126.13l-.158.026a.15.15 0 0 0-.124.172l.047.302a.152.152 0 0 0 .06.098c.016.012.034.02.054.025a.162.162 0 0 0 .058.001l.157-.024a.157.157 0 0 1 .095.015c.029.016.052.04.066.07.052.116.118.226.198.326.019.026.03.058.03.09a.155.155 0 0 1-.03.091l-.094.128a.16.16 0 0 0-.028.055.155.155 0 0 0 .018.118.14.14 0 0 0 .043.044l.248.179a.155.155 0 0 0 .054.028.144.144 0 0 0 .119-.018.14.14 0 0 0 .044-.043l.096-.128a.137.137 0 0 1 .077-.056.151.151 0 0 1 .094.003c.12.045.245.075.372.09a.143.143 0 0 1 .086.04.148.148 0 0 1 .043.084l.026.158c.002.02.009.039.02.055.01.017.023.032.039.043a.142.142 0 0 0 .112.026l.303-.048a.127.127 0 0 0 .055-.02.145.145 0 0 0 .069-.151h.002zm-.592-.896a.836.836 0 0 1-.735-.459.83.83 0 0 1 .87-1.197.827.827 0 0 1 .663.558.824.824 0 0 1-.115.754.84.84 0 0 1-.681.344h-.002z" fill="#fff"/><path fill-rule="evenodd" clip-rule="evenodd" d="M71.852 111.08c8.556 8.215 14.134 33.613 25.005 37.038 0 0 1.011 2.546.487 4.827-.524 2.281-1.535 3.144-1.535 3.144s-9.147.833-16.834-.776c-4.322-.905-4.96-6.597-6.599-7.256-4.553-1.833-6.958-20.249-6.958-20.249l6.434-16.728z" fill="#F7AB2B"/><path fill-rule="evenodd" clip-rule="evenodd" d="M97.492 151.477c0 .483.168.085-.15 1.468-.317 1.383-1.535 3.144-1.535 3.144s-9.15.833-16.834-.776c-4.32-.905-6.325-4.383-7.964-5.042-1.979-.796-.948-16.414-2.422-18.108l-.218-.964 3.146-9.941s4.684 23.975 14.02 26.864c9.337 2.89 9.785 2.858 11.96 3.355" fill="#ECA01F"/><path fill-rule="evenodd" clip-rule="evenodd" d="M66.434 80.187c-2.207 16.09 8.613 21.067-1.98 35.955 0 0-6.487-7.14-9.266-7.645-2.778-.504-3.157-9.252-3.157-9.7 0-.447 2.473-17.864 2.473-17.864l11.93-.746z" fill="#003398"/><path fill-rule="evenodd" clip-rule="evenodd" d="M59.922 105.74H43.421c-8.295 0-15.855 5.738-17.23 13.714-2.737 15.266 2.662 39.266 2.792 40.673h43.2l.191-24.422-.521-24.623c-2.557-2.863-7.828-5.342-11.931-5.342z" fill="#F7AB2B"/><path fill-rule="evenodd" clip-rule="evenodd" d="M48.304 105.74c2.686 7.484 6.204 2.468 9.626 0 .653 0 1.74-.046 2.827.033 9.734 28.664 4.514 31.865 1.5 48.642l-9.417 4.731c-2.1-1.278-4.981-2.431-7.082-3.709-.322-16.773 6.456-16.904-2.346-49.697h4.892z" fill="#fff"/><path fill-rule="evenodd" clip-rule="evenodd" d="M63.918 87.852c-.079 1.547.13 3.095.618 4.566 1.317 3.783-1.57 10.295-6.626 9.863l.02 3.448h-.08c1.252 4.208-1.214 8.197-3.14 8.28-1.711.072-6.171-2.655-6.406-8.28l.5-5.629c-.25-.076-.759-1.153-1.267-1.464-.51-.31-1.066-1.609-.87-2.787.196-1.179 1.248-3.636 1.248-3.636-1.42-3.494-2.642-3.261 1.018-5.196 3.659-1.935 11.039-1.796 11.039-1.796l3.818 1.146.128 1.485z" fill="#F6C2C3"/><path d="M54.674 96.248c.042.866.35 2.502 2.1 2.784 1.75.282 2.437-1.068 2.738-2.022l-4.838-.762z" fill="#FFF9FF"/><path d="M57.606 95.236a2.61 2.61 0 0 1-.908-.114.256.256 0 0 1-.014-.426.24.24 0 0 1 .157-.041c.232.07.776.17.996.009a.271.271 0 0 0 .098-.245c.001-.89-.524-3.815-.527-3.844a.26.26 0 0 1 .026-.203.247.247 0 0 1 .165-.113.241.241 0 0 1 .195.05.256.256 0 0 1 .097.18c.249 1.302.427 2.616.535 3.936a.768.768 0 0 1-.068.362.74.74 0 0 1-.228.284c-.157.102-.338.16-.524.165z" fill="#EA9191"/><path d="M53.55 90.78c-.122.72.15 1.364.608 1.443.457.08.926-.447 1.064-1.166.139-.718-.154-1.368-.607-1.442-.452-.075-.974.441-1.064 1.166z" fill="#2E3062"/><path d="M52.812 88.45c-.07 0-.14-.035-.14-.106-.036-.07 0-.175.07-.246 1.16-.597 2.494-.175 2.565-.14.105.035.14.14.105.21-.035.07-.14.141-.21.106 0 0-1.266-.386-2.285.14-.07 0-.07.036-.105.036zm6.84-.058c-.07-.003-.139-.041-.136-.111-.031-.072.009-.176.082-.243 1.186-.543 2.5-.06 2.569-.022.103.04.133.147.095.216-.038.069-.147.134-.215.095 0 0-1.246-.444-2.288.035-.07-.003-.072.032-.107.03z" fill="#040962"/><path d="M59.944 90.97c-.122.719.15 1.363.607 1.443.458.08.927-.447 1.065-1.166.139-.719-.154-1.369-.607-1.443-.452-.075-.974.442-1.065 1.166z" fill="#2E3062"/><path fill-rule="evenodd" clip-rule="evenodd" d="M57.902 102.298l.02 3.407c-1.213-.2-2.39-.571-3.5-1.1a6.46 6.46 0 0 1-3.348-3.583 17.372 17.372 0 0 0 6.125 1.261l.703.015z" fill="#EA9191"/><path fill-rule="evenodd" clip-rule="evenodd" d="M82.368 140.927s5.218-.047 6.914.592c1.696.639 2.3 1.522 2.3 1.522l1.727.435s.326 1.304 0 1.304-9.498.87-9.498.87l-1.957-.252s.64-2.925.435-3.494c-.204-.57-1.187-1.211-1.187-1.211l1.266.234z" fill="#F4B1B1"/><path fill-rule="evenodd" clip-rule="evenodd" d="M40.655 115.925c-1.8-3.992-7.151-6.167-10.25-3.064-2.316 2.318-2.803 2.637-2.86 5.714-.169 9.513 3.721 36.312 14.362 37.912 5.836.881 15.36 1.813 21.629 1.596 2.533-.087 4.566.013 5.566-.733 3.453-2.587-1.479-6.523-1.479-6.523s-18.87-6.773-21.078-7.445c-3.655-1.115-4.631-24.65-5.89-27.451" fill="#FFC86B"/><path fill-rule="evenodd" clip-rule="evenodd" d="M28.355 115.322c-5.797 8.467 3.196 39.697 13.552 41.165 5.845.831 15.36 1.811 21.629 1.596 2.53-.085 4.566.013 5.566-.73 0 0-18.639-2.392-27.488-4.941-7.984-2.304-13.527-27.757-13.264-37.09" fill="#FFBC4A"/><path fill-rule="evenodd" clip-rule="evenodd" d="M73.016 148.168a8.237 8.237 0 0 0-1.305 3.462c-.243 1.983.218 3.016.218 3.016 5.233.421 15.74.026 15.72.021-.354-.052.49-.806-.637-1.385-.811-.415-3.479-.55-4.414-1.172-4.162-2.768-6.958-2.224-9.567-3.942" fill="#E89292"/><path fill-rule="evenodd" clip-rule="evenodd" d="M75.118 130.047l36.418 2.492c1.446.098 2.918 1.213 2.634 2.633l-4.477 22.326c-.285 1.42-1.185 2.633-2.634 2.633h-37.55c-1.449 0-2.953-1.219-2.634-2.633l5.61-24.818c.32-1.413 1.19-2.733 2.633-2.633z" fill="#008EF4"/><path d="M115.153 130.047h-49.19l2.276 30.084h49.066l-2.152-30.084z" fill="url(#paint1_linear)"/><path fill-rule="evenodd" clip-rule="evenodd" d="M93.561 142.623c1.135.366 1.698 1.764 1.261 3.127-.437 1.363-1.713 2.175-2.846 1.805-1.133-.37-1.7-1.766-1.263-3.127.437-1.361 1.713-2.174 2.848-1.805z" fill="#EEF4F8"/><path fill-rule="evenodd" clip-rule="evenodd" d="M49.059 157.672H68.12l1.383 2.459H47.828v-1.232a1.236 1.236 0 0 1 1.23-1.229" fill="#008EF4"/><path fill-rule="evenodd" clip-rule="evenodd" d="M53.919 86.33s8.786 2.3 13.737-.7c3.246-2.253 3.614-6.812-1.146-10.176-6.13-4.331-17.89-3.055-22.396 3.848-1.574 2.41-3.148 6.597-5.016 10.872-4.349 9.924-15.977 3.725-19.297 20.38-.154.77 2.61-.967 5.062-1.596-2.349 5.467.767 9.526 1.374 10.285 2.642-12.061 13.635-12.531 22.074-13.496 1.252-1.159 1.424-4.421 1.435-6.05 0 0-2.542-1.787-2.416-3.863.126-2.077.711-2.022.948-1.972.237.05 1.596.841 1.596.841.48-2.696.372-8.069 4.051-8.367" fill="#003398"/><path fill-rule="evenodd" clip-rule="evenodd" d="M49.367 97.43a.966.966 0 1 0 0 1.931.966.966 0 0 0 0-1.931z" fill="#fff"/><path d="M91.843 161.41h-15.22c-.72 0-1.305-.457-1.396-1.039h17.501c.192.498-.247 1.039-.895 1.039" fill="#000446"/><path fill-rule="evenodd" clip-rule="evenodd" d="M13.747 188.252h65.977c3.935 0 7.155 2.255 7.155 5.001 0 2.755-3.22 5.001-7.156 5.001H13.748c-3.937 0-7.158-2.253-7.158-5.001 0-2.753 3.22-5.001 7.158-5.001z" fill="#9D1F39"/><path fill-rule="evenodd" clip-rule="evenodd" d="M79.724 196.747h56.504c-1.626-1.794-2.259-4.348 0-6.958H79.724c-1.305 0-2.392 1.57-2.392 3.479s1.087 3.479 2.392 3.479z" fill="#E8E8E8"/><path fill-rule="evenodd" clip-rule="evenodd" d="M134.763 193.399c-.028-1.139.391-2.368 1.465-3.616H79.724c-1.305 0-2.392 1.57-2.392 3.479v.135l57.431.002z" fill="#CDCDCD"/><path fill-rule="evenodd" clip-rule="evenodd" d="M137.45 198.272H79.593c-1.89 0-3.886-2.284-3.886-5.036 0-2.753 1.997-4.98 3.886-4.98h57.857l-.017 1.501-57.71.017c-1.304 0-2.391 1.57-2.391 3.479s1.087 3.479 2.392 3.479l57.709-.026.017 1.566z" fill="#BB3048"/><path fill-rule="evenodd" clip-rule="evenodd" d="M82.233 193.353h4.483c1.72.62 1.224 3.079 2.244 4.688l-2.648-1.329-1.922 1.244c-1.49-1.459-.638-3.951-2.157-4.603z" fill="#F2DE00"/><path fill-rule="evenodd" clip-rule="evenodd" d="M137.45 172.266H69.963c-4.588 0-8.343 3.599-8.343 7.995 0 4.397 3.755 7.996 8.343 7.996h67.487c4.591 0 8.343-3.599 8.343-7.996 0-4.398-3.755-7.995-8.343-7.995z" fill="#15378B"/><path fill-rule="evenodd" clip-rule="evenodd" d="M73.046 185.821H14.01c2.594-2.863 3.607-6.929 0-11.117h59.036c2.094 0 3.812 2.505 3.812 5.558 0 3.052-1.716 5.559-3.812 5.559z" fill="#E8E8E8"/><path fill-rule="evenodd" clip-rule="evenodd" d="M16.282 179.324c-.217-1.485-.913-3.044-2.272-4.62h59.036c1.874 0 3.448 2.007 3.757 4.62h-60.52z" fill="#CDCDCD"/><path fill-rule="evenodd" clip-rule="evenodd" d="M12.058 188.252h61.2c3.013 0 6.203-3.646 6.203-8.045s-3.19-7.947-6.204-7.947H12.058l.028 2.392 60.96.043c2.094 0 3.812 2.505 3.812 5.558s-1.716 5.56-3.812 5.56l-60.96-.042-.028 2.481z" fill="#254FB7"/><path fill-rule="evenodd" clip-rule="evenodd" d="M45.508 188.252h19.278c-2.875 0-5.219 2.253-5.219 5.001s2.35 5.001 5.219 5.001H45.508c-2.872 0-5.218-2.253-5.218-5.001s2.352-5.001 5.218-5.001z" fill="#BB3048"/><path fill-rule="evenodd" clip-rule="evenodd" d="M129.136 172.266h-7.643c4.588 0 8.343 3.597 8.343 7.995a7.858 7.858 0 0 1-2.912 6.056l-2.516 1.935h4.728c4.587 0 8.342-3.596 8.342-7.995s-3.755-7.995-8.342-7.995" fill="#3882C8"/><path fill-rule="evenodd" clip-rule="evenodd" d="M62.292 179.142h5.249l-.8 5.127-2.499-1.188-2.75 1.188.8-5.127z" fill="#BB3048"/><path fill-rule="evenodd" clip-rule="evenodd" d="M120.921 160.062H65.853c-3.744 0-6.807 2.789-6.807 6.199 0 3.409 3.063 6.199 6.807 6.199h55.068c3.744 0 6.808-2.79 6.808-6.199 0-3.41-3.064-6.199-6.808-6.199z" fill="#9D1F39"/><path fill-rule="evenodd" clip-rule="evenodd" d="M68.37 170.57H20.198c2.115-2.22 2.942-5.372 0-8.619h48.17c1.71 0 3.11 1.942 3.11 4.31 0 2.368-1.4 4.309-3.11 4.309z" fill="#E8E8E8"/><path fill-rule="evenodd" clip-rule="evenodd" d="M22.025 165.393c-.196-1.109-.768-2.27-1.829-3.442H68.37c1.494 0 2.753 1.485 3.044 3.442H22.025z" fill="#CDCDCD"/><path fill-rule="evenodd" clip-rule="evenodd" d="M18.602 172.46h49.939c2.459 0 5.062-2.827 5.062-6.236 0-3.41-2.61-6.162-5.062-6.162H18.603l.023 1.857 49.743.032c1.709 0 3.11 1.942 3.11 4.31 0 2.368-1.401 4.309-3.11 4.309l-49.742-.032-.024 1.922zm95.535-12.398h-6.225c3.742 0 6.806 2.789 6.806 6.199a5.987 5.987 0 0 1-2.375 4.694l-1.987 1.505h3.792c3.744 0 6.806-2.79 6.806-6.199 0-3.41-3.064-6.199-6.806-6.199m-28.566 0h-6.236c3.744 0 6.805 2.789 6.805 6.199a5.97 5.97 0 0 1-2.374 4.694l-2.392 1.505h4.197c3.744 0 6.807-2.79 6.807-6.199 0-3.41-3.063-6.199-6.807-6.199z" fill="#BB3048"/><path fill-rule="evenodd" clip-rule="evenodd" d="M61.359 165.393h-4.483c-1.72.62-1.225 3.079-2.247 4.688l2.65-1.328 1.927 1.235c1.49-1.459.64-3.951 2.16-4.603" fill="#F7AB2B"/><path fill-rule="evenodd" clip-rule="evenodd" d="M.575 198.691h282.85c.152.002.298.214.406.589.108.375.168.884.169 1.415-.001.53-.061 1.037-.169 1.412-.108.374-.254.584-.406.584H.575c-.152 0-.298-.21-.406-.584-.108-.375-.168-.882-.169-1.412 0-.531.061-1.04.169-1.415.108-.375.254-.587.406-.589z" fill="#2F9EEE"/><path d="M99.096 47.71a22.707 22.707 0 1 1-.001-45.413 22.707 22.707 0 0 1 0 45.413z" fill="#FAF9FD"/><path d="M99.281 45.16c11.137-.09 20.093-9.19 20.004-20.327-.09-11.138-9.19-20.094-20.328-20.004-11.137.09-20.093 9.19-20.003 20.327.09 11.138 9.19 20.093 20.327 20.004z" fill="#fff"/><path d="M99.281 45.16c11.137-.09 20.093-9.19 20.004-20.327-.09-11.138-9.19-20.094-20.328-20.004-11.137.09-20.093 9.19-20.003 20.327.09 11.138 9.19 20.093 20.327 20.004z" fill="#fff"/><path d="M99.8 26.191a1.368 1.368 0 1 1 .5-1.868 1.378 1.378 0 0 1-.5 1.868z" fill="#269AD6"/><path d="M122.564 18.718A24.282 24.282 0 0 0 99.137.691a24.37 24.37 0 0 0-21.051 12.144 24.28 24.28 0 1 0 44.478 5.85v.033zm-4.736 17.086a21.616 21.616 0 1 1-7.916-29.5 21.605 21.605 0 0 1 7.916 29.5z" fill="#2F9EEE"/><path d="M99.112 9.18a.541.541 0 0 1-.54-.54V5.262a.54.54 0 0 1 1.081 0v3.376a.54.54 0 0 1-.54.541zm-8.178 2.196a.532.532 0 0 1-.467-.27L88.779 8.18a.533.533 0 0 1 .197-.737.549.549 0 0 1 .737.196l1.688 2.926a.54.54 0 0 1-.467.811zm-5.99 5.99a.54.54 0 0 1-.27-.074l-2.926-1.688a.549.549 0 0 1-.059-.897.533.533 0 0 1 .6-.037l2.925 1.688a.542.542 0 0 1-.27 1.008zm-2.188 8.178h-3.384a.541.541 0 0 1 0-1.082h3.384a.541.541 0 0 1 0 1.082zm-.737 9.866a.532.532 0 0 1-.468-.27.549.549 0 0 1 .197-.738l2.925-1.688a.542.542 0 1 1 .541.934l-2.9 1.688a.541.541 0 0 1-.295.074zm7.227 7.227a.54.54 0 0 1-.467-.819l1.688-2.925a.541.541 0 0 1 .934.54l-1.712 2.934a.548.548 0 0 1-.443.27zm9.866 2.647a.55.55 0 0 1-.54-.54v-3.377a.541.541 0 0 1 1.081 0v3.401a.55.55 0 0 1-.54.516zm9.866-2.647a.554.554 0 0 1-.467-.27l-1.688-2.925a.537.537 0 0 1-.077-.423.545.545 0 0 1 .464-.415.544.544 0 0 1 .547.297l1.688 2.925a.536.536 0 0 1-.036.6.537.537 0 0 1-.16.138.52.52 0 0 1-.271.073zm7.227-7.227a.54.54 0 0 1-.27-.073l-2.925-1.689a.538.538 0 0 1-.168-.72.54.54 0 0 1 .708-.214l2.926 1.688a.546.546 0 0 1 0 .937.535.535 0 0 1-.271.071zm2.647-9.866h-3.376a.54.54 0 0 1 0-1.082h3.376a.538.538 0 0 1 .541.541.544.544 0 0 1-.334.5.538.538 0 0 1-.207.041zm-5.572-8.178a.53.53 0 0 1-.467-.27.542.542 0 0 1 .197-.738l2.925-1.688a.536.536 0 0 1 .6.037.544.544 0 0 1 .188.569.546.546 0 0 1-.247.328l-2.926 1.688a.538.538 0 0 1-.27.074zm-5.99-5.99a.54.54 0 0 1-.467-.811l1.688-2.926a.553.553 0 0 1 .738-.196.537.537 0 0 1 .267.538.528.528 0 0 1-.071.2l-1.688 2.925a.526.526 0 0 1-.467.27zM99.088 24.56a.532.532 0 0 1-.541-.54V12.45a.54.54 0 0 1 1.081 0v11.57a.54.54 0 0 1-.54.54zm7.399 5.098a.59.59 0 0 1-.262-.066l-6.408-3.507a.557.557 0 0 1 .524-.983l6.416 3.507a.556.556 0 0 1 .213.737.537.537 0 0 1-.483.312z" fill="#269AD6"/><path fill-rule="evenodd" clip-rule="evenodd" d="M54.653 31.019h31.87a1.215 1.215 0 0 1 1.2 1.212v5.091H53.48v-5.091a1.214 1.214 0 0 1 1.174-1.212z" fill="#2F9EEE"/><path d="M87.736 37.322H53.464V62.2h34.272V37.322z" fill="#C2E9FE"/><path fill-rule="evenodd" clip-rule="evenodd" d="M57.112 32.756h2.16a.56.56 0 0 1 .566.566v1.05a.56.56 0 0 1-.566.567h-2.16a.587.587 0 0 1-.587-.566v-1.05a.587.587 0 0 1 .587-.567zm8.273 0h2.16a.56.56 0 0 1 .566.566v1.05a.56.56 0 0 1-.566.567h-2.16a.56.56 0 0 1-.567-.566v-1.05a.56.56 0 0 1 .567-.567zm8.27 0h2.16a.56.56 0 0 1 .554.566v1.05a.56.56 0 0 1-.566.567h-2.148a.564.564 0 0 1-.567-.566v-1.05a.563.563 0 0 1 .567-.567zm8.273 0h2.16a.564.564 0 0 1 .566.566v1.05a.564.564 0 0 1-.566.567h-2.16a.56.56 0 0 1-.57-.566v-1.05a.562.562 0 0 1 .567-.567h.003z" fill="#183E9D"/><path d="M66.465 28.914a.737.737 0 0 0-.737.737v3.92a.737.737 0 0 0 1.468 0v-3.92a.737.737 0 0 0-.731-.737zm16.543 0a.737.737 0 0 0-.74.737v3.92a.739.739 0 0 0 1.467 0v-3.92a.737.737 0 0 0-.727-.737zm-24.816 0a.737.737 0 0 0-.737.737v3.92a.736.736 0 0 0 1.257.52.746.746 0 0 0 .22-.52v-3.92a.746.746 0 0 0-.74-.737zm16.543 0a.737.737 0 0 0-.737.737v3.92a.74.74 0 0 0 1.467 0v-3.92a.737.737 0 0 0-.73-.737z" fill="#40494C"/><path d="M87.736 37.322H53.464v1.356h34.272v-1.356z" fill="#89C3E2"/><path fill-rule="evenodd" clip-rule="evenodd" d="M83.151 46.622h1.911a.66.66 0 0 1 .657.658v1.922a.66.66 0 0 1-.657.657h-1.91a.67.67 0 0 1-.658-.657V47.28a.67.67 0 0 1 .657-.658z" fill="#89C3E2"/><path fill-rule="evenodd" clip-rule="evenodd" d="M78.647 46.622h1.922a.654.654 0 0 1 .646.658v1.922a.654.654 0 0 1-.646.657h-1.922a.67.67 0 0 1-.657-.657V47.28a.669.669 0 0 1 .657-.658z" fill="#C53944"/><path fill-rule="evenodd" clip-rule="evenodd" d="M74.142 46.622h1.934a.67.67 0 0 1 .657.658v1.922a.67.67 0 0 1-.657.657h-1.934a.67.67 0 0 1-.657-.657V47.28a.67.67 0 0 1 .657-.658zm-4.505 0h1.925a.67.67 0 0 1 .658.658v1.922a.67.67 0 0 1-.658.657h-1.925a.67.67 0 0 1-.657-.657V47.28a.67.67 0 0 1 .657-.658zm-4.502 0h1.923a.67.67 0 0 1 .657.658v1.922a.669.669 0 0 1-.657.657h-1.923a.67.67 0 0 1-.66-.657V47.28a.67.67 0 0 1 .66-.658zm-9.015 0h1.922a.67.67 0 0 1 .657.658v1.922a.67.67 0 0 1-.657.657H56.12a.658.658 0 0 1-.646-.657V47.28a.657.657 0 0 1 .646-.658zm27.031 4.567h1.911a.66.66 0 0 1 .657.657v1.92a.664.664 0 0 1-.657.66h-1.91a.67.67 0 0 1-.658-.66v-1.92a.67.67 0 0 1 .657-.657zm-4.504 0h1.922a.654.654 0 0 1 .646.657v1.92a.658.658 0 0 1-.646.66h-1.922a.67.67 0 0 1-.657-.66v-1.92a.669.669 0 0 1 .657-.657zm-4.505 0h1.934a.669.669 0 0 1 .657.657v1.92a.669.669 0 0 1-.657.66h-1.934a.67.67 0 0 1-.657-.66v-1.92a.67.67 0 0 1 .657-.657z" fill="#89C3E2"/><path fill-rule="evenodd" clip-rule="evenodd" d="M69.637 51.189h1.925a.669.669 0 0 1 .658.657v1.92a.669.669 0 0 1-.658.66h-1.925a.67.67 0 0 1-.657-.66v-1.92a.67.67 0 0 1 .657-.657z" fill="#C53944"/><path fill-rule="evenodd" clip-rule="evenodd" d="M65.135 51.189h1.923a.669.669 0 0 1 .657.657v1.92a.669.669 0 0 1-.657.66h-1.923a.672.672 0 0 1-.66-.66v-1.92a.67.67 0 0 1 .66-.657zm-9.015 0h1.922a.669.669 0 0 1 .657.657v1.92a.67.67 0 0 1-.657.66H56.12a.66.66 0 0 1-.646-.66v-1.92a.657.657 0 0 1 .646-.657zm27.031 4.566h1.911a.66.66 0 0 1 .657.66v1.92a.66.66 0 0 1-.657.657h-1.91a.67.67 0 0 1-.658-.657v-1.92a.67.67 0 0 1 .657-.66zm-4.504 0h1.922a.657.657 0 0 1 .646.66v1.92a.654.654 0 0 1-.646.657h-1.922a.67.67 0 0 1-.657-.657v-1.92a.67.67 0 0 1 .657-.66z" fill="#89C3E2"/><path fill-rule="evenodd" clip-rule="evenodd" d="M74.142 55.755h1.934a.669.669 0 0 1 .657.66v1.92a.669.669 0 0 1-.657.648h-1.934a.67.67 0 0 1-.657-.657v-1.92a.67.67 0 0 1 .657-.65z" fill="#C53944"/><path fill-rule="evenodd" clip-rule="evenodd" d="M69.637 55.755h1.925a.669.669 0 0 1 .658.66v1.92a.669.669 0 0 1-.658.648h-1.925a.67.67 0 0 1-.657-.657v-1.92a.67.67 0 0 1 .657-.65zm-4.502 0h1.923a.669.669 0 0 1 .657.66v1.92a.669.669 0 0 1-.657.648h-1.923a.669.669 0 0 1-.66-.657v-1.92a.67.67 0 0 1 .66-.65zm-9.015 0h1.922a.669.669 0 0 1 .657.66v1.92a.669.669 0 0 1-.651.648H56.12a.657.657 0 0 1-.646-.657v-1.92a.657.657 0 0 1 .646-.65z" fill="#89C3E2"/><path fill-rule="evenodd" clip-rule="evenodd" d="M60.63 55.755h1.923a.669.669 0 0 1 .657.66v1.92a.67.67 0 0 1-.657.648h-1.922a.669.669 0 0 1-.66-.657v-1.92a.672.672 0 0 1 .66-.65z" fill="#C53944"/><path fill-rule="evenodd" clip-rule="evenodd" d="M60.63 51.189h1.923a.669.669 0 0 1 .657.657v1.92a.67.67 0 0 1-.657.66h-1.922a.672.672 0 0 1-.66-.66v-1.92a.669.669 0 0 1 .66-.657zm22.521-9.13h1.911a.66.66 0 0 1 .657.657v1.92a.66.66 0 0 1-.657.657h-1.91a.67.67 0 0 1-.658-.657v-1.92a.67.67 0 0 1 .657-.657zm-4.504 0h1.922a.654.654 0 0 1 .646.657v1.92a.655.655 0 0 1-.646.657h-1.922a.67.67 0 0 1-.657-.657v-1.92a.669.669 0 0 1 .657-.657zm-4.505 0h1.934a.67.67 0 0 1 .657.657v1.92a.67.67 0 0 1-.657.657h-1.934a.67.67 0 0 1-.657-.657v-1.92a.67.67 0 0 1 .657-.657z" fill="#89C3E2"/><path fill-rule="evenodd" clip-rule="evenodd" d="M69.637 42.059h1.925a.67.67 0 0 1 .658.657v1.92a.67.67 0 0 1-.658.657h-1.925a.67.67 0 0 1-.657-.657v-1.92a.67.67 0 0 1 .657-.657z" fill="#C53944"/><path fill-rule="evenodd" clip-rule="evenodd" d="M65.135 42.059h1.923a.67.67 0 0 1 .657.657v1.92a.669.669 0 0 1-.657.657h-1.923a.67.67 0 0 1-.66-.657v-1.92a.67.67 0 0 1 .66-.657zm-9.015 0h1.922a.67.67 0 0 1 .657.657v1.92a.67.67 0 0 1-.657.657H56.12a.657.657 0 0 1-.646-.657v-1.92a.657.657 0 0 1 .646-.657zm4.51 0h1.923a.67.67 0 0 1 .657.657v1.92a.67.67 0 0 1-.657.657h-1.922a.67.67 0 0 1-.66-.657v-1.92a.669.669 0 0 1 .66-.657z" fill="#89C3E2"/><path fill-rule="evenodd" clip-rule="evenodd" d="M60.63 46.622h1.923a.67.67 0 0 1 .657.658v1.922a.67.67 0 0 1-.657.657h-1.922a.67.67 0 0 1-.66-.657V47.28a.669.669 0 0 1 .66-.658z" fill="#C53944"/><defs><filter id="filter0_d" x="212.779" y="80.749" width="57.332" height="43.684" filterUnits="userSpaceOnUse" color-interpolation-filters="sRGB"><feFlood flood-opacity="0" result="BackgroundImageFix"/><feColorMatrix in="SourceAlpha" values="0 0 0 0 0 0 0 0 0 0 0 0 0 0 0 0 0 0 127 0"/><feOffset dy="2"/><feGaussianBlur stdDeviation="2.5"/><feColorMatrix values="0 0 0 0 0.184314 0 0 0 0 0.619608 0 0 0 0 0.933333 0 0 0 0.1 0"/><feBlend in2="BackgroundImageFix" result="effect1_dropShadow"/><feBlend in="SourceGraphic" in2="effect1_dropShadow" result="shape"/></filter><filter id="filter1_d" x="120.694" y="119.052" width="145.787" height="44.272" filterUnits="userSpaceOnUse" color-interpolation-filters="sRGB"><feFlood flood-opacity="0" result="BackgroundImageFix"/><feColorMatrix in="SourceAlpha" values="0 0 0 0 0 0 0 0 0 0 0 0 0 0 0 0 0 0 127 0"/><feOffset dy="2"/><feGaussianBlur stdDeviation="2.5"/><feColorMatrix values="0 0 0 0 0.184314 0 0 0 0 0.619608 0 0 0 0 0.933333 0 0 0 0.1 0"/><feBlend in2="BackgroundImageFix" result="effect1_dropShadow"/><feBlend in="SourceGraphic" in2="effect1_dropShadow" result="shape"/></filter><linearGradient id="paint0_linear" x1="214.137" y1="169.226" x2="216.757" y2="63.992" gradientUnits="userSpaceOnUse"><stop stop-color="#003CD3"/><stop offset=".346" stop-color="#1153DB"/><stop offset=".722" stop-color="#3E8EEF"/><stop offset="1" stop-color="#61BCFF"/></linearGradient><linearGradient id="paint1_linear" x1="87.343" y1="172.112" x2="100.504" y2="106.612" gradientUnits="userSpaceOnUse"><stop stop-color="#2491FF"/><stop offset=".28" stop-color="#69B4FE"/><stop offset=".63" stop-color="#B8DBFE"/><stop offset=".88" stop-color="#EAF3FD"/><stop offset="1" stop-color="#FDFDFD"/></linearGradient><clipPath id="clip0"><path fill="#fff" d="M255.091 108.975h4.739v4.885h-4.739z"/></clipPath><clipPath id="clip1"><path fill="#fff" d="M250.222 147.857h4.435v4.435h-4.435z"/></clipPath></defs></svg>