<svg width="728" height="428" fill="none" xmlns="http://www.w3.org/2000/svg"><path d="M363.617 427.604c200.821 0 363.618-5.389 363.618-12.037 0-6.647-162.797-12.036-363.618-12.036C162.797 403.531 0 408.92 0 415.567c0 6.648 162.797 12.037 363.617 12.037z" fill="#2F9EEE"/><path d="M228.81 348.897v-2.785H41.458a6.585 6.585 0 0 0-6.582 6.583v20.602a6.582 6.582 0 0 0 6.582 6.583H228.81v-2.743h-1.793v-28.24h1.793z" fill="#FFD054"/><path d="M240.942 382.665v-2.743H20.666a6.59 6.59 0 0 0-6.593 6.583v20.602a6.586 6.586 0 0 0 4.07 6.085c.8.33 1.658.499 2.523.498h220.276v-2.743h-1.762v-28.282h1.762z" fill="#6AE0F6"/><path d="M22.09 407.107v-20.602a6.594 6.594 0 0 1 6.583-6.583h-3.25a6.592 6.592 0 0 0-6.593 6.583v20.602a6.585 6.585 0 0 0 6.594 6.583h3.249a6.579 6.579 0 0 1-6.082-4.064 6.578 6.578 0 0 1-.501-2.519z" fill="#fff"/><path d="M30.53 407.107v-20.602a6.594 6.594 0 0 1 6.582-6.583h-3.25a6.592 6.592 0 0 0-6.593 6.583v20.602a6.585 6.585 0 0 0 6.594 6.583h3.249a6.579 6.579 0 0 1-6.082-4.064 6.578 6.578 0 0 1-.5-2.519z" fill="#fff"/><path d="M71.871 348.897h155.146v28.282H71.871a5.516 5.516 0 0 1-5.517-5.517v-17.248a5.518 5.518 0 0 1 5.517-5.517zm21.942 33.768H239.18v28.282H93.813a5.52 5.52 0 0 1-5.517-5.517v-17.248a5.518 5.518 0 0 1 5.517-5.517z" fill="#E8E8E8"/><path d="M14.073 331.596v-2.742h220.286a6.582 6.582 0 0 1 6.583 6.582v4.136a6.584 6.584 0 0 1-6.583 6.582H14.073v-2.743h1.804v-11.815h-1.804z" fill="#FF867E"/><path d="M15.877 343.412H161.2c1.461 0 2.863-.58 3.898-1.612a5.52 5.52 0 0 0 1.619-3.895v-.791c0-.725-.142-1.442-.42-2.111a5.493 5.493 0 0 0-1.196-1.79 5.517 5.517 0 0 0-3.901-1.616H15.876v11.815z" fill="#E8E8E8"/><path d="M47.977 352.094h-7.669v21.889h7.67v-21.889zm5.286 0h-2.11v21.889h2.11v-21.889z" fill="#fff"/><path d="M165.199 269.79h-96.26v59.064h96.26V269.79z" fill="url(#paint0_linear)"/><path d="M116.515 240.031L23.282 269.79l93.233 29.748 93.233-29.748-93.233-29.759z" fill="url(#paint1_linear)"/><path d="M116.515 263.376l-61.3 16.604v24.389" stroke="#FFD054" stroke-width="2" stroke-linecap="round" stroke-linejoin="round"/><path d="M55.362 301.532a3.574 3.574 0 0 1 3.576 3.576v15.823h-7.152v-15.823a3.576 3.576 0 0 1 3.576-3.576z" fill="#FFD054"/><path d="M400.967 26.373l50.709-22.006-47.956 11.995-2.753 10.01z" fill="#DEC3F7"/><path d="M400.967 12.522l50.709-8.155L392 0l8.967 12.522z" fill="#fff"/><path d="M403.72 16.362l9.895 13.83 38.061-25.825-47.956 11.995z" fill="#E6D1F9"/><path d="M400.967 12.522v13.85l2.753-10.01 47.956-11.995-50.709 8.155z" fill="#E6D1F9"/><path d="M271.38 65.719h-.106a.522.522 0 0 1-.334-.226.529.529 0 0 1-.077-.397c.063-.352.137-.703.221-1.055a.52.52 0 0 1 .812-.317.526.526 0 0 1 .212.55c-.074.337-.148.674-.211 1.054a.53.53 0 0 1-.517.39zm-36.445 23.687a.474.474 0 0 1-.164.04.528.528 0 0 1-.476-.567c.064-.71.148-1.427.245-2.135a.54.54 0 0 1 .205-.35.524.524 0 0 1 .585-.034.515.515 0 0 1 .244.323.51.51 0 0 1 .012.205c-.089.696-.179 1.391-.235 2.09a.536.536 0 0 1-.416.428zm1.263-7.318a.485.485 0 0 1-.248.007.537.537 0 0 1-.328-.241.526.526 0 0 1-.059-.403c.177-.695.366-1.383.576-2.075a.535.535 0 0 1 .664-.348.53.53 0 0 1 .345.653c-.194.668-.386 1.345-.586 2.035a.515.515 0 0 1-.364.372zM238.516 75a.545.545 0 0 1-.319-.019.507.507 0 0 1-.292-.283.527.527 0 0 1-.041-.203.526.526 0 0 1 .044-.203c.271-.664.557-1.31.851-1.97a.542.542 0 0 1 .299-.273.529.529 0 0 1 .659.722c-.289.636-.578 1.229-.841 1.924a.523.523 0 0 1-.36.349V75zm127.256-36.745c-.687.168-1.396.245-2.089.34a.526.526 0 0 1-.598-.44.542.542 0 0 1 .45-.6l2.087-.35a.527.527 0 0 1 .623.412.54.54 0 0 1-.458.699l-.015-.061zm5.106-1.322a.526.526 0 0 1-.47-.906.52.52 0 0 1 .18-.098c.686-.17 1.322-.456 1.998-.71a.55.55 0 0 1 .682.3.53.53 0 0 1-.31.684c-.666.251-1.334.492-1.998.71l-.082.02zm-129.157 31.4a.476.476 0 0 1-.383-.058.52.52 0 0 1-.177-.717c.358-.62.711-1.26 1.102-1.835a.529.529 0 0 1 .985.354.53.53 0 0 1-.089.197 66.465 66.465 0 0 0-1.086 1.81.536.536 0 0 1-.28.275l-.072-.026zm116.651-29.247l-.103.025-2.154.074a.54.54 0 0 1-.017-1.083 73.515 73.515 0 0 0 2.104-.06.539.539 0 0 1 .548.505.529.529 0 0 1-.343.595l-.035-.056zm19.338-5.074a.528.528 0 0 1-.407-.009.531.531 0 0 1 .022-.983 43.863 43.863 0 0 0 1.818-1.044.548.548 0 0 1 .754.194.544.544 0 0 1-.035.611.548.548 0 0 1-.16.143c-.615.37-1.233.728-1.907 1.078l-.085.01zM350.988 39.1l-.154.038a75.141 75.141 0 0 1-2.128-.128.525.525 0 0 1-.305-.925.527.527 0 0 1 .383-.126l2.105.123a.539.539 0 0 1 .497.562.52.52 0 0 1-.398.456zm32.959-9.1a.537.537 0 1 1-.457-.974 44.246 44.246 0 0 0 1.63-1.324.53.53 0 0 1 .688.808 46.42 46.42 0 0 1-1.678 1.348.474.474 0 0 1-.183.142zm-40.356 8.486a.602.602 0 0 1-.185.045l-2.112-.24a.55.55 0 0 1-.461-.593.529.529 0 0 1 .593-.46l2.102.242a.537.537 0 0 1 .572.495.535.535 0 0 1-.494.572l-.015-.06zm-97.689 23.702a.53.53 0 0 1-.566-.226.524.524 0 0 1 .024-.608c.424-.571.864-1.125 1.311-1.691a.538.538 0 0 1 .742-.074.53.53 0 0 1 .074.742 49.012 49.012 0 0 0-1.285 1.663.57.57 0 0 1-.31.196l.01-.002zm143.611-37.12a.528.528 0 0 1-.499-.877c.496-.502.981-1.002 1.462-1.522a.53.53 0 1 1 .775.721 85.75 85.75 0 0 1-1.49 1.54.502.502 0 0 1-.259.14l.011-.003zm-53.318 12.457a.61.61 0 0 1-.185.045l-2.102-.287a.51.51 0 0 1-.352-.2.515.515 0 0 1-.098-.394.52.52 0 0 1 .204-.35.525.525 0 0 1 .391-.101l2.092.289a.537.537 0 0 1 .067 1.07l-.017-.072zm-85.506 18.954a.537.537 0 0 1-.498-.127.517.517 0 0 1-.16-.371.525.525 0 0 1 .15-.376c.493-.512.986-1.025 1.505-1.522a.527.527 0 0 1 .739.003.536.536 0 0 1 0 .75c-.508.494-.994.994-1.489 1.452a.569.569 0 0 1-.236.232l-.011-.04zm78.143-19.956a.589.589 0 0 1-.184.045l-2.107-.264a.527.527 0 0 1-.26-.939.537.537 0 0 1 .392-.114l2.107.264a.536.536 0 0 1 .068 1.07l-.016-.062zm-7.388-.8l-.164.04-2.103-.156a.552.552 0 1 1 .066-1.103l2.118.175a.522.522 0 0 1 .363.178.506.506 0 0 1 .123.386.524.524 0 0 1-.403.48zm-65.33 15.695a.516.516 0 0 1-.531-.173.524.524 0 0 1 .067-.744 63.36 63.36 0 0 1 1.67-1.335.516.516 0 0 1 .739.09.538.538 0 0 1-.09.739c-.556.43-1.1.868-1.642 1.317a.462.462 0 0 1-.205.137l-.008-.03zm57.953-16.14l-.144.036-2.113-.067a.544.544 0 1 1 .014-1.09l2.126.075a.529.529 0 0 1 .515.546.55.55 0 0 1-.409.59l.011-.09zm-51.952 11.698a.534.534 0 1 1-.426-.982l1.816-1.142a.518.518 0 0 1 .718.182.53.53 0 0 1-.169.726 62.55 62.55 0 0 0-1.787 1.124.486.486 0 0 1-.162.181l.01-.09zm44.512-11.822l-.113.027c-.706 0-1.41.01-2.162.044a.513.513 0 0 1-.494-.309.525.525 0 0 1 .475-.74l2.159-.054a.527.527 0 0 1 .531.521.525.525 0 0 1-.414.57l.018-.06zm-38.102 8.159a.53.53 0 1 1-.364-.997c.638-.32 1.279-.63 1.942-.934a.538.538 0 0 1 .447.976c-.636.287-1.276.597-1.945.924l-.08.03zm30.665-7.829l-.082.02-2.129.177a.534.534 0 1 1-.098-1.062c.711-.067 1.415-.12 2.132-.166a.527.527 0 0 1 .563.48.538.538 0 0 1-.391.574l.005-.023zm-23.843 4.868a.519.519 0 0 1-.596-.729.53.53 0 0 1 .295-.273c.666-.25 1.335-.49 1.999-.709a.53.53 0 0 1 .334 1.005l-1.999.709-.033-.003zm16.472-4.053l-.052.012-2.091.33a.53.53 0 0 1-.536-.243.536.536 0 0 1 .172-.73.524.524 0 0 1 .194-.071c.696-.114 1.394-.22 2.094-.32a.528.528 0 0 1 .252 1.024l-.033-.002zm-9.372 1.871a.527.527 0 1 1-.252-1.024l2.049-.504a.528.528 0 0 1 .252 1.024l-2.049.504zm232.244 21.682a.509.509 0 0 1-.422-.211.527.527 0 0 1 .106-.738l.833-.633a.55.55 0 0 1 .749.105.538.538 0 0 1-.105.738l-.844.633a.517.517 0 0 1-.317.106z" fill="#97ABFF"/><path d="M691.59 347.167s20.813-12.659 31.499 1.941c11.794 15.992-16.172 69.793-34.706 49.75-18.535-20.044 0-13.44 0-13.44s8.27 13.714 17.933.96c9.959-13.134 12.227-28.219 4.779-31.173-7.448-2.953-17.417 4.336-17.417 4.336l-2.088-12.374z" fill="#FFDAB6"/><path d="M689.554 415.568h-61.597a2.113 2.113 0 0 1-2.11-1.962l-7.11-86.166a2.102 2.102 0 0 1 .543-1.623 2.105 2.105 0 0 1 1.567-.687h75.817a2.105 2.105 0 0 1 1.567.687 2.107 2.107 0 0 1 .542 1.623l-7.036 86.187a2.107 2.107 0 0 1-2.183 1.941z" fill="#FFDAB6"/><path d="M651.714 228.331a26.947 26.947 0 0 1 9.431 22.48c-.918 11.267-8.851 20.856-10.887 31.975a31.76 31.76 0 0 0 5.559 24.263c-3.502-5.897-2.943-12.343-1.35-18.989 1.593-6.646 4.694-12.87 7.237-19.241 2.542-6.372 4.589-13.187 3.903-20.044a25.876 25.876 0 0 0-4.345-11.99 25.865 25.865 0 0 0-9.548-8.454z" fill="#DEE4FF"/><path d="M653.37 241.803a20.823 20.823 0 0 1-9.313-13.986 20.844 20.844 0 0 1 4.038-16.311 16.117 16.117 0 0 0-7.764 16.541 17.196 17.196 0 0 0 13.039 13.756zm21.182 31.161c-5.791 4.484-11.139 9.948-13.777 16.795-2.637 6.846-2.11 15.275 2.87 20.697a53.802 53.802 0 0 1 10.907-37.492z" fill="#DEE4FF"/><path d="M621.153 285.328a.699.699 0 0 1-.39 0 .777.777 0 0 1-.486-.58l-1.55-9.167a.753.753 0 0 1 .27-.744.764.764 0 0 1 .785-.1l8.713 3.239a.753.753 0 0 1 .486.584.758.758 0 0 1-.264.713l-7.163 5.929a.754.754 0 0 1-.401.126zm-.707-8.755l1.108 6.582 5.137-4.219-6.245-2.363zM413.325 63.934a.768.768 0 0 0-.37-.45.76.76 0 0 0-.58-.057l-3.07.908-.907-3.05a.76.76 0 0 0-1.456.433l.918 3.07-3.07.918a.758.758 0 0 0-.537.641.742.742 0 0 0 .162.553.737.737 0 0 0 .505.277.75.75 0 0 0 .292-.026l3.07-.907.918 3.07a.759.759 0 0 0 1.456-.433l-.918-3.07 3.07-.917a.756.756 0 0 0 .549-.66.782.782 0 0 0-.032-.3z" fill="#fff"/><path d="M512.402 361.103l-2.837-1.488 1.487-2.837a.76.76 0 0 0-1.34-.707l-1.529 2.838-2.838-1.477a.737.737 0 0 0-.867.074.74.74 0 0 0-.188.242.756.756 0 0 0-.068.596.756.756 0 0 0 .385.459l2.837 1.488-1.371 2.806a.746.746 0 0 0-.068.595.764.764 0 0 0 .384.46.782.782 0 0 0 .865-.088.759.759 0 0 0 .19-.239l1.488-2.838 2.837 1.487a.751.751 0 0 0 .611.105.773.773 0 0 0 .486-.386.76.76 0 0 0-.4-1.059l-.064-.031z" fill="#6AE0F6"/><path d="M362.267 122.144a2.753 2.753 0 1 1-5.507-.02 2.753 2.753 0 0 1 5.507.02z" fill="#97ABFF"/><path d="M114.753 395.694h490.713v6.002a11.99 11.99 0 0 1-11.994 11.994H126.758a11.99 11.99 0 0 1-11.994-11.994v-6.002h-.011z" fill="url(#paint2_linear)"/><path d="M149.513 113.747h421.12a11.995 11.995 0 0 1 11.995 11.994v269.952H137.455V125.741a11.986 11.986 0 0 1 3.535-8.503 12 12 0 0 1 8.523-3.491z" fill="url(#paint3_linear)"/><path d="M565.876 378.899V130.542H154.344v248.357h411.532z" fill="#E3E9FF"/><path d="M665.398 49H351.602C349.06 49 347 50.374 347 52.07v131.86c0 1.695 2.06 3.07 4.602 3.07h313.796c2.542 0 4.602-1.375 4.602-3.07V52.07c0-1.696-2.06-3.07-4.602-3.07z" fill="#FAF9FD"/><path d="M628 64a4.004 4.004 0 0 1-2.469 3.695A4 4 0 1 1 628 64zm16 0c0 .791-.264 1.564-.758 2.222a4.435 4.435 0 0 1-2.02 1.474 5.025 5.025 0 0 1-2.6.227 4.696 4.696 0 0 1-2.304-1.095 3.89 3.89 0 0 1-1.232-2.048 3.59 3.59 0 0 1 .257-2.31c.34-.732.917-1.356 1.657-1.796a4.91 4.91 0 0 1 2.5-.674c1.193 0 2.338.421 3.182 1.172.844.75 1.318 1.767 1.318 2.828zm14 0a4.004 4.004 0 0 1-2.469 3.695A4 4 0 1 1 658 64z" fill="#E6D1F9"/><path d="M444.93 80h-83.86c-1.696 0-3.07.458-3.07 1.022v18.956c0 .564 1.374 1.022 3.07 1.022h83.86c1.696 0 3.07-.458 3.07-1.022V81.022c0-.564-1.374-1.022-3.07-1.022z" fill="#2F9EEE"/><path d="M462.036 80.5h82.928c.799 0 1.502.11 1.987.273.246.083.408.17.499.242.026.02.041.036.05.046V99.94a.363.363 0 0 1-.05.046 1.72 1.72 0 0 1-.499.242c-.485.163-1.188.273-1.987.273h-82.928c-.799 0-1.502-.11-1.987-.273a1.708 1.708 0 0 1-.499-.242.363.363 0 0 1-.05-.046V81.06a.363.363 0 0 1 .05-.046c.091-.072.253-.16.499-.242.485-.163 1.188-.273 1.987-.273zm85.475.576l-.002-.003.002.003zm0 18.848l-.002.003a.014.014 0 0 1 .002-.003zm-88.022 0l.002.003-.002-.003zm0-18.848l.002-.003-.002.003zM562.07 80.5h83.86c.809 0 1.521.11 2.013.274.249.083.414.17.506.243.026.02.042.035.051.046v18.874a.384.384 0 0 1-.051.046c-.092.073-.257.16-.506.243-.492.164-1.204.274-2.013.274h-83.86c-.809 0-1.521-.11-2.013-.274-.249-.083-.414-.17-.506-.243a.384.384 0 0 1-.051-.046V81.063a.384.384 0 0 1 .051-.046c.092-.073.257-.16.506-.243.492-.164 1.204-.274 2.013-.274zm86.442.578l-.002-.003.002.003zm0 18.844l-.002.003.002-.003zm-89.024 0l.002.003-.002-.003zm0-18.844l.002-.003-.002.003zm2.582 27.422h83.86c.809 0 1.521.11 2.013.274.249.083.414.17.506.243a.38.38 0 0 1 .051.046v18.874a.38.38 0 0 1-.051.046c-.092.073-.257.16-.506.243-.492.164-1.204.274-2.013.274h-83.86c-.809 0-1.521-.11-2.013-.274-.249-.083-.414-.17-.506-.243a.38.38 0 0 1-.051-.046v-18.874a.38.38 0 0 1 .051-.046c.092-.073.257-.16.506-.243.492-.164 1.204-.274 2.013-.274zm86.442.578l-.002-.003a.012.012 0 0 0 .002.003zm0 18.844l-.002.003a.012.012 0 0 1 .002-.003zm-89.024 0a.012.012 0 0 0 0 0zm0-18.844l.002-.003a.012.012 0 0 1-.002.003zm-97.452-.578h82.928c.799 0 1.502.11 1.987.273.246.083.408.17.499.242a.43.43 0 0 1 .05.046v18.878a.43.43 0 0 1-.05.046 1.72 1.72 0 0 1-.499.242c-.485.163-1.188.273-1.987.273h-82.928c-.799 0-1.502-.11-1.987-.273a1.72 1.72 0 0 1-.499-.242.43.43 0 0 1-.05-.046v-18.878a.43.43 0 0 1 .05-.046 1.72 1.72 0 0 1 .499-.242c.485-.163 1.188-.273 1.987-.273zm85.475.576l-.002-.003.002.003zm0 18.848l-.002.004.002-.004zm-88.022 0l.002.003-.002-.003zm0-18.848l.002-.003a.012.012 0 0 1-.002.003zm-98.419-.576h83.86c.809 0 1.521.11 2.013.274.249.083.414.17.506.243a.38.38 0 0 1 .051.046v18.874a.38.38 0 0 1-.051.046c-.092.073-.257.16-.506.243-.492.164-1.204.274-2.013.274h-83.86c-.809 0-1.521-.11-2.013-.274-.249-.083-.414-.17-.506-.243a.38.38 0 0 1-.051-.046v-18.874a.38.38 0 0 1 .051-.046c.092-.073.257-.16.506-.243.492-.164 1.204-.274 2.013-.274zm86.442.578l-.002-.003a.012.012 0 0 0 .002.003zm0 18.844l-.002.003a.012.012 0 0 1 .002-.003zm-89.024 0a.012.012 0 0 0 0 0zm0-18.844l.002-.003a.012.012 0 0 1-.002.003zm2.582 29.422h83.86c.809 0 1.521.11 2.013.274.249.083.414.17.506.243a.38.38 0 0 1 .051.046v18.874a.38.38 0 0 1-.051.046c-.092.073-.257.16-.506.243-.492.164-1.204.274-2.013.274h-83.86c-.809 0-1.521-.11-2.013-.274-.249-.083-.414-.17-.506-.243a.38.38 0 0 1-.051-.046v-18.874a.38.38 0 0 1 .051-.046c.092-.073.257-.16.506-.243.492-.164 1.204-.274 2.013-.274zm86.442.578l-.002-.003a.012.012 0 0 0 .002.003zm0 18.844l-.002.003a.012.012 0 0 1 .002-.003zm-89.024 0a.012.012 0 0 0 0 0zm0-18.844l.002-.003a.012.012 0 0 1-.002.003zm103.548-.578h82.928c.799 0 1.502.11 1.987.273.246.083.408.17.499.242a.43.43 0 0 1 .05.046v18.878a.43.43 0 0 1-.05.046 1.72 1.72 0 0 1-.499.242c-.485.163-1.188.273-1.987.273h-82.928c-.799 0-1.502-.11-1.987-.273a1.72 1.72 0 0 1-.499-.242.43.43 0 0 1-.05-.046v-18.878a.43.43 0 0 1 .05-.046 1.72 1.72 0 0 1 .499-.242c.485-.163 1.188-.273 1.987-.273zm85.475.576l-.002-.003.002.003zm0 18.848l-.002.003.002-.003zm-88.022 0l.002.003-.002-.003zm0-18.848l.002-.003-.002.003zm102.581-.576h83.86c.809 0 1.521.11 2.013.274.249.083.414.17.506.243a.38.38 0 0 1 .051.046v18.874a.38.38 0 0 1-.051.046c-.092.073-.257.16-.506.243-.492.164-1.204.274-2.013.274h-83.86c-.809 0-1.521-.11-2.013-.274-.249-.083-.414-.17-.506-.243a.38.38 0 0 1-.051-.046v-18.874a.38.38 0 0 1 .051-.046c.092-.073.257-.16.506-.243.492-.164 1.204-.274 2.013-.274zm86.442.578l-.002-.003.002.003zm0 18.844l-.002.003.002-.003zm-89.024 0l.002.003-.002-.003zm0-18.844l.002-.003-.002.003z" fill="#fff" stroke="#2F9EEE"/><path d="M432.625 94h-58.223a3.256 3.256 0 0 1-1.294-.257 3.35 3.35 0 0 1-1.1-.754 3.533 3.533 0 0 1-.741-1.137 3.66 3.66 0 0 1-.267-1.345 3.604 3.604 0 0 1 .988-2.476A3.307 3.307 0 0 1 374.361 87h58.264c.893 0 1.749.369 2.382 1.026.632.658.989 1.55.993 2.481a3.598 3.598 0 0 1-.998 2.472 3.304 3.304 0 0 1-2.377 1.02z" fill="#F1E6F7"/><path d="M358.578 68v-5.688h1.949c.644 0 1.133.13 1.469.387.336.258.504.642.504 1.153 0 .26-.07.494-.211.703-.141.208-.346.37-.617.484.307.083.544.24.711.473.169.229.254.505.254.828 0 .534-.172.944-.516 1.23-.341.287-.831.43-1.469.43h-2.074zm.988-2.566v1.777h1.098c.31 0 .552-.077.727-.23.174-.154.261-.368.261-.641 0-.591-.302-.893-.906-.906h-1.18zm0-.727h.969c.307 0 .547-.069.719-.207.174-.14.262-.339.262-.594 0-.281-.081-.484-.243-.61-.158-.124-.407-.187-.746-.187h-.961v1.598zm4.989.41h.929c.347 0 .649.06.907.18.257.12.453.288.586.504.135.216.203.467.203.754 0 .435-.154.783-.461 1.046-.308.264-.716.396-1.227.399h-1.887v-4.227h.95v1.344zM368.832 68h-.949v-4.227h.949V68zm-4.277-2.121v1.363h.925c.232 0 .415-.057.547-.172.136-.117.203-.282.203-.496 0-.213-.066-.381-.199-.504-.13-.125-.307-.188-.531-.191h-.945zm7.406-1.871c.531 0 .957.178 1.277.535.321.354.481.836.481 1.445v.047c0 .61-.175 1.103-.524 1.48-.346.378-.817.567-1.414.567-.58 0-1.049-.193-1.406-.578-.357-.386-.535-.912-.535-1.578v-.274c0-.911.161-1.633.484-2.164.323-.531.805-.863 1.446-.996.359-.073.591-.15.695-.23a.403.403 0 0 0 .16-.336h.766c0 .263-.043.476-.129.64a1.01 1.01 0 0 1-.395.403c-.177.101-.482.198-.914.289-.396.083-.698.232-.906.445-.206.214-.344.51-.414.887.377-.388.82-.582 1.328-.582zm-.188.761c-.307 0-.548.105-.722.313-.175.206-.262.523-.262.953 0 .406.086.723.258.95.172.226.417.34.734.34.315 0 .559-.114.731-.34.174-.23.261-.574.261-1.032 0-.365-.087-.652-.261-.863-.172-.214-.418-.32-.739-.32zm4.551 3.31c-.601 0-1.09-.19-1.465-.567-.372-.38-.558-.886-.558-1.516v-.117c0-.422.081-.798.242-1.129.164-.333.393-.593.687-.777.295-.185.623-.278.985-.278.575 0 1.019.184 1.332.551.315.367.473.887.473 1.559v.382h-2.762c.028.35.144.626.347.829.206.203.464.304.774.304.435 0 .789-.175 1.062-.527l.512.488a1.72 1.72 0 0 1-.68.59 2.123 2.123 0 0 1-.949.207zm-.113-3.622a.807.807 0 0 0-.633.273c-.159.183-.26.437-.305.762h1.809v-.07c-.021-.318-.105-.557-.254-.719-.148-.164-.354-.246-.617-.246zm6.25 1.473c0 .653-.149 1.175-.445 1.566-.297.388-.696.582-1.196.582-.463 0-.834-.152-1.113-.457v2.004h-.949v-5.852h.875l.039.43c.279-.338.657-.508 1.137-.508.515 0 .919.193 1.211.578.294.383.441.916.441 1.598v.059zm-.945-.082c0-.422-.085-.757-.254-1.004a.816.816 0 0 0-.719-.371c-.388 0-.667.16-.836.48v1.875c.172.328.453.492.844.492a.814.814 0 0 0 .707-.363c.172-.245.258-.615.258-1.11zm4.39-2.075h.946V68h-.946v-2.82L384.25 68h-.945v-4.227h.945v2.82l1.656-2.82zm5.282.754h-1.372V68h-.949v-3.473h-1.355v-.754h3.676v.754zm2.246 3.551c-.602 0-1.09-.189-1.465-.566-.373-.38-.559-.886-.559-1.516v-.117c0-.422.081-.798.242-1.129.164-.333.394-.593.688-.777a1.81 1.81 0 0 1 .984-.278c.576 0 1.02.184 1.332.551.315.367.473.887.473 1.559v.382h-2.762c.029.35.145.626.348.829.206.203.463.304.773.304.435 0 .789-.175 1.063-.527l.511.488c-.169.253-.395.45-.679.59a2.126 2.126 0 0 1-.949.207zm-.114-3.621a.803.803 0 0 0-.632.273c-.159.183-.261.437-.305.762h1.808v-.07c-.02-.318-.105-.557-.253-.719-.149-.164-.355-.246-.618-.246zM401.445 68h-.949v-3.461h-1.648V68h-.95v-4.227h3.547V68zm.832-2.152c0-.414.082-.787.246-1.118.165-.333.395-.588.692-.765.297-.18.638-.27 1.023-.27.571 0 1.033.184 1.387.551.357.367.549.854.578 1.461l.004.223c0 .416-.081.789-.242 1.117a1.758 1.758 0 0 1-.688.762c-.297.18-.64.27-1.031.27-.596 0-1.074-.199-1.434-.595-.356-.398-.535-.928-.535-1.59v-.046zm.95.082c0 .435.089.776.269 1.023.18.245.43.367.75.367s.569-.125.746-.375c.18-.25.27-.616.27-1.097 0-.427-.093-.766-.278-1.016a.874.874 0 0 0-.746-.375.869.869 0 0 0-.738.371c-.182.245-.273.612-.273 1.102zm3.519 1.312c.263-.294.439-.573.527-.836.092-.265.146-.604.165-1.015l.054-1.618h2.934v3.47h.586v2.015h-.946V68h-2.711v1.258h-.96l.003-2.016h.348zm1.113 0h1.621V64.59h-1.066l-.027.808c-.037.776-.213 1.391-.528 1.844zm5.348-2.078l.805-1.39h1.054l-1.293 2.081L415.109 68h-1.047l-.843-1.445-.84 1.445h-1.055l1.336-2.145-1.289-2.082h1.047l.789 1.391zm2.172.684c0-.414.082-.787.246-1.118.164-.333.395-.588.691-.765.297-.18.638-.27 1.024-.27.57 0 1.032.184 1.387.551.356.367.549.854.578 1.461l.004.223c0 .416-.081.789-.243 1.117a1.756 1.756 0 0 1-.687.762 1.95 1.95 0 0 1-1.031.27c-.597 0-1.075-.199-1.434-.595-.357-.398-.535-.928-.535-1.59v-.046zm.949.082c0 .435.09.776.27 1.023.179.245.429.367.75.367.32 0 .569-.125.746-.375.179-.25.269-.616.269-1.097 0-.427-.092-.766-.277-1.016a.874.874 0 0 0-.746-.375.869.869 0 0 0-.738.371c-.183.245-.274.612-.274 1.102zm3.52 1.312c.263-.294.438-.573.527-.836.091-.265.146-.604.164-1.015l.055-1.618h2.933v3.47h.586v2.015h-.945V68h-2.711v1.258h-.961l.004-2.016h.348zm1.113 0h1.621V64.59h-1.066l-.028.808c-.036.776-.212 1.391-.527 1.844zm7.215-3.469V68h-.946v-1.55h-.886l-.903 1.55h-.984l.996-1.707a1.336 1.336 0 0 1-.601-.469 1.215 1.215 0 0 1-.207-.699c0-.393.151-.715.453-.965.304-.252.714-.381 1.23-.387h1.848zm-2.582 1.375c0 .178.065.322.195.434a.77.77 0 0 0 .508.164h.933v-1.219h-.875c-.231 0-.416.059-.554.176a.559.559 0 0 0-.207.445zm4.59-1.375v3.47h1.32v-3.47h.949v3.47h1.324v-3.47h.946v3.47h.722l-.078 2.01h-.863V68h-5.27v-4.227h.95zm8.605 0h.945V68h-.945v-2.82L437.133 68h-.945v-4.227h.945v2.82l1.656-2.82zm4.594 0h.945V68h-.945v-2.82L441.727 68h-.946v-4.227h.946v2.82l1.656-2.82zm.445-1.62c0 .327-.114.593-.344.796-.229.203-.535.305-.918.305-.382 0-.688-.102-.918-.305a1.014 1.014 0 0 1-.343-.797h.711c0 .172.048.306.144.403a.57.57 0 0 0 .406.14.555.555 0 0 0 .403-.14c.096-.097.144-.23.144-.403h.715zm5.004 4.175h-.48V68h-.95v-4.227h.95v1.688h.418l1.168-1.688h1.171l-1.527 2.024L451.238 68h-1.234l-1.172-1.672zm4.406.313l.86-2.868h1.011l-1.679 4.868c-.258.71-.696 1.066-1.313 1.066-.138 0-.29-.023-.457-.07v-.735l.18.012c.239 0 .419-.044.539-.133.122-.086.219-.232.289-.437l.137-.364-1.485-4.207h1.024l.894 2.868zm6.121-.711c0 .653-.148 1.175-.445 1.566-.297.388-.695.582-1.195.582-.464 0-.835-.152-1.114-.457v2.004h-.949v-5.852h.875l.039.43c.279-.338.658-.508 1.137-.508.516 0 .919.193 1.211.578.294.383.441.916.441 1.598v.059zm-.945-.082c0-.422-.085-.757-.254-1.004a.815.815 0 0 0-.719-.371c-.388 0-.666.16-.836.48v1.875c.172.328.454.492.844.492a.814.814 0 0 0 .707-.363c.172-.245.258-.615.258-1.11zm3.488 1.472a.858.858 0 0 0 .59-.207.707.707 0 0 0 .25-.511h.895a1.414 1.414 0 0 1-.246.738 1.623 1.623 0 0 1-.625.539c-.263.133-.547.2-.852.2-.591 0-1.06-.192-1.406-.575-.347-.383-.52-.912-.52-1.586v-.098c0-.643.172-1.157.516-1.543.344-.388.812-.582 1.406-.582.503 0 .912.147 1.227.442.317.291.484.675.5 1.152h-.895a.864.864 0 0 0-.25-.598.79.79 0 0 0-.59-.234c-.307 0-.544.112-.711.336-.166.221-.251.558-.253 1.012v.152c0 .458.082.8.246 1.027.166.224.406.336.718.336z" fill="#000"/><path d="M532.677 94h-57.328a3.157 3.157 0 0 1-1.273-.257 3.307 3.307 0 0 1-1.084-.754 3.534 3.534 0 0 1-.729-1.137 3.718 3.718 0 0 1-.263-1.345 3.632 3.632 0 0 1 .973-2.476A3.232 3.232 0 0 1 475.309 87h57.368a3.23 3.23 0 0 1 2.345 1.026 3.63 3.63 0 0 1 .978 2.481 3.626 3.626 0 0 1-.983 2.472 3.228 3.228 0 0 1-2.34 1.02zm101 0h-57.328a3.157 3.157 0 0 1-1.273-.257 3.307 3.307 0 0 1-1.084-.754 3.534 3.534 0 0 1-.729-1.137 3.718 3.718 0 0 1-.263-1.345 3.632 3.632 0 0 1 .973-2.476A3.232 3.232 0 0 1 576.309 87h57.368a3.23 3.23 0 0 1 2.345 1.026 3.63 3.63 0 0 1 .978 2.481 3.626 3.626 0 0 1-.983 2.472 3.228 3.228 0 0 1-2.34 1.02zm0 27h-57.328a3.16 3.16 0 0 1-1.273-.257 3.32 3.32 0 0 1-1.084-.754 3.543 3.543 0 0 1-.729-1.137 3.714 3.714 0 0 1-.263-1.345 3.632 3.632 0 0 1 .973-2.476 3.232 3.232 0 0 1 2.336-1.031h57.368c.879 0 1.722.369 2.345 1.026.623.658.974 1.55.978 2.481a3.628 3.628 0 0 1-.983 2.472 3.229 3.229 0 0 1-2.34 1.021zm-201.052 31h-58.223a3.26 3.26 0 0 1-1.294-.257 3.364 3.364 0 0 1-1.1-.754 3.542 3.542 0 0 1-.741-1.137 3.656 3.656 0 0 1-.267-1.345 3.605 3.605 0 0 1 .988-2.476 3.308 3.308 0 0 1 2.373-1.031h58.264c.893 0 1.749.369 2.382 1.026.632.658.989 1.55.993 2.481a3.6 3.6 0 0 1-.998 2.472 3.304 3.304 0 0 1-2.377 1.021zm-2.948-31h-57.328a3.16 3.16 0 0 1-1.273-.257 3.32 3.32 0 0 1-1.084-.754 3.543 3.543 0 0 1-.729-1.137 3.714 3.714 0 0 1-.263-1.345 3.632 3.632 0 0 1 .973-2.476 3.232 3.232 0 0 1 2.336-1.031h57.368c.879 0 1.722.369 2.345 1.026.623.658.974 1.55.978 2.481a3.628 3.628 0 0 1-.983 2.472 3.229 3.229 0 0 1-2.34 1.021zm103 0h-57.328a3.16 3.16 0 0 1-1.273-.257 3.32 3.32 0 0 1-1.084-.754 3.543 3.543 0 0 1-.729-1.137 3.714 3.714 0 0 1-.263-1.345 3.632 3.632 0 0 1 .973-2.476 3.232 3.232 0 0 1 2.336-1.031h57.368c.879 0 1.722.369 2.345 1.026.623.658.974 1.55.978 2.481a3.628 3.628 0 0 1-.983 2.472 3.229 3.229 0 0 1-2.34 1.021zm0 31h-57.328a3.16 3.16 0 0 1-1.273-.257 3.32 3.32 0 0 1-1.084-.754 3.543 3.543 0 0 1-.729-1.137 3.714 3.714 0 0 1-.263-1.345 3.632 3.632 0 0 1 .973-2.476 3.232 3.232 0 0 1 2.336-1.031h57.368c.879 0 1.722.369 2.345 1.026.623.658.974 1.55.978 2.481a3.628 3.628 0 0 1-.983 2.472 3.229 3.229 0 0 1-2.34 1.021zm101 0h-57.328a3.16 3.16 0 0 1-1.273-.257 3.32 3.32 0 0 1-1.084-.754 3.543 3.543 0 0 1-.729-1.137 3.714 3.714 0 0 1-.263-1.345 3.632 3.632 0 0 1 .973-2.476 3.232 3.232 0 0 1 2.336-1.031h57.368c.879 0 1.722.369 2.345 1.026.623.658.974 1.55.978 2.481a3.628 3.628 0 0 1-.983 2.472 3.229 3.229 0 0 1-2.34 1.021z" fill="#F1E6F7"/><path d="M455.284 178.053h-95.016a3.168 3.168 0 0 0-3.217 3.165v18.566a3.167 3.167 0 0 0 1.99 2.939c.39.156.807.233 1.227.226h8.851v8.344l8.344-8.344h77.853a3.217 3.217 0 0 0 3.228-3.165v-18.566a3.217 3.217 0 0 0-3.26-3.165z" fill="#2F9EEE"/><path d="M384.129 245.878h108.889v42.151c0 5.523-4.477 10-10 10h-88.889c-5.523 0-10-4.477-10-10v-42.151z" fill="#fff"/><path d="M418.479 278.074a5 5 0 0 1 5-5h60.28a5 5 0 0 1 5 5v9.381a5 5 0 0 1-5 5h-60.28a5 5 0 0 1-5-5v-9.381z" fill="#0094FF"/><g clip-path="url(#clip0)" stroke="#fff" stroke-linecap="round" stroke-linejoin="round"><path d="M474.221 282.765h8.461m-1.88-2.423l2.35 2.423-2.35 2.422"/></g><path d="M389.058 277.617a1.439 1.439 0 0 1 1.237-.704h20.841a1.44 1.44 0 0 1 0 2.88h-20.841a1.44 1.44 0 0 1-1.237-2.176zm0 8.639a1.437 1.437 0 0 1 1.237-.704h20.841a1.44 1.44 0 0 1 0 2.879h-20.841a1.44 1.44 0 0 1-1.237-2.175z" fill="#89C3E2"/><path d="M421.358 255.998a5 5 0 0 1 5-5h21.674a5 5 0 0 1 5 5v2.113a5 5 0 0 1-5 5h-21.674a5 5 0 0 1-5-5v-2.113z" fill="#FDEFF1"/><path d="M428.055 256.368c.235-.51.745-.837 1.307-.837h15.615a1.44 1.44 0 0 1 0 2.88h-15.615a1.44 1.44 0 0 1-1.307-2.043z" fill="#89C3E2"/><path d="M427.99 281.655a1.44 1.44 0 0 1 1.045-.45h34.558c1.267 0 1.916 1.519 1.04 2.435a1.44 1.44 0 0 1-1.04.445h-34.558c-1.263 0-1.914-1.512-1.045-2.43z" fill="#fff"/><path d="M387.937 255.998a5 5 0 0 1 5-5h17.468a5 5 0 0 1 5 5v2.113a5 5 0 0 1-5 5h-17.468a5 5 0 0 1-5-5v-2.113z" fill="#FDEFF1"/><path d="M392.541 256.368c.236-.51.746-.837 1.307-.837h15.616a1.44 1.44 0 0 1 0 2.88h-15.616a1.44 1.44 0 0 1-1.307-2.043z" fill="#89C3E2"/><path d="M456.465 256.264a5 5 0 0 1 5-5h22.32a5 5 0 0 1 5 5v2.113a5 5 0 0 1-5 5h-22.32a5 5 0 0 1-5-5v-2.113z" fill="#E1DFEF"/><path d="M461.044 256.501a1.439 1.439 0 0 1 1.237-.704h20.841a1.44 1.44 0 0 1 0 2.88h-20.841a1.44 1.44 0 0 1-1.237-2.176z" fill="#89C3E2"/><path d="M384.129 227.406c0-5.523 4.477-10 10-10h53.105c5.523 0 10 4.477 10 10v18.587h-73.105v-18.587zm74.645-.001c0-5.523 4.477-10 10-10h14.301c5.523 0 10 4.477 10 10v18.587h-34.301v-18.587z" fill="#E1DFEF"/><path d="M463.923 234.426a1.44 1.44 0 0 1 1.238-.704h20.84a1.44 1.44 0 1 1 0 2.879h-20.84a1.44 1.44 0 0 1-1.238-2.175zm-49.91-3.839a1.44 1.44 0 0 1 1.238-.705h20.84a1.44 1.44 0 0 1 0 2.88h-20.84a1.44 1.44 0 0 1-1.238-2.175zm-26.248-3.383a5 5 0 0 1 5-5h12.474a5 5 0 0 1 5 5v10.156a5 5 0 0 1-5 5h-12.474a5 5 0 0 1-5-5v-10.156z" fill="#89C3E2"/><path d="M448.432 234.271a3.23 3.23 0 1 0 0-6.461 3.23 3.23 0 0 0 0 6.461zm0 .807a4.037 4.037 0 1 1-.001-8.075 4.037 4.037 0 0 1 .001 8.075zm-.404-4.441v2.423h.807v-2.423h-.807zm0-1.615h.807v.807h-.807v-.807z" fill="#000" fill-opacity=".2"/><path d="M382.326 187.885h-14.578a1.617 1.617 0 0 1-1.484-1.609 1.618 1.618 0 0 1 1.484-1.609h14.578a1.617 1.617 0 0 1 1.484 1.609 1.618 1.618 0 0 1-1.484 1.609zm16.183 6.034a1.605 1.605 0 0 0-1.614-1.604h-29.147a1.617 1.617 0 0 0-1.484 1.609 1.616 1.616 0 0 0 1.484 1.609h29.147a1.605 1.605 0 0 0 1.614-1.614zm15.823 0a1.603 1.603 0 0 0-1.614-1.604h-8.439a1.616 1.616 0 0 0-1.483 1.609 1.611 1.611 0 0 0 1.483 1.609h8.439a1.6 1.6 0 0 0 1.504-.992c.081-.198.122-.409.121-.622h-.011zm22.249 0a1.604 1.604 0 0 0-1.604-1.604h-14.885a1.616 1.616 0 0 0-1.483 1.609 1.611 1.611 0 0 0 1.483 1.609h14.896a1.622 1.622 0 0 0 1.165-.458 1.61 1.61 0 0 0 .48-1.156h-.052zm12.658 0a1.603 1.603 0 0 0-1.603-1.604h-6.256a1.624 1.624 0 0 0-1.224.423 1.603 1.603 0 0 0-.52 1.186 1.606 1.606 0 0 0 .52 1.187 1.619 1.619 0 0 0 1.224.422h6.245a1.613 1.613 0 0 0 1.138-.474 1.61 1.61 0 0 0 .466-1.14h.01zm-22.87-7.638a1.613 1.613 0 0 0-1.614-1.614h-33.483a1.605 1.605 0 0 0-1.225.423 1.631 1.631 0 0 0-.384.538 1.625 1.625 0 0 0 0 1.296 1.631 1.631 0 0 0 .953.878c.21.073.434.101.656.083h33.525a1.616 1.616 0 0 0 1.561-1.604h.011zm22.87 0a1.595 1.595 0 0 0-.465-1.14 1.609 1.609 0 0 0-1.138-.474h-15.391a1.612 1.612 0 0 0-1.745 1.609 1.626 1.626 0 0 0 .52 1.186 1.615 1.615 0 0 0 1.225.423h15.38a1.6 1.6 0 0 0 1.604-1.604h.01z" fill="#fff"/><path d="M481.345 310.319h-62.239a3.591 3.591 0 0 0-2.544 1.054 3.595 3.595 0 0 0-1.054 2.543v33.103a3.591 3.591 0 0 0 1.054 2.544 3.606 3.606 0 0 0 2.544 1.054h8.66v9.315l9.326-9.315h44.211a3.598 3.598 0 0 0 3.597-3.598v-33.103a3.598 3.598 0 0 0-3.555-3.597z" fill="#BAB7F6"/><path d="M473.054 330.141a4.402 4.402 0 0 1-2.723 4.057 4.402 4.402 0 0 1-4.79-.961 4.397 4.397 0 0 1 .671-6.765 4.398 4.398 0 0 1 6.842 3.669zm-21.278-4.41a4.41 4.41 0 1 0-.02 8.82 4.41 4.41 0 0 0 .02-8.82zm-16.878 0a4.413 4.413 0 0 0-4.082 2.715 4.414 4.414 0 0 0 .95 4.809 4.408 4.408 0 0 0 7.531-3.114 4.41 4.41 0 0 0-4.399-4.41z" fill="#A39EE9"/><path d="M305.787 142.905H177.468c-5.302 0-9.6 4.297-9.6 9.599v199.727c0 5.301 4.298 9.599 9.6 9.599h128.319c5.302 0 9.6-4.298 9.6-9.599V152.504c0-5.302-4.298-9.599-9.6-9.599z" fill="#fff"/><path d="M279.879 179.141H245.13a1.054 1.054 0 1 1 0-2.11h34.749a1.056 1.056 0 0 1 0 2.11zm-13.271 5.907a1.056 1.056 0 0 0-1.055-1.055H245.13a1.059 1.059 0 0 0-1.055 1.055 1.054 1.054 0 0 0 1.055 1.055h20.423a1.054 1.054 0 0 0 1.055-1.055zM282.59 192a1.054 1.054 0 0 0-1.055-1.055H245.13a1.054 1.054 0 1 0 0 2.11h36.437a1.052 1.052 0 0 0 1.054-1.055h-.031zm-32.238 6.963a1.054 1.054 0 0 0-1.055-1.055h-4.22a1.054 1.054 0 1 0 0 2.11h4.22a1.05 1.05 0 0 0 1.086-1.055h-.031zm23.071-13.915a1.06 1.06 0 0 0-.309-.746 1.06 1.06 0 0 0-.746-.309h-2.553a1.059 1.059 0 0 0-1.055 1.055 1.054 1.054 0 0 0 1.055 1.055h2.553a1.06 1.06 0 0 0 .766-.297 1.046 1.046 0 0 0 .32-.758h-.031zm21.151 0a1.06 1.06 0 0 0-.309-.746 1.06 1.06 0 0 0-.746-.309h-16.657a1.057 1.057 0 0 0-.746 1.801c.197.198.466.309.746.309h16.688a1.054 1.054 0 0 0 1.055-1.055h-.031zm0-6.962a1.059 1.059 0 0 0-1.055-1.055h-9.294a1.054 1.054 0 1 0 0 2.11h9.325a1.054 1.054 0 0 0 1.055-1.055h-.031zm-35.867 20.877a1.059 1.059 0 0 0-1.055-1.055h-4.22a1.054 1.054 0 1 0 0 2.11h4.22a1.06 1.06 0 0 0 1.051-.631 1.05 1.05 0 0 0 .088-.424h-.084z" fill="#BAB7F6"/><path d="M241.216 345.152c9.835 0 17.807-7.972 17.807-17.807 0-9.834-7.972-17.807-17.807-17.807-9.834 0-17.807 7.973-17.807 17.807 0 9.835 7.973 17.807 17.807 17.807z" fill="#EC5271"/><path d="M234.856 327.404a17.835 17.835 0 0 1-2.768-7.778 1.797 1.797 0 0 1 .464-1.377 1.802 1.802 0 0 1 1.33-.588h2.705a1.807 1.807 0 0 1 1.804 1.55c.114.866.326 1.715.631 2.533a1.803 1.803 0 0 1-.406 1.902l-1.145 1.144m2.336 3.064a14.428 14.428 0 0 0 3.074 2.344l1.146-1.145a1.804 1.804 0 0 1 1.902-.405c.818.305 1.668.516 2.534.63a1.806 1.806 0 0 1 1.551 1.803v2.704a1.794 1.794 0 0 1-.584 1.335 1.81 1.81 0 0 1-1.382.467 17.85 17.85 0 0 1-7.782-2.767 17.478 17.478 0 0 1-3.002-2.406l2.543-2.56zm11.262-11.248l-20.043 20.044" stroke="#fff" stroke-width="2" stroke-linecap="round" stroke-linejoin="round"/><path d="M612.16 200.128H508.902a5 5 0 0 0-5 5v142.611a5 5 0 0 0 5 5H612.16a5 5 0 0 0 5-5V205.128a5 5 0 0 0-5-5z" fill="#FDEFF1"/><circle cx="596.251" cy="225.836" r="13.644" fill="#ECF2FD"/><path d="M610.442 225.836c0-7.837-6.109-14.19-13.645-14.19" stroke="#0094FF" stroke-width="2"/><path d="M593.133 227.924h-3.261v-.454l1.723-1.914c.255-.29.431-.525.526-.705.098-.182.147-.37.147-.564a.895.895 0 0 0-.235-.639c-.158-.166-.367-.249-.629-.249-.315 0-.56.09-.735.27-.173.178-.26.426-.26.745h-.632c0-.458.147-.828.441-1.111.296-.282.691-.424 1.186-.424.462 0 .828.122 1.097.366.269.242.403.564.403.967 0 .49-.312 1.074-.936 1.75l-1.333 1.446h2.498v.516zm.862.427h-.544l2.078-5.403h.54l-2.074 5.403zm3.612-3.223h.475c.299-.004.534-.083.705-.236.17-.152.256-.358.256-.618 0-.584-.291-.875-.872-.875-.273 0-.492.078-.656.236-.162.155-.243.361-.243.618h-.632c0-.394.144-.721.431-.981.289-.262.656-.393 1.1-.393.47 0 .838.124 1.104.373.267.248.4.593.4 1.035 0 .217-.07.427-.212.629a1.254 1.254 0 0 1-.571.455c.274.087.485.23.633.431.15.2.225.445.225.734 0 .447-.145.801-.437 1.063-.292.263-.671.394-1.138.394-.467 0-.848-.127-1.142-.38-.292-.253-.437-.587-.437-1.001h.635c0 .262.086.471.257.629.171.157.4.235.687.235.305 0 .539-.079.7-.239.162-.159.243-.388.243-.687 0-.289-.089-.511-.267-.666-.177-.155-.434-.235-.769-.24h-.475v-.516zm6.132.674c0 .74-.126 1.29-.379 1.651-.253.36-.649.54-1.186.54-.531 0-.924-.176-1.179-.527-.256-.353-.388-.879-.397-1.579v-.844c0-.732.126-1.275.379-1.631.253-.355.65-.533 1.19-.533.535 0 .93.172 1.182.516.253.342.383.871.39 1.586v.821zm-.632-.865c0-.536-.075-.925-.226-1.169-.15-.246-.388-.369-.714-.369-.324 0-.56.122-.708.366-.148.243-.224.618-.229 1.124v1.012c0 .538.078.935.233 1.193.157.255.394.382.711.382.312 0 .543-.12.694-.362.152-.241.232-.622.239-1.141v-1.036z" fill="#000" fill-opacity=".6"/><path d="M509.578 215v-5.688h1.949c.644 0 1.133.129 1.469.387.336.258.504.642.504 1.153 0 .26-.07.494-.211.703a1.363 1.363 0 0 1-.617.484c.307.083.544.241.711.473.169.229.254.505.254.828 0 .534-.172.944-.516 1.23-.341.287-.831.43-1.469.43h-2.074zm.988-2.566v1.777h1.098c.31 0 .552-.077.727-.231.174-.153.261-.367.261-.64 0-.591-.302-.893-.906-.906h-1.18zm0-.727h.969c.307 0 .547-.069.719-.207.174-.141.262-.339.262-.594 0-.281-.081-.484-.243-.609-.158-.125-.407-.188-.746-.188h-.961v1.598zm6.493 3.293a1.439 1.439 0 0 1-.11-.395 1.474 1.474 0 0 1-1.109.473c-.425 0-.771-.121-1.039-.363a1.164 1.164 0 0 1-.403-.899c0-.45.167-.795.5-1.035.336-.242.816-.363 1.438-.363h.582v-.277c0-.219-.061-.394-.184-.524-.122-.133-.308-.199-.558-.199a.831.831 0 0 0-.531.164.497.497 0 0 0-.207.41h-.95c0-.232.077-.448.231-.648.153-.203.362-.362.625-.477.265-.114.561-.172.886-.172.495 0 .89.125 1.184.375.294.248.445.597.453 1.047v1.906c0 .381.054.684.16.911V215h-.968zm-1.043-.684c.187 0 .363-.045.527-.136a.906.906 0 0 0 .375-.368v-.796h-.512c-.351 0-.616.061-.793.183a.596.596 0 0 0-.265.52c0 .182.06.328.179.437.123.107.285.16.489.16zm3.832-3.543v3.469h1.32v-3.469h.949v3.469h1.324v-3.469h.946V215h-5.489v-4.227h.95zm9.039 2.868l.859-2.868h1.012l-1.68 4.868c-.258.711-.695 1.066-1.312 1.066a1.69 1.69 0 0 1-.457-.07v-.735l.179.012c.24 0 .42-.044.539-.133.123-.086.219-.232.289-.437l.137-.364-1.484-4.207h1.023l.895 2.868zm5.808 1.359h-.949v-1.41a3.404 3.404 0 0 1-.773.086c-.578 0-1.02-.138-1.325-.414-.304-.279-.457-.677-.457-1.196v-1.296h.95v1.296c0 .308.067.525.203.653.138.127.347.191.629.191.255 0 .513-.03.773-.09v-2.047h.949V215zm2.871.078c-.601 0-1.089-.189-1.464-.566-.373-.38-.559-.886-.559-1.516v-.117c0-.422.081-.798.242-1.129.164-.333.393-.592.688-.777a1.81 1.81 0 0 1 .984-.278c.576 0 1.02.184 1.332.551.315.367.473.887.473 1.559v.383H536.5c.029.348.145.624.348.828.205.203.463.304.773.304.435 0 .789-.175 1.063-.527l.511.488a1.723 1.723 0 0 1-.679.59 2.13 2.13 0 0 1-.95.207zm-.113-3.621a.808.808 0 0 0-.633.273c-.159.183-.26.437-.304.762h1.808v-.07c-.021-.318-.105-.557-.254-.719-.148-.164-.354-.246-.617-.246zm4.539-.449c.531 0 .957.178 1.278.535.32.354.48.836.48 1.445v.047c0 .61-.174 1.103-.523 1.481-.347.377-.818.566-1.415.566-.58 0-1.049-.193-1.406-.578-.357-.386-.535-.912-.535-1.578v-.274c0-.911.162-1.632.484-2.164.323-.531.805-.863 1.446-.996.359-.073.591-.15.695-.23a.405.405 0 0 0 .16-.336h.766c0 .263-.043.476-.129.64a1.005 1.005 0 0 1-.395.403c-.177.101-.481.198-.914.289-.395.083-.698.232-.906.445-.206.214-.344.509-.414.887.378-.388.82-.582 1.328-.582zm-.187.762c-.308 0-.548.104-.723.312-.174.206-.262.523-.262.953 0 .406.086.723.258.949.172.227.417.34.734.34.316 0 .559-.113.731-.34.174-.229.262-.573.262-1.031 0-.364-.088-.652-.262-.863-.172-.214-.418-.32-.738-.32zm6.199 3.23h-.949v-1.707h-1.645V215h-.949v-4.227h.949v1.762h1.645v-1.762h.949V215zm2.035-2.883h.93c.346 0 .648.06.906.18s.453.288.586.504c.135.216.203.467.203.754 0 .435-.154.784-.461 1.047-.307.263-.716.395-1.226.398h-1.887v-4.227h.949v1.344zm4.277 2.883h-.949v-4.227h.949V215zm-4.277-2.121v1.363h.926c.232 0 .414-.057.547-.172.135-.117.203-.282.203-.496a.656.656 0 0 0-.199-.504c-.131-.125-.308-.188-.532-.191h-.945zm8.055-2.106h.945V215h-.945v-2.82l-1.656 2.82h-.946v-4.227h.946v2.821l1.656-2.821zm.445-1.621c0 .328-.115.594-.344.797-.229.203-.535.305-.918.305-.382 0-.688-.102-.918-.305a1.014 1.014 0 0 1-.343-.797h.711c0 .172.048.306.144.403.099.093.234.14.406.14a.558.558 0 0 0 .403-.14.547.547 0 0 0 .144-.403h.715zm7.086 5.848h-.949v-3.461h-1.649V215h-.949v-4.227h3.547V215zm4.602-4.227V215h-.95v-3.461h-1.195l-.078 1.473c-.05.708-.186 1.217-.41 1.527-.222.307-.561.461-1.02.461h-.293l-.004-.789.196-.02c.208-.028.359-.155.453-.379.096-.226.157-.638.183-1.234l.079-1.805h3.039zm3.535 4.227a1.476 1.476 0 0 1-.11-.395 1.474 1.474 0 0 1-1.109.473c-.425 0-.771-.121-1.039-.363a1.163 1.163 0 0 1-.402-.899c0-.45.166-.795.5-1.035.336-.242.815-.363 1.437-.363h.582v-.277c0-.219-.061-.394-.183-.524-.123-.133-.309-.199-.559-.199a.831.831 0 0 0-.531.164.497.497 0 0 0-.207.41h-.95c0-.232.077-.448.231-.648.154-.203.362-.362.625-.477.265-.114.561-.172.887-.172.494 0 .889.125 1.183.375.294.248.445.597.453 1.047v1.906c0 .381.054.684.16.911V215h-.968zm-1.043-.684c.187 0 .363-.045.527-.136a.906.906 0 0 0 .375-.368v-.796h-.512c-.351 0-.616.061-.793.183a.596.596 0 0 0-.265.52c0 .182.06.328.179.437.123.107.286.16.489.16zm6.426.684h-.95v-1.707h-1.644V215h-.949v-4.227h.949v1.762h1.644v-1.762h.95V215z" fill="#000"/><path d="M546.594 224.314h-36.838a1.056 1.056 0 0 1 0-2.11h36.838a1.054 1.054 0 1 1 0 2.11zm18.136 8.448h-54.469c-.413 0-.81-.101-1.103-.281-.292-.18-.457-.424-.457-.679 0-.255.165-.499.457-.679.293-.18.69-.281 1.103-.281h54.469c.414 0 .811.101 1.103.281.293.18.457.424.457.679 0 .255-.164.499-.457.679-.292.18-.689.281-1.103.281z" fill="#69ACFF"/><rect x="508.701" y="244.28" width="28.794" height="9.598" rx="3" fill="#EC5271"/><path d="M531.847 250.039h-17.496a.803.803 0 0 1-.601-.282c-.16-.18-.25-.424-.25-.678 0-.255.09-.499.25-.679a.802.802 0 0 1 .601-.281h17.496c.225 0 .441.101.601.281.159.18.249.424.249.679 0 .254-.09.498-.249.678a.806.806 0 0 1-.601.282z" fill="#fff"/><path d="M567.36 250.039h-17.496a.803.803 0 0 1-.601-.282 1.022 1.022 0 0 1-.249-.678c0-.255.089-.499.249-.679a.802.802 0 0 1 .601-.281h17.496c.225 0 .442.101.601.281.159.18.249.424.249.679 0 .254-.09.498-.249.678a.805.805 0 0 1-.601.282zm35.513 0h-17.496a.803.803 0 0 1-.601-.282 1.022 1.022 0 0 1-.249-.678c0-.255.089-.499.249-.679a.802.802 0 0 1 .601-.281h17.496c.225 0 .441.101.601.281.159.18.249.424.249.679 0 .254-.09.498-.249.678a.806.806 0 0 1-.601.282z" fill="#69ACFF"/><path d="M351.866 202.971c2.996 2.922 5.053 7.131 6.836 11.383 1.413 3.365 2.721 7.004 2.627 10.823a17.005 17.005 0 0 1-3.471 9.674 21.003 21.003 0 0 1-7.089 5.802c-4.874 2.584-10.623 3.66-15.296.516-3.777-2.552-6.277-7.521-7.67-12.722a33.555 33.555 0 0 1-1.223-10.116 19.644 19.644 0 0 1 4.641-12.237c5.222-5.834 14.706-8.893 20.645-3.123z" fill="#293267"/><path d="M343.88 234.882a2.96 2.96 0 0 0 2.848-3.048c-.084-1.825.233-3.513 3.218-4.885 6.234-2.88 6.329-26.066-5.138-25.539-11.466.527-10.084 16.161-9.821 20.465.264 4.304 4.104 5.201 5.127 6.71a6.782 6.782 0 0 1 .612 3.312 3.004 3.004 0 0 0 3.165 2.985h-.011z" fill="#FFA9A7"/><path d="M352.604 218.658a2.234 2.234 0 0 0 2.924 1.68 2.24 2.24 0 0 0 1.495-1.892 2.242 2.242 0 0 0-1.091-2.15 2.244 2.244 0 0 0-1.218-.307 2.415 2.415 0 0 0-1.608.897 2.403 2.403 0 0 0-.502 1.772zm-20.74-.939a2.236 2.236 0 0 0 2.924 1.68 2.243 2.243 0 0 0 1.496-1.892 2.239 2.239 0 0 0-2.31-2.457 2.416 2.416 0 0 0-1.607.897 2.405 2.405 0 0 0-.503 1.772z" fill="#FFA9A7"/><path d="M346.116 215.852a1.143 1.143 0 0 1 1.04.722 1.145 1.145 0 0 1-.27 1.237 1.141 1.141 0 0 1-1.75-.205 1.144 1.144 0 0 1 .169-1.436 1.142 1.142 0 0 1 .811-.318zm-8.08.97a1.148 1.148 0 0 0 .29.876 1.139 1.139 0 0 0 1.305.275 1.145 1.145 0 0 0 .62-.682c.05-.151.068-.311.053-.469a1.143 1.143 0 0 0-1.134-1.249 1.142 1.142 0 0 0-1.134 1.249zm10.475-2.573a.247.247 0 0 1-.179-.085 2.726 2.726 0 0 0-2.753-.622.248.248 0 0 1-.28-.068.243.243 0 0 1-.047-.09.262.262 0 0 1 .158-.338 3.167 3.167 0 0 1 3.291.749.26.26 0 0 1 .06.293.26.26 0 0 1-.06.087.253.253 0 0 1-.19.074zm-9.916-.381a.236.236 0 0 1-.222-.126.26.26 0 0 1-.035-.198.25.25 0 0 1 .12-.161 3.683 3.683 0 0 1 3.502-.148.245.245 0 0 1 .149.25.243.243 0 0 1-.033.098.237.237 0 0 1-.059.085.258.258 0 0 1-.289.042 3.169 3.169 0 0 0-2.996.127.326.326 0 0 1-.137.031z" fill="#293267"/><path d="M343.3 221.042a.746.746 0 0 1-.211 0 .952.952 0 0 1-.633-.57 1.932 1.932 0 0 1 0-1.203l.728-2.901a.26.26 0 0 1 .12-.159.261.261 0 0 1 .394.184.251.251 0 0 1-.008.102l-.727 2.901a1.531 1.531 0 0 0-.053.886.424.424 0 0 0 .285.243.155.155 0 0 0 .084.024c.03 0 .059-.008.084-.024a.268.268 0 0 1 .429.244.269.269 0 0 1-.102.178.7.7 0 0 1-.39.095zm-.053 2.11a4.912 4.912 0 0 1-3.027-1.055.273.273 0 0 1 0-.369.237.237 0 0 1 .084-.059.246.246 0 0 1 .201 0c.032.013.06.034.084.059a4.387 4.387 0 0 0 5.876-.454.247.247 0 0 1 .184-.085c.035 0 .07.008.102.022.032.015.06.037.083.063a.26.26 0 0 1 .08.185.25.25 0 0 1-.08.184 4.956 4.956 0 0 1-3.165 1.53l-.422-.021zm-8.386-4.368a.263.263 0 0 1-.264-.253l-.095-1.93a.251.251 0 0 1 .016-.102.267.267 0 0 1 .43-.106.252.252 0 0 1 .081.187l.148 1.888a.254.254 0 0 1-.07.189.253.253 0 0 1-.183.085l-.063.042zm18.851.992a.17.17 0 0 1-.095 0 .266.266 0 0 1-.143-.139.268.268 0 0 1-.005-.199l.58-1.413a.25.25 0 0 1 .137-.147.25.25 0 0 1 .201-.001.276.276 0 0 1 .148.348l-.581 1.414a.257.257 0 0 1-.101.103.268.268 0 0 1-.141.034z" fill="#E16C7A"/><path d="M326.622 238.659c-2.996 1.593-8.292 30.297-8.292 30.297l-9.832-.949s2.247 5.274 10.613 8.376c9.842 3.607 13.017-25.023 13.017-25.023l-5.506-12.701zm7.268-8.503l.992 4.927s9.568 3.924 16.224-.233l.57-4.694H333.89z" fill="#BAB7F6"/><path d="M300.65 284.959V157.315H182.5v127.644h118.15z" fill="#E3E9FF"/><mask id="a" maskUnits="userSpaceOnUse" x="182" y="157" width="119" height="128"><path d="M300.65 284.959V157.315H182.5v127.644h118.15z" fill="#E3E9FF"/></mask><g mask="url(#a)"><path d="M189.399 274.821c-3.893 73.749 1.719 166.001 1.719 166.001l-5.907 6.172 23.208 2.763-.19-160.177c-.002-.226.045-.45.137-.657a1.583 1.583 0 0 1 .978-.874 1.589 1.589 0 0 1 1.543.337c.245.218.418.506.496.824l38.916 165.622 26.584 3.164-11.066-8.502-36.669-173.955-39.749-.718z" fill="#271055"/><path d="M269.108 225.546s1.888-6.656 3.017-7.975c1.129-1.318 4.135-1.551 4.715-1.477.704.12 1.382.359 2.005.707 0 0 1.74-1.224 2.658-.823 2.11.918 0 2.701 0 2.701s1.783-.19 2.215.823c.433 1.012-1.276 1.835-1.276 1.835a1.48 1.48 0 0 1 1.561.633c.454.865-1.055 2.479-1.055 2.479s1.794.148 1.055 2.015c-.633 1.519-9.135 6.034-9.135 6.034l-1.931.739-3.829-7.691z" fill="#FFA9A7"/><path d="M269.108 225.547l-18.936 14.42-4.662-21.404a11.288 11.288 0 0 0-6.541-7.922 55.938 55.938 0 0 0-10.876-3.038c-3.956-.739-21.942-1.277-26.837-.76-4.895.517-9.631 1.308-11.256 2.437-5.274 3.629-26.246 35.477-26.109 37.787.137 2.31 22.343 33.831 22.343 33.831l5.18-5.644 39.474 8.619 4.558-50.509 3.164 18.302a8.038 8.038 0 0 0 4.937 6.077 8.03 8.03 0 0 0 8.883-1.994l22.438-23.208-5.76-6.994zM180.031 247.7l12.976-16.71-2.733 33.114-10.243-16.404z" fill="url(#paint4_linear)"/><path d="M217.185 239.84l10.866-32.238a90.51 90.51 0 0 0-14.337-1.424 112.95 112.95 0 0 0-12.511.686l15.982 32.976z" fill="#F3F0F3"/><path d="M227.249 279.737h-.053l-30.835-5.929a.264.264 0 0 1-.169-.109.266.266 0 0 1-.042-.196.262.262 0 0 1 .035-.098.257.257 0 0 1 .271-.113l30.846 5.928a.272.272 0 0 1 .165.112.278.278 0 0 1 .046.194.277.277 0 0 1-.264.211z" fill="#C34159"/><path d="M197.48 269.41s-6.182-3.619-7.722-2.342c-1.541 1.276-1.351 3.481-1.435 4.219-.084.739-2.658 1.625-2.943 3.988-.285 2.363-2.226 3.703-2.11 5.675.116 1.973 3.344 2.88 4.22 3.091.875.211 2.194-4.019 2.194-4.019s2.11.253 2.574-.338c.464-.59 1.93-4.103 1.93-4.103a13.076 13.076 0 0 0 3.028-1.414 8.306 8.306 0 0 0 .728-1.878l-1.519-.928 1.055-1.951z" fill="#FFA9A7"/><path d="M211.668 202.94s-1.983-.422-2.89.58c-.908 1.002-1.372 10.95.221 11.225 1.593.274 6.266-5.212 6.266-5.212s4.853 6.024 6.393 5.37c1.54-.654-.411-11.741-3.576-11.752-3.165-.01-6.414-.211-6.414-.211zm19.927-24.854s-.063 5.032-2.036 7.331l-.38-8.355 2.416 1.024z" fill="#293267"/><path d="M215.254 208.752c-1.339-.137-2.479-.306-3.228-1.54-1.371-2.268-.622-5.159-2.046-7.384a33.741 33.741 0 0 0-2.331-2.88 12.925 12.925 0 0 1-2.11-5.148c-2.036-8.25 1.055-25.582 13.313-23.926 12.258 1.657 11.382 15.444 10.211 21.679a22.037 22.037 0 0 1-2.394 7.152 8.985 8.985 0 0 1-2.532 2.88c-1.15.812-2.511.96-3.724 1.635-1.625.907-1.319 3.218-1.498 4.8-.274 2.046-1.635 2.954-3.661 2.732z" fill="#FFA9A7"/><path d="M235.235 180.976c-7.385.095-20.529-6.698-20.529-6.698-.316 4.831-6.15 5.665-6.15 5.665l-.422 7.975-1.466-.433-1.593-4.03-.485.401s-4.516-5.211-3.935-7.669c.58-2.458 3.639-5.106 3.639-5.106h-5.686l1.435-3.164 4.641 2.415c1.055-11.54 27.935-3.006 27.935-3.006a20.31 20.31 0 0 1 3.871-2.215 6.464 6.464 0 0 1 4.22-.317 3.922 3.922 0 0 1 2.764 3.007 5.275 5.275 0 0 1-1.33 3.808 14.465 14.465 0 0 1-5.454 4.357c1.055.253 2.279 1.054 2.29 2.109a2.724 2.724 0 0 1-1.625 2.321 3.687 3.687 0 0 1-2.12.58z" fill="#293267"/><path d="M206.773 186.916a3.523 3.523 0 1 1-7.007-.728 3.523 3.523 0 0 1 7.007.728zm26.985 2.362a3.522 3.522 0 0 1-4.532 3.017 3.527 3.527 0 0 1-.637-6.477 3.532 3.532 0 0 1 2.004-.401 3.538 3.538 0 0 1 3.165 3.861z" fill="#FFA9A7"/><path d="M220.814 191.42a3.5 3.5 0 0 1-1.255-.411c-.264-.116-.549-.243-.781-.316a.266.266 0 0 1 .158-.507c.287.102.569.218.844.348.338.148.971.433 1.055.348a.265.265 0 0 0 0-.137 6.046 6.046 0 0 0-.844-2.257 6.5 6.5 0 0 1-.432-.95c-.1-.498-.1-1.01 0-1.508a.26.26 0 0 1 .103-.182.257.257 0 0 1 .203-.05.273.273 0 0 1 .221.306 3.318 3.318 0 0 0 0 1.287c.11.295.244.581.401.854.469.758.775 1.606.897 2.49a.64.64 0 0 1-.253.59.586.586 0 0 1-.317.095zm-1.983 2.511a4.918 4.918 0 0 1-2.437-.643 4.99 4.99 0 0 1-2.11-2.469.264.264 0 0 1 .148-.338.26.26 0 0 1 .207-.004.264.264 0 0 1 .087.061.262.262 0 0 1 .054.091 4.392 4.392 0 0 0 4.768 2.722.267.267 0 0 1 .19.046c.055.04.092.099.105.165a.26.26 0 0 1-.221.306 4.562 4.562 0 0 1-.791.063zm9.948-2.891a.26.26 0 0 1-.169-.109.26.26 0 0 1-.042-.197l.685-3.955a.256.256 0 0 1 .2-.223.253.253 0 0 1 .106.001.266.266 0 0 1 .169.109.269.269 0 0 1 .042.197l-.686 3.966a.262.262 0 0 1-.305.211z" fill="#E16C7A"/><path d="M229.296 188.761a.268.268 0 0 1-.159-.052.272.272 0 0 1-.103-.24.26.26 0 0 1 .188-.225 7.47 7.47 0 0 1 1.994-.284.26.26 0 0 1 .186.077.263.263 0 0 1-.186.45 6.817 6.817 0 0 0-1.846.264l-.074.01zm-24.285-1.044h-.105a.254.254 0 0 1-.127-.348 1.58 1.58 0 0 0-.548-1.899 1.575 1.575 0 0 0-1.952.253.262.262 0 0 1-.369 0 .25.25 0 0 1-.08-.184.25.25 0 0 1 .08-.185 2.033 2.033 0 0 1 2.64-.346 2.035 2.035 0 0 1 .725 2.562.253.253 0 0 1-.264.147zm11.457 14.052c-1.578 0-3.138-.33-4.579-.971a.268.268 0 0 1-.159-.146.268.268 0 0 1-.022-.108.27.27 0 0 1 .092-.196.27.27 0 0 1 .207-.062.276.276 0 0 1 .104.037 10.772 10.772 0 0 0 5.464.855.256.256 0 0 1 .103.012c.033.01.064.027.09.05a.267.267 0 0 1 .092.18.25.25 0 0 1-.008.102.247.247 0 0 1-.126.155.24.24 0 0 1-.098.028c-.385.042-.773.063-1.16.064z" fill="#E16C7A"/><path d="M218.883 180.924a.264.264 0 0 1-.2-.095 3.461 3.461 0 0 0-2.532-1.213 3.522 3.522 0 0 0-2.584 1.055.273.273 0 0 1-.19.08.273.273 0 0 1-.19-.08.25.25 0 0 1-.059-.286.272.272 0 0 1 .059-.084 3.93 3.93 0 0 1 3.018-1.265 3.93 3.93 0 0 1 2.932 1.455.267.267 0 0 1 0 .37.293.293 0 0 1-.254.063zm8.493 1.835a.249.249 0 0 1-.232-.147 3.167 3.167 0 0 0-4.695-1.182.263.263 0 0 1-.369 0 .258.258 0 0 1-.05-.199.254.254 0 0 1 .113-.17 3.703 3.703 0 0 1 3.06-.591 3.752 3.752 0 0 1 2.415 1.962.287.287 0 0 1 .006.204.292.292 0 0 1-.132.155l-.116-.032zm-9.136 2.437a1.23 1.23 0 0 1-.905 1.033 1.234 1.234 0 1 1-.15-2.415 1.258 1.258 0 0 1 1.055 1.382zm6.572 1.055a1.228 1.228 0 0 1-.899 1.041 1.232 1.232 0 0 1-1.558-1.111 1.235 1.235 0 1 1 2.457.07z" fill="#293267"/><path d="M278.096 223.31c-.665-.074-1.488-2.163-1.91-3.407a.267.267 0 0 1 .009-.202.269.269 0 0 1 .149-.136.276.276 0 0 1 .338.169c.32 1.064.793 2.077 1.403 3.006.286-1.444.396-2.917.327-4.388 0-.07.028-.137.077-.187a.263.263 0 0 1 .451.187c0 1.297 0 4.378-.538 4.852a.384.384 0 0 1-.306.106z" fill="#E16C7A"/><path d="M278.845 216.801l13.07-18.513 1.414.812-13.788 19.358-.696-1.657z" fill="#fff"/><path d="M219.01 186.451a3.555 3.555 0 1 1-1.403-4.831 3.536 3.536 0 0 1 1.826 3.508 3.552 3.552 0 0 1-.423 1.323v0zm8.471 1.614a3.55 3.55 0 0 1-5.404 1.016 3.556 3.556 0 1 1 5.703-3.717 3.537 3.537 0 0 1-.299 2.701v0z" stroke="#fff" stroke-width=".6" stroke-linecap="round" stroke-linejoin="round"/><path d="M219.559 185.006a.987.987 0 0 1 .688-.13c.237.043.45.172.599.362" stroke="#fff" stroke-width=".6" stroke-linecap="round" stroke-linejoin="round"/><path d="M212.807 276.899a.264.264 0 0 1-.221-.295l4.62-28.335 12.301-36.764a.266.266 0 1 1 .506.169l-12.29 36.721-4.61 28.293a.272.272 0 0 1-.112.165.272.272 0 0 1-.194.046zm-2.584-3.776a.265.265 0 0 1-.222-.296l4.146-25.001 1.519-5.401a.256.256 0 0 1 .124-.162.252.252 0 0 1 .203-.018.259.259 0 0 1 .157.121.247.247 0 0 1 .022.196l-1.508 5.38-4.178 24.959a.277.277 0 0 1-.263.222zm1.709-37.84a.265.265 0 0 1-.243-.147l-12.659-25.677a.248.248 0 0 1-.012-.201.25.25 0 0 1 .139-.147.26.26 0 0 1 .197-.012.262.262 0 0 1 .151.128l12.659 25.677c.03.061.034.132.012.197a.262.262 0 0 1-.128.151l-.116.031z" fill="#C34159"/></g><path d="M345.663 294.422a1.988 1.988 0 0 0-1.515-2.143 1.988 1.988 0 0 0-1.391.18 1.991 1.991 0 0 0-.924 1.055l-43.705 115.408-9.494-.159 40.319-128.699c13.83-4.568 29.284.338 29.284.338s4.779 15.328 1.477 37.038c-3.302 21.71-18.123 92.231-18.123 92.231l-8.218-.127 12.29-115.122z" fill="#293267"/><path d="M296.314 413.69h-16.372l8.692-4.948 9.495.158-1.815 4.79zm36.606 0l.453-4.22 8.218.127 5.454 4.093H332.92zm26.436-176.371c2.363 1.878 22.395 26.826 22.153 28.862-.243 2.036-17.786 20.149-17.786 20.149l-3.481-6.487 10.718-13.081-14.421-14.885 2.817-14.558z" fill="#BAB7F6"/><path d="M351.106 234.851s6.266 1.234 8.25 2.468c.759.475-1.678 30.73-1.678 30.73l5.201 20.961s-24.843 4.589-39.274-2.236l7.553-18.577s-4.705-29.032-4.536-29.538c.169-.506 8.26-3.576 8.26-3.576l16.224-.232z" fill="#BAB7F6"/><path d="M327.656 245.284a10.716 10.716 0 0 0-.401 6.382 7.68 7.68 0 0 0 2.489 4.22c.148 1.213.148 2.595.296 3.818m29.4-15.211a7.386 7.386 0 0 1-.58 7.975m-9.589-17.754a18.636 18.636 0 0 1-12.448.749" stroke="#A39EE9" stroke-width=".6" stroke-linecap="round" stroke-linejoin="round"/><path d="M352.625 279.03h-19.41v-2.384h20.497v1.298a1.063 1.063 0 0 1-.309.778 1.056 1.056 0 0 1-.778.308z" fill="#293267"/><path d="M298.73 279.02h36.109a.948.948 0 0 0 .96-1.055l-3.048-25.74a2.521 2.521 0 0 0-2.427-2.173h-33.936a1.896 1.896 0 0 0-1.861 1.357 1.892 1.892 0 0 0-.059.816l3.049 25.698a1.262 1.262 0 0 0 1.213 1.097z" fill="#293267"/><path d="M302.549 276.994h30.666a.361.361 0 0 0 .213-.122.363.363 0 0 0 0-.462.356.356 0 0 0-.213-.122h-30.666a.356.356 0 0 0-.293.627.352.352 0 0 0 .293.079zm8.481-13.861a2.177 2.177 0 0 0 1.297 2.052c.396.175.834.227 1.26.15a2.173 2.173 0 1 0-2.557-2.202z" fill="#384172"/><path d="M296.04 267.353s-4.22 2.415-3.998 3.755c.221 1.34 1.593 1.973 2.004 2.268.412.296.053 2.11 1.34 3.081 1.287.97 1.435 2.563 2.627 3.164 1.192.602 2.827-.991 3.228-1.413.401-.422-1.614-2.648-1.614-2.648s.875-1.171.675-1.635c-.201-.464-1.762-2.521-1.762-2.521.158-.742.222-1.5.19-2.258a5.163 5.163 0 0 0-.854-1.055l-1.055.57-.781-1.308zm61.142 12.669s4.357-1.678 5.222-.686a3.598 3.598 0 0 1 .464 2.869c0 .486 1.54 1.319 1.477 2.87-.063 1.55 1.055 2.616.76 3.882-.296 1.266-2.448 1.487-3.017 1.54-.57.053-.981-2.817-.981-2.817s-1.403-.063-1.625-.485c-.222-.422-.802-2.848-.802-2.848a8.949 8.949 0 0 1-1.804-1.234 5.63 5.63 0 0 1-.263-1.277l1.055-.443-.486-1.371z" fill="#FFA9A7"/><path d="M354.967 213.847a2.29 2.29 0 0 1-.453 2.585c-.454.433-1.055.654-1.562 1.055a3.39 3.39 0 0 0-1.055 2.11 7.622 7.622 0 0 0 .138 2.447 4.472 4.472 0 0 1-1.298-4.304 13.623 13.623 0 0 1 1.941-4.346 5.41 5.41 0 0 1-4.652-3.977 34.164 34.164 0 0 1-13.461 2.964 26.257 26.257 0 0 1 2.49-7.237 8.576 8.576 0 0 1 5.781-4.451 10.05 10.05 0 0 1 6.203 1.403 13.16 13.16 0 0 1 5.475 4.895c1.202 2.204 1.761 4.736.453 6.856z" fill="#293267"/><rect x="508.701" y="262.516" width="48.95" height="17.277" rx="5" fill="#D8ECFB"/><path d="M550.745 272.114h-23.619a1.27 1.27 0 0 1-.812-.281.888.888 0 0 1-.336-.679c0-.254.121-.498.336-.678a1.27 1.27 0 0 1 .812-.281h23.619c.305 0 .597.101.812.281.215.18.336.424.336.678a.888.888 0 0 1-.336.679 1.27 1.27 0 0 1-.812.281z" fill="#69ACFF"/><rect x="513.5" y="267.315" width="7.679" height="7.679" rx="2" fill="#0094FF"/><g clip-path="url(#clip1)"><path d="M519.259 270.435l-2.639 2.199-1.2-1" stroke="#fff" stroke-linecap="round" stroke-linejoin="round"/></g><rect x="561.491" y="306.668" width="48.95" height="17.277" rx="5" fill="#D8ECFB"/><path d="M603.535 316.266h-23.619a1.27 1.27 0 0 1-.812-.281.89.89 0 0 1-.336-.679c0-.255.121-.499.336-.679a1.27 1.27 0 0 1 .812-.281h23.619c.304 0 .596.101.812.281.215.18.336.424.336.679a.89.89 0 0 1-.336.679c-.216.18-.508.281-.812.281z" fill="#69ACFF"/><rect x="566.29" y="311.467" width="7.679" height="7.679" rx="2" fill="#0094FF"/><g clip-path="url(#clip2)"><path d="M572.049 314.586l-2.639 2.2-1.2-1" stroke="#fff" stroke-linecap="round" stroke-linejoin="round"/></g><rect x="561.491" y="327.783" width="48.95" height="17.277" rx="5" fill="#D8ECFB"/><path d="M603.535 337.382h-23.619c-.305 0-.597-.102-.812-.282a.888.888 0 0 1-.336-.678c0-.255.121-.499.336-.679a1.27 1.27 0 0 1 .812-.281h23.619c.304 0 .596.101.812.281.215.18.336.424.336.679a.888.888 0 0 1-.336.678c-.216.18-.508.282-.812.282z" fill="#69ACFF"/><rect x="566.29" y="332.583" width="7.679" height="7.679" rx="2" fill="#0094FF"/><g clip-path="url(#clip3)"><path d="M572.049 335.702l-2.639 2.199-1.2-.999" stroke="#fff" stroke-linecap="round" stroke-linejoin="round"/></g><rect x="508.701" y="306.668" width="48.95" height="17.277" rx="5" fill="#D8ECFB"/><path d="M550.745 316.266h-23.619a1.27 1.27 0 0 1-.812-.281.89.89 0 0 1-.336-.679c0-.255.121-.499.336-.679a1.27 1.27 0 0 1 .812-.281h23.619c.305 0 .597.101.812.281.215.18.336.424.336.679a.89.89 0 0 1-.336.679 1.27 1.27 0 0 1-.812.281z" fill="#69ACFF"/><rect x="513.5" y="311.467" width="7.679" height="7.679" rx="2" fill="#0094FF"/><g clip-path="url(#clip4)"><path d="M519.259 314.586l-2.639 2.2-1.2-1" stroke="#fff" stroke-linecap="round" stroke-linejoin="round"/></g><rect x="561.491" y="261.556" width="48.95" height="17.277" rx="5" fill="#fff"/><path d="M603.535 271.154h-23.619a1.27 1.27 0 0 1-.812-.281.888.888 0 0 1-.336-.678c0-.255.121-.499.336-.679a1.27 1.27 0 0 1 .812-.281h23.619c.304 0 .596.101.812.281.215.18.336.424.336.679a.888.888 0 0 1-.336.678c-.216.18-.508.281-.812.281z" fill="#69ACFF"/><rect x="566.29" y="266.355" width="7.679" height="7.679" rx="2" stroke="#2F9EEE" stroke-linecap="square" stroke-linejoin="round"/><rect x="508.701" y="284.592" width="48.95" height="17.277" rx="5" fill="#fff"/><path d="M550.745 294.19h-23.619a1.27 1.27 0 0 1-.812-.281.888.888 0 0 1-.336-.679.89.89 0 0 1 .336-.679 1.27 1.27 0 0 1 .812-.281h23.619c.305 0 .597.101.812.281a.89.89 0 0 1 .336.679.888.888 0 0 1-.336.679 1.27 1.27 0 0 1-.812.281z" fill="#69ACFF"/><rect x="513.5" y="289.391" width="7.679" height="7.679" rx="2" stroke="#2F9EEE" stroke-linecap="square" stroke-linejoin="round"/><rect x="508.701" y="328.743" width="48.95" height="17.277" rx="5" fill="#fff"/><path d="M550.745 338.341h-23.619a1.27 1.27 0 0 1-.812-.281.888.888 0 0 1-.336-.678c0-.255.121-.499.336-.679a1.27 1.27 0 0 1 .812-.281h23.619c.305 0 .597.101.812.281.215.18.336.424.336.679a.888.888 0 0 1-.336.678 1.27 1.27 0 0 1-.812.281z" fill="#69ACFF"/><rect x="513.5" y="333.542" width="7.679" height="7.679" rx="2" stroke="#2F9EEE" stroke-linecap="square" stroke-linejoin="round"/><rect x="561.491" y="283.632" width="48.95" height="17.277" rx="5" fill="#fff"/><path d="M603.535 293.23h-23.619a1.27 1.27 0 0 1-.812-.281.888.888 0 0 1-.336-.679c0-.254.121-.498.336-.678a1.27 1.27 0 0 1 .812-.281h23.619c.304 0 .596.101.812.281.215.18.336.424.336.678a.888.888 0 0 1-.336.679c-.216.18-.508.281-.812.281z" fill="#69ACFF"/><rect x="566.29" y="288.431" width="7.679" height="7.679" rx="2" stroke="#2F9EEE" stroke-linecap="square" stroke-linejoin="round"/><defs><linearGradient id="paint0_linear" x1="117.064" y1="300.055" x2="117.064" y2="321.069" gradientUnits="userSpaceOnUse"><stop stop-color="#293267"/><stop offset="1" stop-color="#3B467E"/></linearGradient><linearGradient id="paint1_linear" x1="25144" y1="16255.3" x2="25144" y2="18371.4" gradientUnits="userSpaceOnUse"><stop stop-color="#293267"/><stop offset="1" stop-color="#3B467E"/></linearGradient><linearGradient id="paint2_linear" x1="179539" y1="8106.96" x2="179539" y2="7738.92" gradientUnits="userSpaceOnUse"><stop stop-color="#293267"/><stop offset="1" stop-color="#3B467E"/></linearGradient><linearGradient id="paint3_linear" x1="162910" y1="113566" x2="162910" y2="45563.5" gradientUnits="userSpaceOnUse"><stop stop-color="#1052DB"/><stop offset="1" stop-color="#3B467E"/></linearGradient><linearGradient id="paint4_linear" x1="202.29" y1="284.833" x2="230.952" y2="209.069" gradientUnits="userSpaceOnUse"><stop stop-color="#FF647E"/><stop offset="1" stop-color="#FF8A7E"/></linearGradient><clipPath id="clip0"><path fill="#fff" d="M473.751 276.95h11.28v11.629h-11.28z"/></clipPath><clipPath id="clip1"><path fill="#fff" d="M514.46 269.235h5.759v4.799h-5.759z"/></clipPath><clipPath id="clip2"><path fill="#fff" d="M567.25 313.386h5.759v4.799h-5.759z"/></clipPath><clipPath id="clip3"><path fill="#fff" d="M567.25 334.502h5.759v4.799h-5.759z"/></clipPath><clipPath id="clip4"><path fill="#fff" d="M514.46 313.386h5.759v4.799h-5.759z"/></clipPath></defs></svg>