<svg width="724" height="480" fill="none" xmlns="http://www.w3.org/2000/svg"><path d="M218.2 235.45c2.139 5.046 4.27 10.029 6.391 14.947-10.917-12.953-30.251-26.133-62.063-20.15 24.093 28.143 34.995 40.259 71.1 40.817 2.067 4.692 4.134 9.314 6.2 13.868-14.043-9.378-42.171-21.184-74.995 2.893 33.093 14.659 48.242 20.946 79.532 7.151a2076.876 2076.876 0 0 0 16.476 35.289c-15.877-13.242-47.296-30.076-89.199-6.717 37.935 22.776 55.119 32.551 95.653 20.151a2015.17 2015.17 0 0 0 12.338 24.924c-15.614-8.701-54.101-22.031-101.408 18.823 43.116 10.452 62.327 14.575 105.118-11.558 9.264 18.207 15.293 37.009 21.907 51.347h13.356c-6.567-11.883-14.467-27.182-21.969-41.598 47.219-17.391 55.889-35.025 74.437-75.393-62.569 12.018-75.264 51.745-77.816 68.868a1910.87 1910.87 0 0 1-11.104-21.954c37.284-24.919 40.301-44.336 46.041-89.266-51.052 21.246-51.569 64.616-49.384 82.524a2241.044 2241.044 0 0 1-19.049-39.676c30.835-16.146 35.289-31.869 44.382-67.199-39.753 10.985-47.607 41.004-48.79 57.713a2126.731 2126.731 0 0 1-7.925-17.35c22.408-29.043 19.669-45.08 12.472-81.671-22.522 19.587-25.668 40.962-23.359 57.186-4.03-9.218-8.103-18.69-12.219-28.418 1.033-15.397-1.669-50.06-43.649-65.535 6.05 35.511 9.15 51.616 37.526 69.984z" fill="#D8EFFF"/><path d="M548.914 469.499s-18.724-12.969-14.467-33.067c4.258-20.099 27.384-17.976 24.284-33.827-3.1-15.852-18.352-40.554-3.555-58.529 14.798-17.976 39.418-7.198 42.507-35.067 2.486-22.46 12.866-38.363 32.97-33.703 18.6 4.319 32.493 18.73 32.834 53.006.378 36.498 26.077 26.242 26.397 53.13.321 27.074-21.251 27.074-29.672 45.245-3.979 8.577 6.396 38.751-24.284 42.796l-87.014.016z" fill="#C1CCFF"/><path d="M627.475 289.928s.072.609.176 1.808c.325 3.617.981 12.349.981 24.547 0 35.698-5.621 100.897-41.153 152.937a1.893 1.893 0 0 0-.155.279h3.72c35.206-52.701 40.688-117.539 40.699-153.216 0-16.42-1.168-26.66-1.173-26.712a1.574 1.574 0 0 0-.58-1.044 1.569 1.569 0 0 0-1.148-.328 1.562 1.562 0 0 0-1.372 1.729" fill="#fff"/><path fill-rule="evenodd" clip-rule="evenodd" d="M587.324 469.499c-2.34-53.032 53.394-40.219 50.082-69.08-1.866-16.26 2.723-35.454 29.678-35.811 16.662-.217 10.405-17.789 27.337-21.292 10.292-2.129 17.076 8.613 18.388 19.163 1.504 12.013-5.301 23.819 2.501 33.584 10.122 12.68 14.235 36.318-7.523 43.045-21.757 6.727-2.366 27.327-31.992 30.37h-88.471v.021z" fill="#D8EFFF"/><path d="M693.289 355.091c-.568 15.79-7.569 38.265-19.556 59.707-11.987 21.442-28.934 41.913-49.152 53.967a1.55 1.55 0 0 0-.64.734h5.347c19.5-12.617 35.599-32.473 47.163-53.182 12.172-21.819 19.328-44.558 19.954-61.107a1.552 1.552 0 0 0-3.1-.119" fill="#fff"/><path fill-rule="evenodd" clip-rule="evenodd" d="M429.954 400.156h70.201l11.517 50.996v.434h-70.103l-11.615-51.43z" fill="#07287A"/><path fill-rule="evenodd" clip-rule="evenodd" d="M311.972 155.442l322.458-4.945h17.866c12.08 0 22.889 9.915 21.964 21.959l-15.81 205.74c-.925 12.039-9.884 21.959-21.964 21.959H295.521c-12.075 0-22.884-9.92-21.959-21.959l15.805-205.74c.925-12.044 10.53-16.828 22.605-17.014z" fill="url(#paint0_linear)"/><path fill-rule="evenodd" clip-rule="evenodd" d="M298.548 171.795h340.319a.96.96 0 0 1 .992.987l-15.613 204.703c-.012.259-.496 1.073-.496 1.073a1.03 1.03 0 0 1-.688.3H282.743a.971.971 0 0 1-.704-.283.96.96 0 0 1-.214-.323c-.048-.121 7.567.737 7.57.606l8.166-206.076c.011-.258.119-.503.302-.685.182-.183.427-.291.685-.302z" fill="#FAF9FD"/><g filter="url(#filter0_d)"><path d="M520.111 225.787h108.694l-3.791 42.638a10 10 0 0 1-10.066 9.114l-88.913-.939c-5.868-.062-10.422-5.14-9.847-10.98l3.923-39.833z" fill="#fff"/><path d="M550.317 257.59a5 5 0 0 1 4.927-4.15h62.297a5 5 0 0 1 4.977 5.478l-.897 9.346a5 5 0 0 1-4.977 4.522H553.63c-3.101 0-5.454-2.794-4.927-5.851l1.614-9.345z" fill="#0094FF"/><g clip-path="url(#clip0)" stroke="#fff" stroke-linecap="round" stroke-linejoin="round"><path d="M606.676 263.113h8.445m-1.877-2.418l2.346 2.418-2.346 2.419"/></g><path d="M521.199 255.553a1.438 1.438 0 0 1 1.236-.703h20.802a1.437 1.437 0 1 1 0 2.875h-20.802a1.438 1.438 0 0 1-1.236-2.172zm0 8.623a1.438 1.438 0 0 1 1.236-.703h20.802a1.437 1.437 0 1 1 0 2.874h-20.802a1.437 1.437 0 0 1-1.236-2.171z" fill="#89C3E2"/><path d="M558.645 235.047a5 5 0 0 1 4.928-4.149h19.37a5 5 0 0 1 4.925 5.86l-.365 2.091a4.998 4.998 0 0 1-4.925 4.14h-19.367a5 5 0 0 1-4.927-5.85l.361-2.092z" fill="#FDEFF1"/><path d="M563.958 236.258a1.437 1.437 0 0 1 1.305-.835h15.587a1.437 1.437 0 0 1 0 2.874h-15.587a1.437 1.437 0 0 1-1.305-2.039z" fill="#89C3E2"/><path d="M560.527 262.006a1.437 1.437 0 0 1 1.044-.449h34.495c1.265 0 1.913 1.516 1.039 2.43a1.436 1.436 0 0 1-1.039.444h-34.495c-1.261 0-1.911-1.509-1.044-2.425z" fill="#fff"/><path d="M523.196 235.047a5.002 5.002 0 0 1 4.928-4.149h19.37a5 5 0 0 1 4.925 5.86l-.365 2.091a4.998 4.998 0 0 1-4.925 4.14h-19.367a5 5 0 0 1-4.927-5.85l.361-2.092z" fill="#FDEFF1"/><path d="M528.509 236.258a1.437 1.437 0 0 1 1.305-.835h15.587a1.437 1.437 0 0 1 0 2.874h-15.587a1.437 1.437 0 0 1-1.305-2.039z" fill="#89C3E2"/><path d="M593.847 235.228a5 5 0 0 1 4.912-4.064h19.778c3.136 0 5.498 2.855 4.911 5.936l-.398 2.091a5.001 5.001 0 0 1-4.912 4.064H598.36c-3.137 0-5.499-2.855-4.911-5.936l.398-2.091z" fill="#E1DFEF"/><path d="M596.888 236.391a1.438 1.438 0 0 1 1.235-.703h20.803a1.438 1.438 0 0 1 0 2.875h-20.803a1.438 1.438 0 0 1-1.235-2.172z" fill="#89C3E2"/><path d="M522.502 206.164a10.001 10.001 0 0 1 9.928-8.798h52.594c5.946 0 10.579 5.158 9.942 11.071l-1.88 17.465h-72.975l2.391-19.738zm74.511-.001a10 10 0 0 1 9.927-8.798h13.859c5.947 0 10.58 5.158 9.943 11.071l-1.881 17.465h-34.239l2.391-19.738z" fill="#E1DFEF"/><path d="M602.636 215.314a1.438 1.438 0 0 1 1.236-.703h20.803a1.437 1.437 0 0 1 0 2.874h-20.803a1.437 1.437 0 0 1-1.236-2.171zm-48.862-4.791a1.438 1.438 0 0 1 1.236-.703h20.802a1.437 1.437 0 1 1 0 2.875H555.01a1.438 1.438 0 0 1-1.236-2.172zm-27.773-2.853a5 5 0 0 1 4.981-4.556h14.115a5 5 0 0 1 4.98 5.448l-.826 9.162a5 5 0 0 1-4.98 4.551h-14.106a4.999 4.999 0 0 1-4.98-5.444l.816-9.161z" fill="#89C3E2"/><path d="M584.298 214.201a3.224 3.224 0 1 0 0-6.449 3.224 3.224 0 0 0 0 6.449zm0 .806a4.03 4.03 0 1 1 0-8.061 4.031 4.031 0 0 1 0 8.061zm-.403-4.433v2.418h.807v-2.418h-.807zm0-1.613h.807v.806h-.807v-.806z" fill="#000" fill-opacity=".2"/></g><g filter="url(#filter1_d)"><path d="M511.489 316.805h108.693l-3.79 42.638a10.001 10.001 0 0 1-10.067 9.114l-88.913-.939c-5.868-.062-10.422-5.14-9.846-10.98l3.923-39.833z" fill="#fff"/><path d="M541.695 348.607a5 5 0 0 1 4.927-4.149h62.296a5 5 0 0 1 4.977 5.478l-.896 9.346a5 5 0 0 1-4.977 4.522h-63.014a5 5 0 0 1-4.927-5.851l1.614-9.346z" fill="#EC5271"/><path d="M602.544 352.335l-5.27 5.27m0-5.27l5.27 5.27" stroke="#fff" stroke-linecap="round" stroke-linejoin="round"/><path d="M512.577 346.571a1.436 1.436 0 0 1 1.235-.703h20.803a1.437 1.437 0 0 1 0 2.875h-20.803a1.437 1.437 0 0 1-1.235-2.172zm-211.614-14.347a5 5 0 0 1 4.98-4.559h42.75a5 5 0 0 1 4.98 5.445l-2.877 32.156a5 5 0 0 1-4.981 4.554h-42.719a5 5 0 0 1-4.981-5.441l2.848-32.155zm211.614 22.97a1.436 1.436 0 0 1 1.235-.703h20.803a1.437 1.437 0 0 1 0 2.874h-20.803a1.437 1.437 0 0 1-1.235-2.171z" fill="#89C3E2"/><path d="M550.023 326.065a5 5 0 0 1 4.927-4.149h19.37a5 5 0 0 1 4.925 5.86l-.364 2.091a5 5 0 0 1-4.926 4.14h-19.366a5 5 0 0 1-4.927-5.85l.361-2.092z" fill="#FDEFF1"/><path d="M555.335 327.276a1.438 1.438 0 0 1 1.305-.835h15.587a1.437 1.437 0 1 1 0 2.874H556.64a1.437 1.437 0 0 1-1.305-2.039z" fill="#89C3E2"/><path d="M551.905 353.024a1.435 1.435 0 0 1 1.043-.449h34.496c1.265 0 1.912 1.516 1.038 2.43a1.434 1.434 0 0 1-1.038.444h-34.496c-1.261 0-1.91-1.509-1.043-2.425z" fill="#fff"/><path d="M514.574 326.065a5 5 0 0 1 4.927-4.149h19.37a5 5 0 0 1 4.925 5.86l-.365 2.091a4.998 4.998 0 0 1-4.925 4.14H519.14a5 5 0 0 1-4.928-5.85l.362-2.092z" fill="#FDEFF1"/><path d="M519.886 327.276a1.437 1.437 0 0 1 1.305-.835h15.587a1.437 1.437 0 1 1 0 2.874h-15.587a1.437 1.437 0 0 1-1.305-2.039z" fill="#89C3E2"/><path d="M585.224 326.246a5.001 5.001 0 0 1 4.912-4.064h19.778c3.137 0 5.499 2.855 4.912 5.936l-.399 2.091a5 5 0 0 1-4.912 4.064h-19.777c-3.137 0-5.499-2.855-4.912-5.936l.398-2.091z" fill="#E1DFEF"/><path d="M588.265 327.409a1.44 1.44 0 0 1 1.236-.703h20.802a1.437 1.437 0 1 1 0 2.875h-20.802a1.438 1.438 0 0 1-1.236-2.172z" fill="#89C3E2"/><path d="M513.88 297.182a10 10 0 0 1 9.927-8.798h52.594c5.946 0 10.579 5.158 9.942 11.071l-1.88 17.465h-72.974l2.391-19.738zm74.51-.001a10 10 0 0 1 9.927-8.798h13.86c5.946 0 10.579 5.159 9.942 11.071l-1.881 17.465h-34.239l2.391-19.738z" fill="#E1DFEF"/><path d="M594.014 296.751a1.436 1.436 0 0 1 1.235-.703h20.803a1.437 1.437 0 0 1 0 2.874h-20.803a1.437 1.437 0 0 1-1.235-2.171zm0 9.581a1.436 1.436 0 0 1 1.235-.703h20.803a1.437 1.437 0 0 1 0 2.874h-20.803a1.437 1.437 0 0 1-1.235-2.171zm-48.863-4.791a1.438 1.438 0 0 1 1.236-.703h20.802a1.437 1.437 0 1 1 0 2.875h-20.802a1.438 1.438 0 0 1-1.236-2.172zm-27.772-2.853a4.999 4.999 0 0 1 4.98-4.556h14.115a5 5 0 0 1 4.98 5.448l-.826 9.162a5 5 0 0 1-4.979 4.551h-14.107a5 5 0 0 1-4.98-5.444l.817-9.161z" fill="#89C3E2"/><path d="M575.676 305.219a3.225 3.225 0 1 0-.001-6.449 3.225 3.225 0 0 0 .001 6.449zm0 .806a4.031 4.031 0 1 1 0-8.063 4.031 4.031 0 0 1 0 8.063zm-.403-4.434v2.419h.806v-2.419h-.806zm0-1.612h.806v.806h-.806v-.806z" fill="#000" fill-opacity=".2"/></g><path d="M363.098 334.472c.168-.067.347-.101.528-.101h95.006c1.589 0 2.003 2.198.523 2.776a1.437 1.437 0 0 1-.523.099h-95.006c-1.586 0-2.003-2.192-.528-2.774zm0 7.664c.168-.066.347-.1.528-.1h95.006c1.589 0 2.003 2.197.523 2.776a1.436 1.436 0 0 1-.523.098h-95.006c-1.586 0-2.003-2.191-.528-2.774zm-2.422 7.76c.22-.128.469-.195.723-.195h64.036c1.471 0 1.992 1.947.718 2.682a1.435 1.435 0 0 1-.718.192h-64.036c-1.467 0-1.991-1.941-.723-2.679zm111.602-14.801a1.435 1.435 0 0 1 1.247-.724h19.94a1.437 1.437 0 0 1 0 2.875h-19.94a1.437 1.437 0 0 1-1.247-2.151z" fill="#89C3E2"/><path fill-rule="evenodd" clip-rule="evenodd" d="M297.205 171.795h340.319a.948.948 0 0 1 .383.068.956.956 0 0 1 .609.919l-1.364 17.701H294.854l1.364-17.701c.011-.258.119-.503.302-.685.182-.183.427-.291.685-.302z" fill="#9EDDFF"/><path fill-rule="evenodd" clip-rule="evenodd" d="M424.747 400.156h67.157l11.13 51.43h-67.158l-11.129-51.43z" fill="#1945B2"/><path fill-rule="evenodd" clip-rule="evenodd" d="M452.234 383.266a6.416 6.416 0 0 1 4.536 10.956 6.412 6.412 0 0 1-6.995 1.388 6.413 6.413 0 0 1-2.077-10.466 6.415 6.415 0 0 1 4.536-1.878z" fill="#D8E7FF"/><path fill-rule="evenodd" clip-rule="evenodd" d="M417.1 451.141h94.552v9.181a9.214 9.214 0 0 1-9.182 9.182h-94.552v-9.182a9.21 9.21 0 0 1 9.182-9.181z" fill="#07287A"/><path fill-rule="evenodd" clip-rule="evenodd" d="M411.127 451.141h80.953c-3.901 0-7.9 3.245-7.9 9.104v2.067c0 5.048-1.995 7.166-6.619 7.166h-74.866v-9.176c0-5.053 3.782-9.182 8.411-9.182" fill="#3C69D8"/><path fill-rule="evenodd" clip-rule="evenodd" d="M486.665 453.513a8.99 8.99 0 0 0-2.32 4.826h-81.433a9.38 9.38 0 0 1 2.583-4.831h81.16" fill="#6C93F6"/><path fill-rule="evenodd" clip-rule="evenodd" d="M310.84 197.21h204.206a.574.574 0 0 1 .422.171.587.587 0 0 1 .167.423l-9.481 123.062a.612.612 0 0 1-.594.589H301.354a.572.572 0 0 1-.589-.589l9.481-123.062a.61.61 0 0 1 .18-.414.61.61 0 0 1 .414-.18z" fill="#93D9FF"/><path fill-rule="evenodd" clip-rule="evenodd" d="M352.717 176.962h234.824a3.872 3.872 0 0 1 3.875 3.875 3.875 3.875 0 0 1-3.875 3.875H352.717a3.876 3.876 0 0 1 0-7.75z" fill="#fff"/><path fill-rule="evenodd" clip-rule="evenodd" d="M375.424 190.85c-8.824 17.458-19.54 33.646-42.672 36.079-18.76 1.974-72.975-30.602-74.716-47.482-1.742-16.88 9.806-19.076 9.806-19.076s53.357 30.815 58.384 29.378c3.808-1.079 22.832-17.515 34.504-27.254 2.48-2.067 18.492 20.848 14.694 28.355z" fill="#183E9D"/><path fill-rule="evenodd" clip-rule="evenodd" d="M383.139 154.977l43.576 1.953c10.54.47 25.493 6.438 31.518 14.198 8.049 10.334-5.405 78.876-4.325 134.853H351.027c-1.72-53.76.951-109.262 9.704-143.471 6.272-4.815 13.95-7.9 22.408-7.517" fill="#183E9D"/><path fill-rule="evenodd" clip-rule="evenodd" d="M430.435 196.471c-3.906-9.171.197-26.598 9.518-30.143 2.464-.935 7.832-3.058 12.173-.361 11.325 7.037 38.265 46.65 39.112 74.809.61 20.373-39.831 38.343-60.617 33.068-2.516-2.878-8.452-13.858-3.616-19.076 8.628-9.3 29.078-11.631 28.184-18.668-1.601-12.679-21.566-32.132-24.764-39.629" fill="#183E9D"/><path fill-rule="evenodd" clip-rule="evenodd" d="M387.448 155.168c-3.855 21.509-.393 86.285 5.104 109.282.843-1.829 25.173-91.208 27.901-107.804-6.655-.909-24.516-1.586-32.995-1.478" fill="#fff"/><path fill-rule="evenodd" clip-rule="evenodd" d="M372.81 136.501c-1.033 10.23 10.995 17.412 18.88 16.358l.186 3.896c-3.581 6.655 4.319 12.111 7.946 15.257.977-.734 12.705-5.435 14.028-15.908l-.822-17.459a7.922 7.922 0 0 0 1.711-.852c1.694-1.147 2.247-3.777 1.653-6.433-.594-2.656-4.232-.666-4.232-.666 2.847-8.102 6.65-15.155-1.88-19.169-8.531-4.015-25.317-2.878-25.317-2.878l-10.112-.553c2.925 4.196-1.343 21.628-2.035 28.417" fill="#F7CCCF"/><circle cx="617.154" cy="181.557" r="4.311" fill="#fff"/><circle cx="603.741" cy="181.557" r="4.311" fill="#fff"/><circle cx="630.568" cy="181.557" r="4.311" fill="#fff"/><path fill-rule="evenodd" clip-rule="evenodd" d="M394.715 139.389a7.345 7.345 0 0 1-12.52 4.902 7.342 7.342 0 0 1-2.166-5.078 1.269 1.269 0 0 1 1.279-1.249l12.12.138a1.285 1.285 0 0 1 1.256 1.287h.031z" fill="#2F221F"/><path fill-rule="evenodd" clip-rule="evenodd" d="M391.903 145.081a7.311 7.311 0 0 1-8.48.414 4.592 4.592 0 0 1 4.221-2.651 4.597 4.597 0 0 1 4.259 2.237z" fill="#DC5C4E"/><path fill-rule="evenodd" clip-rule="evenodd" d="M381.17 137.987l11.377.13c.169 1.264-.429 2.528-1.272 2.796-1.034.322-9.27 0-9.852-.643-.276-.314-.299-1.318-.253-2.298v.015z" fill="#fff"/><path d="M382.259 122.012c-.427 1.677-1.634 2.835-2.703 2.563-1.068-.272-1.599-1.841-1.219-3.539.38-1.697 1.634-2.835 2.702-2.563 1.069.272 1.614 1.903 1.22 3.539zm15.329.958c-.426 1.677-1.634 2.835-2.702 2.563-1.068-.272-1.6-1.841-1.22-3.539.38-1.697 1.634-2.835 2.703-2.563 1.068.272 1.614 1.903 1.219 3.539z" fill="#2E3062"/><path d="M386.194 133.08a8.326 8.326 0 0 0 2.846.244.77.77 0 0 0 .294-1.269.774.774 0 0 0-.455-.225c-.752.064-2.478.011-3.057-.616a.856.856 0 0 1-.154-.798c.521-2.666 3.855-11.097 3.883-11.182a.792.792 0 0 0 .085-.308.778.778 0 0 0-.8-.818.78.78 0 0 0-.562.275.776.776 0 0 0-.15.282 109.498 109.498 0 0 0-3.961 11.454 2.32 2.32 0 0 0 .524 2.127c.419.407.939.695 1.507.834z" fill="#ED8082"/><path fill-rule="evenodd" clip-rule="evenodd" d="M406.188 144.385c-3.1 9.646-6.268 13.325-14.193 14.798l-.31-6.448c3.032-.45 10.369-3.395 14.503-8.35z" fill="#ED8082"/><path fill-rule="evenodd" clip-rule="evenodd" d="M416.656 214.602l25.162 1.012-.207 4.087-25.162-1.007.207-4.092z" fill="#93D9FF"/><path fill-rule="evenodd" clip-rule="evenodd" d="M384.27 115.735c7.699.171 16.121-2.036 20.667 1.845 3.199 2.728 3.359 6.427 1.488 13.95-.547 2.222-1.483 3.942 1.762 1.746 1.488-1.002 3.968-2.475 4.991-1.891 2.279 1.302 1.819 4.888.393 6.252-.641.61-1.881 1.55-1.881 1.55 22.579-7.332 21.618-27.317 8.179-40.6-14.932-26.252-55.649-24.336-47.136-6.717-8.975 9.78-1.979 23.514 11.532 23.819" fill="#3A2926"/><path fill-rule="evenodd" clip-rule="evenodd" d="M268.467 163.554c1.804 6.459-4.448 21.473-8.871 16.617-1.302-1.426-2.651-2.822-4.278-4.738-4.816-5.684 3.415-19.634 6.588-17.097l6.561 5.218z" fill="#fff"/><path fill-rule="evenodd" clip-rule="evenodd" d="M259.813 157.902c-.351-2.165-1.855-10.716-3.296-12.209-.739-.765-.935-.439-1.292 0a4.002 4.002 0 0 0-.563 2.227 34.24 34.24 0 0 0 .362 3.875c-4.439-2.713-8.551-8.784-11.708-12.943-1.282-1.69-4.134-.393-2.976 2.583.315.791 5.683 8.04 5.714 8.913.088 4.133-13.082 10.359 10.902 21.7 1.297-.95 4.939-4.862 5.585-9.584l-2.728-4.562z" fill="#F7CCCF"/><path fill-rule="evenodd" clip-rule="evenodd" d="M427.449 258.653c5.28 1.55 10.23 9.208 9.997 13.351-.878.062-4.272 1.287-7.3 1.741-6.51.982-11.78-12.198-8.406-13.407l5.709-1.685z" fill="#fff"/><path fill-rule="evenodd" clip-rule="evenodd" d="M422.525 262.053l-3.405.744-10.452-2.919c-1.132-.651-8.691-3.23-6.888-.471 1.266 1.938 5.426 5.333 5.296 5.519-1.684 2.449-16.476 4.908-16.642 5.125-2.325 3.1 8.67 1.493 10.287 1.395.424 0-7.884 2.728-7.621 3.028a3.255 3.255 0 0 0 2.94 1.209c2.181-.186 7.378-1.69 7.776-1.338.398.351-7.714 3.002-7.306 3.312a2.838 2.838 0 0 0 2.31.599c2.258-.259 7.233-1.695 7.75-1.426.269.139-2.454.883-3.534 1.245-4.294 1.436.517 1.684 2.253 1.457 8.375-1.085 8.701-4.784 18.6-6.055 9.3-.781.517-11.837-1.374-11.424" fill="#F7CCCF"/><path d="M507.454 296.716l-205.509-.668-.958 25.389h204.55l1.917-24.721z" fill="#89C3E2"/><path fill-rule="evenodd" clip-rule="evenodd" d="M397.753 297.964a10.061 10.061 0 0 1 9.867 12.023 10.062 10.062 0 0 1-18.231 3.626 10.054 10.054 0 0 1 1.251-12.702 10.057 10.057 0 0 1 7.113-2.947z" fill="#EC5271"/><path d="M394.925 307.959a9.511 9.511 0 0 1-1.479-4.155.958.958 0 0 1 .958-1.049h1.446a.96.96 0 0 1 .963.828c.061.462.174.916.337 1.353a.962.962 0 0 1-.217 1.016l-.611.611m1.247 1.637c.489.489 1.042.91 1.643 1.252l.612-.611a.957.957 0 0 1 1.016-.217c.437.163.891.276 1.354.337a.965.965 0 0 1 .829.963v1.444a.967.967 0 0 1-1.051.963 9.535 9.535 0 0 1-4.157-1.478 9.361 9.361 0 0 1-1.604-1.285l1.358-1.368zm5.454-5.445l-9.581 9.58" stroke="#fff" stroke-linecap="round" stroke-linejoin="round"/><path d="M496.678 316.837h-1.26a1.81 1.81 0 0 1-1.674-1.115 1.814 1.814 0 0 1-.135-.694v-.976h1.158v.682a1.09 1.09 0 0 0 1.09 1.09h1.064v1.033l-.243-.02zm5.973-2.542v.733a1.79 1.79 0 0 1-1.114 1.674c-.22.09-.456.136-.694.135h-1.695v-1.034h1.256a1.09 1.09 0 0 0 1.09-1.09v-.682h1.157v.264zm-3.26-5.028h1.473a1.808 1.808 0 0 1 1.808 1.809v.723h-1.157v-.444a1.091 1.091 0 0 0-.321-.77 1.091 1.091 0 0 0-.77-.321h-1.255v-1.033l.222.036zm-3.973 0h1.503v1.034h-1.064a1.09 1.09 0 0 0-1.09 1.09v.429h-1.137v-.724a1.808 1.808 0 0 1 1.808-1.808l-.02-.021z" fill="#fff"/><path fill-rule="evenodd" clip-rule="evenodd" d="M483.777 317.265l-.057-.372a.345.345 0 0 1 .202-.377c.275-.128.535-.288.775-.475a.352.352 0 0 1 .428 0l.305.227a.361.361 0 0 0 .517-.083l.424-.584a.354.354 0 0 0-.078-.516l-.305-.222a.357.357 0 0 1-.124-.414 3.84 3.84 0 0 0 .212-.878.352.352 0 0 1 .295-.31l.377-.057a.362.362 0 0 0 .294-.413l-.113-.719a.357.357 0 0 0-.408-.294l-.373.057a.345.345 0 0 1-.377-.202 3.766 3.766 0 0 0-.475-.77.352.352 0 0 1 0-.428l.227-.31a.35.35 0 0 0 .072-.277.361.361 0 0 0-.154-.24l-.589-.429a.358.358 0 0 0-.413-.025.352.352 0 0 0-.104.103l-.222.304a.354.354 0 0 1-.414.13 3.313 3.313 0 0 0-.878-.212.362.362 0 0 1-.31-.3l-.062-.377a.36.36 0 0 0-.143-.232.362.362 0 0 0-.265-.063l-.718.114a.358.358 0 0 0-.295.408l.057.377a.352.352 0 0 1-.201.378 3.506 3.506 0 0 0-.77.47.357.357 0 0 1-.434 0l-.305-.222a.359.359 0 0 0-.276-.077.364.364 0 0 0-.241.154l-.429.589a.35.35 0 0 0-.076.276.362.362 0 0 0 .051.137.364.364 0 0 0 .103.104l.305.227a.347.347 0 0 1 .124.408 3.584 3.584 0 0 0-.207.879.356.356 0 0 1-.3.31l-.377.062a.352.352 0 0 0-.231.143.352.352 0 0 0-.063.265l.113.718a.346.346 0 0 0 .142.233.357.357 0 0 0 .267.062l.371-.057a.354.354 0 0 1 .383.201c.124.277.282.537.47.775a.354.354 0 0 1 0 .429l-.222.305a.348.348 0 0 0-.074.275.354.354 0 0 0 .151.242l.589.423a.345.345 0 0 0 .276.077.357.357 0 0 0 .241-.154l.227-.305a.347.347 0 0 1 .409-.124c.285.106.581.177.883.212a.347.347 0 0 1 .305.294l.062.377a.355.355 0 0 0 .142.234.347.347 0 0 0 .266.061l.718-.114a.355.355 0 0 0 .234-.142.347.347 0 0 0 .061-.266h.005zm-1.405-2.129a1.972 1.972 0 0 1-1.748-1.089 1.978 1.978 0 0 1 2.068-2.845 1.976 1.976 0 0 1 1.302 3.117 1.977 1.977 0 0 1-1.617.817h-.005z" fill="#fff"/><path fill-rule="evenodd" clip-rule="evenodd" d="M170.789 262.311c20.332 19.52 33.584 79.873 59.418 88.011 0 0 2.403 6.05 1.158 11.47-1.246 5.42-3.648 7.471-3.648 7.471s-21.737 1.979-40.001-1.844c-10.272-2.149-11.786-15.676-15.681-17.242-10.82-4.355-16.534-48.118-16.534-48.118l15.288-39.748z" fill="#F7AB2B"/><path fill-rule="evenodd" clip-rule="evenodd" d="M231.716 358.305c0 1.147.398.201-.356 3.487s-3.648 7.471-3.648 7.471-21.742 1.979-40.001-1.844c-10.266-2.15-15.03-10.416-18.926-11.982-4.702-1.891-2.253-39.004-5.756-43.029l-.516-2.289 7.476-23.622s11.129 56.969 33.315 63.835c22.186 6.867 23.251 6.789 28.418 7.973" fill="#ECA01F"/><path fill-rule="evenodd" clip-rule="evenodd" d="M157.914 188.902c-5.244 38.234 20.466 50.061-4.707 85.438 0 0-15.412-16.968-22.015-18.167-6.604-1.198-7.503-21.984-7.503-23.049 0-1.064 5.875-42.45 5.875-42.45l28.35-1.772z" fill="#003398"/><path fill-rule="evenodd" clip-rule="evenodd" d="M142.44 249.622h-39.211c-19.711 0-37.676 13.635-40.941 32.587-6.505 36.276 6.324 93.306 6.634 96.649h102.653l.455-58.033-1.24-58.508c-6.076-6.805-18.601-12.695-28.35-12.695z" fill="#F7AB2B"/><path fill-rule="evenodd" clip-rule="evenodd" d="M114.834 249.622c6.381 17.784 14.741 5.864 22.873 0 1.55 0 4.133-.109 6.717.077 23.131 68.114 10.726 75.719 3.565 115.586l-22.377 11.243c-4.992-3.038-11.837-5.777-16.829-8.815-.764-39.856 15.341-40.166-5.575-118.091h11.626z" fill="#fff"/><path fill-rule="evenodd" clip-rule="evenodd" d="M151.936 207.115a29.677 29.677 0 0 0 1.468 10.85c3.131 8.99-3.731 24.465-15.744 23.436l.047 8.195h-.191c2.976 9.997-2.883 19.479-7.461 19.675-4.066.17-14.663-6.309-15.221-19.675l1.188-13.377c-.594-.181-1.803-2.738-3.012-3.477-1.209-.739-2.532-3.824-2.067-6.624.465-2.8 2.966-8.639 2.966-8.639-3.374-8.303-6.278-7.75 2.418-12.348 8.696-4.599 26.232-4.268 26.232-4.268l9.072 2.723.305 3.529z" fill="#F6C2C3"/><path d="M129.969 227.066c.1 2.059.831 5.946 4.99 6.616 4.158.67 5.791-2.539 6.507-4.805l-11.497-1.811z" fill="#FFF9FF"/><path d="M136.936 224.663a6.217 6.217 0 0 1-2.157-.272.615.615 0 0 1-.262-.699.589.589 0 0 1 .229-.313.572.572 0 0 1 .372-.099c.552.17 1.846.406 2.369.022a.655.655 0 0 0 .232-.582c.003-2.113-1.245-9.065-1.253-9.134a.612.612 0 0 1 .063-.481.583.583 0 0 1 .392-.27.586.586 0 0 1 .621.309c.04.074.064.155.071.238a87.776 87.776 0 0 1 1.272 9.353c.016.297-.039.593-.162.861a1.773 1.773 0 0 1-.541.674 2.437 2.437 0 0 1-1.246.393z" fill="#EA9191"/><path d="M127.3 214.074c-.291 1.708.355 3.239 1.443 3.429 1.088.19 2.201-1.063 2.53-2.771.329-1.708-.367-3.251-1.442-3.429-1.076-.177-2.316 1.051-2.531 2.771z" fill="#2E3062"/><path d="M125.545 208.536c-.167 0-.334-.084-.334-.251-.084-.167 0-.417.167-.584 2.755-1.419 5.927-.417 6.094-.334.251.084.334.334.251.501-.084.167-.334.334-.501.25 0 0-3.006-.918-5.427.334-.167 0-.167.084-.25.084zm16.254-.136c-.167-.008-.33-.099-.322-.266-.076-.171.019-.417.194-.576 2.817-1.29 5.94-.143 6.103-.052.246.095.318.35.227.512-.091.163-.349.319-.512.227 0 0-2.96-1.056-5.436.083-.167-.008-.171.076-.254.072z" fill="#040962"/><path d="M142.494 214.524c-.291 1.708.354 3.239 1.442 3.429 1.088.19 2.201-1.063 2.53-2.771.329-1.708-.367-3.251-1.442-3.428-1.075-.178-2.315 1.05-2.53 2.77z" fill="#2E3062"/><path fill-rule="evenodd" clip-rule="evenodd" d="M137.64 241.443l.046 8.096a31.031 31.031 0 0 1-8.313-2.614 15.346 15.346 0 0 1-7.957-8.515 41.254 41.254 0 0 0 14.555 2.997l1.669.036z" fill="#EA9191"/><path fill-rule="evenodd" clip-rule="evenodd" d="M195.776 333.235s12.4-.113 16.43 1.406c4.03 1.519 5.467 3.617 5.467 3.617l4.102 1.033s.775 3.1 0 3.1-22.568 2.067-22.568 2.067l-4.65-.6s1.519-6.949 1.033-8.303c-.486-1.353-2.821-2.878-2.821-2.878l3.007.558z" fill="#F4B1B1"/><path fill-rule="evenodd" clip-rule="evenodd" d="M96.657 273.823c-4.278-9.486-16.994-14.653-24.356-7.28-5.503 5.508-6.66 6.267-6.795 13.578-.403 22.605 8.84 86.285 34.127 90.088 13.867 2.092 36.498 4.309 51.394 3.792 6.019-.206 10.85.031 13.227-1.741 8.204-6.148-3.514-15.5-3.514-15.5s-44.842-16.095-50.086-17.691c-8.686-2.651-11.006-58.576-13.997-65.231" fill="#FFC86B"/><path fill-rule="evenodd" clip-rule="evenodd" d="M67.429 272.392c-13.775 20.119 7.595 94.329 32.204 97.817 13.888 1.974 36.498 4.304 51.394 3.792 6.014-.201 10.85.031 13.227-1.736 0 0-44.29-5.683-65.318-11.739-18.973-5.476-32.143-65.959-31.518-88.134" fill="#FFBC4A"/><path fill-rule="evenodd" clip-rule="evenodd" d="M173.554 350.441a19.566 19.566 0 0 0-3.1 8.226c-.579 4.712.517 7.166.517 7.166 12.436 1.003 37.402.062 37.355.052-.842-.124 1.163-1.917-1.513-3.291-1.928-.987-8.267-1.308-10.489-2.785-9.889-6.578-16.534-5.286-22.734-9.368" fill="#E89292"/><path fill-rule="evenodd" clip-rule="evenodd" d="M178.55 307.381l86.538 5.921c3.436.233 6.934 2.884 6.257 6.257l-10.638 53.053c-.677 3.374-2.816 6.257-6.257 6.257h-89.23c-3.441 0-7.016-2.899-6.257-6.257l13.33-58.974c.76-3.358 2.826-6.494 6.257-6.257z" fill="#008EF4"/><path d="M273.681 307.381H156.795l5.408 71.487h116.593l-5.115-71.487z" fill="url(#paint1_linear)"/><path fill-rule="evenodd" clip-rule="evenodd" d="M222.375 337.266c2.697.868 4.035 4.19 2.996 7.429-1.038 3.24-4.071 5.167-6.763 4.289-2.692-.879-4.04-4.196-3.002-7.43 1.039-3.234 4.072-5.167 6.769-4.288z" fill="#EEF4F8"/><path fill-rule="evenodd" clip-rule="evenodd" d="M116.626 373.025h45.297l3.286 5.844h-51.507v-2.93a2.931 2.931 0 0 1 2.924-2.919" fill="#008EF4"/><path fill-rule="evenodd" clip-rule="evenodd" d="M128.174 203.499s20.879 5.466 32.644-1.664c7.714-5.353 8.587-16.188-2.723-24.181-14.565-10.292-42.512-7.259-53.218 9.146-3.741 5.724-7.481 15.676-11.92 25.833-10.333 23.582-37.965 8.851-45.855 48.429-.367 1.829 6.2-2.3 12.028-3.793-5.58 12.989 1.824 22.636 3.266 24.439 6.278-28.66 32.4-29.776 52.453-32.07 2.976-2.754 3.384-10.504 3.41-14.374 0 0-6.04-4.247-5.74-9.181.299-4.935 1.689-4.805 2.252-4.687.564.119 3.793 2 3.793 2 1.142-6.407.883-19.174 9.625-19.882" fill="#003398"/><path fill-rule="evenodd" clip-rule="evenodd" d="M117.36 229.874a2.298 2.298 0 0 0-2.119 1.416 2.29 2.29 0 0 0 .497 2.5 2.288 2.288 0 0 0 2.5.498 2.297 2.297 0 0 0 .746-3.743 2.306 2.306 0 0 0-1.624-.671z" fill="#fff"/><path d="M218.293 381.907h-36.167c-1.711 0-3.101-1.085-3.318-2.47h41.588c.454 1.183-.589 2.47-2.129 2.47" fill="#000446"/><path fill-rule="evenodd" clip-rule="evenodd" d="M32.718 445.69h156.776c9.351 0 17.003 5.358 17.003 11.884 0 6.546-7.652 11.883-17.003 11.883H32.719c-9.358 0-17.01-5.353-17.01-11.883 0-6.542 7.652-11.884 17.01-11.884z" fill="#9D1F39"/><path fill-rule="evenodd" clip-rule="evenodd" d="M189.493 465.877h134.269c-3.865-4.263-5.368-10.334 0-16.534H189.493c-3.1 0-5.683 3.731-5.683 8.267s2.583 8.267 5.683 8.267z" fill="#E8E8E8"/><path fill-rule="evenodd" clip-rule="evenodd" d="M320.279 457.92c-.067-2.707.931-5.627 3.483-8.592H189.493c-3.1 0-5.683 3.73-5.683 8.267v.32l136.469.005z" fill="#CDCDCD"/><path fill-rule="evenodd" clip-rule="evenodd" d="M326.666 469.499H189.183c-4.49 0-9.233-5.425-9.233-11.967 0-6.541 4.743-11.831 9.233-11.831h137.483l-.042 3.565-137.131.041c-3.1 0-5.683 3.73-5.683 8.267 0 4.536 2.583 8.267 5.683 8.267l137.131-.062.042 3.72z" fill="#BB3048"/><path fill-rule="evenodd" clip-rule="evenodd" d="M195.456 457.811h10.654c4.087 1.473 2.909 7.316 5.332 11.14l-6.293-3.157-4.568 2.955c-3.539-3.467-1.514-9.388-5.125-10.938z" fill="#F2DE00"/><path fill-rule="evenodd" clip-rule="evenodd" d="M326.666 407.704H166.3c-10.902 0-19.825 8.551-19.825 18.998 0 10.448 8.923 18.999 19.825 18.999h160.366c10.907 0 19.825-8.551 19.825-18.999 0-10.452-8.923-18.998-19.825-18.998z" fill="#15378B"/><path fill-rule="evenodd" clip-rule="evenodd" d="M173.626 439.914H33.343c6.164-6.804 8.572-16.466 0-26.418h140.283c4.976 0 9.057 5.953 9.057 13.207 0 7.254-4.076 13.211-9.057 13.211z" fill="#E8E8E8"/><path fill-rule="evenodd" clip-rule="evenodd" d="M38.742 424.476c-.516-3.529-2.17-7.234-5.399-10.98h140.283c4.454 0 8.195 4.769 8.928 10.98H38.743z" fill="#CDCDCD"/><path fill-rule="evenodd" clip-rule="evenodd" d="M28.704 445.69h145.424c7.161 0 14.741-8.664 14.741-19.117 0-10.452-7.58-18.884-14.741-18.884H28.704l.067 5.683 144.856.104c4.975 0 9.057 5.952 9.057 13.206s-4.077 13.211-9.057 13.211l-144.856-.098-.067 5.895z" fill="#254FB7"/><path fill-rule="evenodd" clip-rule="evenodd" d="M108.189 445.69h45.809c-6.831 0-12.401 5.353-12.401 11.884 0 6.53 5.586 11.883 12.401 11.883h-45.809c-6.825 0-12.4-5.353-12.4-11.883 0-6.531 5.59-11.884 12.4-11.884z" fill="#BB3048"/><path fill-rule="evenodd" clip-rule="evenodd" d="M306.908 407.704h-18.161c10.902 0 19.825 8.546 19.825 18.998a18.658 18.658 0 0 1-1.841 7.973 18.66 18.66 0 0 1-5.078 6.417l-5.978 4.598h11.233c10.902 0 19.825-8.546 19.825-18.998 0-10.453-8.923-18.998-19.825-18.998" fill="#3882C8"/><path fill-rule="evenodd" clip-rule="evenodd" d="M148.072 424.041h12.472l-1.901 12.184-5.937-2.822-6.536 2.822 1.902-12.184z" fill="#BB3048"/><path fill-rule="evenodd" clip-rule="evenodd" d="M287.388 378.703H156.535c-8.898 0-16.178 6.629-16.178 14.731 0 8.101 7.28 14.73 16.178 14.73h130.853c8.897 0 16.177-6.629 16.177-14.73 0-8.102-7.28-14.731-16.177-14.731z" fill="#9D1F39"/><path fill-rule="evenodd" clip-rule="evenodd" d="M162.513 403.674H48.048c5.027-5.275 6.99-12.767 0-20.481h114.465c4.061 0 7.388 4.614 7.388 10.241 0 5.626-3.327 10.24-7.388 10.24z" fill="#E8E8E8"/><path fill-rule="evenodd" clip-rule="evenodd" d="M52.388 391.372c-.465-2.635-1.824-5.394-4.345-8.179h114.469c3.55 0 6.541 3.529 7.234 8.179H52.388z" fill="#CDCDCD"/><path fill-rule="evenodd" clip-rule="evenodd" d="M44.255 408.164H162.92c5.844 0 12.029-6.717 12.029-14.818 0-8.102-6.2-14.643-12.029-14.643H44.255l.057 4.413 118.2.077c4.061 0 7.389 4.614 7.389 10.241 0 5.626-3.328 10.24-7.389 10.24l-118.2-.077-.057 4.567zm227.013-29.461h-14.793c8.892 0 16.172 6.629 16.172 14.731a14.195 14.195 0 0 1-5.642 11.155l-4.722 3.575h9.011c8.897 0 16.172-6.629 16.172-14.73 0-8.102-7.28-14.731-16.172-14.731m-67.881 0h-14.819c8.898 0 16.172 6.629 16.172 14.731a14.195 14.195 0 0 1-5.642 11.155l-5.683 3.575h9.972c8.897 0 16.177-6.629 16.177-14.73 0-8.102-7.28-14.731-16.177-14.731z" fill="#BB3048"/><path fill-rule="evenodd" clip-rule="evenodd" d="M145.855 391.372h-10.654c-4.087 1.473-2.909 7.316-5.337 11.14l6.298-3.157 4.578 2.935c3.539-3.467 1.519-9.388 5.131-10.938" fill="#F7AB2B"/><path fill-rule="evenodd" clip-rule="evenodd" d="M2.049 469.461h699.432c.377.005.738.563 1.004 1.552.266.989.416 2.329.418 3.727-.002 1.397-.152 2.735-.418 3.721-.267.986-.628 1.539-1.004 1.539H2.049c-.376 0-.737-.553-1.003-1.539-.267-.986-.417-2.324-.419-3.721.002-1.398.152-2.738.418-3.727.267-.989.627-1.547 1.004-1.552z" fill="#2F9EEE"/><path d="M235.527 111.728a53.956 53.956 0 1 1-.004-107.912 53.956 53.956 0 0 1 .004 107.912z" fill="#FAF9FD"/><path d="M235.967 105.669c26.465-.212 47.746-21.838 47.534-48.303-.213-26.464-21.839-47.746-48.303-47.533-26.465.212-47.746 21.838-47.534 48.303.213 26.464 21.839 47.746 48.303 47.533z" fill="#fff"/><path d="M235.967 105.669c26.465-.212 47.746-21.838 47.534-48.303-.213-26.464-21.839-47.746-48.303-47.533-26.465.212-47.746 21.838-47.534 48.303.213 26.464 21.839 47.746 48.303 47.533z" fill="#fff"/><path d="M237.201 60.595a3.254 3.254 0 0 1-4.707-1.767 3.247 3.247 0 0 1 .934-3.492 3.25 3.25 0 0 1 4.961.82 3.275 3.275 0 0 1-1.188 4.44z" fill="#269AD6"/><path d="M291.294 42.838A57.716 57.716 0 0 0 235.624 0a57.908 57.908 0 0 0-50.023 28.857 57.682 57.682 0 0 0-7.697 26.961 57.684 57.684 0 0 0 24.062 48.784 57.69 57.69 0 0 0 53.931 7.094 57.691 57.691 0 0 0 35.397-68.936v.078zm-11.255 40.598a51.363 51.363 0 0 1-51.18 25.305 51.37 51.37 0 0 1-42.948-37.62 51.362 51.362 0 0 1 18.345-54.067 51.367 51.367 0 0 1 56.973-3.716 51.345 51.345 0 0 1 18.81 70.098z" fill="#2F9EEE"/><path d="M235.566 20.172a1.286 1.286 0 0 1-1.285-1.285v-8.022a1.285 1.285 0 1 1 2.57 0v8.022a1.286 1.286 0 0 1-1.285 1.285zm-19.434 5.218a1.267 1.267 0 0 1-1.109-.642l-4.012-6.951a1.269 1.269 0 0 1 .468-1.753 1.302 1.302 0 0 1 1.752.468l4.011 6.951a1.287 1.287 0 0 1-.467 1.752 1.325 1.325 0 0 1-.643.176zm-14.233 14.234c-.226 0-.448-.061-.643-.175l-6.951-4.011a1.303 1.303 0 0 1-.468-1.753 1.278 1.278 0 0 1 .778-.603 1.264 1.264 0 0 1 .975.136l6.951 4.011a1.287 1.287 0 0 1 0 2.225 1.265 1.265 0 0 1-.642.17zM196.7 59.057h-8.042a1.285 1.285 0 1 1 0-2.57h8.042a1.285 1.285 0 0 1 0 2.57zm-1.753 23.444a1.267 1.267 0 0 1-1.11-.642 1.303 1.303 0 0 1 .468-1.753l6.951-4.01a1.284 1.284 0 1 1 1.285 2.219l-6.893 4.011a1.284 1.284 0 0 1-.701.175zm17.174 17.174a1.285 1.285 0 0 1-1.109-1.947l4.011-6.952a1.283 1.283 0 0 1 2.299.344 1.28 1.28 0 0 1-.08.941l-4.069 6.971a1.31 1.31 0 0 1-1.052.643zm23.445 6.29a1.305 1.305 0 0 1-1.285-1.286v-8.022a1.285 1.285 0 1 1 2.57 0v8.081a1.305 1.305 0 0 1-1.285 1.227zm23.443-6.29a1.328 1.328 0 0 1-1.11-.642l-4.011-6.952a1.29 1.29 0 0 1 .425-1.826 1.282 1.282 0 0 1 1.795.541l4.011 6.951a1.253 1.253 0 0 1 .136.975 1.252 1.252 0 0 1-.603.778 1.226 1.226 0 0 1-.643.175zm17.174-17.174a1.283 1.283 0 0 1-.642-.175l-6.952-4.011a1.286 1.286 0 0 1 1.286-2.22l6.951 4.011a1.303 1.303 0 0 1 .467 1.753 1.265 1.265 0 0 1-1.11.642zm6.29-23.444h-8.023a1.283 1.283 0 0 1-1.285-1.285 1.286 1.286 0 0 1 1.285-1.285h8.023a1.284 1.284 0 0 1 0 2.57zm-13.241-19.433a1.266 1.266 0 0 1-1.11-.643 1.282 1.282 0 0 1 .467-1.752l6.952-4.011a1.265 1.265 0 0 1 1.752.467 1.304 1.304 0 0 1-.467 1.753l-6.952 4.01a1.282 1.282 0 0 1-.642.176zM254.998 25.39a1.286 1.286 0 0 1-1.11-1.928l4.012-6.95a1.302 1.302 0 0 1 1.752-.468 1.26 1.26 0 0 1 .604.778 1.283 1.283 0 0 1-.137.975l-4.011 6.951a1.265 1.265 0 0 1-1.11.643zm-19.491 31.33a1.264 1.264 0 0 1-1.285-1.284V27.942a1.285 1.285 0 1 1 2.57 0v27.494a1.285 1.285 0 0 1-1.285 1.285zm17.583 12.112a1.401 1.401 0 0 1-.623-.156l-15.227-8.334a1.327 1.327 0 0 1-.545-1.791 1.324 1.324 0 0 1 1.791-.545l15.246 8.334a1.327 1.327 0 0 1 .507 1.752 1.29 1.29 0 0 1-1.149.74z" fill="#269AD6"/><path fill-rule="evenodd" clip-rule="evenodd" d="M129.919 72.066h75.732a2.888 2.888 0 0 1 2.853 2.88v12.099h-81.375v-12.1a2.89 2.89 0 0 1 2.79-2.88z" fill="#2F9EEE"/><path d="M208.532 87.045h-81.438v59.115h81.438V87.045z" fill="#C2E9FE"/><path fill-rule="evenodd" clip-rule="evenodd" d="M135.762 76.194h5.133a1.33 1.33 0 0 1 1.346 1.346v2.497a1.329 1.329 0 0 1-.829 1.247c-.164.067-.34.1-.517.098h-5.133a1.395 1.395 0 0 1-1.394-1.345V77.54a1.392 1.392 0 0 1 1.394-1.346zm19.659 0h5.132a1.33 1.33 0 0 1 1.346 1.346v2.497a1.329 1.329 0 0 1-.829 1.247c-.164.067-.34.1-.517.098h-5.132a1.335 1.335 0 0 1-1.248-.828c-.067-.164-.1-.34-.098-.517V77.54a1.328 1.328 0 0 1 1.346-1.346zm19.651 0h5.133a1.325 1.325 0 0 1 .938.4 1.349 1.349 0 0 1 .38.946v2.496a1.33 1.33 0 0 1-.829 1.248c-.164.067-.34.1-.517.098h-5.105a1.338 1.338 0 0 1-1.346-1.346V77.54a1.343 1.343 0 0 1 .83-1.245 1.34 1.34 0 0 1 .516-.1zm19.659 0h5.132a1.334 1.334 0 0 1 .954.392 1.343 1.343 0 0 1 .392.954v2.497a1.343 1.343 0 0 1-.392.953 1.335 1.335 0 0 1-.954.392h-5.132a1.336 1.336 0 0 1-1.254-.827 1.337 1.337 0 0 1-.099-.518V77.54a1.33 1.33 0 0 1 .829-1.247c.164-.067.34-.1.517-.099h.007z" fill="#183E9D"/><path d="M157.987 67.066a1.749 1.749 0 0 0-1.75 1.75v9.317a1.748 1.748 0 0 0 1.743 1.594 1.751 1.751 0 0 0 1.744-1.594v-9.317a1.752 1.752 0 0 0-1.737-1.75zm39.31 0a1.753 1.753 0 0 0-1.757 1.75v9.317a1.757 1.757 0 0 0 3.487 0v-9.317a1.75 1.75 0 0 0-1.73-1.75zm-58.968 0a1.75 1.75 0 0 0-1.751 1.75v9.317a1.752 1.752 0 0 0 1.751 1.75 1.773 1.773 0 0 0 1.757-1.75v-9.317a1.773 1.773 0 0 0-1.757-1.75zm39.309 0a1.749 1.749 0 0 0-1.75 1.75v9.317a1.759 1.759 0 0 0 2.905 1.097 1.76 1.76 0 0 0 .582-1.097v-9.317a1.752 1.752 0 0 0-1.737-1.75z" fill="#40494C"/><path d="M208.532 87.045h-81.438v3.222h81.438v-3.222z" fill="#89C3E2"/><path fill-rule="evenodd" clip-rule="evenodd" d="M197.639 109.144h4.54a1.57 1.57 0 0 1 1.562 1.562v4.568a1.57 1.57 0 0 1-1.562 1.562h-4.54a1.593 1.593 0 0 1-1.562-1.562v-4.568a1.588 1.588 0 0 1 1.562-1.562z" fill="#89C3E2"/><path fill-rule="evenodd" clip-rule="evenodd" d="M186.934 109.144h4.568a1.557 1.557 0 0 1 1.534 1.562v4.568a1.557 1.557 0 0 1-1.534 1.562h-4.568a1.588 1.588 0 0 1-1.562-1.562v-4.568c.007-.412.174-.805.466-1.096a1.585 1.585 0 0 1 1.096-.466z" fill="#C53944"/><path fill-rule="evenodd" clip-rule="evenodd" d="M176.23 109.144h4.595a1.587 1.587 0 0 1 1.562 1.562v4.568a1.593 1.593 0 0 1-1.562 1.562h-4.595a1.593 1.593 0 0 1-1.562-1.562v-4.568a1.588 1.588 0 0 1 1.562-1.562zm-10.705 0h4.575a1.59 1.59 0 0 1 1.562 1.562v4.568a1.593 1.593 0 0 1-1.562 1.562h-4.575a1.588 1.588 0 0 1-1.562-1.562v-4.568c.007-.412.174-.805.466-1.096a1.585 1.585 0 0 1 1.096-.466zm-10.697 0h4.568a1.59 1.59 0 0 1 1.562 1.562v4.568a1.593 1.593 0 0 1-1.562 1.562h-4.568a1.587 1.587 0 0 1-1.569-1.562v-4.568a1.59 1.59 0 0 1 1.569-1.562zm-21.423 0h4.568a1.59 1.59 0 0 1 1.562 1.562v4.568a1.593 1.593 0 0 1-1.562 1.562h-4.568a1.56 1.56 0 0 1-1.534-1.562v-4.568a1.565 1.565 0 0 1 1.534-1.562zm64.234 10.851h4.54a1.57 1.57 0 0 1 1.562 1.562v4.561a1.576 1.576 0 0 1-1.562 1.569h-4.54a1.586 1.586 0 0 1-1.562-1.569v-4.561a1.588 1.588 0 0 1 1.562-1.562zm-10.705 0h4.568a1.557 1.557 0 0 1 1.534 1.562v4.561a1.56 1.56 0 0 1-1.534 1.569h-4.568a1.59 1.59 0 0 1-1.562-1.569v-4.561c.007-.412.174-.805.466-1.096a1.585 1.585 0 0 1 1.096-.466zm-10.704 0h4.595a1.587 1.587 0 0 1 1.562 1.562v4.561a1.587 1.587 0 0 1-1.562 1.569h-4.595a1.588 1.588 0 0 1-1.562-1.569v-4.561a1.588 1.588 0 0 1 1.562-1.562z" fill="#89C3E2"/><path fill-rule="evenodd" clip-rule="evenodd" d="M165.525 119.995h4.575a1.59 1.59 0 0 1 1.562 1.562v4.561a1.587 1.587 0 0 1-1.562 1.569h-4.575a1.59 1.59 0 0 1-1.562-1.569v-4.561c.007-.412.174-.805.466-1.096a1.585 1.585 0 0 1 1.096-.466z" fill="#C53944"/><path fill-rule="evenodd" clip-rule="evenodd" d="M154.828 119.995h4.568a1.59 1.59 0 0 1 1.562 1.562v4.561a1.591 1.591 0 0 1-1.562 1.569h-4.568a1.593 1.593 0 0 1-1.101-.468 1.593 1.593 0 0 1-.468-1.101v-4.561a1.59 1.59 0 0 1 1.569-1.562zm-21.423 0h4.568a1.59 1.59 0 0 1 1.562 1.562v4.561a1.587 1.587 0 0 1-1.562 1.569h-4.568a1.566 1.566 0 0 1-1.534-1.569v-4.561a1.565 1.565 0 0 1 1.534-1.562zm64.234 10.851h4.54a1.568 1.568 0 0 1 1.562 1.569v4.561a1.567 1.567 0 0 1-1.562 1.562h-4.54a1.594 1.594 0 0 1-1.562-1.562v-4.561a1.587 1.587 0 0 1 1.562-1.569zm-10.705 0h4.568a1.559 1.559 0 0 1 1.534 1.569v4.561a1.553 1.553 0 0 1-1.534 1.562h-4.568a1.59 1.59 0 0 1-1.562-1.562v-4.561a1.59 1.59 0 0 1 1.562-1.569z" fill="#89C3E2"/><path fill-rule="evenodd" clip-rule="evenodd" d="M176.23 130.846h4.595a1.586 1.586 0 0 1 1.562 1.569v4.561a1.587 1.587 0 0 1-1.562 1.541h-4.595a1.59 1.59 0 0 1-1.562-1.562v-4.561a1.588 1.588 0 0 1 1.562-1.548z" fill="#C53944"/><path fill-rule="evenodd" clip-rule="evenodd" d="M165.525 130.846h4.575a1.59 1.59 0 0 1 1.562 1.569v4.561a1.591 1.591 0 0 1-1.562 1.541h-4.575a1.585 1.585 0 0 1-1.096-.466 1.585 1.585 0 0 1-.466-1.096v-4.561a1.592 1.592 0 0 1 1.562-1.548zm-10.697 0h4.568a1.59 1.59 0 0 1 1.562 1.569v4.561a1.592 1.592 0 0 1-1.562 1.541h-4.568a1.59 1.59 0 0 1-1.569-1.562v-4.561a1.587 1.587 0 0 1 1.569-1.548zm-21.423 0h4.568a1.59 1.59 0 0 1 1.562 1.569v4.561a1.59 1.59 0 0 1-1.548 1.541h-4.582a1.562 1.562 0 0 1-1.534-1.562v-4.561a1.563 1.563 0 0 1 1.534-1.548z" fill="#89C3E2"/><path fill-rule="evenodd" clip-rule="evenodd" d="M144.124 130.846h4.568a1.59 1.59 0 0 1 1.562 1.569v4.561a1.592 1.592 0 0 1-1.562 1.541h-4.568a1.59 1.59 0 0 1-1.569-1.562v-4.561a1.594 1.594 0 0 1 1.569-1.548z" fill="#C53944"/><path fill-rule="evenodd" clip-rule="evenodd" d="M144.124 119.995h4.568a1.59 1.59 0 0 1 1.562 1.562v4.561a1.59 1.59 0 0 1-1.562 1.569h-4.568a1.597 1.597 0 0 1-1.569-1.569v-4.561a1.59 1.59 0 0 1 1.569-1.562zM197.639 98.3h4.54a1.57 1.57 0 0 1 1.562 1.563v4.56a1.57 1.57 0 0 1-1.562 1.562h-4.54a1.593 1.593 0 0 1-1.562-1.562v-4.56a1.59 1.59 0 0 1 1.562-1.563zm-10.705 0h4.568a1.557 1.557 0 0 1 1.534 1.563v4.56a1.557 1.557 0 0 1-1.534 1.562h-4.568a1.588 1.588 0 0 1-1.562-1.562v-4.56a1.587 1.587 0 0 1 1.562-1.563zm-10.704 0h4.595a1.59 1.59 0 0 1 1.562 1.563v4.56a1.593 1.593 0 0 1-1.562 1.562h-4.595a1.593 1.593 0 0 1-1.562-1.562v-4.56a1.59 1.59 0 0 1 1.562-1.563z" fill="#89C3E2"/><path fill-rule="evenodd" clip-rule="evenodd" d="M165.525 98.3h4.575a1.592 1.592 0 0 1 1.562 1.563v4.56a1.593 1.593 0 0 1-1.562 1.562h-4.575a1.588 1.588 0 0 1-1.562-1.562v-4.56a1.587 1.587 0 0 1 1.562-1.563z" fill="#C53944"/><path fill-rule="evenodd" clip-rule="evenodd" d="M154.828 98.3h4.568a1.592 1.592 0 0 1 1.562 1.563v4.56a1.593 1.593 0 0 1-1.562 1.562h-4.568a1.587 1.587 0 0 1-1.569-1.562v-4.56a1.589 1.589 0 0 1 1.569-1.563zm-21.423 0h4.568a1.592 1.592 0 0 1 1.562 1.563v4.56a1.593 1.593 0 0 1-1.562 1.562h-4.568a1.56 1.56 0 0 1-1.534-1.562v-4.56a1.562 1.562 0 0 1 1.534-1.563zm10.719 0h4.568a1.588 1.588 0 0 1 1.562 1.563v4.56a1.594 1.594 0 0 1-1.562 1.562h-4.568a1.587 1.587 0 0 1-1.569-1.562v-4.56a1.589 1.589 0 0 1 1.569-1.563z" fill="#89C3E2"/><path fill-rule="evenodd" clip-rule="evenodd" d="M144.124 109.144h4.568a1.59 1.59 0 0 1 1.562 1.562v4.568a1.594 1.594 0 0 1-1.562 1.562h-4.568a1.587 1.587 0 0 1-1.569-1.562v-4.568a1.59 1.59 0 0 1 1.569-1.562z" fill="#C53944"/><defs><filter id="filter0_d" x="511.139" y="194.365" width="124.661" height="90.175" filterUnits="userSpaceOnUse" color-interpolation-filters="sRGB"><feFlood flood-opacity="0" result="BackgroundImageFix"/><feColorMatrix in="SourceAlpha" values="0 0 0 0 0 0 0 0 0 0 0 0 0 0 0 0 0 0 127 0"/><feOffset dy="2"/><feGaussianBlur stdDeviation="2.5"/><feColorMatrix values="0 0 0 0 0.184314 0 0 0 0 0.619608 0 0 0 0 0.933333 0 0 0 0.1 0"/><feBlend in2="BackgroundImageFix" result="effect1_dropShadow"/><feBlend in="SourceGraphic" in2="effect1_dropShadow" result="shape"/></filter><filter id="filter1_d" x="293.095" y="285.383" width="334.082" height="91.437" filterUnits="userSpaceOnUse" color-interpolation-filters="sRGB"><feFlood flood-opacity="0" result="BackgroundImageFix"/><feColorMatrix in="SourceAlpha" values="0 0 0 0 0 0 0 0 0 0 0 0 0 0 0 0 0 0 127 0"/><feOffset dy="2"/><feGaussianBlur stdDeviation="2.5"/><feColorMatrix values="0 0 0 0 0.184314 0 0 0 0 0.619608 0 0 0 0 0.933333 0 0 0 0.1 0"/><feBlend in2="BackgroundImageFix" result="effect1_dropShadow"/><feBlend in="SourceGraphic" in2="effect1_dropShadow" result="shape"/></filter><linearGradient id="paint0_linear" x1="508.891" y1="400.479" x2="515.118" y2="150.419" gradientUnits="userSpaceOnUse"><stop stop-color="#003CD3"/><stop offset=".346" stop-color="#1153DB"/><stop offset=".722" stop-color="#3E8EEF"/><stop offset="1" stop-color="#61BCFF"/></linearGradient><linearGradient id="paint1_linear" x1="207.598" y1="407.337" x2="238.872" y2="251.694" gradientUnits="userSpaceOnUse"><stop stop-color="#2491FF"/><stop offset=".28" stop-color="#69B4FE"/><stop offset=".63" stop-color="#B8DBFE"/><stop offset=".88" stop-color="#EAF3FD"/><stop offset="1" stop-color="#FDFDFD"/></linearGradient><clipPath id="clip0"><path fill="#fff" d="M606.207 257.31h11.26v11.608h-11.26z"/></clipPath></defs></svg>