<svg width="282" height="181" fill="none" xmlns="http://www.w3.org/2000/svg"><path d="M93.792 152.391v-1.217h-81.83a2.876 2.876 0 0 0-2.876 2.875v8.999a2.874 2.874 0 0 0 2.875 2.875h81.831v-1.198h-.783v-12.334h.783z" fill="#FFD054"/><path d="M99.091 167.14v-1.198H2.88A2.88 2.88 0 0 0 0 168.817v8.998a2.878 2.878 0 0 0 2.88 2.876h96.21v-1.198h-.769V167.14h.77z" fill="#6AE0F6"/><path d="M3.502 177.815v-8.998a2.88 2.88 0 0 1 2.875-2.875h-1.42a2.88 2.88 0 0 0-2.879 2.875v8.998a2.878 2.878 0 0 0 2.88 2.876h1.419a2.885 2.885 0 0 1-2.033-.842 2.875 2.875 0 0 1-.842-2.034z" fill="#fff"/><path d="M7.188 177.815v-8.998a2.88 2.88 0 0 1 2.875-2.875h-1.42a2.88 2.88 0 0 0-2.879 2.875v8.998a2.878 2.878 0 0 0 2.88 2.876h1.42a2.885 2.885 0 0 1-2.034-.842 2.875 2.875 0 0 1-.842-2.034z" fill="#fff"/><path d="M25.245 152.391h67.764v12.353H25.245a2.41 2.41 0 0 1-2.41-2.41V154.8a2.41 2.41 0 0 1 2.41-2.409zm9.584 14.749h63.493v12.353H34.829a2.41 2.41 0 0 1-2.41-2.41v-7.533a2.408 2.408 0 0 1 2.41-2.41z" fill="#E8E8E8"/><path d="M0 144.834v-1.198h96.216a2.876 2.876 0 0 1 2.876 2.875v1.806a2.874 2.874 0 0 1-2.876 2.876H0v-1.198h.788v-5.161H0z" fill="#FF867E"/><path d="M.788 149.995h63.474a2.41 2.41 0 0 0 2.41-2.405v-.346a2.41 2.41 0 0 0-2.41-2.41H.788v5.161z" fill="#E8E8E8"/><path d="M14.809 153.787h-3.35v9.561h3.35v-9.561zm2.308 0h-.921v9.561h.921v-9.561z" fill="#fff"/><path d="M66.008 117.838H23.964v25.798h42.044v-25.798z" fill="url(#paint0_linear)"/><path d="M44.744 104.84L4.022 117.838l40.722 12.994 40.722-12.994-40.722-12.998z" fill="url(#paint1_linear)"/><path d="M44.744 115.037l-26.774 7.252v10.653" stroke="#FFD054" stroke-width="2" stroke-linecap="round" stroke-linejoin="round"/><path d="M18.034 131.702a1.562 1.562 0 0 1 1.562 1.562v6.912h-3.124v-6.912a1.561 1.561 0 0 1 1.562-1.562z" fill="#FFD054"/><path d="M168.987 5.47l22.148-3.562L165.07 0l3.917 5.47z" fill="#fff"/><path d="M218.659 26.142a.22.22 0 0 1-.184-.092.224.224 0 0 1-.044-.171.227.227 0 0 1 .09-.152l.364-.276a.24.24 0 0 1 .327.046.236.236 0 0 1-.046.323l-.369.276a.224.224 0 0 1-.138.046z" fill="#97ABFF"/><path d="M265.159 124.625a.307.307 0 0 1-.17 0 .345.345 0 0 1-.212-.253l-.678-4.004a.33.33 0 0 1 .118-.325.337.337 0 0 1 .343-.044l3.806 1.415a.329.329 0 0 1 .196.426.324.324 0 0 1-.099.14l-3.129 2.59a.32.32 0 0 1-.175.055zm-.309-3.824l.484 2.875 2.244-1.843-2.728-1.032zm-90.466-92.876a.328.328 0 0 0-.414-.221l-1.341.396-.396-1.332a.334.334 0 0 0-.606-.06.331.331 0 0 0-.03.25l.401 1.34-1.341.4a.329.329 0 1 0 .184.632l1.341-.396.401 1.34a.332.332 0 0 0 .636-.189l-.401-1.34 1.341-.4a.338.338 0 0 0 .201-.163.33.33 0 0 0 .024-.257z" fill="#fff"/><path d="M217.66 157.722l-1.24-.65.65-1.239a.337.337 0 0 0 .009-.242.335.335 0 0 0-.399-.211.33.33 0 0 0-.195.144l-.668 1.239-1.24-.645a.336.336 0 0 0-.127-.043.338.338 0 0 0-.251.076.318.318 0 0 0-.083.106.333.333 0 0 0 .139.46l1.239.65-.599 1.226a.334.334 0 0 0-.03.26.326.326 0 0 0 .064.117.31.31 0 0 0 .104.083.333.333 0 0 0 .378-.038.335.335 0 0 0 .083-.104l.65-1.24 1.239.65a.336.336 0 0 0 .391-.016.344.344 0 0 0 .125-.24.335.335 0 0 0-.212-.329l-.027-.014z" fill="#6AE0F6"/><path d="M152.084 53.35a1.21 1.21 0 0 1-.746 1.108 1.201 1.201 0 1 1 .746-1.108z" fill="#97ABFF"/><path d="M43.975 172.83h214.332v2.622a5.24 5.24 0 0 1-5.239 5.239H49.218a5.237 5.237 0 0 1-5.239-5.239v-2.622h-.004z" fill="url(#paint2_linear)"/><path d="M59.157 49.682h183.936a5.24 5.24 0 0 1 5.239 5.24V172.83H53.891V54.921a5.24 5.24 0 0 1 5.266-5.239z" fill="url(#paint3_linear)"/><path d="M241.015 165.495V57.018H61.267v108.477h179.748z" fill="#E3E9FF"/><path d="M279.877 18H135.123c-1.173 0-2.123.637-2.123 1.424v61.152c0 .787.95 1.424 2.123 1.424h144.754c1.173 0 2.123-.638 2.123-1.424V19.424c0-.787-.95-1.424-2.123-1.424z" fill="#FAF9FD"/><path d="M263 25a1.998 1.998 0 0 1-2.39 1.962 1.997 1.997 0 0 1-1.572-1.572 2.005 2.005 0 0 1 .851-2.053A1.998 1.998 0 0 1 263 25zm7 0a1.998 1.998 0 0 1-2.39 1.962 1.997 1.997 0 0 1-1.572-1.572 2.005 2.005 0 0 1 .851-2.053A1.998 1.998 0 0 1 270 25zm7 0a1.998 1.998 0 0 1-2.39 1.962 1.997 1.997 0 0 1-1.572-1.572 2.005 2.005 0 0 1 .851-2.053A1.998 1.998 0 0 1 277 25z" fill="#E6D1F9"/><path d="M178.601 32h-38.202c-.773 0-1.399.218-1.399.487v9.026c0 .27.626.487 1.399.487h38.202c.773 0 1.399-.218 1.399-.487v-9.026c0-.27-.626-.487-1.399-.487z" fill="#2F9EEE"/><path d="M186.399 32.5h38.202c.346 0 .638.05.825.115.03.01.054.02.074.029v8.712a.931.931 0 0 1-.074.03 2.64 2.64 0 0 1-.825.114h-38.202a2.64 2.64 0 0 1-.825-.115.931.931 0 0 1-.074-.029v-8.712a.931.931 0 0 1 .074-.03 2.64 2.64 0 0 1 .825-.114zm46.034 0h39.134c.356 0 .658.05.853.116l.08.03v8.707a.91.91 0 0 1-.08.031 2.798 2.798 0 0 1-.853.116h-39.134c-.356 0-.658-.05-.853-.116a1.153 1.153 0 0 1-.08-.03v-8.707a.91.91 0 0 1 .08-.031c.195-.066.497-.116.853-.116zm0 13h39.134c.356 0 .658.05.853.116l.08.03v8.707a.91.91 0 0 1-.08.031 2.798 2.798 0 0 1-.853.116h-39.134c-.356 0-.658-.05-.853-.116a1.153 1.153 0 0 1-.08-.03v-8.707a.91.91 0 0 1 .08-.031c.195-.066.497-.116.853-.116zm-46.034 0h38.202c.346 0 .638.05.825.115.03.01.054.02.074.029v8.712a.931.931 0 0 1-.074.03 2.64 2.64 0 0 1-.825.114h-38.202a2.64 2.64 0 0 1-.825-.115.931.931 0 0 1-.074-.029v-8.712a.931.931 0 0 1 .074-.03 2.64 2.64 0 0 1 .825-.114zm-46 0h38.202c.346 0 .638.05.825.115.03.01.054.02.074.029v8.712a.931.931 0 0 1-.074.03 2.64 2.64 0 0 1-.825.114h-38.202a2.64 2.64 0 0 1-.825-.115.931.931 0 0 1-.074-.029v-8.712a.931.931 0 0 1 .074-.03 2.64 2.64 0 0 1 .825-.114zm0 14h38.202c.346 0 .638.05.825.115.03.01.054.02.074.029v8.712a.931.931 0 0 1-.074.03 2.64 2.64 0 0 1-.825.114h-38.202a2.64 2.64 0 0 1-.825-.115.931.931 0 0 1-.074-.029v-8.712a.931.931 0 0 1 .074-.03 2.64 2.64 0 0 1 .825-.114zm46 0h38.202c.346 0 .638.05.825.115.03.01.054.02.074.029v8.712a.931.931 0 0 1-.074.03 2.64 2.64 0 0 1-.825.114h-38.202a2.64 2.64 0 0 1-.825-.115.931.931 0 0 1-.074-.029v-8.712a.931.931 0 0 1 .074-.03 2.64 2.64 0 0 1 .825-.114zm46.034 0h39.134c.356 0 .658.05.853.116l.08.03v8.707a.91.91 0 0 1-.08.031 2.798 2.798 0 0 1-.853.116h-39.134c-.356 0-.658-.05-.853-.116a1.153 1.153 0 0 1-.08-.03v-8.707a.91.91 0 0 1 .08-.031c.195-.066.497-.116.853-.116z" fill="#fff" stroke="#2F9EEE"/><path d="M173.443 39H146.57a1.6 1.6 0 0 1-1.105-.433 1.49 1.49 0 0 1-.465-1.064 1.49 1.49 0 0 1 .456-1.061c.291-.282.684-.44 1.095-.442h26.892c.412 0 .807.158 1.099.44.292.282.456.664.458 1.063a1.485 1.485 0 0 1-.461 1.06c-.291.28-.686.437-1.096.437z" fill="#F1E6F7"/><path d="M139.434 27v-4.266h1.462c.482 0 .849.097 1.101.29.252.194.378.482.378.865a.924.924 0 0 1-.158.527c-.106.156-.26.277-.463.363.23.063.408.181.533.355.127.172.191.379.191.62 0 .401-.129.709-.387.924-.256.215-.623.322-1.102.322h-1.555zm.741-1.925v1.333h.823c.232 0 .414-.057.545-.173.131-.115.196-.275.196-.48 0-.444-.226-.67-.679-.68h-.885zm0-.545h.726c.231 0 .411-.052.539-.155a.54.54 0 0 0 .197-.445c0-.211-.061-.364-.182-.457-.119-.094-.306-.141-.559-.141h-.721v1.198zm3.741.308h.697c.26 0 .487.045.68.135a.986.986 0 0 1 .592.943c0 .326-.115.588-.346.785-.23.197-.537.297-.92.299h-1.415v-3.17h.712v1.008zM147.124 27h-.712v-3.17h.712V27zm-3.208-1.59v1.022h.694c.174 0 .311-.043.411-.13a.467.467 0 0 0 .152-.371c0-.16-.05-.287-.15-.378a.559.559 0 0 0-.398-.144h-.709zm5.555-1.404c.398 0 .717.134.958.401.24.266.36.627.36 1.084v.035c0 .457-.131.828-.393 1.11-.259.284-.613.425-1.06.425-.436 0-.787-.144-1.055-.433-.267-.29-.401-.684-.401-1.184v-.205c0-.683.121-1.224.363-1.623.242-.398.604-.647 1.084-.747.27-.055.444-.112.522-.173a.303.303 0 0 0 .12-.252h.574c0 .198-.032.358-.097.48a.753.753 0 0 1-.296.303c-.132.076-.361.148-.685.216-.297.063-.524.174-.68.334-.154.16-.258.382-.31.665.283-.29.615-.436.996-.436zm-.141.571a.67.67 0 0 0-.542.234c-.131.155-.196.393-.196.715 0 .305.064.542.193.712.129.17.313.255.551.255a.648.648 0 0 0 .548-.255c.131-.172.196-.43.196-.773 0-.274-.065-.49-.196-.648-.129-.16-.314-.24-.554-.24zm3.413 2.482c-.451 0-.817-.142-1.098-.425-.28-.285-.419-.664-.419-1.137v-.088c0-.316.06-.598.181-.846a1.4 1.4 0 0 1 .516-.583 1.36 1.36 0 0 1 .738-.209c.432 0 .765.138.999.414.236.275.355.665.355 1.169v.287h-2.072c.022.261.109.468.261.62a.792.792 0 0 0 .58.23.964.964 0 0 0 .797-.396l.384.366a1.29 1.29 0 0 1-.51.442 1.594 1.594 0 0 1-.712.156zm-.085-2.716a.603.603 0 0 0-.474.205c-.12.137-.196.327-.229.571h1.357v-.053c-.016-.238-.08-.418-.191-.539-.111-.123-.266-.184-.463-.184zm4.688 1.104c0 .49-.112.882-.334 1.175a1.072 1.072 0 0 1-.897.437c-.347 0-.626-.115-.835-.343v1.503h-.712V23.83h.657l.029.322c.209-.254.493-.38.852-.38.387 0 .69.144.909.433.22.287.331.687.331 1.198v.044zm-.709-.061c0-.317-.064-.568-.191-.753a.61.61 0 0 0-.539-.278c-.291 0-.5.12-.627.36v1.406c.129.246.34.37.633.37a.61.61 0 0 0 .53-.273c.129-.184.194-.461.194-.832zm3.293-1.556h.709V27h-.709v-2.115L158.688 27h-.709v-3.17h.709v2.115l1.242-2.115zm3.961.566h-1.029V27h-.712v-2.605h-1.016v-.565h2.757v.566zm1.684 2.663c-.451 0-.817-.142-1.098-.425-.28-.285-.419-.664-.419-1.137v-.088c0-.316.06-.598.181-.846a1.4 1.4 0 0 1 .516-.583 1.36 1.36 0 0 1 .738-.209c.432 0 .765.138.999.414.237.275.355.665.355 1.169v.287h-2.072c.022.261.109.468.261.62a.792.792 0 0 0 .58.23.964.964 0 0 0 .797-.396l.384.366a1.29 1.29 0 0 1-.51.442 1.594 1.594 0 0 1-.712.156zm-.085-2.716a.603.603 0 0 0-.474.205c-.12.137-.196.327-.229.571h1.357v-.053c-.016-.238-.08-.418-.191-.539-.111-.123-.265-.184-.463-.184zM171.584 27h-.712v-2.596h-1.236V27h-.712v-3.17h2.66V27zm.624-1.614c0-.31.062-.59.185-.838.123-.25.295-.442.518-.574.223-.135.479-.203.768-.203.427 0 .774.138 1.04.414.267.275.412.64.433 1.095l.003.167c0 .313-.06.592-.181.838-.12.246-.291.437-.516.571-.223.135-.48.203-.773.203-.448 0-.806-.149-1.076-.446-.267-.299-.401-.696-.401-1.192v-.035zm.712.061c0 .326.067.582.202.768a.659.659 0 0 0 .563.275c.24 0 .426-.093.559-.281.135-.188.202-.462.202-.823 0-.32-.069-.575-.208-.762a.654.654 0 0 0-.559-.281.652.652 0 0 0-.554.278c-.137.184-.205.46-.205.826zm2.64.985c.197-.221.329-.43.395-.627.068-.2.109-.453.123-.762l.041-1.213h2.2v2.602h.44v1.511h-.709V27h-2.033v.943h-.721l.003-1.511h.261zm.835 0h1.215v-1.99h-.799l-.021.607c-.027.582-.159 1.043-.395 1.383zm4.01-1.559l.604-1.043h.791l-.97 1.562L181.832 27h-.785l-.633-1.084-.63 1.084h-.791l1.002-1.608-.967-1.562h.785l.592 1.043zm1.629.513c0-.31.062-.59.185-.838a1.34 1.34 0 0 1 .518-.574c.223-.135.479-.203.768-.203.428 0 .774.138 1.04.414.267.275.412.64.434 1.095l.002.167c0 .313-.06.592-.181.838a1.317 1.317 0 0 1-.516.571 1.46 1.46 0 0 1-.773.203c-.448 0-.806-.149-1.075-.446-.268-.299-.402-.696-.402-1.192v-.035zm.712.061c0 .326.067.582.202.768a.66.66 0 0 0 .563.275c.24 0 .427-.093.559-.281.135-.188.202-.462.202-.823 0-.32-.069-.575-.208-.762a.654.654 0 0 0-.559-.281.652.652 0 0 0-.554.278c-.137.184-.205.46-.205.826zm2.64.985c.197-.221.329-.43.395-.627.069-.2.11-.453.123-.762l.041-1.213h2.201v2.602h.439v1.511h-.709V27h-2.033v.943h-.721l.003-1.511h.261zm.835 0h1.216v-1.99h-.8l-.021.607c-.027.582-.159 1.043-.395 1.383zm5.411-2.602V27h-.709v-1.163h-.665L189.581 27h-.738l.747-1.28a1.003 1.003 0 0 1-.451-.352.908.908 0 0 1-.156-.524.9.9 0 0 1 .34-.724c.229-.19.536-.286.923-.29h1.386zm-1.937 1.031c0 .133.049.241.147.325a.577.577 0 0 0 .381.124h.7v-.915h-.656a.62.62 0 0 0-.416.132.419.419 0 0 0-.156.334zm3.443-1.03v2.6h.99v-2.6h.712v2.6h.993v-2.6h.709v2.6h.542l-.059 1.51h-.647V27h-3.952v-3.17h.712zm6.454 0h.709V27h-.709v-2.115L198.35 27h-.709v-3.17h.709v2.115l1.242-2.115zm3.445 0h.709V27h-.709v-2.115L201.795 27h-.709v-3.17h.709v2.115l1.242-2.115zm.334-1.217a.76.76 0 0 1-.258.598c-.172.152-.401.228-.688.228-.287 0-.517-.076-.689-.228a.76.76 0 0 1-.257-.598h.533c0 .13.036.23.108.302.074.07.176.105.305.105a.416.416 0 0 0 .302-.105.409.409 0 0 0 .108-.302h.536zm3.753 3.132h-.36V27h-.712v-3.17h.712v1.266h.313l.876-1.266h.879l-1.145 1.518L208.929 27h-.926l-.879-1.254zm3.305.235l.644-2.15h.759l-1.26 3.65c-.193.533-.521.8-.984.8-.104 0-.218-.018-.343-.053v-.551l.135.009c.18 0 .314-.034.404-.1.092-.064.164-.174.217-.328l.103-.273-1.114-3.155h.768l.671 2.15zm4.591-.534c0 .49-.112.882-.334 1.175a1.072 1.072 0 0 1-.897.437c-.348 0-.626-.115-.835-.343v1.503h-.712V23.83h.656l.03.322c.209-.254.493-.38.852-.38.387 0 .69.144.908.433.221.287.332.687.332 1.198v.044zm-.709-.061c0-.317-.064-.568-.191-.753a.611.611 0 0 0-.539-.278c-.291 0-.5.12-.627.36v1.406c.129.246.34.37.633.37a.613.613 0 0 0 .53-.273c.129-.184.194-.461.194-.832zm2.616 1.104a.644.644 0 0 0 .442-.155.533.533 0 0 0 .188-.384h.671a1.06 1.06 0 0 1-.185.554 1.21 1.21 0 0 1-.469.404c-.197.1-.41.15-.638.15-.444 0-.795-.144-1.055-.431-.26-.287-.39-.684-.39-1.19v-.073c0-.482.129-.868.387-1.157.258-.291.609-.436 1.055-.436.377 0 .683.11.92.33.238.22.363.507.375.865h-.671a.65.65 0 0 0-.188-.448.594.594 0 0 0-.442-.176.624.624 0 0 0-.533.252c-.125.166-.189.419-.191.759v.114c0 .343.062.6.185.77.125.168.304.252.539.252z" fill="#000"/><path d="M219.443 39H192.57a1.6 1.6 0 0 1-1.105-.433 1.49 1.49 0 0 1-.465-1.064 1.49 1.49 0 0 1 .456-1.061c.291-.282.684-.44 1.095-.442h26.892c.412 0 .807.158 1.099.44.292.282.456.664.458 1.063a1.485 1.485 0 0 1-.461 1.06c-.291.28-.686.437-1.096.437zm46.051 0h-25.976a1.5 1.5 0 0 1-1.068-.433 1.508 1.508 0 0 1-.45-1.064A1.503 1.503 0 0 1 239.499 36h25.995A1.503 1.503 0 0 1 267 37.503 1.51 1.51 0 0 1 265.494 39zm0 12h-25.976a1.5 1.5 0 0 1-1.068-.433 1.508 1.508 0 0 1-.45-1.064A1.503 1.503 0 0 1 239.499 48h25.995A1.503 1.503 0 0 1 267 49.503 1.51 1.51 0 0 1 265.494 51zm-92.051 15H146.57a1.255 1.255 0 0 1-.597-.147c-.19-.1-.362-.246-.508-.43a2.118 2.118 0 0 1-.342-.65 2.561 2.561 0 0 1-.123-.769c.002-.53.166-1.04.456-1.415.291-.375.684-.587 1.095-.589h26.892c.412 0 .807.21 1.099.587.292.375.456.885.458 1.417-.003.53-.169 1.038-.461 1.412-.291.374-.686.584-1.096.584zm-1.949-15h-25.976a1.5 1.5 0 0 1-1.068-.433 1.508 1.508 0 0 1-.45-1.064A1.503 1.503 0 0 1 145.499 48h25.995A1.503 1.503 0 0 1 173 49.503 1.51 1.51 0 0 1 171.494 51zm47.949 0H192.57a1.6 1.6 0 0 1-1.105-.433 1.49 1.49 0 0 1-.465-1.064 1.49 1.49 0 0 1 .456-1.061c.291-.282.684-.44 1.095-.442h26.892c.412 0 .807.158 1.099.44.292.282.456.664.458 1.063a1.485 1.485 0 0 1-.461 1.06c-.291.28-.686.437-1.096.437zm0 15H192.57a1.255 1.255 0 0 1-.597-.147c-.19-.1-.362-.246-.508-.43a2.118 2.118 0 0 1-.342-.65 2.561 2.561 0 0 1-.123-.769c.002-.53.166-1.04.456-1.415.291-.375.684-.587 1.095-.589h26.892c.412 0 .807.21 1.099.587.292.375.456.885.458 1.417-.003.53-.169 1.038-.461 1.412-.291.374-.686.584-1.096.584zm46.051 0h-25.976a1.179 1.179 0 0 1-.577-.147 1.534 1.534 0 0 1-.491-.43 2.14 2.14 0 0 1-.331-.65 2.623 2.623 0 0 1-.119-.769c.002-.53.16-1.04.441-1.415s.661-.587 1.058-.589h25.995c.399 0 .781.21 1.063.587.282.375.441.885.443 1.417-.003.53-.163 1.038-.445 1.412-.282.374-.663.584-1.061.584z" fill="#F1E6F7"/><path d="M192.711 77.77H151.21a1.385 1.385 0 0 0-1.405 1.382v8.11a1.382 1.382 0 0 0 1.405 1.382h3.866v3.644l3.645-3.644h34.004a1.406 1.406 0 0 0 1.41-1.383v-8.11a1.404 1.404 0 0 0-1.424-1.381z" fill="#2F9EEE"/><path d="M161.632 107.394h47.561v12.779c0 5.522-4.478 10-10 10h-27.561c-5.523 0-10-4.478-10-10v-12.779z" fill="#fff"/><path d="M176.635 123.505a4.233 4.233 0 0 1 4.233-4.232H203.1a4.232 4.232 0 0 1 0 8.465h-22.232a4.233 4.233 0 0 1-4.233-4.233z" fill="#0094FF"/><g clip-path="url(#clip0)" stroke="#fff" stroke-linecap="round" stroke-linejoin="round"><path d="M200.983 123.505h3.695m-.821-1.058l1.026 1.058-1.026 1.059"/></g><path d="M163.785 121.257a.63.63 0 0 1 .54-.307h9.103a.628.628 0 1 1 0 1.257h-9.103a.629.629 0 0 1-.54-.95zm0 3.773a.63.63 0 0 1 .54-.307h9.103a.628.628 0 1 1 0 1.257h-9.103a.629.629 0 0 1-.54-.95z" fill="#89C3E2"/><path d="M177.893 112.276a2.645 2.645 0 0 1 2.645-2.645h8.544a2.646 2.646 0 1 1 0 5.29h-8.544a2.645 2.645 0 0 1-2.645-2.645z" fill="#FDEFF1"/><path d="M180.818 111.976a.63.63 0 0 1 .571-.366h6.82a.629.629 0 1 1 0 1.258h-6.82a.629.629 0 0 1-.571-.892z" fill="#89C3E2"/><path d="M180.79 123.021a.624.624 0 0 1 .456-.197h15.094a.63.63 0 0 1 0 1.258h-15.094a.628.628 0 0 1-.456-1.061z" fill="#fff"/><path d="M163.295 112.276a2.646 2.646 0 0 1 2.646-2.645h6.707a2.645 2.645 0 1 1 0 5.29h-6.707a2.646 2.646 0 0 1-2.646-2.645z" fill="#FDEFF1"/><path d="M165.306 111.976a.63.63 0 0 1 .571-.366h6.821a.63.63 0 0 1 0 1.258h-6.821a.629.629 0 0 1-.571-.892z" fill="#89C3E2"/><path d="M193.227 112.392a2.645 2.645 0 0 1 2.645-2.645h8.826a2.646 2.646 0 1 1 0 5.291h-8.826a2.646 2.646 0 0 1-2.645-2.646z" fill="#E1DFEF"/><path d="M195.227 112.034a.628.628 0 0 1 .54-.307h9.103a.628.628 0 1 1 0 1.257h-9.103a.628.628 0 0 1-.54-.95z" fill="#89C3E2"/><path d="M161.633 104.959c0-5.523 4.477-10 10-10h11.931c5.522 0 10 4.477 10 10v2.486h-31.931v-2.486zm32.603-2.51a7.491 7.491 0 1 1 14.982 0v4.995h-14.982v-4.995z" fill="#E1DFEF"/><path d="M196.484 102.392a.629.629 0 0 1 .541-.307h9.103a.629.629 0 0 1 0 1.257h-9.103a.629.629 0 0 1-.541-.95zm-21.799-1.677a.628.628 0 0 1 .541-.307h9.102a.628.628 0 1 1 0 1.257h-9.102a.629.629 0 0 1-.541-.95zm-11.465.741a4.402 4.402 0 0 1 4.402-4.402h1.013a4.402 4.402 0 0 1 0 8.804h-1.013a4.402 4.402 0 0 1-4.402-4.402z" fill="#89C3E2"/><path d="M189.718 102.324a1.41 1.41 0 0 0 .998-2.408 1.41 1.41 0 1 0-.998 2.408zm0 .353a1.763 1.763 0 1 1 0-3.525 1.763 1.763 0 0 1 0 3.525zm-.176-1.94v1.058h.353v-1.058h-.353zm0-.705h.353v.352h-.353v-.352z" fill="#000" fill-opacity=".2"/><path d="M160.845 82.064h-6.368a.705.705 0 0 1 0-1.405h6.368a.703.703 0 0 1 .648.702.706.706 0 0 1-.648.703zm7.068 2.636a.691.691 0 0 0-.207-.497.696.696 0 0 0-.498-.204h-12.731a.705.705 0 0 0 0 1.406h12.731a.701.701 0 0 0 .705-.706zm6.912 0a.71.71 0 0 0-.207-.497.7.7 0 0 0-.498-.204h-3.686a.706.706 0 0 0 0 1.406h3.686a.705.705 0 0 0 .502-.204.679.679 0 0 0 .154-.23.685.685 0 0 0 .053-.272h-.004zm9.717 0a.701.701 0 0 0-.7-.7h-6.502a.705.705 0 0 0 0 1.404h6.506a.7.7 0 0 0 .719-.704h-.023zm5.529 0a.701.701 0 0 0-.7-.7h-2.732a.708.708 0 0 0-.703.419.706.706 0 0 0 .703.986h2.727a.696.696 0 0 0 .497-.207.704.704 0 0 0 .204-.498h.004zm-9.989-3.336a.702.702 0 0 0-.705-.705h-14.625a.702.702 0 0 0-.702.42.707.707 0 0 0 .167.8.712.712 0 0 0 .535.185h14.643a.703.703 0 0 0 .682-.7h.005zm9.989 0a.692.692 0 0 0-.203-.499.7.7 0 0 0-.497-.206h-6.723a.702.702 0 0 0-.702.42.707.707 0 0 0 .167.8.712.712 0 0 0 .535.185h6.718a.703.703 0 0 0 .701-.7h.004z" fill="#fff"/><path d="M204.095 135.541H176.91a1.572 1.572 0 0 0-1.572 1.571v14.458a1.573 1.573 0 0 0 1.572 1.572h3.782v4.068l4.074-4.068h19.31a1.57 1.57 0 0 0 1.571-1.572v-14.458a1.569 1.569 0 0 0-1.552-1.571z" fill="#BAB7F6"/><path d="M200.473 144.198a1.926 1.926 0 0 1-2.299 1.88 1.921 1.921 0 1 1 2.299-1.88zm-9.294-1.926a1.925 1.925 0 0 0-1.894 2.299 1.931 1.931 0 0 0 1.512 1.516 1.923 1.923 0 0 0 1.979-.818 1.927 1.927 0 0 0-1.597-2.997zm-7.372 0a1.925 1.925 0 0 0-1.894 2.299 1.931 1.931 0 0 0 1.512 1.516c.374.075.761.037 1.113-.109a1.92 1.92 0 0 0 1.19-1.78 1.926 1.926 0 0 0-1.921-1.926z" fill="#A39EE9"/><path d="M127.414 62.418H71.367a4.193 4.193 0 0 0-4.193 4.193v87.236a4.193 4.193 0 0 0 4.193 4.193h56.047a4.193 4.193 0 0 0 4.193-4.193V66.61a4.193 4.193 0 0 0-4.193-4.192z" fill="#fff"/><path d="M116.098 78.245h-15.177a.46.46 0 0 1-.326-.787.46.46 0 0 1 .326-.135h15.177a.463.463 0 0 1 .461.461.463.463 0 0 1-.461.46zm-5.796 2.58a.463.463 0 0 0-.461-.46h-8.92a.46.46 0 0 0-.326.786.459.459 0 0 0 .326.135h8.92a.462.462 0 0 0 .461-.461zm6.98 3.037a.458.458 0 0 0-.461-.461h-15.9a.459.459 0 0 0-.461.46.458.458 0 0 0 .461.461h15.914a.46.46 0 0 0 .461-.46h-.014zm-14.081 3.04a.458.458 0 0 0-.46-.46h-1.843a.46.46 0 0 0-.326.786.46.46 0 0 0 .326.135h1.843a.458.458 0 0 0 .438-.28.462.462 0 0 0 .036-.18h-.014zm10.077-6.077a.458.458 0 0 0-.461-.46h-1.115a.459.459 0 0 0-.46.46.458.458 0 0 0 .46.46h1.115a.46.46 0 0 0 .475-.46h-.014zm9.238 0a.462.462 0 0 0-.46-.46h-7.276a.463.463 0 0 0-.46.46.462.462 0 0 0 .46.46h7.29a.458.458 0 0 0 .46-.46h-.014zm0-3.041a.462.462 0 0 0-.46-.46h-4.06a.459.459 0 0 0-.46.46.458.458 0 0 0 .46.46h4.074a.459.459 0 0 0 .46-.46h-.014zm-15.665 9.118a.463.463 0 0 0-.461-.46h-1.843a.46.46 0 1 0 0 .921h1.843a.46.46 0 0 0 .497-.46h-.036z" fill="#BAB7F6"/><path d="M99.211 150.755a7.778 7.778 0 1 0 0-15.556 7.778 7.778 0 0 0 0 15.556z" fill="#EC5271"/><path d="M96.433 143.003a7.787 7.787 0 0 1-1.209-3.397.79.79 0 0 1 .466-.791.79.79 0 0 1 .318-.068h1.181a.79.79 0 0 1 .788.678c.05.377.142.749.276 1.106a.786.786 0 0 1-.177.83l-.5.5m1.02 1.339c.4.399.85.744 1.343 1.023l.5-.5a.782.782 0 0 1 .831-.177c.357.133.728.226 1.106.276a.785.785 0 0 1 .678.787v1.181a.791.791 0 0 1-.535.749.79.79 0 0 1-.324.038 7.786 7.786 0 0 1-3.399-1.208 7.663 7.663 0 0 1-1.311-1.051l1.11-1.118zm4.919-4.913l-8.755 8.754" stroke="#fff" stroke-linecap="round" stroke-linejoin="round"/><path d="M265 87h-46a5 5 0 0 0-5 5v74a5 5 0 0 0 5 5h46a5 5 0 0 0 5-5V92a5 5 0 0 0-5-5z" fill="#FDEFF1"/><ellipse cx="257" cy="101.5" rx="9" ry="8.5" fill="#ECF2FD"/><path d="M266 101a9 9 0 0 0-9-9" stroke="#0094FF"/><path d="M254.383 102h-2.329v-.325l1.23-1.367a2.9 2.9 0 0 0 .376-.503.84.84 0 0 0 .105-.403.639.639 0 0 0-.168-.456.59.59 0 0 0-.45-.178c-.224 0-.399.064-.524.192-.124.127-.186.305-.186.533h-.452c0-.328.105-.592.315-.794.212-.202.494-.302.847-.302.331 0 .592.087.784.26.192.173.288.404.288.692 0 .35-.223.766-.669 1.25l-.952 1.032h1.785V102zm.615.305h-.388l1.484-3.86h.386l-1.482 3.86zm2.581-2.302h.339c.213-.003.381-.06.503-.168a.563.563 0 0 0 .183-.442c0-.417-.208-.625-.623-.625a.647.647 0 0 0-.468.168.582.582 0 0 0-.174.442h-.451c0-.282.102-.515.307-.7.207-.188.469-.281.786-.281.336 0 .599.088.789.266.19.177.286.424.286.74a.776.776 0 0 1-.152.449.894.894 0 0 1-.407.324.87.87 0 0 1 .451.308.845.845 0 0 1 .161.525c0 .319-.104.572-.312.759-.208.187-.479.281-.813.281-.334 0-.606-.091-.816-.271a.902.902 0 0 1-.312-.716h.454c0 .188.061.337.183.45.122.112.286.168.491.168.218 0 .385-.057.5-.171.116-.114.174-.277.174-.49 0-.207-.064-.366-.191-.477-.127-.11-.31-.167-.549-.17h-.339v-.369zm4.379.481c0 .529-.09.922-.27 1.179-.181.257-.464.386-.848.386-.379 0-.66-.125-.842-.376-.182-.252-.277-.628-.283-1.128v-.603c0-.523.09-.91.271-1.165.181-.254.464-.38.849-.38.383 0 .665.122.845.368.181.244.274.622.278 1.133v.586zm-.451-.618c0-.382-.054-.66-.161-.835-.108-.175-.278-.263-.511-.263-.231 0-.399.087-.505.26-.106.175-.16.443-.163.804v.723c0 .384.055.668.166.852a.556.556 0 0 0 .507.273c.223 0 .389-.086.496-.259.109-.172.166-.444.171-.815v-.74z" fill="#000" fill-opacity=".6"/><path d="M216.361 95v-3.555h1.219c.402 0 .708.08.918.242.21.161.314.401.314.72 0 .163-.043.31-.131.44a.851.851 0 0 1-.386.302c.192.052.34.151.444.296a.846.846 0 0 1 .159.517c0 .334-.107.59-.322.77-.214.178-.52.268-.918.268h-1.297zm.618-1.604v1.11h.686c.194 0 .345-.047.454-.143a.506.506 0 0 0 .164-.4c0-.37-.189-.559-.567-.567h-.737zm0-.454h.605c.193 0 .342-.043.45-.13a.45.45 0 0 0 .163-.37c0-.176-.05-.303-.151-.381-.099-.079-.255-.118-.466-.118h-.601v.999zM221.037 95a.93.93 0 0 1-.069-.247.923.923 0 0 1-.693.296c-.265 0-.482-.076-.65-.227a.728.728 0 0 1-.251-.562c0-.281.104-.497.313-.647.209-.151.509-.227.898-.227h.364v-.173a.46.46 0 0 0-.115-.327c-.077-.083-.193-.125-.349-.125a.518.518 0 0 0-.332.103.312.312 0 0 0-.13.256h-.593c0-.145.048-.28.144-.405a.954.954 0 0 1 .391-.298c.166-.072.351-.107.554-.107.309 0 .556.078.74.234.184.155.278.373.283.654v1.192c0 .237.033.427.1.569V95h-.605zm-.652-.427a.665.665 0 0 0 .329-.086.566.566 0 0 0 .235-.23v-.497h-.32c-.22 0-.385.038-.496.114a.373.373 0 0 0-.166.325c0 .114.038.205.113.274a.45.45 0 0 0 .305.1zm2.395-2.215v2.168h.825v-2.168h.593v2.168h.828v-2.168h.591V95h-3.43v-2.642h.593zm5.649 1.792l.537-1.792h.633l-1.05 3.042c-.161.445-.435.667-.82.667a1.06 1.06 0 0 1-.286-.044v-.459l.112.007c.15 0 .262-.027.337-.083a.529.529 0 0 0 .181-.273l.085-.227-.928-2.63h.64l.559 1.792zm3.631.85h-.594v-.881a2.114 2.114 0 0 1-.483.053c-.361 0-.637-.086-.828-.258-.19-.175-.285-.424-.285-.748v-.81h.593v.81c0 .193.042.329.127.408.086.08.217.12.393.12.159 0 .321-.019.483-.056v-1.28h.594V95zm1.794.049c-.376 0-.681-.118-.916-.354-.232-.238-.349-.554-.349-.947v-.074c0-.263.051-.499.152-.705a1.134 1.134 0 0 1 1.045-.66c.359 0 .637.115.832.345.197.23.296.554.296.974v.24h-1.726c.017.217.09.39.217.517.128.127.289.19.483.19.272 0 .493-.11.664-.33l.32.306c-.106.158-.247.28-.425.368-.176.087-.373.13-.593.13zm-.071-2.263a.502.502 0 0 0-.395.17c-.1.114-.163.273-.191.477h1.131v-.044c-.013-.199-.066-.349-.159-.45a.494.494 0 0 0-.386-.153zm2.837-.281c.332 0 .598.111.798.334.201.222.301.523.301.904v.029c0 .38-.109.69-.327.925-.217.236-.511.354-.884.354-.363 0-.656-.12-.879-.361-.223-.24-.335-.57-.335-.986v-.171c0-.57.101-1.02.303-1.353.202-.332.503-.54.903-.622.225-.046.37-.094.435-.144a.252.252 0 0 0 .1-.21h.479a.858.858 0 0 1-.081.4.635.635 0 0 1-.246.252c-.111.063-.302.123-.572.18-.247.052-.436.145-.566.278-.129.134-.215.319-.259.555a1.12 1.12 0 0 1 .83-.364zm-.117.476a.558.558 0 0 0-.452.195c-.109.129-.163.327-.163.596 0 .254.053.452.161.593a.54.54 0 0 0 .459.213.537.537 0 0 0 .456-.213c.109-.143.164-.358.164-.644 0-.228-.055-.408-.164-.54-.107-.133-.261-.2-.461-.2zM240.377 95h-.593v-1.067h-1.028V95h-.593v-2.642h.593v1.102h1.028v-1.102h.593V95zm1.272-1.802h.581c.217 0 .406.038.567.113a.823.823 0 0 1 .493.786c0 .272-.096.49-.288.654-.192.164-.448.247-.767.249h-1.179v-2.642h.593v.84zM244.323 95h-.594v-2.642h.594V95zm-2.674-1.326v.852h.579a.506.506 0 0 0 .342-.107.39.39 0 0 0 .127-.31.408.408 0 0 0-.125-.315.467.467 0 0 0-.332-.12h-.591zm5.035-1.316h.59V95h-.59v-1.763L245.648 95h-.59v-2.642h.59v1.763l1.036-1.763zm.278-1.013a.635.635 0 0 1-.215.498c-.143.127-.334.19-.574.19-.239 0-.43-.063-.573-.19a.632.632 0 0 1-.215-.498h.444c0 .108.03.192.09.252a.355.355 0 0 0 .254.088c.108 0 .192-.03.252-.088a.34.34 0 0 0 .09-.252h.447zM218.544 101h-.593v-2.163h-1.031V101h-.593v-2.642h2.217V101zm2.876-2.642V101h-.593v-2.163h-.747l-.049.92c-.031.443-.117.761-.257.955-.138.192-.35.288-.637.288h-.183l-.002-.493.122-.012c.13-.018.224-.097.283-.237.06-.142.098-.399.115-.772l.049-1.128h1.899zm2.209 2.642a.936.936 0 0 1-.068-.247.924.924 0 0 1-.693.296c-.266 0-.482-.076-.65-.227a.73.73 0 0 1-.251-.562c0-.281.104-.497.312-.647.21-.151.51-.227.899-.227h.364v-.173a.46.46 0 0 0-.115-.327c-.077-.083-.193-.125-.349-.125a.518.518 0 0 0-.332.103.309.309 0 0 0-.13.256h-.593c0-.145.048-.28.144-.405a.954.954 0 0 1 .391-.298c.166-.072.35-.107.554-.107.309 0 .556.078.74.234.183.155.278.373.283.654v1.192c0 .237.033.427.1.568V101h-.606zm-.651-.427a.665.665 0 0 0 .329-.086.577.577 0 0 0 .235-.229v-.498h-.32c-.22 0-.385.038-.496.114a.37.37 0 0 0-.166.325c0 .114.037.205.112.274.077.066.179.1.306.1zm4.016.427h-.594v-1.067h-1.027V101h-.594v-2.642h.594v1.102h1.027v-1.102h.594V101z" fill="#000"/><path d="M232.593 105.975h-16.09a.46.46 0 1 1 0-.921h16.09a.46.46 0 1 1 0 .921zm7.922 3.69h-23.791a.935.935 0 0 1-.482-.123c-.128-.078-.2-.185-.2-.296 0-.111.072-.218.2-.296a.935.935 0 0 1 .482-.123h23.791c.18 0 .354.044.481.123.128.078.2.185.2.296 0 .111-.072.218-.2.296a.931.931 0 0 1-.481.123z" fill="#69ACFF"/><rect x="216" y="112" width="16" height="5" rx="2.5" fill="#EC5271"/><path d="M228.557 115h-9.114a.42.42 0 0 1-.313-.146.536.536 0 0 1-.13-.354c0-.133.047-.26.13-.354a.42.42 0 0 1 .313-.146h9.114a.42.42 0 0 1 .313.146c.083.094.13.221.13.354 0 .133-.047.26-.13.354a.42.42 0 0 1-.313.146z" fill="#fff"/><path d="M248.513 115h-10.026a.482.482 0 0 1-.344-.146.505.505 0 0 1-.143-.354c0-.133.051-.26.143-.354a.482.482 0 0 1 .344-.146h10.026c.129 0 .253.053.344.146a.505.505 0 0 1 .143.354c0 .133-.051.26-.143.354a.482.482 0 0 1-.344.146zm19.044 0h-9.114a.42.42 0 0 1-.313-.146.536.536 0 0 1-.13-.354c0-.133.047-.26.13-.354a.42.42 0 0 1 .313-.146h9.114a.42.42 0 0 1 .313.146c.083.094.13.221.13.354 0 .133-.047.26-.13.354a.42.42 0 0 1-.313.146z" fill="#69ACFF"/><path d="M147.541 88.653c1.308 1.277 2.207 3.115 2.985 4.972.618 1.47 1.189 3.06 1.148 4.727a7.427 7.427 0 0 1-1.516 4.226 9.179 9.179 0 0 1-3.096 2.534c-2.129 1.129-4.64 1.599-6.681.226-1.65-1.116-2.742-3.286-3.35-5.557a14.653 14.653 0 0 1-.535-4.419 8.58 8.58 0 0 1 2.028-5.345c2.28-2.548 6.423-3.884 9.017-1.364z" fill="#293267"/><path d="M144.053 102.591a1.295 1.295 0 0 0 1.244-1.331c-.037-.797.101-1.535 1.405-2.134 2.723-1.257 2.765-11.385-2.244-11.154-5.008.23-4.405 7.058-4.29 8.938.116 1.88 1.793 2.272 2.24 2.93.209.453.301.95.267 1.448a1.312 1.312 0 0 0 1.382 1.303h-.004z" fill="#FFA9A7"/><path d="M147.863 95.505a.976.976 0 0 0 1.93-.093.974.974 0 0 0-1.009-1.073 1.052 1.052 0 0 0-.921 1.166zm-9.058-.41a.976.976 0 1 0 .921-1.166 1.048 1.048 0 0 0-.921 1.166z" fill="#FFA9A7"/><path d="M145.029 94.28a.5.5 0 0 1 .477.603.497.497 0 1 1-.477-.604zm-3.529.423a.49.49 0 0 0 .127.382.492.492 0 0 0 .569.121.486.486 0 0 0 .271-.298.49.49 0 0 0 .023-.205.49.49 0 0 0-.127-.382.486.486 0 0 0-.368-.163.503.503 0 0 0-.368.163.495.495 0 0 0-.127.382zm4.575-1.123a.107.107 0 0 1-.078-.038 1.196 1.196 0 0 0-1.203-.272.107.107 0 0 1-.087-.002.115.115 0 0 1-.035-.027.116.116 0 0 1-.021-.04.117.117 0 0 1 .004-.088.116.116 0 0 1 .066-.06 1.383 1.383 0 0 1 1.437.328.115.115 0 0 1-.083.198zm-4.331-.167a.099.099 0 0 1-.056-.013.099.099 0 0 1-.041-.042.112.112 0 0 1-.015-.086.11.11 0 0 1 .052-.07 1.612 1.612 0 0 1 1.53-.066.103.103 0 0 1 .06.065c.005.014.007.03.005.045a.108.108 0 0 1-.014.043.114.114 0 0 1-.064.06.113.113 0 0 1-.088-.005 1.384 1.384 0 0 0-1.309.055.143.143 0 0 1-.06.014z" fill="#293267"/><path d="M143.799 96.546a.315.315 0 0 1-.092 0 .418.418 0 0 1-.276-.249.842.842 0 0 1 0-.525l.318-1.267a.115.115 0 0 1 .138-.083c.015.003.028.01.041.018a.117.117 0 0 1 .045.076.113.113 0 0 1-.003.044l-.318 1.267a.664.664 0 0 0-.023.387.186.186 0 0 0 .124.106.07.07 0 0 0 .074 0 .115.115 0 0 1 .163.021.116.116 0 0 1-.02.164.306.306 0 0 1-.171.041zm-.023.922a2.146 2.146 0 0 1-1.322-.46.12.12 0 0 1 0-.162.108.108 0 0 1 .037-.026.104.104 0 0 1 .043-.01c.016 0 .031.004.044.01a.108.108 0 0 1 .037.026 1.917 1.917 0 0 0 2.567-.198.104.104 0 0 1 .125-.027.116.116 0 0 1 .036.027c.011.01.02.023.026.036a.11.11 0 0 1-.026.125 2.168 2.168 0 0 1-1.383.668l-.184-.01zm-3.663-1.908a.116.116 0 0 1-.08-.032.116.116 0 0 1-.035-.078l-.042-.844a.13.13 0 0 1 .007-.044.137.137 0 0 1 .024-.038.11.11 0 0 1 .036-.027.12.12 0 0 1 .044-.01.11.11 0 0 1 .084.029c.011.01.02.023.027.037a.112.112 0 0 1 .009.044l.064.825a.097.097 0 0 1-.007.044.113.113 0 0 1-.06.065.11.11 0 0 1-.043.01l-.028.02zm8.234.433a.07.07 0 0 1-.042 0 .114.114 0 0 1-.062-.06.114.114 0 0 1-.002-.087l.253-.618a.101.101 0 0 1 .024-.038.102.102 0 0 1 .036-.026.112.112 0 0 1 .088 0 .12.12 0 0 1 .062.063.12.12 0 0 1 .002.089l-.253.617a.12.12 0 0 1-.045.045.113.113 0 0 1-.061.015z" fill="#E16C7A"/><path d="M136.514 104.241c-1.308.696-3.621 13.233-3.621 13.233l-4.295-.415s.982 2.304 4.636 3.659c4.299 1.576 5.685-10.929 5.685-10.929l-2.405-5.548zm3.175-3.714l.433 2.152s4.179 1.714 7.086-.101l.249-2.051h-7.768z" fill="#BAB7F6"/><path d="M125.171 124.464V68.712H73.565v55.752h51.606z" fill="#E3E9FF"/><mask id="a" maskUnits="userSpaceOnUse" x="73" y="68" width="53" height="57"><path d="M125.171 124.464V68.712H73.565v55.752h51.606z" fill="#E3E9FF"/></mask><g mask="url(#a)"><path d="M76.579 120.036c-1.7 32.212.75 72.506.75 72.506l-2.58 2.695 10.137 1.207-.083-69.962a.693.693 0 0 1 .779-.696.705.705 0 0 1 .599.535l16.997 72.339 11.611 1.383-4.833-3.714-16.016-75.98-17.361-.313z" fill="#271055"/><path d="M111.394 98.514s.824-2.908 1.317-3.484c.493-.576 1.807-.677 2.06-.645.307.053.603.157.875.309 0 0 .761-.535 1.162-.36.921.401 0 1.18 0 1.18s.778-.083.967.36c.189.442-.557.801-.557.801a.645.645 0 0 1 .682.277c.198.378-.461 1.082-.461 1.082s.783.065.461.88c-.277.664-3.991 2.636-3.991 2.636l-.843.323-1.672-3.36z" fill="#FFA9A7"/><path d="M111.394 98.514l-8.271 6.298-2.037-9.348a4.93 4.93 0 0 0-2.856-3.46 24.469 24.469 0 0 0-4.75-1.328c-1.729-.322-9.585-.557-11.723-.332-2.137.226-4.206.572-4.916 1.065-2.304 1.585-11.464 15.495-11.404 16.504.06 1.009 9.76 14.777 9.76 14.777l2.262-2.465 17.241 3.764 1.99-22.061 1.383 7.994a3.513 3.513 0 0 0 6.036 1.783l9.8-10.136-2.515-3.055zm-38.907 9.676l5.667-7.299-1.193 14.464-4.474-7.165z" fill="url(#paint4_linear)"/><path d="M88.715 104.757l4.746-14.08a39.493 39.493 0 0 0-6.262-.623 49.437 49.437 0 0 0-5.465.3l6.98 14.403z" fill="#F3F0F3"/><path d="M93.11 122.183h-.023l-13.468-2.589a.115.115 0 0 1-.092-.134.113.113 0 0 1 .016-.043.1.1 0 0 1 .03-.032.107.107 0 0 1 .088-.017l13.472 2.589a.12.12 0 0 1 .093.134.121.121 0 0 1-.042.066.122.122 0 0 1-.073.026z" fill="#C34159"/><path d="M80.108 117.672s-2.7-1.58-3.373-1.023c-.672.558-.59 1.521-.626 1.843-.037.323-1.161.71-1.286 1.742-.124 1.032-.972 1.617-.921 2.479.05.862 1.46 1.258 1.843 1.35.382.092.958-1.756.958-1.756s.922.111 1.124-.147c.203-.258.844-1.792.844-1.792a5.71 5.71 0 0 0 1.322-.618c.139-.259.246-.535.318-.82l-.664-.405.461-.853z" fill="#FFA9A7"/><path d="M86.305 88.64s-.866-.184-1.262.253c-.397.438-.6 4.783.096 4.903.696.12 2.737-2.276 2.737-2.276s2.12 2.63 2.793 2.345c.672-.286-.18-5.128-1.562-5.133-1.383-.005-2.802-.092-2.802-.092zm8.704-10.856s-.028 2.198-.89 3.202l-.165-3.649 1.055.447z" fill="#293267"/><path d="M87.872 91.178c-.586-.06-1.083-.133-1.41-.672-.6-.991-.272-2.254-.894-3.226a14.822 14.822 0 0 0-1.019-1.258 5.653 5.653 0 0 1-.921-2.248c-.89-3.603.46-11.174 5.815-10.45 5.354.723 4.971 6.745 4.46 9.469a9.62 9.62 0 0 1-1.046 3.123c-.274.495-.65.924-1.106 1.258-.502.355-1.096.42-1.626.714-.71.397-.576 1.406-.655 2.097-.12.894-.714 1.29-1.598 1.193z" fill="#FFA9A7"/><path d="M96.599 79.046c-3.226.042-8.967-2.925-8.967-2.925-.138 2.11-2.686 2.474-2.686 2.474l-.184 3.483-.64-.189-.697-1.76-.211.175s-1.972-2.276-1.719-3.35c.253-1.073 1.59-2.23 1.59-2.23H80.6l.627-1.382 2.027 1.055c.46-5.04 12.201-1.313 12.201-1.313a8.915 8.915 0 0 1 1.691-.967c.581-.252 1.23-.3 1.843-.139a1.71 1.71 0 0 1 1.207 1.314 2.301 2.301 0 0 1-.58 1.663 6.316 6.316 0 0 1-2.382 1.903c.46.11.995.46 1 .921a1.188 1.188 0 0 1-.71 1.014 1.612 1.612 0 0 1-.926.253z" fill="#293267"/><path d="M84.167 81.64a1.539 1.539 0 1 1-3.061-.317 1.539 1.539 0 0 1 3.061.318zm11.786 1.033a1.54 1.54 0 1 1-3.062-.31 1.54 1.54 0 0 1 3.062.31z" fill="#FFA9A7"/><path d="M90.3 83.608a1.535 1.535 0 0 1-.548-.18c-.116-.05-.24-.105-.341-.138a.115.115 0 0 1-.076-.145.116.116 0 0 1 .145-.076c.125.045.248.095.368.152.148.065.424.19.461.152a.12.12 0 0 0 0-.06 2.644 2.644 0 0 0-.368-.986 2.831 2.831 0 0 1-.19-.414 1.676 1.676 0 0 1 0-.66.114.114 0 0 1 .045-.079.116.116 0 0 1 .09-.022.12.12 0 0 1 .096.134 1.44 1.44 0 0 0 0 .562c.048.13.106.254.175.373.205.332.338.702.392 1.088a.281.281 0 0 1-.11.258.258.258 0 0 1-.14.041zm-.866 1.097c-.373 0-.74-.097-1.064-.281a2.18 2.18 0 0 1-.922-1.078.116.116 0 0 1 .065-.148.113.113 0 0 1 .09-.002.11.11 0 0 1 .062.067 1.917 1.917 0 0 0 2.082 1.188.115.115 0 0 1 .13.093.115.115 0 0 1-.097.133 2.01 2.01 0 0 1-.346.028zm4.345-1.263a.115.115 0 0 1-.092-.133l.3-1.728a.112.112 0 0 1 .044-.079.111.111 0 0 1 .089-.018.116.116 0 0 1 .092.134l-.3 1.732a.115.115 0 0 1-.133.092z" fill="#E16C7A"/><path d="M94.005 82.447a.115.115 0 0 1-.101-.17.116.116 0 0 1 .068-.056c.284-.08.577-.122.871-.124a.115.115 0 1 1 0 .23c-.273.002-.544.04-.806.115l-.032.005zm-10.607-.457h-.046a.11.11 0 0 1-.06-.063.111.111 0 0 1 .004-.088.692.692 0 0 0-.24-.83.686.686 0 0 0-.852.111.115.115 0 0 1-.196-.08.11.11 0 0 1 .035-.081.89.89 0 0 1 1.47.967.11.11 0 0 1-.115.065zm5.003 6.138c-.688 0-1.37-.144-2-.424a.117.117 0 0 1-.069-.064.113.113 0 0 1 .002-.094.115.115 0 0 1 .165-.05c.749.33 1.572.46 2.386.374a.114.114 0 0 1 .112.063.117.117 0 0 1 .013.043.112.112 0 0 1-.059.112.111.111 0 0 1-.043.012 4.74 4.74 0 0 1-.507.028z" fill="#E16C7A"/><path d="M89.457 79.024a.115.115 0 0 1-.087-.042 1.51 1.51 0 0 0-1.106-.53 1.54 1.54 0 0 0-1.13.461.118.118 0 0 1-.082.035.116.116 0 0 1-.083-.035.11.11 0 0 1 0-.161 1.72 1.72 0 0 1 2.599.083.115.115 0 0 1 0 .16.124.124 0 0 1-.11.029zm3.709.801a.11.11 0 0 1-.101-.064 1.384 1.384 0 0 0-2.05-.516.115.115 0 0 1-.162 0 .112.112 0 0 1-.022-.087.11.11 0 0 1 .05-.075 1.618 1.618 0 0 1 1.336-.258 1.64 1.64 0 0 1 1.055.857.124.124 0 0 1-.055.157l-.051-.014zm-3.99 1.065a.539.539 0 1 1-.461-.604.548.548 0 0 1 .46.604zm2.87.46a.54.54 0 1 1-1.07-.13.54.54 0 0 1 1.07.13z" fill="#293267"/><path d="M115.319 97.537c-.29-.032-.649-.945-.834-1.488a.117.117 0 0 1 .004-.088.118.118 0 0 1 .065-.06.121.121 0 0 1 .089.008.123.123 0 0 1 .059.066c.14.465.346.907.613 1.313.125-.63.173-1.274.143-1.917 0-.03.012-.06.033-.081a.116.116 0 0 1 .082-.034c.03 0 .06.012.081.034.022.021.034.05.034.081 0 .567 0 1.913-.235 2.12a.175.175 0 0 1-.134.046z" fill="#E16C7A"/><path d="M115.646 94.694l5.709-8.086.618.355-6.022 8.455-.305-.724z" fill="#fff"/><path d="M89.512 81.438a1.553 1.553 0 1 1-2.72-1.498 1.553 1.553 0 0 1 2.72 1.498v0zm3.7.705a1.552 1.552 0 1 1-2.723-1.49 1.552 1.552 0 0 1 2.723 1.49v0zm-3.461-1.336a.429.429 0 0 1 .563.101" stroke="#fff" stroke-width=".6" stroke-linecap="round" stroke-linejoin="round"/><path d="M86.803 120.943a.112.112 0 0 1-.075-.044.117.117 0 0 1-.022-.085l2.019-12.376 5.372-16.057a.117.117 0 0 1 .221.073l-5.368 16.04-2.013 12.357a.117.117 0 0 1-.05.072.112.112 0 0 1-.084.02zm-1.129-1.649a.118.118 0 0 1-.075-.045.114.114 0 0 1-.022-.084l1.811-10.92.663-2.359a.107.107 0 0 1 .02-.041.11.11 0 0 1 .078-.043.137.137 0 0 1 .045.005.117.117 0 0 1 .069.053.109.109 0 0 1 .01.086l-.66 2.35-1.824 10.901a.12.12 0 0 1-.115.097zm.746-16.527a.124.124 0 0 1-.062-.017.118.118 0 0 1-.044-.048l-5.529-11.215a.11.11 0 0 1 .019-.126.111.111 0 0 1 .037-.026.115.115 0 0 1 .152.05l5.529 11.216a.115.115 0 0 1-.05.152l-.052.014z" fill="#C34159"/></g><path d="M144.831 128.597a.863.863 0 0 0-.662-.936.87.87 0 0 0-1.011.54l-19.089 50.407-4.147-.069 17.61-56.213c6.041-1.995 12.791.147 12.791.147s2.087 6.695.645 16.178c-1.442 9.482-7.916 40.284-7.916 40.284l-3.589-.055 5.368-50.283z" fill="#293267"/><path d="M123.277 180.691h-7.151l3.796-2.161 4.147.069-.792 2.092zm15.988 0l.198-1.843 3.59.055 2.382 1.788h-6.17zm11.547-77.035c1.032.82 9.782 11.717 9.676 12.606-.106.889-7.768 8.801-7.768 8.801l-1.521-2.834 4.681-5.713-6.298-6.502 1.23-6.358z" fill="#BAB7F6"/><path d="M147.209 102.578s2.737.539 3.603 1.078c.332.207-.733 13.422-.733 13.422l2.272 9.155s-10.851 2.005-17.154-.977l3.299-8.114s-2.055-12.68-1.981-12.901c.073-.221 3.607-1.562 3.607-1.562l7.087-.101z" fill="#BAB7F6"/><path d="M136.966 107.135a4.674 4.674 0 0 0-.175 2.787 3.348 3.348 0 0 0 1.087 1.843c.065.53.065 1.134.129 1.668m12.842-6.644a3.222 3.222 0 0 1-.254 3.483m-4.188-7.754a8.138 8.138 0 0 1-5.437.327" stroke="#A39EE9" stroke-width=".6" stroke-linecap="round" stroke-linejoin="round"/><path d="M147.872 121.874h-8.478v-1.041h8.953v.567a.474.474 0 0 1-.135.34.464.464 0 0 1-.34.134z" fill="#293267"/><path d="M124.332 121.87h15.772a.418.418 0 0 0 .401-.287.395.395 0 0 0 .018-.174l-1.332-11.243a1.103 1.103 0 0 0-1.059-.949h-14.823a.831.831 0 0 0-.839.949l1.332 11.225a.552.552 0 0 0 .53.479z" fill="#293267"/><path d="M126 120.985h13.394a.157.157 0 0 0 0-.309H126a.156.156 0 0 0-.169.089.152.152 0 0 0 0 .132c.01.021.024.039.041.054a.156.156 0 0 0 .128.034zm3.705-6.054a.947.947 0 0 0 1.609.708.943.943 0 0 0 .219-1.037.953.953 0 0 0-1.541-.325.95.95 0 0 0-.287.654z" fill="#384172"/><path d="M123.157 116.774s-1.843 1.055-1.746 1.64c.097.585.696.862.875.991.18.129.023.921.586 1.345.562.424.626 1.12 1.147 1.382.52.263 1.235-.433 1.41-.617.175-.184-.705-1.156-.705-1.156s.382-.512.295-.715c-.088-.202-.77-1.101-.77-1.101.069-.324.097-.655.083-.986a2.264 2.264 0 0 0-.373-.461l-.461.249-.341-.571zm26.706 5.533s1.903-.732 2.28-.299a1.571 1.571 0 0 1 .203 1.253c0 .212.673.576.645 1.253-.027.678.461 1.143.332 1.696-.129.553-1.069.65-1.318.673-.249.023-.428-1.231-.428-1.231s-.613-.027-.71-.211c-.097-.185-.35-1.245-.35-1.245a3.818 3.818 0 0 1-.788-.539 2.399 2.399 0 0 1-.115-.557l.461-.194-.212-.599z" fill="#FFA9A7"/><path d="M148.895 93.404a1 1 0 0 1-.198 1.129c-.198.189-.461.285-.682.46-.259.243-.422.57-.461.922-.037.357-.017.718.06 1.069a1.947 1.947 0 0 1-.566-1.88 5.97 5.97 0 0 1 .847-1.898 2.367 2.367 0 0 1-2.032-1.737 14.914 14.914 0 0 1-5.879 1.294 11.462 11.462 0 0 1 1.088-3.16 3.738 3.738 0 0 1 2.525-1.945 4.39 4.39 0 0 1 2.709.613 5.744 5.744 0 0 1 2.391 2.138c.525.963.77 2.069.198 2.995z" fill="#293267"/><rect x="216" y="121.497" width="25.36" height="8.95" rx="4.475" fill="#D8ECFB"/><path d="M237.782 126.47h-12.236a.662.662 0 0 1-.421-.146.462.462 0 0 1-.174-.352c0-.131.063-.258.174-.351a.662.662 0 0 1 .421-.146h12.236c.158 0 .309.053.42.146a.46.46 0 0 1 .175.351.46.46 0 0 1-.175.352.657.657 0 0 1-.42.146z" fill="#69ACFF"/><rect x="218.487" y="123.983" width="3.978" height="3.978" rx="1.989" fill="#0094FF"/><g clip-path="url(#clip1)"><path d="M221.47 125.6l-1.367 1.139-.622-.518" stroke="#fff" stroke-width=".5" stroke-linecap="round" stroke-linejoin="round"/></g><rect x="243.349" y="144.371" width="25.36" height="8.95" rx="4.475" fill="#D8ECFB"/><path d="M265.13 149.343h-12.236a.661.661 0 0 1-.421-.145.463.463 0 0 1-.174-.352c0-.132.063-.258.174-.352a.661.661 0 0 1 .421-.145h12.236c.158 0 .309.052.421.145.111.094.174.22.174.352a.463.463 0 0 1-.174.352.661.661 0 0 1-.421.145z" fill="#69ACFF"/><rect x="245.835" y="146.857" width="3.978" height="3.978" rx="1.989" fill="#0094FF"/><g clip-path="url(#clip2)"><path d="M248.819 148.473l-1.368 1.14-.621-.518" stroke="#fff" stroke-width=".5" stroke-linecap="round" stroke-linejoin="round"/></g><rect x="243.349" y="155.31" width="25.36" height="8.95" rx="4.475" fill="#D8ECFB"/><path d="M265.13 160.283h-12.236a.662.662 0 0 1-.421-.146.462.462 0 0 1-.174-.352c0-.131.063-.258.174-.351a.662.662 0 0 1 .421-.146h12.236c.158 0 .309.053.421.146.111.093.174.22.174.351a.462.462 0 0 1-.174.352.662.662 0 0 1-.421.146z" fill="#69ACFF"/><rect x="245.835" y="157.796" width="3.978" height="3.978" rx="1.989" fill="#0094FF"/><g clip-path="url(#clip3)"><path d="M248.819 159.413l-1.368 1.139-.621-.518" stroke="#fff" stroke-width=".5" stroke-linecap="round" stroke-linejoin="round"/></g><rect x="216" y="144.371" width="25.36" height="8.95" rx="4.475" fill="#D8ECFB"/><path d="M237.782 149.343h-12.236a.661.661 0 0 1-.421-.145.463.463 0 0 1-.174-.352c0-.132.063-.258.174-.352a.661.661 0 0 1 .421-.145h12.236c.158 0 .309.052.42.145.112.094.175.22.175.352a.461.461 0 0 1-.175.352.656.656 0 0 1-.42.145z" fill="#69ACFF"/><rect x="218.487" y="146.857" width="3.978" height="3.978" rx="1.989" fill="#0094FF"/><g clip-path="url(#clip4)"><path d="M221.47 148.473l-1.367 1.14-.622-.518" stroke="#fff" stroke-width=".5" stroke-linecap="round" stroke-linejoin="round"/></g><rect x="243.349" y="121" width="25.36" height="8.95" rx="4.475" fill="#fff"/><path d="M265.13 125.973h-12.236a.662.662 0 0 1-.421-.146.462.462 0 0 1-.174-.352.46.46 0 0 1 .174-.351.656.656 0 0 1 .421-.146h12.236c.158 0 .309.052.421.146a.46.46 0 0 1 .174.351.462.462 0 0 1-.174.352.662.662 0 0 1-.421.146z" fill="#69ACFF"/><rect x="245.835" y="123.486" width="3.978" height="3.978" rx="1.989" stroke="#2F9EEE" stroke-width=".5" stroke-linecap="square" stroke-linejoin="round"/><rect x="216" y="132.934" width="25.36" height="8.95" rx="4.475" fill="#fff"/><path d="M237.782 137.906h-12.236a.661.661 0 0 1-.421-.145.462.462 0 0 1-.174-.352.46.46 0 0 1 .174-.351.656.656 0 0 1 .421-.146h12.236c.158 0 .309.052.42.146a.458.458 0 0 1 .175.351.46.46 0 0 1-.175.352.656.656 0 0 1-.42.145z" fill="#69ACFF"/><rect x="218.487" y="135.42" width="3.978" height="3.978" rx="1.989" stroke="#2F9EEE" stroke-width=".5" stroke-linecap="square" stroke-linejoin="round"/><rect x="216" y="155.807" width="25.36" height="8.95" rx="4.475" fill="#fff"/><path d="M237.782 160.78h-12.236a.656.656 0 0 1-.421-.146.46.46 0 0 1-.174-.351c0-.132.063-.259.174-.352a.662.662 0 0 1 .421-.146h12.236c.158 0 .309.053.42.146a.46.46 0 0 1 .175.352.458.458 0 0 1-.175.351.652.652 0 0 1-.42.146z" fill="#69ACFF"/><rect x="218.487" y="158.294" width="3.978" height="3.978" rx="1.989" stroke="#2F9EEE" stroke-width=".5" stroke-linecap="square" stroke-linejoin="round"/><rect x="243.349" y="132.437" width="25.36" height="8.95" rx="4.475" fill="#fff"/><path d="M265.13 137.409h-12.236a.661.661 0 0 1-.421-.145.463.463 0 0 1-.174-.352c0-.132.063-.258.174-.352a.661.661 0 0 1 .421-.145h12.236c.158 0 .309.052.421.145.111.094.174.22.174.352a.463.463 0 0 1-.174.352.661.661 0 0 1-.421.145z" fill="#69ACFF"/><rect x="245.835" y="134.923" width="3.978" height="3.978" rx="1.989" stroke="#2F9EEE" stroke-width=".5" stroke-linecap="square" stroke-linejoin="round"/><defs><linearGradient id="paint0_linear" x1="44.984" y1="131.058" x2="44.984" y2="140.236" gradientUnits="userSpaceOnUse"><stop stop-color="#293267"/><stop offset="1" stop-color="#3B467E"/></linearGradient><linearGradient id="paint1_linear" x1="10976.2" y1="7099.96" x2="10976.2" y2="8024.22" gradientUnits="userSpaceOnUse"><stop stop-color="#293267"/><stop offset="1" stop-color="#3B467E"/></linearGradient><linearGradient id="paint2_linear" x1="78412.6" y1="3540.94" x2="78412.6" y2="3380.19" gradientUnits="userSpaceOnUse"><stop stop-color="#293267"/><stop offset="1" stop-color="#3B467E"/></linearGradient><linearGradient id="paint3_linear" x1="71149.5" y1="49603.2" x2="71149.5" y2="19901.1" gradientUnits="userSpaceOnUse"><stop stop-color="#1052DB"/><stop offset="1" stop-color="#3B467E"/></linearGradient><linearGradient id="paint4_linear" x1="82.209" y1="124.409" x2="94.728" y2="91.317" gradientUnits="userSpaceOnUse"><stop stop-color="#FF647E"/><stop offset="1" stop-color="#FF8A7E"/></linearGradient><clipPath id="clip0"><path fill="#fff" d="M200.777 120.966h4.927v5.079h-4.927z"/></clipPath><clipPath id="clip1"><path fill="#fff" d="M218.984 124.978h2.983v2.486h-2.983z"/></clipPath><clipPath id="clip2"><path fill="#fff" d="M246.332 147.851h2.983v2.486h-2.983z"/></clipPath><clipPath id="clip3"><path fill="#fff" d="M246.332 158.791h2.983v2.486h-2.983z"/></clipPath><clipPath id="clip4"><path fill="#fff" d="M218.984 147.851h2.983v2.486h-2.983z"/></clipPath></defs></svg>