<svg width="700" height="404" fill="none" xmlns="http://www.w3.org/2000/svg"><path d="M581.197 395.754c-14.227-15.161-24.389-33.147-20.324-54.65 1.687-8.861 3.394-16.259-2.52-23.941-2.784-3.638-6.097-6.869-8.129-10.975-5.955-11.93-1.484-24.388 3.617-35.769 3.78-8.333 7.804-16.767 9.288-25.872 1.585-9.613-.996-19.185-.406-28.839.548-9.349 5.385-19.694 14.511-21.787 6.097-1.402 12.438 1.28 17.193 5.284a33.596 33.596 0 0 1 10.955 17.986c2.195 9.532.223 20.039 4.593 28.779 3.841 7.702 11.828 12.377 17.234 19.104a34.038 34.038 0 0 1 7.114 25.729c-1.078 7.54-4.695 14.593-5.447 22.173-1.687 17.072 11.178 32.965 9.918 50.057a37.03 37.03 0 0 1-14.227 25.385c-8.8 7.113-21.787 12.519-33.229 11.056a22.722 22.722 0 0 1-15.527-8.983" fill="#C1CCFF"/><path d="M602.252 389.007a1.262 1.262 0 0 1-1.24-1.118l-8.658-74.384-9.348-79.669a1.277 1.277 0 0 1 1.117-1.402 1.3 1.3 0 0 1 1.382 1.097l9.349 79.689 8.658 74.384a1.261 1.261 0 0 1-1.097 1.403h-.163z" fill="#fff"/><path d="M593.675 314.622a1.275 1.275 0 0 1-1.204-.956 1.276 1.276 0 0 1 .127-.954l19.978-33.615a1.268 1.268 0 0 1 1.789-.558 1.272 1.272 0 0 1 .592.838 1.268 1.268 0 0 1-.227 1l-19.957 33.636a1.283 1.283 0 0 1-1.098.609zm-3.557-22.315a1.174 1.174 0 0 1-.508-.203l-26.421-12.56a1.27 1.27 0 0 1-.645-.721 1.263 1.263 0 0 1 .056-.966 1.236 1.236 0 0 1 1.194-.713c.164.01.325.052.473.124l26.42 12.56a1.236 1.236 0 0 1 .59 1.666 1.263 1.263 0 0 1-1.159.813zm7.114 54.427a1.091 1.091 0 0 1-.488-.122l-22.193-9.633a1.25 1.25 0 0 1-.671-.687 1.24 1.24 0 0 1 .02-.96 1.263 1.263 0 0 1 1.647-.65l22.193 9.633a1.261 1.261 0 0 1-.508 2.419z" fill="#fff"/><path d="M586.399 380.349a21.95 21.95 0 0 1 .529-10.832c3.617-9.776 13.413-16.056 20.466-23.149 8.373-8.434 14.714-19.47 15.324-31.359.467-9.634 2.947-17.661 9.999-24.693 7.052-7.032 15.527-11.869 22.783-18.393a153 153 0 0 0 20.689-22.498c5.162-6.971 14.755-17.316 21.279-5.102a22.361 22.361 0 0 1 1.809 15.975c-3.72 13.942-17.032 22.579-23.068 35.302-3.048 6.442-3.719 13.454-4.755 20.323-.915 6.26-2.399 13.211-7.114 17.784-2.743 2.662-6.097 4.572-8.658 7.458-3.475 4.065-4.654 9.308-6.097 14.227a77.233 77.233 0 0 1-6.28 15.1c-6.341 12.377-15.527 26.685-29.042 31.807a19.327 19.327 0 0 1-12.397.955c-8.922-2.663-14.064-14.328-15.467-22.905z" fill="#D8EFFF"/><path d="M608.41 387.625a1.175 1.175 0 0 1-.569-.143 1.258 1.258 0 0 1-.549-1.687l47.354-91.923a1.262 1.262 0 0 1 1.687-.549 1.262 1.262 0 0 1 .548 1.687l-47.354 91.944a1.255 1.255 0 0 1-1.117.671z" fill="#fff"/><path d="M636.355 332a1.258 1.258 0 0 1-1.26-1.22l-.448-32.517a1.27 1.27 0 0 1 .355-.897 1.27 1.27 0 0 1 1.369-.301 1.22 1.22 0 0 1 .776 1.157l.468 32.518a1.25 1.25 0 0 1-.356.889 1.235 1.235 0 0 1-.884.371h-.02zm-4.492 11.746a1.26 1.26 0 0 1-.589-2.378l25.404-13.373a1.272 1.272 0 0 1 1.004-.168 1.27 1.27 0 0 1 .945 1.129 1.252 1.252 0 0 1-.342.959c-.12.127-.266.228-.428.295l-25.364 13.394a1.49 1.49 0 0 1-.63.142zm-19.511 34.184a1.253 1.253 0 0 1-.796-.278 1.254 1.254 0 0 1-.443-.718l-3.903-19.348a1.266 1.266 0 0 1 2.48-.508l3.902 19.348c.033.163.033.331 0 .494a1.274 1.274 0 0 1-.996.99l-.244.02z" fill="#fff"/><path d="M599.508 384.597a15.18 15.18 0 0 0-1.199-7.438c-3.252-6.484-10.507-10.162-15.913-14.43a34.432 34.432 0 0 1-13.008-20.507 24.384 24.384 0 0 0-8.8-16.259c-5.324-4.247-11.645-6.991-17.153-10.954a105.031 105.031 0 0 1-16.035-13.983c-4.065-4.41-11.544-10.832-15.1-1.869a15.482 15.482 0 0 0 0 11.178c3.658 9.348 13.515 14.226 18.677 22.62a48.917 48.917 0 0 1 4.837 13.738c1.118 4.248 2.683 8.943 6.28 11.748 2.032 1.625 4.613 2.682 6.564 4.491a24.387 24.387 0 0 1 5.264 9.43 54.04 54.04 0 0 0 5.488 9.959c5.345 8.129 12.783 17.254 22.518 19.754 2.841.857 5.885.75 8.658-.305 5.955-2.682 8.617-11.137 8.922-17.173z" fill="#A1ADE4"/><path d="M586.745 391.263a1.223 1.223 0 0 1-1.037-.549l-39.773-59.995a1.26 1.26 0 0 1 .346-1.748 1.259 1.259 0 0 1 1.747.366l39.774 59.893a1.266 1.266 0 0 1 .18.95 1.262 1.262 0 0 1-.546.798 1.2 1.2 0 0 1-.691.285z" fill="#fff"/><path d="M563.19 354.985a1.257 1.257 0 0 1-1.24-1.138l-2.195-22.478a1.262 1.262 0 0 1 2.052-1.086 1.245 1.245 0 0 1 .448.843l2.195 22.477a1.263 1.263 0 0 1-1.138 1.362l-.122.02zm4.064 7.744a1.264 1.264 0 0 1-.467 0l-18.555-7.297a1.26 1.26 0 0 1-.712-1.625 1.262 1.262 0 0 1 1.626-.712l18.576 7.296a1.264 1.264 0 0 1 .691 1.626 1.203 1.203 0 0 1-1.159.712zm16.036 22.152h-.122a1.261 1.261 0 0 1-1.138-1.361l1.219-13.658a1.215 1.215 0 0 1 .435-.863 1.23 1.23 0 0 1 .927-.275 1.258 1.258 0 0 1 1.138 1.362l-1.219 13.657a1.281 1.281 0 0 1-1.24 1.138z" fill="#fff"/><path d="M69.957 395.754c-14.227-15.161-24.388-33.147-20.324-54.65 1.707-8.861 3.415-16.259-2.5-23.941-2.804-3.638-6.097-6.869-8.251-10.975-5.955-11.93-1.484-24.388 3.638-35.769 3.76-8.333 7.784-16.767 9.288-25.872 1.565-9.613-.996-19.185-.427-28.839.549-9.349 5.386-19.694 14.511-21.787 6.097-1.402 12.438 1.28 17.194 5.284a33.633 33.633 0 0 1 10.975 17.986c2.174 9.532.203 20.039 4.572 28.779 3.862 7.702 11.849 12.377 17.235 19.104a33.876 33.876 0 0 1 7.072 25.75c-1.056 7.54-4.674 14.592-5.426 22.173-1.707 17.072 11.178 32.965 9.898 50.057a36.995 36.995 0 0 1-14.227 25.384c-8.82 7.113-21.787 12.519-33.229 11.056a22.785 22.785 0 0 1-15.548-8.983" fill="#D8EFFF"/><path d="M91.012 389.007a1.241 1.241 0 0 1-1.24-1.118l-8.678-74.384-9.328-79.669a1.26 1.26 0 0 1 1.097-1.402 1.32 1.32 0 0 1 1.403 1.097l9.288 79.689 8.657 74.384a1.262 1.262 0 0 1-1.097 1.403h-.102z" fill="#fff"/><path d="M82.354 314.622a1.262 1.262 0 0 1-1.095-.641 1.258 1.258 0 0 1 .018-1.269l19.958-33.615a1.28 1.28 0 0 1 1.727-.448 1.26 1.26 0 0 1 .427 1.728l-19.957 33.636a1.276 1.276 0 0 1-1.078.609zm-3.474-22.315a1.35 1.35 0 0 1-.55-.122l-26.42-12.56a1.26 1.26 0 0 1-.59-1.687 1.233 1.233 0 0 1 .71-.644 1.244 1.244 0 0 1 .957.055l26.42 12.56a1.228 1.228 0 0 1 .645.709 1.242 1.242 0 0 1-.055.957 1.218 1.218 0 0 1-1.118.732zm7.113 54.427a1.095 1.095 0 0 1-.509-.122l-22.254-9.634a1.256 1.256 0 0 1-.65-1.646 1.28 1.28 0 0 1 1.666-.65l22.173 9.633a1.259 1.259 0 0 1 .306 2.131 1.263 1.263 0 0 1-.793.288h.06z" fill="#fff"/><path d="M75.16 380.349a22.212 22.212 0 0 1 .508-10.832c3.618-9.776 13.414-16.056 20.466-23.149 8.394-8.434 14.714-19.47 15.324-31.359.488-9.634 2.967-17.661 10.019-24.693 7.053-7.032 15.507-11.869 22.763-18.393a151.917 151.917 0 0 0 20.608-22.498c5.183-6.971 14.775-17.316 21.279-5.102a22.155 22.155 0 0 1 1.829 15.975c-3.74 13.942-17.031 22.579-23.088 35.302-3.048 6.442-3.699 13.454-4.735 20.323-.935 6.26-2.419 13.211-7.113 17.784-2.744 2.662-6.097 4.572-8.658 7.458-3.496 4.065-4.675 9.308-6.097 14.227a78.4 78.4 0 0 1-6.26 15.1c-6.361 12.377-15.527 26.685-29.063 31.807a19.314 19.314 0 0 1-12.397.955c-8.84-2.663-13.983-14.328-15.385-22.905z" fill="#A1ADE4"/><path d="M97.15 387.625a1.178 1.178 0 0 1-.57-.143 1.234 1.234 0 0 1-.668-1.218c.015-.164.063-.323.14-.469l47.314-91.923a1.262 1.262 0 0 1 2.075-.249 1.243 1.243 0 0 1 .16 1.387l-47.333 91.944a1.221 1.221 0 0 1-1.118.671z" fill="#fff"/><path d="M125.176 331.999a1.24 1.24 0 0 1-1.239-1.219l-.468-32.518a1.278 1.278 0 0 1 1.24-1.28 1.254 1.254 0 0 1 1.177.759c.066.152.101.315.103.48l.447 32.518a1.236 1.236 0 0 1-1.239 1.26h-.021zm-4.573 11.747a1.244 1.244 0 0 1-1.097-.671 1.256 1.256 0 0 1 .508-1.707l25.364-13.373a1.261 1.261 0 1 1 1.179 2.215l-25.364 13.394a1.487 1.487 0 0 1-.59.142zm-19.51 34.184a1.264 1.264 0 0 1-1.22-.996l-3.902-19.348a1.262 1.262 0 0 1 1.898-1.231c.271.163.472.421.561.723l3.903 19.348a1.26 1.26 0 0 1-.976 1.484l-.264.02z" fill="#fff"/><path d="M88.248 384.597a15.18 15.18 0 0 0-1.178-7.438c-3.252-6.484-10.508-10.162-15.934-14.43-6.443-5.203-11.666-12.337-12.987-20.507a24.391 24.391 0 0 0-8.82-16.259c-5.325-4.247-11.626-6.991-17.154-10.954a106.05 106.05 0 0 1-16.035-13.983c-4.065-4.41-11.523-10.832-15.08-1.869a15.263 15.263 0 0 0 0 11.178c3.638 9.348 13.495 14.226 18.657 22.62a48.933 48.933 0 0 1 4.837 13.738c1.138 4.248 2.683 8.943 6.3 11.748 2.033 1.625 4.594 2.682 6.545 4.491a24.151 24.151 0 0 1 5.264 9.43 55.284 55.284 0 0 0 5.487 9.959c5.345 8.129 12.783 17.254 22.539 19.754 2.833.859 5.872.752 8.637-.305 5.955-2.682 8.617-11.137 8.922-17.173z" fill="#C1CCFF"/><path d="M75.424 391.263a1.254 1.254 0 0 1-1.057-.549l-39.59-59.995a1.264 1.264 0 0 1 .013-1.403 1.267 1.267 0 0 1 .805-.529 1.234 1.234 0 0 1 .936.199c.135.093.25.213.34.351l39.772 59.893a1.261 1.261 0 0 1-.345 1.748c-.246.2-.558.301-.874.285z" fill="#fff"/><path d="M51.849 354.986a1.263 1.263 0 0 1-1.24-1.139l-2.175-22.477a1.243 1.243 0 0 1 .652-1.223 1.25 1.25 0 0 1 .466-.139 1.259 1.259 0 0 1 1.382 1.118l2.134 22.478a1.26 1.26 0 0 1-1.138 1.361l-.081.021zm4.064 7.742a1.16 1.16 0 0 1-.447 0l-18.657-7.377a1.26 1.26 0 0 1-.69-1.626 1.238 1.238 0 0 1 1.625-.711L56.3 360.31a1.26 1.26 0 0 1 .711 1.626 1.242 1.242 0 0 1-1.098.792zm16.117 22.153h-.122a1.261 1.261 0 0 1-1.138-1.362l1.22-13.657a1.24 1.24 0 0 1 1.361-1.138 1.26 1.26 0 0 1 1.138 1.361l-1.22 13.658a1.238 1.238 0 0 1-1.24 1.138z" fill="#fff"/><path d="M589.794 91.492H165.011a4.573 4.573 0 0 0-4.573 4.572V348.89a4.573 4.573 0 0 0 4.573 4.573h424.783a4.574 4.574 0 0 0 4.573-4.573V96.064a4.573 4.573 0 0 0-4.573-4.572z" fill="#3B467E"/><path d="M576.583 106.795H178.221v231.364h398.362V106.795z" fill="#EAEAFB"/><path d="M368 120.857H202c-5.523 0-10 4.477-10 10v80c0 5.523 4.477 10 10 10h166c5.523 0 10-4.477 10-10v-80c0-5.523-4.477-10-10-10z" fill="#FFF9FF"/><path d="M378 125.073v7.784H192v-7.784c0-1.383.403-2.71 1.121-3.688.718-.978 1.691-1.528 2.707-1.528h178.344c1.016 0 1.989.55 2.707 1.528.718.978 1.121 2.305 1.121 3.688z" fill="#DADAEF"/><path d="M221.103 126.127c0 .29.126.569.348.775.223.206.526.323.843.325H342.43c.317-.002.621-.119.846-.325.225-.206.352-.484.355-.775a1.03 1.03 0 0 0-.091-.421 1.118 1.118 0 0 0-.261-.357 1.203 1.203 0 0 0-.39-.238 1.3 1.3 0 0 0-.459-.084H222.294c-.157 0-.313.029-.458.084a1.225 1.225 0 0 0-.388.239c-.11.102-.198.224-.257.357a1.018 1.018 0 0 0-.088.42z" fill="#FFF9FF"/><path d="M207.408 126.128v.81a.283.283 0 0 1-.043.154.32.32 0 0 1-.123.113.353.353 0 0 1-.336-.007l-.765-.4-.775-.41a.334.334 0 0 1-.12-.113.291.291 0 0 1 0-.304.318.318 0 0 1 .12-.113l.775-.4.765-.41a.355.355 0 0 1 .336-.008.32.32 0 0 1 .123.113c.029.047.044.1.043.155v.82zm4.008-.001v.81c0 .053.015.105.044.15a.344.344 0 0 0 .448.11l.775-.4.765-.41a.323.323 0 0 0 .119-.113.287.287 0 0 0 0-.304.34.34 0 0 0-.119-.113l-.765-.4-.775-.41a.358.358 0 0 0-.328 0 .327.327 0 0 0-.12.11.281.281 0 0 0-.044.15v.82z" fill="#2E3062"/><path d="M359.063 127.637c.983 0 1.78-.729 1.78-1.63 0-.9-.797-1.63-1.78-1.63s-1.78.73-1.78 1.63c0 .901.797 1.63 1.78 1.63z" fill="#6B5EFD"/><path d="M352.488 127.637c.984 0 1.781-.729 1.781-1.63 0-.9-.797-1.63-1.781-1.63-.983 0-1.78.73-1.78 1.63 0 .901.797 1.63 1.78 1.63z" fill="#FDA803"/><path d="M365.638 127.637c.983 0 1.78-.729 1.78-1.63 0-.9-.797-1.63-1.78-1.63s-1.78.73-1.78 1.63c0 .901.797 1.63 1.78 1.63z" fill="#FF495A"/><path d="M304.112 212.499c-5.754-9.59 4.057-26.746 14.893-29.729 5.534-1.534 8.632 1.391 11.748-1.228 5.467-4.555-.853-16.015 5.16-21.28 2.819-2.465 4.622-.316 8.928-2.724 7.605-4.248 5.956-13.205 12.18-17.684 5.514-3.97 14.462-4.181 17.128-.652 3.586 4.728-2.206 18.72-11.297 22.729-3.002 1.323-5.994 1.4-7.116 3.836-1.544 3.356 2.877 5.831 2.34 9.935-.959 7.231-15.68 7.413-18.068 16.303-.959 3.606 1.295 4.182.834 8.756-.853 8.43-9.705 17.914-20.647 18.451-.72.02-11.767.403-16.083-6.713z" fill="#6D964B"/><path d="M311.611 209.978l-.805-.231c2.244-7.739 5.994-13.55 11.124-17.262a25.237 25.237 0 0 1 7.529-3.673c2.512-.844 4.67-1.582 6.713-4.114 2.541-3.136 2.57-6.051 2.599-9.139.028-3.088.067-6.272 2.877-9.591 2.138-2.551 4.44-3.394 6.665-4.219 2.56-.959 4.968-1.832 7.231-5.169a17.797 17.797 0 0 0 1.841-3.597 15.81 15.81 0 0 1 2.877-4.929 20.868 20.868 0 0 1 8.449-5.754l.297.786a19.901 19.901 0 0 0-8.122 5.486 14.62 14.62 0 0 0-2.762 4.69 19.186 19.186 0 0 1-1.918 3.749c-2.408 3.558-5.064 4.536-7.673 5.486-2.215.815-4.315 1.592-6.319 3.97-2.561 3.059-2.59 5.956-2.628 9.024-.038 3.069-.058 6.292-2.781 9.658-2.206 2.723-4.479 3.491-7.107 4.373a24.673 24.673 0 0 0-7.307 3.558c-4.949 3.673-8.593 9.35-10.78 16.898z" fill="#89BD5E"/><path d="M226.403 210.937c-8.132-7.673-3.251-26.853 6.378-32.607 4.919-2.963 8.631-.959 10.99-4.335 4.037-5.859-5.112-15.209-.738-21.884 2.052-3.136 4.373-1.554 7.873-5.016 6.186-6.138 2.196-14.327 6.991-20.312 4.249-5.293 12.813-7.892 16.303-5.217 4.719 3.597 2.878 18.634-4.795 24.935-2.541 2.081-5.399 2.953-5.83 5.61-.585 3.644 4.334 4.852 4.929 8.947 1.036 7.222-13.119 11.345-13.033 20.552 0 3.731 2.359 3.683 3.146 8.209 1.438 8.353-4.546 19.861-14.942 23.314-.662.172-11.201 3.51-17.272-2.196z" fill="#6D964B"/><path d="M232.953 206.496h-.834c.096-8.056 2.139-14.663 6.08-19.64a25.115 25.115 0 0 1 6.272-5.553c2.187-1.487 4.076-2.772 5.38-5.754 1.602-3.712.854-6.522.048-9.504-.806-2.983-1.611-6.061.163-9.964a14.029 14.029 0 0 1 5.303-5.821c2.206-1.592 4.297-3.098 5.582-6.915.413-1.286.683-2.615.805-3.961.151-1.917.655-3.79 1.487-5.524a20.917 20.917 0 0 1 6.607-7.777l.499.671a20.193 20.193 0 0 0-6.358 7.461 14.684 14.684 0 0 0-1.4 5.265 19.283 19.283 0 0 1-.854 4.124c-1.371 4.076-3.663 5.754-5.879 7.336-1.918 1.381-3.74 2.695-5.025 5.515-1.649 3.634-.901 6.435-.105 9.398s1.62 6.08-.106 10.06c-1.39 3.203-3.375 4.555-5.667 6.119a24.424 24.424 0 0 0-6.09 5.38c-3.827 4.785-5.812 11.22-5.908 19.084zm75.034 7.912c-9.092-5.754-7.922-24.886.172-32.117 4.134-3.692 8.046-2.484 9.59-6.09 2.791-6.281-7.576-13.503-4.622-20.628 1.381-3.338 3.836-2.254 6.56-6.167 4.795-6.933-.49-13.982 2.982-20.522 3.069-5.755 10.731-9.792 14.548-7.884 5.121 2.561 6.09 17.148-.067 24.503-2.033 2.427-4.594 3.769-4.517 6.368.096 3.568 4.987 3.836 6.282 7.605 2.282 6.656-10.406 13.11-8.631 21.827.7 3.539 2.877 3.069 4.459 7.221 2.877 7.673-.738 19.66-9.974 24.801-.604.345-10.002 5.399-16.782 1.083z" fill="#89BD5E"/><path d="M313.405 209.019l-.796.143c-1.362-7.672-.614-14.289 2.234-19.717a24.203 24.203 0 0 1 4.949-6.406c1.803-1.803 3.366-3.357 4.057-6.425.863-3.836-.365-6.34-1.65-9.025-1.285-2.685-2.628-5.457-1.64-9.475a13.426 13.426 0 0 1 3.961-6.502c1.812-1.918 3.519-3.721 4.057-7.567a17.327 17.327 0 0 0 0-3.903c-.2-1.844-.06-3.71.412-5.504a20.205 20.205 0 0 1 4.881-8.564l.585.546a19.343 19.343 0 0 0-4.68 8.219 14.323 14.323 0 0 0-.393 5.255c.132 1.35.113 2.711-.057 4.057-.566 4.114-2.446 6.09-4.268 8.008-1.573 1.668-3.059 3.232-3.769 6.147-.911 3.74.297 6.262 1.582 8.928 1.285 2.666 2.638 5.476 1.717 9.591-.738 3.299-2.378 4.938-4.277 6.828a23.88 23.88 0 0 0-4.795 6.195c-2.724 5.236-3.443 11.7-2.11 19.171z" fill="#6D964B"/><path d="M321.931 210.179c-2.475-7.826 7.537-18.394 15.804-18.663 4.22-.134 5.908 2.484 8.631 1.161 4.699-2.312 2.177-11.585 7.385-14.299 2.436-1.276 3.356.575 6.847-.393 6.166-1.717 6.55-8.401 11.767-10.55 4.632-1.918 11.057-.47 12.352 2.513 1.736 3.999-4.795 12.985-12.016 14.27-2.379.422-4.527-.048-5.754 1.506-1.688 2.129 1.035 4.67-.058 7.509-1.918 4.996-12.467 2.57-15.728 8.506-1.323 2.398.192 3.213-.959 6.397-2.071 5.869-10.041 11.105-17.952 9.59-.518-.077-8.478-1.717-10.319-7.547z" fill="#89BD5E"/><path d="M327.723 209.718l-.537-.307c2.954-5.13 6.636-8.631 10.952-10.414a18.377 18.377 0 0 1 6.013-1.314c1.918-.173 3.615-.317 5.514-1.774 2.359-1.794 2.877-3.837 3.443-6.071.566-2.235 1.141-4.469 3.683-6.33a10.287 10.287 0 0 1 5.495-1.86 9.389 9.389 0 0 0 6.061-2.436 13.253 13.253 0 0 0 1.918-2.244 11.51 11.51 0 0 1 2.934-3.011 15.337 15.337 0 0 1 7.03-2.618l.077.604a14.756 14.756 0 0 0-6.713 2.512 10.745 10.745 0 0 0-2.791 2.877 14.309 14.309 0 0 1-2.024 2.35 9.982 9.982 0 0 1-6.406 2.589 9.591 9.591 0 0 0-5.198 1.736c-2.369 1.736-2.877 3.836-3.452 5.994-.576 2.158-1.132 4.479-3.664 6.406-2.042 1.563-3.836 1.717-5.84 1.918-2.001.1-3.971.531-5.831 1.276-4.21 1.649-7.787 5.063-10.664 10.117z" fill="#6D964B"/><path d="M245.939 217.63c-6.272-5.293-3.443-19.583 3.394-24.215 3.501-2.368 6.33-1.055 7.893-3.606 2.743-4.459-4.344-10.961-1.39-16.034 1.39-2.379 3.145-1.314 5.581-3.999 4.306-4.738 1.055-10.597 4.344-15.172 2.877-4.057 9.092-6.301 11.777-4.469 3.606 2.455 2.877 13.561-2.541 18.48-1.784 1.631-3.836 2.379-4.057 4.345-.297 2.704 3.366 3.394 3.961 6.377 1.045 5.255-9.188 8.833-8.766 15.594.173 2.733 1.918 2.608 2.628 5.897 1.391 6.081-2.561 14.76-10.05 17.694-.47.202-8.142 3.06-12.774-.892z" fill="#89BD5E"/><path d="M250.571 214.12h-.614c-.25-5.917.959-10.846 3.692-14.654a18.368 18.368 0 0 1 4.383-4.325 9.274 9.274 0 0 0 3.721-4.44c1.035-2.781.374-4.795-.326-6.981-.701-2.187-1.429-4.383-.279-7.318a10.331 10.331 0 0 1 3.664-4.498 9.41 9.41 0 0 0 3.836-5.293c.251-.963.395-1.95.431-2.944.04-1.413.336-2.807.873-4.115a15.251 15.251 0 0 1 4.555-5.955l.384.47a14.788 14.788 0 0 0-4.373 5.754 10.917 10.917 0 0 0-.825 3.922 13.948 13.948 0 0 1-.46 3.06 10.013 10.013 0 0 1-4.028 5.61 9.594 9.594 0 0 0-3.472 4.248c-1.074 2.724-.412 4.795.288 6.905.7 2.11 1.429 4.392.317 7.375-.892 2.417-2.302 3.481-3.923 4.718a18.006 18.006 0 0 0-4.258 4.191c-2.627 3.692-3.836 8.497-3.586 14.27z" fill="#6D964B"/><path d="M339.26 220.267c-.192-5.917-.585-15.785-1.161-19.046-2.263-12.707-16.59-23.304-37.056-23.304-20.465 0-33.757 10.78-37.046 23.304-.864 3.28-1.381 13.129-1.573 19.046h76.836z" fill="#0172D0"/><path d="M300.219 187.863c-4.038-.135-10.646-1.995-10.646-1.995l3.923-17.646 1.764-19.382 15.997 3.213-3.012 13.762c.403 6.713 1.046 11.863 2.149 19.698 0 0-6.215 2.484-10.175 2.35z" fill="#FFA681"/><path d="M293.726 165.921l-1.055 6.022c3.299 0 8.372-.105 10.722-1.659 5.169-3.404 2.877-7.835.594-10.818-1.63-2.09-5.591 5.342-10.261 6.455z" fill="#F97853"/><path d="M289.573 121.959c-2.042.575-6.847 20.35-3.097 34.409 3.913 14.654 18.595 17.733 25.893 5.611 9.197-15.345 6.828-31.945 7.212-35.282.7-6.263-18.682-7.96-30.008-4.738z" fill="#FFA681"/><path d="M323.043 150.001a5.96 5.96 0 0 1-4.681 4.68 5.955 5.955 0 1 1 .01-11.681 5.941 5.941 0 0 1 4.674 4.679 5.93 5.93 0 0 1-.003 2.322zm-32.117-4.632a5.961 5.961 0 0 1-4.682 4.68 5.957 5.957 0 0 1-6.108-9.156 5.963 5.963 0 0 1 6.119-2.525 5.959 5.959 0 0 1 4.671 7.001z" fill="#FFA681"/><path d="M309.195 143.988a.96.96 0 1 1-1.908-.205.96.96 0 0 1 1.908.205zm-14.654-1.707a.96.96 0 0 1-1.703.501.963.963 0 1 1 1.672-.877c.035.122.046.25.031.376z" fill="#18315B"/><path d="M311.947 140.775a.48.48 0 0 0 .343-.271.457.457 0 0 0 0-.35.44.44 0 0 0-.103-.146c-3.194-3.184-5.342-1.506-5.428-1.429a.436.436 0 0 0-.169.302.453.453 0 0 0 .102.331.455.455 0 0 0 .633.067c.067-.058 1.64-1.209 4.229 1.371a.436.436 0 0 0 .393.125zm-16.447-2.618a.48.48 0 0 0 .355-.182.443.443 0 0 0 .088-.335.45.45 0 0 0-.174-.298 4.174 4.174 0 0 0-3.184-1.045 2.453 2.453 0 0 0-1.554.959.442.442 0 0 0-.058.341.452.452 0 0 0 .202.282.47.47 0 0 0 .633-.086 1.447 1.447 0 0 1 .959-.585 3.396 3.396 0 0 1 2.455.872.442.442 0 0 0 .278.077z" fill="#C46A00"/><path d="M309.703 124.98s-4.248 17.473 11.901 20.225c0 0 9.715-30.582-17.981-32.74l-24.493-1.918s-2.465 38.293 30.573 14.433z" fill="#C46A00"/><path d="M300.161 140.573s-.662 9.006-4.21 10.703c0 0 3.999 2.081 5.859.336" stroke="#F97853" stroke-miterlimit="10" stroke-linecap="round"/><path d="M294.651 146.071a4.23 4.23 0 1 0-2.231-8.16 4.23 4.23 0 0 0 2.231 8.16zm17.792-2.028c.044-2.335-1.886-4.266-4.311-4.312-2.426-.046-4.428 1.81-4.472 4.145-.045 2.335 1.886 4.266 4.311 4.312 2.425.046 4.427-1.809 4.472-4.145zm-8.494-1.455s-2.023-4.69-6.176-.691m24.062 2.657s-3.923-1.918-9.523.46" stroke="#fff" stroke-miterlimit="10" stroke-linecap="round"/><path d="M289.478 140.957a5.317 5.317 0 0 0-1.624-2.036 5.316 5.316 0 0 0-2.395-1.023" stroke="#fff" stroke-miterlimit="10" stroke-linecap="round"/><path d="M298.147 156.493s4.651 2.657 8.382-2.234" stroke="#F97853" stroke-miterlimit="10" stroke-linecap="round"/><path d="M308.869 174.532l-8.785 13.925 2.954 10.453 10.779-15.488-4.948-8.89z" fill="#fff"/><path d="M292.076 174.532l8.785 13.925-2.954 10.453-10.779-15.488 4.948-8.89z" fill="#fff"/><path d="M273.836 220.267c-.192-5.917-.71-15.766-1.573-19.046-3.289-12.524-16.591-23.304-37.046-23.304-20.456 0-34.793 10.597-37.057 23.304-.575 3.261-.959 13.129-1.16 19.046h76.836z" fill="#FDA803"/><path d="M236.041 206.074c.422 0 10.444-18.077 10.645-20.206l-3.922-17.646-1.784-19.382-15.996 3.213 3.059 16.428c-.412 6.713-1.189 9.235-2.177 17.08-.393 3.059 10.175 20.513 10.175 20.513z" fill="#FFA681"/><path d="M242.189 164.271l1.486 7.921c-2.781-.383-9.024-1.179-11.383-2.733-5.16-3.404-2.638-8.631-.365-11.642 1.602-2.091 5.601 5.341 10.262 6.454z" fill="#F97853"/><path d="M246.734 121.959c2.043.575 6.848 20.35 3.098 34.409-3.913 14.654-18.595 17.733-25.893 5.611-9.197-15.345-6.828-31.945-7.212-35.282-.748-6.263 18.634-7.96 30.007-4.738z" fill="#FFA681"/><path d="M213.217 150.001a5.956 5.956 0 1 0 4.67-7.001 5.941 5.941 0 0 0-4.673 4.679 5.93 5.93 0 0 0 .003 2.322zm32.117-4.632a5.961 5.961 0 0 0 4.681 4.68 5.955 5.955 0 1 0-4.681-4.68z" fill="#FFA681"/><path d="M227.199 144.889a.953.953 0 0 0 .231.508.956.956 0 0 0 1.677-.576.956.956 0 0 0-1.093-1.006.964.964 0 0 0-.815 1.074zm14.587-2.186a.962.962 0 0 0 1.715.455.96.96 0 1 0-1.715-.455zm-17.397-.691a.477.477 0 0 1-.239-.125.431.431 0 0 1-.134-.316.44.44 0 0 1 .134-.317c3.088-3.299 5.293-1.687 5.38-1.62a.449.449 0 0 1 .086.633.46.46 0 0 1-.633.096c-.067-.058-1.678-1.161-4.181 1.505a.443.443 0 0 1-.413.144zm16.179-3.261a.463.463 0 0 1-.336-.23.46.46 0 0 1 .173-.613 4.143 4.143 0 0 1 3.289-.614 2.428 2.428 0 0 1 1.41 1.17.453.453 0 0 1-.065.506.45.45 0 0 1-.75-.123 1.517 1.517 0 0 0-.882-.7 3.402 3.402 0 0 0-2.551.547.446.446 0 0 1-.288.057z" fill="#18315B"/><path d="M217.446 129.718s3.433 15.123-2.79 15.488c0 0-10.55-32.511 17.147-30.928 22.738 1.294 19.18 23.716 19.18 23.716s-26.862 2.887-33.537-8.276z" fill="#18315B"/><path d="M235.399 140.42s1.103 7.414 5.227 8.91c0 0-.106 1.764-2.753 3.136" stroke="#F97853" stroke-miterlimit="10" stroke-linecap="round"/><path d="M230.201 155.611s5.975 2.11 10.674.125c0 0-4.901 8.42-10.674-.125z" fill="#fff"/><path d="M210.954 129.382a9.025 9.025 0 1 0-.001-18.049 9.025 9.025 0 0 0 .001 18.049z" fill="#18315B"/><path d="M245.133 178.723s10.837 1.563 7.48 9.005c-3.356 7.442-11.796 9.869-11.796 9.869s5.093-.959 4.795 3.471c-.297 4.431-9.494 5.006-9.494 5.006l9.015-27.351z" fill="#fff"/><path d="M226.864 178.56s-10.818 1.573-7.461 9.015c3.356 7.442 11.795 9.868 11.795 9.868s-5.092-.959-4.843 3.472c.25 4.431 9.83 5.159 9.83 5.159l-9.321-27.514zm17.636-2.551l-.269-1.179c-6.636 6.818-15.344 1.352-16.859.326-.048.374-.106.748-.163 1.122a18.85 18.85 0 0 0 9.331 2.877c2.962.029 5.818-1.1 7.96-3.146z" fill="#fff"/><path d="M236.645 184.381a2.83 2.83 0 1 0 .002-5.658 2.83 2.83 0 0 0-.002 5.658z" fill="#fff"/><path d="M368 226.857H202c-5.523 0-10 4.477-10 10v80c0 5.523 4.477 10 10 10h166c5.523 0 10-4.477 10-10v-80c0-5.523-4.477-10-10-10z" fill="#FFF9FF"/><path d="M378 232.073v7.784H192v-7.784c0-1.383.403-2.71 1.121-3.688.718-.978 1.691-1.528 2.707-1.528h178.344c1.016 0 1.989.55 2.707 1.528.718.978 1.121 2.305 1.121 3.688z" fill="#DADAEF"/><path d="M221.103 233.127c0 .29.126.569.348.775.223.206.526.323.843.325H342.43c.317-.002.621-.119.846-.325.225-.206.352-.484.355-.775a1.03 1.03 0 0 0-.091-.421 1.118 1.118 0 0 0-.261-.357 1.203 1.203 0 0 0-.39-.238 1.3 1.3 0 0 0-.459-.084H222.294c-.157 0-.313.029-.458.084a1.225 1.225 0 0 0-.388.239c-.11.102-.198.224-.257.357a1.018 1.018 0 0 0-.088.42z" fill="#FFF9FF"/><path d="M207.408 233.128v.81a.283.283 0 0 1-.043.154.32.32 0 0 1-.123.113.353.353 0 0 1-.336-.007l-.765-.4-.775-.41a.334.334 0 0 1-.12-.113.291.291 0 0 1 0-.304.318.318 0 0 1 .12-.113l.775-.4.765-.41a.355.355 0 0 1 .336-.008.32.32 0 0 1 .123.113c.029.047.044.1.043.155v.82zm4.008-.001v.81c0 .053.015.105.044.15a.344.344 0 0 0 .448.11l.775-.4.765-.41a.323.323 0 0 0 .119-.113.287.287 0 0 0 0-.304.34.34 0 0 0-.119-.113l-.765-.4-.775-.41a.358.358 0 0 0-.328 0 .327.327 0 0 0-.12.11.281.281 0 0 0-.044.15v.82z" fill="#2E3062"/><path d="M359.063 234.637c.983 0 1.78-.729 1.78-1.63 0-.9-.797-1.63-1.78-1.63s-1.78.73-1.78 1.63c0 .901.797 1.63 1.78 1.63z" fill="#6B5EFD"/><path d="M352.488 234.637c.984 0 1.781-.729 1.781-1.63 0-.9-.797-1.63-1.781-1.63-.983 0-1.78.73-1.78 1.63 0 .901.797 1.63 1.78 1.63z" fill="#FDA803"/><path d="M365.638 234.637c.983 0 1.78-.729 1.78-1.63 0-.9-.797-1.63-1.78-1.63s-1.78.73-1.78 1.63c0 .901.797 1.63 1.78 1.63z" fill="#FF495A"/><path d="M356.82 326.381a1.835 1.835 0 0 0 1.31-.54 4.227 4.227 0 0 0 1.27-2.73c0-6.8 8.32-6.35 11-14.65 2.68-8.3-7.91-9-14-3.88-4.35 3.69-9.57-1.47-15.89 2.84-5.49 3.73-2.43 12.92-11.43 10.05a8.174 8.174 0 0 0-7.63 1.59 12.847 12.847 0 0 0-4.8 7.37h40.17v-.05z" fill="#F68601"/><path d="M336.71 326.381l22.75-14.61a.683.683 0 0 0 .305-.685.677.677 0 0 0-.787-.551.665.665 0 0 0-.248.096l-24.53 15.75h2.51z" fill="#E65913"/><path d="M267.94 316.681c1.56-1.15 3.08-2.35 4.53-3.64-1.74-8.43-4.25-23.78-3-37.28 2-21.39-7.17-25.25-12.44-20.6-17.11 15.12 10.2 61.5 10.2 61.5l.71.02z" fill="#F68601"/><path d="M269.64 315.381l.77-.61a132.223 132.223 0 0 1-7.59-29.89 144.69 144.69 0 0 1-1.47-17.33.5.5 0 0 0-1 0 147.14 147.14 0 0 0 1.47 17.45 132.673 132.673 0 0 0 7.82 30.38z" fill="#E65913"/><path d="M273.45 326.291c0-1.36 0-2.72-.14-4.08-7.74-3.75-21.45-11.1-31.37-20.34-15.73-14.65-24.41-9.69-23.92-2.68 1.08 15.61 26.48 23.61 42.38 27.1h13.05z" fill="#F68601"/><path d="M273.45 325.891v-1a131.254 131.254 0 0 1-28.36-12.15 147.843 147.843 0 0 1-14.66-9.36.475.475 0 0 0-.523-.032.47.47 0 0 0-.137.122.474.474 0 0 0-.084.35.484.484 0 0 0 .184.31 144.32 144.32 0 0 0 14.73 9.44 132.654 132.654 0 0 0 28.85 12.32z" fill="#E65913"/><path d="M276.03 326.291l1.59-.59s-19.36-25.32-27.9-52.88c-9.2-29.73-23.65-29.76-28.1-20.6-12.48 25.71 32.42 64.13 44.81 74.07h9.6z" fill="#FDA803"/><path d="M272.6 326.291h1.94c-12.54-12.26-22.43-27-28.71-37.55a210.876 210.876 0 0 1-11.63-22.36.693.693 0 0 0-.871-.292.686.686 0 0 0-.389.832 213.567 213.567 0 0 0 11.7 22.46c6.18 10.43 15.77 24.75 27.96 36.91z" fill="#F68601"/><path d="M336.66 326.381a17.635 17.635 0 0 0-.38-3.19c-2.21-10.08 3.79-12 11.69-15.17 7.9-3.17 8.84-12.64 3.24-20.5-5.6-7.86 4.46-14.18.76-26s-16.56-4-19.37 6.95c-2 7.84-12.3 6.15-16.11 16.32-3.3 8.83 7.78 17-5 21-4.09 1.29-6.35 4.43-7.53 8.1a18.275 18.275 0 0 0 .46 12.48l32.24.01z" fill="#FDA803"/><path d="M321.01 326.381l21.08-52a1.002 1.002 0 0 0-1.252-1.067.995.995 0 0 0-.528.347l-21.38 52.72h2.08z" fill="#F68601"/><mask id="a" maskUnits="userSpaceOnUse" x="257" y="222" width="133" height="105"><path d="M380 222.857H267c-5.523 0-10 4.477-10 10v84c0 5.523 4.477 10 10 10h113c5.523 0 10-4.477 10-10v-84c0-5.523-4.477-10-10-10z" fill="#DADAEF"/></mask><g mask="url(#a)"><path d="M261.17 267.711v1.083a.416.416 0 0 1-.204.351.404.404 0 0 1-.406.002l-.931-.545-.947-.538a.41.41 0 0 1 0-.706l.947-.546.939-.538a.401.401 0 0 1 .61.345l-.008 1.092zm4.88 0v1.083a.404.404 0 0 0 .204.351.413.413 0 0 0 .405.002l.939-.545.947-.538a.412.412 0 0 0 .203-.353.41.41 0 0 0-.203-.353l-.89-.546-.939-.538a.402.402 0 0 0-.61.345l-.056 1.092z" fill="#002B5C"/><path d="M270.247 335.222c3.379-15.008 9.566-30.016 10.433-35.248.859-5.417-.321-16.982-3.619-19.077-2.32 1.228-3.957 4.382-4.936 6.822-2.657 6.629-7.953 19.197-11.34 33.707-1.076 4.631-1.999 8.828-2.785 13.772l12.247.024z" fill="#0172D0"/><path d="M328.849 335.222c0-1.338-.024-2.675-.072-4.013-.466-23.547-1.373-47.455-2.994-49.846-1.541-2.272-6.163-5.153-10.601-7.761l-1.662-.963-.393-.233-1.445-.802a57.818 57.818 0 0 1-5.104-3.211v.65s-2.407 3.427-5.128 3.211c-2.48-.233-3.836-3.299-4.157-3.853a48.323 48.323 0 0 1-4.735 2.874l-1.485.802-.482.265-.377.209c-5.513 3.025-12.166 6.669-13.948 9.301-1.404 2.071-2.119 20.2-2.472 40.248 0 1.645-.048 3.307-.072 4.968v2.777c0 1.813-.04 3.627-.056 5.425l55.183-.048z" fill="#0172D0"/><path d="M284.147 283.192s-9.478-11.059-2.849-18.876c6.629-7.816 22.295-7.126 27.455-6.332 5.161.795 20.256 9.783 9.462 22.544-10.794 12.76-34.068 2.664-34.068 2.664z" fill="#0172D0"/><path d="M286.065 325.558a37.33 37.33 0 0 0 18.194 7.56.491.491 0 0 0 .526-.288.503.503 0 0 0 .044-.209.5.5 0 0 0-.434-.474 36.502 36.502 0 0 1-17.72-7.367.494.494 0 0 0-.525-.065.489.489 0 0 0-.277.45.466.466 0 0 0 .049.22.47.47 0 0 0 .143.173zm2.055-6.355c0 .079.022.157.064.224.257.45.546.915.883 1.389a19.843 19.843 0 0 0 11.404 7.72c.04.008.081.008.12 0a.452.452 0 0 0 .482-.391.452.452 0 0 0-.369-.499 18.77 18.77 0 0 1-11.734-8.716.455.455 0 0 0-.535-.205.455.455 0 0 0-.315.478zm19.774-38.651a34.088 34.088 0 0 1-10.096 6.853.46.46 0 0 0-.064.809.473.473 0 0 0 .434.042 33.774 33.774 0 0 0 6.42-3.659 34.85 34.85 0 0 0 4.013-3.395.44.44 0 0 0 .136-.321.46.46 0 0 0-.843-.329z" fill="#0056C5"/><path d="M294.676 322.902a.408.408 0 0 1-.401-.393c-.425-19.261 0-38.755 0-38.956a.402.402 0 0 1 .554-.354.385.385 0 0 1 .241.37c0 .201-.426 19.687 0 38.924a.408.408 0 0 1-.112.286.397.397 0 0 1-.282.123zm15.145 0a.397.397 0 0 1-.394-.409c.426-19.261 0-38.723 0-38.924a.403.403 0 0 1 .113-.283.373.373 0 0 1 .128-.087.402.402 0 0 1 .554.354c0 .201.425 19.703 0 38.956a.407.407 0 0 1-.401.393z" fill="#fff"/><path d="M316 244.55c0 8.442-5.192 14.261-13.643 14.261s-14.326-6.26-14.326-14.703 5-14.839 13.443-14.839c10.128 0 14.526 6.838 14.526 15.281z" fill="#18315B"/><path d="M289.131 250.095a6.538 6.538 0 0 1-4.181-4.518c-1.068-3.684 1.412-1.814 1.837-5.016.426-3.202-3.162-5.618 0-7.127 3.162-1.508 1.252-4.879 4.013-6.613 2.761-1.733 6.862 1.461 9.526-1.204 2.665-2.664 8.074-2.006 9.631 0 1.557 2.007 2.207 1.517 5.08 2.047 2.873.53 4.198 5.209 2.801 7.359-1.396 2.151-.425 3.604.915 4.936 1.34 1.332.409 10.497-4.197 9.213-4.607-1.284-25.425.923-25.425.923z" fill="#18315B"/><path d="M314.106 248.185s2.344-3.13 4.093-.545c1.75 2.584-.722 10.232-5 8.362l.907-7.817z" fill="#F97853"/><path d="M314.138 253.642a.368.368 0 0 0 .345-.265 5.564 5.564 0 0 1 3.13-3.322.362.362 0 0 0 .011-.657.358.358 0 0 0-.267-.017 6.215 6.215 0 0 0-3.572 3.804.36.36 0 0 0 .249.441.247.247 0 0 0 .104.016z" fill="#EA5143"/><path d="M316.61 252.455a.364.364 0 0 0 .305-.554 3.208 3.208 0 0 0-1.356-1.091.359.359 0 0 0-.274-.012.367.367 0 0 0-.2.188.363.363 0 0 0 .177.482c.409.176.768.452 1.043.802a.358.358 0 0 0 .305.185z" fill="#EA5143"/><path d="M289.925 248.185s-2.343-3.13-4.085-.545c-1.741 2.584.723 10.232 4.992 8.362l-.907-7.817z" fill="#F97853"/><path d="M289.901 253.642a.367.367 0 0 1-.353-.265 5.565 5.565 0 0 0-3.13-3.322.362.362 0 0 1 .257-.674 6.215 6.215 0 0 1 3.572 3.804.348.348 0 0 1-.032.273.356.356 0 0 1-.217.168.203.203 0 0 1-.097.016z" fill="#EA5143"/><path d="M287.429 252.454a.35.35 0 0 1-.317-.186.356.356 0 0 1 .02-.367 3.211 3.211 0 0 1 1.349-1.092.367.367 0 0 1 .281-.015.366.366 0 0 1 .238.331.36.36 0 0 1-.222.342 2.752 2.752 0 0 0-1.044.803.355.355 0 0 1-.126.135.352.352 0 0 1-.179.049z" fill="#EA5143"/><path d="M296.241 262.486v7.592s2.264 3.869 5.329 4.133c3.066.265 5.787-3.33 5.787-3.33v-7.865l-11.116-.53z" fill="#FFA681"/><path d="M296.241 262.486v3.371c2.055 2.279 5.707 2.849 11.116 2.054v-4.895l-11.116-.53z" fill="#F97853"/><path d="M315.358 247.944a44.706 44.706 0 0 1-.618 5c-1.011 5.618-3.306 11.107-8.25 12.841-11.195 4.013-15.2-5.618-16.797-11.236a23.069 23.069 0 0 1-.474-2.054c-.257-1.333-.449-2.817-.602-4.318-.184-1.822-.305-3.66-.385-5.273a7.91 7.91 0 0 1 5.064-7.761c4.591-1.765 11.565-3.162 18.17.586a7.945 7.945 0 0 1 4.013 6.75c.04 1.597.024 3.459-.121 5.465z" fill="#FFA681"/><path d="M306.819 249.172c0 .803.418 1.469.931 1.469.514 0 .931-.65.931-1.469 0-.818-.417-1.469-.931-1.469-.513 0-.931.659-.931 1.469zm-11.003-.024c0 .803.417 1.469.931 1.469s.931-.658.931-1.469c0-.81-.417-1.468-.931-1.468s-.931.658-.931 1.468zm15.634-4.093s-3.572-1.413-6.324-.225l.272 1.533s4.013-.345 6.076.481c.2-.581.192-1.214-.024-1.789zm-17.785 0s3.58-1.413 6.332-.225l-.24 1.509s-4.013-.345-6.084.481a2.64 2.64 0 0 1-.008-1.765z" fill="#18315B"/><path d="M301.891 254.862a3.772 3.772 0 0 1-1.308-.281.342.342 0 0 1-.193-.465.365.365 0 0 1 .466-.201c.454.212.967.26 1.453.137a.4.4 0 0 0 .176-.337c.129-1.26-.217-5.482-.217-5.53a.361.361 0 0 1 .592-.302.353.353 0 0 1 .123.246c.172 1.883.245 3.775.216 5.666a1.08 1.08 0 0 1-.521.875c-.24.135-.512.202-.787.192z" fill="#F97853"/><path d="M306.819 257.502c-.297 1.485-1.276 4.214-4.583 4.214-3.306 0-4.237-2.496-4.558-4.214h9.141z" fill="#fff"/><path d="M288.617 248.266h1.605c-.176-1.606-.433-4.535.915-4.952 4.262-1.308-1.26-4.318.658-5.819 1.918-1.5 6.718-.858 10.04-.971 3.323-.112 8.74-.056 10.048.241 1.308.297.586 2.48.112 4.165-.473 1.686 1.606 3.539 1.951 5.289a7.544 7.544 0 0 1 0 2.047h1.364c.161-2.119.185-4.102.161-5.699a7.935 7.935 0 0 0-4.013-6.749c-6.605-3.748-13.579-2.351-18.17-.586a7.908 7.908 0 0 0-5.064 7.761c.088 1.597.209 3.435.393 5.273z" fill="#18315B"/><path d="M326.241 283.192s19.831 16.404 27.367 23.274a47.354 47.354 0 0 0 9.823-8.716c4.968-6.003 6.541-7.608 8.539-10.08l6.533 3.403s-14.446 29.59-24.943 27.768c-10.434-1.797-27.592-19.357-27.592-19.357l.273-16.292z" fill="#0172D0"/><path d="M386.689 276.17c-.65 0-1.983 1.87-3.13 3.748l-.209-.112c1.276-2.697 3.307-7.4 1.87-7.312-.939.056-2.801 4.013-3.852 6.421l-.402-.145c1.212-2.905 3.395-8.611 1.774-8.427-1.083.121-3.05 5.113-4.013 7.705l-.321-.088c.923-2.504 2.52-7.36.907-7.175-1.46.16-3.523 7.785-3.523 7.785l-1.124 2.752s-.995-.256-1.139-2.471c-.145-2.216-1.364-3.532-1.87-.875-.57 3.001-.145 5.802-.61 7.873a4.417 4.417 0 0 0 .409 2.704 5.614 5.614 0 0 0 1.91 2.255 5.082 5.082 0 0 0 6.878-.987c1.926-2.407 4.141-5.617 4.735-8.266 1.373-2.367 2.849-5.337 1.71-5.385z" fill="#FFA681"/></g><path d="M557 120.857H403c-5.523 0-10 4.477-10 10v187c0 5.523 4.477 10 10 10h154c5.523 0 10-4.477 10-10v-187c0-5.523-4.477-10-10-10z" fill="#FFF9FF"/><path d="M567 125.073v7.784H393v-7.784c0-1.384.377-2.71 1.049-3.688.671-.978 1.582-1.528 2.532-1.528h166.838c.95 0 1.861.55 2.532 1.528.672.978 1.049 2.304 1.049 3.688z" fill="#DADAEF"/><path d="M420.226 126.127c0 .29.117.568.325.774.209.206.492.323.789.326h112.385c.297-.003.581-.119.791-.325.211-.206.33-.484.332-.775a1.092 1.092 0 0 0-.693-1.016 1.155 1.155 0 0 0-.43-.084H421.34a1.142 1.142 0 0 0-.792.323 1.09 1.09 0 0 0-.322.777z" fill="#FFF9FF"/><path d="M407.414 126.127v.81a.299.299 0 0 1-.156.268.309.309 0 0 1-.314-.008l-.715-.4-.726-.41a.306.306 0 0 1-.111-.417.316.316 0 0 1 .111-.113l.726-.4.715-.41a.309.309 0 0 1 .43.106c.027.047.041.1.04.154v.82zm3.75 0v.81c0 .053.014.105.041.15a.301.301 0 0 0 .265.15.301.301 0 0 0 .153-.04l.726-.4.715-.41a.311.311 0 0 0 .152-.265.314.314 0 0 0-.04-.152.327.327 0 0 0-.112-.113l-.715-.4-.726-.41a.312.312 0 0 0-.418.11.297.297 0 0 0-.041.15v.82z" fill="#2E3062"/><path d="M549.285 127.637c.92 0 1.665-.73 1.665-1.63 0-.9-.745-1.63-1.665-1.63s-1.665.73-1.665 1.63c0 .9.745 1.63 1.665 1.63z" fill="#6B5EFD"/><path d="M543.134 127.637c.92 0 1.666-.73 1.666-1.63 0-.9-.746-1.63-1.666-1.63-.919 0-1.665.73-1.665 1.63 0 .9.746 1.63 1.665 1.63z" fill="#FDA803"/><path d="M555.435 127.637c.92 0 1.666-.73 1.666-1.63 0-.9-.746-1.63-1.666-1.63-.919 0-1.665.73-1.665 1.63 0 .9.746 1.63 1.665 1.63z" fill="#FF495A"/><path d="M446.641 310.575c1.769-2.12 3.493-4.332 5.138-6.71-1.974-15.54-4.821-43.838-3.403-68.725 2.268-39.432-8.132-46.547-14.109-37.975-19.406 27.873 11.569 113.373 11.569 113.373l.805.037z" fill="#6B5EFD"/><path d="M448.569 308.178l.873-1.124c-4.181-17.759-7.071-36.252-8.608-55.102a431.079 431.079 0 0 1-1.668-31.947c0-.244-.059-.479-.166-.652-.106-.173-.25-.27-.401-.27-.15 0-.294.097-.401.27a1.275 1.275 0 0 0-.166.652c.163 10.767.72 21.509 1.667 32.169 1.585 19.172 4.562 37.971 8.87 56.004z" fill="#5731DD"/><path d="M452.89 328.291c0-2.507 0-5.015-.159-7.522-8.778-6.913-24.328-20.462-35.579-37.496-17.841-27.007-27.685-17.863-27.13-4.94 1.225 28.776 30.034 43.524 48.067 49.958h14.801z" fill="#6B5EFD"/><path d="M452.89 327.553v-1.843c-11.226-5.385-22.022-12.903-32.165-22.398-5.746-5.217-11.298-10.978-16.628-17.255a.49.49 0 0 0-.187-.149.34.34 0 0 0-.208-.021.418.418 0 0 0-.197.111.72.72 0 0 0-.156.225 1.334 1.334 0 0 0-.095.645c.021.227.096.432.208.571 5.348 6.345 10.927 12.156 16.707 17.403 10.316 9.647 21.3 17.271 32.721 22.711z" fill="#5731DD"/><path d="M455.816 328.291l1.804-1.088s-21.958-46.677-31.644-97.483c-10.434-54.806-26.823-54.862-31.871-37.976-14.154 47.396 36.771 118.222 50.823 136.547h10.888z" fill="#6B5EFD"/><path d="M451.926 328.29h2.2c-14.222-22.6-25.439-49.773-32.562-69.222-4.899-13.3-9.303-27.065-13.191-41.22-.095-.271-.248-.475-.43-.574a.51.51 0 0 0-.557.037c-.176.123-.319.347-.4.63a2 2 0 0 0-.042.902c3.916 14.217 8.347 28.042 13.27 41.405 7.009 19.227 17.886 45.626 31.712 68.042z" fill="#5731DD"/><path d="M478.498 110.307s-24.315-2.446-30.866 33.47c-6.551 35.916-10.871 58.401-9.398 77.511 1.473 19.109 64.051 14.003 73.835 4.391 9.783-9.612-.887-73.663-3.29-90.698-2.403-17.036-20.597-26.362-30.281-24.674z" fill="#18315B"/><path d="M439.965 282.507c.114 2.188.214 4.391.286 6.594a189.969 189.969 0 0 1-3.018 38.891h84.39a189.969 189.969 0 0 1-3.018-38.891c.158-4.706.401-9.355.701-13.889 1.073-16.334 2.861-31.196 4.019-42.453 1.159-11.256 1.788-19.152.387-20.911a26.474 26.474 0 0 0-5.693-4.763 137.174 137.174 0 0 0-13.102-7.61l-2.632-1.43c-5.407-2.861-10.413-5.35-13.274-7.252a22.652 22.652 0 0 1-9.383 2.374h-.515a22.65 22.65 0 0 1-9.397-2.374c-3.032 2.017-8.582 4.82-14.518 7.91l-3.176 1.688c-2.96 1.573-5.907 3.204-8.582 4.82-1.115.686-2.188 1.43-3.175 2.045a27.22 27.22 0 0 0-5.822 4.949c-2.86 3.562 2.933 31.039 5.121 64.652.2 1.874.315 3.762.401 5.65z" fill="#FA5F2D"/><path d="M509.995 322.943c-17.808-.072-33.013-8.182-42.625-14.962a97.645 97.645 0 0 1-16.749-14.847.835.835 0 0 1-.203-.621.847.847 0 0 1 .303-.58.859.859 0 0 1 1.201.1 96.436 96.436 0 0 0 16.478 14.575c9.412 6.623 24.316 14.547 41.595 14.618a.861.861 0 0 1 .858.859.858.858 0 0 1-.858.858zm-11.787-10.413c-15.161-2.975-28.607-14.589-29.193-15.119a.858.858 0 0 1 1.13-1.287c.157.143 15.948 13.789 32.04 15.262a.841.841 0 0 1 .741.597.858.858 0 0 1-.899 1.105 34.653 34.653 0 0 1-3.819-.558zm-22.442-78.426a.84.84 0 0 1-.844-.701.875.875 0 0 1 .687-1.001c21.698-4.105 28.249-18.08 28.307-18.223a.86.86 0 0 1 1.559.715c-.272.601-6.98 14.919-29.551 19.196l-.158.014z" fill="#D33E2F"/><path d="M502.285 198.059c-5.164 8.697-14.103 17.608-25.575 15.62-10.556-1.817-17.021-8.582-21.455-14.962 5.907-3.089 11.443-5.893 14.518-7.909a22.653 22.653 0 0 0 9.397 2.374h.515a22.648 22.648 0 0 0 9.383-2.374c2.847 1.973 7.853 4.434 13.217 7.251z" fill="#FFA681"/><path d="M493.445 191.537a.667.667 0 0 0-.484.192.667.667 0 0 0-.202.48c0 .544-.229 13.546-11.886 14.547-10.814.944-15.291-9.412-16.678-13.703a.616.616 0 0 0-.572-.429h-.129a.601.601 0 0 0-.587.801c1.431 4.434 6.194 15.133 17.165 14.747h.872c12.873-1.116 13.131-15.734 13.131-15.906a.655.655 0 0 0-.369-.665.656.656 0 0 0-.261-.064z" fill="#fff"/><path d="M457.944 151.973s-5.321-6.05-8.239-1.817c-2.918 4.234 1.216 17.322 8.282 14.304l-.043-12.487z" fill="#FFA681"/><path d="M456.271 160.097a.598.598 0 0 1-.572-.443 9.191 9.191 0 0 0-5.107-5.521.601.601 0 0 1-.343-.773.6.6 0 0 1 .772-.329 10.228 10.228 0 0 1 5.822 6.308.6.6 0 0 1-.415.73l-.157.028z" fill="#F97853"/><path d="M452.223 158.095a.655.655 0 0 1-.329-.086.614.614 0 0 1-.172-.829 5.536 5.536 0 0 1 2.26-1.774.576.576 0 0 1 .644.11.563.563 0 0 1 .128.191.6.6 0 0 1-.3.786 4.153 4.153 0 0 0-1.731 1.345.569.569 0 0 1-.5.257z" fill="#F97853"/><path d="M500.182 151.973s5.321-6.05 8.239-1.817c2.918 4.234-1.216 17.322-8.281 14.304l.042-12.487z" fill="#FFA681"/><path d="M501.813 160.097a.598.598 0 0 0 .572-.443 9.191 9.191 0 0 1 5.107-5.521.601.601 0 0 0 .343-.773.6.6 0 0 0-.772-.329 10.228 10.228 0 0 0-5.822 6.308.6.6 0 0 0 .415.73l.157.028z" fill="#F97853"/><path d="M505.861 158.095a.655.655 0 0 0 .329-.086.617.617 0 0 0 .171-.829 5.523 5.523 0 0 0-2.26-1.774.575.575 0 0 0-.45-.015.566.566 0 0 0-.322.316.6.6 0 0 0 .3.786c.687.285 1.285.75 1.731 1.345a.572.572 0 0 0 .501.257z" fill="#F97853"/><path d="M489.14 177.362v13.445s-4.019 6.851-9.44 7.323c-5.421.472-10.227-5.907-10.227-5.907v-13.917l19.667-.944z" fill="#FFA681"/><path d="M489.14 177.362v5.964c-3.647 4.048-10.112 5.479-19.667 4.063v-9.083l19.667-.944z" fill="#F97853"/><path d="M503.315 142.833a131.415 131.415 0 0 1-1.745 17.05c-.258 1.302-.529 2.532-.844 3.633-2.861 9.912-9.912 26.905-29.723 19.825-8.753-3.133-12.873-12.873-14.618-22.786a96.033 96.033 0 0 1-1.33-18.408 14.04 14.04 0 0 1 7.152-11.944c11.7-6.637 24.044-4.162 32.168-1.03a13.977 13.977 0 0 1 8.94 13.66z" fill="#FFA681"/><path d="M468.529 155.449c.916 0 1.659-1.166 1.659-2.604 0-1.437-.743-2.603-1.659-2.603-.917 0-1.659 1.166-1.659 2.603 0 1.438.742 2.604 1.659 2.604zm20.411 0c.916 0 1.659-1.166 1.659-2.604 0-1.437-.743-2.603-1.659-2.603s-1.659 1.166-1.659 2.603c0 1.438.743 2.604 1.659 2.604zm-23.687-10.341a27.33 27.33 0 0 1 7.081-1.059 1.21 1.21 0 0 1 1.192.899 1.21 1.21 0 0 1-.42 1.266c-.231.184-.52.279-.815.267a30.71 30.71 0 0 0-9.684 1.187 1.809 1.809 0 0 1 .558-1.316 4.168 4.168 0 0 1 2.088-1.244zm26.705.042a27.979 27.979 0 0 0-7.066-1.058 1.242 1.242 0 0 0-.943.433 1.25 1.25 0 0 0-.287.997 1.216 1.216 0 0 0 1.258 1.016c3.27-.119 6.538.277 9.684 1.173a1.875 1.875 0 0 0-.572-1.302 4.21 4.21 0 0 0-2.074-1.259z" fill="#18315B"/><path d="M479.128 164.704a2.743 2.743 0 0 1-1.431-.329 2.012 2.012 0 0 1-.929-1.559c-.05-3.342.079-6.685.386-10.013a.643.643 0 0 1 1.273.1c0 .086-.615 7.552-.386 9.784a.737.737 0 0 0 .314.601c.856.213 1.76.128 2.561-.244a.646.646 0 0 1 .739.111.638.638 0 0 1 .196.479.636.636 0 0 1-.219.468.64.64 0 0 1-.23.13 7.036 7.036 0 0 1-2.274.472z" fill="#F97853"/><path d="M471.018 168.737c.486 2.431 2.088 6.894 7.495 6.894 5.406 0 6.951-4.076 7.466-6.894h-14.961z" fill="#fff"/><path d="M478.441 179.365a6.569 6.569 0 0 1-3.004-.873.645.645 0 0 1 .195-1.169.623.623 0 0 1 .478.082 5.312 5.312 0 0 0 2.331.687 5.187 5.187 0 0 0 2.446-.701.66.66 0 0 1 .887.228.645.645 0 0 1-.215.873 6.772 6.772 0 0 1-3.118.873z" fill="#F97853"/><path d="M505.889 141.789a2.148 2.148 0 0 1-1.544 1.173 39.635 39.635 0 0 1-.229 4.735c-.787 9.225-2.947 12.658-3.977 12.401-1.344-.344.859-10.757 1.202-16.893-1.817-.114-4.42-.415-4.42-.415l-2.131-8.968-.758 8.854c-3.204 1.116-10.699-.672-10.699-.672l-2.503-8.84-1.559 8.582c-4.821 2.346-10.828.787-10.828.787l-1.431-9.169-3.204 9.169a45.65 45.65 0 0 1-7.852 1.588c-.358 4.033 1.516 12.415 1.13 15.662-.529 4.291-2.689.386-3.891-9.469a38.999 38.999 0 0 1 .229-8.053c.1-1.044.2-1.759.215-1.916.472-2.861 1.616-7.152 2.617-10.642a19.365 19.365 0 0 1 9.326-11.858c12.759-6.837 26.247-3.204 30.867-.443 9.841 5.75 9.44 24.387 9.44 24.387z" fill="#18315B"/><path d="M453.653 140.259c0 .157-.114.872-.214 1.916.021-.643.093-1.284.214-1.916z" fill="#18315B"/><path d="M533.967 278.945c-4.291 12.144-23.229 11.257-44.855 4.62h-.287l-2.975-.944-1.244-.415a229.265 229.265 0 0 1-7.023-2.517 240.148 240.148 0 0 1-22.886-10.127v-.129l2.217-5.721.758-1.96s40.05 4.291 60.247.158l1.001-.229c-.086-.444-.114-.901-.229-1.33-10.685-36.36 1.001-43.326 4.906-48.403.143-.1 18.38 44.083 10.37 66.997z" fill="#FA5F2D"/><path d="M527.43 267.703a.82.82 0 0 1-.371.085.88.88 0 0 1-.773-.486c-1.516-3.132-6.708-4.992-8.296-5.492l1.001-.229a44.053 44.053 0 0 1-.228-1.331c2.016.673 7.309 2.718 9.068 6.308a.87.87 0 0 1-.401 1.145zm-56.141-1.531c-8.181 0-14.832-.472-15.404-.515a.867.867 0 0 1-.843-.56.859.859 0 0 1 .957-1.142c.3 0 30.381 2.145 42.238-2.661a.862.862 0 0 1 1.074 1.124.857.857 0 0 1-.43.464c-6.608 2.661-18.051 3.29-27.592 3.29zm14.561 16.363c6.866-1.902 13.102-3.747 16.693-4.892 5.006-1.602 9.139-6.665 11.028-10.956a.86.86 0 0 1 .814-.611.856.856 0 0 1 .825.597.856.856 0 0 1-.08.701c-2.031 4.648-6.551 10.126-12.058 11.9-2.618.83-6.608 2.031-11.228 3.347a10.422 10.422 0 0 1-5.994-.086z" fill="#D33E2F"/><path d="M504.345 276.657c-61.963 20.854-81.03 7.151-81.03 7.151-4.162-37.718 11.2-71.646 11.2-71.646a171.496 171.496 0 0 1 9.683 20.669l1.359 28.907-.1.801v.386l-.257 1.974.4.086c18.738 3.948 53.009-.472 53.009-.472l5.736 12.144z" fill="#FA5F2D"/><path d="M445.543 264.985a60.596 60.596 0 0 0-9.354 9.741.883.883 0 0 1-1.431-1.03 62.126 62.126 0 0 1 10.57-10.799l-.257 1.974.472.114z" fill="#D33E2F"/><path d="M498.552 264.513s6.865-15.576 17.293-14.189l3.146 11.257c-5.721 2.432-6.551 12.215-14.646 15.076l-5.793-12.144zm-40.808-2.86a24.815 24.815 0 0 0-15.734-13.117c-11.443-2.96-18.666 2.418-19.424 4.449-.758 2.031 4.291.086 4.291.086a9.854 9.854 0 0 0-5.192 4.033c-1.888 3.104 4.606-.243 4.606-.243s-4.649 2.045-5.25 3.933c-.601 1.889 5.55-1.301 6.709-1.244 0 0-5.493 2.174-5.45 4.134.043 1.959 6.308-1.23 10.985-.973a72.91 72.91 0 0 1 11.858 2.189 79.123 79.123 0 0 0 10.799 1.43l1.802-4.677z" fill="#FBAB7F"/><path d="M423.669 353.462h-92.574v34.266h92.574v-34.266zm39.366 34.266H291.748v13.108h171.287v-13.108z" fill="#3B467E"/><path d="M100.016 311.372h173.522l-41.196-22.051 41.196-23.636H100.016a22.903 22.903 0 0 0-22.885 22.905 22.886 22.886 0 0 0 22.885 22.782z" fill="url(#paint0_linear)"/><path d="M83.228 288.488c.003.748.058 1.495.163 2.235 0 .427.122.834.183 1.26a17.236 17.236 0 0 0 2.54 6.098c.268.434.567.848.895 1.239a17.54 17.54 0 0 0 13.84 6.727h163.259v-35.18H100.849a17.498 17.498 0 0 0-13.495 6.301 17.618 17.618 0 0 0-3.353 6.097c-.122.406-.224.833-.326 1.239a17.743 17.743 0 0 0-.447 3.984z" fill="#E8E8E8"/><path d="M87.354 277.168H264.17v-1.321H88.492a15.9 15.9 0 0 0-1.138 1.321z" fill="#9CC6EA"/><path d="M83.676 284.565h180.432v-1.24H84.001c-.122.407-.224.833-.325 1.24z" fill="url(#paint1_linear)"/><path d="M83.391 290.723c0 .427.122.834.183 1.26H264.11v-1.26H83.391z" fill="url(#paint2_linear)"/><path d="M86.114 298.203c.268.434.567.848.894 1.24h177.1v-1.24H86.114z" fill="url(#paint3_linear)"/><path d="M101.479 290.154l4.573-4.309 4.085 4.309v-13.475h-8.658v13.475z" fill="url(#paint4_linear)"/><path d="M74.123 356.308h173.523l-41.196-22.051 41.196-23.718H74.123a22.883 22.883 0 1 0 0 45.769z" fill="url(#paint5_linear)"/><path d="M57.336 333.423c.003.754.057 1.508.163 2.256 0 .406.101.812.183 1.239a17.096 17.096 0 0 0 2.54 6.097c.273.438.571.859.894 1.26.433.546.895 1.068 1.382 1.565a17.513 17.513 0 0 0 12.459 5.142h163.259v-35.18H74.956a17.497 17.497 0 0 0-12.356 5.061c-.401.4-.781.82-1.138 1.26a17.21 17.21 0 0 0-3.354 6.097c-.134.406-.242.82-.325 1.24a17.981 17.981 0 0 0-.447 3.963z" fill="#E8E8E8"/><path style="mix-blend-mode:multiply" d="M61.462 322.124h176.815v-1.26H62.6c-.401.399-.78.82-1.138 1.26z" fill="url(#paint6_linear)"/><path style="mix-blend-mode:multiply" d="M57.783 329.501h180.433v-1.24H58.108c-.134.406-.242.82-.325 1.24z" fill="url(#paint7_linear)"/><path style="mix-blend-mode:multiply" d="M57.498 335.679c0 .407.102.813.183 1.24h180.535v-1.24H57.498z" fill="url(#paint8_linear)"/><path style="mix-blend-mode:multiply" d="M60.222 343.056c.273.438.571.859.894 1.26h177.1v-1.26H60.222z" fill="url(#paint9_linear)"/><path d="M75.566 335.09l4.593-4.309 4.086 4.309v-13.455h-8.679v13.455z" fill="url(#paint10_linear)"/><path d="M117.372 400.837h173.482l-41.196-22.051 41.196-23.677H117.372a22.888 22.888 0 0 0-16.182 6.702 22.888 22.888 0 0 0-6.702 16.182 22.883 22.883 0 0 0 22.884 22.844z" fill="url(#paint11_linear)"/><path d="M100.585 377.952c.002.748.056 1.495.162 2.235 0 .427.102.834.183 1.261a17.111 17.111 0 0 0 2.541 6.097c.268.434.567.848.894 1.239a12.61 12.61 0 0 0 1.382 1.565 17.4 17.4 0 0 0 12.458 5.162h163.26v-35.18h-163.26a17.5 17.5 0 0 0-12.356 5.061c-.407.4-.794.821-1.159 1.26a17.497 17.497 0 0 0-3.333 6.097c-.142.407-.244.833-.345 1.24a19.272 19.272 0 0 0-.427 3.963z" fill="#E8E8E8"/><path style="mix-blend-mode:multiply" d="M104.69 366.652h176.816v-1.26H105.91c-.428.398-.835.819-1.22 1.26z" fill="url(#paint12_linear)"/><path style="mix-blend-mode:multiply" d="M101.012 374.03h180.453v-1.24H101.357c-.142.406-.244.833-.345 1.24z" fill="url(#paint13_linear)"/><path style="mix-blend-mode:multiply" d="M100.747 380.188c0 .426.102.833.183 1.26h180.535v-1.26H100.747z" fill="url(#paint14_linear)"/><path style="mix-blend-mode:multiply" d="M103.471 387.627c.268.434.567.848.894 1.239h177.1v-1.239H103.471z" fill="url(#paint15_linear)"/><path d="M118.815 379.619l4.593-4.309 4.085 4.309v-13.454h-8.678v13.454z" fill="url(#paint16_linear)"/><path d="M134.505 175.977a17.044 17.044 0 0 1 7.601 1.626c4.41 3.881 12.458 13.413 12.092 21.421-.447 9.796-4.064 11.442-4.064 18.433s2.52 20.954 2.52 22.742c0 1.789-28.697 1.037-29.287.305-.589-.732.326-52.211 2.033-57.251 1.707-5.041 3.434-6.199 9.105-7.276z" stroke="#D5BB95" stroke-width=".88" stroke-miterlimit="10"/><path d="M127.005 251.824a7.957 7.957 0 0 0 1.248 6.25 7.95 7.95 0 0 0 5.439 3.322c4.958.642 9.983.56 14.917-.244 15.832-2.337 34.652-.772 37.538-6.706 2.886-5.935-5.813-12.865-21.299-13.556-14.003-.63-31.339-3.496-34.246.467a33.748 33.748 0 0 0-3.597 10.467z" stroke="#D5BB95" stroke-width=".87" stroke-miterlimit="10"/><path d="M132.33 245.849a7.942 7.942 0 0 0 .937 9.163 7.979 7.979 0 0 0 2.599 1.954 51.49 51.49 0 0 0 14.329 4.186c15.791 2.48 33.29 9.573 37.822 4.776 4.532-4.796-1.728-14.023-16.259-19.287-13.17-4.755-28.86-12.661-32.823-9.735a33.597 33.597 0 0 0-6.605 8.943v0z" stroke="#D5BB95" stroke-width=".87" stroke-miterlimit="10"/><path d="M126.375 179.757c-1.788-4.37-1.768-9.329-2.032-13.983a37.03 37.03 0 0 1 1.463-14.47c2.236-6.504 6.89-11.889 14.085-12.499a11.87 11.87 0 0 1 6.097.874 9.347 9.347 0 0 1 4.308 4.064c1.057 2.033 1.281 4.472 2.297 6.565a40.756 40.756 0 0 1 2.5 5.609 20.631 20.631 0 0 0 2.032 5.081 17.24 17.24 0 0 0 4.065 4.065c2.215 1.666 5.06 3.536 4.715 6.727-.163 1.565-1.077 2.927-1.382 4.471a12.194 12.194 0 0 0 .731 5.244 9.378 9.378 0 0 1-2.581 8.576 10.624 10.624 0 0 1-3.498 2.273 10.63 10.63 0 0 1-4.103.755c-1.677.102-3.36.021-5.02-.243a6.41 6.41 0 0 1-2.309-.975 6.401 6.401 0 0 1-1.755-1.789l-9.126-10.975-2.195-2.622c-.331-.522-.727-1-1.178-1.423-.773-.528-.265-.487-1.118-.121a31.256 31.256 0 0 0-5.996 4.796z" fill="url(#paint17_linear)"/><path d="M142.898 169.066h-7.052v10.406h7.052v-10.406z" fill="#ED8082"/><path d="M143.874 170.468s6.686.59 7.58-1.565c.895-2.154 1.342-13.677-3.577-18.88-4.918-5.203-13.677-3.943-16.787.813-3.109 4.755 3.496 19.551 7.357 19.714 1.809.112 3.623.085 5.427-.082z" fill="#F7CCCF"/><path d="M137.167 156.216a.149.149 0 0 1-.152-.158c-.038-.105 0-.263.076-.368 1.257-.892 2.704-.262 2.78-.21.115.053.153.21.115.315-.038.105-.153.211-.229.158 0 0-1.371-.578-2.475.21-.077 0-.077.053-.115.053zm8.544-.159c-.088-.004-.173-.052-.169-.139-.04-.09.01-.219.102-.302 1.476-.677 3.113-.075 3.198-.027.129.049.167.183.119.268-.047.085-.183.167-.268.119 0 0-1.551-.554-2.849.043-.088-.004-.09.04-.133.038z" fill="#040962"/><path d="M148.218 166.411c-.099.005-.196.064-.191.173-.045.111.013.272.117.376 1.68.851 3.535.11 3.631.051.134-.037.19-.319.134-.299-.056.021.097-.363 0-.304 0 0-2.063.801-3.54.051-.099.004-.102-.05-.151-.048z" fill="#EC5271"/><path d="M146.034 159.557c-.141.822.172 1.558.699 1.649.528.092 1.068-.511 1.227-1.333.16-.821-.178-1.564-.699-1.649-.522-.085-1.123.505-1.227 1.333z" fill="#2E3062"/><path d="M186.33 247.942c-10.162-8.983-21.746 39.265-21.95 52.15-.203 12.885 5.955.651 13.719-18.291 7.763-18.942 12.214-30.343 8.231-33.859z" fill="#F7CCCF"/><path d="M168.181 302.917a24.73 24.73 0 0 0 2.825 5.061c2.032 3.008 2.947 2.784 2.764 3.597-.183.813-11.564-3.658-11.564-3.658l2.296-6.423c1.255.397 2.484.872 3.679 1.423z" fill="#1B2733"/><path d="M186.208 257.779c-13.272-2.744.752 44.874 6.991 56.133 6.239 11.26 5.487-2.398 2.744-22.762-2.744-20.364-4.512-32.294-9.735-33.371z" fill="#F7CCCF"/><path d="M197.915 314.462a24.225 24.225 0 0 0 4.959 2.967c3.312 1.585 4.064.955 4.207 1.748.142.792-11.747 2.601-11.747 2.601l-1.22-6.707a31.07 31.07 0 0 1 3.801-.609z" fill="#1D262F"/><path d="M156.414 239.711h32.274l13.779-29.571a2.039 2.039 0 0 0 .073-1.57 2.04 2.04 0 0 0-1.842-1.34 2.039 2.039 0 0 0-1.463.539c-.197.182-.355.4-.467.644l-12.682 27.213h-29.672a2.032 2.032 0 1 0 0 4.065v.02z" fill="url(#paint18_linear)"/><path d="M135.44 174.005s-10.06.894-12.194 12.824c0 0-2.195 53.166-1.504 54.528.691 1.362 31.704 1.362 32.375-.223.671-1.586-4.593-20.832-2.886-27.458 1.707-6.625 4.065-12.194 4.065-17.925-.041-4.756-7.784-20.364-19.856-21.746z" fill="#BAB7F6"/><path d="M154.117 241.134s30.058 7.702 35.16 14.836c5.101 7.133 10.365 52.841 10.365 52.841l-8.658 1.87c-5.61-11.727-12.398-39.062-15.304-40.098-2.906-1.037-31.298-6.89-31.298-6.89l-.447-16.544 10.182-6.015z" fill="url(#paint19_linear)"/><path d="M154.28 240.341c12.072-1.524 33.046-2.602 34.977 4.796 3.211 12.194-18.149 54.996-18.149 54.996l-7.317-2.561c2.378-20.202 8.13-36.582 7.317-37.863-.813-1.28-21.523 7.459-38.961 5.427-17.437-2.033-9.613-23.434-9.613-23.434l31.746-1.361z" fill="url(#paint20_linear)"/><path d="M138.773 184.532a5.147 5.147 0 0 0-4.797 2.439c-4.695 7.276-19.978 31.908-14.816 35.668 6.097 4.43 18.291-18.291 21.015-25.201 2.317-5.833 3.252-12.337-1.402-12.906z" fill="#F7CCCF"/><path d="M120.787 217.355a5.381 5.381 0 0 1 4.958-1.321c8.902 1.768 41.074 8.454 42.009 12.336 1.098 4.491-45.667-3.028-46.744-5.264-.874-1.727-2.276-3.699-.223-5.751z" fill="#F7CCCF"/><path d="M163.202 227.293c.508-2.764 5.203-1.362 6.788-.813 2.581.894 4.918 3.862 4.593 4.898-.325 1.037-6.097-1.341-6.361-1.158-.264.183 2.418 1.585 2.032 2.52-.386.935-4.207-.488-5.508-1.646a3.62 3.62 0 0 1-1.544-3.801z" fill="#F7CCCF"/><path d="M126.884 178.902s-.712-10.161 3.881-13.251c4.593-3.089 15.304-7.987 18.292-15.405 0 0-.59-9.938-8.374-9.308-7.784.63-14.226 11.564-14.47 16.056-.244 4.491.671 21.908.671 21.908z" fill="url(#paint21_linear)"/><path d="M628.225 326.208c-10.284-7.967-7.54 50.667-4.512 65.605 3.029 14.938 4.898-.671 6.382-24.531s2.073-37.924-1.87-41.074zm21.95 0c10.304-7.967 7.54 50.667 4.512 65.605-3.028 14.938-4.898-.671-6.361-24.531-1.464-23.86-2.195-37.924 1.849-41.074z" fill="#F7CCCF"/><path d="M623.226 391.304a10.169 10.169 0 0 1-1.138 5.162c-1.911 3.252-1.911 2.602-1.464 3.781.448 1.178 8.13.183 8.13.183l-.691-9.187c-1.612-.1-3.229-.08-4.837.061zm31.99 0a10.158 10.158 0 0 0 1.138 5.162c1.91 3.252 1.91 2.602 1.463 3.781-.447 1.178-8.13.183-8.13.183l.691-9.187c1.612-.1 3.229-.08 4.838.061z" fill="#122B45"/><path d="M637.005 277.31v4.634h4.858v-4.472l21.055-.528-1.098 25.608-5.771 84.891h-6.545l-9.735-89.037a.573.573 0 0 0-.166-.403.573.573 0 0 0-.805 0 .57.57 0 0 0-.167.403l-9.552 89.22h-6.646l-5.324-85.359-1.098-25.608 20.994.651z" fill="url(#paint22_linear)"/><path d="M635.217 281.943h9.105c0-7.032-.162-15.162-.183-23.596h-8.759c-.021 8.353-.061 16.503-.163 23.596zm0-87.391s0 11.239.143 26.421h8.8c0-15.243.122-26.421.122-26.421s-6.219.915-8.983-.162h-.143l.061.162z" fill="#F8FAFB"/><path d="M653.285 248.471a36.13 36.13 0 0 1 5.771-1.829h.143l-2.52-7.378-4.065-.366v.976h-.407c0 3.089.143 6.097.204 8.881.303-.054.597-.15.874-.284z" fill="#F7CCCF"/><path d="M649.138 239.711c-.487-.528-4.064-1.544-3.902 4.065.204 4.918 5.081 5.426 7.276 4.959 0-2.723-.142-5.792-.203-8.881-.854.101-2.784.284-3.171-.143zm-22.945-.915v9.654c1.403.792 7.825.935 8.13-4.695.305-5.63-3.414-4.593-3.902-4.065-.488.529-3.577 0-3.577 0l-.488-.996-.163.102z" fill="#F7CCCF"/><path d="M622.759 239.264l-2.46 7.398h.143c1.97.444 3.9 1.049 5.772 1.809v-9.654l-3.476.386.021.061z" fill="#F7CCCF"/><path d="M626.193 248.45v9.816h26.604s-.122-4.064-.244-9.532c-2.195.468-7.072 0-7.276-4.958-.223-5.61 3.415-4.594 3.902-4.065.488.528 2.317.244 3.171.142-.183-9.45-.346-18.982-.102-18.982h-25.892l-.122 17.681.488.996s3.069.468 3.577 0c.508-.467 4.065-1.544 3.902 4.065-.163 5.609-6.646 5.487-8.129 4.695l.121.142z" fill="url(#paint23_linear)"/><path d="M632.839 162.298c.796.21 1.616.32 2.439.325 6.382.163 12.316 3.049 13.068 8.516.732 5.142.427 6.097.386 6.219-.04.122 4.268-3.109 4.939.244.671 3.353-5.02 4.41-5.02 4.41l-.142 5.081c14.45-5.934 12.011-25.852 1.199-32.396-8.556-5.182-16.097 0-18.82 2.337a2.703 2.703 0 0 0-.752 3.232 4.07 4.07 0 0 0 2.703 2.032z" fill="#272425"/><path d="M633.144 188.922l9.125-3.759c-4.532.528-7.275.121-9.023-1.22l-.102 4.979z" fill="#ED8082"/><path d="M633.002 188.922v1.565l2.154 3.902h.142c2.764 1.077 8.699.203 8.983.163l4.207-4.472v-2.926l.143-5.081s5.711-.976 5.02-4.41c-.691-3.435-4.756-.366-4.939-.244-.183.122.345-1.077-.386-6.219-.752-5.467-6.687-8.353-13.068-8.516a9.84 9.84 0 0 1-2.439-.325c-.163.529-3.516 12.662-2.215 17.214a7.88 7.88 0 0 0 2.621 4.451c1.748 1.341 4.492 1.748 9.024 1.219l-9.125 3.76h-.143l.021-.081z" fill="#F7CCCF"/><path d="M642.424 168.506a1.185 1.185 0 0 1 .802 2.041 1.192 1.192 0 0 1-1.298.234 1.195 1.195 0 0 1-.525-.447 1.199 1.199 0 0 1-.089-1.116 1.185 1.185 0 0 1 1.11-.712zm-8.419 1.011c-.015.165.003.331.055.488a1.183 1.183 0 0 0 1.127.813 1.19 1.19 0 0 0 1.182-1.301 1.2 1.2 0 0 0-.701-1.2 1.19 1.19 0 0 0-1.663 1.2zm10.408-1.861a.26.26 0 0 1-.187-.088 2.847 2.847 0 0 0-2.869-.648.25.25 0 0 1-.207-.006.257.257 0 0 1-.134-.159.278.278 0 0 1 .165-.352 3.296 3.296 0 0 1 3.429.781.271.271 0 0 1 0 .395.256.256 0 0 1-.197.077zm-10.218-1.913a.248.248 0 0 1-.12-.07.246.246 0 0 1-.061-.124.263.263 0 0 1 .193-.332 3.839 3.839 0 0 1 3.533.926.253.253 0 0 1 .009.383.27.27 0 0 1-.084.066.272.272 0 0 1-.21.011.272.272 0 0 1-.091-.058 3.3 3.3 0 0 0-3.022-.792.348.348 0 0 1-.147-.01z" fill="#293267"/><path d="M637.979 175.29a.73.73 0 0 1-.219 0 .987.987 0 0 1-.66-.593 2.017 2.017 0 0 1 0-1.253l.758-3.023a.279.279 0 0 1 .33-.198.271.271 0 0 1 .17.122.266.266 0 0 1 .028.208l-.758 3.023a1.597 1.597 0 0 0-.055.923.456.456 0 0 0 .296.253.17.17 0 0 0 .176 0 .278.278 0 1 1 .341.439.725.725 0 0 1-.407.099zm-.762 4.396a5.127 5.127 0 0 1-3-1.47.285.285 0 0 1 .141-.433.276.276 0 0 1 .107-.009c.035.005.07.016.101.034a.29.29 0 0 1 .08.072 4.57 4.57 0 0 0 6.134.267.248.248 0 0 1 .202-.065.236.236 0 0 1 .102.036.243.243 0 0 1 .078.075.267.267 0 0 1-.046.382 5.169 5.169 0 0 1-3.465 1.186l-.434-.075z" fill="#E16C7A"/><path d="M644.139 258.266c0 8.435 0 16.523.162 23.555a89.106 89.106 0 0 0 17.601-2.764 2.92 2.92 0 0 0 1.72-1.238 2.923 2.923 0 0 0 .434-2.074c-1.179-7.297-2.378-14.512-3.089-18.881-.386-2.439-.691-5.833-.935-9.654l-.589.102-.244-.732h-.143c-1.97.445-3.9 1.05-5.771 1.809a2.064 2.064 0 0 1-.773.285c.122 5.467.244 9.531.244 9.531l-8.617.061z" fill="#706CC7"/><path d="M652.207 220.85c-.223 0 0 9.573.102 19.003h.406v-.996l4.065.406 2.48 7.398.244.732.589-.102c3.435-.61 20.608-3.861 21.157-9.349.63-6.097-11.686-38.899-14.897-42.557-3.211-3.659-17.804-5.284-17.804-5.284l-4.186 4.471s0 11.178-.122 26.42l7.966-.142zm7.093-5.934s8.821 13.86 8.353 17.376c-.284 2.236-4.877 4.228-8.027 5.386-.387-11.401-.326-22.803-.326-22.803v.041zm-60.97 22.967c.569 5.507 17.803 8.759 21.177 9.348l.549.102.243-.732 2.48-7.418 3.496-.406.121-17.682h8.963c0-15.263-.162-26.42-.162-26.42v-.122l-2.195-4.065s-16.605 1.199-19.796 4.837c-3.19 3.638-15.466 36.481-14.876 42.558zm13.515-5.589c-.447-3.516 8.393-17.377 8.393-17.377s.001 11.361-.345 22.762c-3.17-1.158-7.743-3.15-8.048-5.385z" fill="#706CC7"/><path d="M617.617 278.772a84.734 84.734 0 0 0 17.6 3.029c0-7.012.143-15.142.163-23.515h-9.186v-9.816a37.032 37.032 0 0 0-5.772-1.809h-.142l-.183.732-.57-.102c-.243 3.821-.548 7.215-.934 9.654-.691 4.308-1.87 11.361-3.049 18.576a2.945 2.945 0 0 0 2.073 3.251z" fill="#706CC7"/><path d="M683.878 128.327a.71.71 0 0 1 .06.401.765.765 0 0 1-.453.64l-8.81 3.997a.778.778 0 0 1-.792-.076.802.802 0 0 1-.323-.717l.945-9.642a.794.794 0 0 1 1.246-.564l7.871 5.637a.836.836 0 0 1 .256.324zm-8.619 3.042l6.333-2.872-5.655-4.048-.678 6.92z" fill="#FF867E"/><path d="M439.877 45.468l-.935 3.19-3.213-.91a.778.778 0 0 0-1.01.579.786.786 0 0 0 .283.875.782.782 0 0 0 .295.135l3.205.919-.919 3.205a.79.79 0 0 0 .528 1.033.79.79 0 0 0 .991-.603l.918-3.205 3.205.918a.777.777 0 0 0 .835-.262.786.786 0 0 0 .14-.274.786.786 0 0 0-.068-.633.784.784 0 0 0-.51-.378l-3.205-.919.918-3.204a.8.8 0 0 0-.019-.645.785.785 0 0 0-.492-.416.794.794 0 0 0-1 .622l.053-.027z" fill="#FFD054"/><path d="M553.028 190.101h-82.473a13.93 13.93 0 0 0-9.844 4.077 13.93 13.93 0 0 0-4.077 9.844v182.913a13.92 13.92 0 0 0 13.921 13.921h82.473c3.693 0 7.234-1.467 9.845-4.077a13.925 13.925 0 0 0 4.077-9.844V204.022a13.926 13.926 0 0 0-8.594-12.862 13.932 13.932 0 0 0-5.328-1.059z" fill="#3B467E"/><path d="M562.723 205.283v180.311a10.888 10.888 0 0 1-3.135 7.719 10.862 10.862 0 0 1-7.677 3.235h-80.177a10.872 10.872 0 0 1-10.812-10.954V205.283a10.88 10.88 0 0 1 3.133-7.727 10.911 10.911 0 0 1 3.516-2.388 10.907 10.907 0 0 1 4.163-.86h80.278a10.89 10.89 0 0 1 10.711 10.975z" fill="#EAEAFB"/><path d="M558 209.741v80.241c.009.637-.231 1.267-.706 1.857-.476.589-1.177 1.126-2.065 1.579-.888.453-1.945.813-3.109 1.06a18.075 18.075 0 0 1-3.679.379h-70.882a18.075 18.075 0 0 1-3.679-.379c-1.164-.247-2.221-.607-3.109-1.06-.888-.453-1.589-.99-2.065-1.579-.475-.59-.715-1.22-.706-1.857v-80.241c-.009-.636.23-1.268.706-1.858.475-.59 1.176-1.127 2.064-1.58.888-.454 1.944-.815 3.109-1.063a18.147 18.147 0 0 1 3.68-.383h70.972c2.538.022 4.957.547 6.731 1.462 1.773.914 2.757 2.144 2.738 3.422z" fill="#FFF9FF"/><mask id="b" maskUnits="userSpaceOnUse" x="468" y="198" width="90" height="97"><path d="M558 204.067v85.59c.009.679-.231 1.352-.706 1.981-.476.629-1.177 1.201-2.065 1.684-.888.483-1.945.867-3.109 1.13a16.943 16.943 0 0 1-3.679.405h-70.882a16.943 16.943 0 0 1-3.679-.405c-1.164-.263-2.221-.647-3.109-1.13-.888-.483-1.589-1.055-2.065-1.684-.475-.629-.715-1.302-.706-1.981v-85.59c-.009-.679.23-1.353.706-1.982.475-.629 1.176-1.202 2.064-1.686.888-.484 1.944-.869 3.109-1.133a17.007 17.007 0 0 1 3.68-.409h70.972c2.538.023 4.957.583 6.731 1.559 1.773.976 2.757 2.288 2.738 3.651z" fill="#FFF9FF"/></mask><g mask="url(#b)"><path d="M489.77 290.081c-1 7.56-10.89 32.06-13.33 53.21-.44 4.12-1.17 9.12-1.81 13.12h-6.23a4.409 4.409 0 0 1-4.4-4.4v-23.54c.66-4.06 1.43-7.84 2.28-11.9 3.72-17.66 9.8-33 12.85-41.08 1.12-3 3-6.43 5.76-8 4.03 2.47 5.78 16.02 4.88 22.59zm74.07 64.33a4.439 4.439 0 0 1-3.72 2h-8.68c-.64-4.06-1.5-9-2-13.14-2.44-21.15-12.31-45.65-13.33-53.21-.91-6.57.85-20.12 4.89-22.57 2.78 1.55 4.64 5 5.76 8 3.05 8.08 9.13 23.42 12.85 41.08a203.195 203.195 0 0 1 3.81 23.65c.36 3.32.44 8.94.42 14.19z" fill="#D33E2F"/><path d="M547.28 356.41v-4.52c0-4.13-.11-8.41-.18-12.76l-.12-6.51v-3.09c0-.95 0-1.89-.05-2.83-.05-.94-.05-2.07-.07-3.1v-2.8c0-1 0-2.07-.08-3.1-.63-24.19-1.69-45.72-3.4-48.23-1.23-1.81-4.07-3.95-7.4-6.1l-1.24-.78c-1.43-.89-13-4.83-14.49-5.69l-12.25-.86c-.07.05-11.79 4-11.86 4l-1.52.87c-4.34 2.5-8.62 5.13-11.08 7.41-.352.314-.686.648-1 1a7.033 7.033 0 0 0-.57.74 3.667 3.667 0 0 0-.43 1.07c-1.41 5.15-2.19 24.73-2.59 46.57l-.06 3v15.93c-.07 6.83-.11 13.53-.13 19.76l68.52.02z" fill="#FA5F2D"/><path d="M517.11 282.69a.615.615 0 0 0 .62-.51.642.642 0 0 0-.5-.75c-16.13-3.06-21-13.44-21-13.54a.653.653 0 0 0-.85-.32.642.642 0 0 0-.33.356.634.634 0 0 0 .02.484c.2.46 5.19 11.09 22 14.27l.04.01z" fill="#D33E2F"/><path d="M495.72 218.85s-1.2-7.35.58-9.85c1.78-2.5 4.69-1.75 7.8-4.62 3.11-2.87 12.57-.13 16.71-.88 2.28-.41 4.71-.1 6.94-.56 3.19-.64 4.9 2.53 4.13 5.65-.49 2-1.49 5-4.36 5.75 0 0-27.52-5.02-31.8 4.51z" fill="#18315B"/><path d="M495.09 224.71c0 10.64 6.55 18 17.19 18s18-7.88 18-18.52-6.29-18.69-16.93-18.69c-12.72-.03-18.26 8.58-18.26 19.21z" fill="#18315B"/><path d="M497.48 229.291s-3-3.94-5.15-.68c-2.15 3.26.91 12.88 6.29 10.53l-1.14-9.85z" fill="#F97853"/><path d="M497.44 236.171a.464.464 0 0 1-.44-.33 6.993 6.993 0 0 0-3.94-4.19.461.461 0 0 1-.26-.59.45.45 0 0 1 .58-.26 7.795 7.795 0 0 1 4.5 4.79.455.455 0 0 1-.038.344.463.463 0 0 1-.272.216l-.13.02z" fill="#EA5143"/><path d="M494.34 234.67a.445.445 0 0 1-.25-.07.47.47 0 0 1-.14-.63 4.291 4.291 0 0 1 1.71-1.37.462.462 0 0 1 .346-.015.44.44 0 0 1 .15.093c.044.04.079.088.104.142a.471.471 0 0 1-.23.61 3.283 3.283 0 0 0-1.31 1 .456.456 0 0 1-.38.24z" fill="#EA5143"/><path d="M527.94 229.291s2.95-3.94 5.15-.68-.91 12.88-6.29 10.53l1.14-9.85z" fill="#F97853"/><path d="M528 236.17a.457.457 0 0 0 .44-.33 7.012 7.012 0 0 1 3.94-4.19.451.451 0 0 0 .265-.585.454.454 0 0 0-.585-.265 7.827 7.827 0 0 0-4.49 4.79.454.454 0 0 0 .31.56l.12.02z" fill="#EA5143"/><path d="M531.08 234.67a.454.454 0 0 0 .448-.357.445.445 0 0 0 0-.178.435.435 0 0 0-.068-.165 4.137 4.137 0 0 0-1.7-1.37.462.462 0 0 0-.346-.015.44.44 0 0 0-.15.093.442.442 0 0 0-.104.142.468.468 0 0 0 .22.61c.517.218.97.562 1.32 1a.423.423 0 0 0 .38.24z" fill="#EA5143"/><path d="M520 247.301v9.57s-2.85 4.88-6.71 5.21c-3.86.33-7.28-4.2-7.28-4.2v-9.9l13.99-.68z" fill="#FFA681"/><path d="M520 247.301v4.25c-2.59 2.87-7.19 3.59-14 2.59v-6.16l14-.68z" fill="#F97853"/><path d="M495.91 229.11c0 .56.09 1.12.14 1.68.15 1.43.34 2.89.6 4.35.005.05.005.1 0 .15 1.29 7.06 4.18 14 10.41 16.22 14.1 5 19.14-7.06 21.15-14.11.22-.78.43-1.66.6-2.58v-.12c.2-1.05.37-2.16.51-3.3.11-.85.2-1.71.28-2.58.21-2.11.34-4.22.43-6.09a9.938 9.938 0 0 0-6.38-9.77c-5.78-2.23-14.56-4-22.89.73a10.001 10.001 0 0 0-5.07 8.5c.01 1.95.04 4.35.22 6.92z" fill="#FFA681"/><path d="M495.91 229.111c0 .56.09 1.12.14 1.68.15 1.43.34 2.89.6 4.35.005.05.005.1 0 .15 1.29 7.06 4.18 14 10.41 16.22 14.1 5 19.14-7.06 21.15-14.11.22-.78.43-1.66.6-2.58v-.12c.2-1.05.37-2.16.51-3.3.11-.85.2-1.71.28-2.58l-2.11.55c-.6 3.19-1.51 7.85-2.69 10-1.85-4.51-12.13-.78-12.13-.78s-9.17-3.26-12.27 0a84.547 84.547 0 0 1-2.79-9.21l-1.7-.27zm16.5 11.16c7.4-1 9.24.88 9.59 3.07a12.805 12.805 0 0 1-6.31 3.79c-2.54.57-7.68.52-11.43-2.44-.38-1.7-.81-6.68 8.15-4.42z" fill="#18315B"/><path d="M506.74 229.85c0 1-.53 1.85-1.18 1.85-.65 0-1.17-.82-1.17-1.85 0-1.03.52-1.85 1.17-1.85.65 0 1.18.83 1.18 1.85zm14.07 0c0 1-.52 1.85-1.17 1.85-.65 0-1.18-.82-1.18-1.85 0-1.03.53-1.85 1.18-1.85.65 0 1.17.83 1.17 1.85zm2.75-6.09s-3.71-1.47-6.56-.24l.28 1.59s4.2-.35 6.31.5c.21-.6.199-1.256-.03-1.85zm-22 0s3.71-1.47 6.57-.24l-.29 1.59s-4.19-.35-6.3.5a2.728 2.728 0 0 1 .02-1.85z" fill="#18315B"/><path d="M513.17 237.871a4.876 4.876 0 0 1-1.68-.14.462.462 0 0 1-.266-.546.458.458 0 0 1 .506-.334 2.678 2.678 0 0 0 1.83-.05.484.484 0 0 0 .17-.45 69.634 69.634 0 0 0-1.11-6.87.445.445 0 0 1 .061-.344.445.445 0 0 1 .289-.196.456.456 0 0 1 .341.065.456.456 0 0 1 .199.285 69.093 69.093 0 0 1 1.13 7.05 1.344 1.344 0 0 1-.52 1.18 1.89 1.89 0 0 1-.95.35z" fill="#F97853"/><path d="M507 240.6c.37 1.87 1.61 5.31 5.77 5.31 4.16 0 5.34-3.14 5.74-5.31H507z" fill="#fff"/><path d="M529.59 229.41h-2.06a14.868 14.868 0 0 0-1.14-6.23c-1.41-3.78 1.58-5.44-.84-7.34-2.42-1.9-8.45-1.08-12.65-1.22-4.2-.14-11-.07-12.65.31-1.65.38-.74 3.12-.14 5.24s-2 4.47-2.46 6.66a9.526 9.526 0 0 0 0 2.58h-1.72c-.2-2.67-.23-5.16-.2-7.18a10.004 10.004 0 0 1 5.07-8.5c8.33-4.72 17.11-3 22.89-.73a9.942 9.942 0 0 1 6.38 9.77c-.07 1.99-.25 4.31-.48 6.64z" fill="#18315B"/><path d="M515 230.77a5.42 5.42 0 1 1 10.84.003 5.42 5.42 0 0 1-10.84-.003zm.85 0a4.57 4.57 0 1 0 4.57-4.57 4.573 4.573 0 0 0-3.261 1.324 4.595 4.595 0 0 0-1.359 3.246h.05zm-15.71 0a5.42 5.42 0 1 1 10.84.003 5.42 5.42 0 0 1-10.84-.003zm.85 0a4.57 4.57 0 1 0 4.57-4.57 4.582 4.582 0 0 0-4.56 4.57h-.01z" fill="#fff"/><path d="M524.87 229.02a.435.435 0 0 0 .3-.12 6.657 6.657 0 0 1 5.71-1.66.417.417 0 0 0 .454-.63.436.436 0 0 0-.264-.19 7.403 7.403 0 0 0-6.5 1.88.432.432 0 0 0 0 .6c.04.039.086.07.138.09a.406.406 0 0 0 .162.03zm-23.87.001a.398.398 0 0 0 .35-.19.418.418 0 0 0 .064-.316.399.399 0 0 0-.184-.264c-.16-.11-4-2.58-7.25-2a.421.421 0 0 0 .13.83c2.94-.48 6.62 1.89 6.66 1.92a.462.462 0 0 0 .23.02zm9.68.529a3.432 3.432 0 0 1 2.33-1.37c.447.054.877.205 1.261.441.383.237.71.554.959.929l.71-.46a3.922 3.922 0 0 0-2.93-1.75 4.208 4.208 0 0 0-3 1.72l.67.49z" fill="#fff"/></g><path d="M558 304.741v80.241c.009.637-.231 1.267-.706 1.857-.476.589-1.177 1.126-2.065 1.579-.888.453-1.945.813-3.109 1.06a18.075 18.075 0 0 1-3.679.379h-70.882a18.075 18.075 0 0 1-3.679-.379c-1.164-.247-2.221-.607-3.109-1.06-.888-.453-1.589-.99-2.065-1.579-.475-.59-.715-1.22-.706-1.857v-80.241c-.009-.636.23-1.268.706-1.858.475-.59 1.176-1.127 2.064-1.58.888-.454 1.944-.815 3.109-1.063a18.147 18.147 0 0 1 3.68-.383h70.972c2.538.022 4.957.547 6.731 1.462 1.773.914 2.757 2.144 2.738 3.422z" fill="#FFF9FF"/><mask id="c" maskUnits="userSpaceOnUse" x="468" y="295" width="90" height="95"><path d="M558 300.958v83.808c.009.664-.231 1.323-.706 1.939-.476.615-1.177 1.176-2.065 1.649-.888.473-1.945.849-3.109 1.107a17.325 17.325 0 0 1-3.679.396h-70.882a17.325 17.325 0 0 1-3.679-.396c-1.164-.258-2.221-.634-3.109-1.107-.888-.473-1.589-1.034-2.065-1.649-.475-.616-.715-1.275-.706-1.939v-83.808c-.009-.665.23-1.324.706-1.94.475-.616 1.176-1.177 2.064-1.651.888-.474 1.944-.851 3.109-1.11a17.391 17.391 0 0 1 3.68-.4h70.972c2.538.023 4.957.571 6.731 1.526 1.773.956 2.757 2.241 2.738 3.575z" fill="#FFF9FF"/></mask><g mask="url(#c)"><path d="M482.492 401.585l5.371-41.668s3.802-2.267 8.915 1.104c0 0-2.319 38.797-4.535 52.204-1.009 6.138-4.147 16.993-6.828 24.727H477c1.44-9.872 2.164-22.227 3.656-27.322a36.453 36.453 0 0 1 1.241-4.311l.595-4.734zm64.119 0l-3.5-39.875a96.843 96.843 0 0 1-10.82-.672s2.319 38.797 4.526 52.204c1.017 6.138 4.156 16.993 6.828 24.727h8.415c-1.431-9.872-2.155-22.227-3.647-27.322a36.398 36.398 0 0 0-1.241-4.311l-.561-4.751z" fill="#FFA681"/><path d="M515.866 310.127s.483-10.346-5.793-12.312c-9.786-3.086-12.502 1.983-14.01 5.337-1.94 4.311-1.113 12.717 4.724 13.536 8.699 1.216 14.536-3.673 15.079-6.561z" fill="#18315B"/><path d="M522.169 344.665a10.738 10.738 0 0 0 10.518-8.544c.75-3.578 1.483-6.75 1.483-8.535v-.043c.043-.569.069-1.13.069-1.681.069-8.157-4.957-23.038-22.623-20.692 0 0-14.657 1.672-16.381 16.001 0 0-.69 6.605-1.155 11.398v.25a10.736 10.736 0 0 0 6.331 10.897 10.73 10.73 0 0 0 4.359.923l17.399.026z" fill="#18315B"/><path d="M489.105 370.332c.164 1.121.345 2.302.534 3.569a319.34 319.34 0 0 0 1.871 10.846c.216 1.173.457 2.38.699 3.621a337.452 337.452 0 0 0 2.371 10.89c.284 1.198.577 2.405.862 3.647a188.206 188.206 0 0 0 1.94 7.492 41.073 41.073 0 0 1-.354 3.267c-.172 1.164-.327 2.242-.543 3.449-.319 1.793-.707 3.69-1.138 5.664a472.407 472.407 0 0 1-1.035 4.57 151.16 151.16 0 0 1-.802 3.388c-.56 2.371-1.146 4.785-1.724 7.199h46.324l-1.629-7.156-.759-3.371-1.112-4.845-1.224-5.371-.768-3.371-.388-1.725 1.966-9.104.785-3.604 2.379-10.95.785-3.638 2.379-11.07.794-3.656 1.793-8.363-4.673-1.638-7.018-2.474-.155-.052-3.915-1.379-.629-.216-5.371-1.586s-3.009 1.422-13.571-.793c0 0-2.319.422-5.423 1.146l-1.052.25c-2.362.569-5.043 1.293-7.466 2.13a23.383 23.383 0 0 0-5.682 2.586l-.327.233s.207 2.587.793 7.07c.172 1.017.31 2.147.483 3.345z" fill="#0172D0"/><path d="M527.385 356.149c-1.129 6.604-4.311 13.243-10.975 13.959-8.044.862-12.209-9.208-14.019-15.407 3.104-.724 6.32-1.431 6.32-1.431 10.561 2.215 12.596.862 12.596.862l5.423 1.802.655.215z" fill="#FFA681"/><path d="M515.591 364.564c-8.424 0-10.441-10.406-10.458-10.51a.402.402 0 0 1 .003-.162.403.403 0 0 1 .182-.261.413.413 0 0 1 .574.125c.03.046.05.098.06.152.077.413 1.983 10.233 10.13 9.811 7.121-.353 7.544-8.268 7.553-8.622a.43.43 0 1 1 .862 0c0 .095-.466 9.001-8.355 9.407l-.551.06z" fill="#fff"/><path d="M498.425 363.745a2.052 2.052 0 1 0 0-4.105 2.052 2.052 0 0 0 0 4.105zm-2.069 7.983a2.06 2.06 0 1 1-2.052-2.051 2.052 2.052 0 0 1 2.052 2.051zm13.13 4.742a2.053 2.053 0 0 1-1.268 1.911 2.055 2.055 0 0 1-2.813-1.502 2.062 2.062 0 0 1 2.029-2.461 2.06 2.06 0 0 1 2.052 2.052zm-9.156 5.613a2.063 2.063 0 0 1-.472 2.242 2.059 2.059 0 0 1-3.5-1.502 2.059 2.059 0 0 1 2.873-1.865c.501.215.896.619 1.099 1.125zm17.821 3.768a2.064 2.064 0 0 1-1.268 1.911 2.062 2.062 0 1 1 1.268-1.911zm13.122 4.311a2.052 2.052 0 0 1-1.272 1.903 2.062 2.062 0 0 1-2.245-.446 2.06 2.06 0 0 1 1.457-3.518 2.041 2.041 0 0 1 1.459.601 2.045 2.045 0 0 1 .601 1.46zm2.638-26.408a2.052 2.052 0 0 1-1.272 1.903 2.062 2.062 0 0 1-2.245-.446 2.06 2.06 0 0 1 1.457-3.518 2.06 2.06 0 0 1 1.459.601 2.045 2.045 0 0 1 .601 1.46zm-8.811 13.26a2.057 2.057 0 0 1-1.274 1.904 2.057 2.057 0 0 1-2.808-1.508 2.057 2.057 0 0 1 3.482-1.85c.384.386.6.909.6 1.454zm11.372-2.595a2.06 2.06 0 1 1-4.118-.002 2.06 2.06 0 0 1 4.118.002z" fill="#0056C5"/><path d="M528.17 328.526s2.517-3.199 4.397-.552c1.879 2.647-.776 10.458-5.372 8.544l.975-7.992z" fill="#F97853"/><path d="M528.195 334.121a.39.39 0 0 0 .38-.267c.707-2.406 3.336-3.389 3.362-3.397a.353.353 0 0 0 .224-.475.399.399 0 0 0-.5-.215 6.544 6.544 0 0 0-3.836 3.888.382.382 0 0 0 .037.285.365.365 0 0 0 .23.172l.103.009z" fill="#EA5143"/><path d="M530.851 332.897a.476.476 0 0 0 .215-.061.37.37 0 0 0 .113-.508 3.451 3.451 0 0 0-1.457-1.121.397.397 0 0 0-.518.19.343.343 0 0 0-.033.141.34.34 0 0 0 .108.264c.035.034.077.06.124.077.443.183.83.481 1.12.863a.402.402 0 0 0 .328.155z" fill="#EA5143"/><path d="M527.031 336.475a2.674 2.674 0 0 0-.707 1.819 2.743 2.743 0 0 0 5.475 0 2.749 2.749 0 0 0-2.138-2.673.494.494 0 0 1 .095-.517 3.275 3.275 0 0 1 2.052 5.009 3.278 3.278 0 0 1-3.73 1.317 3.275 3.275 0 0 1-2.279-3.234c.025-.714.282-1.4.732-1.954l.5.233z" fill="#fff"/><path d="M508.71 344.864v9.578s4.449 3.449 7.924 3.742c3.474.293 4.673-3.793 4.673-3.793v-8.924l-12.597-.603z" fill="#FFA681"/><path d="M508.71 345.803v3.837c2.328 2.586 6.467 3.509 12.597 2.586v-5.819l-12.597-.604z" fill="#F97853"/><path d="M529.687 332.172a46.11 46.11 0 0 1-.414 2.802c-1.095 6.225-5.044 12.933-10.018 14.088-10.743 2.44-15.209-6.035-16.924-12.225-.19-.69.163-1.483 0-2.302-.354-1.94-1.139-4.147-1.32-6.32-.12-1.509-.206-2.992-.275-4.311a8.798 8.798 0 0 1 5.448-8.621c4.941-1.966 12.441-3.527 19.546.646a8.846 8.846 0 0 1 4.31 7.51 66.498 66.498 0 0 1-.353 8.733z" fill="#FFA681"/><path d="M516.056 336.992a.426.426 0 0 1-.414-.354.42.42 0 0 1 .345-.474l1.431-.241-1.974-5.259a.432.432 0 0 1 .241-.543.433.433 0 0 1 .544.25l2.327 6.207-2.431.405-.069.009z" fill="#F97853"/><path d="M521.195 330.034c0 .914.474 1.664 1.06 1.664.586 0 1.06-.75 1.06-1.664 0-.914-.474-1.672-1.06-1.672-.586 0-1.06.75-1.06 1.672zm-11.708 0c0 .914.474 1.664 1.06 1.664.586 0 1.06-.75 1.06-1.664 0-.914-.474-1.672-1.06-1.672-.586 0-1.06.75-1.06 1.672zm15.88-4.371a20.213 20.213 0 0 0-4.405-.37c-.483 0-.862.379-.802.758a.671.671 0 0 0 .767.483 23.76 23.76 0 0 1 6.035.379.873.873 0 0 0-.09-.364.879.879 0 0 0-.237-.291 2.487 2.487 0 0 0-1.268-.595zm-17.019.199a20.497 20.497 0 0 1 4.398-.431c.482 0 .862.37.862.75a.694.694 0 0 1-.768.5 22.987 22.987 0 0 0-6.035.457.769.769 0 0 1 .311-.664 2.583 2.583 0 0 1 1.232-.612z" fill="#18315B"/><path d="M521.195 339.475c-.311 1.466-1.337 4.156-4.803 4.156-3.465 0-4.44-2.457-4.776-4.156h9.579z" fill="#fff"/><path d="M516.444 346.191a4.203 4.203 0 0 0 1.923-.56.412.412 0 0 0-.283-.755.393.393 0 0 0-.148.057 3.35 3.35 0 0 1-1.492.439 3.528 3.528 0 0 1-1.569-.439.406.406 0 0 0-.56.138.406.406 0 0 0-.047.308.4.4 0 0 0 .185.252 4.3 4.3 0 0 0 1.991.56z" fill="#F97853"/><path d="M530.118 331.19c-.103.086-.198.06-.285-.104-1.422-2.509-.086-7.501-4.31-9.415a8.88 8.88 0 0 1-4.354-4.448 9.067 9.067 0 0 1-2.638 2.396 76.03 76.03 0 0 1-9.846 4.803c-1.16.424-2.268.98-3.302 1.655h.086a7.532 7.532 0 0 0-.371 5.768c1.017 3.509-.293 9.303-2.586 10.639 0-.103 1.724-4.104.775-7.372-.551-1.87-.543-4.854-1.069-6.638-.577-.397-1.914-1.069-2.362-1.337a135.063 135.063 0 0 1-.293-4.422 8.966 8.966 0 0 1 5.742-8.795c5.173-2 13.113-3.586 20.606.664a9.016 9.016 0 0 1 4.569 7.648c.08 2.99-.041 5.983-.362 8.958z" fill="#18315B"/><path d="M502.279 328.5s-2.932-3.561-4.665-.992c-1.732 2.569.863 10.441 5.07 8.622l-.405-7.63z" fill="#FFA681"/><path d="M502.4 336.225a2.72 2.72 0 0 1-.57 3.245 2.713 2.713 0 0 1-3.281.307 2.713 2.713 0 0 1-1.162-3.083 2.715 2.715 0 0 1 2.667-1.935.6.6 0 0 0 0-.526 3.262 3.262 0 0 0-3.356 3.438 3.259 3.259 0 1 0 6.21-1.55l-.508.104z" fill="#fff"/><path d="M501.649 333.466a.352.352 0 0 1-.344-.268 5.563 5.563 0 0 0-3.113-3.293.364.364 0 0 1-.266-.331.354.354 0 0 1 .105-.274.361.361 0 0 1 .42-.068 6.181 6.181 0 0 1 3.543 3.777.363.363 0 0 1-.25.439l-.095.018z" fill="#F97853"/><path d="M499.201 332.285a.334.334 0 0 1-.198-.061.34.34 0 0 1-.155-.224.361.361 0 0 1 .051-.267c.345-.475.809-.85 1.345-1.087a.365.365 0 0 1 .433.2.36.36 0 0 1-.14.456c-.412.174-.77.457-1.034.819a.379.379 0 0 1-.302.164z" fill="#F97853"/></g><path d="M514.799 196.584h-10.71a.833.833 0 0 0 0 1.667h10.71a.837.837 0 0 0 .59-.244.837.837 0 0 0 0-1.179.837.837 0 0 0-.59-.244zm4.533 0a.933.933 0 0 0-.935.935.954.954 0 0 0 .935.935.937.937 0 0 0 .935-.935.928.928 0 0 0-.268-.667.917.917 0 0 0-.667-.268z" fill="#474246"/><path d="M89.665 146.373a.797.797 0 0 1-1.099-.208l-5.43-8.035a.776.776 0 0 1-.055-.787.782.782 0 0 1 .66-.433l9.66-.692a.779.779 0 0 1 .715.352.791.791 0 0 1 .055.78l-4.187 8.738a.794.794 0 0 1-.32.285zm-4.397-7.99l3.902 5.759 3.012-6.231-6.913.472z" fill="#6AE0F6"/><path d="M662.166.563H554.045a6.91 6.91 0 0 0-6.89 6.91v35.038a6.89 6.89 0 0 0 6.89 6.89h77.778l20.202 14.795a2.034 2.034 0 0 0 3.333-1.32V49.4h6.808a6.91 6.91 0 0 0 6.91-6.89V7.575a6.904 6.904 0 0 0-4.242-6.476 6.91 6.91 0 0 0-2.668-.536z" fill="#BAB7F6"/><path d="M656.109 10.34h-95.988v3.373h95.988v-3.374zm0 12.721h-95.988v3.374h95.988V23.06zm0 12.702h-95.988v3.374h95.988v-3.374z" fill="#fff"/><defs><linearGradient id="paint0_linear" x1="77.131" y1="288.488" x2="273.538" y2="288.488" gradientUnits="userSpaceOnUse"><stop stop-color="#314EC6"/><stop offset="1" stop-color="#66A8DE"/></linearGradient><linearGradient id="paint1_linear" x1="64689.4" y1="655.232" x2="80708.3" y2="655.232" gradientUnits="userSpaceOnUse"><stop stop-color="#9CC6EA"/><stop offset="1" stop-color="#fff"/></linearGradient><linearGradient id="paint2_linear" x1="64765.7" y1="673.313" x2="80835.1" y2="673.313" gradientUnits="userSpaceOnUse"><stop stop-color="#9CC6EA"/><stop offset="1" stop-color="#fff"/></linearGradient><linearGradient id="paint3_linear" x1="64032.2" y1="679.128" x2="79620.9" y2="679.128" gradientUnits="userSpaceOnUse"><stop stop-color="#9CC6EA"/><stop offset="1" stop-color="#fff"/></linearGradient><linearGradient id="paint4_linear" x1="3277.33" y1="4315.27" x2="3314.22" y2="4315.27" gradientUnits="userSpaceOnUse"><stop stop-color="#66A8DE"/><stop offset="1" stop-color="#4070B7"/></linearGradient><linearGradient id="paint5_linear" x1="51.239" y1="333.423" x2="247.646" y2="333.423" gradientUnits="userSpaceOnUse"><stop stop-color="#C648BD"/><stop offset="1" stop-color="#FF8ADB"/></linearGradient><linearGradient id="paint6_linear" x1="61439.3" y1="722.14" x2="76816.9" y2="722.14" gradientUnits="userSpaceOnUse"><stop stop-color="#BBD8F1"/><stop offset="1" stop-color="#fff"/></linearGradient><linearGradient id="paint7_linear" x1="62364.8" y1="727.571" x2="78383.7" y2="727.571" gradientUnits="userSpaceOnUse"><stop stop-color="#BBD8F1"/><stop offset="1" stop-color="#fff"/></linearGradient><linearGradient id="paint8_linear" x1="62437.5" y1="739.502" x2="78506.9" y2="739.502" gradientUnits="userSpaceOnUse"><stop stop-color="#BBD8F1"/><stop offset="1" stop-color="#fff"/></linearGradient><linearGradient id="paint9_linear" x1="61738.7" y1="758.092" x2="77327.4" y2="758.092" gradientUnits="userSpaceOnUse"><stop stop-color="#BBD8F1"/><stop offset="1" stop-color="#fff"/></linearGradient><linearGradient id="paint10_linear" x1="3148.24" y1="4651.74" x2="3185.29" y2="4651.74" gradientUnits="userSpaceOnUse"><stop stop-color="#985EF1"/><stop offset="1" stop-color="#FF8ADB"/></linearGradient><linearGradient id="paint11_linear" x1="71450.1" y1="16188" x2="90427" y2="16188" gradientUnits="userSpaceOnUse"><stop offset=".05" stop-color="#F7A42D"/><stop offset=".95" stop-color="#F7D641"/></linearGradient><linearGradient id="paint12_linear" x1="65243.4" y1="794.276" x2="80622.8" y2="794.276" gradientUnits="userSpaceOnUse"><stop stop-color="#BBD8F1"/><stop offset="1" stop-color="#fff"/></linearGradient><linearGradient id="paint13_linear" x1="66253.3" y1="799.262" x2="82275.7" y2="799.262" gradientUnits="userSpaceOnUse"><stop stop-color="#BBD8F1"/><stop offset="1" stop-color="#fff"/></linearGradient><linearGradient id="paint14_linear" x1="66326.4" y1="818.245" x2="82395.8" y2="818.245" gradientUnits="userSpaceOnUse"><stop stop-color="#BBD8F1"/><stop offset="1" stop-color="#fff"/></linearGradient><linearGradient id="paint15_linear" x1="65569.6" y1="823.124" x2="81158.4" y2="823.124" gradientUnits="userSpaceOnUse"><stop stop-color="#BBD8F1"/><stop offset="1" stop-color="#fff"/></linearGradient><linearGradient id="paint16_linear" x1="3376.16" y1="4991.05" x2="3413.21" y2="4991.05" gradientUnits="userSpaceOnUse"><stop stop-color="#66A8DE"/><stop offset="1" stop-color="#4070B7"/></linearGradient><linearGradient id="paint17_linear" x1="15910.6" y1="13307" x2="16765.5" y2="13307" gradientUnits="userSpaceOnUse"><stop stop-color="#212F47"/><stop offset="1" stop-color="#252A30"/></linearGradient><linearGradient id="paint18_linear" x1="19122.1" y1="8985.15" x2="20268.8" y2="8985.15" gradientUnits="userSpaceOnUse"><stop stop-color="#66A8DE"/><stop offset="1" stop-color="#4070B7"/></linearGradient><linearGradient id="paint19_linear" x1="23216.1" y1="21339.7" x2="22616.1" y2="20859.1" gradientUnits="userSpaceOnUse"><stop stop-color="#212F47"/><stop offset="1" stop-color="#252A30"/></linearGradient><linearGradient id="paint20_linear" x1="28212.5" y1="18169.9" x2="26187" y2="17547.5" gradientUnits="userSpaceOnUse"><stop stop-color="#212F47"/><stop offset="1" stop-color="#252A30"/></linearGradient><linearGradient id="paint21_linear" x1="8798.71" y1="9219.38" x2="9056.17" y2="9219.38" gradientUnits="userSpaceOnUse"><stop stop-color="#212F47"/><stop offset="1" stop-color="#252A30"/></linearGradient><linearGradient id="paint22_linear" x1="30239.1" y1="38757.7" x2="30239.1" y2="33367" gradientUnits="userSpaceOnUse"><stop stop-color="#212F47"/><stop offset="1" stop-color="#252A30"/></linearGradient><linearGradient id="paint23_linear" x1="17329" y1="10622.4" x2="17678.8" y2="10622.4" gradientUnits="userSpaceOnUse"><stop offset=".05" stop-color="#F7A42D"/><stop offset=".95" stop-color="#F7D641"/></linearGradient></defs></svg>