<svg width="199" height="204" fill="none" xmlns="http://www.w3.org/2000/svg"><path d="M15.757 203.538s-19.543-13.536-15.1-34.514c4.444-20.978 28.582-18.761 25.346-35.306-3.235-16.546-19.155-42.329-3.71-61.09 15.445-18.762 41.142-7.512 44.367-36.601C69.254 12.584 80.088-4.015 101.07.849c19.415 4.509 33.916 19.55 34.272 55.325.393 38.095 27.217 27.39 27.552 55.455.334 28.258-22.181 28.258-30.971 47.224-4.153 8.952 6.676 40.447-25.346 44.669l-90.82.016z" fill="#F2C3D7"/><path d="M97.755 16.11s.075.637.183 1.888c.34 3.775 1.025 12.889 1.025 25.621 0 37.26-5.867 105.311-42.954 159.628a1.92 1.92 0 0 0-.162.291h3.883c36.747-55.007 42.47-122.681 42.48-159.919 0-17.138-1.218-27.826-1.224-27.88a1.619 1.619 0 0 0-.605-1.09 1.636 1.636 0 0 0-1.199-.342 1.627 1.627 0 0 0-1.431 1.804" fill="#fff"/><path fill-rule="evenodd" clip-rule="evenodd" d="M55.847 203.538c-2.443-55.352 55.73-41.978 52.273-72.102-1.947-16.971 2.842-37.006 30.976-37.378 17.392-.226 10.861-18.567 28.534-22.223 10.742-2.222 17.823 8.99 19.193 20.002 1.569 12.538-5.533 24.86 2.61 35.053 10.564 13.234 14.857 37.906-7.852 44.927-22.709 7.022-2.47 28.523-33.392 31.699H55.848v.022z" fill="#D99EBE"/><path d="M166.448 84.125c-.593 16.481-7.9 39.939-20.412 62.319-12.511 22.381-30.199 43.747-51.301 56.328-.3.177-.534.446-.67.766h5.582c20.353-13.169 37.157-33.894 49.226-55.508 12.706-22.774 20.175-46.508 20.827-63.78a1.616 1.616 0 0 0-1.556-1.68 1.619 1.619 0 0 0-1.68 1.555" fill="#fff"/></svg>