<svg width="288" height="232" fill="none" xmlns="http://www.w3.org/2000/svg"><path d="M274.347 151.087c0-71.378-57.859-129.231-129.231-129.231-71.372 0-129.231 57.865-129.231 129.231a128.628 128.628 0 0 0 27.319 79.462h203.842a128.666 128.666 0 0 0 27.301-79.462z" fill="#F8E9F6"/><path d="M78.297 0H10.745C9.515 0 8.52 1.02 8.52 2.28v19.44c0 1.26.995 2.28 2.222 2.28h67.555c1.227 0 2.222-1.02 2.222-2.28V2.28c0-1.26-.995-2.28-2.222-2.28z" fill="#DD4C88"/><path d="M69.52 21v8.69a.32.32 0 0 1-.042.165.293.293 0 0 1-.12.115.271.271 0 0 1-.306-.04L58.52 21h11z" fill="#DD4C88"/><path d="M19.767 150.666a3.982 3.982 0 0 0-2.822-1.134 3.98 3.98 0 0 0-2.798 1.194l-1.01 1.034-1.04-1.028a3.975 3.975 0 0 0-5.577 5.663l3.864 3.81c.59.585 1.35.966 2.17 1.088a3.947 3.947 0 0 0 3.45-1.148l3.8-3.883a3.973 3.973 0 0 0-.037-5.596z" fill="#fff"/><path d="M270.506 126.118h-4.971v8.553h4.971v-8.553z" fill="#FAFAFA"/><path d="M93.014 47.215S91.32 59.52 76.785 67.201c-15.502 8.193-4.484 32.831 22.487 33.66 29.29.908 45.284-25.48 23.369-58.539l-29.627 4.893z" fill="#3A1616"/><path d="M102.091 85.546l.15-21.236h12.977l.277 21.482-13.404-.246z" fill="#D6906E"/><path d="M100.6 70.531c-.69-1.881 4.49 8.71 9.876 8.018 4.61-.6 5.41-8.895 5.41-8.895s-2.14 3.161-7.009 3.167c-5.452.006-8.277-2.29-8.277-2.29z" fill="#965B3F"/><path d="M92.864 52.595c1.653 9.467 7.153 17.43 15.983 17.43 8.83 0 14.895-7.88 15.983-17.43 1.232-10.82-7.159-17.251-15.983-17.251-8.824 0-17.678 7.525-15.983 17.25z" fill="#3A1616"/><path d="M95.034 57.53a2.85 2.85 0 0 0-3.522-.932c-2.375.902-1.305 6.666 2.26 7.4a2.789 2.789 0 0 0 2.272-.602s-.872-4.25-1.01-5.866z" fill="#D6906E"/><path d="M91.98 58.636s1.99-.668 3.396 2.26" stroke="#161311" stroke-width="1.02" stroke-linecap="round" stroke-linejoin="round"/><path d="M122.275 57.53a2.842 2.842 0 0 1 3.522-.932c2.374.901 1.298 6.666-2.26 7.4a2.799 2.799 0 0 1-2.278-.602s.889-4.25 1.016-5.867z" fill="#D6906E"/><path d="M125.341 58.636s-1.99-.668-3.403 2.26" stroke="#161311" stroke-width="1.02" stroke-linecap="round" stroke-linejoin="round"/><path d="M94.812 52.565c0 3.69.379 10.639 2.77 15.225 2.249 4.31 6.252 6.492 11.127 6.498 4.875.006 9.208-3.27 11.132-6.967 2.909-5.59 2.771-14.69 2.771-14.69s0-13.194-13.753-13.194c-14.48 0-14.047 13.128-14.047 13.128z" fill="#D6906E"/><path d="M105.614 51.928l-7.538 1.947s.343-2.116 3.426-2.88c3.084-.762 4.112.933 4.112.933zm4.795 0l7.544 1.947s-.349-2.116-3.432-2.88c-3.084-.762-4.112.933-4.112.933z" fill="#1A1A1A"/><path d="M107.578 58.173l-.343 2.692h1.96" stroke="#161311" stroke-width="1.02" stroke-linecap="round" stroke-linejoin="round"/><path d="M114.01 63.15h-10.97s.313 4.045 5.464 4.05c4.754.013 5.506-4.05 5.506-4.05z" fill="#fff"/><path d="M104.056 56.255s-2.086-1.058-3.853 0m15.851 0s-2.086-1.058-3.853 0" stroke="#161311" stroke-width="1.02" stroke-linecap="round" stroke-linejoin="round"/><path d="M122.275 57.53s-3.66-7.255-1.106-13.71c0 0 2.549.035 2.459 10.11l-1.353 3.6zm-27.241 0s3.649-7.712 1.106-13.71c0 0-2.548.035-2.458 10.11l1.352 3.6z" fill="#3A1616"/><path d="M124.95 49.427s-19.836-1.202-25.582-9.214c0 0 1.876-5.001 10.711-3.607 8.836 1.395 14.871 12.821 14.871 12.821z" fill="#3A1616"/><path d="M107.495 38.15s-5.614 11.656-13.633 11.265c0 0 4.406-11.15 13.633-11.264z" fill="#3A1616"/><path d="M96.02 218.612s5.878-29.194 9.34-37.152a.844.844 0 0 1 .338-.376.842.842 0 0 1 .961.081c.132.111.226.26.27.427.836 3.035 1.93 11.973 1.443 38.282v10.754h23.099l3.606-25.883c.187-1.983 7.598-34.423-11.035-59.434H87.905s-14.624 25.149-16.638 55.9c-.45 6.846-.6 17.299-1.538 29.411h23.724l2.567-12.01z" fill="#BAB7F6"/><path d="M93.782 145.999c-.045.091-3.321 7.882-10.1 9.584.127-.281.245-.552.38-.815 6.082-1.891 9.05-8.941 9.05-9.049l.67.28zm36.846 11.54c-7.711-.913-12.31-8.463-13.566-10.808-.221-.425-.336-.678-.347-.695l.619-.285s.16.348.445.867c1.316 2.404 5.507 9 12.331 10.142l.518.779zm-23.622 23.367l-.905-.19a54.057 54.057 0 0 1-4.761-13.72c-2.37-10.516 3.023-21.719 3.077-21.828l.616.299c-.055.108-5.349 11.104-3.032 21.385.1.434.199.859.299 1.267l.163.66a48.735 48.735 0 0 0 4.543 12.127z" fill="#8D8AD0"/><path d="M101.938 168.225h-.099l.045-.678a1.462 1.462 0 0 0 1.113-.561c.453-.507 1.412-2.136.634-6.127-1.041-5.358 2.923-14.742 3.095-15.14l.624.271c-.045.091-4.054 9.593-3.05 14.742.806 4.127-.153 5.973-.796 6.706a2.15 2.15 0 0 1-1.566.787z" fill="#8D8AD0"/><path d="M78.354 89.285S70.78 90.36 65.238 109.33l14.925 8.553 8.806-12.112-10.615-16.487z" fill="#EC2B73"/><path d="M80.164 117.883s-9.912 15.544-12.262 18.339c-2.404 2.891-6.119 4.322-9.323 2.32a6.683 6.683 0 0 1-2.482-8.547l10.278-20.088 13.789 7.976z" fill="#D6906E"/><path d="M56.23 89.309l11.864 38.613-12.652 5.506-7.61-43.542 8.397-.577z" fill="#D6906E"/><path d="M55.411 91.226l1.858-1.803a7.814 7.814 0 0 0 2.368-4.941l.475-5.242s.306-2.752-5.181-2.061c-5.488.691-5.813.727-5.747 2.35 0 0 1.004 2.26 4.538 2.717l1.69 8.98z" fill="#D6906E"/><path d="M48.469 92.031s-5.41-3.005-5.668-12.49a3.174 3.174 0 0 1 1.424-2.729c1.407-.926 5.458-3.252 7.628-1.761l3.805 4.905-.247 11.27-6.942.805z" fill="#D6906E"/><path d="M56.451 78.303l3.006-15.286a1.695 1.695 0 0 0-2.578-1.76c-.377.24-.644.617-.746 1.051l-2.669 11.559-1.28.246-4.43-11.697a1.544 1.544 0 0 0-2.05-.877 1.556 1.556 0 0 0-.89 1.803l4.352 16.187 7.285-1.226z" fill="#D6906E"/><path d="M56.692 77.089s-7.448-.71-7.508 2.464c0 0-.162 2.404 4.538 2.717a4.425 4.425 0 0 0-3.047 4.105m13.32 28.203l3.15 10.254" stroke="#BF704F" stroke-miterlimit="10"/><path d="M129.223 111.44s11.787 41.474 16.301 76.198l7.597-1.442s-1.16-50.905-8.823-82.396l-15.075 7.64z" fill="#D6906E"/><path d="M153.061 184.459s11.421 16.872-2.29 24.457a2.18 2.18 0 0 1-2.711-.486l-.09-.109a2.181 2.181 0 0 1 .144-2.951c1.948-1.977 4.569-6.071.391-11.42 0 0-2.188.559-1.803 4.911a1.803 1.803 0 0 1-1.96 1.959 1.81 1.81 0 0 1-1.575-1.364c-.721-2.868-1.911-9.984 2.681-13.825l7.213-1.172z" fill="#D6906E"/><path d="M136.484 92.74s10.82 3.56 12.749 20.654l-17.617 6.684-3.973-10.82 8.841-16.517z" fill="#DD4C88"/><path d="M126.074 88.786l10.585 3.997-12.593 47.623h-36.16l-9.552-51.122 12.539-2.909 35.181 2.41z" fill="#EC2B73"/><path d="M124.066 140.412h-36.16v4.899h36.16v-4.899z" fill="#1A1A1A"/><path d="M82.976 114.019l-2.813-12.731m50.191 15.345l3.798-14.185" stroke="#C12D71" stroke-width="1.99" stroke-miterlimit="10"/><path d="M112.159 83.231l13.915 5.554s-1.617 5.476-17.949 5.476c-14.233 0-17.232-7.886-17.232-7.886l13.518-3.144h7.748z" fill="#D6906E"/><path d="M203.354 153.54l15.135 77.418h-29.338l-11.252-51.163-2.585-.157-.042 51.32h-29.254l1.49-77.418h55.846z" fill="#EC2B73"/><path d="M170.355 179.277h16.704" stroke="#C12D71" stroke-width="1.99" stroke-miterlimit="10"/><path d="M216.842 99.196l27.607-7.056a10.482 10.482 0 0 0 7.315-12.737 10.473 10.473 0 0 0-4.937-6.467 10.49 10.49 0 0 0-8.076-.987l-27.649 7.85 5.74 19.397z" fill="#FFA681"/><path d="M219.883 74.775l-26.97 3.546 7.712 27.523 25.756-5.361-6.498-25.708z" fill="#CFBBEB"/><path d="M232.758 40.495c.691-4.328-.992-9.858-.992-9.858l.601-9.707a1.803 1.803 0 0 0-1.377-2.002 1.801 1.801 0 0 0-2.193 1.317l-.794 6.275h-.859l-1.166-10.08a2.084 2.084 0 0 0-1.553-1.85 2.072 2.072 0 0 0-.852-.037 2.066 2.066 0 0 0-1.701 2.091l.739 10.868-.883.174-3.09-10.873a2.301 2.301 0 0 0-1.108-1.416 2.297 2.297 0 0 0-1.789-.183 2.296 2.296 0 0 0-1.545 2.71l3.192 12.449-1.118.306-4.207-8.745a1.905 1.905 0 0 0-3.511 1.46l4.25 11.631-3.516-.09a2.786 2.786 0 0 0-2.638 1.924 2.774 2.774 0 0 0 .535 2.67c.368.43.858.737 1.405.882l4.629 1.118a19.524 19.524 0 0 0 8.307 6.221s10.705-3.949 11.234-7.255z" fill="#FFA681"/><path d="M212.82 35.05s6.714-.391 10.699 3.39" stroke="#D8857D" stroke-miterlimit="10"/><path d="M251.404 78.26l-18.646-37.765-11.769 4.953 11.859 41.54 18.556-8.727z" fill="#FFA681"/><path d="M229.314 74.624l1.828 6.402" stroke="#D8857D" stroke-miterlimit="10"/><path d="M168.81 76.825l-22.078 4.568.776 72.147h55.846l1.755-74.125-21.014-1.815-15.285-.775z" fill="#CFBBEB"/><path d="M204.483 105.063v-9.317" stroke="#AB8BDB" stroke-width="1.99" stroke-miterlimit="10"/><path d="M154.848 98.36h13.674v6.841a6.84 6.84 0 1 1-13.68 0v-6.84h.006z" fill="#AB8BDB"/><path d="M130.726 99.725l-15.922 28.852a10.581 10.581 0 0 0 18.23 10.735l16.53-26.375-18.838-13.212z" fill="#FFA681"/><path d="M125.791 103.74l22.841 14.654 3.666-17.503c3.865-6.245 8.782-13.776 2.597-17.738a13.441 13.441 0 0 0-18.585 4.088l-10.519 16.499z" fill="#CFBBEB"/><path d="M147.129 117.433V97.82" stroke="#AB8BDB" stroke-width="1.99" stroke-miterlimit="10"/><path d="M122.636 144.157l41.805-1.142 2.873-13.506-47.245-5.975 2.567 20.623z" fill="#FFA681"/><path d="M141.239 126.196l-10.885-1.364" stroke="#D8857D" stroke-miterlimit="10"/><path d="M164.536 130.062s5.35-7.213 11.643-.03l-2.501 4.97-9.142-4.94z" fill="#FFA681"/><path d="M170.836 122.392l-1.677 10.122 12.749 1.418 2.026-9.719a1.808 1.808 0 0 0-.852-1.953 1.806 1.806 0 0 0-.717-.235l-9.533-1.148a1.808 1.808 0 0 0-1.304.354c-.372.283-.62.699-.692 1.161z" fill="#1A1A1A"/><path d="M167.229 129.196l15.093.378a3.224 3.224 0 0 1 3.143 3.222 3.222 3.222 0 0 1-1.803 2.903l-.811.391s1.544 11.421-7.526 12.785c-9.07 1.364-14.149-5.8-14.149-5.8l6.053-13.879zm17.702-51.566l-.204-22.787h-16.548l-.367 22.191 17.119.595z" fill="#FFA681"/><path d="M166.815 61.497c-.86-1.972 5.746 10.897 12.49 10.17 5.783-.601 6.011-11.09 6.011-11.09s-2.05 3.306-8.157 3.318c-6.798.006-10.344-2.398-10.344-2.398z" fill="#F97853"/><path d="M193.532 42.274c-1.773 10.158-7.675 18.706-17.142 18.706-9.467 0-15.983-8.445-17.149-18.706-1.322-11.637 7.676-19.366 17.131-19.366s18.982 8.938 17.16 19.366z" fill="#293267"/><path d="M191.207 47.57a3.055 3.055 0 0 1 3.78-.998c2.549.968 1.395 7.153-2.404 7.94a3.042 3.042 0 0 1-2.446-.643s.919-4.562 1.07-6.3z" fill="#FFA681"/><path d="M194.483 48.754s-2.134-.71-3.649 2.404" stroke="#161311" stroke-width="1.1" stroke-linecap="round" stroke-linejoin="round"/><path d="M161.946 47.57a3.062 3.062 0 0 0-3.781-.998c-2.549.968-1.394 7.153 2.404 7.94a3.007 3.007 0 0 0 2.441-.643s-.896-4.562-1.064-6.3z" fill="#FFA681"/><path d="M158.694 48.754s2.134-.71 3.643 2.404" stroke="#161311" stroke-width="1.1" stroke-linecap="round" stroke-linejoin="round"/><path d="M191.447 42.245c0 3.96-.409 12.25-2.976 17.172-2.404 4.623-6.401 7.105-11.63 7.255-4.172.115-10.183-3.792-12.25-7.76-3.12-6.01-2.97-16.595-2.97-16.595s0-14.156 14.751-14.156c15.537 0 15.075 14.084 15.075 14.084z" fill="#FFA681"/><path d="M171.377 47.04a1.144 1.144 0 0 1-1.364 1.127 1.141 1.141 0 1 1 1.364-1.126zm11.781 0a1.144 1.144 0 0 1-1.363 1.127 1.141 1.141 0 1 1 1.363-1.126z" fill="#1A1A1A"/><path d="M173.325 42.4l-8.091 2.092s.367-2.272 3.679-3.095c3.312-.824 4.412 1.004 4.412 1.004zm5.139 0l8.09 2.092s-.366-2.272-3.672-3.095c-3.306-.824-4.418 1.004-4.418 1.004z" fill="#293267"/><path d="M175.062 49.938v2.891h2.097" stroke="#161311" stroke-width="1.1" stroke-linecap="round" stroke-linejoin="round"/><path d="M182.725 55.257h-12.364s.343 3.258 5.867 3.27c5.079.006 6.497-3.27 6.497-3.27z" fill="#fff"/><path d="M161.946 47.57s5.518-8.475 1.202-14.708c0 0-2.735.042-2.639 10.819l1.437 3.889zm29.261 0s-5.524-8.475-1.202-14.708c0 0 2.728.042 2.632 10.819l-1.43 3.889z" fill="#293267"/><path d="M161.682 32.453s7.128 8.066 21.825 6.485c13.121-1.412 14.257-10.608 11.132-14.25-4.466-5.194-14.312-3.265-19.577 2.542l-13.38 5.223z" fill="#293267"/><path d="M167.812 77.034l8.722 11.216 8.397-10.62-17.119-.596z" fill="#FFA681"/><path d="M167.812 75.448l-5.151 2.65 5.819 11.661 5.818-4.388-6.486-9.923zm17.161 0l5.794 2.729-6.125 11.582-5.764-4.514 6.095-9.797z" fill="#AB8BDB"/><path d="M0 231h288" stroke="#F8E9F6" stroke-width="1.99" stroke-miterlimit="10"/><path d="M245.744 105.958h37.098a4.746 4.746 0 0 1 4.743 4.742v34.622a4.746 4.746 0 0 1-4.743 4.743h-35.584a6.254 6.254 0 0 1-6.257-6.257v-33.059a4.746 4.746 0 0 1 4.743-4.791z" fill="#FFCFDB"/><mask id="a" maskUnits="userSpaceOnUse" x="241" y="105" width="47" height="46"><path d="M245.744 105.958h37.098a4.746 4.746 0 0 1 4.743 4.742v34.622a4.746 4.746 0 0 1-4.743 4.743h-35.584a6.254 6.254 0 0 1-6.257-6.257v-33.059a4.746 4.746 0 0 1 4.743-4.791z" fill="#AB8BDB"/></mask><g mask="url(#a)"><path d="M257.773 131.804a6.669 6.669 0 0 1 .038 4.325c-.196.57-.466 1.111-.654 1.681a10.73 10.73 0 0 0-.435 2.853c-.134 2.547-.031 5.1.308 7.628.088.939.316 1.86.675 2.733a47.193 47.193 0 0 1 3.094-4.662 24.019 24.019 0 0 1 5.142-4.873 8.615 8.615 0 0 0 2.658-2.372c-2.042-1.142-3.093-3.582-3.131-5.916.084-2.35.671-4.654 1.72-6.757" fill="#FFA681"/><path d="M257.45 131.303c.39 1.106.642 2.256.751 3.424-.135 1.952 7.508-3.153 7.508-3.153l.27-1.592-5.481 1.013" fill="#F97853"/><path d="M254.906 117.337c-1.029 1.441-.345 4.092-.578 5.811-.203 1.434-3.101 2.568-2.74 3.003.21.315.75.548.991.856.424.573.665 1.262.69 1.974.137 1.439.406 2.861.804 4.25a.75.75 0 0 0 .255.443.875.875 0 0 0 .54.075c3.499-.263 7.23-.901 9.723-3.229a14.598 14.598 0 0 0 2.305-3.003c.976-1.561 1.922-3.235 1.952-5.045a10.469 10.469 0 0 0-1.389-4.625" fill="#FFA681"/><path d="M265.957 125.896c-.548.503-.871-.241-1.546-.563-.676-.323-.879-1.682-.834-2.433a5.185 5.185 0 0 1-1.989-.195 3.485 3.485 0 0 1-2.095-1.749 1.151 1.151 0 0 0-.248-.428c-.255-.233-.66-.12-.991 0a8.256 8.256 0 0 1-5.052.232 5.308 5.308 0 0 1-3.581-3.393 2.689 2.689 0 0 1-.083-1.442 2.58 2.58 0 0 1 1.742-1.726 5.821 5.821 0 0 1 2.545-.143 2.695 2.695 0 0 1 0-2.853 4.677 4.677 0 0 1 2.327-1.839 6.594 6.594 0 0 1 4.505-.21 5.307 5.307 0 0 1 3.281 3.04c.12.308.255.676.578.751.119.019.241.019.36 0a10.279 10.279 0 0 1 5.563.563c1.705.811 3.004 2.695 2.636 4.542a3.47 3.47 0 0 1-.751 1.502.539.539 0 0 0-.165.315c0 .195.195.323.368.42a3.28 3.28 0 0 1 1.389 2.118c.146.857.1 1.737-.136 2.575a9.905 9.905 0 0 1-3.175 5.112 6.165 6.165 0 0 1-2.793 1.449 3.548 3.548 0 0 1-3.003-.75s-1.975-1.93.045-3.536" fill="#E83C4C"/><path d="M254.972 120.933a2.439 2.439 0 0 1 2.343 1.066c.15.203.503 0 .345-.195a2.838 2.838 0 0 0-2.793-1.254c-.255.045-.142.428.105.383z" fill="#E83C4C"/><path opacity=".28" d="M253.27 128.974l1.388.067a2.413 2.413 0 0 1-1.298.751" fill="#E83C4C"/><path d="M255.806 123.576c.17 0 .308-.189.308-.421 0-.232-.138-.42-.308-.42-.17 0-.308.188-.308.42 0 .232.138.421.308.421z" fill="#000"/><path d="M263.892 125.122a5.348 5.348 0 0 1 1.547-1.021c.274-.136.583-.186.886-.142a1.029 1.029 0 0 1 .706.75c.069.364.019.741-.143 1.074a3.317 3.317 0 0 1-1.501 1.599 4.704 4.704 0 0 1-2.17.511" fill="#FFA681"/><path d="M264.154 127.609c.158-1.944.931-2.515 1.247-2.688a.637.637 0 0 1 .488-.097.667.667 0 0 1 .382.548c.04.252.014.511-.075.751a2.17 2.17 0 0 1-.84 1.126 2.203 2.203 0 0 1-1.202.36z" fill="#F97853"/><path d="M257.075 138.148a5.618 5.618 0 0 0 7.283 1.299 14.456 14.456 0 0 1 1.787-1.171 6.013 6.013 0 0 1 3.446-.136c1.708.281 3.399.652 5.067 1.112 1.001.235 1.964.609 2.861 1.111.66.421 1.263.926 1.794 1.501 3.626 3.686 5.669 8.717 6.427 13.822.758 5.105.308 10.33-.518 15.436-.751 4.745-1.877 9.504-4.137 13.746a12.738 12.738 0 0 1-2.553 3.491 10.221 10.221 0 0 1-3.408 1.997c-4.092 1.502-8.747 1.037-12.763-.653-4.017-1.689-7.508-4.504-10.511-7.643a9.963 9.963 0 0 1-1.667-2.102 8.274 8.274 0 0 1-.788-2.635c-.811-4.925.083-9.97-.173-14.955-.285-5.466-1.929-10.789-2.199-16.254a5.838 5.838 0 0 1 .225-2.253 5.261 5.261 0 0 1 1.359-1.877 13.818 13.818 0 0 1 8.491-3.754" fill="#0172D0"/></g><path d="M6.806 135.561h33.155a4.238 4.238 0 0 1 4.238 4.238v30.919a4.244 4.244 0 0 1-1.241 2.996 4.231 4.231 0 0 1-2.997 1.242H8.16a5.597 5.597 0 0 1-5.597-5.59v-29.561a4.236 4.236 0 0 1 4.244-4.244z" fill="#8C70C9"/><mask id="b" maskUnits="userSpaceOnUse" x="2" y="135" width="43" height="40"><path d="M6.806 135.561h33.155a4.238 4.238 0 0 1 4.238 4.238v30.919a4.244 4.244 0 0 1-1.241 2.996 4.231 4.231 0 0 1-2.997 1.242H8.16a5.597 5.597 0 0 1-5.597-5.59v-29.561a4.236 4.236 0 0 1 4.244-4.244z" fill="#6F59A0"/></mask><g mask="url(#b)"><path d="M20.335 161.592c.507.465.816 1.107.864 1.793.033.501 0 1.211-.451 1.47-.32.137-.664.212-1.013.22-.83.082-1.54 0-2.371.066s-1.87 0-2.608.495a6.002 6.002 0 0 0-1.1 1.375l-1.404 1.821a4.153 4.153 0 0 0 2.267 1.172c.848.176 1.717.209 2.575.325.859.116 1.65.308 2.46.424 1.302.14 2.614.179 3.923.115 1.49-.033 2.982-.071 4.467-.165 2.2-.136 4.39-.403 6.559-.798a.383.383 0 0 0 .297-.159.395.395 0 0 0 0-.275 15.3 15.3 0 0 0-.677-1.816 4.103 4.103 0 0 0-.699-1.139 3.573 3.573 0 0 0-2.591-.941c-.946 0-1.744-.033-2.69-.088a3.956 3.956 0 0 1-1.937-.55c-.48-.396-.49-.825-.518-1.447a6.763 6.763 0 0 1 .248-1.843" fill="#FFA681"/><path d="M16.57 165.456c.353.99 1.53 1.37 2.548 1.618a64.018 64.018 0 0 0 8.749 1.65c2.176.282 4.388.106 6.492-.517a11.189 11.189 0 0 0 2.393 2.828 17.756 17.756 0 0 1 4.694 8.028 2.97 2.97 0 0 1-.508 3.308 2.98 2.98 0 0 1-.956.686c-2.31 1.502-4.908 2.504-7.477 3.499a27.147 27.147 0 0 1-6.51 1.899 21.23 21.23 0 0 1-5.683-.253 29.843 29.843 0 0 1-8.528-2.526c-1.805-.88-3.593-2.151-4.225-4.055-.55-1.65-.127-3.444.401-5.089 1.271-3.94 5.326-11.555 8.61-11.103" fill="#FFDC72"/><path d="M20.455 161.836l.473.445c.192.454.31.935.347 1.425 0 .551 3.015 1.068 4.523-.55l.154-1.161h-2.685" fill="#F97853"/><path d="M18.157 149.647a6.889 6.889 0 0 0-.853 1.915 7.725 7.725 0 0 0-.143 1.557 22.2 22.2 0 0 0 .11 3.527 7.09 7.09 0 0 0 1.194 3.229c.186.247.384.484.594.71a10.961 10.961 0 0 0 2.426 2.201 3.453 3.453 0 0 0 3.027.368c.352-.162.685-.365.99-.605 1.469-1.1 2.905-2.432 3.428-4.291.222-.963.313-1.951.27-2.938v-1.899a11.674 11.674 0 0 0-.078-1.65c-.214-1.552-2.02-2.014-2.8-3.302" fill="#FFA681"/><path d="M17.304 155.639a1.736 1.736 0 0 0-.462-.903.9.9 0 0 0-1.013-.22.894.894 0 0 0-.545.881c.004.398.137.784.38 1.1.23.341.545.616.913.798a1.538 1.538 0 0 0 1.189.077" fill="#FFA681"/><path d="M17.413 156.207a1.1 1.1 0 0 0-.265-.605.617.617 0 0 0-.605-.198.629.629 0 0 0-.423.55c-.015.254.054.505.198.715.133.228.322.418.55.551a.986.986 0 0 0 .765.093" fill="#F97853"/><path d="M29.088 156.097a1.73 1.73 0 0 1 .413-.93.957.957 0 0 1 .935-.302.983.983 0 0 1 .655.874c.015.392-.097.778-.32 1.101a2.361 2.361 0 0 1-.858.853 1.57 1.57 0 0 1-1.183.143" fill="#FFA681"/><path d="M29.072 156.416c.01-.223.09-.438.225-.616a.631.631 0 0 1 .595-.236.634.634 0 0 1 .456.55c.027.251-.029.504-.16.721-.12.238-.3.441-.522.588a1.02 1.02 0 0 1-.76.143" fill="#F97853"/><path d="M23.449 156.722l-.193 2.201h.55" stroke="#F97853" stroke-width=".5" stroke-linecap="round" stroke-linejoin="round"/><path opacity=".81" d="M22.511 160.596h1.648a.307.307 0 0 1 .113 0 .147.147 0 0 1 .066.049.1.1 0 0 1 .018.071.334.334 0 0 1-.09.235.503.503 0 0 1-.249.145 1.806 1.806 0 0 1-.63 0l-.8-.044a.698.698 0 0 1-.396-.097c-.094-.075 0-.344.32-.381" fill="#EF2B26"/><circle cx="19.955" cy="156.723" r=".55" fill="#000"/><circle cx="26.558" cy="156.723" r=".55" fill="#000"/><path d="M29.374 155.052l-.688.264a2.38 2.38 0 0 0-3.85-.53 2.381 2.381 0 0 0-.628 1.35 1.916 1.916 0 0 0-1.65 0 2.387 2.387 0 0 0-4.53-.721l-.681-.148c-.154-.033-.215.198-.066.231l.649.159a2.324 2.324 0 0 0-.16.831 2.41 2.41 0 1 0 4.815 0v-.126a1.717 1.717 0 0 1 1.612 0 .977.977 0 0 0 0 .121 2.408 2.408 0 0 0 1.827 2.328 2.404 2.404 0 0 0 2.794-3.264l.639-.242c.12-.077.06-.308-.083-.253zm-9.194 3.637a2.202 2.202 0 0 1-2.041-3.081.124.124 0 0 0 .033-.066 2.202 2.202 0 1 1 2.008 3.147zm6.4 0a2.197 2.197 0 0 1-1.912-1.132 2.202 2.202 0 0 1 3.105-2.926c.33.21.597.503.776.85.004.026.018.05.038.066a2.203 2.203 0 0 1-.94 2.876 2.199 2.199 0 0 1-1.068.266z" fill="#000"/><path d="M22.012 148.268a2.489 2.489 0 0 1-1.804-.699 6.11 6.11 0 0 1-1.954-3.219 6.832 6.832 0 0 1 .215-3.774 4.948 4.948 0 0 1 .803-1.524 4.491 4.491 0 0 1 2.751-1.513 7.499 7.499 0 0 1 3.18.236 7.1 7.1 0 0 1 2.575 1.205 5.629 5.629 0 0 1 1.767 5.931 6.504 6.504 0 0 1-4.622 4.253" fill="#120E5E"/><path d="M22.882 147.239a5.426 5.426 0 0 0-5.09 2.366c-.93 1.458-1.05 3.301-1.15 5.034 1.868.546 3.833.675 5.756.38.137-.771.247-1.541.324-2.322a4.56 4.56 0 0 1 .815 2.41 27.4 27.4 0 0 0 6.256-.231.685.685 0 0 0 .484-.215.72.72 0 0 0 .066-.517c-.204-1.574-.738-3.61-1.816-4.743a7.396 7.396 0 0 0-4.105-2.201" fill="#1B1367"/></g><path d="M16.605 18a.569.569 0 0 1-.42-.165.569.569 0 0 1-.165-.42V6.87c0-.17.056-.31.166-.42.11-.11.25-.165.42-.165.17 0 .31.055.42.165.11.11.165.25.165.42v4.68h7.32V6.87c0-.17.055-.31.165-.42.11-.11.25-.165.42-.165.17 0 .31.055.42.165.11.11.165.25.165.42v10.545a.57.57 0 0 1-.166.42.569.569 0 0 1-.42.165.569.569 0 0 1-.42-.165.569.569 0 0 1-.165-.42V12.6h-7.32v4.815c0 .17-.055.31-.165.42a.569.569 0 0 1-.42.165zm12.657 0a.569.569 0 0 1-.42-.165.569.569 0 0 1-.165-.42V6.87c0-.17.055-.31.165-.42.11-.11.25-.165.42-.165h7.035a.55.55 0 0 1 .405.165.5.5 0 0 1 .18.405c0 .15-.06.28-.18.39a.55.55 0 0 1-.405.165h-6.45v4.14h4.695c.17 0 .31.055.42.165a.55.55 0 0 1 .165.405.55.55 0 0 1-.165.405.569.569 0 0 1-.42.165h-4.695v4.185h6.45a.55.55 0 0 1 .405.165c.12.11.18.24.18.39 0 .17-.06.31-.18.42a.58.58 0 0 1-.405.15h-7.035zm10.386 0c-.16 0-.3-.055-.42-.165a.569.569 0 0 1-.166-.42V6.87a.55.55 0 0 1 .166-.405c.12-.12.26-.18.42-.18.16 0 .294.06.404.18.12.11.18.245.18.405v10.02h5.865a.55.55 0 0 1 .405.165c.12.1.18.23.18.39s-.06.295-.18.405a.58.58 0 0 1-.405.15h-6.45zm9.492 0c-.16 0-.3-.055-.42-.165a.569.569 0 0 1-.165-.42V6.87a.55.55 0 0 1 .165-.405c.12-.12.26-.18.42-.18.16 0 .295.06.405.18.12.11.18.245.18.405v10.02h5.865a.55.55 0 0 1 .405.165c.12.1.18.23.18.39s-.06.295-.18.405a.58.58 0 0 1-.405.15h-6.45zm13.267.15c-.87 0-1.67-.15-2.4-.45-.73-.3-1.365-.72-1.905-1.26a5.878 5.878 0 0 1-1.245-1.905c-.29-.73-.435-1.53-.435-2.4 0-.86.145-1.655.435-2.385.3-.73.715-1.365 1.245-1.905.54-.54 1.175-.96 1.905-1.26.73-.3 1.53-.45 2.4-.45.86 0 1.655.15 2.385.45.73.3 1.365.72 1.905 1.26a5.57 5.57 0 0 1 1.245 1.905c.3.73.45 1.525.45 2.385 0 .87-.15 1.67-.45 2.4a5.57 5.57 0 0 1-1.245 1.905c-.54.54-1.175.96-1.905 1.26-.73.3-1.525.45-2.385.45zm0-1.11c.69 0 1.33-.12 1.92-.36a4.65 4.65 0 0 0 1.53-1.035c.44-.45.78-.97 1.02-1.56.24-.6.36-1.25.36-1.95 0-.69-.12-1.33-.36-1.92a4.59 4.59 0 0 0-1.02-1.56c-.43-.45-.94-.795-1.53-1.035a4.87 4.87 0 0 0-1.92-.375c-.7 0-1.345.125-1.935.375-.59.24-1.105.585-1.545 1.035-.43.44-.765.96-1.005 1.56-.24.59-.36 1.23-.36 1.92 0 .7.12 1.35.36 1.95.24.59.575 1.11 1.005 1.56.44.44.955.785 1.545 1.035.59.24 1.235.36 1.935.36zm8.519-1.695c-.16 0-.3-.055-.42-.165a.602.602 0 0 1-.165-.42V6.87c0-.17.055-.31.165-.42.12-.12.26-.18.42-.18.17 0 .31.06.42.18.11.11.165.25.165.42v7.89c0 .16-.06.3-.18.42a.584.584 0 0 1-.405.165zm0 2.655a.838.838 0 0 1-.615-.255.838.838 0 0 1-.255-.615c0-.25.085-.46.255-.63a.838.838 0 0 1 .615-.255c.24 0 .445.09.615.27.17.17.255.375.255.615s-.085.445-.255.615a.838.838 0 0 1-.615.255z" fill="#fff"/></svg>