<svg width="643" height="409" fill="none" xmlns="http://www.w3.org/2000/svg"><path d="M562.534 262.757c0-129.729-105.16-234.878-234.879-234.878-129.718 0-234.878 105.171-234.878 234.878a233.781 233.781 0 0 0 49.652 144.423h370.485a233.862 233.862 0 0 0 49.62-144.423z" fill="#F8E9F6"/><path d="M191.895 5.647h-84.654a2.786 2.786 0 0 0-2.786 2.786v23.75a2.786 2.786 0 0 0 2.786 2.786h84.654a2.786 2.786 0 0 0 2.786-2.786V8.433a2.786 2.786 0 0 0-2.786-2.786z" fill="#DD4C88"/><path d="M180.316 31.768v10.258a.364.364 0 0 1-.205.331.358.358 0 0 1-.385-.047l-13.252-10.542h13.842z" fill="#DD4C88"/><path d="M99.834 261.993a7.224 7.224 0 0 0-7.888-1.483 7.232 7.232 0 0 0-2.327 1.592l-1.835 1.879-1.89-1.868a7.214 7.214 0 0 0-10.215.076 7.226 7.226 0 0 0 .077 10.215l7.025 6.926a7.088 7.088 0 0 0 3.943 1.977 7.18 7.18 0 0 0 6.271-2.086l6.904-7.058a7.223 7.223 0 0 0-.065-10.17z" fill="#fff"/><path d="M555.553 217.376h-9.034v15.546h9.034v-15.546z" fill="#FAFAFA"/><path d="M534.6 17.25a7.702 7.702 0 1 0 0-15.405 7.702 7.702 0 0 0 0 15.404zM8.942 347.674a7.702 7.702 0 0 0 7.701-7.702 7.702 7.702 0 1 0-15.403 0 7.702 7.702 0 0 0 7.702 7.702zm632.436-214.485a5.19 5.19 0 0 1-6.201 5.09 5.194 5.194 0 0 1-4.077-4.077 5.184 5.184 0 0 1 2.206-5.327 5.186 5.186 0 0 1 6.552.645 5.185 5.185 0 0 1 1.52 3.669v0zM57.916 110s-2.6 4.37.961 6.97c3.562 2.6 6.675-2.262 10.64.743 3.966 3.004.667 6.664.667 6.664M595.386 350s-1.988 6.009 3.059 8.204c5.047 2.196 7.494-4.544 13.11-1.966 5.615 2.578 2.621 7.92 2.621 7.92" stroke="#FDFCFF" stroke-width="1.78" stroke-miterlimit="10"/><path d="M232.961 73.97s-3.081 22.362-29.496 36.324c-28.175 14.89-8.15 59.67 40.869 61.178 53.235 1.649 82.305-46.31 42.474-106.395l-53.847 8.893z" fill="#3A1616"/><path d="M249.457 143.636l.273-38.597h23.586l.503 39.045-24.362-.448z" fill="#D6906E"/><path d="M246.748 116.346c-1.256-3.419 8.161 15.83 17.949 14.574 8.379-1.093 9.832-16.169 9.832-16.169s-3.889 5.747-12.738 5.758c-9.909.011-15.043-4.163-15.043-4.163z" fill="#965B3F"/><path d="M232.688 83.747c3.004 17.206 13 31.681 29.049 31.681 16.048 0 27.071-14.322 29.048-31.681 2.24-19.664-13.011-31.354-29.048-31.354-16.038 0-32.13 13.678-29.049 31.354z" fill="#3A1616"/><path d="M236.631 92.717a5.176 5.176 0 0 0-6.401-1.694c-4.316 1.639-2.371 12.116 4.107 13.448a5.06 5.06 0 0 0 4.13-1.092s-1.584-7.724-1.836-10.662z" fill="#D6906E"/><path d="M231.082 94.726s3.616-1.212 6.172 4.108" stroke="#161311" stroke-width="1.02" stroke-linecap="round" stroke-linejoin="round"/><path d="M286.142 92.716a5.167 5.167 0 0 1 6.401-1.693c4.316 1.639 2.36 12.115-4.107 13.448a5.084 5.084 0 0 1-4.141-1.092s1.617-7.724 1.847-10.663z" fill="#D6906E"/><path d="M291.714 94.726s-3.616-1.212-6.184 4.108" stroke="#161311" stroke-width="1.02" stroke-linecap="round" stroke-linejoin="round"/><path d="M236.227 83.693c0 6.707.688 19.336 5.036 27.672 4.086 7.833 11.362 11.798 20.222 11.809 8.86.011 16.736-5.943 20.232-12.661 5.288-10.16 5.036-26.7 5.036-26.7s0-23.98-24.995-23.98c-26.317 0-25.531 23.86-25.531 23.86z" fill="#D6906E"/><path d="M255.859 82.534l-13.699 3.54s.622-3.845 6.227-5.233c5.604-1.387 7.472 1.694 7.472 1.694zm8.718 0l13.71 3.54s-.634-3.845-6.238-5.233c-5.604-1.387-7.472 1.694-7.472 1.694z" fill="#1A1A1A"/><path d="M259.431 93.885l-.622 4.894h3.561" stroke="#161311" stroke-width="1.02" stroke-linecap="round" stroke-linejoin="round"/><path d="M271.12 102.931h-19.937s.568 7.352 9.931 7.363c8.641.022 10.006-7.363 10.006-7.363z" fill="#fff"/><path d="M253.03 90.4s-3.791-1.923-7.003 0m28.808 0s-3.791-1.923-7.003 0" stroke="#161311" stroke-width="1.02" stroke-linecap="round" stroke-linejoin="round"/><path d="M286.142 92.716s-6.653-13.186-2.01-24.919c0 0 4.632.066 4.468 18.376l-2.458 6.543zm-49.51 0s6.631-14.016 2.01-24.919c0 0-4.632.066-4.468 18.376l2.458 6.543z" fill="#3A1616"/><path d="M291.003 77.99s-36.051-2.185-46.495-16.748c0 0 3.408-9.089 19.467-6.554 16.06 2.534 27.028 23.302 27.028 23.302z" fill="#3A1616"/><path d="M259.278 57.495s-10.204 21.183-24.777 20.473c0 0 8.008-20.265 24.777-20.473z" fill="#3A1616"/><path d="M238.423 385.485s10.685-53.061 16.977-67.525a1.52 1.52 0 0 1 2.851.24c1.519 5.517 3.507 21.762 2.622 69.579v19.544h41.983l6.555-47.041c.339-3.606 13.809-62.566-20.057-108.023h-65.679s-26.579 45.709-30.239 101.599c-.819 12.443-1.093 31.441-2.797 53.454h43.119l4.665-21.827z" fill="#BAB7F6"/><path d="M234.356 253.51c-.082.164-6.036 14.326-18.356 17.418.23-.509.444-1.003.691-1.48 11.053-3.438 16.448-16.251 16.448-16.448l1.217.51zm66.969 20.974c-14.016-1.66-22.373-15.381-24.656-19.644-.403-.772-.611-1.231-.631-1.263l1.125-.518s.29.634.808 1.576c2.392 4.369 10.009 16.358 22.412 18.434l.942 1.415zm-42.934 42.47l-1.645-.346a98.291 98.291 0 0 1-8.652-24.935c-4.309-19.113 5.494-39.476 5.593-39.673l1.118.543c-.099.197-9.721 20.182-5.51 38.867.181.789.362 1.562.543 2.302l.296 1.201a88.638 88.638 0 0 0 8.257 22.041z" fill="#8D8AD0"/><path d="M249.181 293.906H249l.082-1.233a2.672 2.672 0 0 0 2.023-1.02c.823-.921 2.566-3.882 1.152-11.135-1.892-9.738 5.312-26.794 5.625-27.518l1.135.493c-.082.165-7.369 17.435-5.543 26.794 1.464 7.501-.28 10.856-1.448 12.188a3.89 3.89 0 0 1-2.845 1.431z" fill="#8D8AD0"/><path d="M206.316 150.431s-13.765 1.955-23.837 36.433l27.125 15.546 16.005-22.013-19.293-29.966z" fill="#EC2B73"/><path d="M209.604 202.41s-18.014 28.251-22.286 33.331c-4.37 5.255-11.121 7.855-16.944 4.217a12.15 12.15 0 0 1-4.512-15.535l18.681-36.51 25.061 14.497z" fill="#D6906E"/><path d="M166.102 150.475l21.566 70.179-22.997 10.007-13.83-79.138 15.261-1.048z" fill="#D6906E"/><path d="M164.617 153.959l3.375-3.277a14.201 14.201 0 0 0 4.305-8.98l.863-9.526s.557-5.004-9.417-3.747c-9.975 1.256-10.564 1.322-10.444 4.271 0 0 1.824 4.108 8.248 4.938l3.07 16.321z" fill="#D6906E"/><path d="M151.999 155.423s-9.832-5.462-10.302-22.701a5.764 5.764 0 0 1 2.589-4.96c2.557-1.682 9.92-5.91 13.864-3.201l6.915 8.915-.448 20.483-12.618 1.464z" fill="#D6906E"/><path d="M166.507 130.471l5.462-27.781a3.082 3.082 0 0 0-4.686-3.198 3.1 3.1 0 0 0-1.355 1.909l-4.851 21.008-2.327.448-8.051-21.259a2.812 2.812 0 0 0-2.624-1.819c-.378 0-.753.076-1.102.224a2.83 2.83 0 0 0-1.616 3.277l7.909 29.42 13.241-2.229z" fill="#D6906E"/><path d="M166.943 128.265s-13.535-1.289-13.644 4.479c0 0-.295 4.37 8.248 4.938a8.04 8.04 0 0 0-5.539 7.461m24.209 51.258l5.724 18.638" stroke="#BF704F" stroke-miterlimit="10"/><path d="M298.771 190.699s21.423 75.379 29.627 138.491l13.809-2.622s-2.109-92.52-16.038-149.754l-27.398 13.885z" fill="#D6906E"/><path d="M342.097 323.411s20.757 30.665-4.162 44.452a3.97 3.97 0 0 1-4.927-.885l-.164-.197a3.967 3.967 0 0 1 .262-5.363c3.54-3.595 8.303-11.034.711-20.757 0 0-3.977 1.016-3.278 8.925a3.265 3.265 0 0 1-.946 2.615 3.283 3.283 0 0 1-2.615.947 3.277 3.277 0 0 1-2.862-2.48c-1.311-5.211-3.474-18.146 4.872-25.127l13.109-2.13z" fill="#D6906E"/><path d="M311.968 156.713s19.664 6.467 23.171 37.537l-32.02 12.148-7.222-19.664 16.071-30.021z" fill="#DD4C88"/><path d="M293.046 149.524l19.238 7.265-22.887 86.555h-65.722l-17.359-92.913 22.789-5.288 63.941 4.381z" fill="#EC2B73"/><path d="M289.397 243.356h-65.722v8.904h65.722v-8.904z" fill="#1A1A1A"/><path d="M214.717 195.385l-5.113-23.138m91.22 27.891l6.905-25.782" stroke="#C12D71" stroke-width="1.99" stroke-miterlimit="10"/><path d="M267.756 139.429l25.29 10.095s-2.939 9.952-32.621 9.952c-25.869 0-31.321-14.333-31.321-14.333l24.57-5.714h14.082z" fill="#D6906E"/><path d="M433.504 267.215l27.508 140.708h-53.323l-20.451-92.99-4.698-.284-.076 93.274h-53.17l2.709-140.708h101.501z" fill="#EC2B73"/><path d="M373.527 313.993h30.36" stroke="#C12D71" stroke-width="1.99" stroke-miterlimit="10"/><path d="M458.018 168.445l50.177-12.825a19.055 19.055 0 0 0 13.295-23.149 19.061 19.061 0 0 0-8.974-11.753 19.05 19.05 0 0 0-14.677-1.794l-50.254 14.268 10.433 35.253z" fill="#FFA681"/><path d="M463.546 124.059l-49.019 6.446 14.017 50.023 46.811-9.744-11.809-46.725z" fill="#CFBBEB"/><path d="M486.946 61.756c1.257-7.866-1.802-17.916-1.802-17.916l1.092-17.644a3.277 3.277 0 0 0-2.502-3.638 3.275 3.275 0 0 0-3.987 2.393l-1.442 11.405h-1.562l-2.12-18.32a3.774 3.774 0 0 0-2.821-3.362 3.77 3.77 0 0 0-1.549-.069 3.759 3.759 0 0 0-3.091 3.802l1.344 19.752-1.606.317-5.616-19.763a4.168 4.168 0 0 0-5.265-2.906 4.17 4.17 0 0 0-2.369 1.914 4.17 4.17 0 0 0-.439 3.013l5.801 22.625-2.032.557-7.647-15.895a3.463 3.463 0 0 0-6.379.34 3.455 3.455 0 0 0-.001 2.314l7.724 21.14-6.391-.164a5.057 5.057 0 0 0-3.822 8.35c.67.781 1.56 1.34 2.555 1.602l8.411 2.032a35.498 35.498 0 0 0 15.098 11.307s19.457-7.178 20.418-13.186z" fill="#FFA681"/><path d="M450.71 51.859s12.203-.71 19.446 6.161" stroke="#D8857D" stroke-miterlimit="10"/><path d="M520.834 130.395l-33.888-68.64-21.39 9.003 21.554 75.499 33.724-15.862z" fill="#FFA681"/><path d="M480.687 123.786l3.321 11.635" stroke="#D8857D" stroke-miterlimit="10"/><path d="M370.72 127.785l-40.126 8.302 1.409 131.128h101.5l3.19-134.722-38.192-3.299-27.781-1.409z" fill="#CFBBEB"/><path d="M435.557 179.108v-16.933" stroke="#AB8BDB" stroke-width="1.99" stroke-miterlimit="10"/><path d="M345.342 166.927h24.853v12.432a12.431 12.431 0 1 1-24.864 0v-12.432h.011z" fill="#AB8BDB"/><path d="M301.502 169.407l-28.939 52.438a19.236 19.236 0 0 0 7.221 25.957 19.24 19.24 0 0 0 25.913-6.446l30.043-47.937-34.238-24.012z" fill="#FFA681"/><path d="M292.533 176.704l41.513 26.635 6.664-31.813c7.025-11.35 15.961-25.039 4.72-32.238a24.43 24.43 0 0 0-33.779 7.428l-19.118 29.988z" fill="#CFBBEB"/><path d="M331.315 201.591v-35.647" stroke="#AB8BDB" stroke-width="1.99" stroke-miterlimit="10"/><path d="M286.797 250.162l75.981-2.076L368 223.538l-85.868-10.859 4.665 37.483z" fill="#FFA681"/><path d="M320.609 217.518l-19.785-2.479" stroke="#D8857D" stroke-miterlimit="10"/><path d="M362.953 224.544s9.723-13.11 21.161-.055l-4.545 9.035-16.616-8.98z" fill="#FFA681"/><path d="M374.402 210.603L371.354 229l23.171 2.579 3.682-17.665a3.283 3.283 0 0 0-1.549-3.55 3.27 3.27 0 0 0-1.303-.427l-17.326-2.087a3.281 3.281 0 0 0-3.627 2.753z" fill="#1A1A1A"/><path d="M367.847 222.97l27.431.688a5.858 5.858 0 0 1 5.714 5.856 5.858 5.858 0 0 1-3.277 5.277l-1.475.71s2.807 20.756-13.678 23.236c-16.485 2.48-25.716-10.542-25.716-10.542l11.001-25.225zm32.173-93.722l-.372-41.415h-30.075l-.666 40.333 31.113 1.082z" fill="#FFA681"/><path d="M367.093 99.927c-1.563-3.584 10.444 19.806 22.701 18.484 10.509-1.092 10.924-20.156 10.924-20.156s-3.725 6.009-14.824 6.031c-12.356.01-18.801-4.36-18.801-4.36z" fill="#F97853"/><path d="M415.652 64.99c-3.222 18.462-13.95 33.997-31.156 33.997-17.207 0-29.049-15.35-31.168-33.997-2.404-21.15 13.95-35.2 31.135-35.2 17.184 0 34.5 16.245 31.189 35.2z" fill="#293267"/><path d="M411.425 74.614a5.55 5.55 0 0 1 6.872-1.813c4.632 1.759 2.534 13-4.37 14.431a5.53 5.53 0 0 1-4.447-1.169s1.672-8.291 1.945-11.449z" fill="#FFA681"/><path d="M417.379 76.766s-3.878-1.289-6.631 4.37" stroke="#161311" stroke-width="1.1" stroke-linecap="round" stroke-linejoin="round"/><path d="M358.244 74.614a5.561 5.561 0 0 0-6.872-1.813c-4.632 1.759-2.534 13 4.37 14.431a5.464 5.464 0 0 0 4.436-1.169s-1.628-8.291-1.934-11.449z" fill="#FFA681"/><path d="M352.333 76.766s3.879-1.289 6.621 4.37" stroke="#161311" stroke-width="1.1" stroke-linecap="round" stroke-linejoin="round"/><path d="M411.862 64.935c0 7.2-.743 22.265-5.408 31.212-4.37 8.401-11.635 12.913-21.139 13.186-7.582.207-18.506-6.893-22.264-14.104-5.67-10.924-5.397-30.162-5.397-30.162s0-25.728 26.809-25.728c28.24 0 27.399 25.596 27.399 25.596z" fill="#FFA681"/><path d="M375.385 73.653a2.072 2.072 0 0 1-1.277 1.926 2.074 2.074 0 0 1-2.835-1.513 2.077 2.077 0 0 1 2.047-2.478 2.076 2.076 0 0 1 2.065 2.065zm21.412 0a2.079 2.079 0 0 1-1.276 1.926 2.077 2.077 0 1 1 1.276-1.926z" fill="#1A1A1A"/><path d="M378.924 65.219l-14.704 3.802s.666-4.13 6.686-5.626c6.019-1.497 8.018 1.824 8.018 1.824zm9.341 0l14.704 3.802s-.666-4.13-6.675-5.626c-6.008-1.497-8.029 1.824-8.029 1.824z" fill="#293267"/><path d="M382.081 78.919v5.255h3.813" stroke="#161311" stroke-width="1.1" stroke-linecap="round" stroke-linejoin="round"/><path d="M396.01 88.586h-22.471s.622 5.922 10.662 5.943c9.231.011 11.809-5.943 11.809-5.943z" fill="#fff"/><path d="M358.244 74.614s10.029-15.404 2.185-26.732c0 0-4.971.076-4.796 19.664l2.611 7.068zm53.181 0s-10.04-15.404-2.185-26.732c0 0 4.96.076 4.785 19.664l-2.6 7.068z" fill="#293267"/><path d="M357.763 47.14S370.72 61.8 397.43 58.926c23.849-2.567 25.913-19.282 20.233-25.902-8.117-9.44-26.012-5.932-35.582 4.62l-24.318 9.494z" fill="#293267"/><path d="M368.907 128.167l15.851 20.385 15.262-19.304-31.113-1.081z" fill="#FFA681"/><path d="M368.906 125.282l-9.362 4.818 10.575 21.194 10.575-7.975-11.788-18.037zm31.19 0l10.531 4.96-11.132 21.052-10.477-8.204 11.078-17.808z" fill="#AB8BDB"/><path d="M27.557 408h604.741" stroke="#F8E9F6" stroke-width="1.99" stroke-miterlimit="10"/><path d="M528.722 180.735h67.427a8.617 8.617 0 0 1 8.619 8.62v62.925a8.617 8.617 0 0 1-8.619 8.62h-64.674a11.373 11.373 0 0 1-11.373-11.373v-60.085a8.63 8.63 0 0 1 2.494-6.151 8.614 8.614 0 0 1 6.126-2.556z" fill="#FFCFDB"/><mask id="a" maskUnits="userSpaceOnUse" x="520" y="180" width="85" height="81"><path d="M528.722 180.735h67.427a8.617 8.617 0 0 1 8.619 8.62v62.925a8.617 8.617 0 0 1-8.619 8.62h-64.674a11.373 11.373 0 0 1-11.373-11.373v-60.085a8.63 8.63 0 0 1 2.494-6.151 8.614 8.614 0 0 1 6.126-2.556z" fill="#AB8BDB"/></mask><g mask="url(#a)"><path d="M550.588 227.71c.895 2.54.919 5.306.068 7.86-.355 1.037-.846 2.02-1.187 3.057a19.461 19.461 0 0 0-.791 5.185 74.721 74.721 0 0 0 .559 13.864 17.304 17.304 0 0 0 1.228 4.966 85.837 85.837 0 0 1 5.622-8.473 43.667 43.667 0 0 1 9.347-8.856 15.633 15.633 0 0 0 4.83-4.312c-3.711-2.074-5.621-6.509-5.69-10.752a29.913 29.913 0 0 1 3.125-12.281" fill="#FFA681"/><path d="M550 226.8a25.961 25.961 0 0 1 1.365 6.223c-.246 3.547 13.645-5.731 13.645-5.731l.491-2.893-9.961 1.842" fill="#F97853"/><path d="M545.376 201.416c-1.869 2.62-.628 7.437-1.051 10.562-.368 2.606-5.635 4.666-4.98 5.458.382.573 1.364.996 1.801 1.555a6.412 6.412 0 0 1 1.255 3.589 42.685 42.685 0 0 0 1.46 7.723c.056.315.22.6.464.805.305.15.649.198.983.137 6.359-.478 13.14-1.638 17.671-5.868a26.55 26.55 0 0 0 4.189-5.458c1.774-2.838 3.493-5.881 3.547-9.169a19.014 19.014 0 0 0-2.524-8.406" fill="#FFA681"/><path d="M565.461 216.972c-.996.914-1.583-.437-2.811-1.023-1.228-.587-1.596-3.057-1.514-4.421a9.446 9.446 0 0 1-3.616-.355 6.33 6.33 0 0 1-3.807-3.18 2.124 2.124 0 0 0-.451-.777c-.464-.423-1.2-.219-1.801 0a15.008 15.008 0 0 1-9.183.423 9.662 9.662 0 0 1-6.509-6.168 4.904 4.904 0 0 1-.15-2.62 4.676 4.676 0 0 1 3.166-3.138 10.569 10.569 0 0 1 4.625-.26 4.897 4.897 0 0 1 0-5.185 8.5 8.5 0 0 1 4.231-3.343 11.992 11.992 0 0 1 8.187-.382 9.67 9.67 0 0 1 5.963 5.526c.218.56.464 1.228 1.05 1.365.217.034.438.034.655 0 3.401-.6 6.9-.246 10.111 1.023 3.098 1.474 5.459 4.899 4.79 8.256a6.29 6.29 0 0 1-1.365 2.729.986.986 0 0 0-.3.573c0 .355.355.587.669.764a5.946 5.946 0 0 1 2.524 3.848 10.65 10.65 0 0 1-.245 4.68 18.01 18.01 0 0 1-5.772 9.293 11.217 11.217 0 0 1-5.076 2.633 6.45 6.45 0 0 1-5.458-1.364s-3.589-3.507.081-6.427" fill="#E83C4C"/><path d="M545.498 207.952a4.42 4.42 0 0 1 4.258 1.938c.273.368.914 0 .627-.355a5.16 5.16 0 0 0-5.076-2.279c-.464.082-.259.778.191.696z" fill="#E83C4C"/><path opacity=".28" d="M542.401 222.566l2.525.123a4.379 4.379 0 0 1-2.361 1.365" fill="#E83C4C"/><path d="M547.013 212.755c.309 0 .559-.342.559-.764s-.25-.764-.559-.764c-.309 0-.559.342-.559.764s.25.764.559.764z" fill="#000"/><path d="M561.71 215.566a9.662 9.662 0 0 1 2.81-1.855 2.734 2.734 0 0 1 1.611-.26 1.877 1.877 0 0 1 1.282 1.365 3.142 3.142 0 0 1-.259 1.951 6.035 6.035 0 0 1-2.729 2.907 8.56 8.56 0 0 1-3.944.927" fill="#FFA681"/><path d="M562.185 220.086c.287-3.534 1.692-4.571 2.265-4.885a1.16 1.16 0 0 1 .887-.177 1.218 1.218 0 0 1 .696.996c.071.459.024.929-.136 1.365a3.935 3.935 0 0 1-1.529 2.046 3.993 3.993 0 0 1-2.183.655z" fill="#F97853"/><path d="M549.319 239.241a10.206 10.206 0 0 0 13.236 2.36 26.613 26.613 0 0 1 3.248-2.129 10.92 10.92 0 0 1 6.263-.245 88.64 88.64 0 0 1 9.211 2.019 20.063 20.063 0 0 1 5.198 2.02c1.2.766 2.296 1.683 3.262 2.729 6.59 6.7 10.302 15.842 11.68 25.121 1.378 9.279.559 18.776-.942 28.055-1.364 8.623-3.411 17.275-7.518 24.984a23.175 23.175 0 0 1-4.639 6.345 18.654 18.654 0 0 1-6.195 3.63c-7.437 2.729-15.897 1.883-23.197-1.187-7.301-3.07-13.646-8.187-19.104-13.891a18.153 18.153 0 0 1-3.029-3.821 15.02 15.02 0 0 1-1.433-4.789c-1.474-8.952.15-18.121-.314-27.182-.518-9.934-3.507-19.608-3.998-29.542a10.59 10.59 0 0 1 .41-4.093 9.555 9.555 0 0 1 2.469-3.412 25.106 25.106 0 0 1 15.433-6.822" fill="#0172D0"/></g><path d="M58.102 234.539h60.26a7.7 7.7 0 0 1 7.702 7.702v56.196a7.696 7.696 0 0 1-7.702 7.702H60.56a10.17 10.17 0 0 1-10.17-10.16v-53.727a7.699 7.699 0 0 1 4.759-7.129 7.712 7.712 0 0 1 2.953-.584z" fill="#8C70C9"/><mask id="b" maskUnits="userSpaceOnUse" x="50" y="234" width="77" height="73"><path d="M58.102 234.539h60.26a7.7 7.7 0 0 1 7.702 7.702v56.196a7.696 7.696 0 0 1-7.702 7.702H60.56a10.17 10.17 0 0 1-10.17-10.16v-53.727a7.699 7.699 0 0 1 4.759-7.129 7.712 7.712 0 0 1 2.953-.584z" fill="#6F59A0"/></mask><g mask="url(#b)"><path d="M82.69 281.85a4.891 4.891 0 0 1 1.57 3.26c.06.91 0 2.2-.82 2.67a4.938 4.938 0 0 1-1.84.4c-1.51.15-2.8 0-4.31.12-1.51.12-3.4 0-4.74.9a10.924 10.924 0 0 0-2 2.5L68 295.01a7.562 7.562 0 0 0 4.12 2.13c1.54.32 3.12.38 4.68.59 1.56.21 3 .56 4.47.77 2.368.255 4.752.325 7.13.21 2.71-.06 5.42-.13 8.12-.3 3.998-.248 7.979-.732 11.92-1.45a.702.702 0 0 0 .54-.29.717.717 0 0 0 0-.5 27.885 27.885 0 0 0-1.23-3.3 7.436 7.436 0 0 0-1.27-2.07 6.488 6.488 0 0 0-4.71-1.71c-1.72 0-3.17-.06-4.89-.16a7.192 7.192 0 0 1-3.52-1c-.87-.72-.89-1.5-.94-2.63a12.292 12.292 0 0 1 .45-3.35" fill="#FFA681"/><path d="M75.849 288.873c.64 1.8 2.78 2.49 4.63 2.94a116.35 116.35 0 0 0 15.9 3c3.955.513 7.975.192 11.8-.94a20.294 20.294 0 0 0 4.35 5.14 32.28 32.28 0 0 1 8.53 14.59 5.403 5.403 0 0 1-2.66 7.26c-4.2 2.73-8.92 4.55-13.59 6.36a49.336 49.336 0 0 1-11.83 3.45 38.46 38.46 0 0 1-10.33-.46 54.159 54.159 0 0 1-15.5-4.59c-3.28-1.6-6.53-3.91-7.68-7.37-1-3-.23-6.26.73-9.25 2.31-7.16 9.68-21 15.65-20.18" fill="#FFDC72"/><path d="M82.908 282.293l.86.81a8.28 8.28 0 0 1 .63 2.59c0 1 5.48 1.94 8.22-1l.28-2.11h-4.88" fill="#F97853"/><path d="M78.73 260.14a12.52 12.52 0 0 0-1.55 3.48c-.182.932-.269 1.88-.26 2.83a40.329 40.329 0 0 0 .2 6.41c.23 2.105.976 4.121 2.17 5.87.338.448.699.878 1.08 1.29a19.915 19.915 0 0 0 4.41 4 6.26 6.26 0 0 0 2.672.975 6.26 6.26 0 0 0 2.828-.305 9.007 9.007 0 0 0 1.8-1.1c2.67-2 5.28-4.42 6.23-7.8.404-1.75.57-3.546.49-5.34V267a21.233 21.233 0 0 0-.14-3c-.39-2.82-3.67-3.66-5.09-6" fill="#FFA681"/><path d="M77.18 271.03a3.152 3.152 0 0 0-.84-1.64 1.63 1.63 0 0 0-2.83 1.2 3.33 3.33 0 0 0 .69 2c.418.62.99 1.12 1.66 1.45a2.79 2.79 0 0 0 2.16.14" fill="#FFA681"/><path d="M77.379 272.063a2.001 2.001 0 0 0-.48-1.1 1.129 1.129 0 0 0-1.1-.36 1.152 1.152 0 0 0-.77 1c-.028.462.1.919.36 1.3.241.414.586.758 1 1a1.774 1.774 0 0 0 1.39.17" fill="#F97853"/><path d="M98.598 271.863a3.146 3.146 0 0 1 .75-1.69 1.75 1.75 0 0 1 1.7-.55 1.793 1.793 0 0 1 1.19 1.59 3.305 3.305 0 0 1-.58 2 4.278 4.278 0 0 1-1.56 1.55 2.844 2.844 0 0 1-2.15.26" fill="#FFA681"/><path d="M98.569 272.444c.02-.407.162-.797.41-1.12a1.134 1.134 0 0 1 1.08-.43 1.158 1.158 0 0 1 .83 1c.049.456-.053.917-.29 1.31a2.805 2.805 0 0 1-.95 1.07 1.863 1.863 0 0 1-1.38.26" fill="#F97853"/><path d="M88.35 273l-.35 4h1" stroke="#F97853" stroke-width=".5" stroke-linecap="round" stroke-linejoin="round"/><path opacity=".81" d="M86.645 280.041h2.994a.508.508 0 0 1 .206 0 .26.26 0 0 1 .12.089.18.18 0 0 1 .034.128.608.608 0 0 1-.163.427.903.903 0 0 1-.453.264 3.25 3.25 0 0 1-1.147 0l-1.454-.081a1.261 1.261 0 0 1-.719-.176c-.171-.136 0-.624.582-.692" fill="#EF2B26"/><circle cx="82" cy="273" r="1" fill="#000"/><circle cx="94" cy="273" r="1" fill="#000"/><path d="M99.118 269.964l-1.25.48a4.332 4.332 0 0 0-4.62-2.259 4.332 4.332 0 0 0-3.52 3.749 3.49 3.49 0 0 0-3 0 4.342 4.342 0 0 0-6.332-3.294 4.338 4.338 0 0 0-1.898 1.984l-1.24-.27c-.28-.06-.39.36-.12.42l1.18.29a4.219 4.219 0 0 0-.29 1.51 4.378 4.378 0 0 0 4.375 4.589 4.37 4.37 0 0 0 3.17-1.358 4.374 4.374 0 0 0 1.205-3.231v-.23a3.12 3.12 0 0 1 2.93 0 1.835 1.835 0 0 0 0 .22 4.368 4.368 0 0 0 3.322 4.232 4.377 4.377 0 0 0 3.664-.742 4.371 4.371 0 0 0 1.414-5.19l1.16-.44c.22-.14.11-.56-.15-.46zm-16.71 6.61a4.002 4.002 0 0 1-3.71-5.6.23.23 0 0 0 .06-.12 4.002 4.002 0 0 1 6.984-.432 4.002 4.002 0 0 1-3.334 6.152zm11.63 0a4.004 4.004 0 0 1-3.473-2.057 4 4 0 1 1 7.053-3.773c.008.047.033.09.07.12a3.999 3.999 0 0 1-3.65 5.71z" fill="#000"/><path d="M85.739 257.633a4.527 4.527 0 0 1-3.28-1.27 11.098 11.098 0 0 1-3.55-5.85 12.42 12.42 0 0 1 .39-6.86 9.005 9.005 0 0 1 1.46-2.77 8.17 8.17 0 0 1 5-2.75 13.642 13.642 0 0 1 5.78.43 12.905 12.905 0 0 1 4.68 2.19 10.235 10.235 0 0 1 3.21 10.78 11.816 11.816 0 0 1-8.4 7.73" fill="#120E5E"/><path d="M87.319 255.763a9.866 9.866 0 0 0-9.25 4.3c-1.69 2.65-1.91 6-2.09 9.15a24.176 24.176 0 0 0 10.46.69c.25-1.4.45-2.8.59-4.22a8.292 8.292 0 0 1 1.48 4.38c3.793.296 7.608.155 11.37-.42a1.238 1.238 0 0 0 .88-.39c.155-.287.198-.622.12-.94-.37-2.86-1.34-6.56-3.3-8.62a13.44 13.44 0 0 0-7.46-4" fill="#1B1367"/></g><path d="M116.502 26a.683.683 0 0 1-.504-.198.683.683 0 0 1-.198-.504V12.644c0-.204.066-.372.198-.504a.683.683 0 0 1 .504-.198c.204 0 .372.066.504.198s.198.3.198.504v5.616h8.784v-5.616c0-.204.066-.372.198-.504a.683.683 0 0 1 .504-.198c.204 0 .372.066.504.198s.198.3.198.504v12.654a.683.683 0 0 1-.198.504.683.683 0 0 1-.504.198.683.683 0 0 1-.504-.198.683.683 0 0 1-.198-.504V19.52h-8.784v5.778a.683.683 0 0 1-.198.504.683.683 0 0 1-.504.198zm15.188 0a.683.683 0 0 1-.504-.198.683.683 0 0 1-.198-.504V12.644c0-.204.066-.372.198-.504a.683.683 0 0 1 .504-.198h8.442a.66.66 0 0 1 .486.198.6.6 0 0 1 .216.486c0 .18-.072.336-.216.468a.66.66 0 0 1-.486.198h-7.74v4.968h5.634c.204 0 .372.066.504.198a.66.66 0 0 1 .198.486.66.66 0 0 1-.198.486.683.683 0 0 1-.504.198h-5.634v5.022h7.74a.66.66 0 0 1 .486.198.615.615 0 0 1 .216.468.654.654 0 0 1-.216.504.696.696 0 0 1-.486.18h-8.442zm12.462 0a.722.722 0 0 1-.504-.198.683.683 0 0 1-.198-.504V12.644a.66.66 0 0 1 .198-.486.69.69 0 0 1 .504-.216c.192 0 .354.072.486.216a.634.634 0 0 1 .216.486v12.024h7.038a.66.66 0 0 1 .486.198.58.58 0 0 1 .216.468.634.634 0 0 1-.216.486.696.696 0 0 1-.486.18h-7.74zm11.391 0a.722.722 0 0 1-.504-.198.683.683 0 0 1-.198-.504V12.644a.66.66 0 0 1 .198-.486.69.69 0 0 1 .504-.216c.192 0 .354.072.486.216a.634.634 0 0 1 .216.486v12.024h7.038a.66.66 0 0 1 .486.198.58.58 0 0 1 .216.468.634.634 0 0 1-.216.486.696.696 0 0 1-.486.18h-7.74zm15.921.18c-1.044 0-2.004-.18-2.88-.54a6.91 6.91 0 0 1-2.286-1.512 7.053 7.053 0 0 1-1.494-2.286c-.348-.876-.522-1.836-.522-2.88 0-1.032.174-1.986.522-2.862a7.053 7.053 0 0 1 1.494-2.286 6.91 6.91 0 0 1 2.286-1.512c.876-.36 1.836-.54 2.88-.54 1.032 0 1.986.18 2.862.54a6.91 6.91 0 0 1 2.286 1.512 6.684 6.684 0 0 1 1.494 2.286c.36.876.54 1.83.54 2.862 0 1.044-.18 2.004-.54 2.88a6.684 6.684 0 0 1-1.494 2.286 6.91 6.91 0 0 1-2.286 1.512c-.876.36-1.83.54-2.862.54zm0-1.332c.828 0 1.596-.144 2.304-.432a5.58 5.58 0 0 0 1.836-1.242 5.75 5.75 0 0 0 1.224-1.872c.288-.72.432-1.5.432-2.34 0-.828-.144-1.596-.432-2.304a5.507 5.507 0 0 0-1.224-1.872 5.237 5.237 0 0 0-1.836-1.242 5.844 5.844 0 0 0-2.304-.45c-.84 0-1.614.15-2.322.45a5.42 5.42 0 0 0-1.854 1.242 5.645 5.645 0 0 0-1.206 1.872 6.057 6.057 0 0 0-.432 2.304c0 .84.144 1.62.432 2.34a5.9 5.9 0 0 0 1.206 1.872 5.786 5.786 0 0 0 1.854 1.242 6.105 6.105 0 0 0 2.322.432zm10.222-2.034a.722.722 0 0 1-.504-.198.722.722 0 0 1-.198-.504v-9.468c0-.204.066-.372.198-.504a.69.69 0 0 1 .504-.216c.204 0 .372.072.504.216.132.132.198.3.198.504v9.468a.69.69 0 0 1-.216.504.701.701 0 0 1-.486.198zm0 3.186c-.288 0-.534-.102-.738-.306a1.006 1.006 0 0 1-.306-.738c0-.3.102-.552.306-.756.204-.204.45-.306.738-.306s.534.108.738.324c.204.204.306.45.306.738s-.102.534-.306.738c-.204.204-.45.306-.738.306z" fill="#fff"/></svg>