<svg width="138" height="46" fill="none" xmlns="http://www.w3.org/2000/svg"><path d="M129.831 0H22.771c-1.285 0-2.327.64-2.327 1.43v32.888h109.387c1.286 0 2.328-.64 2.328-1.43V1.43c0-.79-1.042-1.43-2.328-1.43z" fill="#CCDEE4"/><path d="M20.444 34.318h109.387c1.286 0 2.328-.573 2.328-1.278v-3.834H20.444v5.112z" fill="#7DA5D7"/><path d="M.856 23.607l2.065-2.015 3.407-9.98h-.487c-.806 0-1.46-.637-1.46-1.425 0-.787.654-1.425 1.46-1.425h13.143c.807 0 1.46.638 1.46 1.425v24.234h-5.84v4.277H1.46c-.806 0-1.46-.638-1.46-1.425v-11.65c0-.756.308-1.48.856-2.016z" fill="#FFD164"/><path d="M.856 23.607l2.065-2.015 3.407-9.98h-.487c-.806 0-1.46-.637-1.46-1.425 0-.787.654-1.425 1.46-1.425h13.143c.807 0 1.46.638 1.46 1.425v28.51l-18.984.001c-.806 0-1.46-.638-1.46-1.425v-11.65c0-.756.308-1.48.856-2.016z" fill="#DBD9DC"/><path d="M20.227 38.99H1.445A1.445 1.445 0 010 37.547v-2.89h20.227v4.335zm-2.889-26.006v7.224c0 .798-.647 1.445-1.445 1.445H2.89l3.37-10.114h9.633c.798 0 1.445.647 1.445 1.445z" fill="#C9C6CA"/><path d="M14.603 16.064v4.38a1.46 1.46 0 01-1.46 1.46H2.92l2.433-7.3h7.789a1.46 1.46 0 011.46 1.46z" fill="#5D5360"/><path d="M5.354 14.603h7.789c.806 0 1.46.654 1.46 1.46v1.46H4.381l.973-2.92z" fill="#4B3F4E"/><path d="M14.603 40.889h113.011c1.3 0 2.354-.736 2.354-1.643v-4.928H14.603v6.57z" fill="#6F6571"/><path d="M14.603 46a5.841 5.841 0 110-11.683 5.841 5.841 0 010 11.683z" fill="#4B3F4E"/><path d="M14.603 43.08a2.92 2.92 0 110-5.842 2.92 2.92 0 010 5.841z" fill="#6F6571"/><path d="M50.016 46c-3.025 0-5.476-2.615-5.476-5.841s2.451-5.841 5.476-5.841c3.024 0 5.476 2.615 5.476 5.84 0 3.227-2.452 5.842-5.476 5.842zm56.587 0a5.841 5.841 0 110-11.682 5.841 5.841 0 010 11.682z" fill="#4B3F4E"/><path d="M94.92 46a5.841 5.841 0 110-11.682 5.841 5.841 0 010 11.682z" fill="#4B3F4E"/><path d="M49.65 43.08a2.92 2.92 0 110-5.842 2.92 2.92 0 010 5.841zm56.953 0a2.92 2.92 0 110-5.84 2.92 2.92 0 010 5.84zm-11.683 0a2.92 2.92 0 110-5.842 2.92 2.92 0 010 5.841z" fill="#6F6571"/><path d="M118.286 46a5.842 5.842 0 110-11.684 5.842 5.842 0 010 11.684z" fill="#4B3F4E"/><path d="M118.286 43.08a2.921 2.921 0 110-5.843 2.921 2.921 0 010 5.842z" fill="#6F6571"/><path d="M0 32.127h2.92a1.46 1.46 0 001.461-1.46v-1.46a1.46 1.46 0 00-1.46-1.461H0v4.381z" fill="#FAEBC8"/><path d="M32.86 18.952h.823V12.49h2.419v-.741H30.44v.74h2.419v6.464zm4.636 1.647h.792v-2.666c.412.597 1.05 1.133 2.038 1.133 1.287 0 2.542-1.03 2.542-2.77 0-1.77-1.266-2.778-2.542-2.778-.978 0-1.605.545-2.038 1.184v-1.07h-.792v6.967zm2.686-2.244c-.988 0-1.925-.823-1.925-2.058 0-1.235.937-2.069 1.925-2.069 1.009 0 1.873.803 1.873 2.059 0 1.307-.844 2.068-1.873 2.068zm5.734.71c.936 0 1.544-.432 1.914-.905v.792h.782V15.7c0-.68-.185-1.194-.556-1.564-.38-.381-.967-.587-1.718-.587-.783 0-1.349.185-1.935.453l.236.648c.494-.226.988-.38 1.616-.38.999 0 1.575.493 1.575 1.44v.165a5.575 5.575 0 00-1.626-.226c-1.349 0-2.275.597-2.275 1.739 0 1.111.988 1.678 1.987 1.678zm.154-.638c-.72 0-1.338-.39-1.338-1.06 0-.658.566-1.09 1.554-1.09.649 0 1.163.113 1.554.226v.494c0 .844-.792 1.43-1.77 1.43zm4.221.525h.793v-2.326h3.067v2.326h.792v-5.32h-.792v2.294h-3.067v-2.295h-.793v5.321zm8.821.124c.998 0 1.636-.432 2.172-1.03l-.525-.483c-.422.453-.926.803-1.606.803-1.111 0-1.955-.916-1.955-2.07 0-1.162.823-2.078 1.904-2.078.72 0 1.214.34 1.636.782l.505-.535c-.495-.525-1.122-.947-2.131-.947-1.554 0-2.727 1.276-2.727 2.779 0 1.513 1.173 2.779 2.727 2.779zm2.844-.124h1.616l.658-1.616h3.047l.659 1.616h1.657l-3.088-7.256h-1.462l-3.087 7.256zm2.84-3.015l.958-2.337.957 2.337h-1.915zm10.057-2.501h-4.858v1.338h1.636v4.178h1.585v-4.178h1.637v-1.338zm1.512 0c0 3.91-.308 4.25-.895 4.25a3.37 3.37 0 01-.33-.03l-.103 1.266c.206.051.587.092.793.092 1.38 0 2.007-.587 2.007-4.24h1.4v4.178H80.8v-5.516h-4.436zm7.4 5.62c.76 0 1.286-.279 1.666-.7v.596h1.514v-3.2c0-.742-.186-1.349-.597-1.76-.392-.392-1.01-.618-1.863-.618-.937 0-1.534.175-2.141.442l.39 1.194c.505-.185.927-.298 1.524-.298.782 0 1.184.36 1.184 1.008v.093a3.92 3.92 0 00-1.348-.226c-1.308 0-2.224.555-2.224 1.76 0 1.111.855 1.708 1.894 1.708zm.473-1.081c-.505 0-.855-.247-.855-.67 0-.514.412-.782 1.081-.782.38 0 .73.083.998.206v.278c0 .566-.494.968-1.224.968zm9.106-4.54H91.78v2.12h-1.925v-2.12h-1.564v5.517h1.564v-2.11h1.925v2.11h1.564v-5.516zm5.712 0h-4.858v1.339h1.637v4.178h1.585v-4.178h1.636v-1.338zm5.99 0h-1.472l-2.151 3.222v-3.221H99.91v5.516h1.472l2.151-3.21v3.21h1.513v-5.516zm1.397 5.517h1.565v-1.327l.71-.772 1.472 2.1h1.853l-2.285-3.253 2.027-2.264h-1.801l-1.976 2.264v-2.264h-1.565v5.516zm7.857.103c.762 0 1.287-.278 1.667-.7v.597h1.513v-3.2c0-.742-.185-1.349-.597-1.76-.391-.392-1.008-.618-1.862-.618-.937 0-1.534.175-2.141.442l.391 1.194c.504-.185.926-.298 1.523-.298.782 0 1.184.36 1.184 1.008v.093a3.923 3.923 0 00-1.349-.226c-1.307 0-2.223.555-2.223 1.76 0 1.111.854 1.708 1.894 1.708zm.474-1.08c-.505 0-.855-.247-.855-.67 0-.514.412-.782 1.081-.782.381 0 .731.083.998.206v.278c0 .566-.494.968-1.224.968z" fill="#084386"/></svg>