<svg width="40" height="32" fill="none" xmlns="http://www.w3.org/2000/svg"><g clip-path="url(#clip0)"><path d="M7.272 30.939v-2.058c0-.789-.48-1.303-1.304-1.303-.411 0-.857.137-1.166.583-.24-.378-.583-.583-1.097-.583-.344 0-.686.102-.96.48v-.412h-.721v3.293h.72v-1.818c0-.583.309-.857.79-.857.48 0 .72.308.72.857v1.818h.72v-1.818c0-.583.343-.857.788-.857.48 0 .72.308.72.857v1.818h.79zm10.667-3.293h-1.166v-.995h-.72v.995H15.4v.652h.652v1.51c0 .754.308 1.2 1.132 1.2.308 0 .651-.103.892-.24l-.206-.618a1.128 1.128 0 01-.618.172c-.343 0-.48-.206-.48-.55v-1.474h1.166v-.652zm6.106-.069a.967.967 0 00-.858.48v-.41h-.72v3.292h.72v-1.852c0-.549.24-.858.686-.858.137 0 .309.035.446.069l.206-.686c-.137-.034-.343-.034-.48-.034zm-9.227.344c-.343-.24-.823-.343-1.338-.343-.823 0-1.372.411-1.372 1.063 0 .549.412.857 1.132.96l.343.035c.377.068.583.171.583.343 0 .24-.274.411-.754.411s-.858-.171-1.098-.343l-.343.55c.377.273.892.41 1.406.41.96 0 1.51-.445 1.51-1.063 0-.583-.446-.892-1.133-.994l-.342-.035c-.31-.034-.55-.102-.55-.308 0-.24.24-.378.618-.378.412 0 .823.172 1.03.275l.308-.583zm19.14-.343a.967.967 0 00-.858.48v-.412h-.72v3.293h.72v-1.852c0-.549.24-.858.686-.858.137 0 .309.035.446.069l.206-.686c-.137-.034-.343-.034-.48-.034zm-9.193 1.715c0 .994.686 1.715 1.75 1.715.48 0 .823-.103 1.166-.378l-.343-.583c-.275.206-.55.309-.858.309-.583 0-.995-.412-.995-1.063 0-.618.412-1.03.995-1.064.309 0 .583.103.858.31l.343-.584c-.343-.275-.686-.377-1.166-.377-1.064 0-1.75.72-1.75 1.715zm6.654 0v-1.647h-.72v.412c-.24-.309-.583-.48-1.029-.48-.926 0-1.646.72-1.646 1.715 0 .994.72 1.715 1.646 1.715.48 0 .823-.172 1.03-.48v.411h.72v-1.646zm-2.64 0c0-.584.377-1.064.994-1.064.583 0 .995.446.995 1.064 0 .583-.412 1.063-.995 1.063-.617-.035-.995-.48-.995-1.063zm-8.61-1.715c-.96 0-1.647.686-1.647 1.715s.686 1.715 1.681 1.715c.48 0 .96-.138 1.338-.446l-.343-.515a1.639 1.639 0 01-.96.343c-.446 0-.892-.206-.995-.789h2.435v-.274c.034-1.063-.583-1.75-1.51-1.75zm0 .617c.446 0 .755.274.823.789h-1.715c.069-.446.377-.789.892-.789zm17.87 1.098v-2.95h-.72v1.715c-.24-.309-.583-.48-1.029-.48-.926 0-1.646.72-1.646 1.715 0 .994.72 1.715 1.646 1.715.48 0 .823-.172 1.03-.48v.411h.72v-1.646zm-2.64 0c0-.584.377-1.064.994-1.064.583 0 .995.446.995 1.064 0 .583-.412 1.063-.995 1.063-.617-.035-.995-.48-.995-1.063zm-24.08 0v-1.647h-.72v.412c-.24-.309-.583-.48-1.03-.48-.925 0-1.646.72-1.646 1.715 0 .994.72 1.715 1.647 1.715.48 0 .823-.172 1.029-.48v.411h.72v-1.646zm-2.675 0c0-.584.377-1.064.994-1.064.584 0 .995.446.995 1.064 0 .583-.411 1.063-.995 1.063-.617-.035-.994-.48-.994-1.063z" fill="#000"/><path d="M14.578 2.641h10.805v19.414H14.578V2.641z" fill="#FF5F00"/><path d="M15.264 12.348c0-3.944 1.852-7.443 4.699-9.707A12.272 12.272 0 0012.348 0C5.522 0 0 5.522 0 12.348c0 6.826 5.522 12.349 12.348 12.349a12.27 12.27 0 007.615-2.642 12.33 12.33 0 01-4.7-9.707z" fill="#EB001B"/><path d="M39.96 12.348c0 6.826-5.522 12.349-12.348 12.349-2.881 0-5.522-.995-7.615-2.642a12.278 12.278 0 004.7-9.707c0-3.944-1.853-7.443-4.7-9.707A12.272 12.272 0 0127.612 0C34.438 0 39.96 5.557 39.96 12.348z" fill="#F79E1B"/></g><defs><clipPath id="clip0"><path fill="#fff" d="M0 0h40v31.094H0z"/></clipPath></defs></svg>