<svg width="79" height="79" fill="none" xmlns="http://www.w3.org/2000/svg"><path d="M3.703 60.484h32.094v9.875H3.703v-9.875z" fill="gray"/><path d="M35.797 60.484h39.5v9.875h-39.5v-9.875z" fill="#4D4D4D"/><path d="M6.172 70.36h4.937v4.937H6.172v-4.938zm27.156 0h4.938v4.937h-4.938v-4.938zm34.562 0h4.938v4.937h-4.937v-4.938z" fill="#3D3D3D"/><path d="M3.703 58.016a2.469 2.469 0 012.469-2.47h32.094v4.938H6.172a2.469 2.469 0 01-2.469-2.468z" fill="#CCC"/><path d="M72.828 55.547H38.266a2.469 2.469 0 000 4.937h34.562a2.469 2.469 0 100-4.937z" fill="#B3B3B3"/><path d="M6.172 20.984h34.562v34.563H6.172V20.984z" fill="#FC7"/><path d="M40.734 20.984h19.75v34.563h-19.75V20.984zm-20.984 0h7.406v7.407H19.75v-7.407z" fill="#FCB73F"/><path d="M13.578 33.328h19.75v14.813h-19.75V33.328z" fill="#F2E368"/><path d="M65.422 16.047h4.937v39.5h-4.937v-39.5z" fill="#CCC"/><path d="M44.438 3.703h25.921v12.344H44.438V3.703z" fill="#65DCFF"/><path d="M70.36 3.703h4.937v12.344h-4.938V3.703z" fill="#E6E6E6"/><path d="M13.578 49.375h19.75a1.235 1.235 0 001.234-1.234V33.328a1.235 1.235 0 00-1.234-1.234h-19.75a1.234 1.234 0 00-1.234 1.234v14.813a1.234 1.234 0 001.234 1.234zm1.235-14.813h17.28v12.344h-17.28V34.563z" fill="#000"/><path d="M17.281 37.031h4.938V39.5H17.28v-2.469zm7.407 4.938h4.937v2.468h-4.938V41.97z" fill="#000"/><path d="M75.297 17.281a1.234 1.234 0 001.234-1.234V3.703a1.234 1.234 0 00-1.234-1.234h-30.86a1.234 1.234 0 00-1.234 1.234v12.344a1.234 1.234 0 001.234 1.234h19.75v37.032H61.72v-33.33a1.235 1.235 0 00-1.235-1.234H6.172a1.235 1.235 0 00-1.234 1.234v33.54a3.702 3.702 0 00-2.107 5.087 1.23 1.23 0 00-.362.873v9.875a1.234 1.234 0 001.234 1.235h1.235v3.703a1.234 1.234 0 001.234 1.234h4.937a1.234 1.234 0 001.235-1.234v-3.703h19.75v3.703a1.234 1.234 0 001.234 1.234h4.938a1.234 1.234 0 001.234-1.234v-3.703h27.156v3.703a1.234 1.234 0 001.235 1.234h4.937a1.234 1.234 0 001.234-1.234v-3.703h1.235a1.234 1.234 0 001.234-1.235v-9.875a1.229 1.229 0 00-.362-.873 3.702 3.702 0 00-3.34-5.298h-1.235V17.28h3.703zm-1.234-2.468h-2.47V4.937h2.47v9.875zM45.672 4.937h23.453v9.875H45.672V4.938zM59.25 22.22v32.093H41.969V22.22H59.25zm-33.328 0v4.937h-4.938V22.22h4.938zm-7.406 0v6.172a1.235 1.235 0 001.234 1.234h7.406a1.235 1.235 0 001.235-1.234V22.22H39.5v32.093H7.406V22.22h11.11zM6.172 56.78h28.603a3.694 3.694 0 000 2.469H6.172a1.235 1.235 0 010-2.469zM4.938 69.125v-7.406h29.625v7.406H4.936zm4.937 4.938H7.406v-2.47h2.469v2.47zm27.156 0h-2.468v-2.47h2.468v2.47zm34.563 0h-2.469v-2.47h2.469v2.47zm2.469-4.938H37.03v-7.406h37.032v7.406zm0-11.11a1.235 1.235 0 01-1.235 1.235H38.266a1.235 1.235 0 010-2.469h34.562a1.236 1.236 0 011.234 1.235zm-7.407-3.703v-37.03h2.469v37.03h-2.469z" fill="#000"/><path d="M48.14 8.64h2.47v2.47h-2.47V8.64zm4.938 0h2.469v2.47h-2.469V8.64zm8.641 0h4.937v2.47H61.72V8.64zM44.438 49.375h2.468v2.469h-2.468v-2.469zm4.937 0h2.469v2.469h-2.469v-2.469zm4.938 0h2.468v2.469h-2.468v-2.469z" fill="#000"/></svg>