<svg width="79" height="79" fill="none" xmlns="http://www.w3.org/2000/svg"><path d="M20.984 6.172h32.094v39.5H20.984v-39.5z" fill="#FC7"/><path d="M53.078 6.172h22.219v39.5H53.078v-39.5zm-19.75 0h7.406v7.406h-7.406V6.172z" fill="#FCB73F"/><path d="M24.688 72.828c11.589 0 20.984-9.395 20.984-20.984 0-11.59-9.395-20.985-20.984-20.985-11.59 0-20.985 9.395-20.985 20.985s9.395 20.984 20.985 20.984z" fill="#42C25E"/><path d="M35.833 61.203l-9.875 5.925a2.47 2.47 0 01-2.54 0l-9.876-5.925a2.468 2.468 0 01-1.198-2.116V43.203a2.469 2.469 0 012.469-2.469h19.75a2.469 2.469 0 012.468 2.47v15.883a2.468 2.468 0 01-1.198 2.116z" fill="#CCC"/><path d="M31.544 57.148l-6.172 4.114a1.234 1.234 0 01-1.37 0l-6.171-4.114a1.235 1.235 0 01-.55-1.027V41.969a1.234 1.234 0 011.235-1.235h12.343a1.234 1.234 0 011.235 1.235V56.12a1.235 1.235 0 01-.55 1.027z" fill="#E6E6E6"/><path d="M75.297 4.938H20.984a1.234 1.234 0 00-1.234 1.234v20.984h2.469V7.406h9.875v6.172a1.234 1.234 0 001.234 1.235h7.406a1.234 1.234 0 001.235-1.235V7.406h9.875v37.032h-2.469v2.468h25.922a1.234 1.234 0 001.234-1.234v-39.5a1.234 1.234 0 00-1.234-1.234zM39.5 12.343h-4.938V7.406H39.5v4.938zm34.563 32.093h-19.75V7.407h19.75v37.03z" fill="#000"/><path d="M69.125 39.5h2.469v2.469h-2.469V39.5zm-4.937 0h2.468v2.469h-2.469V39.5zm-4.938 0h2.469v2.469H59.25V39.5zm-34.562-9.875c-12.252 0-22.22 9.967-22.22 22.219 0 12.251 9.968 22.218 22.22 22.218 12.251 0 22.218-9.967 22.218-22.218 0-12.252-9.967-22.219-22.218-22.219zm0 41.969a19.75 19.75 0 1119.75-19.75 19.772 19.772 0 01-19.75 19.75z" fill="#000"/><path d="M34.563 39.5h-19.75a3.707 3.707 0 00-3.704 3.703v15.884a3.721 3.721 0 001.798 3.175l9.875 5.925a3.697 3.697 0 003.81 0l9.876-5.925a3.722 3.722 0 001.798-3.175V43.203a3.707 3.707 0 00-3.703-3.703zm-3.704 2.469V56.12l.685 1.027-.685-1.027-6.172 4.114-6.171-4.114V41.969h12.343zm4.938 17.118a1.24 1.24 0 01-.6 1.058l-9.875 5.925a1.232 1.232 0 01-1.27 0l-9.874-5.925a1.24 1.24 0 01-.6-1.058V43.203a1.236 1.236 0 011.235-1.234h1.234V56.12a2.463 2.463 0 001.1 2.054l6.171 4.114a2.463 2.463 0 002.739 0l6.172-4.114a2.462 2.462 0 001.1-2.054V41.969h1.233a1.235 1.235 0 011.235 1.234v15.884z" fill="#000"/></svg>