<svg width="79" height="79" fill="none" xmlns="http://www.w3.org/2000/svg"><path d="M13.578 48.14h32.094v27.157H13.578V48.14z" fill="#FCB73F"/><path d="M45.672 48.14h19.75v27.157h-19.75V48.14z" fill="#FDA725"/><path d="M13.578 48.14l-9.875 9.876h32.094l9.875-9.875H13.578z" fill="#FC7"/><path d="M65.422 48.14l9.875 9.876h-19.75l-9.875-9.875h19.75z" fill="#FCB73F"/><path d="M28.39 25.922l-6.171-4.938-6.172 4.938v17.281H28.39V25.922z" fill="#E6E6E6"/><path d="M41.969 25.922v17.281H28.39V25.922l-6.172-4.938H37.03l4.938 4.938z" fill="#65DCFF"/><path d="M22.219 16.047H37.03v4.937H22.22v-4.937z" fill="#57C1FF"/><path d="M16.047 43.203l6.172-6.172 6.172 6.172H16.047z" fill="#CCC"/><path d="M53.078 13.578h4.938v4.938h-4.938v-4.938z" fill="#BC8D5D"/><path d="M62.953 24.688v18.515H48.141V24.687a2.465 2.465 0 012.468-2.468 2.47 2.47 0 002.47-2.469v-1.234h4.937v1.234a2.469 2.469 0 002.468 2.469 2.469 2.469 0 012.47 2.468z" fill="#42C25E"/><path d="M53.078 27.156h9.875v11.11h-9.875v-11.11z" fill="#BC8D5D"/><path d="M33.328 30.86h8.64v7.406h-8.64v-7.407z" fill="#E6E6E6"/><path d="M59.25 69.125h2.469v2.469H59.25v-2.469zm-4.937 0h2.468v2.469h-2.468v-2.469zm-4.938 0h2.469v2.469h-2.469v-2.469z" fill="#000"/><path d="M76.17 57.143l-9.875-9.875a1.234 1.234 0 00-.873-.362H13.578c-.327 0-.641.13-.872.362L2.83 57.143a1.235 1.235 0 00.873 2.107h8.64v16.047a1.234 1.234 0 001.235 1.234h51.844a1.234 1.234 0 001.234-1.234V59.25h8.641a1.235 1.235 0 00.873-2.107zm-62.08-7.768h28.602l-7.406 7.406H6.683l7.406-7.406zm.723 24.688V59.25h20.984c.327 0 .641-.13.873-.361l7.768-7.768v22.941H14.813zm49.375 0H46.906V51.12l7.768 7.767c.232.232.546.362.873.362h8.64v14.813zm-8.13-17.282l-7.406-7.406h16.259l7.406 7.406H56.058zM16.047 44.438h25.922a1.235 1.235 0 001.234-1.235V25.922c0-.328-.13-.642-.361-.873l-4.576-4.576v-4.426a1.234 1.234 0 00-1.235-1.235H22.22a1.235 1.235 0 00-1.235 1.235v4.344l-5.708 4.567a1.234 1.234 0 00-.463.964v17.281a1.235 1.235 0 001.234 1.234zm6.172-5.661l3.192 3.192h-6.384l3.192-3.192zm7.406 3.192V25.922a1.235 1.235 0 00-.463-.964l-3.424-2.74H36.52l2.469 2.47h-6.895v2.468h8.64v2.469h-7.406a1.235 1.235 0 00-1.234 1.234v7.407a1.234 1.234 0 001.234 1.234h7.406v2.469H29.625zm11.11-9.875v4.937h-6.172v-4.937h6.171zM23.452 17.28h12.344v2.469H23.453V17.28zm-1.234 5.284l4.937 3.95v13.708l-3.703-3.703v-9.364h-2.469v9.364l-3.703 3.703V26.515l4.938-3.95zM48.14 44.438h14.813a1.235 1.235 0 001.234-1.235V24.687a3.707 3.707 0 00-3.703-3.703 1.236 1.236 0 01-1.234-1.234v-6.172a1.235 1.235 0 00-1.234-1.234h-4.938a1.234 1.234 0 00-1.234 1.234v6.172a1.236 1.236 0 01-1.235 1.234 3.707 3.707 0 00-3.703 3.703v18.516a1.235 1.235 0 001.235 1.234zm13.58-7.408h-7.407v-8.64h7.407v8.64zm-4.94-22.217v2.468h-2.468v-2.468h2.468zm-7.406 9.874a1.235 1.235 0 011.234-1.234 3.707 3.707 0 003.703-3.703h2.47a3.708 3.708 0 003.702 3.703 1.236 1.236 0 011.235 1.235v1.234h-8.64a1.234 1.234 0 00-1.235 1.234v11.11a1.234 1.234 0 001.234 1.234h8.64v2.469H49.376V24.687zm2.47-17.281h2.468v2.469h-2.468V7.406zm4.937 0h2.469v2.469h-2.469V7.406zm-20.984 0h2.469v4.938h-2.47V7.406zm0-4.937h2.469v2.469h-2.47v-2.47zM30.86 9.875h2.468v2.469H30.86V9.875zm0-4.937h2.468v2.468H30.86V4.938zm-4.938 2.468h2.469v4.938h-2.47V7.406zm0-4.937h2.469v2.469h-2.47v-2.47zm-4.938 7.406h2.47v2.469h-2.47V9.875zm0-4.937h2.47v2.468h-2.47V4.938zm30.86-2.469h2.468v2.469h-2.468v-2.47zm4.937 0h2.469v2.469h-2.469v-2.47z" fill="#000"/></svg>