<svg width="714" height="465" fill="none" xmlns="http://www.w3.org/2000/svg"><path d="M462.229 103.569h162.367s-.791-7.297-18.825-13.18c-18.035-5.884-30.988 9.118-51.371 0-20.382-9.12-31.215-22.193-57.517-14.907-26.302 7.285-34.654 28.087-34.654 28.087z" stroke="#fff" stroke-width="2.22" stroke-miterlimit="10"/><path d="M81.223 162.561h111.069s-.527-5.368-12.87-9.658c-12.342-4.29-21.197 6.71-35.145 0-13.948-6.711-21.354-16.333-39.328-10.965a37.498 37.498 0 0 0-23.726 20.623z" stroke="#fff" stroke-width="1.75" stroke-miterlimit="10"/><path d="M631.941 216.554a6.473 6.473 0 0 1-11.075 4.463 6.474 6.474 0 0 1-1.366-7.042 6.478 6.478 0 0 1 5.97-3.975 6.519 6.519 0 0 1 6.471 6.554v0zM261.265 8.09a6.46 6.46 0 0 1-11.059 4.438 6.46 6.46 0 0 1 4.6-10.992 6.508 6.508 0 0 1 6.459 6.555z" stroke="#fff" stroke-width="1.93" stroke-miterlimit="10"/><path d="M568.025 33.327a4.694 4.694 0 0 1-2.965 4.27 4.698 4.698 0 1 1-1.732-9.064 4.793 4.793 0 0 1 4.697 4.794z" fill="#fff"/><path d="M52.227 249.245c5.096 0 9.227-4.19 9.227-9.359 0-5.168-4.131-9.358-9.227-9.358S43 234.718 43 239.886c0 5.169 4.131 9.359 9.227 9.359z" stroke="#fff" stroke-width="1.93" stroke-miterlimit="10"/><path d="M472.197 381.897c-14.227-15.161-24.389-33.148-20.324-54.65 1.687-8.861 3.394-16.259-2.52-23.941-2.784-3.638-6.097-6.869-8.129-10.975-5.955-11.93-1.484-24.388 3.617-35.769 3.78-8.333 7.804-16.767 9.288-25.872 1.585-9.613-.996-19.186-.406-28.839.548-9.349 5.385-19.694 14.511-21.787 6.097-1.403 12.438 1.28 17.193 5.284a33.599 33.599 0 0 1 10.955 17.986c2.195 9.532.223 20.039 4.593 28.778 3.841 7.703 11.828 12.378 17.234 19.105a34.038 34.038 0 0 1 7.114 25.729c-1.078 7.54-4.695 14.593-5.447 22.173-1.687 17.072 11.178 32.965 9.918 50.057a37.038 37.038 0 0 1-14.227 25.384c-8.8 7.114-21.787 12.52-33.229 11.056a22.72 22.72 0 0 1-15.527-8.983" fill="#C1CCFF"/><path d="M493.252 375.149a1.26 1.26 0 0 1-1.24-1.117l-8.658-74.385-9.349-79.668a1.284 1.284 0 0 1 1.118-1.402 1.3 1.3 0 0 1 1.382 1.097l9.349 79.689 8.658 74.384a1.259 1.259 0 0 1-1.098 1.402h-.162z" fill="#fff"/><path d="M484.675 300.765a1.234 1.234 0 0 1-.63-.183 1.28 1.28 0 0 1-.447-1.727l19.978-33.616a1.27 1.27 0 0 1 1.292-.725 1.27 1.27 0 0 1 .882.524 1.248 1.248 0 0 1 .2 1.006 1.262 1.262 0 0 1-.22.476l-19.957 33.635a1.286 1.286 0 0 1-1.098.61zm-3.557-22.315a1.174 1.174 0 0 1-.508-.203l-26.42-12.56a1.262 1.262 0 0 1-.59-1.687 1.236 1.236 0 0 1 1.194-.713c.164.01.325.052.473.124l26.42 12.56a1.236 1.236 0 0 1 .59 1.666 1.263 1.263 0 0 1-1.159.813zm7.114 54.427a1.091 1.091 0 0 1-.488-.122l-22.193-9.634a1.233 1.233 0 0 1-.758-1.168 1.263 1.263 0 0 1 1.753-1.128l22.194 9.633a1.265 1.265 0 0 1 .737 1.418 1.258 1.258 0 0 1-1.245 1.001z" fill="#fff"/><path d="M422.392 395.138c-10.262-10.957-17.592-23.956-14.66-39.496 1.217-6.404 2.449-11.75-1.817-17.302-2.009-2.629-4.398-4.965-5.864-7.932-4.295-8.622-1.07-17.625 2.609-25.851 2.727-6.022 5.629-12.117 6.7-18.697 1.143-6.948-.719-13.866-.294-20.843.396-6.756 3.885-14.232 10.467-15.745 4.398-1.014 8.972.925 12.402 3.819a24.279 24.279 0 0 1 7.902 12.999c1.583 6.888.161 14.482 3.313 20.798 2.771 5.567 8.532 8.945 12.431 13.807a24.619 24.619 0 0 1 5.131 18.594c-.777 5.45-3.386 10.546-3.929 16.025-1.216 12.338 8.063 23.824 7.154 36.177a26.78 26.78 0 0 1-10.261 18.345c-6.348 5.141-15.716 9.048-23.969 7.99a16.4 16.4 0 0 1-11.2-6.492" fill="#C1CCFF"/><path d="M437.134 390a.838.838 0 0 1-.567-.232.917.917 0 0 1-.279-.568l-5.906-53.207-6.377-56.987a.946.946 0 0 1 .185-.665.868.868 0 0 1 .577-.339.86.86 0 0 1 .618.2.936.936 0 0 1 .325.585l6.378 57.002 5.906 53.208a.933.933 0 0 1-.177.664.85.85 0 0 1-.572.339h-.111z" fill="#fff"/><path d="M430.939 337a.971.971 0 0 1-.475-.131.922.922 0 0 1-.433-.555.88.88 0 0 1 .095-.684l15.061-24.104a.943.943 0 0 1 .581-.485.985.985 0 0 1 1.058.341.877.877 0 0 1 .151.721.882.882 0 0 1-.166.341l-15.045 24.119a.944.944 0 0 1-.354.321.997.997 0 0 1-.473.116zm-1.871-16a.856.856 0 0 1-.369-.148l-19.179-9.11a.917.917 0 0 1-.518-.877.91.91 0 0 1 .09-.347.894.894 0 0 1 .866-.517c.12.007.236.038.344.09l19.179 9.11a.912.912 0 0 1 .467.515c.04.113.057.232.051.351a.909.909 0 0 1-.09.343.914.914 0 0 1-.841.59zm5.005 39a.773.773 0 0 1-.355-.09l-16.166-7.135a.898.898 0 0 1-.489-.508.947.947 0 0 1 .015-.711.928.928 0 0 1 .502-.491.906.906 0 0 1 .697.009l16.166 7.135a.926.926 0 0 1 .453.427.945.945 0 0 1-.239 1.158.91.91 0 0 1-.584.206z" fill="#fff"/><path d="M477.399 366.492a21.95 21.95 0 0 1 .529-10.832c3.617-9.776 13.413-16.056 20.466-23.149 8.373-8.434 14.714-19.47 15.324-31.359.467-9.634 2.947-17.662 9.999-24.693 7.052-7.032 15.527-11.869 22.783-18.393a152.957 152.957 0 0 0 20.689-22.499c5.162-6.971 14.755-17.315 21.279-5.101a22.361 22.361 0 0 1 1.809 15.975c-3.72 13.942-17.032 22.579-23.068 35.302-3.048 6.442-3.719 13.454-4.755 20.323-.915 6.26-2.398 13.211-7.114 17.783-2.743 2.663-6.097 4.573-8.657 7.459-3.476 4.065-4.655 9.308-6.097 14.227a77.237 77.237 0 0 1-6.281 15.1c-6.34 12.377-15.527 26.685-29.042 31.806a19.32 19.32 0 0 1-12.397.956c-8.922-2.663-14.064-14.328-15.467-22.905z" fill="#D8EFFF"/><path d="M499.41 373.767a1.17 1.17 0 0 1-.57-.142 1.26 1.26 0 0 1-.548-1.687l47.354-91.923a1.258 1.258 0 0 1 1.687-.549 1.263 1.263 0 0 1 .548 1.687l-47.354 91.944a1.255 1.255 0 0 1-1.117.67z" fill="#fff"/><path d="M527.354 318.142a1.26 1.26 0 0 1-1.26-1.219l-.447-32.518a1.246 1.246 0 0 1 .355-.897 1.263 1.263 0 0 1 .885-.383 1.217 1.217 0 0 1 1.26 1.24l.467 32.517a1.236 1.236 0 0 1-1.239 1.26h-.021zm-4.491 11.747a1.26 1.26 0 0 1-.589-2.378l25.404-13.373a1.267 1.267 0 0 1 1.471.062 1.261 1.261 0 0 1-.292 2.153l-25.364 13.393a1.477 1.477 0 0 1-.63.143zm-19.511 34.184a1.253 1.253 0 0 1-.796-.278 1.254 1.254 0 0 1-.443-.718l-3.903-19.348a1.266 1.266 0 0 1 2.48-.508l3.902 19.348a1.278 1.278 0 0 1-.189.949 1.274 1.274 0 0 1-.807.535l-.244.02z" fill="#fff"/><path d="M490.94 371.952c.221-2.4-.171-4.816-1.14-7.025-3.093-6.123-9.994-9.597-15.136-13.628a32.49 32.49 0 0 1-12.372-19.366 22.987 22.987 0 0 0-8.37-15.356c-5.064-4.011-11.076-6.602-16.315-10.345a99.722 99.722 0 0 1-15.252-13.206c-3.866-4.165-10.979-10.23-14.362-1.766a14.526 14.526 0 0 0 0 10.557c3.479 8.829 12.855 13.436 17.765 21.363a46.019 46.019 0 0 1 4.6 12.975c1.063 4.012 2.552 8.446 5.973 11.094 1.933 1.536 4.388 2.534 6.244 4.242a22.997 22.997 0 0 1 5.007 8.906 50.921 50.921 0 0 0 5.219 9.405c5.084 7.678 12.159 16.296 21.418 18.657a12.87 12.87 0 0 0 8.235-.288c5.664-2.534 8.196-10.518 8.486-16.219z" fill="#A1ADE4"/><path d="M477.745 377.405a1.222 1.222 0 0 1-1.036-.548l-39.774-59.996a1.257 1.257 0 0 1 .803-1.932 1.259 1.259 0 0 1 1.291.55l39.773 59.894a1.266 1.266 0 0 1 .18.95 1.273 1.273 0 0 1-.546.798 1.192 1.192 0 0 1-.691.284z" fill="#fff"/><path d="M454.19 341.128a1.257 1.257 0 0 1-1.24-1.138l-2.195-22.478a1.262 1.262 0 0 1 2.052-1.086 1.235 1.235 0 0 1 .448.842l2.195 22.478a1.26 1.26 0 0 1-1.138 1.362l-.122.02zm4.065 7.743c-.155.03-.313.03-.468 0l-18.555-7.296a1.26 1.26 0 0 1-.712-1.626 1.26 1.26 0 0 1 1.626-.711l18.576 7.296a1.26 1.26 0 0 1 .691 1.626 1.197 1.197 0 0 1-1.158.711zm16.035 22.153h-.122a1.258 1.258 0 0 1-1.138-1.362l1.219-13.657a1.215 1.215 0 0 1 .436-.863 1.205 1.205 0 0 1 .926-.275 1.258 1.258 0 0 1 1.138 1.362l-1.219 13.657a1.284 1.284 0 0 1-1.24 1.138z" fill="#fff"/><path d="M191.957 390.21c-14.226-15.162-24.388-33.148-20.323-54.65 1.707-8.861 3.414-16.259-2.5-23.942-2.805-3.637-6.097-6.869-8.252-10.974-5.954-11.93-1.483-24.389 3.638-35.77 3.76-8.332 7.784-16.767 9.288-25.872 1.565-9.613-.996-19.185-.427-28.839.549-9.349 5.386-19.693 14.511-21.787 6.098-1.402 12.439 1.281 17.194 5.284a33.638 33.638 0 0 1 10.975 17.987c2.175 9.532.203 20.039 4.573 28.778 3.861 7.703 11.848 12.377 17.234 19.104a33.876 33.876 0 0 1 7.073 25.75c-1.057 7.54-4.675 14.592-5.427 22.173-1.707 17.072 11.178 32.965 9.898 50.057a37.01 37.01 0 0 1-14.227 25.384c-8.82 7.114-21.786 12.52-33.229 11.056a22.792 22.792 0 0 1-15.547-8.983" fill="#D8EFFF"/><path d="M253.288 407.159c-7.788-14.86-11.795-31.023-3.955-46.803 3.256-6.496 6.194-11.858 3.257-19.105-1.395-3.433-3.257-6.657-4.043-10.31-2.046-10.549 4.145-19.23 10.608-26.933 4.741-5.639 9.709-11.298 12.859-18.027 3.309-7.11 3.394-15.09 5.936-22.449 2.459-7.128 8.476-14.09 16.04-13.72 5.055.245 9.411 3.71 12.246 7.852a27.054 27.054 0 0 1 4.64 16.34c-.377 7.864-4.197 15.579-2.692 23.308 1.334 6.814 6.54 12.182 9.274 18.573a27.236 27.236 0 0 1 2.174 10.768 27.142 27.142 0 0 1-2.261 10.738c-2.462 5.614-6.813 10.291-9.047 16.003-5.04 12.861 1.544 27.996-3.169 40.966a29.694 29.694 0 0 1-6.591 9.982 29.848 29.848 0 0 1-10.009 6.588c-8.418 3.587-19.694 4.946-28.29 1.312a18.486 18.486 0 0 1-6.145-4.144 18.401 18.401 0 0 1-4.015-6.215" fill="#D8EFFF"/><path d="M213.013 383.462a1.24 1.24 0 0 1-1.24-1.118l-8.678-74.384-9.329-79.668a1.261 1.261 0 0 1 1.098-1.403 1.323 1.323 0 0 1 1.402 1.098l9.288 79.689 8.658 74.384a1.26 1.26 0 0 1-1.097 1.402h-.102z" fill="#fff"/><path d="M204.355 309.077a1.256 1.256 0 0 1-1.258-1.278c.003-.223.065-.441.18-.632l19.958-33.615a1.278 1.278 0 0 1 1.728-.447 1.26 1.26 0 0 1 .427 1.727l-19.958 33.636a1.285 1.285 0 0 1-1.077.609zm-3.475-22.315a1.332 1.332 0 0 1-.549-.122l-26.421-12.56a1.252 1.252 0 0 1-.714-1.209c.01-.166.052-.328.125-.478a1.247 1.247 0 0 1 .71-.643 1.224 1.224 0 0 1 .956.054l26.421 12.56a1.236 1.236 0 0 1 .713 1.194 1.22 1.22 0 0 1-.124.473 1.217 1.217 0 0 1-1.117.731zm7.113 54.427a1.094 1.094 0 0 1-.508-.122l-22.254-9.633a1.26 1.26 0 0 1-.651-1.646 1.283 1.283 0 0 1 1.667-.651l22.173 9.634c.266.114.485.316.62.572a1.265 1.265 0 0 1-.315 1.559 1.259 1.259 0 0 1-.793.287h.061zm62.465 48.63a1.235 1.235 0 0 1-.479-1.599l31.2-68.08 33.388-72.934a1.263 1.263 0 0 1 1.666-.628 1.323 1.323 0 0 1 .629 1.666l-33.433 72.93-31.218 68.069a1.263 1.263 0 0 1-1.666.628l-.087-.052z" fill="#fff"/><path d="M301.676 321.749a1.265 1.265 0 0 1-.603-1.117 1.254 1.254 0 0 1 .674-1.075l34.509-18.369a1.283 1.283 0 0 1 1.709.515 1.26 1.26 0 0 1-.532 1.698l-34.52 18.386a1.276 1.276 0 0 1-1.237-.038zm8.615-20.876a1.37 1.37 0 0 1-.406-.389l-16.06-24.452a1.262 1.262 0 0 1 .372-1.748 1.243 1.243 0 0 1 1.73.362l16.061 24.451a1.243 1.243 0 0 1-.362 1.731 1.222 1.222 0 0 1-1.335.045zm-22.177 50.21a1.106 1.106 0 0 1-.371-.368l-14.019-19.787a1.263 1.263 0 0 1 .299-1.745 1.283 1.283 0 0 1 1.762.31l13.95 19.744a1.263 1.263 0 0 1-.846 1.98 1.256 1.256 0 0 1-.827-.166l.052.032z" fill="#fff"/><path d="M197.16 374.805a22.225 22.225 0 0 1 .508-10.833c3.618-9.776 13.414-16.056 20.466-23.148 8.394-8.435 14.715-19.471 15.324-31.36.488-9.633 2.967-17.661 10.02-24.693 7.052-7.032 15.507-11.869 22.762-18.393a151.917 151.917 0 0 0 20.608-22.498c5.183-6.971 14.776-17.316 21.279-5.101a22.148 22.148 0 0 1 1.829 15.974c-3.739 13.942-17.031 22.58-23.087 35.302-3.049 6.443-3.699 13.454-4.736 20.324-.935 6.259-2.418 13.21-7.113 17.783-2.744 2.662-6.097 4.573-8.658 7.459-3.496 4.064-4.674 9.308-6.097 14.226a78.308 78.308 0 0 1-6.26 15.101c-6.361 12.377-15.527 26.684-29.062 31.806a19.303 19.303 0 0 1-12.398.955c-8.841-2.662-13.982-14.328-15.385-22.904z" fill="#A1ADE4"/><path d="M219.15 382.08a1.191 1.191 0 0 1-.569-.142 1.241 1.241 0 0 1-.528-1.687l47.313-91.924a1.26 1.26 0 0 1 1.687-.549 1.252 1.252 0 0 1 .629.728 1.223 1.223 0 0 1-.08.959l-47.334 91.944a1.216 1.216 0 0 1-1.118.671z" fill="#fff"/><path d="M247.177 326.454a1.241 1.241 0 0 1-1.24-1.219l-.467-32.518a1.283 1.283 0 0 1 1.239-1.28 1.251 1.251 0 0 1 .897.355 1.258 1.258 0 0 1 .384.885l.447 32.517a1.238 1.238 0 0 1-1.24 1.26h-.02zm-4.573 11.747a1.235 1.235 0 0 1-1.097-.67 1.262 1.262 0 0 1 .508-1.708l25.364-13.373a1.26 1.26 0 1 1 1.178 2.216l-25.364 13.393a1.482 1.482 0 0 1-.589.142zm-19.511 34.185a1.26 1.26 0 0 1-1.219-.996l-3.902-19.348a1.259 1.259 0 0 1 2.459-.508l3.902 19.348a1.257 1.257 0 0 1-.975 1.483l-.265.021z" fill="#fff"/><path d="M210.249 379.052a15.186 15.186 0 0 0-1.179-7.438c-3.252-6.483-10.507-10.162-15.934-14.43-6.442-5.203-11.665-12.336-12.986-20.506a24.392 24.392 0 0 0-8.821-16.259c-5.325-4.248-11.625-6.992-17.153-10.955a106.066 106.066 0 0 1-16.035-13.982c-4.065-4.411-11.524-10.833-15.08-1.87a15.258 15.258 0 0 0 0 11.178c3.638 9.349 13.494 14.226 18.657 22.62a48.955 48.955 0 0 1 4.837 13.739c1.138 4.247 2.682 8.942 6.3 11.747 2.032 1.626 4.593 2.682 6.544 4.491a24.151 24.151 0 0 1 5.264 9.43 55.292 55.292 0 0 0 5.487 9.959c5.345 8.129 12.784 17.255 22.539 19.754 2.834.859 5.872.752 8.638-.304 5.955-2.683 8.617-11.138 8.922-17.174z" fill="#C1CCFF"/><path d="M197.424 385.718a1.26 1.26 0 0 1-1.056-.549l-39.591-59.995a1.259 1.259 0 0 1 .818-1.931 1.233 1.233 0 0 1 .937.198c.135.093.25.213.339.351l39.773 59.894a1.257 1.257 0 0 1-.346 1.748 1.28 1.28 0 0 1-.874.284z" fill="#fff"/><path d="M173.849 349.441a1.265 1.265 0 0 1-1.24-1.138l-2.174-22.478a1.243 1.243 0 0 1 .651-1.222c.145-.077.303-.125.467-.14a1.257 1.257 0 0 1 1.382 1.118l2.134 22.478a1.262 1.262 0 0 1-1.139 1.362l-.081.02zm4.065 7.743a1.16 1.16 0 0 1-.447 0l-18.657-7.378a1.258 1.258 0 0 1-.691-1.626 1.24 1.24 0 0 1 1.626-.711l18.555 7.296a1.26 1.26 0 0 1 .28 2.185 1.239 1.239 0 0 1-.666.234zm16.116 22.152h-.122a1.258 1.258 0 0 1-1.138-1.362l1.22-13.657a1.224 1.224 0 0 1 .441-.856 1.231 1.231 0 0 1 .92-.282 1.26 1.26 0 0 1 1.138 1.362l-1.219 13.657a1.241 1.241 0 0 1-1.24 1.138z" fill="#fff"/><path d="M454.021 309.938l-1.894-33.648" stroke="#FBF4EF" stroke-width="1.05" stroke-miterlimit="10"/><path d="M.807 398.167h712.21m-549.196 19.879L60.469 464h588.033l-100.524-45.954H163.821z" stroke="#D8EFFF" stroke-width="1.91" stroke-miterlimit="10"/><path d="M318.327 327.276l-20.299 32.989 38.944 46.241h39.268l36.62-47.02-22.672-32.21h-71.861z" fill="#8B383E"/><path d="M298.028 360.265s-87.331 6.758-109.247 29.634c-21.917 22.875-9.275 38.033 9.742 47.715 26.769 13.625 105.82 10.701 155.872-5.847l8.185-47.704-64.552-23.798z" fill="#8B383E"/><path d="M410.595 359.127s91.453 7.896 113.369 30.772c21.917 22.875 9.275 38.033-9.742 47.715-26.769 13.625-123.267 11.36-173.319-5.188l9.263-48.363 60.429-24.936z" fill="#8B383E"/><path d="M431.085 398.167l-19.664-2.337-2.995-7.753 7.705-3.427s-1.067-10.964 8.388-12.785c9.454-1.822 20.67 5.787 31.61.874 10.102-4.517 22.456-8.675 33.972-2.396a4.099 4.099 0 0 1 1.929 4.793v.132a4.108 4.108 0 0 1-4.35 2.816 29.787 29.787 0 0 0-18.477 4.014c-7.19 4.398-24.793 11.204-38.034 16.081l-.084-.012z" fill="#FFA681"/><path d="M368.679 392.954l38.608-3.786m-60.728 45.007c-30.772-7.106-62.982-25.331-62.982-25.331l1.929-3.26m11.456-13.145s142.416-4.385 178.939 18.646m-248.272-9.491s25.787-12.079 43.414-4.17" stroke="#462C3B" stroke-width="1.3" stroke-miterlimit="10" stroke-linecap="round"/><path d="M287.531 406.483l9.431-14.379-9.431-5.045s1.906-10.845-7.345-13.397c-9.251-2.552-21.042 4.146-31.575-1.594-9.718-5.296-21.701-10.401-33.683-5.068a4.094 4.094 0 0 0-2.289 4.637v.144a4.087 4.087 0 0 0 4.11 3.139 29.959 29.959 0 0 1 18.154 5.405c11.719 8.435 52.628 26.158 52.628 26.158z" fill="#FFA681"/><path d="M319.562 376.214l21.545 15.602" stroke="#462C3B" stroke-width="1.3" stroke-miterlimit="10" stroke-linecap="round"/><path d="M411.918 182.743c-14.559-23.522-17.016-62.203-17.016-62.203l-35.816-14.787v-1.198l-2.169.599-2.157-.599v1.198l-35.553 14.38s-3.871 40.214-18.442 63.736c-14.379 23.247-4.062 52.281 56.152 48.003 60.225 4.326 69.404-25.882 55.001-49.129z" fill="#293267"/><path d="M376.659 200.69l34.667 11.096c6.482 2.397 8.136 9.586 6.434 16.261l-27.56 99.229h-71.897l-24.912-101.314c-1.043-4.65 1.198-11.444 5.668-13.181l37.518-13.853 40.082 1.762z" fill="#EC2B73"/><path d="M402.243 252.145l36.236 81.051a16.777 16.777 0 0 0 19.292 10.653 16.779 16.779 0 0 0 13.095-14.928 16.781 16.781 0 0 0-.872-6.976c-7.118-20.203-28.579-61.113-35.949-81.34a16.917 16.917 0 0 0-24.193-8.939 16.933 16.933 0 0 0-7.609 20.479z" fill="#FFA681"/><path d="M412.584 212.757s11.851 1.066 26.554 39.879l-34.403 17.854-11.192-33.288 19.041-24.445z" fill="#EC2B73"/><path d="M407.096 268.525l4.853-22.025" stroke="#B81C56" stroke-width="1.3" stroke-miterlimit="10" stroke-linecap="round"/><path d="M447.178 305.875c-.982-.323-.431 1.774-87.271-35.002l-3.726 4.985c-.18 5.165 1.006 10.126 4.206 12.235l85.82 54.102.971-36.32z" fill="#FFA681"/><path d="M356.181 275.858l-.515-42.335a1.708 1.708 0 0 1 1.052-1.605c.209-.088.434-.133.661-.133a1.725 1.725 0 0 1 1.69 1.45l11.479 50.148-14.367-7.525z" fill="#FFA681"/><path d="M422.182 296.732l16.968 6.591" stroke="#F97853" stroke-width=".95" stroke-miterlimit="10"/><path d="M309.424 252.144l-36.176 81.052a16.779 16.779 0 0 1-19.292 10.653 16.77 16.77 0 0 1-11.04-8.204 16.768 16.768 0 0 1-1.195-13.701c7.13-20.203 28.591-61.112 35.949-81.339a16.922 16.922 0 0 1 24.265-8.939 16.942 16.942 0 0 1 7.489 20.478z" fill="#FFA681"/><path d="M299.083 212.757s-11.863 1.066-26.554 39.879l34.402 17.854 11.192-33.288-19.04-24.445z" fill="#EC2B73"/><path d="M303.528 268.525l-4.853-22.025" stroke="#B81C56" stroke-width="1.3" stroke-miterlimit="10" stroke-linecap="round"/><path d="M264.488 305.875c.983-.323.42 1.774 87.271-35.002l3.727 4.985c.359 5.86-1.39 10.377-4.602 12.474l-85.425 53.863-.971-36.32z" fill="#FFA681"/><path d="M355.486 275.858l.515-42.335a1.709 1.709 0 0 0-.494-1.227 1.697 1.697 0 0 0-1.22-.511 1.703 1.703 0 0 0-1.689 1.45l-11.48 50.148 14.368-7.525z" fill="#FFA681"/><path d="M355.797 232.852l.384 45.151" stroke="#DC9C82" stroke-width=".95" stroke-miterlimit="10"/><path d="M289.484 296.732l-16.2 6.591" stroke="#F97853" stroke-width=".95" stroke-miterlimit="10"/><path d="M342.748 195.489l-26.638 10.785a86.166 86.166 0 0 0 38.741 9.934 94.01 94.01 0 0 0 41.532-9.359l-27.8-12.51-25.835 1.15z" fill="#FFA681"/><path d="M368.583 169.055a74.137 74.137 0 0 0-9.85 1.198c-5.74 1.067-10.437-1.953-11.587 1.942 0 .072-4.685-3.895-4.685-3.895l-2.397 38.261s15.242 9.299 31.838-.479l-3.319-37.027z" fill="#FFA681"/><path d="M338.818 164.083s6.938 17.171 30.963 18.37l-2.013-22.912-28.95 4.542z" fill="#F97853"/><path d="M394.838 120.777c0 21.892-17.028 39.639-38.046 39.639s-38.009-17.747-38.009-39.639c0-21.893 17.039-36.787 38.057-36.787s37.998 14.894 37.998 36.787z" fill="#293267"/><path d="M386.641 121.544a134.897 134.897 0 0 1-3.595 30.82c-1.761 7.477-6.71 12.69-13.72 16.895l-1.282.755a24.596 24.596 0 0 1-24.517.276c-7.585-4.326-12.906-10.018-14.535-17.974a197.206 197.206 0 0 1-3.308-30.712s-2.828-31.443 30.053-30.832c32.881.611 30.904 30.772 30.904 30.772z" fill="#FFA681"/><path d="M329.256 152.867c-5.548 5.368-19.365-10.389-14.236-16.668 4.721-5.8 11.432.815 11.432.815l1.198 5.907 1.702 7.957.431 1.785-.527.204zm53.767-.383c5.883 4.625 20.131-12.511 14.379-17.459-5.752-4.949-11.911 1.557-11.911 1.557l-1.03 5.92-1.546 7.992-.408 1.786.516.204z" fill="#FFA681"/><path d="M320.029 131.597l6.998 8.856-1.414-21.581-5.584 12.725zm71.465 0l-6.327 8.652 1.45-21.377 4.877 12.725z" fill="#293267"/><path d="M356.087 145.608a10.567 10.567 0 0 1-2.378-.442l.399-1.059c1.087.41 2.837.599 3.235.168.136-.152.099-.512-.109-.999-1.405-3.31-1.428-11.533-1.413-11.905l1.116-.003c-.031.083-.016 8.366 1.317 11.492a1.956 1.956 0 0 1-.09 2.196 2.562 2.562 0 0 1-2.077.552z" fill="#DB614D"/><path d="M346 154.649h19.268s-2.169 3.163-9.586 3.163c-8.112 0-9.682-3.163-9.682-3.163z" fill="#EC5271"/><path d="M346 154.649l4.398-2.277a3.928 3.928 0 0 1 1.502-.368 3.94 3.94 0 0 1 1.529.236l2.325.899 2.073-.827a3.956 3.956 0 0 1 3.068.108l4.373 2.229H346z" fill="#EC5271"/><path d="M346.092 133.203a6.77 6.77 0 0 1-8.233 0m35.182 0a6.76 6.76 0 0 1-8.221 0" stroke="#462C3B" stroke-width="1.55" stroke-miterlimit="10" stroke-linecap="round"/><path d="M361.825 123.557s9.79.503 16.332 4.482c0 0 0-4.122-6.231-5.992a11.209 11.209 0 0 0-10.101 1.51zm-12.558 0s-9.79.503-16.321 4.482c0 0 0-4.122 6.219-5.992a11.214 11.214 0 0 1 10.102 1.51zm-19.755-26.515s11.444 23.175 60.873 24.325c0 0 5.344-21.94-19.999-30.652-25.344-8.712-40.874 6.327-40.874 6.327z" fill="#293267"/><path d="M322.222 125.21s15.254-4.469 17.231-29.681c0 0-15.458 2.348-17.231 29.681z" fill="#293267"/><path d="M326.404 145.473s-.779-4.206-6.591-4.086m65.63 4.086s.767-4.206 6.59-4.086" stroke="#462C3B" stroke-width="1.3" stroke-miterlimit="10" stroke-linecap="round"/></svg>