<svg width="718" height="553" fill="none" xmlns="http://www.w3.org/2000/svg"><path d="M181 551.388c101.676 4.081 221.137-1.139 323 1.014-2.704-4.706-50.131-36.749-51.545-37.212-1.415-.463-165.993-3.041-185.297-1.902.084 0-70.245 30.102-86.158 38.1z" fill="#9B6CD2"/><path d="M659.787 493.819c-30.393 7.391-66.866 2.732-95.266 2.732H153.695c-31.609 0-66.051 5.33-95.339-8.172-26.248-12.1-46.198-37.335-52.277-65.657-7.404-34.701 5.446-72.5 30.953-97.089 12.157-11.709 26.746-20.528 39.67-31.346 12.923-10.819 24.631-24.529 27.78-41.129 2.954-15.564-1.946-31.383-4.608-47.008-2.833-16.575-2.298-33.871 3.538-49.642C111 81 186 35.5 208.5 35.5c32.595 0 81.738 27.235 99.5 7.5C335.901 12 342.27 2.886 375.436.41 443.87-4.713 532.571 38.587 553.92 107.866c7.513 24.394 10.03 50.13 18.236 74.268 8.206 24.138 23.902 47.728 47.901 56.107 11.258 3.952 23.415 4.269 35.038 6.952 15.318 3.525 30.017 11.6 39.293 24.333 9.276 12.734 12.352 30.493 5.689 44.752-4.522 9.757-12.862 17.076-19.221 25.614-6.358 8.538-10.795 20.308-6.078 29.943 4.036 8.307 13.373 12.295 20.667 17.918 18.358 14.161 24.182 41.372 15.805 63.01-9.981 25.492-29.056 37.579-51.463 43.056z" fill="#FFDCEC"/><path d="M6 427c.304 2.256.706 4.5 1.217 6.732 6.088 28.318 26.017 53.55 52.351 65.648 29.329 13.501 63.844 8.171 95.473 8.171h411.282c28.44 0 65.012 4.659 95.4-2.732 22.474-5.475 41.576-17.537 51.486-42.952A58.232 58.232 0 0 0 715.242 427H6z" fill="#F2B1D2"/><path d="M613.211 287.754h-28.402a5.726 5.726 0 0 0-5.726 5.725v4.431a5.726 5.726 0 0 0 5.726 5.725h28.402a5.725 5.725 0 0 0 5.725-5.725v-4.431a5.725 5.725 0 0 0-5.725-5.725zm-24.817 19.59h-28.402a5.725 5.725 0 0 0-5.725 5.725v4.431a5.725 5.725 0 0 0 5.725 5.725h28.402a5.725 5.725 0 0 0 5.725-5.725v-4.431a5.725 5.725 0 0 0-5.725-5.725zm45.092 0h-28.402a5.726 5.726 0 0 0-5.726 5.725v4.431a5.726 5.726 0 0 0 5.726 5.725h28.402a5.725 5.725 0 0 0 5.725-5.725v-4.431a5.725 5.725 0 0 0-5.725-5.725zm-25.838 19.59h-28.402a5.725 5.725 0 0 0-5.725 5.725v4.431a5.725 5.725 0 0 0 5.725 5.725h28.402a5.725 5.725 0 0 0 5.725-5.725v-4.431a5.725 5.725 0 0 0-5.725-5.725zm43.735.336h-28.402a5.725 5.725 0 0 0-5.725 5.725v4.431a5.725 5.725 0 0 0 5.725 5.725h28.402a5.725 5.725 0 0 0 5.725-5.725v-4.431a5.725 5.725 0 0 0-5.725-5.725zm-86.637 0h-28.402a5.725 5.725 0 0 0-5.725 5.725v4.431a5.725 5.725 0 0 0 5.725 5.725h28.402a5.725 5.725 0 0 0 5.725-5.725v-4.431a5.725 5.725 0 0 0-5.725-5.725zM74.052 389.612H45.65a5.726 5.726 0 0 0-5.725 5.726v4.43a5.726 5.726 0 0 0 5.725 5.726h28.402a5.726 5.726 0 0 0 5.725-5.726v-4.43a5.726 5.726 0 0 0-5.725-5.726zm-19.839-20.448H25.81a5.725 5.725 0 0 0-5.726 5.725v4.431a5.725 5.725 0 0 0 5.726 5.725h28.402a5.725 5.725 0 0 0 5.725-5.725v-4.431a5.725 5.725 0 0 0-5.725-5.725zm29.46-20.437H55.27a5.725 5.725 0 0 0-5.726 5.725v4.431a5.725 5.725 0 0 0 5.726 5.725h28.402a5.725 5.725 0 0 0 5.725-5.725v-4.431a5.725 5.725 0 0 0-5.725-5.725zm486.649-60.973H541.92a5.725 5.725 0 0 0-5.725 5.725v4.431a5.725 5.725 0 0 0 5.725 5.725h28.402a5.725 5.725 0 0 0 5.725-5.725v-4.431a5.725 5.725 0 0 0-5.725-5.725zm20.772-18.247h-28.402a5.726 5.726 0 0 0-5.725 5.726v4.43a5.726 5.726 0 0 0 5.725 5.726h28.402a5.726 5.726 0 0 0 5.725-5.726v-4.43a5.726 5.726 0 0 0-5.725-5.726zM176.958 183.99h28.402a5.725 5.725 0 0 0 5.725-5.725v-4.431a5.725 5.725 0 0 0-5.725-5.725h-28.402a5.726 5.726 0 0 0-5.726 5.725v4.431a5.726 5.726 0 0 0 5.726 5.725zm24.817-19.59h28.402a5.725 5.725 0 0 0 5.725-5.725v-4.431a5.725 5.725 0 0 0-5.725-5.725h-28.402a5.726 5.726 0 0 0-5.726 5.725v4.431a5.726 5.726 0 0 0 5.726 5.725zm-45.093 0h28.402a5.726 5.726 0 0 0 5.726-5.725v-4.431a5.726 5.726 0 0 0-5.726-5.725h-28.402a5.725 5.725 0 0 0-5.725 5.725v4.431a5.725 5.725 0 0 0 5.725 5.725zm25.839-19.59h28.402a5.725 5.725 0 0 0 5.725-5.725v-4.431a5.725 5.725 0 0 0-5.725-5.725h-28.402a5.726 5.726 0 0 0-5.726 5.725v4.431a5.726 5.726 0 0 0 5.726 5.725zm-43.736-.336h28.402a5.726 5.726 0 0 0 5.725-5.726v-4.43a5.726 5.726 0 0 0-5.725-5.726h-28.402a5.726 5.726 0 0 0-5.725 5.726v4.43a5.726 5.726 0 0 0 5.725 5.726zm86.638 0h28.402a5.726 5.726 0 0 0 5.725-5.726v-4.43a5.726 5.726 0 0 0-5.725-5.726h-28.402a5.726 5.726 0 0 0-5.726 5.726v4.43a5.726 5.726 0 0 0 5.726 5.726zm-59.542-19.852h28.402a5.725 5.725 0 0 0 5.725-5.725v-4.431a5.725 5.725 0 0 0-5.725-5.725h-28.402a5.726 5.726 0 0 0-5.726 5.725v4.431a5.726 5.726 0 0 0 5.726 5.725zm53.965 59.368h28.402a5.726 5.726 0 0 0 5.726-5.725v-4.431a5.726 5.726 0 0 0-5.726-5.725h-28.402a5.725 5.725 0 0 0-5.725 5.725v4.431a5.725 5.725 0 0 0 5.725 5.725zm-20.772 18.234h28.402a5.726 5.726 0 0 0 5.725-5.726v-4.43a5.726 5.726 0 0 0-5.725-5.726h-28.402a5.726 5.726 0 0 0-5.725 5.726v4.43a5.726 5.726 0 0 0 5.725 5.726z" fill="#F9C5E0"/><path d="M144.329 454.938h11.35c.645-3.309 7.296-38.813 1.273-69.205-6.303-31.93-25.594-50.89-37.572-37.257-11.978 13.632 2.995 40.252 14.295 59.559 10.687 18.132 10.687 44.09 10.654 46.903z" fill="#FFCA64"/><path d="M148.515 454.938h2.994a169.031 169.031 0 0 0-19.654-88.263 1.486 1.486 0 0 0-.92-.682 1.505 1.505 0 0 0-1.132.169 1.497 1.497 0 0 0-.513 2.051 165.937 165.937 0 0 1 19.225 86.725z" fill="#F68601"/><path d="M196.841 356.566c-25.627 0-40.153 78.138-38.267 98.372h10.919c.893-5.145 5.145-18.844 24.419-50.013 8.934-14.559 29.3-48.359 2.929-48.359z" fill="#FFCA64"/><path d="M192.258 378.289a1.474 1.474 0 0 0-1.658.116 1.484 1.484 0 0 0-.377.446c-.232.414-22.02 39.227-27.232 76.104h3.028c5.228-36.116 26.57-74.201 26.818-74.615a1.495 1.495 0 0 0 .136-1.146 1.505 1.505 0 0 0-.715-.905z" fill="#F68601"/><path d="M142.642 454.938c.43-14.443-19.721-73.158-36.927-68.923-18.778 4.649 1.654 32.278 9.397 42.552 12.243 16.379 17.007 23.377 18.86 26.371h8.67z" fill="#FFCA64"/><path d="M139.383 454.938c-5.824-24.304-26.736-52.495-27.679-53.786a1.508 1.508 0 0 0-2.044-.237 1.508 1.508 0 0 0-.371 2.024c.231.315 21.027 28.374 26.983 51.999h3.111z" fill="#F68601"/><path d="M174.645 529.082H126.23l-16.317-68.404h77.004l-12.272 68.404z" fill="#B14A00"/><path d="M130.785 515.989a47.033 47.033 0 0 1 11.115-29.784c6.509-7.592 16.64-11.537 26.311-13.018a61.602 61.602 0 0 1 16.516-.336l2.19-12.173h-77.004l16.317 68.454h6.547a43.883 43.883 0 0 1-1.992-13.143z" fill="#993F02"/><path d="M194.983 454.194H98.861v12.458h96.122v-12.458z" fill="#B14A00"/><path d="M83.7 494.984c-9.498-10.121-16.28-22.127-13.568-36.481 1.14-5.915 2.28-10.854-1.668-15.982-1.873-2.429-4.07-4.586-5.508-7.326-3.976-7.964-.99-16.28 2.428-23.878 2.51-5.562 5.196-11.193 6.2-17.271 1.045-6.417-.665-12.807-.285-19.251.366-6.241 3.595-13.146 9.687-14.544 4.07-.936 8.303.855 11.478 3.528a22.452 22.452 0 0 1 7.326 12.006c1.451 6.363.135 13.377 3.052 19.211 2.578 5.142 7.91 8.262 11.505 12.753a22.618 22.618 0 0 1 4.721 17.189c-.705 5.034-3.12 9.741-3.622 14.802-1.14 11.396 7.462 22.005 6.607 33.415a24.707 24.707 0 0 1-9.497 16.945c-5.888 4.749-14.544 8.357-22.182 7.38a15.198 15.198 0 0 1-10.378-5.996" fill="#93D089"/><path d="M97.755 490.48a.828.828 0 0 1-.828-.746l-5.793-49.655-6.227-53.182a.84.84 0 0 1 .733-.936.882.882 0 0 1 .936.732l6.2 53.196 5.78 49.655a.84.84 0 0 1-.733.936h-.068z" fill="#fff"/><path d="M91.975 440.825a.841.841 0 0 1-.719-1.276l13.323-22.439a.859.859 0 0 1 .516-.384.858.858 0 0 1 .637.085.84.84 0 0 1 .285 1.153l-13.322 22.454a.853.853 0 0 1-.72.407zm-2.319-14.897a.891.891 0 0 1-.367-.081l-17.637-8.384a.838.838 0 0 1-.476-.808.838.838 0 0 1 .083-.318.827.827 0 0 1 1.112-.394l17.637 8.384a.841.841 0 0 1 .43.474.832.832 0 0 1-.036.639.81.81 0 0 1-.746.488zm4.748 36.333a.74.74 0 0 1-.34-.082l-14.855-6.43a.843.843 0 0 1-.434-1.099.853.853 0 0 1 1.112-.434l14.802 6.43a.842.842 0 0 1-.326 1.615h.04z" fill="#fff"/><path d="M87.173 484.701a14.832 14.832 0 0 1 .339-7.232c2.415-6.525 8.954-10.717 13.662-15.452 5.603-5.631 9.822-12.997 10.229-20.934.326-6.431 1.981-11.79 6.689-16.484 4.707-4.694 10.351-7.923 15.195-12.278a101.413 101.413 0 0 0 13.756-15.018c3.46-4.654 9.864-11.559 14.205-3.406a14.789 14.789 0 0 1 1.221 10.664c-2.496 9.307-11.369 15.073-15.412 23.566-2.035 4.3-2.469 8.981-3.161 13.567-.624 4.178-1.615 8.818-4.749 11.871-1.831 1.777-4.07 3.052-5.779 4.979-2.333 2.713-3.12 6.213-4.07 9.496a52.317 52.317 0 0 1-4.179 10.081c-4.246 8.262-10.365 17.813-19.4 21.232a12.898 12.898 0 0 1-8.276.638c-5.902-1.778-9.334-9.565-10.27-15.29z" fill="#6A9563"/><path d="M101.852 489.557a.788.788 0 0 1-.38-.095.824.824 0 0 1-.446-.813.834.834 0 0 1 .093-.313l31.584-61.363a.842.842 0 0 1 1.546.12.829.829 0 0 1-.053.64l-31.598 61.376a.808.808 0 0 1-.746.448z" fill="#fff"/><path d="M120.561 452.425a.827.827 0 0 1-.828-.814l-.312-21.707a.857.857 0 0 1 .828-.855.833.833 0 0 1 .599.237.842.842 0 0 1 .256.591l.298 21.707a.818.818 0 0 1-.237.594.819.819 0 0 1-.271.182.816.816 0 0 1-.319.065h-.014zm-3.053 7.841a.823.823 0 0 1-.732-.447.843.843 0 0 1 .339-1.14l16.931-8.927a.841.841 0 1 1 .787 1.479l-16.931 8.94a.983.983 0 0 1-.394.095zm-13.024 22.82a.842.842 0 0 1-.814-.665l-2.605-12.916a.844.844 0 0 1 1.267-.822.845.845 0 0 1 .375.483l2.604 12.916a.837.837 0 0 1-.651.99l-.176.014z" fill="#fff"/><path d="M95.91 487.536a10.131 10.131 0 0 0-.787-4.965c-2.17-4.328-7.014-6.784-10.637-9.633-4.3-3.473-7.787-8.235-8.669-13.689a16.278 16.278 0 0 0-5.888-10.853c-3.555-2.836-7.76-4.668-11.45-7.313a70.827 70.827 0 0 1-10.705-9.334c-2.713-2.944-7.692-7.231-10.066-1.248a10.189 10.189 0 0 0 0 7.462c2.428 6.24 9.008 9.496 12.454 15.1a32.66 32.66 0 0 1 3.229 9.171c.76 2.835 1.79 5.969 4.206 7.841 1.356 1.086 3.066 1.791 4.368 2.999a16.114 16.114 0 0 1 3.514 6.295 36.931 36.931 0 0 0 3.663 6.648c3.568 5.426 8.534 11.518 15.046 13.187a8.916 8.916 0 0 0 5.766-.204c3.975-1.791 5.752-7.435 5.956-11.464z" fill="#80B178"/><path d="M87.35 491.986a.839.839 0 0 1-.706-.367L60.215 451.57a.842.842 0 0 1 .872-1.286.84.84 0 0 1 .526.363l26.55 39.982a.84.84 0 0 1-.23 1.167.857.857 0 0 1-.584.19z" fill="#fff"/><path d="M71.611 467.769a.84.84 0 0 1-.827-.76l-1.452-15.005a.826.826 0 0 1 .746-.909.84.84 0 0 1 .923.746l1.424 15.005a.84.84 0 0 1-.76.909l-.054.014zm2.714 5.169a.788.788 0 0 1-.299 0l-12.454-4.925a.844.844 0 0 1-.019-1.552.823.823 0 0 1 .643-.008l12.387 4.87a.843.843 0 0 1 .475 1.085.829.829 0 0 1-.733.53zm10.758 14.787h-.081a.839.839 0 0 1-.76-.908l.814-9.117a.825.825 0 0 1 .91-.76.84.84 0 0 1 .76.909l-.815 9.117a.83.83 0 0 1-.828.759z" fill="#fff"/><path d="M116.497 535.392l-33.903.05-11.488-41.918 53.929-.063-8.538 41.931z" fill="#E56000"/><path d="M85.78 527.402a26.824 26.824 0 0 1 7.742-18.309c4.555-4.667 11.649-7.081 18.42-8.002a49.257 49.257 0 0 1 11.575-.224l1.518-7.468-53.929.062 11.488 41.919h4.58a23.9 23.9 0 0 1-1.394-7.978z" fill="#C65202"/><path d="M130.698 489.46l-67.321.082.01 7.63 67.32-.082-.009-7.63z" fill="#E56000"/><path d="M511.752 77.876H205.815v435.071h305.937V77.877z" fill="#210055"/><path d="M217.432 513.347l84.429-15.453V107.11l-84.429-15.453v421.69z" fill="#03579D"/><path d="M220.105 512.856l84.047-15.38V107.528l-84.047-15.38v420.708z" fill="#0172D0"/><path d="M343.626 420.512a32.11 32.11 0 0 1 2.489-8.289 1181.296 1181.296 0 0 1 17.014-60.924c4.979-16.18 14.475-43.424 26.797-56.007 7.89 2.053 15.956 3.671 23.884 5.414l.323.373a16.104 16.104 0 0 0 2.328 3.983 32.048 32.048 0 0 1 4.356 27.058c-2.701 9.061-10.866 16.59-19.628 20.125-.547.224-5.127 32.845-7.467 39.181a145.964 145.964 0 0 1-8.302 18.208c-2.763 5.091-6.509 9.671-9.77 14.438 0 1.605-.062 3.211 0 4.816.124 5.539 1.767 11.202 2.676 16.616 4.095 24.332-2.738 48.029-7.157 71.901a67.817 67.817 0 0 1-8.824.598c-2.489-7.904-2.278-13.567-4.406-22.652-5.065-21.607-10.865-42.317-13.865-64.334a39.18 39.18 0 0 1-.448-10.505z" fill="#FFA681"/><path d="M416.535 305.025a16.132 16.132 0 0 1-2.327-3.983l-.324-.373c-7.928-1.743-15.993-3.361-23.884-5.414-12.321 12.62-21.805 39.902-26.796 56.007a1176.534 1176.534 0 0 0-17.014 60.924 32.072 32.072 0 0 0-2.489 8.289 39.14 39.14 0 0 0 .448 10.505c2.775 20.287 8.899 63.537 8.899 63.537 7.219.398 19.677-1.991 26.062-1.605 2.925-15.57 1.966-31.551-.709-47.445-.909-5.451-2.552-11.077-2.676-16.616v-4.816c3.26-4.767 7.007-9.347 9.77-14.438a145.818 145.818 0 0 0 8.301-18.246c2.365-6.335 8.999-37.749 9.547-37.973 8.712-3.534 14.873-12.272 17.573-21.332a32.047 32.047 0 0 0-4.381-27.021z" fill="#94D2FF"/><path d="M439.847 298.491a108.756 108.756 0 0 1-30.356.722c-.535 1.979-2.128 4.704-2.489 6.011a96.861 96.861 0 0 0-3.51 18.035 249.912 249.912 0 0 0-.958 36.367c1.456 42.529 7.542 106.713 15.371 151.171 4.157.286 8.277.871 12.446 1.244.349 0 .199-6.957.535-6.932 4.406-22.503 11.202-35.808 9.098-59.144-.547-6.223-1.531-12.347-1.319-18.557.224-6.821 1.904-13.504 3.074-20.225a421.022 421.022 0 0 0 2.987-49.486c.274-31.09-3.771-50.718-4.879-59.206z" fill="#EFAE95"/><path d="M435.964 495.75c4.282-18.67 5.788-28.826 3.933-49.785-.547-6.223-1.531-12.346-1.319-18.557.224-6.82 1.904-13.504 3.074-20.225a421.022 421.022 0 0 0 2.987-49.486c.361-31.115-3.734-50.767-4.792-59.256a108.68 108.68 0 0 1-30.356.722c-.535 1.979-2.128 4.705-2.489 6.012a96.835 96.835 0 0 0-3.51 18.034 249.922 249.922 0 0 0-.958 36.368c1.319 38.583 4.456 92.001 11.202 135.326 5.488.274 16.727.685 22.228.847z" fill="#94D2FF"/><path d="M334.279 265.621c-.349 8.911-.311 18.196 3.485 26.261.871 1.855 2.116 3.734 4.07 4.356a6.772 6.772 0 0 0 5.476-1.244c7.02-4.618 9.409-13.691 10.231-22.092.799-8.067.656-16.199-.424-24.233-.784-5.874-6.011-23.062-14.81-15.62-7.916 6.647-7.667 23.25-8.028 32.572z" fill="#FFA681"/><path d="M340.055 267.562a54.18 54.18 0 0 1 16.354 12.384c.53-2.338.908-4.707 1.132-7.094.799-8.067.657-16.199-.423-24.233-.784-5.874-6.011-23.062-14.811-15.62-7.729 6.56-7.679 22.615-8.015 32.037a62.84 62.84 0 0 1 5.763 2.526z" fill="#F97853"/><path d="M360.192 268.21a89.663 89.663 0 0 0-.398-19.839c-.797-5.875-8.713-22.814-17.487-15.371-6.646 5.65-10.256 17.76-10.579 27.194 1.294.15 27.008 6.983 28.464 8.016z" fill="#FA5F2D"/><path d="M477.994 196.968c-5.986 6.372-27.68 23.286-31.451 23.946-9.957 1.767-22.005-12.558-17.039-22.403 1.917-3.808 25.677-17.723 34.103-20.748 5.849-2.103 12.446-3.522 17.847.212a8.464 8.464 0 0 1 3.66 4.978c.684 3.224-1.245 6.398-3.099 9.111a42.363 42.363 0 0 1-4.021 4.904z" fill="#EFAE95"/><path d="M485.798 184.771a8.376 8.376 0 0 1-1.593 2.875 10.81 10.81 0 0 1-4.394 3.124c-4.007 1.531-8.5.535-12.608-.672a133.308 133.308 0 0 1-14.362-5.128c-4.618-1.942-9.036-4.979-13.691-6.609-9.957-3.497-19.665-8.277-29.261-12.745l-2.688-1.244c-1.444-.685-2.9-1.37-4.344-2.079a2.722 2.722 0 0 1-.249-.448 1.096 1.096 0 0 1 .112-1.332.602.602 0 0 0 .075-.124.679.679 0 0 0 .199-.274h1.095c1.046.112 2.489 1.033 3.51.535a15.23 15.23 0 0 1-4.132-1.929 1.424 1.424 0 0 1-.585-.709 1.491 1.491 0 0 1 .199-.996 20.46 20.46 0 0 1 2.352-3.734 5.656 5.656 0 0 1 2.801-2.178 6.365 6.365 0 0 1 3.049.187c5.041 1.182 9.832 3.111 14.836 4.393a361.049 361.049 0 0 1 15.433 4.307 347.225 347.225 0 0 1 28.029 9.832 46.595 46.595 0 0 1 10.305 5.215c2.701 1.966 6.111 4.48 6.099 8.227a6.068 6.068 0 0 1-.187 1.506z" fill="#FFA681"/><path d="M422.727 249.142c1.237 8.708 3.441 17.304 5.173 25.951 1.585 7.912 3.924 16.993 3.887 25.055 0 2.376-.384 4.976-2.179 6.556-1.794 1.58-4.183 1.568-6.436 1.568-13.788 0-28.021-.349-40.608-6.034a14.458 14.458 0 0 0 1.572-16.994c-4.221-6.693-10.385-12.764-15.67-18.661-7.426-8.248-15.508-15.986-21.783-25.155-1.696-2.488-3.317-5.337-2.797-8.285a11.2 11.2 0 0 1 3.515-5.611 59.715 59.715 0 0 1 17.328-12.378 81.216 81.216 0 0 1 13.998-4.504c4.208-.995 8.602-4.142 12.921-4.316 6.197-.186 12.4.047 18.566.696a9.39 9.39 0 0 1 4.851 1.468c2.191 1.642 2.723 4.665 3.107 7.378l4.555 33.266z" fill="#FA5F2D"/><path d="M375.775 201.734a16.18 16.18 0 0 0 5.912 5.365c1.53.834 3.733.137 3.572 2.24a10.221 10.221 0 0 1-1.768 4.891 19.206 19.206 0 0 1-4.804 4.817 18.082 18.082 0 0 1-9.447 3.933 10.311 10.311 0 0 1-5.837-1.406 8 8 0 0 1-2.228-1.954c-.821-1.096-.473-1.245.585-2.079.331-.266.701-.48 1.096-.635a.763.763 0 0 1-.1-.336c-.212-1.73-1.369-3.174-2.178-4.717a6.384 6.384 0 0 1 .66-8.314 48.927 48.927 0 0 1 3.348-3.647 29.487 29.487 0 0 1 3.186-2.912c.846-.622 1.095-4.53 2.228-4.431 1.132.1 2.825 5.427 5.775 9.185z" fill="#FFA681"/><path d="M369.589 208.505a9.314 9.314 0 0 1-7.318 6.522c-.461-1.095-1.183-2.116-1.743-3.174a6.383 6.383 0 0 1 .66-8.314 48.716 48.716 0 0 1 3.348-3.646 30.192 30.192 0 0 1 2.775-2.577 12.936 12.936 0 0 1 2.278 11.189z" fill="#F97853"/><path d="M373.671 186.526a4.573 4.573 0 0 1 2.489-.473 4.375 4.375 0 0 1 3.523 2.688 4.774 4.774 0 0 1-.573 4.431 5.303 5.303 0 0 1-3.945 2.166 3.733 3.733 0 0 1-1.519-.2c-1.481-.597-2.389-2.688-2.589-4.194a4.696 4.696 0 0 1 2.614-4.418z" fill="#FFA681"/><path d="M374.43 188.816a.19.19 0 0 1 0-.137c.062-.423.921-.436 1.245-.436a1.938 1.938 0 0 1 1.667 1.145c0 .075-.087.137-.137.075a2.486 2.486 0 0 0-1.456-.834c-.174 0-.859 0-.983.174a.17.17 0 0 1-.124.053.172.172 0 0 1-.125-.053l-.087.013zm.324 2.887a2.016 2.016 0 0 1 0-1.543c0-.1.199 0 .174.075-.056.452.008.912.187 1.331.087.321.264.611.51.834.124.066.234.155.324.262a.145.145 0 0 1 .011.156.156.156 0 0 1-.057.06.143.143 0 0 1-.079.02c-.609.013-.883-.709-1.07-1.195z" fill="#F97853"/><path d="M348.493 194.678a3.926 3.926 0 0 0-2.203.747 4.558 4.558 0 0 0-1.656 4.045 4.746 4.746 0 0 0 2.39 3.634 4.414 4.414 0 0 0 4.12 0 3.338 3.338 0 0 0 1.145-.896c.933-1.245.747-3.498.249-4.916a4.246 4.246 0 0 0-4.045-2.614z" fill="#FFA681"/><path d="M348.879 197.055a.19.19 0 0 0 0-.137c-.224-.336-.934 0-1.183.199a1.997 1.997 0 0 0-.834 1.792c0 .1.125.087.137 0 .105-.546.39-1.041.809-1.406.137-.087.71-.399.872-.324a.147.147 0 0 0 .126.006.15.15 0 0 0 .085-.093l-.012-.037zm.995 2.688a2.017 2.017 0 0 0-.684-1.344c-.075-.074-.175.075-.112.15.248.371.398.799.435 1.244.088.322.088.662 0 .983-.073.119-.123.25-.149.386a.142.142 0 0 0 .009.079.148.148 0 0 0 .051.06.146.146 0 0 0 .076.022.148.148 0 0 0 .076-.024c.46-.274.348-1.033.298-1.556z" fill="#F97853"/><path d="M440.843 215.338c.164.108.3.253.398.423a.116.116 0 0 1 .013.077.118.118 0 0 1-.041.067.112.112 0 0 1-.146-.007 2.478 2.478 0 0 1-.349-.46c-.025-.075.062-.125.125-.1z" fill="#485999"/><path d="M368.85 173.755c2.478 1.754 3.716 5.163 4.36 8.443a35.624 35.624 0 0 1 0 14.919c-1.073 4.946-3.609 9.308-7.171 12.337-2.924 2.367-6.974 3.537-10.033 1.497-1.773-1.365-3.16-3.299-3.989-5.562-2.283-5.193-3.627-10.865-3.951-16.673a21.9 21.9 0 0 1 .174-4.935c.643-3.403 2.366-6.408 4.83-8.429 4.088-3.38 11.371-4.706 15.78-1.597z" fill="#FFA681"/><path d="M366.473 197.089s-5.709 4.143-9.686 4.359c0 0 4.07 3.198 7.207.991a5.44 5.44 0 0 0 2.479-5.35z" fill="#fff"/><path d="M360.787 198.32a7.33 7.33 0 0 0 1.321-1.055l-.595-.521c-.535.61-1.552 1.303-1.939 1.169-.135-.05-.23-.284-.262-.653-.222-2.503-2.915-7.581-3.046-7.805l-.689.365c.046.041 2.763 5.153 2.969 7.52a1.367 1.367 0 0 0 .779 1.324c.254.052.516.048.768-.012.253-.059.489-.172.694-.332z" fill="#DB614D"/><path opacity=".67" d="M369.427 179.195a.668.668 0 0 1 .423-.261 4.416 4.416 0 0 1 2.937.211 3.078 3.078 0 0 1 1.954 1.606.985.985 0 0 1 .063.261c0 .237-.249.411-.486.498a2.702 2.702 0 0 1-1.817-.149 10.157 10.157 0 0 1-2.066-.884c-.436-.249-.896-.548-1.008-.996a.438.438 0 0 1 0-.286z" fill="#04061B"/><path opacity=".67" d="M360.329 188.715a.504.504 0 0 1 .162-.398 3.475 3.475 0 0 1 2.178-1.17 2.568 2.568 0 0 1 2.166.361.546.546 0 0 1 .161.174.585.585 0 0 1-.087.61 2.168 2.168 0 0 1-1.356.71 8.158 8.158 0 0 1-1.905.236 1.529 1.529 0 0 1-1.244-.311.411.411 0 0 1-.075-.212zm-11.002 2.204a.493.493 0 0 1 .161-.398 3.472 3.472 0 0 1 2.178-1.17 2.557 2.557 0 0 1 2.166.361.55.55 0 0 1 .162.174.582.582 0 0 1-.087.61 2.167 2.167 0 0 1-1.357.709 8.874 8.874 0 0 1-1.892.249 1.626 1.626 0 0 1-1.244-.324.365.365 0 0 1-.087-.211z" fill="#FFC117"/><path d="M361.636 192.226a1.117 1.117 0 0 0 1.107.603 1.138 1.138 0 0 0 1.022-1.237 1.136 1.136 0 0 0-.793-.977 1.135 1.135 0 0 0-1.336 1.611zm-8.849 2.116a.954.954 0 0 0 .972.344.955.955 0 0 0 .68-1.273.964.964 0 0 0-.828-.616.953.953 0 0 0-.526.114 1.045 1.045 0 0 0-.298 1.431z" fill="#04061B"/><path d="M451.385 198.822c.178.06.338.168.46.311.012.02.018.044.016.067a.112.112 0 0 1-.084.099.109.109 0 0 1-.069-.004c-.137-.112-.323-.199-.41-.348a.08.08 0 0 1-.032-.049.076.076 0 0 1 .013-.057.07.07 0 0 1 .049-.031c.02-.004.04.001.057.012z" fill="#485999"/><path d="M371.418 191.504a2.715 2.715 0 0 0 1.83-.374 42.514 42.514 0 0 0 1.369-10.89 11.735 11.735 0 0 0-.523-3.161c-1.693-4.979-12.272-8.501-12.782-1.033-.261 3.733 3.734 4.443 6.086 6.148 2.987 2.166 3.597 5.887 4.02 9.31zm-24.394-1.194a16.655 16.655 0 0 1-.124-6.087 3.887 3.887 0 0 1 2.576-.647c.141 0 .277.048.386.137a.675.675 0 0 1 .162.436 9.93 9.93 0 0 1-.374 2.949 44.412 44.412 0 0 0-.971 7.468 3.808 3.808 0 0 1-.472-.311c-.287-1.332-.834-2.589-1.183-3.945z" fill="#FFC117"/><path d="M358.898 504.524c-.1.797-.162 1.755-.262 2.116a20.016 20.016 0 0 1-1.443 3.609c-2.141 4.17-4.979 7.144-9.572 8.377-2.489.672-4.978 1.244-7.467 1.842a4.583 4.583 0 0 0-1.519.522 1.483 1.483 0 0 0-.722 1.357 1.67 1.67 0 0 0 .735 1.07c1.792 1.382 17.611.672 17.611.672 7.841-.833 12.16-1.53 12.16-1.53l3.211-.137-.062 1.817h3.547c.342-6.563.342-13.139 0-19.702l-16.217-.013zm57.04-4.58c-.398 2.663 0 5.24-.821 7.915a28.64 28.64 0 0 1-3.908 8.24c-3.137 4.642-7.294 8.488-11.401 12.297 2.538.537 5.171.404 7.642-.386a60.945 60.945 0 0 0 17.089-7.157 56.207 56.207 0 0 1 5.19-3.422c.087.543.124 1.092.112 1.642h.136l3.436-.199a192.848 192.848 0 0 0-1.096-19.914c0-.136-14.848.897-16.379.934v.05z" fill="#1F2647"/><path d="M370.92 176.096a11.53 11.53 0 0 1-5.924 8.887 6.53 6.53 0 0 1-3.423.896 2.049 2.049 0 0 1-1.008-.287c-.908-.584-.759-1.954-.46-2.999a15.08 15.08 0 0 1-6.846 5.675 3.078 3.078 0 0 1-1.172.353 3.077 3.077 0 0 1-1.217-.129 2.262 2.262 0 0 1-.848-.732 2.27 2.27 0 0 1-.397-1.047 6.114 6.114 0 0 1 .199-2.228 14.827 14.827 0 0 1-2.053 3.534 4.205 4.205 0 0 1-3.572 1.992 3.12 3.12 0 0 1-2.241-1.743 7.715 7.715 0 0 1-.722-2.85c-.361-3.534.087-7.467 2.689-9.957a2.497 2.497 0 0 1 2.041-.846c-2.054-.423-3.112-3.012-2.489-4.978a7.137 7.137 0 0 1 4.468-4.133 10.982 10.982 0 0 1 6.858-.423 8.446 8.446 0 0 1 5.252 4.294c1.332-2.066 4.169-2.725 6.584-2.228a10.342 10.342 0 0 1 6.907 5.228 12.279 12.279 0 0 1 1.046 8.712 2.673 2.673 0 0 1-.66 1.357 2.028 2.028 0 0 1-2.75-.424 5.896 5.896 0 0 1-1.033-2.875" fill="#FFC117"/><path d="M304.048 244.014c-3.659-3.074-8.327-7.355-13.305-5.538-2.489.896-5.215 3.796-7.393 5.314l-8.127 5.688a4.339 4.339 0 0 0-1.93 2.166s3.398-.486 3.734-.585a33.057 33.057 0 0 0 3.734-1.456c-3.36 2.489-6.795 4.754-10.119 7.243-.423.311-.871.909-.51 1.245.361.336.635.162.946.062a46.384 46.384 0 0 0 5.277-1.991c.181-.088.374-.147.573-.175.375.002.738.129 1.033.361l.099.063a7.477 7.477 0 0 0 6.97 1.008c2.489-.859 4.979-1.967 7.468-3.05a370.525 370.525 0 0 0 8.426 10.306 357.313 357.313 0 0 0 19.739 21.42c3.286 3.273 6.709 6.546 10.853 8.6 6.485 3.211 18.358 2.738 15.234-7.555a21.809 21.809 0 0 0-4.58-7.343 193.349 193.349 0 0 0-22.042-21.968 410.379 410.379 0 0 1-4.916-4.269c-3.336-2.887-6.609-5.887-10.056-8.637l-1.108-.909z" fill="#FFA681"/><path d="M418.726 427.955a6.395 6.395 0 0 1-5.215-2.489 11.724 11.724 0 0 1-2.128-6.659h.796c.003 2.227.69 4.399 1.967 6.223a5.334 5.334 0 0 0 5.601 2.017c2.564-.884 3.597-4.008 4.269-6.933l.784.174c-.722 3.149-1.855 6.497-4.792 7.468a4.974 4.974 0 0 1-1.282.199zm-67.657-2.252a9.456 9.456 0 0 0 8.986-7.095l-.784-.186a8.58 8.58 0 0 1-8.787 6.447 3.95 3.95 0 0 1-1.544-.374c-1.319-.647-1.916-2.227-2.414-3.796l-.759.237c.547 1.73 1.244 3.485 2.812 4.281a4.984 4.984 0 0 0 1.83.461l.66.025z" fill="#1F2647"/><path d="M361.599 270.213l-32.086-6.41v-10.629l33.081 8.625-.995 8.414z" fill="#F77721"/><path d="M381.437 487.535H350.16v7.617h31.277v-7.617zm36.692 0h-6.82v7.617h6.82c-.075-.423.112-5.489 0-7.617z" fill="#64A9DC"/><path d="M500.153 513.347l-84.447-15.453V107.11l84.447-15.453v421.69z" fill="#03579D"/><path d="M497.065 513.708L413 498.328V108.38L497.065 93v420.708z" fill="#0172D0"/><path d="M426 191h-1c5.575-10.147 12.738-21.822 18.702-31.843 6.742-11.318 13.673-23.027 19.91-34.556l.316-.601.284.622c4.27 9.188 9.161 18.755 13.883 28.016 4.723 9.262 9.635 18.85 13.905 28.048l-.621.285c-4.259-9.188-9.15-18.765-13.883-28.016-4.628-9.061-9.414-18.428-13.61-27.426-6.122 11.35-12.969 22.858-19.606 33.987-5.953 9.999-12.695 21.358-18.28 31.484z" fill="#1F2647"/><path d="M423 192.5l71.215-13-.215 30-4 5.5-68.5 17v-34.5l1.5-5z" fill="#330E8E"/><path d="M491 210.622L423 224.5v-32.234L491 181v29.622z" fill="#F9BB5A"/><path d="M423 192.228l68-11 3-1.728-68 10.728-3 2z" fill="#EFAD45"/><path d="M491 210.711l3-1.711v-29.327L491 181v29.711z" fill="#FFEABB"/><path d="M438 197.085l-.674-.085-2.339 19.403-2.939-7.858 2.107-8.664-.653-.159-1.897 7.689-2.644-7.075-.632.244 2.992 8.007-2.36 9.606a133.575 133.575 0 0 1-3.287-19.456l-.674.064a135.875 135.875 0 0 0 3.656 20.886l.337 1.313 2.77-11.29 3.572 9.532L438 197.085zm8.818 19.095l-6.099 1.908c0-4.823 0-9.699.203-14.544l4.839-1.367-.192-.658-4.626 1.304c.075-1.844.15-3.699.246-5.533 2.243-.742 3.407-1.06 5.64-1.622l-.16-.668c-2.286.572-3.472.901-5.79 1.664a.378.378 0 0 0-.235.085h-.15v.276a.376.376 0 0 0 0 .106c-.384 7.092-.544 14.3-.48 21.403V219l6.986-2.184-.182-.636zm33.194-7.18v-.495c-.055-6.788.077-13.662.396-20.44a.31.31 0 0 1 0-.096v-.237l.143-.054a.337.337 0 0 1 .107-.066.352.352 0 0 1 .125-.02c1.937-.731 2.939-1.076 4.854-1.592l.198.667a49.064 49.064 0 0 0-4.711 1.538 371.907 371.907 0 0 0-.396 19.816l5.03-1.786.242.646-5.988 2.119z" fill="#1F2647"/><path d="M484.815 192.501l-4.183 1.376.212.644 4.183-1.377-.212-.643zm-30.621 21.444l-5.319 1.46.179.653 5.319-1.46-.179-.653z" fill="#1F2647"/><path d="M448 194h1v22h-1v-22zm18.738 18a1.676 1.676 0 0 1-.867-.317 1.885 1.885 0 0 1-.604-.746 5.032 5.032 0 0 1-.46-1.754c-.686-5.314-1.206-10.958-.392-16.061.313-2.03 1.235-3.05 2.813-3.114.334-.029.669.019.985.14.316.121.604.312.848.562.361.494.628 1.062.783 1.67a5.07 5.07 0 0 1 .118 1.869l-.215 7.728a23.868 23.868 0 0 1-1.206 8.269c-.431 1.063-.98 1.658-1.715 1.711l-.088.043zm.617-21.258h-.108c-1.264 0-1.96.829-2.215 2.54-.794 5.006-.274 10.629.402 15.848.042.523.168 1.034.373 1.509.094.196.235.36.407.478s.369.184.573.192c.558 0 .98-.723 1.176-1.286a23.465 23.465 0 0 0 1.156-8.025l.206-7.728a4.343 4.343 0 0 0-.696-3.029 1.656 1.656 0 0 0-.588-.399 1.566 1.566 0 0 0-.686-.111v.011zM471.177 211l-.177-.67h.056a.863.863 0 0 0 0-.227 1.33 1.33 0 0 1 .047-.529c0-1.285.065-2.571.102-3.846.14-5.185.28-10.089.047-15.199 0-.313.242-.529.606-.529h.196l.084.216c1.482 4.116 2.442 7 2.862 8.556l-.578.205c-.382-1.426-1.231-3.986-2.527-7.562.187 4.85 0 9.722-.084 14.4 0 1.296-.074 2.603-.102 3.91v.152a1.02 1.02 0 0 0 0 .259.941.941 0 0 1-.134.541.741.741 0 0 1-.398.323zm7.148-2.031l-.201-17.947-2.47 7.702-.654-.209 2.987-9.296a.424.424 0 0 1 .464-.209.41.41 0 0 1 .317.396L479 209l-.675-.031zm-19.946 5.004a5.979 5.979 0 0 1-.732-.054 3.472 3.472 0 0 1-1.586-.775 3.604 3.604 0 0 1-1.02-1.467 9.467 9.467 0 0 1-.523-3.219l-.44-10.419a38.407 38.407 0 0 1 0-4.893 1.958 1.958 0 0 1 .314-1.073 1.88 1.88 0 0 1 1.047-.6c1.193-.344 3.359-.816 4.426-.097 1.068.719 1.34 3.358 1.162 4.485l-.67-.107c.168-.998-.094-3.284-.858-3.799-.764-.515-2.093-.343-3.882.183a1.28 1.28 0 0 0-.649.354 1.373 1.373 0 0 0-.167.665 36.886 36.886 0 0 0 0 4.818l.439 10.408a8.702 8.702 0 0 0 .481 3.036c.171.46.452.869.818 1.188.366.319.805.538 1.275.636.764.107 2.595.172 3.14-1.631.237-1.153.336-2.331.293-3.508 0-.784 0-1.535.083-2.146l.67.075c-.063.59-.073 1.319-.084 2.146a14.852 14.852 0 0 1-.314 3.691 3.023 3.023 0 0 1-1.236 1.655 2.904 2.904 0 0 1-1.987.448z" fill="#1F2647"/><path d="M439.286 328h-4.943c-2.911-.009-5.74-.808-8.061-2.278-2.321-1.47-4.008-3.531-4.808-5.872l-12.198-36.04a5.172 5.172 0 0 1-.149-2.805 5.702 5.702 0 0 1 1.359-2.567c.684-.757 1.568-1.371 2.583-1.794a8.547 8.547 0 0 1 3.268-.644h4.096c.534.761.815 1.628.815 2.51 0 .882-.281 1.749-.815 2.51h-4.096c-.205 0-.408.04-.592.117a1.288 1.288 0 0 0-.467.326.994.994 0 0 0-.259.463c-.04.17-.03.345.03.511l12.162 36.055c.449 1.276 1.379 2.397 2.652 3.195 1.272.798 2.819 1.231 4.41 1.234h5.013s1.606 3.189 0 5.079zm-160.589 0h4.954c2.918-.009 5.754-.808 8.08-2.278 2.326-1.47 4.018-3.531 4.819-5.872l12.173-36.04c.309-.913.36-1.873.15-2.805a5.709 5.709 0 0 0-1.362-2.567c-.686-.757-1.572-1.371-2.59-1.794a8.578 8.578 0 0 0-3.275-.644h-4.034a4.372 4.372 0 0 0-.812 2.51c0 .882.28 1.748.812 2.51h4.105c.206-.003.41.037.595.114.185.077.345.19.466.329.131.134.22.293.26.463.04.17.03.345-.03.511l-12.173 36.055c-.455 1.273-1.389 2.392-2.663 3.189-1.274.797-2.822 1.232-4.415 1.24h-4.954s-1.734 3.189-.106 5.079z" fill="#330E8E"/><path d="M156 184c-4 10 7.169 13.5-19.485 49.743C109.861 269.985 155.605 277 193 257.5c0 0 14.896-74.847-6.232-83.403C163.5 162 156 184 156 184z" fill="#293267"/><path d="M139.512 242.826s-4.964 11.126 17.216 19.344c22.18 8.217-17.216-19.344-17.216-19.344z" fill="#C68930"/><path d="M192.943 229.646s10.127 1.636 14.254 8.544c17.762 29.816 29.088 37.797 29.088 37.797l13.926-35.233 3.454 4.508s-8.635 46.469-15.835 45.305c-7.199-1.163-26.27-15.307-26.27-15.307l-18.617-45.614z" fill="#FFA681"/><path d="M216.432 249.661c.036.648.036 1.297 0 1.945a12.912 12.912 0 0 1-.527 3.146 5.752 5.752 0 0 1-.618 1.49 4.668 4.668 0 0 1-1.109 1.4 2.07 2.07 0 0 1-.455.327 2.542 2.542 0 0 1-.89.437 5.04 5.04 0 0 1-2.509.236c-2.164-.254-4.491-2.363-6.745-5.345a59.948 59.948 0 0 1-1.164-1.6 64.905 64.905 0 0 1-2.999-4.854 60.87 60.87 0 0 1-.873-1.582 106.946 106.946 0 0 1-1.945-3.799c-.291-.546-.546-1.091-.8-1.618-.8-1.691-1.527-3.291-2.164-4.727-.254-.6-.491-1.164-.727-1.691a200.41 200.41 0 0 1-1.691-4.199h.182a42.626 42.626 0 0 1 11.763 3.472c4.636 2.491 12.944 13.126 12.944 13.126.013.194.013.388 0 .582.122.77.201 1.547.236 2.327.073.309.091.618.091.927z" fill="#FFE668"/><path d="M236.703 511.784c-.364 1.237-.982 3.218-1.545 5.073h14.671a25.511 25.511 0 0 1-2.618-5.273c-1.309-4.363-2.818-9.872-4.363-15.962h-9.49c1.818 6.436 3.054 11.581 3.636 14.344a7.665 7.665 0 0 1-.291 1.818zm-52.977-16.162h-10.327a1407.708 1407.708 0 0 1 2.382 13.744v12.89h11.654c-1.546-7.054-3.637-17.889-3.637-23.125-.054-1.146-.054-2.327-.072-3.509z" fill="#FFA681"/><path d="M243.503 498.003c-6.945-26.724-15.544-67.266-16.653-73.902-.727-4.345-1.364-18.089-3.073-34.961-.454-19.253-2.672-63.267-13.471-88.246l-25.452.6c1.018 19.834-18.181 41.25 5.217 64.194C193.107 374.251 199.6 402.201 201 415c1.818 15.108 5.774 24.183 14.5 41 6.804 13.85 14.592 27.079 18.513 42.003h9.49z" fill="#FFA681"/><path d="M214.142 264.624c0 .673 0 1.327-.146 1.963a26.742 26.742 0 0 1-2.109 8.163l-.254.509v1.091l-.418 7.836v1.545l-.291 5.454-.091 1.545-.4 7.654c-17.635 7.709-38.088 1.818-38.088 1.818a45.686 45.686 0 0 0-1.418-7.054c-.127-.509-.291-1.018-.436-1.509a64.526 64.526 0 0 0-3.054-7.726c-.219-.546-.473-1.055-.709-1.564a59.372 59.372 0 0 0-4.727-8.326c-4.218-5.945-10.49-14.872-13.872-23.634-.254-.6-.491-1.219-.691-1.818-.2-.6-.345-1.091-.509-1.619a27.645 27.645 0 0 1-1.2-7.272c.002-.759.05-1.518.146-2.272a13.047 13.047 0 0 1 2.709-6.69 11.41 11.41 0 0 1 6.345-4.018h.745c5.618-1.127 12.181.672 16.799-.164a53.815 53.815 0 0 1 18.707.927h.182l1.581.382a71.367 71.367 0 0 1 6.818 5.454 66.673 66.673 0 0 1 3.418 3.327c1.109 1.2 2.109 2.345 3 3.509a43.989 43.989 0 0 1 2.454 3.49 36.382 36.382 0 0 1 2.6 4.855 33.463 33.463 0 0 1 1.4 3.636c.254.854.472 1.672.672 2.49.109.528.219 1.037.309 1.546.17.883.292 1.775.364 2.672.144 1.261.199 2.531.164 3.8z" fill="#FFE668"/><path d="M157.256 387.94c1.618 8.454 3.945 14.108 5.217 21.217 1.819 10.344-3.417 25.343 1.819 42.032 2.527 7.891 7.272 33.943 9.726 48.36h9.672a2.966 2.966 0 0 1 0-.4c0-35.088 1.101-77.741 1.81-93.649.309-6.69 1.8-16.846 3-25.5 0 0-1.683-28.111 1.935-30.256 2.181-1.291 19.816-48.85 19.816-48.85l-38.178 1.818a55.67 55.67 0 0 0-16.363 51.25v.927c-.818 15.417.055 25.379 1.546 33.051z" fill="#FFA681"/><path d="M235.631 410.175c-5.2 12.835-20.217-.818-36.615 11.126-9.945 7.272-27.271-11.308-40.56-6.181-9.09 3.509-11.727-6.327-11.727-6.327s1-50.614 7.273-77.211c5.363-22.944 17.925-32.088 17.925-32.088a47.093 47.093 0 0 0 11.145 1.818c6.088.286 12.188.231 18.271-.164l4.618-.327c2.745-.218 4.454-.4 4.454-.4 18.216 21.852 25.216 109.754 25.216 109.754z" fill="#4E00AA"/><path d="M234.74 528.418s-.982-13.18 1.6-16.635c2.581-3.454 9.672 3.2 9.672 3.2l6.308-2.872s-.309 4.127 4.8 7.508c5.108 3.382 9.272 2.4 9.599 8.799H234.74zm-60.94-13.744s.164-4.381 6.236-3.872c6.072.509 5.636 4.927 5.636 4.927a1.357 1.357 0 0 1 1.727 0c.8.709.109 6.781 1.654 8.054 1.546 1.272 1.055 4.636 1.055 4.636h-17.744s-.964-4.309.8-5.909c1.763-1.6-2.727-7.363.636-7.836z" fill="#3E2D51"/><path d="M217.014 293.275a23.628 23.628 0 0 1 7.072-4.835 38.423 38.423 0 0 1 6.563-1.419s.782.455-1.818 1.691a11.439 11.439 0 0 0-4.108 3.145 41.22 41.22 0 0 0 6.69.346c1-.309 4.018-2.109 5.599-1.818l-3.636 3.363a6.88 6.88 0 0 1-2.527 3.127c-1.527.709-1.091 1.945-3.636 3-2.545 1.054-10.272-1.036-10.272-1.036l.073-5.564zm50.086-61.74c.085.536.14 1.076.164 1.618a11.958 11.958 0 0 1-1.563 4.964 25.71 25.71 0 0 1-2.582 3.854 25.978 25.978 0 0 1-5.309 3.818.652.652 0 0 0-.236.109l-.455.236c-2.163 1.091-4.908 1.073-5.854.109-.945-.964-.527-2.382-.963-3.181a7.276 7.276 0 0 1 0-3.109c1.4-5.673 7.872-10.727 7.872-10.727s1.291.746 0 2.818a5.674 5.674 0 0 0-.891 2.236 3.262 3.262 0 0 0 0 1.291s6.927-2.854 7.963-4.927c1.036-2.072 2.891-2.218 1.854.891z" fill="#FFA681"/><path d="M257.301 234.281c-1.072 2.309-.545 4.509-2.29 5.691a5.8 5.8 0 0 0 2.327-4.345l-.037-1.346zm9.799-2.745a.835.835 0 0 0-1.145 0 20.453 20.453 0 0 0-1.818 2.745 8.37 8.37 0 0 1-2.854 1.818 5.09 5.09 0 0 0 2.2-.836c1.181-.873 2.308-4.054 3.617-3.727zm-.435 2.745s-.71-.673-1.291.491a9.62 9.62 0 0 1-3.182 3.636l-1.218.727a3.11 3.11 0 0 0 2-.727c1.309-.909 2.818-4.618 3.691-4.127zm-.873 3.836s-.091-1.091-1.055-.473a15.097 15.097 0 0 0-2.199 2.328 11.96 11.96 0 0 1-1.491 1.09 3.635 3.635 0 0 0 1.818-1.09c.763-.909 2.545-2.964 2.927-1.855z" fill="#F9AF92"/><path d="M216.396 248.77a82.698 82.698 0 0 0-13.181-10.344c-.727-.4-1.436-.8-2.145-1.145a29.833 29.833 0 0 0-7.454-2.146 118.53 118.53 0 0 0-33.724-.418c-.746 0-1.473.2-2.146.346a23.458 23.458 0 0 0-11.999 6.544 30.395 30.395 0 0 0-3.981 4.764 27.29 27.29 0 0 1-.982-1.309 30.155 30.155 0 0 1 5.109-5.727 24.46 24.46 0 0 1 11.562-5.781c.528-.109 1.109-.2 1.691-.291a118.618 118.618 0 0 1 33.743.182c2.336.36 4.641.907 6.89 1.636.709.254 1.363.527 1.945.8a69.07 69.07 0 0 1 14.435 10.562c.123.771.202 1.548.237 2.327z" fill="#FFD249"/><path d="M216.432 249.661c.036.648.036 1.298 0 1.946l-3.272-2.636a216.11 216.11 0 0 0-4.418-3.527c-.636-.473-1.218-.928-1.818-1.309-1.963-1.4-5.363-2.309-10.381-2.673a164.003 164.003 0 0 0-26.743.964c-2.369.206-4.72.583-7.036 1.127a37.302 37.302 0 0 0-15.344 6.999l-.909.782-.781-.673a3.901 3.901 0 0 1-.4-.382 18.253 18.253 0 0 1 1.581-1.345 38.86 38.86 0 0 1 15.508-6.89 58.027 58.027 0 0 1 7.272-1.164 174.634 174.634 0 0 1 26.089-1.036c3.58.075 7.119.783 10.453 2.091.566.249 1.103.56 1.6.927 1.818 1.254 3.945 3.036 6.236 4.89l2.363 1.909z" fill="#FFD249"/><path d="M215.869 254.752a5.744 5.744 0 0 1-.618 1.491 31.856 31.856 0 0 1-2.546-2.327l-1.381-1.4a18.08 18.08 0 0 0-6.109-4.836 23.927 23.927 0 0 0-5.836-.836c-8.508-.436-22.761.454-29.779.891-2.059.145-4.08.63-5.981 1.436a33.76 33.76 0 0 0-9.09 5.781c-.933.79-1.82 1.634-2.655 2.527l-1.145-1.036a29.634 29.634 0 0 1 2.091-2.073 35.103 35.103 0 0 1 10.635-6.799 21.14 21.14 0 0 1 6.054-1.382c7.272-.472 20.398-1.29 29.088-.927 2.456.003 4.901.327 7.273.964a16.194 16.194 0 0 1 5.563 4.072l1.145 1.145c.964 1.109 2.054 2.255 3.291 3.309z" fill="#FFD249"/><path d="M213.687 257.97c.17.884.292 1.776.364 2.673-.382-.727-.8-1.491-1.254-2.236a16.658 16.658 0 0 0-3-3.946c-.673-.581-2.818-.963-6.254-1.163a278.762 278.762 0 0 0-30.452.745 14.544 14.544 0 0 0-9.381 5.454l-.745.873a30.35 30.35 0 0 0-3.327 4.927l-1.382-.673a31.3 31.3 0 0 1 3.763-5.563 25.9 25.9 0 0 1 1.818-1.945 14.704 14.704 0 0 1 9.09-4.545 291.578 291.578 0 0 1 29.398-.8c4.636.218 7.454.763 8.417 1.6.997.915 1.865 1.96 2.582 3.108.254.382.509.8.763 1.219a2.06 2.06 0 0 1-.4.272z" fill="#FFD249"/><path d="M214.142 264.623c0 .673 0 1.327-.146 1.964-3.781-3.963-11.126-4-20.744-4.054-3.363 0-6.835 0-10.58-.219-15.926-.745-18.381 10.527-18.399 10.636l-1.527-.291c0-.145 2.763-12.726 19.998-11.89 3.636.2 7.145.2 10.508.218 8.909.055 16.472.091 20.89 3.636zm-2.255 10.127l-.254.51v1.09c-3.497.38-7.035.015-10.381-1.072-9.999-3.091-12.272-2.255-18.344 0-6.345 2.327-18.816 2.545-19.344 2.545v-1.545c.11 0 12.727-.219 18.799-2.455 6.726-2.472 9.326-3.109 19.344 0a23.453 23.453 0 0 0 10.18.927zm-.636 9.436v1.545c-1.636-.182-3.454-.454-5.454-.745-6.436-.946-14.454-2.164-21.18-.8a82.026 82.026 0 0 1-17.09 1.691c-.218-.546-.472-1.055-.709-1.564a80.254 80.254 0 0 0 17.49-1.636c6.999-1.418 15.162-.2 21.816.782 1.691.272 3.454.636 5.127.727zm-.454 6.963l-.091 1.546c-12.726-1.546-32.434 1.2-39.906 2.381-.127-.509-.291-1.018-.436-1.509 7.381-1.181 27.179-4.018 40.433-2.418z" fill="#FFD249"/><path d="M167.764 177.267s23.271-5.017 26.016 11.29c2.745 16.308-3.636 32.288-15.672 30.543-14.853-2.163-28.67-34.906-10.344-41.833z" fill="#FFA681"/><path d="M179.945 196.975c0 1.018.436 1.818 1.091 1.818.654 0 1.2-.782 1.254-1.818.055-1.036-.436-1.818-1.091-1.818-.654 0-1.218.8-1.254 1.818zm9.744-.4c0 1.018.437 1.818 1.091 1.818.655 0 1.2-.764 1.255-1.818.054-1.055-.437-1.818-1.091-1.818-.655 0-1.2.8-1.255 1.818z" fill="#231B30"/><path d="M185.509 204.204a7.34 7.34 0 0 1-1.648-.378l.31-.728c.747.319 1.964.502 2.254.213.1-.103.085-.355-.047-.701-.884-2.353-.658-8.096-.637-8.355l.779.031c-.024.057-.256 5.841.583 8.063a1.366 1.366 0 0 1-.128 1.531 1.784 1.784 0 0 1-1.466.324z" fill="#DB614D"/><path d="M179.399 191.212a.495.495 0 0 0 .4-.164 3.098 3.098 0 0 1 2.891-.981.48.48 0 0 0 .357-.065.477.477 0 0 0 .209-.481.448.448 0 0 0-.366-.363 3.966 3.966 0 0 0-3.818 1.29.491.491 0 0 0 0 .673.548.548 0 0 0 .327.091zm10.618-1.236a.503.503 0 0 0 .272 0 3.133 3.133 0 0 1 3.073 0 .478.478 0 0 0 .386.111.468.468 0 0 0 .332-.226.472.472 0 0 0-.245-.685 4.033 4.033 0 0 0-4.055 0 .475.475 0 0 0-.145.636.449.449 0 0 0 .382.164zm-14.236-3.6a25.747 25.747 0 0 0-6.545 14.545s-3.254-5.036-5.672-1.237c-2.418 3.8 4.818 10.527 4.818 10.527s-.6 5.145-4.109 4.89c-3.509-.254-11.126-15.78-8.326-22.18 2.799-6.399 9.853-12.362 19.834-6.545z" fill="#293267"/><path d="M169.055 206.629c1.199 4.836 6.908 13.599 14.162 12.09 0 0-1.454 8.799 1.163 11.654 0 0-.563 7.362-4.526 7.381-4.545 0-13.745-9.472-13.745-9.472a31.085 31.085 0 0 0 .364-21.071 1.531 1.531 0 0 0 1.459.455 1.525 1.525 0 0 0 1.123-1.037z" fill="#FFA681"/><path d="M169.055 206.629c1.199 4.836 6.908 13.599 14.162 12.09 0 0-.217 2.281-.217 6.281 0 0 .62.937-3.343.955-4.545 0-10.683-18.289-10.683-18.289s-2.089-.112-1.833-.032a1.528 1.528 0 0 0 1.914-1.005z" fill="#F97853"/><path d="M188.872 207c-2.592.583-5.28.583-7.872 0a4.909 4.909 0 0 0 4.345 4.836c3.491.291 3.527-4.836 3.527-4.836z" fill="#fff"/><path d="M186.944 180.086S182.69 189.94 168 192.067c-14.689 2.127-12.726 4.581-12.726 4.581s-1.963-15.98 8.927-22.743c10.89-6.763 37.669-.709 30.651 19.998a11.758 11.758 0 0 0-7.908-13.817z" fill="#293267"/><path d="M145.166 236.009a25.546 25.546 0 0 1 12.544 10.253c4.254 7.4 15.635 47.996 15.635 47.996a342.94 342.94 0 0 1 44.451-.945l.327 4.945s-52.832 15.58-55.341 12.508c-1.581-1.909-10.271-35.197-16.653-50.541-6.381-15.345-3.418-21.217-.963-24.216z" fill="#FFA681"/><path d="M163.837 257.042c0 .91 0 1.728-.127 2.382 0 1.345-.2 2.127-.2 2.127a6.523 6.523 0 0 0-.546-1.254 7.51 7.51 0 0 0-.945-1.309 18.173 18.173 0 0 0-7.508-4.036l-1.709-.582a30.86 30.86 0 0 1-4.673-2 11.017 11.017 0 0 1-1.6-1.036l-.781-.673a3.901 3.901 0 0 1-.4-.382 33.604 33.604 0 0 1-3.636-3.926 27.801 27.801 0 0 1-.982-1.309c-.49-.697-.91-1.44-1.254-2.218 2.381-10.654 12.362-13.563 15.416-14.217h.891a25.06 25.06 0 0 1 3.309 4.799c.255.473.509.946.745 1.455a35.567 35.567 0 0 1 2.564 7.272c.127.491.254 1 .345 1.509.273 1.363.491 2.709.655 4.018 0 .545.127 1.072.182 1.599.26 2.585.345 5.185.254 7.781z" fill="#FFE668"/><path d="M159.874 234.7c-.746 0-1.473.2-2.146.345a23.453 23.453 0 0 0-11.999 6.545 30.388 30.388 0 0 0-3.981 4.763 27.29 27.29 0 0 1-.982-1.309 30.186 30.186 0 0 1 5.109-5.727 24.479 24.479 0 0 1 11.562-5.781c.528-.109 1.109-.2 1.691-.291.255.473.509.945.746 1.455zm2.908 8.853a37.31 37.31 0 0 0-15.344 7l-.909.781-.781-.672a4.012 4.012 0 0 1-.4-.382 18.253 18.253 0 0 1 1.581-1.345 38.848 38.848 0 0 1 15.508-6.891c.127.491.255 1 .345 1.509zm.837 5.618a33.76 33.76 0 0 0-9.09 5.781l-1.709-.582a35.103 35.103 0 0 1 10.635-6.799l.164 1.6zm.218 7.872c0 .909 0 1.727-.127 2.381l-.746.873a7.51 7.51 0 0 0-.945-1.309 25.9 25.9 0 0 1 1.818-1.945z" fill="#FFD249"/></svg>