<svg width="66" height="66" fill="none" xmlns="http://www.w3.org/2000/svg"><path d="M35.063 52.594h-4.126c-1.708 0-3.093-1.847-3.093-4.125s1.385-4.125 3.093-4.125h4.125v8.25z" fill="#4D4D4D"/><path d="M28.875 52.594H24.75c-1.709 0-3.094-1.847-3.094-4.125s1.385-4.125 3.094-4.125h4.125v8.25z" fill="#4D4D4D"/><path d="M14.438 52.594h-4.126c-1.708 0-3.093-1.847-3.093-4.125s1.385-4.125 3.093-4.125h4.126v8.25z" fill="gray"/><path d="M14.438 52.594c1.708 0 3.093-1.847 3.093-4.125s-1.385-4.125-3.093-4.125c-1.71 0-3.094 1.847-3.094 4.125s1.385 4.125 3.094 4.125z" fill="#4D4D4D"/><path d="M36.094 13.406h26.812V40.22H36.094V13.406z" fill="#FC7"/><path d="M15.469 13.406h20.625V40.22H15.469V13.406z" fill="#FCB73F"/><path d="M3.094 23.719h16.5v24.75h-16.5v-24.75z" fill="#E6E6E6"/><path d="M19.594 23.719h12.375v24.75H19.594v-24.75z" fill="#CCC"/><path d="M3.094 27.844h16.5v8.25h-16.5v-8.25z" fill="#65DCFF"/><path d="M19.594 27.844h8.25v3.093l-8.25 5.157v-8.25z" fill="#57C1FF"/><path d="M6.188 23.719a13.496 13.496 0 018.15-5.137l.1-.02h17.53v5.157H6.189z" fill="#FF6F35"/><path d="M23.719 23.719a13.495 13.495 0 018.15-5.137l.1-.02v5.157h-8.25z" fill="#E05E1D"/><path d="M36.094 40.219h26.812v4.125H36.094v-4.125z" fill="#CCC"/><path d="M31.969 40.219h4.125v4.125h-4.125v-4.125z" fill="#B3B3B3"/><path d="M3.094 40.219H9.28v4.125H3.094v-4.125zm10.312 0h6.188v4.125h-6.188v-4.125z" fill="#F2E368"/><path d="M35.063 44.344h11.343v4.125H35.063v-4.125z" fill="#B3B3B3"/><path d="M28.875 52.594c1.709 0 3.094-1.847 3.094-4.125s-1.385-4.125-3.094-4.125c-1.709 0-3.094 1.847-3.094 4.125s1.385 4.125 3.094 4.125z" fill="gray"/><path d="M59.813 52.594h-4.126c-1.708 0-3.093-1.847-3.093-4.125s1.385-4.125 3.093-4.125h4.126v8.25z" fill="#4D4D4D"/><path d="M59.813 52.594c1.708 0 3.093-1.847 3.093-4.125s-1.385-4.125-3.093-4.125c-1.71 0-3.094 1.847-3.094 4.125s1.385 4.125 3.093 4.125z" fill="gray"/><path d="M53.625 52.594H49.5c-1.709 0-3.094-1.847-3.094-4.125s1.385-4.125 3.094-4.125h4.125v8.25z" fill="#4D4D4D"/><path d="M53.625 52.594c1.709 0 3.094-1.847 3.094-4.125s-1.385-4.125-3.094-4.125c-1.709 0-3.094 1.847-3.094 4.125s1.385 4.125 3.094 4.125zm-18.562 0c1.708 0 3.093-1.847 3.093-4.125s-1.385-4.125-3.093-4.125c-1.71 0-3.094 1.847-3.094 4.125s1.385 4.125 3.093 4.125z" fill="gray"/><path d="M62.906 12.375H15.47a1.032 1.032 0 00-1.031 1.031v4.125c-.068 0-.136.007-.203.02l-.1.02a14.506 14.506 0 00-8.45 5.116H3.094a1.032 1.032 0 00-1.031 1.032v24.75a1.031 1.031 0 001.03 1.031h3.178c.383 2.35 2.05 4.125 4.042 4.125h4.124c1.993 0 3.66-1.774 4.043-4.125h2.228c.383 2.35 2.05 4.125 4.042 4.125h4.125c1.231 0 2.337-.678 3.094-1.751.756 1.072 1.862 1.751 3.093 1.751 1.993 0 3.66-1.774 4.043-4.125h6.353c.383 2.35 2.05 4.125 4.042 4.125h4.125c1.231 0 2.337-.678 3.094-1.751.756 1.072 1.862 1.751 3.093 1.751 2.275 0 4.126-2.313 4.126-5.156a6.006 6.006 0 00-.84-3.113 1.03 1.03 0 00.84-1.012V13.406a1.032 1.032 0 00-1.032-1.031zm-1.031 30.938h-24.75V41.25h24.75v2.063zm-37.042 4.124h-4.208V36.666l7.765-4.853a1.03 1.03 0 00.485-.875v-3.093a1.032 1.032 0 00-1.031-1.032h-7.219V24.75h10.313v19.256a3.495 3.495 0 00-2.063-.694c-1.992 0-3.659 1.775-4.042 4.126zm-6.27-12.374H4.124v-6.188h14.438v6.188zm2.062-6.188h6.188v1.49l-6.188 3.868v-5.358zm10.313-6.188H26.03a12.438 12.438 0 014.907-2.811v2.811zM33 43.313V41.25h2.063v2.063H33zm5.36 2.063h7.015v2.063h-6.27a5.82 5.82 0 00-.745-2.063zm-1.235-30.938h24.75v24.75h-24.75v-24.75zm-20.625 0h18.563v24.75H33V18.564a1.028 1.028 0 00-1.031-1.03v-.002H16.5v-3.093zm-1.96 5.157h12.123a14.51 14.51 0 00-3.447 3.093H8.498a12.446 12.446 0 016.042-3.093zm4.023 5.156v2.063H4.124V24.75h14.438zM4.124 41.25H8.25v2.063H4.125V41.25zm0 4.125H9.28a1.032 1.032 0 001.031-1.031v-4.125a1.032 1.032 0 00-1.03-1.032H4.124v-2.062h14.438v2.063h-5.157a1.032 1.032 0 00-1.031 1.03v4.126a1.032 1.032 0 001.031 1.031h5.156v2.063H4.126v-2.063zm14.438-4.125v2.063h-4.125V41.25h4.124zM8.373 49.5h2.023a5.82 5.82 0 00.744 2.063h-.828c-.878 0-1.649-.875-1.939-2.063zm6.065 2.063c-.879 0-1.65-.875-1.94-2.063h3.88c-.291 1.188-1.062 2.063-1.94 2.063zM22.81 49.5h2.022a5.82 5.82 0 00.744 2.063h-.827c-.878 0-1.65-.875-1.94-2.063zm6.064 2.063c-1.118 0-2.063-1.417-2.063-3.094 0-1.677.945-3.094 2.063-3.094 1.118 0 2.063 1.417 2.063 3.094 0 1.677-.945 3.093-2.063 3.093zm6.188 0c-1.119 0-2.063-1.417-2.063-3.094 0-1.677.944-3.094 2.063-3.094 1.117 0 2.062 1.417 2.062 3.094 0 1.677-.944 3.093-2.063 3.093zm12.374-3.094c0-1.677.945-3.094 2.063-3.094h.827a6.198 6.198 0 000 6.188H49.5c-1.118 0-2.063-1.417-2.063-3.094zm6.188 3.093c-1.118 0-2.063-1.416-2.063-3.093s.945-3.094 2.063-3.094c1.118 0 2.063 1.417 2.063 3.094 0 1.677-.945 3.093-2.063 3.093zm6.188 0c-1.119 0-2.063-1.416-2.063-3.093s.944-3.094 2.063-3.094c1.117 0 2.062 1.417 2.062 3.094 0 1.677-.944 3.093-2.063 3.093z" fill="#000"/></svg>