<svg width="40" height="21" fill="none" xmlns="http://www.w3.org/2000/svg"><path d="M15.187.265L9.95 14.78H6.533L3.956 3.196c-.156-.712-.292-.974-.767-1.275C2.412 1.431 1.129.971 0 .686L.076.265h5.5c.7 0 1.331.542 1.491 1.48l1.362 8.4 3.362-9.88h3.396zm4.619 0L17.133 14.78h-3.232L16.574.265h3.232zm8.768 9.776c.013-3.83-4.559-4.043-4.529-5.754.011-.52.438-1.074 1.372-1.216.462-.07 1.74-.125 3.187.65l.567-3.08C28.393.314 27.392 0 26.146 0c-3.195 0-5.443 1.972-5.46 4.797-.022 2.09 1.605 3.256 2.828 3.952 1.26.71 1.682 1.167 1.676 1.803-.009.974-1.006 1.405-1.933 1.42-1.625.03-2.568-.51-3.32-.916l-.586 3.181c.756.403 2.15.753 3.593.77 3.397 0 5.619-1.948 5.629-4.966zm8.437 4.739H40L37.39.265h-2.758c-.622 0-1.145.42-1.377 1.064l-4.85 13.45H31.8l.674-2.167h4.147l.392 2.168zm-3.607-5.143l1.701-5.45.978 5.45h-2.68zm-9.461 9.138h-1.314v1.42h1.47v.427h-1.912v-3.94h1.836v.428h-1.394v1.244h1.313v.422zm.834-2.303h.442v4.15h-.442v-4.15zm1.559 2.829c.01.696.387.982.835.982a1.4 1.4 0 00.675-.146l.08.369a1.752 1.752 0 01-.815.18c-.75 0-1.197-.578-1.197-1.432 0-.853.432-1.52 1.141-1.52.8 0 1.007.807 1.007 1.328 0 .105-.005.18-.016.24h-1.71V19.3zm1.298-.368c.005-.321-.116-.83-.614-.83-.453 0-.644.473-.68.83h1.294zm2.837 1.59a1.51 1.51 0 01-.7.164c-.734 0-1.212-.58-1.212-1.444 0-.871.513-1.508 1.308-1.508.261 0 .493.076.613.152l-.1.391a.967.967 0 00-.513-.134c-.559 0-.86.485-.86 1.07 0 .654.362 1.058.845 1.058.251 0 .417-.07.543-.135l.076.386zm1.241-3.408v.678h.634v.391h-.634v1.526c0 .351.086.55.332.55a.702.702 0 00.257-.036l.02.393c-.085.034-.221.07-.392.07a.589.589 0 01-.478-.217c-.121-.158-.171-.409-.171-.742v-1.544h-.378v-.39h.378v-.527l.432-.152zm1.252 1.56c0-.332-.005-.619-.02-.882h.388l.02.561h.015c.11-.38.382-.62.679-.62.045 0 .08.007.12.012v.486c-.044-.012-.09-.012-.15-.012-.312 0-.534.268-.594.655a1.91 1.91 0 00-.015.24v1.507h-.443v-1.946zm3.924.51c0 1.046-.63 1.502-1.212 1.502-.655 0-1.168-.562-1.168-1.456 0-.941.539-1.496 1.208-1.496.699 0 1.172.59 1.172 1.45zm-1.927.029c0 .62.302 1.087.735 1.087.422 0 .739-.462.739-1.1 0-.479-.206-1.08-.73-1.08-.517 0-.744.56-.744 1.093zm2.605-.655c0-.298-.005-.532-.02-.766h.393l.025.468h.01a.89.89 0 01.805-.526c.337 0 .86.234.86 1.204v1.683h-.443v-1.63c0-.456-.145-.837-.563-.837-.287 0-.514.24-.594.526a.844.844 0 00-.03.24v1.701h-.443V18.56z" fill="#1A1F71"/></svg>