<svg width="10" height="12" viewBox="0 0 10 12" fill="none" xmlns="http://www.w3.org/2000/svg">
<path d="M5.49993 0.5L5.49993 10.4747L9.13789 6.65525C9.32839 6.45525 9.64488 6.4475 9.84488 6.638C10.0446 6.82825 10.0526 7.14475 9.86213 7.345L5.70718 11.707C5.51818 11.8957 5.26719 12 4.99994 12C4.73294 12 4.4817 11.8957 4.28445 11.6982L0.137998 7.34475C0.0457488 7.248 5.81457e-08 7.124 5.96244e-08 7C6.11985e-08 6.868 0.0519992 6.736 0.155248 6.63775C0.355246 6.44725 0.671493 6.455 0.86199 6.655L4.49995 10.4905L4.49995 0.5C4.49995 0.224 4.72394 -6.29164e-08 4.99994 -5.96251e-08C5.27594 -5.63339e-08 5.49993 0.224 5.49993 0.5Z" fill="#D03D29"/>
</svg>
