<svg width="12" height="10" viewBox="0 0 12 10" fill="none" xmlns="http://www.w3.org/2000/svg">
<path d="M0.5 4.50007H10.4748L6.65525 0.862111C6.45525 0.671614 6.4475 0.355118 6.638 0.15512C6.82825 -0.0446275 7.14475 -0.0526275 7.345 0.13787L11.707 4.29282C11.8958 4.48182 12 4.73281 12 5.00006C12 5.26706 11.8958 5.5183 11.6983 5.71555L7.34475 9.862C7.248 9.95425 7.124 10 7 10C6.868 10 6.736 9.948 6.63775 9.84475C6.44725 9.64475 6.455 9.32851 6.655 9.13801L10.4905 5.50005H0.5C0.224 5.50005 0 5.27606 0 5.00006C0 4.72406 0.224 4.50007 0.5 4.50007Z" fill="#9E8787"/>
</svg>
