<svg width="13" height="13" viewBox="0 0 13 13" fill="none" xmlns="http://www.w3.org/2000/svg">
<path d="M6.52163 11.877H11.3804C11.6784 11.877 11.9203 11.6351 11.9203 11.3372V1.61961C11.9203 1.3216 11.6784 1.07975 11.3804 1.07975H6.52163C6.22309 1.07975 5.98178 0.838443 5.98178 0.539902C5.98178 0.241361 6.22309 0 6.52163 0H11.3804C12.2734 0 13 0.726674 13 1.61961V11.3371C13 12.2301 12.2734 12.9567 11.3804 12.9567H6.52163C6.22309 12.9567 5.98178 12.7154 5.98178 12.4169C5.98178 12.1183 6.22309 11.877 6.52163 11.877Z" fill="#1B1B1B"/>
<path d="M8.52012 6.09395L5.23774 2.85476C5.02611 2.64529 4.68385 2.64801 4.47438 2.86017C4.26491 3.07233 4.26707 3.41406 4.47979 3.62354L6.82548 5.93846H0.539851C0.241311 5.93846 0 6.17977 0 6.47831C0 6.77685 0.241311 7.01819 0.539851 7.01819H6.82548L4.47979 9.33311C4.26709 9.54258 4.26547 9.88431 4.47438 10.0965C4.58018 10.2034 4.71947 10.2573 4.85876 10.2573C4.9959 10.2573 5.13301 10.2055 5.23774 10.1019L8.52012 6.86267C8.62269 6.76118 8.68099 6.62296 8.68099 6.47828C8.68099 6.33366 8.62323 6.19599 8.52012 6.09395Z" fill="#1B1B1B"/>
</svg>
