<svg width="8" height="5" viewBox="0 0 8 5" fill="none" xmlns="http://www.w3.org/2000/svg">
<path d="M7.87201 0.362128L7.60996 0.118675C7.52762 0.0421164 7.41783 0 7.30063 0C7.18342 0 7.07357 0.0421164 6.99123 0.118675L3.30908 3.53946L1.00852 1.40211C0.92618 1.32567 0.816326 1.28349 0.699123 1.28349C0.581984 1.28349 0.472196 1.32567 0.389789 1.40211L0.127675 1.6455C0.0452683 1.72218 0 1.8243 0 1.93306C0 2.04189 0.0452683 2.14394 0.127675 2.2205L2.72514 4.63352C2.72859 4.63805 2.73223 4.64228 2.73646 4.64615L2.99857 4.88562C3.08091 4.96187 3.19077 5 3.30888 5H3.31025C3.42752 5 3.53737 4.96187 3.61958 4.88562L3.88176 4.64404C3.88599 4.64017 3.88957 4.63697 3.89171 4.6337L7.87194 0.936288C8.04268 0.778034 8.04268 0.520563 7.87201 0.362128Z" fill="#D03D29"/>
</svg>
