<svg width="122" height="22" viewBox="0 0 122 22" fill="none" xmlns="http://www.w3.org/2000/svg">
<path d="M105.11 14.0681L103.948 21.1987C103.856 21.7652 104.46 22.1903 104.959 21.9121L111 18.5685L117.041 21.913C117.536 22.1884 118.146 21.7716 118.052 21.1997L116.891 14.069L121.804 9.02511C122.194 8.62575 121.97 7.94821 121.416 7.86375L114.653 6.82908L111.622 0.362179C111.395 -0.120726 110.604 -0.120726 110.378 0.362179L107.347 6.82816L100.584 7.86283C100.029 7.94821 99.8067 8.62483 100.196 9.02419L105.11 14.0681Z" fill="#D03D29"/>
<path d="M80.1097 14.0681L78.9482 21.1987C78.8557 21.7652 79.4598 22.1903 79.9593 21.9121L86.0002 18.5685L92.0411 21.913C92.5361 22.1884 93.1457 21.7716 93.0522 21.1997L91.8908 14.069L96.8041 9.02511C97.1937 8.62575 96.97 7.94821 96.4164 7.86375L89.6532 6.82908L86.6217 0.362179C86.3953 -0.120726 85.6042 -0.120726 85.3778 0.362179L82.3473 6.82816L75.5841 7.86283C75.0286 7.94821 74.8067 8.62483 75.1963 9.02419L80.1097 14.0681Z" fill="#D03D29"/>
<path d="M55.1097 14.0681L53.9482 21.1987C53.8557 21.7652 54.4598 22.1903 54.9593 21.9121L61.0002 18.5685L67.0411 21.913C67.5361 22.1884 68.1457 21.7716 68.0522 21.1997L66.8908 14.069L71.8041 9.02511C72.1937 8.62575 71.97 7.94821 71.4164 7.86375L64.6532 6.82908L61.6217 0.362179C61.3953 -0.120726 60.6042 -0.120726 60.3778 0.362179L57.3473 6.82816L50.5841 7.86283C50.0286 7.94821 49.8067 8.62483 50.1963 9.02419L55.1097 14.0681Z" fill="#D03D29"/>
<path d="M30.1097 14.0681L28.9482 21.1987C28.8557 21.7652 29.4598 22.1903 29.9593 21.9121L36.0002 18.5685L42.0411 21.913C42.5361 22.1884 43.1457 21.7716 43.0522 21.1997L41.8908 14.069L46.8041 9.02511C47.1937 8.62575 46.97 7.94821 46.4164 7.86375L39.6532 6.82908L36.6217 0.362179C36.3953 -0.120726 35.6042 -0.120726 35.3778 0.362179L32.3473 6.82816L25.5841 7.86283C25.0286 7.94821 24.8067 8.62483 25.1963 9.02419L30.1097 14.0681Z" fill="#D03D29"/>
<path d="M5.10967 14.0681L3.94825 21.1987C3.85566 21.7652 4.45975 22.1903 4.95934 21.9121L11.0002 18.5685L17.0411 21.913C17.5361 22.1884 18.1457 21.7716 18.0522 21.1997L16.8908 14.069L21.8041 9.02511C22.1937 8.62575 21.97 7.94821 21.4164 7.86375L14.6532 6.82908L11.6217 0.362179C11.3953 -0.120726 10.6042 -0.120726 10.3778 0.362179L7.34727 6.82816L0.584058 7.86283C0.0285536 7.94821 -0.193281 8.62483 0.196305 9.02419L5.10967 14.0681Z" fill="#D03D29"/>
</svg>
