<svg width="20" height="19" viewBox="0 0 20 19" fill="none" xmlns="http://www.w3.org/2000/svg">
<path d="M19.4893 8.80048C19.8067 9.16017 20 9.63494 20 10.1544C20 11.2741 19.1027 12.1853 18 12.1853H14.1182C14.5027 13.37 14.6667 14.9419 14.6667 15.6157V16.2922C14.6667 17.7851 13.4702 19 12 19H11.3333C11.0276 19 10.7609 18.7888 10.6867 18.4873L10.3236 17.012C9.81467 14.9459 8.19911 12.6664 6.52711 12.2521C6.23422 13.0048 5.51111 13.5392 4.66667 13.5392H0.666667C0.298667 13.5392 0 13.2359 0 12.8622V0.67696C0 0.303278 0.298667 0 0.666667 0H4.66667C5.46178 0 6.14978 0.473421 6.472 1.1576L8.76267 0.382257C9.51156 0.128622 10.292 0 11.0818 0H16.6667C17.7693 0 18.6667 0.911188 18.6667 2.03088C18.6667 2.29489 18.6169 2.54762 18.5262 2.77914C19.3742 3.01428 20 3.80361 20 4.73872C20 5.25817 19.8067 5.73295 19.4893 6.09264C19.8067 6.45233 20 6.9271 20 7.44656C20 7.96601 19.8067 8.44078 19.4893 8.80048ZM5.33333 2.03088C5.33333 1.65765 5.03422 1.35392 4.66667 1.35392H1.33333V12.1853H4.66667C5.03422 12.1853 5.33333 11.8815 5.33333 11.5083V2.03088ZM16.6667 8.12352H18C18.3676 8.12352 18.6667 7.81979 18.6667 7.44656C18.6667 7.07333 18.3676 6.7696 18 6.7696H16.6667C16.2987 6.7696 16 6.46632 16 6.09264C16 5.71896 16.2987 5.41568 16.6667 5.41568H18C18.3676 5.41568 18.6667 5.11195 18.6667 4.73872C18.6667 4.36549 18.3676 4.06176 18 4.06176H16.6667C16.2987 4.06176 16 3.75848 16 3.3848C16 3.01112 16.2987 2.70784 16.6667 2.70784C17.0342 2.70784 17.3333 2.40411 17.3333 2.03088C17.3333 1.65765 17.0342 1.35392 16.6667 1.35392H11.0818C10.4356 1.35392 9.79689 1.45907 9.184 1.66668L6.66667 2.51874V10.8954C7.71244 11.0972 8.736 11.7696 9.66 12.8704C10.5622 13.9454 11.2938 15.3706 11.6169 16.6834L11.8538 17.6461H12C12.7351 17.6461 13.3333 17.0386 13.3333 16.2922V15.6157C13.3333 14.7067 13.0533 12.9633 12.6951 12.1853H11.3333C10.9653 12.1853 10.6667 11.882 10.6667 11.5083C10.6667 11.1346 10.9653 10.8314 11.3333 10.8314H18C18.3676 10.8314 18.6667 10.5276 18.6667 10.1544C18.6667 9.78116 18.3676 9.47744 18 9.47744H16.6667C16.2987 9.47744 16 9.17416 16 8.80048C16 8.42679 16.2987 8.12352 16.6667 8.12352Z" fill="#AE9D9D"/>
</svg>
