<svg width="9" height="5" viewBox="0 0 9 5" fill="none" xmlns="http://www.w3.org/2000/svg">
<path d="M4.85118 4.86424L8.85622 1.07685C8.94893 0.989247 9 0.872312 9 0.747627C9 0.622941 8.94893 0.506006 8.85622 0.418408L8.56135 0.139492C8.3692 -0.0419999 8.05691 -0.0419999 7.86506 0.139492L4.50187 3.31986L1.13494 0.135963C1.04224 0.0483653 0.918651 -3.53247e-07 0.786871 -3.59007e-07C0.654945 -3.64774e-07 0.531361 0.0483653 0.438581 0.135963L0.143779 0.414879C0.0510721 0.502546 -2.70754e-08 0.619412 -3.25255e-08 0.744097C-3.79757e-08 0.868783 0.0510721 0.985718 0.143779 1.07332L4.15248 4.86424C4.24548 4.95205 4.36965 5.00028 4.50165 5C4.63416 5.00028 4.75825 4.95205 4.85118 4.86424Z" fill="#9D8C8C"/>
</svg>
