<svg width="16" height="16" viewBox="0 0 16 16" fill="none" xmlns="http://www.w3.org/2000/svg">
<path d="M14.7671 9.9903C14.547 9.9903 14.3687 10.1687 14.3687 10.3888V13.9268C14.3679 14.5868 13.8332 15.1216 13.1732 15.1222H1.99238C1.33241 15.1216 0.797731 14.5868 0.796953 13.9268V3.54292C0.797731 2.8831 1.33241 2.34827 1.99238 2.34749H5.53042C5.75051 2.34749 5.92889 2.16911 5.92889 1.94901C5.92889 1.72907 5.75051 1.55054 5.53042 1.55054H1.99238C0.892525 1.55178 0.00124524 2.44306 0 3.54292V13.927C0.00124524 15.0268 0.892525 15.9181 1.99238 15.9194H13.1732C14.2731 15.9181 15.1644 15.0268 15.1656 13.927V10.3888C15.1656 10.1687 14.9872 9.9903 14.7671 9.9903Z" fill="black"/>
<path d="M15.0072 0.525219C14.3069 -0.175073 13.1716 -0.175073 12.4713 0.525219L5.36222 7.63429C5.3135 7.68301 5.27832 7.7434 5.25995 7.80971L4.32509 11.1848C4.28664 11.3232 4.32571 11.4713 4.4272 11.573C4.52884 11.6745 4.67702 11.7135 4.8154 11.6752L8.19047 10.7402C8.25677 10.7219 8.31717 10.6867 8.36589 10.638L15.4748 3.52874C16.174 2.82798 16.174 1.69356 15.4748 0.992806L15.0072 0.525219ZM6.23046 7.8933L12.0487 2.07492L13.9251 3.95134L8.10672 9.76972L6.23046 7.8933ZM5.85564 8.64542L7.35475 10.1447L5.28112 10.7192L5.85564 8.64542ZM14.9113 2.96526L14.4887 3.38787L12.6122 1.51129L13.0349 1.08869C13.4239 0.699708 14.0546 0.699708 14.4436 1.08869L14.9113 1.55628C15.2997 1.94573 15.2997 2.57597 14.9113 2.96526Z" fill="black"/>
</svg>
