<svg width="20" height="20" viewBox="0 0 20 20" fill="none" xmlns="http://www.w3.org/2000/svg">
<path d="M19.2857 9.28572H7.75571C7.36837 7.76379 5.82057 6.84404 4.2986 7.23139C3.28928 7.48828 2.50116 8.2764 2.24426 9.28572H0.714299C0.319796 9.28572 0 9.60552 0 10C0 10.3945 0.319796 10.7143 0.714299 10.7143H2.24431C2.63165 12.2362 4.17945 13.156 5.70142 12.7686C6.71074 12.5117 7.49887 11.7236 7.75576 10.7143H19.2857C19.6802 10.7143 20 10.3945 20 9.99998C20 9.60548 19.6802 9.28572 19.2857 9.28572ZM5.00001 11.4286C4.21105 11.4286 3.57145 10.789 3.57145 10C3.57145 9.21106 4.21105 8.57147 5.00001 8.57147C5.78897 8.57147 6.42857 9.21106 6.42857 10C6.42857 10.789 5.78897 11.4286 5.00001 11.4286Z" fill="#0C0C0C"/>
<path d="M19.2857 2.14287H17.0414C16.6541 0.62094 15.1063 -0.298814 13.5843 0.0885324C12.575 0.345424 11.7869 1.13355 11.53 2.14287H0.714299C0.319796 2.14287 0 2.46267 0 2.85717C0 3.25167 0.319796 3.57147 0.714299 3.57147H11.53C11.9173 5.0934 13.4651 6.01315 14.9871 5.62581C15.9964 5.36891 16.7845 4.58079 17.0414 3.57147H19.2857C19.6802 3.57147 20 3.25167 20 2.85717C20 2.46267 19.6802 2.14287 19.2857 2.14287ZM14.2857 4.28573C13.4968 4.28573 12.8572 3.64613 12.8572 2.85717C12.8572 2.0682 13.4968 1.42861 14.2857 1.42861C15.0747 1.42861 15.7143 2.0682 15.7143 2.85717C15.7143 3.64613 15.0747 4.28573 14.2857 4.28573Z" fill="#0C0C0C"/>
<path d="M19.2857 16.4286H15.6128C15.2255 14.9067 13.6777 13.9869 12.1557 14.3743C11.1464 14.6312 10.3583 15.4193 10.1014 16.4286H0.714299C0.319796 16.4286 0 16.7484 0 17.1429C0 17.5373 0.319796 17.8572 0.714299 17.8572H10.1014C10.4888 19.3791 12.0366 20.2988 13.5585 19.9115C14.5679 19.6546 15.356 18.8665 15.6129 17.8572H19.2857C19.6802 17.8572 20 17.5374 20 17.1429C20 16.7484 19.6802 16.4286 19.2857 16.4286ZM12.8571 18.5715C12.0682 18.5715 11.4286 17.9319 11.4286 17.1429C11.4286 16.3539 12.0682 15.7143 12.8571 15.7143C13.6461 15.7143 14.2857 16.3539 14.2857 17.1429C14.2857 17.9319 13.6461 18.5715 12.8571 18.5715Z" fill="#0C0C0C"/>
</svg>
