<svg width="14" height="13" viewBox="0 0 14 13" fill="none" xmlns="http://www.w3.org/2000/svg">
<path d="M6.47837 11.877H1.61958C1.32157 11.877 1.07973 11.6351 1.07973 11.3372V1.61961C1.07973 1.3216 1.3216 1.07975 1.61958 1.07975H6.47837C6.77691 1.07975 7.01822 0.838443 7.01822 0.539902C7.01822 0.241361 6.77691 0 6.47837 0H1.61958C0.726649 0 0 0.726674 0 1.61961V11.3371C0 12.2301 0.726649 12.9567 1.61958 12.9567H6.47837C6.77691 12.9567 7.01822 12.7154 7.01822 12.4169C7.01822 12.1183 6.77691 11.877 6.47837 11.877Z" fill="#D03D29"/>
<path d="M12.8404 6.09383L9.55805 2.85464C9.34643 2.64517 9.00416 2.64789 8.79469 2.86005C8.58522 3.07221 8.58738 3.41394 8.8001 3.62341L11.1458 5.93834H4.86016C4.56162 5.93834 4.32031 6.17965 4.32031 6.47819C4.32031 6.77673 4.56162 7.01806 4.86016 7.01806H11.1458L8.8001 9.33299C8.5874 9.54246 8.58578 9.88419 8.79469 10.0964C8.90049 10.2032 9.03979 10.2572 9.17908 10.2572C9.31621 10.2572 9.45332 10.2054 9.55805 10.1017L12.8404 6.86255C12.943 6.76106 13.0013 6.62284 13.0013 6.47816C13.0013 6.33354 12.9435 6.19587 12.8404 6.09383Z" fill="#D03D29"/>
</svg>
