<svg width="14" height="14" viewBox="0 0 14 14" fill="none" xmlns="http://www.w3.org/2000/svg">
<path d="M3.13349 14C2.98011 14 2.82779 13.9501 2.6978 13.852C2.45565 13.6689 2.34254 13.3541 2.40844 13.0504L3.3091 8.91042L0.254639 6.11523C0.0301158 5.91071 -0.0556559 5.5868 0.0365247 5.29043C0.128705 4.99462 0.379505 4.78519 0.676448 4.75654L4.71787 4.37368L6.3157 0.471809C6.43352 0.185134 6.70183 0 6.99995 0C7.29807 0 7.56639 0.185135 7.6842 0.47114L9.28204 4.37368L13.3228 4.75654C13.6204 4.78452 13.8712 4.99462 13.9634 5.29043C14.0556 5.58625 13.9703 5.91071 13.7458 6.11523L10.6913 8.90986L11.592 13.0497C11.658 13.3541 11.5448 13.6689 11.3027 13.8514C11.0612 14.034 10.7392 14.048 10.4849 13.8885L6.99995 11.7154L3.51503 13.8898C3.39722 13.9628 3.26594 14 3.13349 14ZM6.99995 10.7793C7.1324 10.7793 7.26357 10.8164 7.38149 10.8894L10.6704 12.942L9.82038 9.03458C9.75971 8.75649 9.85018 8.46614 10.0561 8.278L12.9402 5.63863L9.12449 5.27706C8.84976 5.25086 8.61349 5.07063 8.50614 4.80647L6.99995 1.12429L5.49195 4.80703C5.38578 5.06941 5.1495 5.24964 4.87542 5.27583L1.05916 5.63741L3.94315 8.27677C4.14972 8.46547 4.24009 8.75527 4.17888 9.03403L3.3295 12.9414L6.61841 10.8894C6.73623 10.8164 6.8675 10.7793 6.99995 10.7793ZM4.687 4.44913C4.687 4.44913 4.687 4.4498 4.68636 4.45036L4.687 4.44913ZM9.31173 4.44735L9.31237 4.44858C9.31237 4.44791 9.31237 4.44791 9.31173 4.44735Z" fill="#C0AFAF"/>
</svg>
