<svg width="14" height="14" viewBox="0 0 14 14" fill="none" xmlns="http://www.w3.org/2000/svg">
<path d="M7.4393 14H6.56067C5.85003 14 5.27185 13.4218 5.27185 12.7112V12.414C4.96973 12.3174 4.67619 12.1956 4.3942 12.0497L4.18354 12.2603C3.67333 12.7711 2.85605 12.7562 2.36067 12.2601L1.73966 11.6391C1.2434 11.1434 1.22913 10.3264 1.73983 9.81627L1.95032 9.60578C1.80439 9.32378 1.68257 9.0303 1.58602 8.72813H1.28879C0.578184 8.72813 0 8.14997 0 7.43933V6.56067C0 5.85003 0.578184 5.27187 1.28882 5.27187H1.58605C1.6826 4.96973 1.80441 4.67622 1.95035 4.39422L1.73969 4.18359C1.22929 3.67374 1.24338 2.85666 1.73986 2.36072L2.36091 1.73969C2.85745 1.24247 3.67454 1.23006 4.18376 1.73986L4.39422 1.95032C4.67622 1.80441 4.96975 1.68257 5.27187 1.58602V1.28879C5.27187 0.578156 5.85003 0 6.5607 0H7.43933C8.14997 0 8.72813 0.578156 8.72813 1.28879V1.58605C9.03025 1.68257 9.32378 1.80441 9.60578 1.95035L9.81643 1.73969C10.3266 1.22886 11.1439 1.24384 11.6393 1.73988L12.2603 2.36086C12.7566 2.85657 12.7708 3.67358 12.2601 4.18373L12.0497 4.39422C12.1956 4.67622 12.3174 4.9697 12.414 5.27187H12.7112C13.4218 5.27187 14 5.85003 14 6.56067V7.43933C14 8.14997 13.4218 8.72813 12.7112 8.72813H12.414C12.3174 9.03027 12.1956 9.32378 12.0497 9.60578L12.2603 9.81643C12.7707 10.3263 12.7566 11.1434 12.2601 11.6393L11.6391 12.2603C11.1426 12.7576 10.3255 12.77 9.81624 12.2602L9.60578 12.0497C9.32378 12.1956 9.03025 12.3175 8.72813 12.414V12.7113C8.72813 13.4218 8.14997 14 7.4393 14ZM4.53132 11.1882C4.92308 11.4199 5.34472 11.595 5.78452 11.7085C5.96564 11.7552 6.09219 11.9185 6.09219 12.1056V12.7112C6.09219 12.9695 6.30238 13.1797 6.5607 13.1797H7.43933C7.69765 13.1797 7.90784 12.9695 7.90784 12.7112V12.1056C7.90784 11.9185 8.03439 11.7552 8.21551 11.7085C8.65531 11.595 9.07695 11.4199 9.4687 11.1882C9.62989 11.0929 9.83511 11.1188 9.96754 11.2513L10.3965 11.6803C10.5815 11.8654 10.8785 11.8611 11.0589 11.6805L11.6803 11.059C11.8603 10.8793 11.8663 10.5822 11.6805 10.3966L11.2513 9.96748C11.1189 9.83508 11.093 9.62984 11.1883 9.46868C11.42 9.07695 11.595 8.65531 11.7085 8.21548C11.7552 8.03436 11.9186 7.90784 12.1056 7.90784H12.7112C12.9695 7.90784 13.1797 7.69768 13.1797 7.43936V6.5607C13.1797 6.30238 12.9695 6.09221 12.7112 6.09221H12.1056C11.9186 6.09221 11.7552 5.96567 11.7085 5.78457C11.595 5.34475 11.42 4.92311 11.1883 4.53138C11.093 4.37021 11.1189 4.16497 11.2513 4.03257L11.6803 3.60358C11.8658 3.41835 11.8609 3.1214 11.6805 2.94118L11.0591 2.31979C10.879 2.13943 10.5819 2.13415 10.3967 2.31962L9.96756 2.74879C9.83516 2.88121 9.62987 2.90713 9.46873 2.81181C9.07698 2.58013 8.65534 2.4051 8.21554 2.2916C8.03441 2.24487 7.90787 2.08152 7.90787 1.89446V1.28879C7.90787 1.03048 7.69768 0.820312 7.43936 0.820312H6.56072C6.30241 0.820312 6.09221 1.03048 6.09221 1.28879V1.8944C6.09221 2.08146 5.96567 2.24481 5.78454 2.29154C5.34475 2.40505 4.92311 2.58007 4.53135 2.81176C4.37013 2.90705 4.16492 2.88113 4.03252 2.74873L3.60355 2.31973C3.4186 2.13456 3.12156 2.13886 2.94118 2.31954L2.31973 2.94096C2.13976 3.12071 2.13374 3.41775 2.31957 3.60336L2.74873 4.03252C2.88113 4.16492 2.90705 4.37016 2.81176 4.53132C2.58007 4.92305 2.40507 5.34469 2.29157 5.78452C2.24481 5.96564 2.08146 6.09216 1.89443 6.09216H1.28882C1.0305 6.09219 0.820312 6.30235 0.820312 6.56067V7.43933C0.820312 7.69765 1.0305 7.90781 1.28882 7.90781H1.8944C2.08146 7.90781 2.24479 8.03436 2.29154 8.21546C2.40505 8.65528 2.58007 9.07692 2.81173 9.46865C2.90702 9.62981 2.8811 9.83505 2.7487 9.96745L2.31971 10.3965C2.13426 10.5817 2.1391 10.8786 2.31954 11.0589L2.94093 11.6802C3.12104 11.8606 3.41811 11.8659 3.60333 11.6804L4.03246 11.2512C4.13003 11.1537 4.333 11.0709 4.53132 11.1882Z" fill="#C0AFAF"/>
<path d="M7.00072 10.1316C5.27394 10.1316 3.86914 8.72674 3.86914 6.99999C3.86914 5.27323 5.27394 3.86841 7.00072 3.86841C8.7275 3.86841 10.1323 5.27323 10.1323 6.99999C10.1323 8.72674 8.7275 10.1316 7.00072 10.1316ZM7.00072 4.71174C5.73895 4.71174 4.71247 5.73825 4.71247 6.99999C4.71247 8.26173 5.73898 9.28823 7.00072 9.28823C8.26246 9.28823 9.28896 8.26173 9.28896 6.99999C9.28896 5.73825 8.26249 4.71174 7.00072 4.71174Z" fill="#C0AFAF"/>
</svg>
