<svg width="8" height="18" viewBox="0 0 8 18" fill="none" xmlns="http://www.w3.org/2000/svg">
<path d="M1.72916 3.48603C1.72916 3.93963 1.72916 5.96427 1.72916 5.96427H0V8.99468H1.72916V18H5.28122V8.99494H7.66481C7.66481 8.99494 7.88804 7.54188 7.99625 5.9531C7.68601 5.9531 5.29465 5.9531 5.29465 5.9531C5.29465 5.9531 5.29465 4.1901 5.29465 3.88109C5.29465 3.5714 5.68193 3.15483 6.06471 3.15483C6.44677 3.15483 7.25314 3.15483 8 3.15483C8 2.74223 8 1.31663 8 1.0825e-08C7.00296 1.0825e-08 5.86865 1.0825e-08 5.36866 1.0825e-08C1.64136 -0.000209237 1.72916 3.03321 1.72916 3.48603Z" fill="#D03D29"/>
</svg>
