<svg width="20" height="19" viewBox="0 0 20 19" fill="none" xmlns="http://www.w3.org/2000/svg">
<path d="M19.4893 10.1995C19.8067 9.83983 20 9.36506 20 8.84561C20 7.72591 19.1027 6.81473 18 6.81473H14.1182C14.5027 5.63005 14.6667 4.05815 14.6667 3.38435V2.70784C14.6667 1.21492 13.4702 0 12 0H11.3333C11.0276 0 10.7609 0.211211 10.6867 0.512684L10.3236 1.988C9.81467 4.05409 8.19911 6.33363 6.52711 6.74793C6.23422 5.99515 5.51111 5.46081 4.66667 5.46081H0.666667C0.298667 5.46081 0 5.76409 0 6.13777V18.323C0 18.6967 0.298667 19 0.666667 19H4.66667C5.46178 19 6.14978 18.5266 6.472 17.8424L8.76267 18.6177C9.51156 18.8714 10.292 19 11.0818 19H16.6667C17.7693 19 18.6667 18.0888 18.6667 16.9691C18.6667 16.7051 18.6169 16.4524 18.5262 16.2209C19.3742 15.9857 20 15.1964 20 14.2613C20 13.7418 19.8067 13.2671 19.4893 12.9074C19.8067 12.5477 20 12.0729 20 11.5534C20 11.034 19.8067 10.5592 19.4893 10.1995ZM5.33333 16.9691C5.33333 17.3424 5.03422 17.6461 4.66667 17.6461H1.33333V6.81473H4.66667C5.03422 6.81473 5.33333 7.11846 5.33333 7.49169V16.9691ZM16.6667 10.8765H18C18.3676 10.8765 18.6667 11.1802 18.6667 11.5534C18.6667 11.9267 18.3676 12.2304 18 12.2304H16.6667C16.2987 12.2304 16 12.5337 16 12.9074C16 13.281 16.2987 13.5843 16.6667 13.5843H18C18.3676 13.5843 18.6667 13.8881 18.6667 14.2613C18.6667 14.6345 18.3676 14.9382 18 14.9382H16.6667C16.2987 14.9382 16 15.2415 16 15.6152C16 15.9889 16.2987 16.2922 16.6667 16.2922C17.0342 16.2922 17.3333 16.5959 17.3333 16.9691C17.3333 17.3424 17.0342 17.6461 16.6667 17.6461H11.0818C10.4356 17.6461 9.79689 17.5409 9.184 17.3333L6.66667 16.4813V8.10456C7.71244 7.90283 8.736 7.23038 9.66 6.12964C10.5622 5.05463 11.2938 3.62941 11.6169 2.31656L11.8538 1.35392H12C12.7351 1.35392 13.3333 1.96138 13.3333 2.70784V3.38435C13.3333 4.29328 13.0533 6.03667 12.6951 6.81473H11.3333C10.9653 6.81473 10.6667 7.118 10.6667 7.49169C10.6667 7.86537 10.9653 8.16865 11.3333 8.16865H18C18.3676 8.16865 18.6667 8.47237 18.6667 8.84561C18.6667 9.21884 18.3676 9.52256 18 9.52256H16.6667C16.2987 9.52256 16 9.82584 16 10.1995C16 10.5732 16.2987 10.8765 16.6667 10.8765Z" fill="#D03D29"/>
</svg>
