<svg width="27" height="17" viewBox="0 0 27 17" fill="none" xmlns="http://www.w3.org/2000/svg">
<path d="M23.625 6.75V3.375H21.9375V6.75H18.5625V8.4375H21.9375V11.8125H23.625V8.4375H27V6.75H23.625Z" fill="white"/>
<path d="M8.4375 6.75V10.125H13.2114C12.5145 12.0892 10.638 13.5 8.4375 13.5C5.64637 13.5 3.375 11.2286 3.375 8.4375C3.375 5.64637 5.64637 3.375 8.4375 3.375C9.64744 3.375 10.8118 3.80869 11.7163 4.59675L13.9337 2.052C12.4149 0.729 10.4642 0 8.4375 0C3.78506 0 0 3.78506 0 8.4375C0 13.0899 3.78506 16.875 8.4375 16.875C13.0899 16.875 16.875 13.0899 16.875 8.4375V6.75H8.4375Z" fill="white"/>
</svg>
