<svg width="24" height="14" viewBox="0 0 24 14" fill="none" xmlns="http://www.w3.org/2000/svg">
<path d="M23.8727 12.6435C23.8437 12.5795 23.8166 12.5264 23.7914 12.4838C23.375 11.7171 22.5793 10.7759 21.4047 9.66014L21.3799 9.63459L21.3675 9.62206L21.3549 9.60922H21.3423C20.8092 9.08965 20.4716 8.7403 20.3303 8.56144C20.0716 8.22073 20.0137 7.87586 20.155 7.52642C20.2549 7.26241 20.6301 6.70485 21.2797 5.85298C21.6213 5.40152 21.892 5.03968 22.0918 4.76708C23.5331 2.80801 24.1579 1.55614 23.9662 1.01098L23.8918 0.883578C23.8418 0.80688 23.7127 0.736714 23.5046 0.672725C23.2961 0.608869 23.0296 0.598309 22.7047 0.640865L19.106 0.666281C19.0477 0.64516 18.9644 0.647129 18.856 0.672725C18.7477 0.698321 18.6935 0.711164 18.6935 0.711164L18.6308 0.743158L18.5811 0.781597C18.5395 0.807014 18.4936 0.851717 18.4436 0.915617C18.3938 0.979294 18.3522 1.05402 18.319 1.13918C17.9272 2.16977 17.4817 3.12796 16.9817 4.0137C16.6735 4.54186 16.3904 4.99959 16.1319 5.38715C15.8737 5.77458 15.6571 6.06003 15.4823 6.243C15.3072 6.42616 15.1492 6.57289 15.0073 6.68373C14.8657 6.79461 14.7575 6.84146 14.6826 6.82432C14.6076 6.80719 14.5369 6.79018 14.47 6.77318C14.3534 6.69648 14.2597 6.59217 14.189 6.46017C14.118 6.32816 14.0702 6.16201 14.0452 5.96185C14.0203 5.76156 14.0056 5.58928 14.0014 5.44443C13.9975 5.29976 13.9993 5.09513 14.0078 4.83111C14.0164 4.56697 14.0203 4.38824 14.0203 4.29454C14.0203 3.97083 14.0265 3.61952 14.0389 3.2405C14.0515 2.86148 14.0617 2.56118 14.0702 2.33995C14.0787 2.11849 14.0827 1.88419 14.0827 1.63718C14.0827 1.39017 14.068 1.19646 14.0389 1.05586C14.0102 0.915438 13.9661 0.779136 13.908 0.646995C13.8496 0.514988 13.7641 0.412873 13.6519 0.340381C13.5394 0.267979 13.3996 0.210523 13.2333 0.167833C12.7917 0.0656732 12.2294 0.0104095 11.5462 0.00181783C9.99681 -0.0151864 9.00124 0.0871074 8.55972 0.308565C8.38478 0.402133 8.22648 0.529978 8.08494 0.691698C7.93495 0.879147 7.91402 0.981442 8.0223 0.998267C8.52221 1.07483 8.87611 1.25798 9.0844 1.54755L9.15946 1.70099C9.21784 1.8117 9.27614 2.00769 9.33448 2.28871C9.39273 2.56973 9.43033 2.88059 9.44687 3.22112C9.48845 3.84299 9.48845 4.37531 9.44687 4.81814C9.40516 5.26114 9.36577 5.60602 9.32818 5.85302C9.29058 6.10003 9.23439 6.30019 9.15946 6.45345C9.0844 6.60676 9.03446 6.70046 9.00942 6.73447C8.98443 6.76848 8.9636 6.78991 8.94706 6.79833C8.83878 6.84075 8.72616 6.86236 8.60961 6.86236C8.49289 6.86236 8.35134 6.80267 8.18477 6.68337C8.01823 6.56407 7.8454 6.4002 7.66626 6.1915C7.48712 5.98275 7.28509 5.69104 7.06009 5.31632C6.83526 4.9416 6.60198 4.49873 6.36039 3.9877L6.1605 3.6171C6.03555 3.37868 5.86486 3.03153 5.64825 2.57595C5.43152 2.12019 5.23995 1.67933 5.07342 1.25346C5.00685 1.07461 4.90684 0.938439 4.77357 0.844737L4.71103 0.806298C4.66945 0.772289 4.60271 0.736177 4.51115 0.697694C4.41945 0.659256 4.32378 0.631691 4.22373 0.614731L0.799884 0.640148C0.450012 0.640148 0.21262 0.721187 0.0876214 0.88304L0.0375958 0.959604C0.0126049 1.00225 0 1.07036 0 1.1641C0 1.25781 0.0249909 1.37281 0.0750165 1.50898C0.574835 2.71001 1.11838 3.86832 1.70564 4.98406C2.29291 6.09981 2.80323 6.99857 3.2363 7.67955C3.66946 8.36102 4.11098 9.00418 4.56086 9.60873C5.01075 10.2135 5.30854 10.6011 5.45424 10.7713C5.60011 10.9419 5.71469 11.0694 5.79798 11.1546L6.11043 11.4612C6.31036 11.6656 6.60395 11.9105 6.99133 12.1957C7.3788 12.4812 7.80776 12.7622 8.27843 13.0392C8.74918 13.3158 9.29684 13.5415 9.9217 13.7161C10.5465 13.8908 11.1546 13.961 11.7461 13.9271H13.1831C13.4746 13.9014 13.6954 13.8077 13.8455 13.646L13.8952 13.5819C13.9286 13.5311 13.9599 13.4521 13.9888 13.3459C14.018 13.2394 14.0326 13.1221 14.0326 12.9945C14.024 12.6284 14.0513 12.2984 14.1136 12.0045C14.1759 11.7108 14.2469 11.4894 14.3263 11.3402C14.4056 11.1912 14.4952 11.0655 14.5948 10.9635C14.6947 10.8614 14.7659 10.7995 14.8076 10.7782C14.8491 10.7567 14.8822 10.7422 14.9072 10.7335C15.1072 10.6654 15.3425 10.7313 15.6135 10.9317C15.8842 11.1318 16.1382 11.379 16.3758 11.6727C16.6132 11.9667 16.8985 12.2965 17.2317 12.6627C17.565 13.029 17.8565 13.3013 18.1063 13.4804L18.3562 13.6337C18.523 13.736 18.7396 13.8297 19.0062 13.9149C19.2724 14 19.5056 14.0213 19.7058 13.9787L22.9046 13.9277C23.221 13.9277 23.4672 13.8742 23.6418 13.7679C23.8168 13.6614 23.9207 13.5441 23.9543 13.4166C23.9877 13.2888 23.9895 13.144 23.9606 12.982C23.931 12.8204 23.9018 12.7074 23.8727 12.6435Z" fill="white"/>
</svg>
