<svg width="9" height="7" viewBox="0 0 9 7" fill="none" xmlns="http://www.w3.org/2000/svg">
<path d="M0.375 3.15005L7.85606 3.15005L4.99144 0.603478C4.84144 0.47013 4.83562 0.248583 4.9785 0.108584C5.12119 -0.0312389 5.35856 -0.0368389 5.50875 0.0965094L8.78025 3.00497C8.92181 3.13727 9 3.31297 9 3.50004C9 3.68694 8.92181 3.86281 8.77369 4.00089L5.50856 6.9034C5.436 6.96798 5.343 7 5.25 7C5.151 7 5.052 6.9636 4.97831 6.89133C4.83544 6.75133 4.84125 6.52996 4.99125 6.39661L7.86788 3.85004L0.375 3.85004C0.168001 3.85004 3.22873e-07 3.69324 3.05983e-07 3.50004C2.89094e-07 3.30685 0.168 3.15005 0.375 3.15005Z" fill="#AE9D9D"/>
</svg>
