<svg width="9" height="7" viewBox="0 0 9 7" fill="none" xmlns="http://www.w3.org/2000/svg">
<path d="M8.625 3.15005L1.14394 3.15005L4.00856 0.603478C4.15856 0.47013 4.16438 0.248583 4.0215 0.108584C3.87881 -0.0312389 3.64144 -0.0368389 3.49125 0.0965094L0.21975 3.00497C0.0781872 3.13727 -2.89629e-07 3.31297 -3.05983e-07 3.50004C-3.22323e-07 3.68694 0.0781871 3.86281 0.226312 4.00089L3.49144 6.9034C3.564 6.96798 3.657 7 3.75 7C3.849 7 3.948 6.9636 4.02169 6.89133C4.16456 6.75133 4.15875 6.52996 4.00875 6.39661L1.13212 3.85004L8.625 3.85004C8.832 3.85004 9 3.69324 9 3.50004C9 3.30685 8.832 3.15005 8.625 3.15005Z" fill="#AE9D9D"/>
</svg>
