<svg width="150" height="25" viewBox="0 0 150 25" fill="none" xmlns="http://www.w3.org/2000/svg">
<path d="M128.986 15.9865L127.541 24.0895C127.426 24.7332 128.178 25.2162 128.799 24.9001L136.315 21.1005L143.831 24.9011C144.447 25.2141 145.205 24.7405 145.089 24.0905L143.644 15.9875L149.757 10.2558C150.242 9.80198 149.963 9.03206 149.274 8.93608L140.86 7.76032L137.088 0.411568C136.807 -0.137189 135.822 -0.137189 135.541 0.411568L131.77 7.75927L123.356 8.93503C122.664 9.03206 122.388 9.80094 122.873 10.2548L128.986 15.9865Z" fill="#EADADA"/>
<path d="M97.4667 15.9865L96.0217 24.0895C95.9065 24.7332 96.6581 25.2162 97.2796 24.9001L104.795 21.1005L112.311 24.9011C112.927 25.2141 113.686 24.7405 113.569 24.0905L112.124 15.9875L118.237 10.2558C118.722 9.80198 118.444 9.03206 117.755 8.93608L109.34 7.76032L105.569 0.411568C105.287 -0.137189 104.303 -0.137189 104.021 0.411568L100.251 7.75927L91.836 8.93503C91.1449 9.03206 90.8689 9.80094 91.3536 10.2548L97.4667 15.9865Z" fill="#EADADA"/>
<path d="M98.326 15.9865L96.881 24.0895C96.7658 24.7332 97.5174 25.2162 98.139 24.9001L105.655 21.1005L113.171 24.9011C113.787 25.2141 114.545 24.7405 114.429 24.0905L112.984 15.9875L119.097 10.2558C119.581 9.80198 119.303 9.03206 118.614 8.93608L110.2 7.76032L106.428 0.411568C106.146 -0.137189 105.162 -0.137189 104.88 0.411568L101.11 7.75927L92.6954 8.93503C92.0043 9.03206 91.7283 9.80094 92.213 10.2548L98.326 15.9865Z" fill="#EADADA"/>
<path d="M67.662 15.9865L66.217 24.0895C66.1018 24.7332 66.8534 25.2162 67.4749 24.9001L74.9908 21.1005L82.5067 24.9011C83.1225 25.2141 83.881 24.7405 83.7646 24.0905L82.3196 15.9875L88.4327 10.2558C88.9174 9.80198 88.6391 9.03206 87.9503 8.93608L79.5357 7.76032L75.7641 0.411568C75.4824 -0.137189 74.4981 -0.137189 74.2164 0.411568L70.4459 7.75927L62.0314 8.93503C61.3402 9.03206 61.0642 9.80094 61.5489 10.2548L67.662 15.9865Z" fill="#EADADA"/>
<path d="M37.0253 15.9865L35.5803 24.0895C35.4651 24.7332 36.2167 25.2162 36.8382 24.9001L44.3541 21.1005L51.87 24.9011C52.4858 25.2141 53.2443 24.7405 53.1279 24.0905L51.6829 15.9875L57.796 10.2558C58.2807 9.80198 58.0024 9.03206 57.3135 8.93608L48.899 7.76032L45.1273 0.411568C44.8456 -0.137189 43.8614 -0.137189 43.5797 0.411568L39.8092 7.75927L31.3946 8.93503C30.7035 9.03206 30.4275 9.80094 30.9122 10.2548L37.0253 15.9865Z" fill="#EADADA"/>
<path d="M6.35729 15.9865L4.91229 24.0895C4.7971 24.7332 5.54868 25.2162 6.17025 24.9001L13.6861 21.1005L21.202 24.9011C21.8179 25.2141 22.5763 24.7405 22.46 24.0905L21.0149 15.9875L27.128 10.2558C27.6127 9.80198 27.3344 9.03206 26.6456 8.93608L18.231 7.76032L14.4594 0.411568C14.1777 -0.137189 13.1934 -0.137189 12.9117 0.411568L9.14124 7.75927L0.726666 8.93503C0.0355255 9.03206 -0.240475 9.80094 0.244236 10.2548L6.35729 15.9865Z" fill="#EADADA"/>
</svg>
