<svg width="16" height="17" viewBox="0 0 16 17" fill="none" xmlns="http://www.w3.org/2000/svg">
<path d="M16 7.00436V0L13.6485 2.35145C12.2026 0.900563 10.2064 0 7.99498 0C3.57223 0 0 3.58222 0 8.00502C0 12.4278 3.57223 16.01 7.99498 16.01C11.7223 16.01 14.8443 13.4584 15.7298 10.0063H13.6485C12.823 12.3378 10.6116 14.0088 7.99503 14.0088C4.67796 14.0088 1.99128 11.3221 1.99128 8.00502C1.99128 4.68795 4.67796 2.00127 7.99503 2.00127C9.65108 2.00127 11.137 2.6917 12.2227 3.77739L8.99564 7.00441H16V7.00436Z" fill="black"/>
</svg>
