<svg width="9" height="9" viewBox="0 0 9 9" fill="none" xmlns="http://www.w3.org/2000/svg">
<path d="M0.375 3.7938L7.85606 3.7938L4.99144 0.928913C4.84144 0.778896 4.83562 0.529656 4.9785 0.372157C5.12119 0.214856 5.35856 0.208556 5.50875 0.358573L8.78025 3.6306C8.92181 3.77943 9 3.97709 9 4.18755C9 4.39781 8.92181 4.59566 8.77369 4.751L5.50856 8.01633C5.436 8.08897 5.343 8.125 5.25 8.125C5.151 8.125 5.052 8.08405 4.97831 8.00274C4.83544 7.84525 4.84125 7.5962 4.99125 7.44618L7.86788 4.58129L0.375 4.58129C0.168001 4.58129 3.22873e-07 4.4049 3.05983e-07 4.18755C2.89094e-07 3.9702 0.168 3.7938 0.375 3.7938Z" fill="white"/>
</svg>
