<svg width="7" height="9" viewBox="0 0 7 9" fill="none" xmlns="http://www.w3.org/2000/svg">
<path fill-rule="evenodd" clip-rule="evenodd" d="M0.482759 0H4.34483C5.04902 0 5.72438 0.260758 6.22232 0.724911C6.72026 1.18906 7 1.81859 7 2.475C7 3.13141 6.72026 3.76094 6.22232 4.22509C5.72438 4.68924 5.04902 4.95 4.34483 4.95H1.44828V5.49H5.11724V6.39H1.44828V9H0.482759V6.39H0V5.49H0.482759V4.95H0V4.05H0.482759V0ZM1.44828 0.9H4.34483C4.79295 0.9 5.22272 1.06594 5.53959 1.36131C5.85647 1.65668 6.03448 2.05728 6.03448 2.475C6.03448 2.89272 5.85647 3.29332 5.53959 3.58869C5.22272 3.88406 4.79295 4.05 4.34483 4.05H1.44828V0.9Z" fill="black"/>
</svg>
