<svg width="7" height="9" viewBox="0 0 7 9" fill="none" xmlns="http://www.w3.org/2000/svg">
<path d="M3.84995 0.375L3.84995 7.85606L6.39652 4.99144C6.52987 4.84144 6.75142 4.83562 6.89142 4.9785C7.03124 5.12119 7.03684 5.35856 6.90349 5.50875L3.99503 8.78025C3.86273 8.92181 3.68703 9 3.49996 9C3.31306 9 3.13719 8.92181 2.99911 8.77369L0.0965987 5.50856C0.0320244 5.436 4.36093e-08 5.343 4.47183e-08 5.25C4.58989e-08 5.151 0.0363989 5.052 0.108673 4.97831C0.248672 4.83544 0.470045 4.84125 0.603393 4.99125L3.14996 7.86787L3.14996 0.375C3.14996 0.168 3.30676 -4.40415e-08 3.49996 -4.17376e-08C3.69316 -3.94337e-08 3.84995 0.168 3.84995 0.375Z" fill="#BCAFAF"/>
</svg>
