<svg width="17" height="17" viewBox="0 0 17 17" fill="none" xmlns="http://www.w3.org/2000/svg">
<path d="M8.5 0C3.8131 0 0 3.8131 0 8.5C0 13.1869 3.8131 17 8.5 17C13.1869 17 17 13.1869 17 8.5C17 3.8131 13.1869 0 8.5 0ZM8.5 15.1913C4.81043 15.1913 1.80848 12.1897 1.80848 8.5C1.80848 4.81025 4.81043 1.80866 8.5 1.80866C12.1896 1.80866 15.1915 4.81025 15.1915 8.5C15.1915 12.1897 12.1896 15.1913 8.5 15.1913Z" fill="#0D0D0D"/>
<path d="M12.9306 8.23755H9.11069V3.64461C9.11069 3.2581 8.79732 2.94473 8.41081 2.94473C8.02431 2.94473 7.71094 3.2581 7.71094 3.64461V8.93742C7.71094 9.32393 8.02431 9.6373 8.41081 9.6373H12.9306C13.3171 9.6373 13.6305 9.32393 13.6305 8.93742C13.6305 8.55092 13.3171 8.23755 12.9306 8.23755Z" fill="#0D0D0D"/>
</svg>
