<svg width="15" height="18" viewBox="0 0 15 18" fill="none" xmlns="http://www.w3.org/2000/svg">
<path d="M3.51562 11.1094H0.703125C0.314789 11.1094 0 11.4242 0 11.8125V17.2969C0 17.6852 0.314789 18 0.703125 18H3.51562C3.90396 18 4.21875 17.6852 4.21875 17.2969V11.8125C4.21875 11.4242 3.90396 11.1094 3.51562 11.1094ZM2.8125 16.5938H1.40625V12.5156H2.8125V16.5938Z" fill="black"/>
<path d="M14.2031 5.48438H11.3906C11.0023 5.48438 10.6875 5.79916 10.6875 6.1875V17.2969C10.6875 17.6852 11.0023 18 11.3906 18H14.2031C14.5915 18 14.9062 17.6852 14.9062 17.2969V6.1875C14.9062 5.79916 14.5915 5.48438 14.2031 5.48438ZM13.5 16.5938H12.0938V6.89062H13.5V16.5938Z" fill="black"/>
<path d="M8.85938 8.29688H6.04688C5.65854 8.29688 5.34375 8.61166 5.34375 9V17.2969C5.34375 17.6852 5.65854 18 6.04688 18H8.85938C9.24771 18 9.5625 17.6852 9.5625 17.2969V9C9.5625 8.61166 9.24771 8.29688 8.85938 8.29688ZM8.15625 16.5938H6.75V9.70312H8.15625V16.5938Z" fill="black"/>
<path d="M9.77212 0H7.10024C6.71191 0 6.39712 0.314789 6.39712 0.703125C6.39712 1.09146 6.71191 1.40625 7.10024 1.40625H8.0746L2.1122 7.36864C1.8376 7.64321 1.8376 8.08843 2.1122 8.36304C2.38677 8.63757 2.83192 8.63764 3.10656 8.36304L9.06899 2.40064V3.375C9.06899 3.76334 9.38378 4.07812 9.77212 4.07812C10.1605 4.07812 10.4752 3.76334 10.4752 3.375V0.703477C10.4755 0.315527 10.1579 0 9.77212 0Z" fill="black"/>
</svg>
