<svg width="15" height="23" viewBox="0 0 15 23" fill="none" xmlns="http://www.w3.org/2000/svg">
<path d="M7.5 0C3.36444 0 0 3.36444 0 7.5C0 11.6353 3.36444 15 7.5 15C11.6353 15 15 11.6353 15 7.5C15 3.36444 11.6353 0 7.5 0ZM7.5 13.5246C4.17812 13.5246 1.47541 10.8219 1.47541 7.5C1.47541 4.17812 4.17812 1.47541 7.5 1.47541C10.8221 1.47541 13.5246 4.17812 13.5246 7.5C13.5246 10.8219 10.8221 13.5246 7.5 13.5246Z" fill="black"/>
<path d="M12.7361 21.4362L12.3672 12.6821L10.8933 12.7441L11.215 20.3744L8.16752 17.7487C7.78664 17.3928 7.21197 17.3924 6.83082 17.7487L3.7836 20.3742L4.10524 12.7441L2.63106 12.6821L2.2622 21.4362C2.26194 21.4466 2.26172 21.4569 2.26172 21.4672C2.26172 21.8579 2.48867 22.2148 2.84007 22.3761C3.19318 22.5389 3.5989 22.4806 3.89892 22.2226L7.49939 19.1206L11.1009 22.2238C11.2878 22.3839 11.5162 22.4668 11.7473 22.4668C11.8865 22.4668 12.0264 22.437 12.1587 22.376C12.5099 22.2147 12.7368 21.8579 12.7368 21.4672C12.7368 21.4569 12.7366 21.4466 12.7361 21.4362Z" fill="black"/>
<path d="M10.7753 5.2569C10.4871 4.96869 10.0204 4.96869 9.73225 5.2569L6.51928 8.46986L5.02443 6.95685C4.73798 6.66692 4.271 6.66399 3.98108 6.95044C3.69116 7.23689 3.68822 7.70388 3.97467 7.9938L5.99104 10.0348C6.12923 10.1747 6.31712 10.2536 6.51358 10.2541C6.51432 10.2541 6.51507 10.2541 6.51577 10.2541C6.71126 10.2541 6.89912 10.1764 7.03756 10.0378L10.7753 6.30008C11.0635 6.01205 11.0635 5.54485 10.7753 5.2569Z" fill="black"/>
</svg>
