<svg width="23" height="14" viewBox="0 0 23 14" fill="none" xmlns="http://www.w3.org/2000/svg">
<path d="M22.878 11.8511C22.8502 11.791 22.8242 11.7413 22.8001 11.7014C22.401 10.9827 21.6385 10.1005 20.5128 9.05466L20.4891 9.03071L20.4771 9.01897L20.4651 9.00693H20.453C19.9422 8.51993 19.6186 8.19248 19.4832 8.02483C19.2353 7.70547 19.1798 7.38222 19.3152 7.05468C19.4109 6.80722 19.7705 6.2846 20.393 5.48613C20.7205 5.06296 20.9798 4.72381 21.1713 4.46829C22.5525 2.63201 23.1514 1.4586 22.9677 0.94761L22.8963 0.828197C22.8484 0.756306 22.7246 0.690539 22.5253 0.63056C22.3255 0.570707 22.0701 0.560808 21.7586 0.600697L18.3099 0.62452C18.254 0.604723 18.1742 0.606568 18.0703 0.63056C17.9665 0.654551 17.9146 0.666589 17.9146 0.666589L17.8546 0.696579L17.8069 0.732608C17.767 0.756432 17.7231 0.798333 17.6751 0.858229C17.6274 0.917914 17.5875 0.987959 17.5557 1.06778C17.1802 2.03377 16.7533 2.93191 16.2742 3.76213C15.9788 4.25719 15.7075 4.68623 15.4597 5.0495C15.2123 5.41264 15.0047 5.6802 14.8372 5.85171C14.6694 6.02338 14.518 6.16091 14.382 6.2648C14.2463 6.36874 14.1426 6.41265 14.0708 6.39659C13.9989 6.38053 13.9312 6.36459 13.867 6.34865C13.7554 6.27676 13.6655 6.17899 13.5978 6.05526C13.5297 5.93152 13.4839 5.77579 13.46 5.58818C13.4362 5.40044 13.4221 5.23896 13.418 5.10319C13.4143 4.96758 13.416 4.77578 13.4241 4.52831C13.4324 4.28072 13.4362 4.1132 13.4362 4.02537C13.4362 3.72195 13.4421 3.39265 13.4539 3.03739C13.466 2.68213 13.4758 2.40065 13.484 2.19328C13.4921 1.98571 13.4959 1.76609 13.4959 1.53456C13.4959 1.30304 13.4818 1.12146 13.4539 0.989678C13.4264 0.85806 13.3842 0.730301 13.3285 0.606443C13.2725 0.48271 13.1906 0.386995 13.083 0.319047C12.9753 0.251183 12.8413 0.197327 12.6819 0.157314C12.2587 0.061557 11.7199 0.00975701 11.0651 0.0017039C9.58027 -0.0142346 8.62619 0.0816477 8.20306 0.289225C8.03542 0.376929 7.88371 0.49676 7.74806 0.648344C7.60432 0.824044 7.58427 0.919927 7.68804 0.935698C8.16712 1.00746 8.50627 1.17914 8.70588 1.45055L8.77781 1.59438C8.83377 1.69814 8.88963 1.88185 8.94554 2.14526C9.00137 2.40866 9.0374 2.70004 9.05325 3.01923C9.0931 3.60212 9.0931 4.10108 9.05325 4.51615C9.01328 4.93139 8.97553 5.25464 8.9395 5.48617C8.90347 5.7177 8.84962 5.90531 8.77781 6.04896C8.70588 6.19266 8.65802 6.28049 8.63403 6.31237C8.61008 6.34425 8.59012 6.36434 8.57426 6.37222C8.47049 6.41198 8.36257 6.43224 8.25088 6.43224C8.13902 6.43224 8.00337 6.37629 7.84373 6.26447C7.68414 6.15265 7.51851 5.99905 7.34683 5.80343C7.17516 5.60776 6.98155 5.33433 6.76592 4.9831C6.55046 4.63187 6.3269 4.21676 6.09537 3.73776L5.90381 3.39039C5.78407 3.16691 5.62049 2.84152 5.41291 2.41449C5.20521 1.9873 5.02162 1.57407 4.86203 1.1749C4.79823 1.00725 4.70239 0.87962 4.57467 0.79179L4.51474 0.755761C4.47489 0.723884 4.41093 0.690035 4.32318 0.653964C4.23531 0.617935 4.14362 0.592098 4.04774 0.576201L0.766556 0.600025C0.431261 0.600025 0.203761 0.675984 0.0839705 0.827693L0.0360293 0.899458C0.0120797 0.93943 0 1.00327 0 1.09114C0 1.17897 0.0239496 1.28676 0.0718908 1.4144C0.550883 2.54015 1.07178 3.62586 1.63457 4.67167C2.19737 5.71749 2.68643 6.55992 3.10146 7.19821C3.51657 7.83697 3.93969 8.43982 4.37083 9.00647C4.80196 9.57333 5.08735 9.93661 5.22698 10.0962C5.36677 10.2561 5.47658 10.3756 5.5564 10.4554L5.85583 10.7428C6.04743 10.9344 6.32878 11.164 6.70002 11.4313C7.07135 11.6989 7.48243 11.9623 7.93349 12.222C8.38464 12.4812 8.90947 12.6928 9.5083 12.8564C10.107 13.0202 10.6898 13.0859 11.2567 13.0542H12.6338C12.9131 13.0301 13.1247 12.9423 13.2686 12.7907L13.3162 12.7307C13.3482 12.683 13.3782 12.609 13.4059 12.5094C13.4339 12.4096 13.4479 12.2997 13.4479 12.1801C13.4397 11.8368 13.4658 11.5275 13.5255 11.2521C13.5852 10.9768 13.6533 10.7692 13.7293 10.6294C13.8054 10.4898 13.8912 10.3719 13.9867 10.2763C14.0824 10.1806 14.1506 10.1226 14.1906 10.1026C14.2304 10.0825 14.2622 10.0689 14.2861 10.0607C14.4777 9.99688 14.7032 10.0587 14.9629 10.2465C15.2224 10.4341 15.4658 10.6657 15.6935 10.9411C15.921 11.2166 16.1944 11.5258 16.5137 11.869C16.8332 12.2124 17.1125 12.4676 17.3519 12.6355L17.5913 12.7792C17.7512 12.8751 17.9588 12.9629 18.2143 13.0427C18.4694 13.1225 18.6928 13.1425 18.8847 13.1026L21.9502 13.0548C22.2534 13.0548 22.4894 13.0045 22.6567 12.9049C22.8244 12.8052 22.924 12.6952 22.9562 12.5756C22.9882 12.4559 22.9899 12.3201 22.9622 12.1683C22.9338 12.0168 22.9059 11.9109 22.878 11.8511Z" fill="#0E0E0E"/>
</svg>
